<?xml version="1.0" encoding="iso-8859-1"?>
<!-- Generator: Adobe Illustrator 19.0.0, SVG Export Plug-In . SVG Version: 6.00 Build 0)  -->
<svg version="1.1" id="Capa_1" xmlns="http://www.w3.org/2000/svg" xmlns:xlink="http://www.w3.org/1999/xlink" x="0px" y="0px"
	 viewBox="0 0 512 512" style="enable-background:new 0 0 512 512;" xml:space="preserve">
<path style="fill:#E1EFFB;" d="M199.841,504.558c-10.908,0-21.402-4.601-28.792-12.623c-7.39-8.022-11.117-18.857-10.225-29.728
	l3.065-37.36l-43.668-92.791c-5.543-10.388-8.533-22.099-8.654-33.922l-0.416-40.35c-0.234-22.633,11.967-42.781,30.451-53.234
	l4.747-156.357c0.694-22.851,19.144-40.75,42.005-40.75l13.049,0.04c22.648,0.068,41.44,18.547,41.888,41.193l2.152,108.39
	c0.62-0.023,1.245-0.035,1.871-0.035c1.337,0,2.693,0.054,4.03,0.159l0.789,0.063c14.21,1.125,26.609,8.032,35.066,18.225
	c3.772-0.907,7.697-1.387,11.715-1.387c1.339,0,2.696,0.053,4.034,0.16l0.787,0.062c15.076,1.193,28.111,8.891,36.566,20.12
	c3.153-0.605,6.408-0.92,9.729-0.92c1.338,0,2.695,0.054,4.032,0.16c27.915,2.208,48.833,26.715,46.63,54.629l-3.733,47.278
	l2.555,42.024c1.516,20.296-4.224,52.625-39.959,91.762c-2.537,2.777-3.845,6.389-3.686,10.168l1.109,30.683
	c0.324,8.944-3.054,17.767-9.267,24.209c-6.212,6.441-14.908,10.135-23.856,10.135H199.841V504.558z"/>
<path style="fill:#C3D8E5;" d="M354.061,193.671c-1.337-0.106-2.694-0.16-4.032-0.16c-3.321,0-6.576,0.315-9.729,0.92
	c-0.167-0.221-0.346-0.432-0.516-0.65c11.464,15.449,17.917,37.667,16.587,54.52l-3.733,47.278l2.555,42.024
	c1.516,20.296-4.224,52.625-39.959,91.762c-2.537,2.777-3.845,6.389-3.686,10.168l1.109,30.683
	c0.324,8.944-3.054,17.767-9.267,24.209c-6.212,6.441-14.908,10.135-23.856,10.135h44.32c8.949,0,17.644-3.694,23.856-10.135
	c6.213-6.442,9.591-15.265,9.267-24.209l-1.109-30.683c-0.159-3.779,1.149-7.39,3.686-10.168
	c35.735-39.137,41.475-71.466,39.959-91.762l-2.555-42.024l3.733-47.278C402.894,220.386,381.977,195.879,354.061,193.671z"/>
<path style="fill:#FC5454;" d="M163.616,296.877l59.796,0.184l-4.921-247.896c-0.186-9.355-7.807-16.849-17.163-16.878l-12.919-0.04
	c-9.327-0.029-16.982,7.374-17.265,16.697L163.616,296.877z"/>
<path style="fill:#EF3A3A;" d="M190.792,47.293l4.956,249.683l27.664,0.085l-4.921-247.896c-0.186-9.355-7.807-16.849-17.163-16.878
	l-12.919-0.04c-2.39-0.007-4.667,0.48-6.741,1.356C186.947,35.937,190.67,41.161,190.792,47.293z"/>
<path style="fill:#FF4C4C;" d="M154.204,301.26l34.949,119.015l-3.607,43.962c-0.686,8.356,5.911,15.516,14.295,15.516h124.014
	c4.724,0,8.505-3.92,8.335-8.641l-1.104-30.534c-0.434-10.29,3.206-20.334,10.151-27.94c13.863-15.182,35.799-44.133,33.529-73.339
	l-5.826-95.857l-105.517,3.62l-103.404,17.587C160.019,264.649,149.414,284.946,154.204,301.26z"/>
<path style="fill:#EA2828;" d="M374.765,339.299l-5.826-95.857l-44.888,1.54l5.733,94.317c2.271,29.205-19.665,58.156-33.529,73.339
	c-6.945,7.606-10.585,17.649-10.151,27.94l1.416,39.175h36.335c4.724,0,8.505-3.92,8.335-8.641l-1.104-30.534
	c-0.434-10.29,3.206-20.334,10.151-27.94C355.099,397.455,377.035,368.504,374.765,339.299z"/>
<path style="fill:#FC5454;" d="M343.953,321.575L343.953,321.575c14.308,1.132,26.824-9.551,27.954-23.86l4.055-51.366
	c1.129-14.305-9.551-26.818-23.856-27.95l0,0c-14.308-1.132-26.824,9.551-27.954,23.86l-4.055,51.366
	C318.968,307.931,329.648,320.443,343.953,321.575z"/>
<path style="fill:#EF3A3A;" d="M352.106,218.4L352.106,218.4c-4.905-0.388-9.6,0.614-13.698,2.673
	c7.046,3.667,11.589,11.293,10.925,19.71l-4.934,62.501c-0.534,6.769-4.327,12.487-9.705,15.782
	c2.825,1.367,5.943,2.247,9.259,2.509l0,0c14.308,1.132,26.824-9.551,27.954-23.86l4.055-51.366
	C377.092,232.044,366.411,219.531,352.106,218.4z"/>
<path style="fill:#FC5454;" d="M291.913,314.009l0.782,0.062c14.31,1.132,26.827-9.554,27.954-23.864l4.981-63.222
	c1.127-14.304-9.553-26.814-23.856-27.946l-0.782-0.062c-14.31-1.132-26.827,9.554-27.954,23.864l-4.981,63.222
	C266.93,300.367,277.61,312.877,291.913,314.009z"/>
<path style="fill:#EF3A3A;" d="M301.774,199.039l-0.782-0.062c-4.658-0.368-9.123,0.522-13.071,2.376
	c7.717,3.602,12.787,11.694,12.078,20.684l-5.761,73.121c-0.575,7.294-4.81,13.417-10.758,16.725
	c2.603,1.147,5.436,1.889,8.432,2.126l0.782,0.062c14.31,1.132,26.827-9.554,27.954-23.864l4.981-63.222
	C326.758,212.681,316.078,200.171,301.774,199.039z"/>
<path style="fill:#FC5454;" d="M240.312,296.949l0.782,0.062c14.31,1.132,26.827-9.554,27.954-23.864l4.981-63.222
	c1.127-14.304-9.553-26.814-23.856-27.946l-0.782-0.062c-14.31-1.132-26.827,9.554-27.954,23.864l-4.981,63.222
	C215.328,283.307,226.008,295.818,240.312,296.949z"/>
<path style="fill:#EF3A3A;" d="M250.172,181.98l-0.782-0.062c-4.705-0.372-9.213,0.54-13.189,2.432
	c7.491,3.562,12.398,11.456,11.708,20.218l-5.826,73.941c-0.556,7.055-4.605,12.995-10.313,16.267
	c2.632,1.175,5.504,1.933,8.541,2.173l0.782,0.062c14.31,1.132,26.827-9.554,27.954-23.864l4.981-63.222
	C275.156,195.621,264.476,183.111,250.172,181.98z"/>
<path style="fill:#FC5454;" d="M189.153,420.275l-46.782-99.406c-3.853-7.022-5.917-14.93-6-22.989l-0.416-40.352
	c-0.202-19.618,15.164-35.653,34.255-35.747l61.866-0.303c12.402-0.061,22.505,10.231,22.554,22.976l0.031,8.089
	c0.049,12.726-9.946,23.08-22.33,23.131l-21.912,0.092c-10.726,0.045-19.362,9.051-19.249,20.073l0,0
	c9.231,7.469,17.024,15.483,18.899,25.036C217.35,357.959,189.153,420.275,189.153,420.275z"/>
<path style="fill:#EA2828;" d="M254.647,248.49l-0.016-4.037c-0.002-0.441-0.018-0.878-0.043-1.312
	c-0.006-0.097-0.016-0.193-0.023-0.29c-0.025-0.351-0.055-0.7-0.096-1.046c-0.009-0.079-0.02-0.158-0.03-0.237
	c-0.048-0.377-0.103-0.752-0.168-1.123c-0.007-0.041-0.015-0.083-0.022-0.125c-0.076-0.42-0.162-0.836-0.259-1.248
	c-2.433,9.973-11.192,17.375-21.657,17.419l-21.912,0.092c-10.726,0.045-19.648,9.621-20.604,20.602
	c-0.744,8.548,1.355,18.654,1.355,18.654c-0.113-11.022,8.523-20.028,19.249-20.073l21.821-0.091h0.092
	c0.774-0.003,1.539-0.047,2.292-0.128c0.753-0.082,1.496-0.202,2.225-0.359c0.729-0.156,1.445-0.349,2.146-0.577
	c3.857-1.25,7.261-3.542,9.903-6.553c0.48-0.547,0.935-1.119,1.363-1.712c0.856-1.186,1.604-2.46,2.228-3.805
	c1.405-3.028,2.186-6.419,2.172-9.998L254.647,248.49z"/>
<path style="fill:#EF3A3A;" d="M291.388,326.93c1.027,0.08,2.068,0.122,3.095,0.122c7.788,0,15.193-2.389,21.407-6.52
	c3.624,4.345,8.182,7.906,13.381,10.354l-0.968-15.934c-5.701-5.157-9.065-12.773-8.512-21.015
	c-2.806,12.388-14.349,21.165-27.384,20.134l-0.782-0.062c-14.304-1.131-24.983-13.642-23.856-27.946l0.732-9.285
	c-2.767,12.44-14.336,21.266-27.405,20.232l-0.782-0.062c-11.998-0.949-21.442-9.905-23.511-21.21l-6.381,0.027
	c-10.726,0.045-19.362,9.051-19.249,20.073l0,0c9.231,7.469,17.024,15.483,18.899,25.036c3.922,19.98-2.454,47.281-9.17,68.217
	c12.58-19.3,26.505-46.878,21.828-70.703c-1.303-6.633-6.855-15.131-11.188-20.985c-0.618-0.835,0.444-1.874,1.261-1.234
	c6.938,5.44,17.944,12.961,26.491,13.637l0.785,0.063c1.026,0.08,2.066,0.122,3.092,0.122c5.717,0,11.223-1.283,16.202-3.596
	c6.047,11.296,17.542,19.387,31.232,20.47L291.388,326.93z"/>
<path d="M246.716,350.067l-2.407,13.393h11.51l2.826-15.695c0.314-1.779,2.93-2.826,5.546-2.826c3.139,0,6.173,1.465,6.278,5.127
	l-2.511,13.393h8.161c1.988,0,3.977,2.093,3.977,5.023c0,2.929-1.884,5.022-3.872,5.022H266.18l-2.407,12.87h8.162
	c1.988,0,4.08,2.198,4.08,5.022c0,3.035-2.092,5.127-3.976,5.127h-10.15l-3.034,16.742c-0.314,1.884-3.035,3.139-5.336,3.139
	c-2.93,0-6.697-1.673-6.697-5.022l2.615-14.858h-11.3l-3.035,16.742c-0.313,1.884-3.139,3.139-5.232,3.139
	c-2.929,0-6.592-1.673-6.592-5.022l2.512-14.858h-8.162c-2.302,0-3.766-1.987-3.766-4.918c0-2.929,1.569-5.232,3.766-5.232h10.15
	l2.301-12.87h-8.162c-2.406,0-3.871-1.884-3.871-4.918c0-2.93,1.465-5.128,3.766-5.128h10.255l2.826-15.695
	c0.418-1.779,3.034-2.826,5.65-2.826C243.681,344.94,246.716,346.405,246.716,350.067z M240.124,386.376h11.3l2.407-12.87h-11.406
	L240.124,386.376z"/>
<path d="M292.961,359.38l-3.348,3.348c-0.837,0.733-1.779,0.942-2.512,0.942c-2.615,0-4.394-2.72-4.394-5.441
	c0-1.884,0.942-3.871,2.616-4.918l12.347-9.418c0.733-0.628,1.673-1.047,2.825-1.047c2.826,0,6.069,1.674,6.069,4.395v68.013
	c0,2.825-3.452,4.29-6.801,4.29c-3.452,0-6.801-1.465-6.801-4.29V359.38H292.961z"/>
<path d="M352.693,210.981c-7.391-0.586-14.593,1.254-20.711,5.207c-3.605-13.226-15.191-23.425-29.62-24.567l-0.783-0.062
	c-7.799-0.616-15.384,1.456-21.709,5.867c-4.101-12.391-15.305-21.772-29.11-22.865l-0.783-0.062
	c-7.697-0.613-15.191,1.408-21.469,5.708l-2.577-131.189c-0.264-13.289-11.291-24.133-24.581-24.172l-12.919-0.04
	c-0.027,0-0.053,0-0.08,0c-13.419,0-24.239,10.489-24.646,23.913l-2.183,71.891c-0.125,4.108,3.104,7.54,7.212,7.664
	c4.099,0.142,7.54-3.105,7.664-7.212l2.183-71.891c0.162-5.323,4.452-9.481,9.773-9.481c0.01,0,0.021,0,0.031,0l12.919,0.04
	c5.269,0.016,9.641,4.315,9.746,9.582l3.027,154.128c0.005,0.237,0.023,0.471,0.049,0.702c-0.039,0.352-0.081,0.702-0.109,1.056
	l-0.704,8.93l-39.747,0.195l1.774-58.43c0.125-4.108-3.104-7.54-7.212-7.664c-0.077-0.003-0.153-0.004-0.23-0.004
	c-4.006,0-7.312,3.185-7.434,7.216l-1.84,60.61c-6.632,1.973-12.717,5.61-17.744,10.715c-8.096,8.22-12.487,19.171-12.367,30.838
	l0.416,40.351c0.094,9.178,2.446,18.261,6.803,26.284l45.841,97.406l-3.444,41.983c-0.497,6.048,1.577,12.077,5.689,16.542
	c4.112,4.464,9.952,7.024,16.022,7.024h124.014c4.324,0,8.357-1.714,11.358-4.826c3.002-3.112,4.569-7.205,4.413-11.526
	l-1.106-30.579c-0.354-8.392,2.562-16.421,8.212-22.608c2.48-2.716,4.887-5.504,7.154-8.285c2.597-3.186,2.119-7.874-1.066-10.471
	c-3.187-2.597-7.874-2.12-10.471,1.066c-2.093,2.568-4.317,5.143-6.608,7.654c-8.318,9.109-12.612,20.925-12.093,33.226
	l1.104,30.534c0.009,0.254-0.076,0.474-0.251,0.657c-0.176,0.182-0.393,0.274-0.646,0.274H199.841c-1.952,0-3.754-0.791-5.076-2.225
	c-1.322-1.435-1.961-3.296-1.802-5.24l3.608-43.962h-0.005c0.104-1.256-0.103-2.555-0.678-3.777L149.105,317.7
	c-0.066-0.14-0.136-0.277-0.209-0.412c-3.256-5.932-5.014-12.669-5.082-19.485l-0.416-40.352
	c-0.079-7.676,2.793-14.865,8.087-20.241c4.167-4.231,9.446-6.897,15.141-7.715c0.012-0.001,0.023-0.003,0.034-0.005
	c1.18-0.168,2.378-0.262,3.588-0.268l61.866-0.303c3.871-0.003,7.592,1.511,10.414,4.308c2.99,2.963,4.645,6.961,4.662,11.255
	l0.031,8.089c0.033,8.601-6.66,15.627-14.919,15.662l-15.328,0.064c-0.014,0-0.028,0-0.043,0l-6.543,0.027
	c-7.084,0.03-13.75,2.852-18.77,7.946c-5.163,5.239-7.964,12.216-7.888,19.646c0.023,2.219,1.036,4.312,2.761,5.707
	c6.762,5.472,14.723,12.767,16.278,20.686c0.792,4.033,4.699,6.664,8.736,5.868c4.033-0.792,6.66-4.703,5.868-8.736
	c-2.189-11.146-10.499-20.026-18.417-26.809c0.524-2.23,1.638-4.265,3.264-5.916c2.217-2.249,5.14-3.496,8.232-3.509l0.776-0.003
	c4.588,11.745,15.567,20.141,28.498,21.164l0.783,0.062c0.9,0.072,1.797,0.107,2.69,0.107c6.838,0,13.421-2.077,19.017-5.98
	c4.1,12.394,15.305,21.778,29.111,22.87l0.783,0.062c0.9,0.072,1.797,0.107,2.69,0.107c7.942,0,15.543-2.794,21.649-8.006
	c0.3-0.256,0.588-0.522,0.877-0.786c5.375,8.967,14.849,15.305,26.041,16.19c0.901,0.072,1.796,0.107,2.69,0.107
	c7.333,0,14.373-2.387,20.217-6.855l1.064,17.505c0.003,0.042,0.006,0.083,0.009,0.125c0.766,9.864-1.618,20.758-7.087,32.379
	c-1.75,3.718-0.154,8.152,3.565,9.902c1.024,0.482,2.102,0.71,3.164,0.71c2.793,0,5.47-1.58,6.738-4.275
	c6.57-13.96,9.418-27.352,8.464-39.803l-2.636-43.367l3.828-48.487C384.831,228.563,371.064,212.434,352.693,210.981z
	 M266.611,209.34l-4.982,63.222c-0.39,4.939-2.678,9.43-6.447,12.647c-3.767,3.216-8.562,4.775-13.501,4.383l-0.783-0.062
	c-5-0.396-9.465-2.787-12.58-6.398l4.044-0.017c16.463-0.07,29.805-13.797,29.741-30.602l-0.031-8.089
	c-0.031-8.273-3.252-16.004-9.067-21.769c-5.612-5.563-13-8.621-20.818-8.621c-0.049,0-0.099,0-0.148,0l-3.791,0.019l0.606-7.688
	c0.39-4.939,2.678-9.43,6.447-12.647c3.768-3.216,8.557-4.776,13.501-4.383l0.783,0.062
	C259.776,190.204,267.413,199.151,266.611,209.34z M318.212,226.4l-0.872,11.073c-0.284,1.376-0.494,2.776-0.606,4.2l-4.032,51.067
	c-0.933,3.692-2.962,7.005-5.917,9.528c-3.767,3.217-8.553,4.773-13.501,4.383l-0.782-0.062c0,0-0.001,0-0.002,0
	c-10.19-0.805-17.826-9.752-17.024-19.943l4.981-63.221c0.39-4.939,2.679-9.43,6.447-12.647c3.388-2.891,7.605-4.442,12.01-4.442
	c0.495,0,0.992,0.019,1.491,0.059l0.783,0.062C311.378,207.264,319.014,216.211,318.212,226.4z M368.544,245.764l-4.055,51.365
	c-0.391,4.939-2.68,9.43-6.448,12.646c-3.767,3.217-8.572,4.776-13.501,4.382c-9.988-0.79-17.501-9.403-17.042-19.339
	c0.265-1.32,0.463-2.662,0.57-4.026l4.018-51.003c0.926-3.717,2.96-7.053,5.932-9.589c3.769-3.217,8.571-4.772,13.501-4.382
	C361.711,226.624,369.348,235.572,368.544,245.764z"/>
<path d="M354.648,186.252c-3.776-0.297-7.55-0.229-11.266,0.19c-9.969-11.3-23.97-18.356-39.062-19.55l-0.78-0.062
	c-4.519-0.359-9.136-0.186-13.629,0.524c-9.861-10.209-22.899-16.387-37.167-17.52l-2.011-101.307
	c-0.529-26.656-22.647-48.408-49.307-48.487L188.354,0c-26.909,0-48.628,21.069-49.443,47.966l-4.625,152.328
	c-19.201,12.54-30.818,34.217-30.577,57.565l0.416,40.35c0.133,12.934,3.396,25.786,9.44,37.179l42.745,90.829l-2.902,35.381
	c-1.062,12.937,3.373,25.832,12.169,35.38C174.37,506.524,186.859,512,199.841,512h124.014c10.958,0,21.606-4.523,29.213-12.41
	c7.607-7.889,11.744-18.694,11.348-29.644l-1.111-30.727c-0.077-1.829,0.527-3.501,1.747-4.837
	c37.525-41.098,43.496-75.579,41.888-97.283l-2.521-41.453l3.693-46.759C410.636,216.881,386.653,188.784,354.648,186.252z
	 M393.273,247.714l-3.733,47.278c-0.027,0.346-0.031,0.692-0.01,1.038l2.555,42.024c0.002,0.035,0.005,0.069,0.007,0.103
	c1.403,18.78-4.056,48.977-38.032,86.188c-3.871,4.237-5.869,9.742-5.629,15.456l1.109,30.683
	c0.251,6.935-2.368,13.778-7.187,18.773c-4.817,4.995-11.56,7.859-18.5,7.859H199.841c-8.834,0-17.334-3.727-23.32-10.224
	c-5.985-6.497-9.004-15.273-8.281-24.077l3.065-37.36c0.107-1.297-0.129-2.6-0.683-3.777l-43.668-92.791
	c-0.053-0.113-0.109-0.225-0.168-0.334c-4.98-9.334-7.67-19.879-7.778-30.496l-0.416-40.35c-0.201-19.376,10.02-37.262,26.673-46.68
	c2.265-1.281,3.696-3.651,3.774-6.252l4.747-156.357c0.572-18.804,15.755-33.534,34.545-33.534l13.049,0.04
	c18.637,0.056,34.101,15.262,34.47,33.898l2.153,108.39c0.039,1.996,0.879,3.893,2.33,5.264s3.405,2.095,5.389,2.026
	c1.647-0.065,3.349-0.028,5.03,0.106l0.794,0.063c11.746,0.93,22.374,6.455,29.925,15.558c1.813,2.185,4.709,3.151,7.467,2.484
	c4.37-1.051,8.938-1.402,13.425-1.044l0.784,0.062c12.35,0.977,23.724,7.238,31.208,17.178c1.707,2.267,4.56,3.366,7.346,2.832
	c3.826-0.734,7.793-0.967,11.772-0.65C377.3,202.974,395.153,223.891,393.273,247.714z"/>
<g>
</g>
<g>
</g>
<g>
</g>
<g>
</g>
<g>
</g>
<g>
</g>
<g>
</g>
<g>
</g>
<g>
</g>
<g>
</g>
<g>
</g>
<g>
</g>
<g>
</g>
<g>
</g>
<g>
</g>
</svg>
