<?xml version="1.0" encoding="iso-8859-1"?>
<!-- Generator: Adobe Illustrator 19.0.0, SVG Export Plug-In . SVG Version: 6.00 Build 0)  -->
<svg version="1.1" id="Capa_1" xmlns="http://www.w3.org/2000/svg" xmlns:xlink="http://www.w3.org/1999/xlink" x="0px" y="0px"
	 viewBox="0 0 512.001 512.001" style="enable-background:new 0 0 512.001 512.001;" xml:space="preserve">
<path style="fill:#FF4C4C;" d="M121.864,322.287h268.27c2.682-3.225,5.399-6.603,8.113-10.13
	c26.604-34.57,40.892-67.316,41.32-94.699c0.363-23.221-8.789-42.995-27.98-60.449c-14.041-12.771-29.799-18.979-48.174-18.979
	c-15.8,0-33.441,4.612-52.433,13.709l-0.74,0.35c-20.142,9.269-37.08,13.788-53.306,14.223l-0.935,0.025l-0.935-0.025
	c-16.226-0.435-33.164-4.954-53.306-14.223l-0.685-0.325c-19.013-9.114-36.673-13.734-52.487-13.734
	c-18.375,0-34.133,6.208-48.174,18.978c-19.191,17.456-28.344,37.229-27.981,60.45c0.428,27.383,14.716,60.13,41.32,94.699
	C116.465,315.685,119.182,319.063,121.864,322.287z"/>
<path style="fill:#EA2828;" d="M411.587,157.009c-14.041-12.771-29.799-18.979-48.174-18.979c-7.689,0-15.817,1.101-24.322,3.271
	c9.543,3.053,18.329,8.255,26.524,15.708c19.191,17.454,28.343,37.228,27.981,60.449c-0.428,27.383-14.716,60.13-41.32,94.699
	c-2.714,3.527-5.431,6.905-8.113,10.13h45.972c2.682-3.225,5.399-6.603,8.113-10.13c26.604-34.57,40.892-67.316,41.32-94.699
	C439.93,194.237,430.778,174.463,411.587,157.009z"/>
<path style="fill:#FFB125;" d="M338.977,279.5c0,0-9.934-109.724-82.646-202.879c-0.001,0.001-0.002,0.003-0.003,0.004
	c-0.001-0.001-0.002-0.003-0.003-0.004C183.613,169.777,173.679,279.5,173.679,279.5c-75.916-59.932-142.458-79.355-142.458-79.355
	s55.611,80.824,94.012,233.014l131.094,0.394l131.094-0.394c38.401-152.19,94.012-233.014,94.012-233.014
	S414.893,219.568,338.977,279.5z"/>
<g>
	<path style="fill:#FF901D;" d="M338.516,278.877l0.368-0.295c-1.134-10.65-13.683-113.728-82.552-201.961
		c-0.001,0.001-0.002,0.003-0.003,0.004c-0.001-0.001-0.002-0.003-0.003-0.004c-8.717,11.168-16.522,22.574-23.526,34
		c31.282,52.512,48.971,111.716,58.261,151.776C296,283.696,321.461,292.558,338.516,278.877z"/>
	<path style="fill:#FF901D;" d="M418.552,227.45c-19.376,35.441-52.351,104.917-77.783,205.709h46.653
		c38.401-152.19,94.012-233.014,94.012-233.014S455.957,207.586,418.552,227.45z"/>
	<path style="fill:#FF901D;" d="M255.936,97.865c-12.99-0.034-23.532-10.632-23.498-23.623c0.034-12.958,10.603-23.499,23.56-23.499
		c13.054,0.034,23.596,10.632,23.562,23.623c-0.034,12.958-10.603,23.499-23.56,23.499H255.936z"/>
	<path style="fill:#FF901D;" d="M480.713,225.051c-12.991-0.034-23.532-10.632-23.498-23.623
		c0.034-12.958,10.601-23.499,23.558-23.499c13.055,0.034,23.598,10.631,23.564,23.623c-0.034,12.957-10.603,23.498-23.56,23.498
		L480.713,225.051L480.713,225.051z"/>
	<path style="fill:#FF901D;" d="M31.16,223.868c-12.99-0.034-23.533-10.631-23.499-23.623c0.034-12.957,10.603-23.498,23.559-23.498
		c6.357,0.016,12.267,2.483,16.706,6.944c4.439,4.462,6.874,10.385,6.857,16.678c-0.034,12.958-10.602,23.499-23.559,23.499H31.16z"
		/>
</g>
<path style="fill:#FF4C4C;" d="M87.322,443.2L87.322,443.2c2.513,11.97,14.06,19.829,26.105,17.703
	c94.77-16.725,190.372-16.726,285.144,0c12.044,2.126,23.592-5.733,26.105-17.703l0,0c2.64-12.576-5.678-24.808-18.332-27.04
	c-99.88-17.616-200.809-17.616-300.689,0C93,418.391,84.682,430.624,87.322,443.2z"/>
<path style="fill:#EA2828;" d="M406.343,416.159c-7.174-1.265-14.354-2.429-21.538-3.512l-9.65,44.477
	c7.81,1.15,15.616,2.402,23.416,3.778c12.044,2.126,23.592-5.733,26.104-17.703l0,0
	C427.316,430.624,418.998,418.391,406.343,416.159z"/>
<g>
	<circle style="fill:#E1EFFB;" cx="159.199" cy="351.461" r="19.07"/>
	<circle style="fill:#E1EFFB;" cx="352.799" cy="351.461" r="19.07"/>
	<circle style="fill:#E1EFFB;" cx="255.999" cy="340.111" r="19.07"/>
</g>
<path d="M159.202,324.728c-14.74,0-26.732,11.992-26.732,26.731c0,14.74,11.992,26.732,26.732,26.732
	c14.74,0,26.732-11.992,26.732-26.732C185.934,336.72,173.942,324.728,159.202,324.728z M159.202,362.868
	c-6.29,0-11.408-5.118-11.408-11.408c0-6.29,5.117-11.407,11.408-11.407c6.29,0,11.408,5.117,11.408,11.407
	C170.61,357.75,165.493,362.868,159.202,362.868z"/>
<path d="M352.796,324.728c-14.74,0-26.732,11.992-26.732,26.731c0,14.74,11.992,26.732,26.732,26.732s26.732-11.992,26.732-26.732
	C379.527,336.72,367.536,324.728,352.796,324.728z M352.796,362.868c-6.29,0-11.408-5.118-11.408-11.408
	c0-6.29,5.117-11.407,11.408-11.407c6.29,0,11.408,5.117,11.408,11.407C364.203,357.75,359.086,362.868,352.796,362.868z"/>
<path d="M255.999,313.38c-14.74,0-26.732,11.992-26.732,26.732c0,14.739,11.992,26.731,26.732,26.731s26.732-11.992,26.732-26.731
	C282.731,325.372,270.739,313.38,255.999,313.38z M255.999,351.519c-6.29,0-11.408-5.117-11.408-11.407s5.117-11.408,11.408-11.408
	c6.29,0,11.408,5.118,11.408,11.408C267.407,346.402,262.289,351.519,255.999,351.519z"/>
<path d="M502.89,179.472c-5.895-5.914-13.742-9.183-22.117-9.205c-17.17,0-31.175,13.969-31.22,31.141
	c-0.002,0.866,0.04,1.722,0.108,2.571c-1.011,0.434-2.04,0.882-3.082,1.34c-2.522-20.329-12.353-38.078-29.836-53.979
	c-15.517-14.112-32.961-20.973-53.329-20.973c-16.955,0-35.71,4.866-55.711,14.445l-0.523,0.248
	c-8.335-17.558-17.697-34.216-28.038-49.831c5-5.524,8.06-12.835,8.081-20.844c0.022-8.335-3.213-16.184-9.108-22.099
	c-5.895-5.914-13.742-9.183-22.116-9.205c-17.171,0-31.177,13.969-31.222,31.141c-0.022,8.279,3.203,15.817,8.465,21.425
	c-10.979,16.619-20.198,33.372-27.93,49.64c-0.091-0.042-0.184-0.082-0.275-0.124l-0.651-0.308
	c-20.055-9.613-38.829-14.488-55.799-14.488c-20.369,0-37.813,6.86-53.329,20.973c-17.405,15.831-27.224,33.49-29.801,53.706
	c-1.081-0.472-2.146-0.933-3.193-1.381c0.116-1.077,0.179-2.169,0.182-3.275c0.022-8.34-3.205-16.19-9.087-22.103
	c-5.882-5.912-13.736-9.18-22.138-9.202c-17.17,0-31.176,13.969-31.221,31.141c-0.045,17.217,13.925,31.26,31.141,31.304
	c0.006,0,0.077,0,0.084,0c3.126,0,6.145-0.468,8.996-1.329c17.175,31.279,46.024,91.174,70.256,177.37
	c-2.052,0.347-4.109,0.683-6.152,1.044c-8.198,1.446-15.279,6.035-19.937,12.924c-4.646,6.869-6.266,15.121-4.563,23.236
	c3.009,14.338,15.463,24.146,29.571,24.146c1.767,0,3.56-0.154,5.364-0.472c93.72-16.541,188.761-16.54,282.481-0.001
	c16.204,2.854,31.548-7.539,34.935-23.673c1.703-8.115,0.083-16.368-4.563-23.236c-4.659-6.889-11.739-11.478-19.937-12.924
	c-1.84-0.324-3.684-0.617-5.525-0.929c24.01-85.436,52.603-145.083,69.638-176.299c2.823,0.85,5.811,1.318,8.906,1.326
	c0.006,0,0.077,0,0.084,0c17.171,0,31.177-13.969,31.222-31.14C512.021,193.236,508.786,185.387,502.89,179.472z M31.224,216.206
	h-0.052c-8.763-0.027-15.872-7.176-15.849-15.941c0.023-8.743,7.154-15.857,15.876-15.857c4.288,0.011,8.299,1.676,11.294,4.687
	c2.995,3.01,4.638,7.007,4.627,11.254C47.098,209.093,39.966,216.206,31.224,216.206z M255.978,58.405
	c4.266,0.011,8.273,1.68,11.282,4.699c3.001,3.012,4.649,7.005,4.638,11.242c-0.023,8.743-7.155,15.857-15.898,15.857h-0.052
	c-8.762-0.027-15.871-7.176-15.848-15.941C240.123,65.519,247.255,58.405,255.978,58.405z M105.567,162.677
	c12.566-11.429,26.637-16.985,43.018-16.985c14.659,0,31.204,4.368,49.209,12.997l0.759,0.359c0.142,0.065,0.282,0.126,0.424,0.191
	c-19.786,45.715-28.003,85.959-31.158,106.078c-32.657-24.528-63.098-41.735-87.583-53.491
	C81.344,193.277,89.651,177.153,105.567,162.677z M386.926,405.239c-66.713-10.125-134.281-12.534-201.171-7.102
	c-4.218,0.343-7.359,4.04-7.017,8.258c0.343,4.218,4.041,7.355,8.258,7.017c67.935-5.518,136.591-2.826,204.294,7.99
	c0.1,0.016,0.199,0.035,0.298,0.047c4.479,0.717,8.954,1.469,13.424,2.257c4.075,0.719,7.593,2.998,9.905,6.418
	c2.301,3.401,3.103,7.486,2.26,11.503c-1.678,7.992-9.264,13.139-17.274,11.731c-95.488-16.853-192.32-16.852-287.808,0.001
	c-8.01,1.408-15.597-3.74-17.275-11.732c-0.843-4.017-0.041-8.102,2.26-11.503c2.313-3.42,5.83-5.699,9.905-6.418
	c14.765-2.604,29.766-4.85,44.585-6.675c4.2-0.517,7.186-4.341,6.668-8.541s-4.345-7.199-8.541-6.667
	c-7.97,0.981-15.989,2.089-23.999,3.301c-24.865-89.011-54.732-150.84-72.341-182.829c1.299-1.308,2.482-2.731,3.535-4.251
	c24.432,10.53,66.66,31.647,112.039,67.472c1.376,1.085,3.052,1.647,4.746,1.647c1.023,0,2.053-0.206,3.025-0.623
	c2.582-1.109,4.351-3.545,4.607-6.344c0.084-0.926,8.972-91.73,64.834-176.27c3.075,1.026,6.358,1.593,9.772,1.602
	c0.006,0,0.077,0,0.084,0c3.643,0,7.14-0.635,10.395-1.789c18.11,27.357,33.142,58.058,44.721,91.361
	c1.1,3.165,4.066,5.148,7.237,5.148c0.835,0,1.684-0.138,2.517-0.427c3.997-1.39,6.111-5.756,4.721-9.753
	c-3.689-10.61-7.73-20.959-12.088-31.045c0.006-0.003,0.011-0.005,0.017-0.007l0.771-0.366c17.95-8.597,34.478-12.957,49.123-12.957
	c16.381,0,30.452,5.556,43.018,16.986c16.002,14.553,24.315,30.778,25.351,49.459c-24.318,11.724-54.557,28.855-86.974,53.203
	c-1.511-9.493-4.167-23.528-8.653-40.603c-1.075-4.092-5.267-6.537-9.358-5.463c-4.092,1.075-6.539,5.265-5.463,9.358
	c8.028,30.551,9.993,51.356,10.012,51.56c0.253,2.8,2.021,5.237,4.604,6.347c0.973,0.419,2.002,0.624,3.026,0.624
	c1.695,0,3.373-0.562,4.749-1.648c37.224-29.387,72.053-48.95,98.748-61.497c0.251-0.103,0.496-0.216,0.733-0.344
	c4.002-1.872,7.815-3.584,11.424-5.147c1.169,1.788,2.511,3.454,4.012,4.964C441.18,255.404,411.57,316.986,386.926,405.239z
	 M480.777,217.388h-0.052c-8.762-0.027-15.871-7.176-15.848-15.941c0.023-8.743,7.154-15.857,15.876-15.857
	c4.267,0.011,8.274,1.68,11.284,4.699c3.002,3.012,4.649,7.005,4.638,11.243C496.652,210.275,489.52,217.388,480.777,217.388z"/>
<g>
</g>
<g>
</g>
<g>
</g>
<g>
</g>
<g>
</g>
<g>
</g>
<g>
</g>
<g>
</g>
<g>
</g>
<g>
</g>
<g>
</g>
<g>
</g>
<g>
</g>
<g>
</g>
<g>
</g>
</svg>
