<?xml version="1.0" encoding="iso-8859-1"?>
<!-- Generator: Adobe Illustrator 19.0.0, SVG Export Plug-In . SVG Version: 6.00 Build 0)  -->
<svg version="1.1" id="Capa_1" xmlns="http://www.w3.org/2000/svg" xmlns:xlink="http://www.w3.org/1999/xlink" x="0px" y="0px"
	 viewBox="0 0 512.001 512.001" style="enable-background:new 0 0 512.001 512.001;" xml:space="preserve">
<path style="fill:#AF8A82;" d="M43.315,451.422H15.93V58.293c0-1.471,1.193-2.664,2.664-2.664h24.721
	C43.315,55.629,43.315,451.422,43.315,451.422z"/>
<path style="fill:#FF901D;" d="M49.126,456.371H10.119c-1.45,0-2.626-1.176-2.626-2.626v-23.023c0-1.45,1.176-2.626,2.626-2.626
	h39.007c1.45,0,2.626,1.176,2.626,2.626v23.023C51.752,455.197,50.576,456.371,49.126,456.371z"/>
<path style="fill:#AF8A82;" d="M496.07,451.422h-27.385V55.629h24.721c1.471,0,2.664,1.193,2.664,2.664V451.422z"/>
<path style="fill:#E1EFFB;" d="M496.264,202.211H15.93V58.293c0-1.471,1.193-2.664,2.664-2.664H493.6
	c1.471,0,2.664,1.193,2.664,2.664V202.211z"/>
<path style="fill:#C3D8E5;" d="M493.6,55.629h-42.794v146.582h45.458V58.293C496.264,56.821,495.071,55.629,493.6,55.629z"/>
<path style="fill:#FF901D;" d="M501.881,456.371h-39.007c-1.45,0-2.626-1.176-2.626-2.626v-23.023c0-1.45,1.176-2.626,2.626-2.626
	h39.007c1.45,0,2.626,1.176,2.626,2.626v23.023C504.507,455.197,503.331,456.371,501.881,456.371z"/>
<path d="M120.975,96.805c2.612,0,4.037-2.612,4.037-5.7c0-2.612-1.187-5.462-4.037-5.462H79.297c-2.731,0-5.581,1.424-5.581,4.156
	v78.486c0,2.85,3.206,4.156,6.293,4.156c3.206,0,6.293-1.306,6.293-4.156V133.97h18.405c2.85,0,4.037-2.612,4.037-4.868
	c0-2.731-1.425-5.106-4.037-5.106H86.302V96.805H120.975z"/>
<path d="M156.359,168.286V89.681c0-2.85-3.087-4.037-6.293-4.037c-3.087,0-6.293,1.187-6.293,4.037v78.605
	c0,2.732,3.206,4.156,6.293,4.156C153.272,172.442,156.359,171.018,156.359,168.286z"/>
<path d="M195.067,168.286v-54.501l28.379,54.027c1.663,3.087,4.393,4.63,7.481,4.63c3.206,0,6.293-1.424,6.293-4.156V89.681
	c0-2.85-3.087-4.037-6.293-4.037c-3.087,0-6.293,1.187-6.293,4.037v54.502l-26.36-51.415c-2.85-5.462-4.987-7.124-9.499-7.124
	c-3.206,0-6.293,1.187-6.293,4.156v78.486c0,2.732,3.206,4.156,6.293,4.156C191.98,172.442,195.067,171.018,195.067,168.286z"/>
<path d="M275.927,168.286V89.681c0-2.85-3.087-4.037-6.293-4.037c-3.087,0-6.293,1.187-6.293,4.037v78.605
	c0,2.732,3.206,4.156,6.293,4.156C272.84,172.442,275.927,171.018,275.927,168.286z"/>
<path d="M323.422,161.993c-13.18,0-16.03-9.38-20.305-9.38c-2.968,0-5.462,3.918-5.462,6.768c0,5.937,10.805,14.011,26.242,14.011
	c15.673,0,27.072-8.313,27.072-25.292c0-31.585-38.59-23.629-38.59-41.203c0-7.48,6.174-10.805,14.843-10.805
	c10.093,0,13.18,4.512,16.386,4.512c3.562,0,5.225-4.393,5.225-6.768c0-6.531-13.893-8.55-21.611-8.55
	c-12.705,0-27.429,5.225-27.429,22.798c0,28.498,38.59,20.304,38.59,41.322C338.383,157.956,331.971,161.993,323.422,161.993z"/>
<path d="M428.031,168.286V89.681c0-2.85-3.087-4.037-6.293-4.037c-3.087,0-6.293,1.187-6.293,4.037v32.772h-29.566V89.681
	c0-2.85-3.087-4.037-6.293-4.037c-3.087,0-6.293,1.187-6.293,4.037v78.605c0,2.732,3.206,4.156,6.293,4.156
	c3.206,0,6.293-1.424,6.293-4.156v-35.859h29.566v35.859c0,2.732,3.206,4.156,6.293,4.156
	C424.944,172.442,428.031,171.018,428.031,168.286z"/>
<path d="M395.703,194.718l-372.28-0.001c-0.006,0,0,0-0.006,0h0.006V63.122h58.21c4.139,0,7.493-3.354,7.493-7.493
	s-3.354-7.493-7.493-7.493h-63.04c-5.6,0-10.157,4.556-10.157,10.157v362.462l0,0l0,0C3.657,421.56,0,425.717,0,430.722v23.023
	c0,5.58,4.54,10.118,10.119,10.118h39.007c5.58,0,10.119-4.539,10.119-10.118v-23.023c0-5.006-3.657-9.162-8.437-9.967V209.704
	h344.895c4.139,0,7.493-3.354,7.493-7.493C403.196,198.073,399.842,194.718,395.703,194.718z M23.423,209.704h12.399v210.9H23.423
	V209.704z M44.259,448.878H14.986V435.59h0.944h27.385h0.944C44.259,435.59,44.259,448.878,44.259,448.878z"/>
<path d="M503.563,420.757V203.885c0.123-0.539,0.194-1.097,0.194-1.673V58.293c0-5.601-4.556-10.157-10.157-10.157H116.498
	c-4.139,0-7.493,3.354-7.493,7.493s3.354,7.493,7.493,7.493h372.273v131.596l0,0c-0.007,0,0.006,0,0,0l-58.203,0.001
	c-4.139,0-7.493,3.354-7.493,7.493c0,4.139,3.354,7.493,7.493,7.493h30.625v211.051c-4.78,0.805-8.437,4.961-8.437,9.967v23.023
	c0,5.58,4.54,10.118,10.119,10.118h39.007c5.58,0,10.119-4.539,10.119-10.118v-23.023C512,425.717,508.343,421.56,503.563,420.757z
	 M476.178,209.704h12.399v210.9h-12.399V209.704z M497.014,448.878h-29.273V435.59h0.944h27.385h0.944V448.878z"/>
<g>
</g>
<g>
</g>
<g>
</g>
<g>
</g>
<g>
</g>
<g>
</g>
<g>
</g>
<g>
</g>
<g>
</g>
<g>
</g>
<g>
</g>
<g>
</g>
<g>
</g>
<g>
</g>
<g>
</g>
</svg>
