<?xml version="1.0" encoding="iso-8859-1"?>
<!-- Generator: Adobe Illustrator 19.0.0, SVG Export Plug-In . SVG Version: 6.00 Build 0)  -->
<svg version="1.1" id="Capa_1" xmlns="http://www.w3.org/2000/svg" xmlns:xlink="http://www.w3.org/1999/xlink" x="0px" y="0px"
	 viewBox="0 0 512 512" style="enable-background:new 0 0 512 512;" xml:space="preserve">
<g>
	<rect x="243.52" y="167.07" style="fill:#FED130;" width="25.12" height="90.03"/>
	<path style="fill:#FED130;" d="M186.945,17.633v55.462c0,39.33,18.693,76.32,50.358,99.648l18.775,13.832l18.775-13.832
		c31.665-23.328,50.358-60.317,50.358-99.648V17.633H186.945z"/>
	<path style="fill:#FED130;" d="M186.945,17.633v55.462c0,39.33,18.693,76.32,50.358,99.648l7.062,5.203
		c6.966,5.132,16.461,5.132,23.426,0l7.062-5.203c31.665-23.328,50.358-60.317,50.358-99.648V17.633H186.945z"/>
</g>
<path style="fill:#F7BC14;" d="M279.628,17.633v55.462c0,37.634-17.124,73.115-46.342,96.544c1.317,1.056,2.65,2.097,4.016,3.104
	l7.062,5.203c6.966,5.132,16.461,5.132,23.426,0l7.062-5.203c31.665-23.328,50.358-60.317,50.358-99.648V17.633H279.628z"/>
<path style="fill:#FFB125;" d="M330.035,31.699H182.121c-2.304,0-4.172-1.868-4.172-4.172v-15.22c0-2.304,1.868-4.172,4.172-4.172
	h147.914c2.304,0,4.172,1.868,4.172,4.172v15.221C334.207,29.831,332.339,31.699,330.035,31.699z"/>
<path style="fill:#FF901D;" d="M330.035,8.135h-40.974v23.564h40.974c2.304,0,4.172-1.868,4.172-4.172v-15.22
	C334.207,10.003,332.339,8.135,330.035,8.135z"/>
<path style="fill:#FFB125;" d="M309.139,292.39H203.017l9.276-37.975c0.334-1.367,1.559-2.328,2.966-2.328h81.64
	c1.407,0,2.632,0.962,2.966,2.328L309.139,292.39z"/>
<path style="fill:#FF901D;" d="M299.863,254.415c-0.334-1.367-1.559-2.328-2.966-2.328h-42.686l9.845,40.303h45.083L299.863,254.415
	z"/>
<path style="fill:#B9BBC1;" d="M498.344,338.205H338.829v-41.549c0-3.392-2.75-6.143-6.142-6.143H179.314
	c-3.392,0-6.142,2.75-6.142,6.143v41.549H13.656c-3.392,0-6.142,2.75-6.142,6.142V497.72c0,3.392,2.75,6.142,6.142,6.142h159.515
	h165.658h159.515c3.392,0,6.143-2.75,6.143-6.142V344.347C504.486,340.955,501.736,338.205,498.344,338.205z"/>
<g>
	<path style="fill:#A0A3AA;" d="M498.344,338.205h-30.541v165.657l0,0h30.541c3.392,0,6.143-2.75,6.143-6.142V344.347
		C504.486,340.955,501.736,338.205,498.344,338.205z"/>
	<polygon style="fill:#A0A3AA;" points="173.171,338.205 136.487,338.205 136.487,503.862 136.487,503.862 173.171,503.862 	"/>
</g>
<path style="fill:#B9BBC1;" d="M338.829,503.862H173.171V296.656c0-3.392,2.75-6.142,6.142-6.142h153.373
	c3.392,0,6.142,2.75,6.142,6.142v207.206H338.829z"/>
<path style="fill:#A0A3AA;" d="M332.686,290.513H303.43v213.349h35.398V296.656C338.829,293.263,336.079,290.513,332.686,290.513z"
	/>
<path style="fill:#FED130;" d="M87.888,477.478c-31.124,0-56.444-25.321-56.444-56.444c0-31.125,25.321-56.445,56.444-56.445h0.832
	c31.124,0,56.444,25.321,56.444,56.445s-25.321,56.444-56.444,56.444H87.888z"/>
<path style="fill:#F7BC14;" d="M88.719,364.588h-0.832c-5.354,0-10.529,0.765-15.44,2.164c22.474,7.803,38.654,29.184,38.654,54.281
	s-16.18,46.477-38.653,54.28c4.911,1.399,10.086,2.164,15.44,2.164h0.832c31.124,0,56.444-25.321,56.444-56.444
	C145.164,389.909,119.843,364.588,88.719,364.588z"/>
<path style="fill:#FED130;" d="M256.495,453.633c-31.124,0-56.445-25.321-56.445-56.445s25.321-56.444,56.445-56.444h0.831
	c31.124,0,56.444,25.321,56.444,56.444c0,31.124-25.321,56.445-56.444,56.445H256.495z"/>
<path style="fill:#F7BC14;" d="M257.326,340.743h-0.831c-5.423,0-10.664,0.784-15.631,2.219c22.398,7.844,38.51,29.183,38.51,54.226
	s-16.112,46.382-38.51,54.226c4.968,1.434,10.208,2.219,15.632,2.219h0.831c31.124,0,56.444-25.321,56.444-56.445
	C313.77,366.064,288.449,340.743,257.326,340.743z"/>
<path style="fill:#FED130;" d="M423.281,477.478c-31.124,0-56.444-25.321-56.444-56.444c0-31.125,25.321-56.445,56.444-56.445h0.832
	c31.124,0,56.444,25.321,56.444,56.445s-25.321,56.444-56.444,56.444H423.281z"/>
<path style="fill:#F7BC14;" d="M424.112,364.588h-0.832c-5.406,0-10.63,0.78-15.583,2.205c22.417,7.834,38.546,29.184,38.546,54.24
	s-16.129,46.405-38.546,54.239c4.953,1.425,10.177,2.205,15.583,2.205h0.832c31.124,0,56.444-25.321,56.444-56.444
	C480.557,389.909,455.236,364.588,424.112,364.588z"/>
<path d="M424.229,452.689c11.363,0,20.659-5.251,20.659-19.11v-1.636c0-7.144-3.702-11.018-8.78-12.998
	c4.218-1.98,6.714-7.489,6.714-14.289c0-11.449-7.747-15.408-18.163-15.408c-14.548,0-18.852,8.866-18.852,14.978
	c0,3.616,0.775,4.821,5.767,4.821c4.132,0,5.337-1.722,5.337-4.304c0-3.443,2.066-5.767,7.661-5.767
	c4.648,0,7.575,1.894,7.575,7.575c0,7.403-3.615,8.435-7.919,8.435c-2.496,0-3.357,2.238-3.357,4.39c0,2.238,0.861,4.39,3.357,4.39
	c5.509,0,9.469,1.808,9.469,8.178v1.636c0,6.542-2.755,9.296-9.211,9.296c-5.509,0-8.952-2.41-8.952-6.284
	c0-2.755-1.205-3.96-5.767-3.96c-3.873,0-5.337,0.947-5.337,4.39C404.43,443.995,410.111,452.689,424.229,452.689z"/>
<path d="M73.67,452.431h30.645c1.894,0,3.529-2.41,3.529-4.993c0-2.582-1.635-4.82-3.529-4.82h-23.93v-2.066
	c0-8.952,27.287-14.978,27.287-33.571c0-10.933-9.297-17.474-19.282-17.474c-9.555,0-18.507,6.026-18.507,15.839
	c0,4.648,2.152,6.026,5.079,6.026c3.702,0,5.854-2.066,5.854-4.132c0-5.337,3.443-7.575,7.661-7.575
	c5.681,0,8.005,4.132,8.005,7.661c0,12.138-27.718,19.454-27.718,33.227v8.35C68.764,451.054,71.69,452.431,73.67,452.431z"/>
<path d="M258.233,363.02c-0.947,0-1.722,0.344-2.325,0.861l-10.157,7.747c-1.377,0.86-2.152,2.496-2.152,4.046
	c0,2.238,1.463,4.477,3.616,4.477c0.602,0,1.377-0.172,2.066-0.775l2.755-2.755v45.967c0,2.324,2.755,3.529,5.595,3.529
	c2.755,0,5.595-1.205,5.595-3.529v-55.952C263.226,364.397,260.557,363.02,258.233,363.02z"/>
<path d="M498.344,330.691h-95.076c-4.15,0-7.514,3.364-7.514,7.514s3.364,7.514,7.514,7.514h93.705v150.63h-150.63v-150.63h21.964
	c4.15,0,7.514-3.364,7.514-7.514s-3.364-7.514-7.514-7.514h-21.964v-34.036c0-7.529-6.126-13.656-13.656-13.656H314.58
	l-7.417-30.365c-1.158-4.746-5.379-8.061-10.265-8.061h-20.744v-63.456l3.156-2.325c11.774-8.674,21.869-19.197,30.02-30.997
	c-0.003,0.004-0.006,0.008-0.008,0.013c0.139,0.154,0.266,0.313,0.41,0.464c4.604,4.831,11.131,7.602,17.91,7.602
	c3.129,0,6.112-0.597,8.863-1.773c7.285-3.112,11.913-9.618,13.029-18.32c0.528-4.116-2.38-7.881-6.496-8.41
	c-4.116-0.52-7.881,2.38-8.409,6.496c-0.637,4.966-3.1,6.019-4.028,6.415c-0.863,0.369-1.886,0.564-2.959,0.564
	c-2.608,0-5.302-1.127-7.031-2.942c-2.578-2.705-1.949-5.683-0.968-7.706c4.362-8.987,13.636-12.754,23.46-16.743
	c8.88-3.607,18.945-7.695,26.568-16.193c8.647-9.642,12.851-23.512,12.851-42.402V36.748c0-3.183-1.241-6.173-3.497-8.427
	c-2.217-2.21-5.268-3.473-8.347-3.473c-0.028,0-0.057,0-0.086,0c-9.326,0.023-18.054,4.622-23.347,12.299l-3.368,4.885
	c-2.116,3.069-5.605,4.902-9.332,4.902h-1.818v-8.045c5.149-1.22,8.995-5.844,8.995-11.36v-15.22
	c0-6.443-5.242-11.686-11.686-11.686H182.121c-6.443,0-11.686,5.242-11.686,11.686v15.22c0,5.516,3.846,10.141,8.995,11.36v8.045
	h-1.974c-3.727,0-7.216-1.832-9.332-4.902l-3.368-4.884c-5.293-7.678-14.021-12.276-23.309-12.3
	c-3.172,0.013-6.233,1.243-8.474,3.477c-2.253,2.249-3.494,5.24-3.494,8.423v18.113c0,18.89,4.204,32.76,12.851,42.402
	c7.622,8.498,17.687,12.586,26.572,16.195c9.819,3.987,19.093,7.753,23.455,16.742c0.981,2.021,1.61,4.999-0.969,7.706
	c-1.729,1.814-4.423,2.941-7.03,2.941c-1.073,0-2.096-0.195-2.96-0.564c-0.927-0.396-3.39-1.449-4.027-6.415
	c-0.528-4.115-4.285-7.018-8.409-6.496c-4.116,0.529-7.024,4.294-6.496,8.41c1.117,8.702,5.744,15.208,13.028,18.32
	c2.753,1.176,5.735,1.773,8.864,1.773c6.779,0,13.306-2.771,17.909-7.601c0.175-0.184,0.332-0.377,0.499-0.565
	c8.161,11.835,18.276,22.389,30.079,31.085l3.156,2.325v63.456h-20.744c-4.885,0-9.107,3.315-10.264,8.06l-7.417,30.364h-18.263
	c-7.53,0-13.656,6.126-13.656,13.656v34.036H13.656C6.126,330.691,0,336.818,0,344.347V497.72c0,7.53,6.126,13.656,13.656,13.656
	h484.688c7.53,0,13.656-6.126,13.656-13.656V344.347C512,336.818,505.874,330.691,498.344,330.691z M165.657,496.349H15.028v-150.63
	h150.63v150.63H165.657z M332.725,73.096V61.961h1.818c8.669,0,16.782-4.261,21.703-11.398l3.369-4.886
	c1.887-2.737,4.7-4.644,7.877-5.418v14.602c0,15.02-2.947,25.608-9.01,32.368c-5.305,5.914-12.946,9.018-21.04,12.305
	c-2.687,1.091-5.457,2.222-8.213,3.488c0,0,0,0.001,0,0.002C331.523,93.293,332.725,83.256,332.725,73.096z M182.945,103.101
	c-2.815-1.3-5.647-2.454-8.391-3.568c-8.09-3.286-15.731-6.39-21.035-12.304c-6.063-6.76-9.011-17.348-9.011-32.368V40.255
	c3.167,0.771,5.987,2.681,7.877,5.423l3.368,4.885c4.921,7.137,13.035,11.398,21.703,11.398h1.974v11.135
	C179.431,83.283,180.639,93.347,182.945,103.101L182.945,103.101z M194.458,73.096V39.213h13.453c4.15,0,7.514-3.364,7.514-7.514
	s-3.364-7.514-7.514-7.514h-22.448v-8.536h141.229v8.536h-83.213c-4.15,0-7.514,3.364-7.514,7.514s3.364,7.514,7.514,7.514h74.218
	v33.882c0,36.788-17.682,71.778-47.301,93.598l-7.062,5.203c-4.34,3.197-10.172,3.198-14.513,0l-7.063-5.203
	C212.141,144.874,194.458,109.884,194.458,73.096z M261.127,188.843v55.73H251.03v-55.729c1.669,0.317,3.357,0.495,5.048,0.495
	C257.769,189.339,259.457,189.161,261.127,188.843z M218.761,259.601h74.634l5.715,23.398h-86.065L218.761,259.601z
	 M331.315,298.027v198.322h-150.63V298.027l0,0l0,0H331.315L331.315,298.027L331.315,298.027z"/>
<path d="M87.888,484.992h0.832c35.267,0,63.958-28.691,63.958-63.958s-28.691-63.959-63.958-63.959h-0.832
	c-35.267,0-63.958,28.692-63.958,63.959S52.621,484.992,87.888,484.992z M87.888,372.102h0.832c26.981,0,48.931,21.95,48.931,48.932
	c0,26.98-21.95,48.931-48.931,48.931h-0.832c-26.981,0-48.931-21.95-48.931-48.931C38.957,394.053,60.907,372.102,87.888,372.102z"
	/>
<path d="M257.326,333.229h-0.831c-35.267,0-63.959,28.691-63.959,63.958s28.692,63.959,63.959,63.959h0.831
	c35.267,0,63.958-28.692,63.958-63.959S292.593,333.229,257.326,333.229z M257.326,446.119h-0.831
	c-26.981,0-48.932-21.95-48.932-48.932c0-26.98,21.95-48.931,48.932-48.931h0.831c26.981,0,48.931,21.95,48.931,48.931
	C306.256,424.168,284.306,446.119,257.326,446.119z"/>
<path d="M359.322,421.034c0,35.267,28.691,63.958,63.958,63.958h0.832c35.267,0,63.958-28.691,63.958-63.958
	s-28.691-63.959-63.958-63.959h-0.832C388.014,357.075,359.322,385.767,359.322,421.034z M423.281,372.102h0.832
	c26.981,0,48.931,21.95,48.931,48.932c0,26.98-21.95,48.931-48.931,48.931h-0.832c-26.981,0-48.931-21.95-48.931-48.931
	C374.35,394.053,396.3,372.102,423.281,372.102z"/>
<g>
</g>
<g>
</g>
<g>
</g>
<g>
</g>
<g>
</g>
<g>
</g>
<g>
</g>
<g>
</g>
<g>
</g>
<g>
</g>
<g>
</g>
<g>
</g>
<g>
</g>
<g>
</g>
<g>
</g>
</svg>
