<?xml version="1.0" encoding="iso-8859-1"?>
<!-- Generator: Adobe Illustrator 19.0.0, SVG Export Plug-In . SVG Version: 6.00 Build 0)  -->
<svg version="1.1" id="Capa_1" xmlns="http://www.w3.org/2000/svg" xmlns:xlink="http://www.w3.org/1999/xlink" x="0px" y="0px"
	 viewBox="0 0 512.001 512.001" style="enable-background:new 0 0 512.001 512.001;" xml:space="preserve">
<path style="fill:#FFB125;" d="M186.179,439.564h139.644c-57.844-67.659-51.808-165.169-51.808-165.169h-18.014h-18.014
	C237.987,274.394,244.023,371.905,186.179,439.564z"/>
<path style="fill:#FF901D;" d="M274.015,274.394h-18.014h-18.014c0,0,0.733,11.855-0.763,30.166
	c-3.109,38.039,5.047,76.288,24.504,109.122c5.285,8.918,11.394,17.622,18.455,25.882h45.64
	C267.978,371.905,274.015,274.394,274.015,274.394z"/>
<path style="fill:#FFB125;" d="M269.896,331.836h-27.791c-14.36,0-26.001-11.641-26.001-26.001v-34.786h79.794v34.786
	C295.898,320.195,284.256,331.836,269.896,331.836z"/>
<path style="fill:#FF901D;" d="M250.759,271.048v34.786c0,11.318-7.233,20.942-17.328,24.514c2.713,0.96,5.631,1.488,8.673,1.488
	h27.791c14.36,0,26.001-11.641,26.001-26.001v-34.786h-45.137V271.048z"/>
<path style="fill:#2D5872;" d="M374.872,504.477H137.13c-4.201,0-7.358-3.833-6.552-7.956l12.599-64.478
	c0.612-3.134,3.359-5.396,6.552-5.396h212.544c3.193,0,5.94,2.262,6.552,5.396l12.599,64.478
	C382.23,500.644,379.073,504.477,374.872,504.477z"/>
<path style="fill:#1D4859;" d="M381.424,496.521l-12.599-64.478c-0.612-3.134-3.359-5.396-6.552-5.396h-39.641l15.208,77.83h37.032
	C379.073,504.477,382.229,500.644,381.424,496.521z"/>
<path style="fill:#E1EFFB;" d="M159,476.599l4.553-23.299c0.293-1.498,1.606-2.58,3.133-2.58h178.632c1.527,0,2.84,1.081,3.133,2.58
	l4.553,23.299c0.385,1.971-1.124,3.804-3.133,3.804H162.132C160.124,480.403,158.615,478.57,159,476.599z"/>
<path style="fill:#C3D8E5;" d="M353.002,476.599l-4.553-23.299c-0.293-1.498-1.606-2.58-3.133-2.58h-42.51l5.8,29.683h41.262
	C351.878,480.403,353.387,478.57,353.002,476.599z"/>
<circle style="fill:#E6E6E6;" cx="256.001" cy="154.36" r="146.84"/>
<path style="fill:#D3D3C9;" d="M256.001,7.523c-7.736,0-15.331,0.602-22.744,1.755c70.296,10.931,124.095,71.723,124.095,145.084
	s-53.799,134.153-124.095,145.084c7.413,1.153,15.008,1.755,22.744,1.755c81.097,0,146.839-65.742,146.839-146.839
	S337.098,7.523,256.001,7.523z"/>
<g>
	<path style="fill:#2D5872;" d="M219.282,195.352l-19.926-58.641c-0.67-1.97,0.047-4.146,1.756-5.333l52.227-36.284
		c1.601-1.112,3.724-1.112,5.324,0l52.227,36.284c1.709,1.187,2.425,3.363,1.756,5.333l-19.927,58.641
		c-0.643,1.892-2.419,3.165-4.418,3.165H223.7C221.702,198.516,219.925,197.244,219.282,195.352z"/>
	<path style="fill:#2D5872;" d="M308.713,17.279c-16.363-6.296-34.132-9.756-52.712-9.756s-36.35,3.46-52.712,9.755l49.716,34.539
		c1.801,1.252,4.191,1.252,5.992,0L308.713,17.279z"/>
</g>
<path style="fill:#1D4859;" d="M353.621,115.705c-0.605,2.108,0.163,4.371,1.928,5.674l47.267,34.904
	c0.008-0.64,0.024-1.278,0.024-1.92c0-35.467-12.574-67.996-33.508-93.375L353.621,115.705z"/>
<g>
	<path style="fill:#2D5872;" d="M142.669,60.988c-20.933,25.378-33.508,57.908-33.508,93.374c0,0.642,0.016,1.28,0.024,1.92
		l47.267-34.904c1.765-1.303,2.533-3.565,1.928-5.674L142.669,60.988z"/>
	<path style="fill:#2D5872;" d="M379.921,233.164l-58.545,1.691c-2.192,0.063-4.115,1.483-4.82,3.56l-19.339,56.914
		C331.748,285.249,361.015,262.833,379.921,233.164z"/>
</g>
<path style="fill:#1D4859;" d="M333.566,234.503c-7.244,11.1-15.949,21.157-25.842,29.903l-10.507,30.922
	c0.002,0,0.003-0.001,0.005-0.001c9.66-2.82,18.907-6.607,27.631-11.247c0.066-0.035,0.132-0.069,0.198-0.105
	c0.881-0.471,1.757-0.951,2.627-1.439c0.115-0.064,0.23-0.128,0.345-0.193c0.838-0.472,1.67-0.954,2.497-1.442
	c0.143-0.084,0.285-0.168,0.428-0.253c0.807-0.48,1.609-0.968,2.407-1.463c0.155-0.096,0.311-0.194,0.466-0.291
	c0.788-0.493,1.571-0.993,2.349-1.501c0.154-0.101,0.307-0.202,0.461-0.303c0.78-0.514,1.557-1.033,2.327-1.562
	c0.135-0.093,0.27-0.187,0.405-0.281c0.787-0.543,1.569-1.093,2.345-1.651c0.099-0.071,0.196-0.143,0.294-0.215
	c0.811-0.587,1.618-1.18,2.416-1.783c0.021-0.016,0.041-0.032,0.062-0.047c5.13-3.878,9.995-8.088,14.568-12.593
	c0.11-0.108,0.221-0.214,0.33-0.323c0.624-0.619,1.24-1.246,1.853-1.876c0.176-0.18,0.353-0.359,0.527-0.54
	c0.574-0.595,1.14-1.198,1.703-1.803c0.207-0.222,0.414-0.443,0.62-0.666c0.539-0.585,1.071-1.177,1.6-1.771
	c0.222-0.249,0.444-0.497,0.663-0.748c0.514-0.585,1.022-1.174,1.526-1.767c0.225-0.265,0.45-0.53,0.673-0.796
	c0.495-0.59,0.986-1.184,1.472-1.783c0.223-0.274,0.444-0.55,0.665-0.825c0.481-0.6,0.958-1.203,1.429-1.811
	c0.215-0.277,0.428-0.557,0.641-0.836c0.471-0.616,0.939-1.234,1.4-1.858c0.199-0.27,0.396-0.542,0.593-0.813
	c0.468-0.642,0.934-1.285,1.391-1.935c0.172-0.244,0.34-0.492,0.511-0.737c0.476-0.684,0.95-1.37,1.414-2.062
	c0.122-0.182,0.24-0.366,0.361-0.549c0.506-0.762,1.009-1.526,1.501-2.298L333.566,234.503z"/>
<path style="fill:#2D5872;" d="M195.446,238.415c-0.706-2.077-2.628-3.496-4.82-3.56l-58.545-1.691
	c18.906,29.668,48.173,52.085,82.705,62.165L195.446,238.415z"/>
<path style="fill:#1D4859;" d="M283.897,10.181c-0.352-0.068-0.703-0.137-1.055-0.202c-0.736-0.136-1.475-0.264-2.214-0.389
	c-0.434-0.073-0.867-0.146-1.302-0.216c-0.686-0.11-1.375-0.213-2.064-0.314c-0.496-0.072-0.993-0.141-1.49-0.208
	c-0.647-0.087-1.296-0.171-1.946-0.25c-0.549-0.066-1.099-0.128-1.649-0.189c-0.612-0.067-1.224-0.133-1.839-0.193
	c-0.601-0.058-1.204-0.11-1.807-0.16c-0.574-0.049-1.148-0.099-1.725-0.141c-0.663-0.048-1.328-0.087-1.994-0.126
	c-0.525-0.031-1.049-0.066-1.575-0.092c-0.765-0.037-1.533-0.062-2.301-0.087c-0.435-0.014-0.868-0.035-1.304-0.045
	c-1.187-0.029-2.377-0.045-3.57-0.045c-0.02,0-0.04-0.001-0.06-0.001c-0.003,0-0.005,0-0.008,0c-1.745,0-3.481,0.04-5.211,0.101
	c-0.308,0.011-0.617,0.019-0.924,0.032c-1.68,0.07-3.352,0.167-5.017,0.292c-0.278,0.021-0.555,0.045-0.832,0.068
	c-3.451,0.28-6.868,0.679-10.249,1.193c-0.159,0.024-0.319,0.048-0.478,0.073c20.46,3.185,39.517,10.601,56.261,21.314l19.17-13.318
	c-6.999-2.693-14.258-4.863-21.726-6.469c-0.222-0.048-0.443-0.098-0.665-0.145C285.516,10.495,284.707,10.337,283.897,10.181z"/>
<path d="M375.537,56.733c-0.233-0.34-0.5-0.657-0.787-0.957c-4.59-5.538-9.578-10.784-14.959-15.675
	c-3.074-2.793-7.833-2.567-10.626,0.507c-2.795,3.075-2.567,7.833,0.507,10.627c4.014,3.648,7.782,7.519,11.311,11.571
	l-14.413,50.192l-31.364,12.218c-0.008-0.006-0.016-0.013-0.024-0.018L263.524,89.31V57.833l46.138-32.054
	c4.344,1.81,8.602,3.829,12.74,6.077c3.654,1.986,8.219,0.631,10.202-3.019c1.983-3.651,0.631-8.219-3.02-10.202
	c-5.778-3.139-11.758-5.89-17.888-8.255c-0.24-0.103-0.483-0.195-0.732-0.272C293.497,3.47,274.82,0,256.001,0
	c-19.259,0-37.7,3.556-54.716,10.028c-0.453,0.125-0.895,0.294-1.32,0.503c-24.408,9.542-45.808,25.127-62.361,44.904
	c-0.523,0.478-0.973,1.025-1.34,1.623c-21.635,26.572-34.626,60.448-34.626,97.305c0,0.475,0.008,0.948,0.016,1.421l0.009,0.597
	c0,0.003,0.001,0.006,0.001,0.009c0.38,29.34,8.983,56.729,23.611,79.967c0.27,0.575,0.61,1.109,1.011,1.594
	c19.141,29.6,48.13,52.258,82.294,63.312v4.572c0,12.443,6.819,23.315,16.911,29.1c-1.628,8.505-3.609,16.844-5.948,24.843
	c-1.166,3.988,1.122,8.166,5.109,9.332c0.705,0.206,1.416,0.304,2.115,0.304c3.256,0,6.257-2.131,7.217-5.414
	c2.333-7.979,4.338-16.267,6.001-24.715c0.701,0.044,1.406,0.074,2.118,0.074h27.792c0.709,0,1.41-0.03,2.108-0.073
	c5.896,30.072,15.919,56.832,29.867,79.838h-91.733c4.131-6.829,7.936-14.023,11.371-21.507c1.734-3.776,0.078-8.242-3.698-9.975
	c-3.777-1.735-8.242-0.077-9.975,3.698c-4.54,9.89-9.767,19.216-15.557,27.784h-42.55c-6.776,0-12.636,4.826-13.935,11.476
	l-12.6,64.479c-0.817,4.179,0.267,8.461,2.974,11.749c2.707,3.287,6.703,5.173,10.961,5.173H374.87
	c4.259,0,8.254-1.886,10.961-5.174c2.707-3.287,3.791-7.57,2.973-11.748L376.208,430.6c-1.3-6.65-7.161-11.476-13.936-11.476H319.74
	c-15.887-23.478-27.057-51.749-33.243-84.182c10.099-5.782,16.923-16.659,16.923-29.107v-4.572
	c34.165-11.055,63.155-33.713,82.296-63.314c0.4-0.484,0.739-1.017,1.009-1.59c14.631-23.242,23.235-50.638,23.613-79.984v-0.001
	l0.01-0.609c0.005-0.32,0.008-0.641,0.01-0.962c0-0.147,0.006-0.293,0.006-0.441C410.364,118.643,397.87,84.121,375.537,56.733z
	 M361.578,434.17c0.002,0-0.005,0-0.003,0l0,0l12.268,62.784H138.158l12.268-62.784l0,0c0.002,0,0,0,0.002,0
	c0.003,0-0.005,0-0.002,0h211.148C361.578,434.17,361.575,434.17,361.578,434.17z M372.339,77.777
	c12.384,18.84,20.105,40.52,22.312,63.125l-33.365-24.637L372.339,77.777z M304.83,136.328l-18.575,54.666h-60.507l-18.576-54.666
	l48.829-33.924L304.83,136.328z M256.001,15.046c12.166,0,24.264,1.614,35.943,4.722l-35.943,24.971L220.046,19.76
	C231.521,16.691,243.571,15.046,256.001,15.046z M202.359,25.793l46.119,32.041V89.31l-51.633,35.872l-31.432-12.244l-14.379-50.075
	C164.983,46.881,182.512,34.104,202.359,25.793z M139.669,77.799l11.045,38.466l-33.378,24.648
	C119.564,117.763,127.482,96.255,139.669,77.799z M136.417,225.763c-11.615-19.379-18.65-41.799-19.609-65.758l44.114-32.575
	c0.028-0.021,0.053-0.044,0.08-0.064l31.387,12.227l19.485,57.341l-21.616,30.384L136.417,225.763z M147.082,241.124l41.748,1.206
	l13.84,40.729C180.769,273.95,161.677,259.409,147.082,241.124z M288.374,305.835c0,10.189-8.289,18.478-18.477,18.478h-27.792
	c-10.189,0-18.478-8.289-18.478-18.478v-0.536c10.444,2.238,21.272,3.426,32.374,3.426s21.93-1.188,32.373-3.426V305.835z
	 M291.38,289.122c-11.302,2.969-23.158,4.557-35.379,4.557c-12.221,0-24.078-1.588-35.38-4.557l-18.052-53.126
	c-0.002-0.005-0.004-0.011-0.006-0.016l21.3-29.939h64.267l21.306,29.948c-0.001,0.003-0.002,0.005-0.003,0.007L291.38,289.122z
	 M309.332,283.06l13.84-40.729l41.749-1.206C350.324,259.409,331.233,273.95,309.332,283.06z M375.585,225.763l-53.851,1.556
	l-21.61-30.376l19.466-57.286l31.456-12.254c0.012,0.009,0.022,0.019,0.034,0.027l44.114,32.575
	C394.234,183.964,387.199,206.384,375.585,225.763z"/>
<path d="M156.169,451.858l-4.553,23.299c-0.616,3.154,0.202,6.385,2.244,8.866c2.043,2.481,5.058,3.904,8.272,3.904h187.736
	c3.213,0,6.228-1.422,8.27-3.903c2.043-2.481,2.861-5.712,2.245-8.867l-4.552-23.299c-0.981-5.018-5.403-8.66-10.516-8.66h-178.63
	C161.572,443.198,157.149,446.84,156.169,451.858z M170.252,458.244h171.499l2.859,14.637H167.392L170.252,458.244z"/>
<g>
</g>
<g>
</g>
<g>
</g>
<g>
</g>
<g>
</g>
<g>
</g>
<g>
</g>
<g>
</g>
<g>
</g>
<g>
</g>
<g>
</g>
<g>
</g>
<g>
</g>
<g>
</g>
<g>
</g>
</svg>
