<?xml version="1.0" encoding="iso-8859-1"?>
<!-- Generator: Adobe Illustrator 19.0.0, SVG Export Plug-In . SVG Version: 6.00 Build 0)  -->
<svg version="1.1" id="Capa_1" xmlns="http://www.w3.org/2000/svg" xmlns:xlink="http://www.w3.org/1999/xlink" x="0px" y="0px"
	 viewBox="0 0 512 512" style="enable-background:new 0 0 512 512;" xml:space="preserve">
<polygon style="fill:#FFB125;" points="304.214,434.807 207.786,434.807 244.691,125.482 267.309,125.482 "/>
<path style="fill:#FF901D;" d="M267.309,125.482h-22.618l0,0c-7.517,63.002-7.517,126.674,0,189.676l14.275,119.649h45.248
	L267.309,125.482z"/>
<path style="fill:#FF6D3A;" d="M339.083,440.448H172.917l9.704-60.774c0.512-3.207,3.278-5.567,6.526-5.567h133.706
	c3.248,0,6.014,2.36,6.526,5.567L339.083,440.448z"/>
<path style="fill:#ED5729;" d="M329.379,379.673c-0.512-3.207-3.278-5.567-6.526-5.567h-39.611l10.593,66.341h45.248
	L329.379,379.673z"/>
<path style="fill:#2D5872;" d="M378.664,504.501H133.336c-4.616,0-8.134-4.134-7.396-8.69l13.319-82.239
	c0.588-3.628,3.72-6.294,7.396-6.294h218.69c3.676,0,6.808,2.666,7.396,6.294l13.319,82.239
	C386.798,500.367,383.28,504.501,378.664,504.501z"/>
<path style="fill:#1D4859;" d="M386.06,495.81l-13.319-82.239c-0.588-3.628-3.72-6.294-7.396-6.294h-39.931L341.16,504.5h37.504
	C383.28,504.501,386.798,500.367,386.06,495.81z"/>
<path style="fill:#E1EFFB;" d="M160.654,469.853l4.725-29.176c0.306-1.892,1.94-3.282,3.856-3.282h173.53
	c1.916,0,3.549,1.39,3.856,3.281l4.726,29.176c0.385,2.375-1.449,4.53-3.856,4.53H164.51
	C162.103,474.383,160.269,472.228,160.654,469.853z"/>
<path style="fill:#C3D8E5;" d="M351.346,469.853l-4.726-29.176c-0.306-1.892-1.94-3.282-3.856-3.282h-42.673l5.991,36.988h41.408
	C349.897,474.383,351.731,472.228,351.346,469.853z"/>
<path style="fill:#E1EFFB;" d="M365.851,87.357c-0.005-0.017-0.008-0.035-0.013-0.053l0,0c-0.348-1.074-1.255-1.967-2.553-2.155
	l-72.172-10.487l-32.277-65.4C258.256,8.087,257.128,7.5,256,7.5c-1.128,0-2.256,0.588-2.836,1.763l-32.276,65.399l-72.172,10.487
	c-0.035,0.005-0.066,0.016-0.1,0.022c-0.125,0.022-0.25,0.046-0.368,0.081c-0.05,0.015-0.095,0.037-0.143,0.054
	c-0.097,0.034-0.195,0.066-0.286,0.108c-0.038,0.018-0.071,0.041-0.108,0.06c-0.096,0.049-0.192,0.098-0.281,0.156
	c-0.014,0.009-0.025,0.02-0.039,0.029c-0.108,0.073-0.212,0.15-0.308,0.235c-0.004,0.003-0.007,0.007-0.01,0.01
	c-0.104,0.092-0.202,0.191-0.292,0.295c-0.005,0.006-0.009,0.012-0.013,0.018c-0.272,0.32-0.477,0.691-0.605,1.086l0,0
	c-0.347,1.072-0.137,2.324,0.801,3.238l52.224,50.906l-12.328,71.881c-0.011,0.066-0.012,0.129-0.019,0.193
	c-0.011,0.095-0.026,0.19-0.028,0.283c-0.001,0.037,0.005,0.072,0.005,0.108c0.001,0.118,0.003,0.236,0.017,0.35
	c0.003,0.027,0.011,0.052,0.015,0.078c0.018,0.122,0.039,0.242,0.07,0.358c0.003,0.01,0.007,0.019,0.01,0.028
	c0.077,0.272,0.188,0.529,0.331,0.764c0.002,0.003,0.005,0.006,0.007,0.01c0.147,0.24,0.324,0.458,0.526,0.65
	c0.001,0.001,0.002,0.002,0.003,0.003c0.101,0.096,0.209,0.185,0.322,0.267l0,0l0,0c0.912,0.662,2.169,0.849,3.328,0.24L256,182.725
	l64.553,33.937c0.145,0.076,0.291,0.14,0.439,0.192c0.145,0.051,0.29,0.09,0.435,0.119c0.003,0,0.005,0.002,0.008,0.002
	c0.132,0.026,0.264,0.04,0.396,0.048c0.015,0.001,0.03,0.005,0.045,0.006c0.122,0.006,0.242,0,0.361-0.008
	c0.024-0.002,0.049,0.001,0.073-0.002c0.118-0.011,0.235-0.033,0.35-0.057c0.024-0.005,0.049-0.006,0.073-0.012
	c0.269-0.063,0.527-0.163,0.769-0.292c0.007-0.004,0.015-0.006,0.022-0.01c0.1-0.055,0.196-0.118,0.29-0.183
	c0.022-0.015,0.046-0.027,0.068-0.043l0,0c0.913-0.663,1.481-1.801,1.26-3.094l-12.328-71.88l0,0l52.224-50.906l0,0
	c0.117-0.114,0.223-0.234,0.318-0.358c0.031-0.04,0.053-0.083,0.081-0.124c0.059-0.086,0.121-0.17,0.17-0.259
	c0.068-0.122,0.124-0.246,0.173-0.373c0.004-0.01,0.01-0.02,0.014-0.03c0.039-0.104,0.067-0.209,0.095-0.315
	c0.009-0.034,0.023-0.067,0.03-0.101c0.027-0.122,0.044-0.244,0.056-0.367c0.002-0.019,0.007-0.038,0.009-0.057
	C366.018,88.151,365.969,87.743,365.851,87.357z"/>
<g>
	<path style="fill:#C1D8E5;" d="M365.851,87.357c-0.005-0.017-0.008-0.035-0.013-0.053l0,0c-0.348-1.074-1.255-1.967-2.553-2.155
		l-38.155-5.544l-48.882,47.648l0,0l12.464,72.669l31.842,16.74c0.145,0.076,0.291,0.14,0.439,0.192
		c0.145,0.051,0.29,0.09,0.435,0.119c0.003,0,0.005,0.002,0.008,0.002c0.132,0.026,0.264,0.04,0.396,0.048
		c0.015,0.001,0.03,0.005,0.045,0.006c0.122,0.006,0.242,0,0.361-0.008c0.024-0.002,0.049,0.001,0.073-0.002
		c0.118-0.011,0.235-0.033,0.35-0.057c0.024-0.005,0.049-0.006,0.073-0.012c0.269-0.063,0.527-0.163,0.769-0.292
		c0.007-0.004,0.015-0.006,0.022-0.01c0.1-0.055,0.196-0.118,0.29-0.183c0.022-0.015,0.046-0.027,0.068-0.043l0,0
		c0.913-0.663,1.481-1.801,1.26-3.094l-12.328-71.881l0,0l52.224-50.906l0,0c0.117-0.114,0.223-0.234,0.318-0.358
		c0.031-0.04,0.053-0.083,0.081-0.124c0.059-0.086,0.121-0.17,0.17-0.259c0.068-0.121,0.124-0.246,0.173-0.373
		c0.004-0.01,0.01-0.02,0.014-0.03c0.039-0.104,0.067-0.209,0.095-0.315c0.009-0.034,0.023-0.067,0.031-0.101
		c0.027-0.122,0.044-0.244,0.056-0.367c0.002-0.019,0.007-0.038,0.009-0.057C366.018,88.151,365.969,87.743,365.851,87.357z"/>
	<path style="fill:#C1D8E5;" d="M256,7.5c-1.128,0-2.256,0.588-2.836,1.763l-16.506,33.444l8.139,16.492
		c2.921,5.919,8.57,10.019,15.103,10.961l31.211,4.502l-32.275-65.4C258.256,8.087,257.128,7.5,256,7.5z"/>
</g>
<path d="M393.463,494.611l-13.319-82.239c-1.182-7.298-7.406-12.595-14.799-12.595h-25.161l-3.399-21.287
	c-1.1-6.885-6.959-11.883-13.932-11.883H303.63l-4.735-39.688c-0.491-4.113-4.22-7.053-8.336-6.558
	c-4.113,0.491-7.049,4.222-6.558,8.336l4.523,37.911h-24.961v-77.625c0-4.177-3.386-7.563-7.563-7.563s-7.563,3.386-7.563,7.563
	v77.625h-24.961l20.152-168.905L256,191.198l12.373,6.505l11.454,96.007c0.455,3.811,3.692,6.612,7.438,6.612
	c0.296,0,0.596-0.018,0.898-0.054c4.113-0.491,7.049-4.222,6.558-8.336l-10.231-85.757l32.576,17.126
	c0.464,0.244,0.947,0.455,1.419,0.621c0.429,0.152,0.872,0.278,1.319,0.374c0.063,0.014,0.127,0.027,0.191,0.04
	c0.378,0.074,0.762,0.126,1.149,0.158c0.079,0.007,0.157,0.014,0.232,0.019c0.046,0.003,0.093,0.006,0.14,0.008
	c0.445,0.021,0.829,0.007,1.064-0.006c0.139-0.005,0.278-0.014,0.406-0.026c0.451-0.041,0.831-0.108,1.07-0.156
	c0.133-0.024,0.266-0.051,0.387-0.08c0.836-0.196,1.65-0.495,2.422-0.89c0.082-0.041,0.163-0.083,0.242-0.126
	c0.279-0.152,0.55-0.318,0.817-0.497c0.124-0.08,0.248-0.165,0.363-0.248c3.311-2.403,4.938-6.4,4.247-10.432l-11.662-67.995
	l49.401-48.154c0.376-0.367,0.727-0.762,1.029-1.159c0.111-0.145,0.244-0.334,0.359-0.508c0.175-0.254,0.342-0.517,0.506-0.809
	c0.174-0.314,0.331-0.636,0.49-1.013c0.035-0.081,0.069-0.161,0.101-0.24c0.016-0.04,0.032-0.08,0.047-0.12
	c0.112-0.295,0.206-0.592,0.294-0.913c0.052-0.175,0.102-0.363,0.138-0.525c0.077-0.34,0.136-0.689,0.18-1.066
	c0.017-0.127,0.031-0.255,0.041-0.375c0.108-1.29-0.019-2.578-0.378-3.833c-0.033-0.124-0.069-0.246-0.106-0.361
	c-1.262-3.893-4.561-6.677-8.609-7.265l-68.271-9.92l-30.533-61.86C263.751,2.277,260.088,0,256,0c-4.088,0-7.751,2.277-9.561,5.944
	l-30.532,61.863l-68.34,9.931c-0.159,0.025-0.314,0.054-0.467,0.087c-0.333,0.065-0.669,0.144-1.034,0.251
	c-0.159,0.048-0.36,0.119-0.541,0.187c-0.293,0.104-0.585,0.22-0.921,0.375c-0.166,0.079-0.326,0.162-0.482,0.249
	c-0.279,0.148-0.545,0.301-0.748,0.435c-0.113,0.072-0.229,0.152-0.344,0.235c-0.32,0.224-0.615,0.455-0.896,0.702
	c-0.058,0.051-0.115,0.102-0.171,0.155c-0.309,0.284-0.601,0.585-0.869,0.896c-0.025,0.029-0.05,0.059-0.075,0.088
	c-0.028,0.034-0.057,0.069-0.086,0.105c-0.85,1.036-1.491,2.209-1.906,3.49c-1.259,3.885-0.224,8.068,2.701,10.919l49.401,48.154
	l-11.663,68.002c-0.04,0.234-0.068,0.462-0.088,0.693c-0.033,0.284-0.056,0.569-0.063,0.844c-0.005,0.195-0.002,0.388,0.006,0.58
	c0.008,0.338,0.03,0.674,0.07,1c0.018,0.14,0.04,0.287,0.066,0.431c0.045,0.276,0.114,0.644,0.228,1.06
	c0.025,0.092,0.052,0.184,0.081,0.276c0.26,0.858,0.624,1.677,1.086,2.436c0.032,0.053,0.065,0.105,0.099,0.157
	c0.477,0.755,1.046,1.447,1.693,2.058c0.021,0.02,0.042,0.04,0.064,0.06c0.314,0.292,0.651,0.57,1.007,0.828
	c1.868,1.355,4.052,2.044,6.252,2.044c1.694,0,3.397-0.409,4.971-1.236l32.573-17.125L208.37,366.607h-19.223
	c-6.973,0-12.832,4.998-13.932,11.884l-3.399,21.287h-25.161c-7.393,0-13.617,5.297-14.799,12.595l-13.32,82.239
	c-0.704,4.345,0.529,8.761,3.383,12.113c2.853,3.352,7.015,5.275,11.417,5.275h245.328c4.402,0,8.564-1.923,11.417-5.275
	C392.935,503.372,394.167,498.957,393.463,494.611z M195.737,205.934l10.843-63.218c0.417-2.433-0.389-4.915-2.157-6.638
	l-45.931-44.771l63.475-9.224c2.443-0.355,4.554-1.889,5.647-4.102L256,20.463l28.387,57.518c1.093,2.213,3.204,3.747,5.647,4.102
	l63.475,9.224l-45.93,44.771c-1.768,1.723-2.575,4.205-2.157,6.638l10.843,63.218l-56.774-29.848
	c-1.093-0.574-2.291-0.861-3.49-0.861s-2.397,0.287-3.49,0.861L195.737,205.934z M189.907,381.607L189.907,381.607
	c0.005,0,0,0,0.005,0C189.919,381.607,189.9,381.607,189.907,381.607h132.186c0.004,0-0.006,0-0.003,0c0.003,0,0,0,0.003,0l0,0
	l2.901,18.171H187.006L189.907,381.607z M378.664,497.001l-245.321,0.009l13.312-82.233l218.683-0.006c0.044,0.001-0.045,0,0,0
	c0.025,0-0.025,0,0,0l0,0L378.678,497C378.678,497,378.674,497.001,378.664,497.001z"/>
<path d="M354.024,439.478c-0.899-5.553-5.634-9.583-11.259-9.583h-173.53c-5.625,0-10.36,4.03-11.259,9.582l-4.725,29.176
	c-0.536,3.306,0.402,6.665,2.573,9.216s5.337,4.013,8.686,4.013h182.98c3.349,0,6.515-1.463,8.686-4.013
	c2.171-2.551,3.109-5.91,2.573-9.216L354.024,439.478z M168.732,466.884l3.561-21.989h167.413l3.562,21.989H168.732z"/>
<g>
</g>
<g>
</g>
<g>
</g>
<g>
</g>
<g>
</g>
<g>
</g>
<g>
</g>
<g>
</g>
<g>
</g>
<g>
</g>
<g>
</g>
<g>
</g>
<g>
</g>
<g>
</g>
<g>
</g>
</svg>
