<?xml version="1.0" encoding="iso-8859-1"?>
<!-- Generator: Adobe Illustrator 19.0.0, SVG Export Plug-In . SVG Version: 6.00 Build 0)  -->
<svg version="1.1" id="Capa_1" xmlns="http://www.w3.org/2000/svg" xmlns:xlink="http://www.w3.org/1999/xlink" x="0px" y="0px"
	 viewBox="0 0 511.998 511.998" style="enable-background:new 0 0 511.998 511.998;" xml:space="preserve">
<path style="fill:#FF4C4C;" d="M113.157,427.885h285.686c2.856-3.498,5.75-7.162,8.64-10.988
	c28.331-37.499,43.547-73.021,44.003-102.724c0.386-25.189-9.36-46.639-29.797-65.572c-14.953-13.853-31.734-20.587-51.302-20.587
	c-16.826,0-35.612,5.003-55.837,14.87l-0.788,0.38c-21.449,10.054-39.487,14.957-56.767,15.429L256,258.719l-0.996-0.027
	c-17.28-0.472-35.317-5.374-56.767-15.429l-0.729-0.352c-20.248-9.886-39.054-14.898-55.895-14.898
	c-19.568,0-36.349,6.734-51.302,20.586c-20.437,18.935-30.184,40.383-29.798,65.573c0.456,29.703,15.672,65.225,44.003,102.724
	C107.407,420.723,110.3,424.387,113.157,427.885z"/>
<path style="fill:#EA2828;" d="M421.689,248.601c-14.953-13.853-31.734-20.587-51.301-20.587c-7.75,0-15.921,1.075-24.451,3.184
	c10.608,3.253,20.34,9.014,29.395,17.403c20.437,18.933,30.183,40.382,29.797,65.572c-0.456,29.703-15.672,65.225-44.003,102.724
	c-2.89,3.826-5.784,7.49-8.64,10.988h46.358c2.856-3.498,5.75-7.162,8.64-10.988c28.331-37.499,43.547-73.021,44.003-102.724
	C451.873,288.983,442.126,267.534,421.689,248.601z"/>
<path style="fill:#FFB125;" d="M459.487,176.811c-41.561-37.802-96.274-42.083-158.228-12.385l-0.308,0.148
	c-3.254,1.562-7.312,0.465-11.113-1.515c-7.031-3.663-12.276-10.024-14.88-17.513L256,91.013l-18.951,54.471
	c-2.615,7.517-7.892,13.899-14.963,17.552c-3.81,1.968-7.875,3.055-11.129,1.493l-0.214-0.103
	c-61.954-29.698-116.667-25.416-158.228,12.385c-30.299,27.559-45.362,60.753-44.77,98.661
	c0.97,62.111,45.258,122.316,78.037,158.484h63.015c-3.525-3.09-26.366-23.477-48.922-52.253
	c-30.714-39.184-47.19-76.183-47.646-106.999c-0.369-24.892,9.517-46.147,30.222-64.979c14.954-13.601,31.86-20.214,51.683-20.214
	c0.04,0,0.08,0,0.121,0c4.788,0.014,9.753,0.552,14.818,1.516c47.887,9.107,82.091,51.717,82.091,100.462v142.468h49.677v-142.47
	c0-48.75,34.212-91.363,82.106-100.463c5.061-0.962,10.02-1.499,14.804-1.513c0.04,0,0.081,0,0.121,0
	c19.823,0,36.728,6.613,51.683,20.214c20.704,18.832,30.591,40.086,30.222,64.979c-0.456,30.816-16.932,67.816-47.646,106.999
	c-22.556,28.777-45.398,49.164-48.922,52.253h63.015c32.779-36.167,77.066-96.373,78.037-158.484
	C504.849,237.564,489.786,204.369,459.487,176.811z"/>
<path style="fill:#FF901D;" d="M459.487,176.811c-29.242-26.597-65.003-36.575-105.208-29.824
	c21.639,4.022,41.407,13.959,58.85,29.824c22.023,20.031,35.988,43.043,41.751,68.675c3.425,9.17,5.047,18.879,4.893,29.217
	c-0.165,11.153-2.44,23.12-6.717,35.704c-12.493,49.119-46.623,94.232-73.194,123.549h46.358
	c32.779-36.167,77.066-96.373,78.037-158.484C504.849,237.564,489.786,204.369,459.487,176.811z"/>
<path style="fill:#FF6D3A;" d="M433.616,493.694c-117.987-23.053-237.243-23.053-355.231,0
	c-12.039,2.352-23.775-5.248-26.514-17.205c-1.184-5.168-2.368-10.336-3.553-15.504c-2.863-12.494,5.171-24.902,17.75-27.367
	c126.14-24.725,253.725-24.725,379.865,0c12.579,2.466,20.613,14.873,17.75,27.367c-1.184,5.168-2.368,10.336-3.553,15.504
	C457.39,488.445,445.654,496.046,433.616,493.694z"/>
<path style="fill:#ED5729;" d="M464.201,457.528c0.001-0.009,0.002-0.018,0.003-0.027c0.037-0.519,0.05-1.035,0.052-1.549
	c0-0.117-0.001-0.234-0.002-0.351c-0.007-0.506-0.024-1.011-0.065-1.511c0-0.004,0-0.008-0.001-0.012
	c-0.042-0.516-0.106-1.027-0.182-1.536c-0.015-0.1-0.031-0.2-0.048-0.3c-0.166-1.015-0.4-2.013-0.699-2.986
	c-0.026-0.084-0.052-0.167-0.079-0.25c-2.436-7.615-8.818-13.734-17.248-15.387c-8.425-1.651-16.858-3.184-25.295-4.615
	l-5.193,24.986c-2.064,9.932-11.528,16.52-21.558,15.003c-104.967-15.876-210.71-13.586-315.453,6.874
	c-12.056,2.355-23.819-5.221-26.563-17.195c-0.848-3.7-1.696-7.399-2.543-11.099c-1.671,4.228-2.098,9.003-0.923,13.778
	c1.097,4.768,2.193,9.532,3.29,14.299c2.371,12.438,14.372,20.452,26.691,18.045c109.505-21.396,220.102-22.919,329.763-4.6l0,0
	c4.093,0.684,8.185,1.395,12.275,2.13c0.202,0.037,0.404,0.071,0.606,0.107c4.227,0.763,8.453,1.555,12.676,2.38
	c12.003,2.347,23.692-5.301,26.424-17.222c1.184-5.168,2.368-10.336,3.553-15.504c0.119-0.518,0.212-1.036,0.294-1.554
	c0.02-0.129,0.04-0.258,0.058-0.387C464.105,458.538,464.165,458.032,464.201,457.528z"/>
<path style="fill:#61AFF6;" d="M296.514,48.792l-28.575,15.001l15.001-28.575c4.14-7.886-1.579-17.349-10.486-17.349h-32.906
	c-8.907,0-14.626,9.462-10.486,17.349l15.001,28.576l-28.576-15.001c-7.886-4.14-17.349,1.579-17.349,10.486v32.906
	c0,8.907,9.462,14.626,17.349,10.486l28.575-15.001l-15.001,28.575c-4.14,7.886,1.579,17.349,10.486,17.349h32.906
	c8.907,0,14.626-9.462,10.486-17.349L267.938,87.67l28.575,15.001c7.886,4.14,17.349-1.579,17.349-10.486V59.279
	C313.862,50.372,304.4,44.652,296.514,48.792z"/>
<path style="fill:#49A0E8;" d="M296.514,48.792l-28.575,15.001l15.001-28.575c4.14-7.886-1.579-17.349-10.486-17.349h-4.949v115.724
	h4.949c8.907,0,14.626-9.462,10.486-17.349L267.938,87.67l28.575,15.001c7.886,4.14,17.349-1.579,17.349-10.486V59.279
	C313.862,50.372,304.4,44.652,296.514,48.792z"/>
<circle style="fill:#E1EFFB;" cx="256" cy="202.27" r="25.741"/>
<path d="M289.467,202.272c0-18.454-15.014-33.467-33.467-33.467s-33.467,15.014-33.467,33.467S237.546,235.74,256,235.74
	S289.467,220.726,289.467,202.272z M237.985,202.272c0-9.933,8.081-18.015,18.015-18.015c9.934,0,18.015,8.081,18.015,18.015
	s-8.081,18.015-18.015,18.015S237.985,212.206,237.985,202.272z"/>
<path d="M464.686,171.095c-44.078-40.09-101.745-44.806-166.768-13.636l-0.225,0.117c-0.011,0.003-1.241,0.215-4.284-1.37
	c-5.169-2.693-9.129-7.38-11.152-13.198l-1.261-3.627c3.342-1.615,6.197-4.185,8.206-7.507c3.575-5.915,3.792-13.1,0.579-19.22
	l-3.472-6.614l6.614,3.472c6.12,3.212,13.305,2.995,19.22-0.579c5.915-3.575,9.446-9.837,9.446-16.748V59.279
	c0-6.912-3.532-13.173-9.447-16.749c-5.914-3.574-13.1-3.791-19.219-0.579l-6.614,3.472l3.472-6.615
	c3.213-6.12,2.996-13.305-0.579-19.22s-9.837-9.446-16.748-9.446h-32.906c-6.911,0-13.173,3.531-16.748,9.446
	s-3.792,13.1-0.579,19.22l3.472,6.614l-6.614-3.472c-6.119-3.212-13.304-2.996-19.22,0.579c-5.915,3.575-9.447,9.837-9.447,16.749
	v32.906c0,6.911,3.531,13.173,9.446,16.748s13.1,3.793,19.22,0.579l6.614-3.472l-3.472,6.614c-3.213,6.12-2.996,13.305,0.579,19.22
	c2.006,3.318,4.857,5.886,8.195,7.501l-1.242,3.57c-2.033,5.844-6.015,10.541-11.213,13.226c-2.545,1.315-3.829,1.387-4.16,1.387
	c-0.063,0-0.092-0.003-0.088,0.001l-0.21-0.101c-65.023-31.17-122.69-26.453-166.766,13.637
	C15.303,200.211-0.61,235.369,0.018,275.592c0.233,14.945,2.888,30.636,7.891,46.636c1.033,3.305,4.082,5.423,7.372,5.423
	c0.764,0,1.541-0.114,2.308-0.354c4.072-1.274,6.342-5.607,5.068-9.68c-4.56-14.584-6.979-28.804-7.189-42.266
	c-0.556-35.593,13.657-66.824,42.243-92.825c39.042-35.511,90.803-39.361,149.692-11.133l0.207,0.1
	c5.137,2.466,11.199,1.931,18.02-1.593c8.729-4.51,15.375-12.279,18.715-21.878l2.331-6.702h18.632l2.351,6.762
	c3.322,9.555,9.931,17.307,18.608,21.827c6.816,3.551,12.88,4.099,18.024,1.63l0.306-0.147
	c58.886-28.228,110.647-24.378,149.69,11.134c28.586,26.001,42.799,57.231,42.243,92.825c-0.209,13.401-2.607,27.554-7.126,42.066
	c-1.269,4.074,1.005,8.405,5.079,9.674c4.073,1.27,8.405-1.006,9.674-5.079c4.959-15.923,7.592-31.541,7.823-46.419
	C512.61,235.369,496.697,200.211,464.686,171.095z M261.097,91.261l15.002,28.575c0.974,1.856,0.239,3.446-0.122,4.044
	c-0.361,0.598-1.428,1.987-3.524,1.987l0,0h-32.906l0,0c-2.096,0-3.162-1.39-3.524-1.987c-0.361-0.598-1.096-2.188-0.122-4.043
	l15.002-28.575c1.572-2.994,1.014-6.663-1.378-9.055c-1.485-1.485-3.463-2.263-5.466-2.263c-1.222,0-2.454,0.29-3.589,0.885
	L211.895,95.83c-1.855,0.974-3.447,0.239-4.044-0.122c-0.598-0.361-1.987-1.428-1.987-3.524V59.279c0-2.096,1.39-3.162,1.987-3.524
	c0.598-0.362,2.187-1.097,4.044-0.122l28.575,15.001c2.993,1.571,6.663,1.013,9.054-1.378s2.95-6.06,1.378-9.055L235.9,31.626
	c-0.974-1.856-0.239-3.446,0.122-4.044c0.361-0.598,1.428-1.987,3.524-1.987h32.906c2.096,0,3.162,1.39,3.524,1.987
	c0.361,0.598,1.096,2.188,0.122,4.043L261.096,60.2c-1.572,2.994-1.014,6.663,1.378,9.055c2.391,2.392,6.061,2.95,9.054,1.378
	l28.576-15.001l0,0c1.855-0.975,3.446-0.24,4.043,0.122c0.598,0.361,1.987,1.428,1.987,3.524v32.906c0,2.096-1.39,3.162-1.987,3.524
	c-0.598,0.361-2.189,1.096-4.043,0.122L271.53,80.829c-2.996-1.572-6.664-1.014-9.055,1.378
	C260.083,84.598,259.525,88.267,261.097,91.261z"/>
<path d="M486.485,346.502c-3.813-1.911-8.458-0.372-10.37,3.443c-11.891,23.71-28.627,47.985-49.752,72.208
	c-11.461-1.995-22.934-3.785-34.418-5.376c7.886-8.295,17.095-18.611,26.264-30.308c18.584-23.709,32.12-46.76,40.258-68.322
	c0.15-0.322,0.277-0.656,0.382-1.001c5.53-14.927,8.455-29.13,8.65-42.329c0.403-27.237-10.308-50.399-32.749-70.809
	c-16.443-14.955-35.048-22.224-56.889-22.224c-0.02-0.001-0.118,0-0.136,0c-5.086,0.015-10.544,0.569-16.223,1.648
	c-51.216,9.731-88.389,55.175-88.389,108.053V407.53c-11.408-0.198-22.817-0.198-34.225,0V291.487
	c0-52.872-37.167-98.314-88.374-108.052c-5.684-1.081-11.148-1.636-16.165-1.651l-0.217-0.001c-21.833,0-40.439,7.27-56.881,22.224
	c-22.44,20.41-33.152,43.572-32.749,70.809c0.195,13.198,3.12,27.4,8.649,42.325c0.106,0.348,0.234,0.685,0.385,1.009
	c8.138,21.56,21.674,44.609,40.256,68.317c9.168,11.696,18.377,22.013,26.264,30.308c-11.484,1.591-22.958,3.381-34.418,5.376
	c-21.105-24.199-37.829-48.452-49.718-72.141c-1.914-3.814-6.557-5.355-10.371-3.44c-3.814,1.914-5.354,6.557-3.44,10.371
	c11.327,22.569,26.758,45.542,45.947,68.433c-1.158,0.223-2.316,0.432-3.474,0.659c-8.145,1.597-15.124,6.313-19.649,13.281
	c-4.532,6.978-6.004,15.286-4.146,23.395l3.553,15.504c3.235,14.117,15.625,23.643,29.568,23.642c1.962,0,3.957-0.189,5.959-0.58
	c116.873-22.836,235.392-22.836,352.268,0c16.229,3.172,31.837-6.959,35.527-23.062l3.553-15.504
	c1.858-8.108,0.386-16.416-4.146-23.394c-4.525-6.968-11.504-11.685-19.65-13.281c-1.157-0.227-2.315-0.436-3.473-0.659
	c19.209-22.916,34.652-45.912,45.982-68.504C491.84,353.058,490.299,348.415,486.485,346.502z M364.386,198.613
	c4.746-0.901,9.25-1.365,13.483-1.377c17.811,0,33.017,5.954,46.484,18.203c18.97,17.254,28.029,36.602,27.695,59.149
	c-0.012,0.796-0.04,1.598-0.075,2.403c-5.341-12.222-13.652-23.516-25.033-34.058c-16.448-15.239-34.946-22.646-56.552-22.646
	c-18.01,0-37.936,5.266-59.196,15.639l-0.708,0.342c-2.147,1.006-4.246,1.953-6.309,2.846
	C317.691,218.5,339.023,203.432,364.386,198.613z M288.565,291.485c0-11.156,1.93-21.922,5.476-31.947
	c7.313-2.421,14.884-5.474,23.081-9.317l0.816-0.394c19.16-9.348,36.807-14.088,52.449-14.088c17.53,0,32.593,6.061,46.051,18.529
	c18.578,17.211,27.509,36.588,27.316,59.216c-7.579,19.783-20.261,41.191-37.709,63.45c-12.154,15.506-24.403,28.518-33.281,37.37
	c-28.027-3.331-56.106-5.46-84.2-6.389L288.565,291.485L288.565,291.485z M59.952,274.588c-0.334-22.547,8.725-41.895,27.695-59.149
	c13.467-12.249,28.673-18.203,46.582-18.203c4.14,0.012,8.648,0.476,13.397,1.38c25.357,4.822,46.684,19.888,60.197,40.499
	c-2.039-0.883-4.112-1.817-6.227-2.808l-0.7-0.338c-21.311-10.405-41.258-15.682-59.285-15.682
	c-21.606,0-40.104,7.407-56.552,22.645c-11.38,10.544-19.692,21.839-25.033,34.06C59.992,276.187,59.964,275.384,59.952,274.588z
	 M105.954,376.935c-17.447-22.258-30.129-43.666-37.709-63.45c-0.194-22.625,8.737-42.003,27.317-59.217
	c13.457-12.468,28.521-18.528,46.05-18.528c15.658,0,33.323,4.749,52.534,14.129l0.811,0.391c8.128,3.81,15.689,6.858,23,9.278
	c3.547,10.026,5.477,20.793,5.477,31.949v116.429c-28.094,0.928-56.174,3.057-84.201,6.389
	C130.356,405.453,118.107,392.441,105.954,376.935z M444.446,441.2c4.005,0.785,7.436,3.106,9.662,6.534
	c2.233,3.438,2.959,7.532,2.043,11.526l-3.553,15.504c-1.816,7.926-9.502,12.909-17.502,11.348
	c-118.84-23.219-239.354-23.219-358.193,0c-8,1.566-15.686-3.422-17.502-11.347l-3.553-15.504c-0.915-3.995-0.19-8.088,2.044-11.527
	c2.226-3.428,5.657-5.748,9.661-6.533c5.497-1.077,10.998-2.09,16.501-3.073c0.007-0.001,0.013-0.002,0.02-0.004
	C141.161,427.931,198.58,422.817,256,422.817C318.962,422.817,381.924,428.945,444.446,441.2z"/>
<g>
</g>
<g>
</g>
<g>
</g>
<g>
</g>
<g>
</g>
<g>
</g>
<g>
</g>
<g>
</g>
<g>
</g>
<g>
</g>
<g>
</g>
<g>
</g>
<g>
</g>
<g>
</g>
<g>
</g>
</svg>
