<?xml version="1.0" encoding="iso-8859-1"?>
<!-- Generator: Adobe Illustrator 19.0.0, SVG Export Plug-In . SVG Version: 6.00 Build 0)  -->
<svg version="1.1" id="Capa_1" xmlns="http://www.w3.org/2000/svg" xmlns:xlink="http://www.w3.org/1999/xlink" x="0px" y="0px"
	 viewBox="0 0 511.999 511.999" style="enable-background:new 0 0 511.999 511.999;" xml:space="preserve">
<path style="fill:#FFB125;" d="M186.39,439.778h139.233c-57.674-88.369-51.656-215.727-51.656-215.727h-17.961h-17.961
	C238.045,224.051,244.064,351.409,186.39,439.778z"/>
<path style="fill:#FF901D;" d="M273.967,224.051h-17.961h-17.961c0,0,0.844,17.884-1.134,44.898
	c-2.528,34.518,1.09,69.274,11.563,102.262c7.482,23.567,17.702,47.206,31.643,68.567h45.505
	C267.948,351.409,273.967,224.051,273.967,224.051z"/>
<path style="fill:#FFB125;" d="M269.861,298.222h-27.71c-14.318,0-25.925-11.607-25.925-25.925v-34.684h79.559v34.684
	C295.785,286.615,284.179,298.222,269.861,298.222z"/>
<path style="fill:#FF901D;" d="M250.78,237.613v34.684c0,11.284-7.212,20.88-17.277,24.441c2.705,0.957,5.615,1.483,8.648,1.483
	h27.709c14.318,0,25.925-11.607,25.925-25.924v-34.684H250.78z"/>
<path style="fill:#2C5871;" d="M374.527,504.5H137.485c-4.188,0-7.336-3.822-6.533-7.933l12.562-64.288
	c0.611-3.125,3.349-5.38,6.533-5.38h211.918c3.184,0,5.922,2.255,6.533,5.38l12.562,64.288
	C381.863,500.678,378.716,504.5,374.527,504.5z"/>
<path style="fill:#1D4859;" d="M381.06,496.568l-12.562-64.288c-0.611-3.125-3.349-5.38-6.533-5.38h-39.524l15.163,77.601h36.922
	C378.716,504.5,381.863,500.678,381.06,496.568z"/>
<path style="fill:#E1EFFB;" d="M160.063,472.755l3.244-16.602c0.596-3.05,3.269-5.251,6.376-5.251H342.33
	c3.108,0,5.78,2.201,6.376,5.251l3.244,16.602c0.784,4.012-2.288,7.743-6.376,7.743H166.439
	C162.351,480.497,159.279,476.767,160.063,472.755z"/>
<path style="fill:#C3D8E5;" d="M351.95,472.755l-3.244-16.602c-0.596-3.05-3.268-5.251-6.376-5.251h-39.655l5.783,29.595h37.116
	C349.661,480.497,352.734,476.767,351.95,472.755z"/>
<path style="fill:#AF8A82;" d="M424.175,55.188c26.418,55.984-36.008,140.932-120.341,180.727s-189.591,33.974-216.009-22.01
	S123.833,72.973,208.166,33.178S397.757-0.797,424.175,55.188z"/>
<path style="fill:#927266;" d="M424.175,55.187c-6.382-13.524-17.373-24.111-31.549-31.844c0.096,0.199,0.202,0.391,0.296,0.591
	c26.418,55.984-36.008,140.932-120.342,180.727c-63.962,30.182-139.95,34.116-184.459,9.835
	c26.883,55.428,131.681,61.072,215.713,21.419C388.167,196.12,450.593,111.172,424.175,55.187z"/>
<path style="fill:#E0E0D1;" d="M158.89,258.865c11.786,2.041,24.42,2.925,37.533,2.674L120.099,99.796
	c-8.531,9.962-15.881,20.277-21.798,30.672L158.89,258.865z"/>
<path style="fill:#927266;" d="M424.175,55.187c-6.382-13.524-17.373-24.111-31.549-31.844c0.096,0.199,0.202,0.391,0.296,0.591
	c26.418,55.984-36.008,140.932-120.342,180.727c-63.962,30.182-139.95,34.116-184.459,9.835
	c26.883,55.428,131.681,61.072,215.713,21.419C388.167,196.12,450.593,111.172,424.175,55.187z"/>
<path style="fill:#CECEC0;" d="M195.961,261.543c0.154-0.003,0.307-0.005,0.461-0.007l-15.159-32.124
	c-12.42,1.077-24.554,1.19-36.12,0.322l13.743,29.123c0.142,0.025,0.283,0.051,0.425,0.076c1.252,0.214,2.512,0.416,3.782,0.603
	c0.098,0.014,0.194,0.031,0.292,0.046c1.395,0.204,2.803,0.389,4.22,0.561c0.348,0.042,0.699,0.079,1.048,0.12
	c1.08,0.125,2.166,0.243,3.258,0.35c0.416,0.041,0.834,0.08,1.252,0.118c1.096,0.1,2.198,0.192,3.304,0.274
	c0.351,0.026,0.7,0.054,1.052,0.079c2.983,0.206,6.002,0.35,9.055,0.427c0.149,0.004,0.3,0.005,0.449,0.009
	c1.367,0.032,2.741,0.05,4.12,0.056c0.293,0.001,0.586,0.001,0.879,0.001C193.331,261.576,194.644,261.566,195.961,261.543z"/>
<path style="fill:#E0E0D1;" d="M391.927,169.266c8.519-9.953,15.86-20.256,21.772-30.64L353.11,10.227
	c-11.774-2.039-24.394-2.923-37.492-2.675L391.927,169.266z"/>
<path style="fill:#CECEC0;" d="M390.856,90.216c-4.772,11.618-11.499,23.325-19.837,34.74l20.909,44.31
	c0.002-0.002,0.003-0.004,0.005-0.006c1.02-1.191,2.02-2.388,3.005-3.589c0.086-0.105,0.172-0.21,0.258-0.315
	c0.961-1.176,1.907-2.355,2.834-3.539c0.03-0.038,0.06-0.076,0.09-0.114c1.968-2.515,3.86-5.048,5.67-7.594
	c0.001-0.002,0.003-0.004,0.004-0.006c0.856-1.204,1.691-2.412,2.51-3.621c0.113-0.167,0.225-0.333,0.337-0.5
	c0.739-1.098,1.462-2.197,2.17-3.299c0.097-0.151,0.196-0.302,0.292-0.453c1.614-2.528,3.149-5.064,4.596-7.605L390.856,90.216z"/>
<path d="M309.971,125.272c1.28,2.712,3.976,4.302,6.789,4.302c1.072,0,2.162-0.231,3.196-0.719c3.747-1.768,5.351-6.238,3.583-9.985
	l-3.049-6.461l6.714-3.168c3.747-1.768,5.351-6.238,3.583-9.985c-1.769-3.747-6.242-5.351-9.985-3.582l-6.715,3.169l-3.049-6.461
	c-1.769-3.747-6.242-5.35-9.985-3.582c-3.747,1.768-5.351,6.238-3.583,9.985l3.049,6.461L277.75,115.99l-3.049-6.461
	c-1.769-3.747-6.243-5.351-9.985-3.582c-3.747,1.768-5.351,6.238-3.583,9.985l3.049,6.461l-22.768,10.744l-3.049-6.461
	c-1.769-3.747-6.243-5.35-9.985-3.582c-3.747,1.768-5.351,6.238-3.583,9.985l3.049,6.461l-22.769,10.745l-3.049-6.461
	c-1.769-3.747-6.242-5.351-9.985-3.582c-3.747,1.768-5.351,6.238-3.583,9.985l3.049,6.461l-6.714,3.168
	c-3.747,1.768-5.351,6.238-3.583,9.985c1.28,2.712,3.976,4.302,6.789,4.302c1.072,0,2.162-0.231,3.196-0.719l6.715-3.169
	l3.049,6.461c1.28,2.712,3.976,4.302,6.789,4.302c1.072,0,2.162-0.231,3.196-0.719c3.747-1.768,5.351-6.238,3.583-9.985
	l-3.049-6.461l22.769-10.745l3.049,6.461c1.28,2.712,3.976,4.302,6.789,4.302c1.072,0,2.162-0.231,3.196-0.719
	c3.747-1.768,5.351-6.238,3.583-9.985l-3.049-6.461l22.768-10.744l3.049,6.46c1.28,2.712,3.976,4.302,6.789,4.302
	c1.072,0,2.162-0.231,3.196-0.719c3.747-1.768,5.351-6.238,3.583-9.985l-3.049-6.461l22.769-10.744L309.971,125.272z"/>
<path d="M303.287,272.297v-27.895c1.25-0.567,2.508-1.12,3.747-1.704c42.299-19.959,80.454-51.606,104.682-86.825
	c26.11-37.956,32.944-74.85,19.242-103.887S384.433,4.768,338.535,0.792c-42.581-3.691-91.272,5.641-133.571,25.602
	c-42.297,19.96-80.452,51.607-104.68,86.825c-26.111,37.955-32.945,74.849-19.242,103.886s46.525,47.218,92.422,51.194
	c6.116,0.53,12.352,0.791,18.683,0.791c1.358,0,2.727-0.039,4.093-0.063c0.063,0.002,0.126,0.013,0.189,0.013
	c0.138,0,0.277-0.015,0.415-0.023c3.934-0.079,7.896-0.256,11.882-0.532v3.81c0,12.532,6.936,23.469,17.168,29.19
	c-2.138,15.165-4.948,29.887-8.381,43.831c-0.99,4.023,1.468,8.086,5.49,9.077c0.603,0.148,1.205,0.219,1.799,0.219
	c3.371,0,6.436-2.29,7.278-5.71c3.394-13.789,6.197-28.299,8.367-43.226c0.565,0.029,1.133,0.043,1.705,0.043h27.71
	c0.573,0,1.143-0.015,1.71-0.043c6.301,43.513,17.639,81.666,33.769,113.72h-98.65c5.521-10.997,10.522-22.803,14.917-35.249
	c1.38-3.906-0.669-8.191-4.575-9.57c-3.908-1.381-8.191,0.669-9.57,4.575c-5.104,14.452-11.053,27.96-17.694,40.245h-39.72
	c-6.756,0-12.599,4.813-13.894,11.442l-12.562,64.289c-0.814,4.167,0.268,8.437,2.967,11.714c2.699,3.277,6.682,5.157,10.928,5.157
	H374.53c4.247,0,8.229-1.88,10.929-5.158c2.699-3.278,3.78-7.548,2.964-11.714l-12.563-64.286
	c-1.296-6.63-7.139-11.443-13.894-11.443H322.26c-17.539-32.396-29.677-72.015-36.127-117.919
	C296.357,295.756,303.287,284.824,303.287,272.297z M361.277,434.4c0.008,0-0.015,0-0.008,0l0,0l12.232,62.599h-234.99
	l12.232-62.599l0,0c0.008,0,0,0,0.008,0s-0.015,0-0.008,0h210.526C361.277,434.4,361.269,434.4,361.277,434.4z M417.391,58.388
	c8.361,17.716,7.052,39.57-3.428,63.218L366.414,20.844C391.33,27.788,409.032,40.672,417.391,58.388z M94.609,210.704
	c-8.36-17.716-7.051-39.57,3.43-63.218l47.548,100.763C120.67,241.304,102.969,228.42,94.609,210.704z M174.759,253.354
	c-3.69-0.32-7.279-0.739-10.766-1.251l-57.228-121.276c1.822-3.017,3.779-6.054,5.878-9.105c1.835-2.667,3.764-5.31,5.766-7.93
	l66.136,140.154C181.251,253.825,177.984,253.634,174.759,253.354z M288.285,272.297c0,10.159-8.265,18.423-18.424,18.423h-27.71
	c-10.159,0-18.424-8.265-18.424-18.423v-5.294c21.661-2.775,43.625-8.301,64.557-16.329v21.623H288.285z M292.852,232.643
	c-24.653,10.643-51.197,17.541-77.017,20.204c-0.257,0.013-0.51,0.039-0.76,0.078c-4.682,0.468-9.34,0.8-13.957,0.985
	l-72.145-152.886c22.012-24.64,50.969-46.233,82.394-61.062c31.444-14.838,66.534-23.444,99.564-24.763l11.637,24.661
	c1.28,2.712,3.976,4.302,6.789,4.302c1.072,0,2.162-0.231,3.196-0.719c3.747-1.768,5.351-6.238,3.583-9.985l-8.639-18.308
	c3.281,0.121,6.534,0.312,9.745,0.59c3.69,0.32,7.277,0.739,10.764,1.251l57.228,121.277c-1.822,3.017-3.779,6.054-5.878,9.105
	c-1.827,2.656-3.748,5.287-5.74,7.896l-42.584-90.243c-1.769-3.747-6.243-5.35-9.985-3.582c-3.747,1.768-5.351,6.238-3.583,9.985
	l45.59,96.613c-22.015,24.652-50.983,46.257-82.421,61.092c-2.561,1.208-5.146,2.374-7.752,3.499
	C292.871,232.635,292.861,232.639,292.852,232.643z"/>
<path d="M155.945,454.715l-3.244,16.602l0,0c-0.805,4.12,0.264,8.342,2.933,11.582c2.669,3.241,6.607,5.099,10.805,5.099h179.134
	c4.199,0,8.138-1.859,10.806-5.1c2.669-3.241,3.738-7.462,2.933-11.581l-3.245-16.603c-1.282-6.554-7.06-11.312-13.738-11.312
	H169.683C163.003,443.401,157.225,448.16,155.945,454.715z M341.503,458.403l2.851,14.593H167.658l2.851-14.593H341.503z"/>
<g>
</g>
<g>
</g>
<g>
</g>
<g>
</g>
<g>
</g>
<g>
</g>
<g>
</g>
<g>
</g>
<g>
</g>
<g>
</g>
<g>
</g>
<g>
</g>
<g>
</g>
<g>
</g>
<g>
</g>
</svg>
