<?xml version="1.0" encoding="iso-8859-1"?>
<!-- Generator: Adobe Illustrator 19.0.0, SVG Export Plug-In . SVG Version: 6.00 Build 0)  -->
<svg version="1.1" id="Capa_1" xmlns="http://www.w3.org/2000/svg" xmlns:xlink="http://www.w3.org/1999/xlink" x="0px" y="0px"
	 viewBox="0 0 512 512" style="enable-background:new 0 0 512 512;" xml:space="preserve">
<path style="fill:#B9BBC1;" d="M381.071,293.849L265.45,481.764h230.508c6.675,0,10.766-7.319,7.268-13.005l-107.62-174.91
	C392.274,288.434,384.402,288.434,381.071,293.849z"/>
<path style="fill:#A0A3AA;" d="M503.225,468.759l-107.619-174.91c-3.332-5.415-11.203-5.415-14.535,0l-18.435,29.963l97.185,157.953
	h36.137C502.633,481.764,506.723,474.444,503.225,468.759z"/>
<path style="fill:#B9BBC1;" d="M116.394,293.849L8.775,468.759c-3.498,5.685,0.592,13.005,7.268,13.005H246.55L130.93,293.849
	C127.598,288.434,119.726,288.434,116.394,293.849z"/>
<path style="fill:#FF4C4C;" d="M398.186,123.558C347.571,103.259,306.875,158.7,256,135.963c0-29.576,0-59.152,0-88.728
	c51.328,22.939,92.296-33.697,143.543-11.843c0.657,0.28,1.084,0.937,1.084,1.652v84.858
	C400.627,123.161,399.355,124.027,398.186,123.558z"/>
<path style="fill:#EA2828;" d="M399.543,35.392c-15.404-6.569-29.879-6.042-43.987-2.72v88.726
	c13.693-3.224,27.731-3.815,42.63,2.16c1.169,0.469,2.441-0.397,2.441-1.656V37.044C400.627,36.329,400.2,35.673,399.543,35.392z"/>
<path style="fill:#B9BBC1;" d="M248.732,207.269L79.841,481.764H432.16L263.268,207.269
	C259.936,201.854,252.064,201.854,248.732,207.269z"/>
<g>
	<path style="fill:#A0A3AA;" d="M263.268,207.269c-3.332-5.415-11.203-5.415-14.535,0l-15.158,24.636l153.734,249.859h44.851
		L263.268,207.269z"/>
	<polygon style="fill:#A0A3AA;" points="140.174,308.874 33.798,481.764 79.841,481.764 163.196,346.29 	"/>
</g>
<path d="M509.622,464.823L402.004,289.912c-2.943-4.782-8.052-7.637-13.667-7.637c-5.614,0-10.723,2.856-13.664,7.637
	l-13.972,22.709c-2.174,3.533-1.072,8.16,2.461,10.334c3.535,2.173,8.16,1.072,10.335-2.461l13.972-22.71
	c0.074-0.12,0.299-0.486,0.87-0.486c0.571,0,0.797,0.366,0.871,0.486l107.618,174.911c0.086,0.139,0.314,0.51,0.022,1.033
	c-0.292,0.523-0.728,0.523-0.892,0.523h-59.6L269.665,203.333c-1.497-2.434-3.557-4.365-5.958-5.678
	c0.003,0.001,0.006,0.003,0.008,0.004v-50.98c6.251,1.695,12.34,2.419,18.297,2.419c17.132,0,33.175-5.955,48.87-11.781
	c21.748-8.073,42.29-15.698,64.508-6.788c2.865,1.149,6.103,0.803,8.66-0.927c2.561-1.732,4.089-4.611,4.089-7.701V37.044
	c0-3.74-2.219-7.101-5.65-8.561c-28.203-12.027-52.927-2.851-76.836,6.023c-22.398,8.314-43.553,16.167-66.588,5.872
	c-2.325-1.039-5.016-0.829-7.152,0.555c-2.136,1.385-3.425,3.757-3.425,6.303v0.279c-0.129,0.559-0.203,1.138-0.203,1.736v148.408
	c-2.397,1.313-4.455,3.243-5.951,5.674l-79.139,128.623l-25.868-42.043c-2.942-4.782-8.051-7.637-13.666-7.637
	c-5.614,0-10.723,2.855-13.665,7.637L2.377,464.823c-3.043,4.945-3.173,11.166-0.341,16.235s8.199,8.218,14.006,8.218l0,0h479.915
	l0,0c5.807,0,11.174-3.149,14.006-8.218C512.796,475.989,512.665,469.767,509.622,464.823z M263.512,57.901
	c24.317,6.67,46.158-1.437,67.37-9.311c20.985-7.79,40.867-15.168,62.234-7.642v72.985c-24.39-6.688-46.253,1.428-67.462,9.3
	c-20.95,7.776-40.813,15.149-62.142,7.646V57.901z M93.282,474.252l25.771-41.885c2.174-3.533,1.072-8.16-2.461-10.334
	c-3.534-2.173-8.16-1.072-10.334,2.461l-30.615,49.758h-59.6c-0.164,0-0.6,0-0.892-0.523s-0.065-0.893,0.022-1.033l107.619-174.91
	c0.074-0.12,0.299-0.486,0.87-0.486s0.796,0.366,0.87,0.486l29.844,48.504l-29.799,48.431c-2.174,3.533-1.072,8.16,2.461,10.334
	c3.535,2.174,8.161,1.072,10.334-2.461L255.13,211.205c0.074-0.12,0.299-0.486,0.87-0.486c0.57,0,0.795,0.366,0.87,0.486
	l161.848,263.047H93.282z"/>
<g>
</g>
<g>
</g>
<g>
</g>
<g>
</g>
<g>
</g>
<g>
</g>
<g>
</g>
<g>
</g>
<g>
</g>
<g>
</g>
<g>
</g>
<g>
</g>
<g>
</g>
<g>
</g>
<g>
</g>
</svg>
