<?xml version="1.0" encoding="iso-8859-1"?>
<!-- Generator: Adobe Illustrator 19.0.0, SVG Export Plug-In . SVG Version: 6.00 Build 0)  -->
<svg version="1.1" id="Capa_1" xmlns="http://www.w3.org/2000/svg" xmlns:xlink="http://www.w3.org/1999/xlink" x="0px" y="0px"
	 viewBox="0 0 512.001 512.001" style="enable-background:new 0 0 512.001 512.001;" xml:space="preserve">
<path style="fill:#61AFF6;" d="M494.882,201.832c-0.012-0.038-0.017-0.077-0.029-0.114l0,0c-0.756-2.336-2.73-4.277-5.553-4.687
	l-156.945-22.805L262.167,32.009c-1.261-2.555-3.714-3.833-6.166-3.833c-2.453,0-4.905,1.278-6.166,3.833l-70.188,142.216
	L22.702,197.031c-0.075,0.011-0.143,0.035-0.218,0.048c-0.273,0.048-0.544,0.099-0.8,0.176c-0.109,0.032-0.206,0.081-0.312,0.118
	c-0.211,0.074-0.424,0.144-0.622,0.236c-0.083,0.038-0.155,0.089-0.235,0.131c-0.209,0.108-0.419,0.214-0.611,0.34
	c-0.03,0.02-0.055,0.044-0.084,0.064c-0.234,0.159-0.46,0.326-0.669,0.51c-0.008,0.007-0.014,0.015-0.022,0.022
	c-0.226,0.201-0.439,0.415-0.634,0.642c-0.011,0.012-0.019,0.027-0.029,0.039c-0.591,0.697-1.037,1.502-1.316,2.362l0,0
	c-0.755,2.331-0.297,5.055,1.742,7.042l113.566,110.7l-26.81,156.309c-0.024,0.143-0.026,0.28-0.041,0.421
	c-0.023,0.206-0.056,0.414-0.061,0.616c-0.002,0.08,0.01,0.156,0.011,0.235c0.002,0.257,0.006,0.513,0.036,0.762
	c0.007,0.058,0.025,0.113,0.033,0.17c0.039,0.264,0.084,0.527,0.153,0.779c0.006,0.021,0.015,0.04,0.021,0.061
	c0.167,0.592,0.409,1.15,0.72,1.662c0.004,0.007,0.01,0.014,0.015,0.021c0.319,0.521,0.705,0.996,1.144,1.413
	c0.002,0.002,0.005,0.004,0.008,0.006c0.221,0.208,0.454,0.403,0.699,0.581c0,0,0,0,0.001,0.001l0,0
	c1.984,1.439,4.717,1.846,7.238,0.521l140.376-73.8l140.376,73.8c0.315,0.166,0.634,0.304,0.954,0.417
	c0.314,0.111,0.63,0.196,0.945,0.258c0.005,0.001,0.011,0.003,0.016,0.004c0.288,0.056,0.575,0.087,0.861,0.105
	c0.033,0.002,0.066,0.01,0.099,0.012c0.264,0.013,0.526,0.001,0.786-0.017c0.053-0.004,0.107,0.001,0.16-0.004
	c0.258-0.024,0.51-0.072,0.761-0.124c0.053-0.011,0.107-0.014,0.16-0.026c0.585-0.138,1.146-0.354,1.671-0.635
	c0.016-0.008,0.033-0.014,0.048-0.022c0.219-0.119,0.426-0.256,0.63-0.397c0.048-0.033,0.1-0.059,0.147-0.093l0,0
	c1.986-1.441,3.221-3.917,2.739-6.728l-26.809-156.311l0,0l113.566-110.7l0,0c0.255-0.249,0.485-0.509,0.691-0.778
	c0.067-0.087,0.115-0.18,0.177-0.269c0.129-0.186,0.263-0.371,0.37-0.564c0.147-0.264,0.269-0.536,0.377-0.81
	c0.009-0.022,0.022-0.043,0.03-0.065c0.086-0.225,0.146-0.455,0.206-0.685c0.019-0.074,0.049-0.146,0.066-0.22
	c0.06-0.264,0.095-0.531,0.123-0.798c0.004-0.041,0.015-0.082,0.019-0.123C495.245,203.56,495.139,202.673,494.882,201.832z"/>
<path style="fill:#49A0E8;" d="M494.882,201.832c-0.011-0.038-0.017-0.077-0.029-0.114l0,0c-0.756-2.335-2.73-4.277-5.553-4.687
	l-41.785-6.072L331.649,303.901l0,0L359,463.368l37.378,19.651c0.315,0.166,0.634,0.304,0.954,0.417
	c0.314,0.111,0.63,0.196,0.945,0.258c0.006,0.001,0.011,0.003,0.016,0.005c0.288,0.056,0.575,0.087,0.861,0.105
	c0.033,0.002,0.066,0.01,0.099,0.012c0.264,0.013,0.526,0.001,0.786-0.017c0.053-0.004,0.107,0.001,0.16-0.003
	c0.258-0.024,0.51-0.072,0.761-0.124c0.053-0.011,0.107-0.014,0.16-0.026c0.585-0.138,1.146-0.354,1.671-0.634
	c0.016-0.008,0.033-0.014,0.048-0.022c0.218-0.119,0.426-0.256,0.63-0.397c0.048-0.033,0.1-0.059,0.147-0.092l0,0
	c1.986-1.441,3.221-3.917,2.739-6.728l-26.809-156.311l0,0l113.566-110.7l0,0c0.255-0.248,0.485-0.509,0.692-0.778
	c0.066-0.087,0.115-0.18,0.177-0.269c0.129-0.186,0.263-0.371,0.37-0.564c0.147-0.264,0.269-0.536,0.377-0.811
	c0.009-0.022,0.022-0.043,0.03-0.065c0.086-0.225,0.146-0.455,0.206-0.685c0.019-0.074,0.049-0.146,0.066-0.221
	c0.059-0.264,0.095-0.531,0.123-0.798c0.004-0.041,0.015-0.082,0.019-0.123C495.245,203.56,495.139,202.673,494.882,201.832z"/>
<path style="fill:#FED130;" d="M254.792,366.383l-95.735,50.331c-1.906,1.002-4.134-0.617-3.77-2.739l18.284-106.603
	c0.145-0.843-0.135-1.703-0.747-2.3L95.37,229.574c-1.542-1.503-0.691-4.122,1.44-4.432l107.037-15.553
	c0.846-0.123,1.578-0.655,1.956-1.421l47.868-96.991c0.953-1.931,3.707-1.931,4.66,0l47.868,96.991
	c0.379,0.767,1.11,1.298,1.956,1.421l107.037,15.553c2.131,0.31,2.982,2.929,1.44,4.432l-77.453,75.498
	c-0.612,0.597-0.892,1.457-0.747,2.3l18.284,106.604c0.364,2.123-1.864,3.741-3.77,2.739l-95.736-50.332
	C256.453,365.985,255.549,365.985,254.792,366.383z"/>
<path style="fill:#F7BC14;" d="M416.633,229.575c1.542-1.503,0.691-4.122-1.44-4.432l-50.079-7.277l-71.935,70.12
	c-0.809,0.789-1.179,1.926-0.988,3.04l17.672,103.039l43.084,22.651c1.906,1.002,4.134-0.617,3.77-2.739l-18.283-106.604
	c-0.145-0.843,0.135-1.703,0.747-2.3L416.633,229.575z"/>
<path style="fill:#E1EFFB;" d="M445.764,403.34c-112.77-90.511-266.761-90.513-379.527,0c-1.126,0.948-2.685,0.661-2.963-0.563
	c-3.274-15.638-5.785-31.163-7.644-47.032c-0.049-0.488-0.331-0.873-0.782-1.066c-15.077-6.496-30.684-11.8-46.474-16.257
	c-1.291-0.359-1.112-2.14,0.356-3.376c145.617-118.193,348.933-118.186,494.544,0c1.467,1.236,1.647,3.017,0.356,3.376
	c-15.834,4.331-31.353,9.886-46.474,16.257c-0.451,0.192-0.733,0.578-0.782,1.066c-1.859,15.869-4.37,31.393-7.644,47.032
	C448.45,404,446.89,404.288,445.764,403.34z"/>
<path style="fill:#C3D8E5;" d="M54.677,354.608c0.057,0.024,0.114,0.047,0.171,0.072c0.451,0.192,0.733,0.578,0.782,1.066
	c1.859,15.869,4.37,31.393,7.644,47.032c0.278,1.224,1.837,1.511,2.963,0.563c112.765-90.513,266.757-90.511,379.527,0
	c1.126,0.948,2.686,0.661,2.963-0.563c3.274-15.638,5.785-31.163,7.644-47.032c0.049-0.488,0.331-0.873,0.782-1.066
	c0.057-0.024,0.115-0.047,0.172-0.071C335.838,265.167,176.16,265.166,54.677,354.608z"/>
<path d="M508.109,329.306c-0.035-0.029-0.07-0.059-0.106-0.087c-35.583-28.882-74.558-50.817-115.289-65.846l29.157-28.422
	c2.775-2.705,3.755-6.674,2.558-10.359s-4.324-6.32-8.157-6.876l-104.484-15.182l-46.726-94.677
	c-1.714-3.474-5.186-5.632-9.06-5.633c0,0,0,0-0.001,0c-3.874,0-7.346,2.158-9.061,5.632l-46.726,94.677L95.732,217.715
	c-3.835,0.557-6.961,3.192-8.158,6.877c-1.198,3.685-0.218,7.654,2.556,10.358l29.158,28.422
	c-40.732,15.029-79.707,36.964-115.29,65.847c-0.036,0.029-0.071,0.058-0.106,0.087c-3.04,2.561-4.452,6.335-3.688,9.851
	c0.683,3.14,3.041,5.629,6.129,6.489c15.426,4.355,29.285,9.119,42.269,14.539c1.855,15.018,4.258,29.491,7.324,44.13
	c0.008,0.041,0.018,0.082,0.027,0.122c0.695,3.065,2.891,5.493,5.872,6.494c0.949,0.319,1.938,0.474,2.928,0.474
	c2.217,0,4.44-0.779,6.227-2.248c26.484-21.25,55.382-37.57,85.868-48.697l-8.961,52.247c-0.655,3.819,0.885,7.606,4.02,9.883
	c3.133,2.277,7.212,2.571,10.641,0.769l93.453-49.131l93.451,49.131c1.492,0.784,3.106,1.172,4.713,1.172
	c2.086,0,4.159-0.654,5.93-1.941c3.135-2.278,4.675-6.065,4.019-9.882l-8.961-52.248c30.487,11.126,59.385,27.448,85.872,48.699
	c2.585,2.123,6.077,2.803,9.152,1.771c2.982-1.001,5.176-3.429,5.872-6.493c0.009-0.041,0.018-0.082,0.026-0.122
	c3.063-14.631,5.464-29.096,7.319-44.103c14.461-5.948,28.648-10.838,42.249-14.559c3.113-0.867,5.471-3.356,6.153-6.496
	C512.562,335.641,511.148,331.866,508.109,329.306z M107.731,231.141l97.193-14.123c3.294-0.477,6.139-2.544,7.611-5.527
	l43.466-88.074l43.467,88.072c1.473,2.985,4.318,5.051,7.61,5.528l97.195,14.123l-27.442,26.75
	c-78.666-25.301-162.994-25.301-241.66-0.001L107.731,231.141z M260.705,359.741c-2.944-1.55-6.462-1.55-9.406-0.001l-86.933,45.704
	l8.635-50.344c26.764-8.019,54.602-12.139,82.999-12.139c28.399,0,56.239,4.12,83.004,12.139l8.634,50.344L260.705,359.741z
	 M454.211,347.775c-2.926,1.248-4.949,3.976-5.298,7.133c-1.478,12.604-3.34,24.776-5.657,36.954
	c-26.457-20.063-55.351-35.692-86.011-46.514c-3.047-1.076-6.11-2.085-9.181-3.062c-0.016-0.005-0.032-0.01-0.047-0.015
	c-29.871-9.497-60.775-14.322-92.017-14.323c-0.002,0,0.001,0-0.001,0c-31.236,0-62.139,4.825-92.005,14.319
	c-0.019,0.007-0.039,0.012-0.059,0.019c-3.07,0.976-6.133,1.986-9.18,3.061c-30.66,10.821-59.553,26.451-86.008,46.514
	c-2.318-12.177-4.18-24.351-5.657-36.955c-0.349-3.161-2.375-5.89-5.271-7.121c-11.345-4.888-23.293-9.27-36.283-13.297
	c139.449-107.38,329.441-107.39,468.9-0.025C478.648,338.133,466.515,342.59,454.211,347.775z"/>
<path d="M63.348,262.576c2.968,2.893,7.72,2.833,10.614-0.136c2.893-2.968,2.833-7.721-0.135-10.614l-48.782-47.551l155.682-22.622
	c2.445-0.355,4.558-1.891,5.652-4.106l69.624-141.072l69.623,141.072c1.094,2.215,3.207,3.751,5.652,4.106l155.682,22.622
	l-49.365,48.118c-2.968,2.893-3.029,7.646-0.136,10.614c1.472,1.51,3.423,2.267,5.376,2.267c1.888,0,3.779-0.709,5.239-2.131
	l50.279-49.01c0.507-0.495,0.981-1.029,1.415-1.595c0.162-0.212,0.31-0.428,0.453-0.654c0.166-0.238,0.427-0.617,0.68-1.073
	c0.279-0.497,0.526-1.016,0.738-1.543c0.031-0.071,0.061-0.141,0.088-0.208c0.015-0.039,0.03-0.077,0.045-0.116
	c0.193-0.507,0.318-0.946,0.406-1.276c0.067-0.219,0.127-0.439,0.175-0.651c0.131-0.582,0.202-1.105,0.246-1.49
	c0.021-0.156,0.04-0.317,0.052-0.455c0.145-1.718-0.024-3.442-0.52-5.192c-0.041-0.162-0.09-0.333-0.137-0.475
	c-1.701-5.253-6.15-9.009-11.615-9.803L337.34,167.364L268.898,28.686c-2.441-4.944-7.383-8.015-12.897-8.015
	s-10.456,3.072-12.897,8.017l-68.441,138.678l-153.062,22.24c-0.214,0.032-0.42,0.071-0.626,0.118
	c-0.43,0.08-0.899,0.179-1.429,0.336c-0.265,0.079-0.519,0.169-0.777,0.271c-0.403,0.141-0.801,0.294-1.179,0.469
	c-0.224,0.104-0.44,0.217-0.655,0.34c-0.295,0.152-0.698,0.367-1.146,0.662c-0.129,0.086-0.256,0.173-0.379,0.265
	c-0.448,0.313-0.848,0.626-1.22,0.954c-0.057,0.051-0.114,0.103-0.171,0.155c-0.438,0.399-0.843,0.814-1.159,1.183
	c-0.081,0.091-0.163,0.19-0.242,0.29c-1.167,1.413-2.045,3.013-2.609,4.758c-1.697,5.241-0.301,10.885,3.644,14.728L63.348,262.576z
	"/>
<path d="M400.859,399.325c-0.702-4.086-4.585-6.834-8.667-6.129c-4.086,0.701-6.83,4.581-6.129,8.667l12.677,73.919l-139.246-73.206
	c-2.185-1.149-4.798-1.149-6.986,0l-139.246,73.206l12.643-73.709c0.701-4.086-2.043-7.966-6.129-8.667
	c-4.09-0.703-7.966,2.043-8.667,6.129l-12.859,74.97c-0.057,0.331-0.091,0.654-0.117,1l0.005-0.071
	c-0.049,0.4-0.086,0.801-0.095,1.19c-0.006,0.229-0.001,0.454,0.011,0.68c0.005,0.351,0.021,0.852,0.093,1.44
	c0.023,0.184,0.053,0.366,0.088,0.545c0.064,0.401,0.156,0.902,0.315,1.483c0.026,0.093,0.056,0.192,0.088,0.291
	c0.348,1.168,0.841,2.279,1.447,3.277c0.043,0.072,0.088,0.144,0.135,0.216c0.646,1.029,1.42,1.973,2.3,2.807l0,0
	c0.026,0.024,0.052,0.048,0.078,0.072c0.436,0.408,0.901,0.791,1.383,1.14c2.52,1.828,5.466,2.756,8.433,2.756
	c2.286,0,4.583-0.551,6.706-1.667l136.881-71.965l136.887,71.966c0.628,0.33,1.282,0.615,1.947,0.85
	c0.594,0.21,1.209,0.382,1.831,0.512c0.062,0.014,0.123,0.027,0.186,0.039c0.537,0.105,1.091,0.177,1.615,0.215
	c0.146,0.015,0.292,0.026,0.425,0.033c0.585,0.029,1.096,0.009,1.474-0.014c0.182-0.005,0.37-0.016,0.526-0.03
	c0.552-0.051,1.034-0.135,1.429-0.215c0.177-0.03,0.362-0.066,0.512-0.102c1.142-0.268,2.259-0.682,3.316-1.228
	c0.091-0.045,0.182-0.092,0.27-0.139c0.471-0.256,0.871-0.516,1.163-0.714c0.154-0.098,0.317-0.206,0.442-0.298
	c4.467-3.242,6.663-8.634,5.728-14.072L400.859,399.325z M399.978,476.228L399.978,476.228c0.016-0.002,0.032-0.005,0.049-0.007
	C400.011,476.223,399.994,476.225,399.978,476.228z"/>
<g>
</g>
<g>
</g>
<g>
</g>
<g>
</g>
<g>
</g>
<g>
</g>
<g>
</g>
<g>
</g>
<g>
</g>
<g>
</g>
<g>
</g>
<g>
</g>
<g>
</g>
<g>
</g>
<g>
</g>
</svg>
