<?xml version="1.0" encoding="iso-8859-1"?>
<!-- Generator: Adobe Illustrator 19.0.0, SVG Export Plug-In . SVG Version: 6.00 Build 0)  -->
<svg version="1.1" id="Capa_1" xmlns="http://www.w3.org/2000/svg" xmlns:xlink="http://www.w3.org/1999/xlink" x="0px" y="0px"
	 viewBox="0 0 511.999 511.999" style="enable-background:new 0 0 511.999 511.999;" xml:space="preserve">
<path style="fill:#FFB125;" d="M185.526,438.979h140.943c-58.383-68.288-52.29-166.706-52.29-166.706h-18.181h-18.181
	C237.816,272.273,243.908,370.691,185.526,438.979z"/>
<path style="fill:#FF901D;" d="M274.179,272.273h-18.181h-18.181c0,0,1.61,26.032-4.766,60.607
	c6.022,32.655,19.167,72.93,47.524,106.099h45.896C268.087,370.691,274.179,272.273,274.179,272.273z"/>
<path style="fill:#FFB125;" d="M270.023,306.327h-28.05c-14.494,0-26.243-11.749-26.243-26.243v-35.11h80.536v35.11
	C296.265,294.578,284.516,306.327,270.023,306.327z"/>
<path style="fill:#FF901D;" d="M250.707,244.974v35.11c0,11.423-7.301,21.137-17.489,24.742c2.739,0.969,5.684,1.501,8.754,1.501
	h28.05c14.494,0,26.243-11.749,26.243-26.243v-35.11L250.707,244.974L250.707,244.974z"/>
<path style="fill:#2C5871;" d="M375.975,504.496H136.021c-4.24,0-7.426-3.869-6.613-8.03l12.717-65.078
	c0.618-3.163,3.39-5.446,6.613-5.446h214.521c3.223,0,5.995,2.283,6.613,5.446l12.717,65.078
	C383.401,500.627,380.214,504.496,375.975,504.496z"/>
<path style="fill:#1D4859;" d="M382.587,496.466l-12.717-65.078c-0.618-3.163-3.39-5.446-6.613-5.446h-41.159l15.35,78.554h38.526
	C380.214,504.496,383.401,500.627,382.587,496.466z"/>
<path style="fill:#E1EFFB;" d="M158.257,475.523l4.321-22.112c0.36-1.842,1.974-3.171,3.851-3.171h179.137
	c1.877,0,3.491,1.329,3.851,3.171l4.321,22.112c0.473,2.423-1.382,4.676-3.851,4.676H162.108
	C159.639,480.199,157.785,477.946,158.257,475.523z"/>
<path style="fill:#C3D8E5;" d="M353.738,475.523l-4.321-22.112c-0.36-1.842-1.974-3.171-3.851-3.171h-42.327l5.854,29.959h40.794
	C352.356,480.199,354.211,477.946,353.738,475.523z"/>
<path style="fill:#E1EFFB;" d="M421.625,128.388c-0.003-0.016-0.003-0.032-0.006-0.048c-0.035-0.189-0.085-0.376-0.142-0.56
	c-0.006-0.019-0.008-0.038-0.014-0.057c-0.524-1.618-1.891-2.963-3.847-3.247l-108.725-15.799l-48.623-98.521
	c-0.218-0.443-0.488-0.83-0.797-1.162c-0.463-0.498-1.013-0.871-1.607-1.12c-2.176-0.913-4.938-0.152-6.14,2.282l-19.364,39.237
	l-4.676,9.474L216.564,81.4l-13.46,27.278l-94.93,13.794l-13.794,2.004c-0.03,0.004-0.056,0.014-0.086,0.019
	c-0.213,0.035-0.421,0.077-0.62,0.136c-0.014,0.004-0.026,0.011-0.04,0.015c-0.21,0.065-0.414,0.14-0.607,0.23
	c-0.049,0.023-0.092,0.054-0.14,0.078c-0.153,0.078-0.305,0.156-0.446,0.248c-0.038,0.025-0.07,0.056-0.108,0.082
	c-0.143,0.1-0.285,0.202-0.415,0.316c-0.006,0.005-0.01,0.011-0.016,0.016c-0.157,0.139-0.304,0.287-0.439,0.444
	c-0.013,0.015-0.023,0.032-0.035,0.047c-0.125,0.149-0.244,0.304-0.349,0.466c-0.004,0.005-0.006,0.011-0.009,0.017
	c-0.112,0.174-0.214,0.354-0.302,0.541c-0.001,0.001-0.001,0.003-0.002,0.004c-0.818,1.726-0.615,3.919,0.973,5.466l78.674,76.688
	L151.84,317.574c-0.042,0.243-0.065,0.483-0.071,0.718c-0.002,0.07,0.008,0.136,0.01,0.205c0.003,0.163,0.004,0.327,0.023,0.485
	c0.008,0.063,0.026,0.122,0.036,0.185c0.026,0.16,0.051,0.32,0.093,0.474c0.004,0.015,0.011,0.028,0.015,0.043
	c0.296,1.046,0.944,1.935,1.791,2.55l0,0c1.374,0.997,3.268,1.279,5.014,0.361l97.246-51.125l97.246,51.125
	c0.218,0.115,0.439,0.211,0.66,0.289c1.311,0.463,2.655,0.299,3.766-0.288c0.016-0.008,0.033-0.014,0.049-0.022
	c0.151-0.082,0.294-0.177,0.435-0.274c0.034-0.023,0.07-0.041,0.103-0.065c1.376-0.998,2.232-2.714,1.898-4.661L341.583,209.29
	l78.674-76.688c0.137-0.134,0.256-0.277,0.373-0.419c0.033-0.041,0.074-0.078,0.106-0.119c0.128-0.167,0.238-0.342,0.34-0.518
	c0.012-0.02,0.027-0.039,0.039-0.059c0.083-0.149,0.148-0.302,0.212-0.456c0.021-0.051,0.051-0.1,0.07-0.151
	c0.061-0.16,0.105-0.324,0.147-0.488c0.012-0.047,0.031-0.092,0.042-0.139c0.041-0.181,0.065-0.365,0.084-0.548
	c0.003-0.03,0.011-0.06,0.014-0.09c0.016-0.185,0.015-0.37,0.009-0.555c-0.001-0.028,0.003-0.057,0.001-0.086
	C421.684,128.776,421.659,128.581,421.625,128.388z"/>
<g>
	<path style="fill:#C3D8E5;" d="M90.532,127.724l165.466,53.917l-52.895-72.963L94.378,124.477
		C92.423,124.761,91.055,126.106,90.532,127.724z"/>
	<path style="fill:#C3D8E5;" d="M260.269,10.157c-0.874-1.77-2.573-2.655-4.272-2.655v174.139l52.895-72.962L260.269,10.157z"/>
	<path style="fill:#C3D8E5;" d="M421.464,127.724l-165.466,53.917l85.586,27.649l78.674-76.688
		C421.669,131.225,421.986,129.338,421.464,127.724z"/>
	<path style="fill:#C3D8E5;" d="M153.737,322.236l102.26-140.595l-85.586,27.649l-18.572,108.286
		C151.507,319.522,152.361,321.238,153.737,322.236z"/>
	<path style="fill:#C3D8E5;" d="M358.258,322.236l-102.26-140.595v89.831l97.246,51.125
		C354.99,323.515,356.883,323.233,358.258,322.236z"/>
</g>
<circle style="fill:#FFB125;" cx="256.003" cy="183.389" r="57.55"/>
<path style="fill:#FF901D;" d="M255.998,125.84c-8.093,0-15.792,1.678-22.779,4.693c20.451,8.826,34.77,29.165,34.77,52.855
	s-14.318,44.029-34.77,52.855c6.987,3.015,14.686,4.693,22.779,4.693c31.783,0,57.549-25.765,57.549-57.549
	S287.781,125.84,255.998,125.84z"/>
<path d="M246.331,169.287c0.588,0,1.344-0.168,2.016-0.756l2.689-2.689v44.867c0,2.269,2.689,3.445,5.461,3.445
	c2.689,0,5.462-1.177,5.462-3.445v-54.614c0-2.185-2.605-3.529-4.873-3.529c-0.925,0-1.681,0.336-2.269,0.84l-9.914,7.562
	c-1.344,0.84-2.1,2.437-2.1,3.949C242.802,167.102,244.23,169.287,246.331,169.287z"/>
<path d="M155.215,451.972l-4.321,22.112l0,0c-0.657,3.364,0.216,6.81,2.394,9.455s5.393,4.162,8.82,4.162h187.779
	c3.427,0,6.642-1.518,8.82-4.163c2.178-2.646,3.051-6.092,2.393-9.454l-4.32-22.113c-1.046-5.351-5.762-9.234-11.214-9.234H166.429
	C160.977,442.737,156.261,446.621,155.215,451.972z M169.376,457.742h173.243l2.922,14.955H166.454L169.376,457.742z"/>
<path d="M429.187,128.582c-0.004-0.085-0.014-0.172-0.02-0.257c-0.024-0.319-0.059-0.639-0.108-0.958
	c-0.001-0.008-0.002-0.014-0.003-0.022c0-0.004-0.001-0.007-0.002-0.011c-0.016-0.104-0.03-0.208-0.049-0.312
	c-0.002-0.012-0.004-0.024-0.006-0.036c-0.004-0.022-0.012-0.045-0.016-0.067c-0.069-0.361-0.157-0.72-0.259-1.078
	c-0.008-0.027-0.011-0.05-0.018-0.077c-0.029-0.108-0.061-0.213-0.093-0.315c-0.004-0.012-0.006-0.024-0.01-0.036
	c-0.002-0.006-0.004-0.011-0.006-0.016c-1.454-4.471-5.246-7.668-9.9-8.344l-104.821-15.231l-40.805-82.68l-6.07-12.3l0,0
	l-0.002-0.004c-0.266-0.539-0.568-1.051-0.9-1.536c-0.011-0.017-0.024-0.032-0.036-0.049c-0.329-0.475-0.688-0.922-1.074-1.34
	c-0.008-0.009-0.014-0.019-0.022-0.027c-0.025-0.027-0.054-0.05-0.08-0.077c-0.241-0.254-0.492-0.496-0.752-0.728
	c-0.053-0.047-0.105-0.096-0.16-0.143c-0.292-0.251-0.595-0.488-0.909-0.709c-0.042-0.03-0.086-0.057-0.128-0.086
	c-0.306-0.21-0.62-0.405-0.944-0.586c-0.03-0.017-0.059-0.035-0.089-0.051c-0.36-0.198-0.731-0.376-1.111-0.536
	c-0.009-0.004-0.017-0.009-0.026-0.012c-0.017-0.007-0.035-0.012-0.052-0.019c-0.33-0.137-0.667-0.259-1.01-0.367
	c-0.036-0.011-0.072-0.024-0.109-0.035c-0.358-0.109-0.721-0.204-1.09-0.28c-0.026-0.005-0.053-0.009-0.079-0.014
	c-0.314-0.063-0.632-0.111-0.953-0.149c-0.098-0.011-0.195-0.021-0.293-0.031c-0.281-0.026-0.564-0.043-0.849-0.051
	c-0.067-0.002-0.135-0.007-0.202-0.007c-0.044,0-0.088-0.005-0.132-0.005c-0.187,0-0.37,0.014-0.553,0.028
	c-4.333,0.207-8.413,2.691-10.446,6.81l-19.449,39.407c-1.834,3.716-0.308,8.214,3.407,10.048c3.715,1.833,8.214,0.308,10.048-3.407
	l9.49-19.23v85.129c-8.399,0.969-16.32,3.53-23.439,7.396c0,0,0,0,0.001,0l-13.223-18.24l11.459-23.218
	c1.834-3.716,0.308-8.215-3.407-10.048c-3.718-1.835-8.215-0.308-10.048,3.407l-11.717,23.741L93.283,117.054
	c-0.125,0.019-0.261,0.043-0.397,0.07c-0.046,0.008-0.085,0.018-0.13,0.026c-0.153,0.029-0.306,0.058-0.458,0.093
	c-0.249,0.055-0.484,0.113-0.687,0.174c-0.002,0-0.004,0.001-0.006,0.002c-0.019,0.006-0.037,0.012-0.056,0.018
	c-0.104,0.031-0.209,0.063-0.314,0.099c-0.027,0.009-0.051,0.021-0.077,0.03c-0.432,0.144-0.854,0.306-1.263,0.494
	c-0.011,0.005-0.024,0.009-0.035,0.014c-0.064,0.03-0.124,0.064-0.186,0.095c-0.246,0.12-0.488,0.247-0.725,0.382
	c-0.054,0.03-0.109,0.063-0.167,0.097c-0.134,0.079-0.267,0.158-0.397,0.243c-0.018,0.011-0.033,0.019-0.051,0.031
	c-0.047,0.031-0.091,0.065-0.138,0.097c-0.243,0.163-0.479,0.335-0.708,0.515c-0.026,0.02-0.052,0.041-0.079,0.062
	c-0.139,0.11-0.276,0.222-0.41,0.339c-0.013,0.011-0.025,0.02-0.038,0.031c-0.031,0.027-0.061,0.054-0.091,0.082
	c-0.028,0.025-0.056,0.051-0.084,0.078c-0.011,0.01-0.021,0.021-0.032,0.031c-0.15,0.138-0.297,0.28-0.441,0.426
	c-0.038,0.038-0.073,0.076-0.11,0.114c-0.132,0.138-0.262,0.277-0.388,0.422c-0.004,0.004-0.008,0.009-0.012,0.013
	c-0.026,0.03-0.053,0.065-0.079,0.096c-0.195,0.23-0.382,0.467-0.56,0.712c-0.017,0.023-0.034,0.047-0.05,0.07
	c-0.114,0.159-0.226,0.32-0.333,0.485c-0.012,0.018-0.023,0.033-0.035,0.051c-0.024,0.038-0.048,0.077-0.072,0.116
	c-0.008,0.013-0.014,0.027-0.022,0.04c-0.237,0.382-0.457,0.776-0.652,1.187c-0.004,0.008-0.009,0.015-0.013,0.023
	c-0.01,0.021-0.02,0.041-0.029,0.062c-0.027,0.058-0.048,0.119-0.075,0.177c-0.089,0.199-0.176,0.4-0.255,0.605
	c-0.043,0.111-0.081,0.222-0.121,0.333c-0.039,0.109-0.082,0.215-0.118,0.325c-0.017,0.053-0.027,0.107-0.043,0.161
	c-1.342,4.354-0.176,9.157,3.151,12.4l75.849,73.935l-4.937,28.787l-12.97,75.619c-0.012,0.071-0.018,0.144-0.029,0.215
	c-0.034,0.224-0.067,0.447-0.089,0.67c-0.007,0.071-0.008,0.145-0.014,0.217c-0.018,0.224-0.035,0.447-0.041,0.67
	c0,0.016-0.003,0.032-0.003,0.049c-0.001,0.071,0.004,0.141,0.004,0.211c-0.003,0.51,0.022,1.016,0.082,1.516
	c0.002,0.015,0.001,0.03,0.003,0.045c0.007,0.06,0.02,0.118,0.029,0.177c0.069,0.5,0.165,0.993,0.294,1.477
	c0.004,0.013,0.005,0.028,0.009,0.041c0.012,0.043,0.024,0.087,0.037,0.131c0.019,0.064,0.039,0.131,0.061,0.198
	c0.003,0.009,0.006,0.017,0.009,0.026c0.476,1.569,1.268,3.031,2.34,4.302c0.005,0.006,0.011,0.013,0.016,0.019
	c0.196,0.231,0.401,0.456,0.615,0.674c0.026,0.026,0.051,0.054,0.077,0.08c0.196,0.196,0.4,0.385,0.611,0.569
	c0.04,0.035,0.078,0.072,0.118,0.106c0.244,0.207,0.495,0.408,0.758,0.599c0,0,0.001,0,0.001,0.001l0,0
	c2.148,1.558,4.661,2.35,7.191,2.35c1.949,0,3.908-0.47,5.719-1.421l53.409-28.079c3.485,4.33,7.982,7.726,13.048,9.907
	c-3.403,30.367-12.701,71.513-36.968,107.374h-42.994c-6.795,0-12.673,4.84-13.976,11.509l-12.717,65.079
	c-0.819,4.192,0.269,8.487,2.984,11.784c2.715,3.296,6.721,5.187,10.992,5.187h239.954c4.271,0,8.278-1.891,10.993-5.188
	c2.715-3.297,3.802-7.592,2.983-11.784l-12.717-65.079c-1.304-6.669-7.182-11.509-13.976-11.509h-42.976
	c-7.869-11.636-14.687-24.608-20.266-38.649c-1.53-3.85-5.889-5.734-9.743-4.202c-3.85,1.53-5.732,5.892-4.202,9.742
	c4.673,11.762,10.176,22.839,16.398,33.108h-92.914c21.693-35.762,30.498-74.936,33.929-104.61h25.037
	c1.44,12.436,3.606,24.686,6.48,36.507c0.834,3.431,3.903,5.732,7.284,5.732c0.586,0,1.182-0.069,1.778-0.214
	c4.026-0.978,6.497-5.036,5.518-9.062c-2.808-11.553-4.911-23.546-6.279-35.729c5.063-2.181,9.559-5.576,13.043-9.905l10.753,5.653
	l42.662,22.429c0.402,0.211,0.819,0.393,1.239,0.558c0.079,0.031,0.157,0.064,0.236,0.093c0.059,0.022,0.116,0.048,0.175,0.069
	c0.327,0.115,0.658,0.209,0.992,0.295c0.127,0.033,0.255,0.062,0.382,0.091c0.346,0.078,0.695,0.145,1.046,0.191
	c0.258,0.035,0.517,0.051,0.776,0.069c0.16,0.011,0.319,0.025,0.48,0.029c0.13,0.004,0.259,0.023,0.388,0.023
	c1.96,0,3.908-0.481,5.686-1.42c0.048-0.025,0.1-0.048,0.146-0.073c0.056-0.03,0.11-0.069,0.165-0.101
	c0.244-0.138,0.484-0.285,0.721-0.44c0.021-0.014,0.043-0.025,0.064-0.039c0.143-0.091,0.29-0.19,0.411-0.278
	c3.809-2.764,5.682-7.363,4.886-12.001l-17.903-104.396l75.841-73.926c0.002-0.002,0.004-0.005,0.007-0.007l0.002-0.002
	c0.001-0.001,0.001-0.002,0.002-0.002c0.198-0.193,0.372-0.378,0.516-0.539c0.231-0.254,0.453-0.514,0.66-0.783
	c0.005-0.006,0.012-0.014,0.017-0.021c0.143-0.187,0.281-0.38,0.415-0.58c0.101-0.148,0.194-0.301,0.287-0.453
	c0.026-0.042,0.052-0.079,0.077-0.122c0.015-0.024,0.028-0.048,0.043-0.072c0.04-0.067,0.081-0.133,0.119-0.201
	c0.01-0.017,0.022-0.035,0.031-0.052c0.065-0.116,0.112-0.216,0.167-0.323c0.206-0.395,0.392-0.799,0.552-1.212
	c0.008-0.019,0.019-0.043,0.026-0.062c0.035-0.092,0.058-0.17,0.088-0.256c0.156-0.437,0.288-0.881,0.392-1.332
	c0.004-0.017,0.011-0.038,0.014-0.054c0.005-0.023,0.006-0.045,0.011-0.067c0.109-0.492,0.189-0.991,0.236-1.494
	c0-0.003,0.001-0.007,0.001-0.01c0.003-0.037,0.007-0.074,0.01-0.111c0.005-0.058,0.006-0.118,0.01-0.176
	c0.032-0.471,0.039-0.944,0.016-1.419C429.187,128.615,429.187,128.597,429.187,128.582z M362.628,433.445c0.003,0-0.005,0-0.002,0
	C362.628,433.445,362.626,433.445,362.628,433.445L362.628,433.445l12.418,63.549H136.949l12.418-63.549l0,0c0.002,0-0.002,0,0,0
	c0.003,0-0.003,0,0,0H362.628z M394.33,128.674l-79.954,26.053l0,0c-3.74-7.586-8.914-14.339-15.168-19.909l13.095-18.064
	L394.33,128.674z M263.5,33.656l36.661,74.283l-13.223,18.24c-7.119-3.866-15.04-6.426-23.438-7.396L263.5,33.656L263.5,33.656z
	 M255.998,133.342c27.595,0,50.046,22.451,50.046,50.046s-22.451,50.046-50.046,50.046c-27.596,0-50.046-22.451-50.046-50.046
	C205.951,155.793,228.402,133.342,255.998,133.342z M199.691,116.755l13.096,18.064l0.001-0.001
	c-6.254,5.57-11.429,12.323-15.169,19.91l0,0l-79.954-26.053L199.691,116.755z M113.131,142.978l79.468,25.895
	c-1.069,4.671-1.653,9.525-1.653,14.516c0,3.776,0.342,7.472,0.962,11.074c0,0,0-0.001,0-0.002l-19.499,6.299L113.131,142.978z
	 M177.039,215.033l19.107-6.173c3.509,8.214,8.671,15.554,15.051,21.626c-0.001-0.001-0.001-0.001-0.002-0.002l-48.163,66.218
	L177.039,215.033z M175.21,305.468l47.967-65.949c7.596,4.459,16.169,7.419,25.318,8.475v18.946L175.21,305.468z M270.023,298.825
	h-28.05c-4.715,0-9.187-1.813-12.585-4.887l26.609-13.99l26.61,13.99C279.209,297.012,274.738,298.825,270.023,298.825z
	 M263.5,266.94v-18.946c9.149-1.056,17.721-4.016,25.317-8.475l47.967,65.949L263.5,266.94z M300.801,230.484
	c6.379-6.072,11.54-13.41,15.049-21.624l19.107,6.173l14.008,81.67L300.801,230.484z M358.402,182.418l-18.817,18.342l-19.499-6.299
	c0.62-3.601,0.962-7.296,0.962-11.072c0-4.991-0.584-9.846-1.653-14.517v0.001l79.468-25.894L358.402,182.418z"/>
<g>
</g>
<g>
</g>
<g>
</g>
<g>
</g>
<g>
</g>
<g>
</g>
<g>
</g>
<g>
</g>
<g>
</g>
<g>
</g>
<g>
</g>
<g>
</g>
<g>
</g>
<g>
</g>
<g>
</g>
</svg>
