<?xml version="1.0" encoding="iso-8859-1"?>
<!-- Generator: Adobe Illustrator 22.0.0, SVG Export Plug-In . SVG Version: 6.00 Build 0)  -->
<svg xmlns="http://www.w3.org/2000/svg" xmlns:xlink="http://www.w3.org/1999/xlink" version="1.1" id="Layer_1_1_" x="0px" y="0px" viewBox="0 0 64 64" style="enable-background:new 0 0 64 64;" xml:space="preserve" width="512" height="512">
<g>
	<g>
		<path style="fill:#ebc000;" d="M61,27c0,0-4.051-3.033-8.817-4.01c2.212-0.053,4.6-1.058,6.57-2.69    c3.588-2.973,4.296-8.219,1.898-12.215L60,7c-2.529,7.588-19.273,4.514-24.467,8.755l-0.006,0.003    C35.699,13.13,34.453,10.472,32,9c0,9-19,8-19,15l0.067,0.086C14.916,23.396,16.91,23,19,23c9.389,0,17,7.611,17,17    c0,3.612-1.134,6.954-3.055,9.707L33,49.777C43,55.787,50.927,37.489,58,43c-0.088-4.18-3.781-7.833-8-8    c-0.323-0.013-0.635-0.018-0.938-0.019C55.972,32.975,52.028,28.994,61,27z"/>
	</g>
	<g>
		<path style="fill:#ebc000;" d="M54.864,31.885c0.983-1.503,1.912-2.922,6.353-3.909l2.123-0.472L61.6,26.2c-0.054-0.041-2.388-1.758-5.628-3.056    c1.191-0.497,2.355-1.193,3.419-2.074c3.89-3.224,4.8-9.027,2.117-13.499l-1.77-2.949l-0.688,2.062    c-1.285,3.854-7.294,4.589-13.106,5.3c-3.618,0.443-7.055,0.879-9.495,2.055c-0.012-0.083-0.017-0.166-0.032-0.249    c-0.428-2.356-1.85-4.415-3.903-5.647L31,7.234V9c0,4.083-4.949,5.89-9.736,7.638c-4.516,1.649-8.788,3.215-9.221,6.763    C5.563,26.127,1,32.54,1,40c0,9.925,8.075,18,18,18c5.777,0,10.912-2.746,14.208-6.99c1.378,0.694,2.713,1.013,4.005,1.013    c3.918,0,7.454-2.708,10.679-5.18c4.192-3.212,6.894-5.082,9.493-3.055l1.659,1.292L59,42.979    c-0.081-3.828-2.844-7.274-6.452-8.504C53.702,33.654,54.308,32.736,54.864,31.885z M19,46c-0.447,0-0.883,0.034-1.322,0.062    c-0.346-1.527-0.58-3.216-0.645-5.062h17.916c-0.225,3.618-1.65,6.91-3.892,9.485C28.242,47.667,23.841,46,19,46z M29.65,51.906    c-2.08,1.863-4.638,3.201-7.477,3.775c-0.902-1.105-2.743-3.706-3.969-7.644C18.47,48.026,18.732,48,19,48    C23.254,48,27.223,49.485,29.65,51.906z M6.943,50.485C4.701,47.91,3.276,44.618,3.051,41h11.982    c0.062,1.92,0.29,3.686,0.637,5.287C12.172,46.862,9.094,48.331,6.943,50.485z M15.67,33.713    c-0.347,1.601-0.575,3.366-0.637,5.287H3.051c0.225-3.618,1.65-6.91,3.892-9.485C9.094,31.669,12.172,33.138,15.67,33.713z     M17.033,39c0.066-1.844,0.301-3.533,0.649-5.062C18.12,33.966,18.555,34,19,34c4.841,0,9.242-1.667,12.057-4.485    c2.242,2.575,3.667,5.866,3.892,9.485H17.033z M19,32c-0.266,0-0.526-0.026-0.79-0.037c1.227-3.928,3.067-6.535,3.966-7.644    c2.838,0.574,5.394,1.912,7.474,3.775C27.223,30.515,23.254,32,19,32z M16.167,31.761c-3.144-0.496-5.941-1.796-7.818-3.668    C11.182,25.557,14.908,24,19,24c0.291,0,0.576,0.028,0.863,0.044C18.741,25.604,17.213,28.199,16.167,31.761z M8.35,51.906    c1.877-1.872,4.674-3.172,7.818-3.668c1.046,3.563,2.574,6.157,3.696,7.718C19.576,55.972,19.291,56,19,56    C14.908,56,11.182,54.443,8.35,51.906z M48.884,33.986c-0.154,0-0.325-0.007-0.474-0.006c-1.633,0.005-2.799,0.007-3.795-0.769    l-1.229,1.577c1.54,1.2,3.229,1.195,5.03,1.192c0.487-0.002,1-0.002,1.545,0.019c3.093,0.123,5.833,2.344,6.731,5.179    c-3.335-1.037-6.723,1.556-10.016,4.079c-3.914,2.999-7.954,6.089-12.328,4.1C36.019,46.626,37,43.429,37,40    c0-9.925-8.075-18-18-18c-1.585,0-3.115,0.227-4.581,0.613c1.102-1.747,4.241-2.896,7.531-4.097    c4.549-1.661,9.632-3.518,10.801-7.659c0.873,0.894,1.471,2.036,1.699,3.289c0.323,1.781-0.136,3.612-1.259,5.025    C32.114,20.527,31,21.928,31,24h2c0-1.374,0.775-2.349,1.757-3.584c0.948-1.193,1.532-2.612,1.722-4.094    c2.025-1.399,5.917-1.889,9.709-2.353c5.598-0.685,11.361-1.391,13.87-4.897c1.849,3.559,1.059,7.97-1.943,10.457    c-1.856,1.539-4.032,2.429-5.993,2.464c-3.664-0.7-7.723-0.254-10.874,3.348l1.505,1.317c2.616-2.991,6.08-3.31,9.248-2.661V24    c0.003,0,0.007-0.001,0.011-0.001c2.604,0.535,5.008,1.721,6.568,2.63c-3.424,1.159-4.458,2.74-5.388,4.161    C52.357,32.065,51.621,33.169,48.884,33.986z"/>
	</g>
</g>
</svg>
