<svg id="svg" xmlns="http://www.w3.org/2000/svg" xmlns:xlink="http://www.w3.org/1999/xlink" width="400" height="165.99999999999997" viewBox="0, 0, 400,165.99999999999997"><g id="svgg"><path id="path0" d="M205.076 14.076 L 204.667 14.485 204.667 27.049 L 204.667 39.613 205.091 39.807 C 205.833 40.144,245.565 40.078,245.905 39.738 C 246.324 39.319,246.301 14.862,245.881 14.151 L 245.595 13.667 225.540 13.667 L 205.485 13.667 205.076 14.076 M12.242 27.949 C 11.879 28.312,11.994 29.589,12.491 30.700 C 12.684 31.131,12.920 31.918,13.015 32.450 C 13.111 32.982,13.331 33.717,13.505 34.083 C 13.679 34.450,13.904 35.162,14.006 35.667 C 14.108 36.171,14.367 37.071,14.581 37.667 C 14.796 38.262,15.018 39.028,15.075 39.368 C 15.132 39.708,15.328 40.323,15.510 40.735 C 15.693 41.146,15.918 41.898,16.012 42.406 C 16.106 42.913,16.355 43.723,16.567 44.206 C 16.778 44.688,17.003 45.421,17.067 45.833 C 17.131 46.246,17.367 47.094,17.591 47.718 C 17.816 48.342,18.000 48.993,18.000 49.164 C 18.000 49.335,18.218 50.024,18.483 50.696 C 18.749 51.367,19.019 52.311,19.083 52.793 C 19.146 53.276,19.368 54.026,19.576 54.460 C 19.783 54.895,20.007 55.550,20.072 55.917 C 20.136 56.283,20.372 57.094,20.595 57.718 C 20.818 58.342,21.000 58.993,21.000 59.164 C 21.000 59.335,21.217 60.024,21.481 60.696 C 21.746 61.367,22.015 62.285,22.079 62.734 C 22.143 63.184,22.367 63.934,22.577 64.401 C 22.787 64.868,23.011 65.550,23.074 65.917 C 23.138 66.283,23.372 67.094,23.595 67.718 C 23.818 68.342,24.000 69.005,24.000 69.190 C 24.000 69.376,24.216 70.028,24.480 70.639 C 24.744 71.250,25.009 72.149,25.070 72.636 C 25.131 73.123,25.356 73.910,25.570 74.386 C 25.784 74.861,26.011 75.550,26.074 75.917 C 26.138 76.283,26.372 77.094,26.595 77.718 C 26.818 78.342,27.000 79.005,27.000 79.190 C 27.000 79.376,27.216 80.028,27.480 80.639 C 27.744 81.250,28.010 82.155,28.072 82.649 C 28.134 83.144,28.331 83.835,28.510 84.185 C 28.688 84.536,28.916 85.219,29.016 85.703 C 29.116 86.187,29.378 87.094,29.599 87.718 C 29.819 88.342,30.000 89.017,30.001 89.218 C 30.002 89.419,30.105 89.781,30.231 90.023 C 30.553 90.639,30.956 91.950,31.090 92.812 C 31.152 93.212,31.382 93.946,31.601 94.441 C 31.821 94.937,32.000 95.492,32.000 95.675 C 32.000 95.857,32.192 96.549,32.426 97.211 C 32.660 97.874,32.929 98.827,33.024 99.328 C 33.119 99.829,33.345 100.530,33.526 100.885 C 33.707 101.239,33.936 101.988,34.034 102.547 C 34.133 103.107,34.380 103.944,34.584 104.407 C 34.787 104.871,35.007 105.613,35.073 106.057 C 35.138 106.501,35.342 107.213,35.525 107.640 C 35.709 108.067,35.932 108.809,36.020 109.288 C 36.109 109.767,36.331 110.495,36.512 110.905 C 36.693 111.315,36.918 112.065,37.012 112.572 C 37.106 113.079,37.355 113.889,37.567 114.372 C 37.778 114.855,37.995 115.625,38.049 116.083 C 38.104 116.542,38.305 117.238,38.497 117.631 C 38.690 118.024,38.922 118.753,39.015 119.252 C 39.107 119.751,39.331 120.495,39.512 120.905 C 39.693 121.315,39.922 122.083,40.019 122.611 C 40.117 123.140,40.347 123.868,40.531 124.228 C 40.715 124.589,40.928 125.325,41.004 125.865 C 41.081 126.405,41.298 127.167,41.488 127.559 C 41.678 127.951,41.912 128.697,42.008 129.216 C 42.104 129.735,42.331 130.495,42.512 130.905 C 42.693 131.315,42.922 132.083,43.019 132.611 C 43.117 133.140,43.347 133.868,43.531 134.228 C 43.715 134.589,43.928 135.325,44.004 135.865 C 44.081 136.405,44.298 137.167,44.488 137.559 C 44.678 137.951,44.912 138.697,45.008 139.216 C 45.104 139.735,45.331 140.495,45.512 140.905 C 45.693 141.315,45.922 142.083,46.019 142.611 C 46.117 143.140,46.346 143.864,46.527 144.220 C 46.709 144.576,46.931 145.328,47.020 145.892 C 47.110 146.455,47.329 147.222,47.508 147.594 C 47.687 147.967,47.912 148.697,48.008 149.216 C 48.225 150.389,48.748 151.598,49.097 151.732 C 49.849 152.021,85.960 151.836,86.294 151.542 C 86.603 151.269,86.844 150.552,87.091 149.167 C 87.148 148.846,87.367 148.133,87.578 147.583 C 87.788 147.033,88.011 146.176,88.073 145.678 C 88.136 145.180,88.335 144.446,88.516 144.047 C 88.698 143.648,88.923 142.894,89.016 142.369 C 89.109 141.845,89.336 140.969,89.522 140.422 C 89.707 139.875,89.933 139.012,90.023 138.505 C 90.114 137.998,90.362 137.133,90.575 136.583 C 90.787 136.033,91.011 135.176,91.073 134.678 C 91.136 134.180,91.335 133.446,91.516 133.047 C 91.698 132.648,91.923 131.894,92.016 131.369 C 92.109 130.845,92.336 129.969,92.522 129.422 C 92.707 128.875,92.933 128.012,93.023 127.505 C 93.114 126.998,93.362 126.133,93.575 125.583 C 93.787 125.033,94.009 124.195,94.068 123.720 C 94.127 123.245,94.325 122.518,94.508 122.103 C 94.692 121.689,94.920 120.915,95.016 120.383 C 95.112 119.852,95.364 118.929,95.575 118.333 C 95.787 117.737,96.016 116.841,96.084 116.341 C 96.152 115.841,96.353 115.153,96.531 114.811 C 96.709 114.469,96.926 113.678,97.013 113.053 C 97.099 112.428,97.322 111.559,97.508 111.121 C 97.694 110.683,97.924 109.896,98.018 109.371 C 98.113 108.846,98.364 107.929,98.575 107.333 C 98.787 106.737,99.014 105.837,99.079 105.333 C 99.145 104.829,99.312 104.239,99.450 104.021 C 99.797 103.475,99.805 102.199,99.466 101.534 C 99.311 101.232,99.137 100.632,99.080 100.201 C 99.022 99.770,98.764 98.742,98.506 97.917 C 97.984 96.241,97.381 94.003,96.826 91.674 C 96.729 91.265,96.543 90.703,96.414 90.424 C 96.285 90.145,96.107 89.467,96.020 88.917 C 95.933 88.367,95.711 87.567,95.527 87.140 C 95.342 86.713,95.137 86.001,95.071 85.557 C 95.004 85.113,94.736 84.090,94.475 83.284 C 94.214 82.478,94.000 81.683,94.000 81.519 C 94.000 81.355,93.775 80.571,93.500 79.777 C 93.225 78.983,92.999 78.090,92.998 77.792 C 92.997 77.494,92.812 76.854,92.587 76.369 C 92.361 75.885,92.128 75.097,92.069 74.619 C 92.009 74.141,91.786 73.300,91.572 72.750 C 91.358 72.200,91.109 71.284,91.018 70.714 C 90.928 70.143,90.697 69.322,90.505 68.888 C 90.313 68.455,90.090 67.635,90.009 67.066 C 89.929 66.497,89.708 65.682,89.519 65.254 C 89.330 64.826,89.126 64.088,89.066 63.613 C 89.006 63.138,88.780 62.309,88.565 61.770 C 88.349 61.231,88.125 60.406,88.067 59.937 C 88.008 59.467,87.783 58.630,87.566 58.076 C 87.349 57.521,87.098 56.696,87.009 56.242 C 86.807 55.218,86.589 54.477,86.365 54.060 C 86.271 53.884,86.122 53.216,86.033 52.575 C 85.944 51.935,85.715 51.074,85.524 50.664 C 85.334 50.253,85.108 49.504,85.023 49.000 C 84.867 48.072,84.067 45.695,83.704 45.083 C 83.455 44.664,83.217 44.952,83.083 45.833 C 83.034 46.154,82.838 46.942,82.649 47.583 C 82.459 48.225,82.205 49.350,82.084 50.083 C 81.963 50.817,81.714 51.794,81.532 52.256 C 81.349 52.718,81.147 53.543,81.082 54.089 C 81.018 54.636,80.789 55.617,80.575 56.269 C 80.360 56.921,80.132 57.859,80.068 58.353 C 80.004 58.846,79.774 59.799,79.557 60.471 C 79.340 61.142,79.087 62.217,78.996 62.860 C 78.905 63.502,78.686 64.378,78.509 64.806 C 78.332 65.233,78.110 66.203,78.014 66.960 C 77.918 67.717,77.696 68.655,77.519 69.044 C 77.343 69.432,77.148 70.200,77.087 70.750 C 77.025 71.300,76.796 72.313,76.579 73.000 C 76.362 73.688,76.138 74.625,76.081 75.083 C 76.024 75.542,75.802 76.479,75.588 77.167 C 75.373 77.854,75.110 78.941,75.004 79.583 C 74.897 80.224,74.665 81.177,74.488 81.702 C 74.312 82.226,74.091 83.193,73.997 83.851 C 73.904 84.509,73.685 85.371,73.510 85.766 C 73.336 86.160,73.144 86.918,73.086 87.450 C 73.027 87.982,72.802 88.979,72.585 89.667 C 72.369 90.354,72.112 91.455,72.013 92.113 C 71.725 94.037,71.621 94.220,71.009 93.871 C 70.422 93.534,70.233 93.126,70.014 91.714 C 69.926 91.143,69.695 90.318,69.501 89.880 C 69.307 89.442,69.086 88.591,69.010 87.990 C 68.934 87.389,68.723 86.601,68.539 86.240 C 68.356 85.879,68.151 85.171,68.083 84.667 C 68.015 84.162,67.780 83.225,67.561 82.583 C 67.341 81.942,67.093 80.945,67.009 80.368 C 66.925 79.792,66.704 79.004,66.517 78.618 C 66.330 78.232,66.106 77.417,66.020 76.807 C 65.934 76.197,65.704 75.339,65.509 74.899 C 65.315 74.460,65.090 73.635,65.009 73.066 C 64.929 72.497,64.715 71.696,64.533 71.286 C 64.352 70.877,64.149 70.146,64.083 69.664 C 64.017 69.182,63.746 68.119,63.481 67.302 C 63.217 66.486,63.000 65.647,63.000 65.439 C 63.000 65.026,62.534 63.521,62.320 63.246 C 62.248 63.152,62.135 62.664,62.069 62.163 C 62.004 61.661,61.805 60.837,61.627 60.333 C 61.449 59.829,61.231 59.042,61.143 58.583 C 61.055 58.125,60.830 57.300,60.643 56.750 C 60.456 56.200,60.210 55.262,60.096 54.667 C 59.982 54.071,59.733 53.168,59.543 52.660 C 59.353 52.152,59.147 51.365,59.085 50.910 C 58.965 50.021,58.537 48.522,58.327 48.250 C 58.256 48.158,58.145 47.708,58.081 47.250 C 58.017 46.792,57.788 45.892,57.573 45.250 C 57.357 44.608,57.059 43.486,56.910 42.756 C 56.761 42.026,56.536 41.232,56.412 40.991 C 56.287 40.749,56.134 40.147,56.071 39.651 C 56.008 39.155,55.783 38.316,55.571 37.786 C 55.359 37.256,55.136 36.468,55.075 36.036 C 54.956 35.191,54.564 33.751,54.335 33.316 C 54.258 33.169,54.144 32.682,54.083 32.233 C 54.022 31.784,53.796 30.929,53.582 30.333 C 53.367 29.738,53.142 29.006,53.082 28.709 C 52.858 27.594,54.306 27.667,32.391 27.667 C 13.954 27.667,12.504 27.687,12.242 27.949 M85.995 27.970 C 85.571 28.314,85.795 29.851,86.584 31.999 C 86.736 32.411,86.934 33.161,87.025 33.666 C 87.116 34.170,87.373 35.094,87.595 35.718 C 87.818 36.342,88.000 36.998,88.000 37.175 C 88.000 37.351,88.217 38.191,88.483 39.040 C 88.748 39.889,89.006 40.866,89.056 41.212 C 89.106 41.558,89.331 42.308,89.555 42.879 C 89.779 43.450,90.013 44.292,90.074 44.750 C 90.135 45.208,90.296 45.825,90.431 46.120 C 90.566 46.414,90.819 47.314,90.992 48.120 C 91.164 48.925,91.451 49.921,91.627 50.333 C 91.804 50.746,92.000 51.474,92.063 51.951 C 92.125 52.429,92.353 53.291,92.569 53.868 C 92.785 54.445,93.016 55.329,93.083 55.833 C 93.149 56.337,93.260 56.825,93.328 56.917 C 93.547 57.210,94.000 58.711,94.004 59.155 C 94.005 59.390,94.200 60.108,94.436 60.750 C 94.672 61.392,94.964 62.442,95.086 63.083 C 95.208 63.725,95.455 64.587,95.634 65.000 C 95.814 65.412,96.011 66.149,96.071 66.637 C 96.132 67.124,96.365 67.940,96.591 68.449 C 96.816 68.958,97.000 69.610,97.000 69.897 C 97.000 70.184,97.213 71.021,97.473 71.757 C 97.733 72.492,97.999 73.429,98.064 73.839 C 98.129 74.248,98.358 75.071,98.571 75.667 C 98.785 76.262,99.016 77.162,99.084 77.667 C 99.153 78.171,99.374 78.958,99.576 79.417 C 99.779 79.875,99.989 80.625,100.044 81.083 C 100.099 81.542,100.304 82.275,100.499 82.714 C 100.694 83.152,100.927 83.977,101.017 84.547 C 101.107 85.117,101.334 85.996,101.520 86.500 C 101.707 87.004,101.933 87.829,102.022 88.333 C 102.112 88.837,102.361 89.737,102.577 90.333 C 102.792 90.929,103.010 91.754,103.061 92.167 C 103.111 92.579,103.303 93.226,103.486 93.603 C 103.670 93.981,103.902 94.806,104.002 95.436 C 104.102 96.067,104.368 97.094,104.592 97.718 C 104.816 98.342,105.000 99.000,105.000 99.180 C 105.000 99.359,105.197 100.049,105.437 100.711 C 105.677 101.374,105.936 102.367,106.012 102.917 C 106.088 103.467,106.309 104.243,106.503 104.642 C 106.698 105.040,106.929 105.828,107.016 106.392 C 107.104 106.955,107.331 107.785,107.521 108.236 C 107.711 108.686,107.931 109.515,108.011 110.077 C 108.091 110.640,108.313 111.455,108.505 111.888 C 108.697 112.322,108.926 113.143,109.015 113.714 C 109.104 114.284,109.352 115.200,109.566 115.750 C 109.780 116.300,110.004 117.138,110.065 117.613 C 110.126 118.088,110.330 118.827,110.519 119.254 C 110.708 119.682,110.925 120.473,111.002 121.011 C 111.078 121.550,111.325 122.461,111.551 123.037 C 111.778 123.612,112.014 124.445,112.077 124.887 C 112.139 125.329,112.363 126.154,112.573 126.720 C 112.783 127.287,113.007 128.155,113.070 128.649 C 113.133 129.144,113.338 129.849,113.525 130.216 C 113.712 130.583,113.933 131.360,114.016 131.943 C 114.098 132.526,114.236 133.134,114.323 133.293 C 114.557 133.727,115.000 135.184,115.000 135.522 C 115.000 135.685,115.214 136.478,115.475 137.284 C 115.736 138.090,116.004 139.113,116.071 139.557 C 116.137 140.001,116.343 140.713,116.528 141.140 C 116.713 141.567,116.934 142.398,117.019 142.987 C 117.104 143.576,117.237 144.138,117.315 144.237 C 117.506 144.481,117.948 145.932,118.079 146.750 C 118.138 147.117,118.339 147.875,118.524 148.435 C 118.710 148.995,118.950 149.893,119.056 150.431 C 119.358 151.952,117.564 151.828,139.355 151.831 C 161.709 151.834,159.304 152.101,158.523 149.703 C 158.233 148.812,157.996 147.889,157.998 147.652 C 157.999 147.414,157.775 146.571,157.500 145.777 C 157.225 144.983,157.000 144.135,157.000 143.893 C 157.000 143.650,156.775 142.749,156.500 141.890 C 156.225 141.032,156.000 140.099,156.000 139.818 C 156.000 139.537,155.816 138.844,155.592 138.278 C 155.367 137.713,155.133 136.837,155.072 136.333 C 155.011 135.829,154.786 134.967,154.572 134.417 C 154.358 133.867,154.131 133.004,154.067 132.500 C 154.003 131.996,153.805 131.171,153.626 130.667 C 153.448 130.162,153.198 129.188,153.070 128.500 C 152.942 127.813,152.691 126.837,152.511 126.333 C 152.331 125.829,152.111 124.967,152.023 124.417 C 151.935 123.867,151.714 123.039,151.531 122.577 C 151.349 122.115,151.146 121.290,151.081 120.744 C 151.016 120.197,150.788 119.300,150.573 118.750 C 150.359 118.200,150.131 117.337,150.066 116.833 C 150.002 116.329,149.736 115.298,149.475 114.542 C 149.214 113.786,149.000 112.955,149.000 112.695 C 149.000 112.435,148.775 111.522,148.500 110.667 C 148.225 109.811,148.000 108.903,148.000 108.649 C 148.000 108.395,147.816 107.676,147.592 107.052 C 147.368 106.427,147.110 105.467,147.019 104.917 C 146.929 104.367,146.662 103.374,146.427 102.711 C 146.192 102.049,146.000 101.241,146.000 100.916 C 146.000 100.592,145.811 99.862,145.581 99.295 C 145.350 98.727,145.116 97.847,145.060 97.340 C 145.005 96.832,144.790 95.967,144.584 95.417 C 144.377 94.867,144.083 93.751,143.931 92.938 C 143.779 92.124,143.553 91.262,143.430 91.021 C 143.307 90.780,143.150 90.171,143.082 89.667 C 143.014 89.162,142.784 88.225,142.570 87.583 C 142.356 86.942,142.110 85.967,142.023 85.417 C 141.935 84.867,141.707 84.021,141.516 83.538 C 141.325 83.055,141.122 82.230,141.064 81.705 C 141.007 81.180,140.784 80.300,140.568 79.750 C 140.353 79.200,140.107 78.262,140.022 77.667 C 139.937 77.071,139.712 76.178,139.523 75.683 C 139.334 75.188,139.133 74.438,139.076 74.016 C 138.969 73.220,138.590 71.828,138.322 71.250 C 138.237 71.067,138.100 70.429,138.017 69.833 C 137.934 69.237,137.715 68.371,137.531 67.907 C 137.347 67.443,137.145 66.693,137.082 66.240 C 136.963 65.378,136.689 64.375,136.266 63.250 C 136.128 62.883,136.011 62.341,136.007 62.044 C 136.003 61.748,135.775 60.828,135.500 60.000 C 135.225 59.172,135.000 58.276,135.000 58.007 C 135.000 57.739,134.820 57.009,134.599 56.385 C 134.379 55.761,134.074 54.618,133.921 53.845 C 133.769 53.073,133.546 52.248,133.425 52.012 C 133.304 51.776,133.150 51.173,133.082 50.671 C 133.014 50.170,132.812 49.345,132.632 48.838 C 132.452 48.331,132.206 47.354,132.084 46.667 C 131.962 45.979,131.735 45.079,131.580 44.667 C 131.424 44.254,131.222 43.467,131.130 42.917 C 131.038 42.367,130.787 41.415,130.572 40.801 C 130.357 40.187,130.130 39.287,130.067 38.801 C 130.005 38.315,129.782 37.429,129.572 36.833 C 129.362 36.237,129.143 35.450,129.086 35.083 C 128.956 34.245,128.528 32.672,128.331 32.306 C 128.249 32.154,128.134 31.629,128.075 31.140 C 127.937 29.995,127.406 28.520,126.959 28.042 L 126.609 27.667 106.489 27.667 C 87.277 27.667,86.353 27.680,85.995 27.970 M159.887 27.783 C 159.357 27.886,159.204 28.147,159.024 29.256 C 158.936 29.803,158.737 30.587,158.582 31.000 C 158.428 31.412,158.203 32.313,158.082 33.000 C 157.962 33.688,157.737 34.587,157.582 35.000 C 157.428 35.412,157.203 36.313,157.082 37.000 C 156.962 37.688,156.737 38.587,156.582 39.000 C 156.428 39.412,156.203 40.313,156.083 41.000 C 155.963 41.688,155.710 42.657,155.521 43.154 C 155.331 43.651,155.127 44.514,155.066 45.071 C 155.006 45.628,154.785 46.544,154.576 47.107 C 154.366 47.670,154.142 48.570,154.077 49.107 C 154.011 49.644,153.786 50.544,153.577 51.107 C 153.367 51.670,153.142 52.570,153.077 53.107 C 153.011 53.644,152.786 54.544,152.577 55.107 C 152.367 55.670,152.142 56.570,152.077 57.107 C 152.011 57.644,151.786 58.544,151.577 59.107 C 151.367 59.670,151.142 60.570,151.077 61.107 C 151.011 61.644,150.786 62.544,150.577 63.107 C 150.367 63.670,150.142 64.570,150.077 65.107 C 150.011 65.644,149.786 66.544,149.577 67.107 C 149.367 67.670,149.141 68.570,149.075 69.107 C 149.009 69.644,148.781 70.608,148.568 71.250 C 148.356 71.892,148.110 72.867,148.023 73.417 C 147.935 73.967,147.711 74.867,147.524 75.417 C 147.012 76.925,146.634 79.393,146.835 79.920 C 146.926 80.159,147.000 80.571,147.000 80.835 C 147.000 81.099,147.217 81.975,147.481 82.782 C 147.746 83.589,148.004 84.638,148.055 85.112 C 148.106 85.587,148.222 86.112,148.312 86.279 C 148.557 86.734,148.950 88.148,149.072 89.016 C 149.131 89.438,149.334 90.188,149.523 90.683 C 149.712 91.178,149.936 92.067,150.021 92.657 C 150.105 93.248,150.350 94.223,150.564 94.824 C 150.779 95.425,151.006 96.320,151.069 96.812 C 151.132 97.305,151.331 98.092,151.511 98.562 C 151.691 99.032,151.920 99.942,152.021 100.583 C 152.121 101.225,152.348 102.125,152.526 102.583 C 152.704 103.042,152.952 103.979,153.077 104.667 C 153.203 105.354,153.450 106.329,153.628 106.833 C 153.805 107.337,154.003 108.155,154.068 108.651 C 154.132 109.147,154.291 109.756,154.420 110.006 C 154.548 110.255,154.775 111.124,154.924 111.938 C 155.072 112.751,155.297 113.657,155.423 113.950 C 155.550 114.243,155.775 115.105,155.924 115.866 C 156.073 116.627,156.346 117.662,156.530 118.167 C 156.714 118.671,156.935 119.567,157.020 120.157 C 157.105 120.748,157.360 121.746,157.587 122.376 C 157.814 123.005,158.003 123.759,158.006 124.052 C 158.009 124.344,158.233 125.221,158.505 126.000 C 158.776 126.779,159.002 127.679,159.006 128.000 C 159.011 128.321,159.128 128.883,159.267 129.250 C 159.608 130.151,159.941 131.393,160.138 132.500 C 160.228 133.004,160.428 133.754,160.583 134.167 C 160.739 134.579,160.935 135.398,161.019 135.987 C 161.104 136.576,161.234 137.138,161.307 137.237 C 161.510 137.509,161.972 139.311,162.076 140.233 C 162.126 140.682,162.229 141.132,162.306 141.233 C 162.382 141.334,162.616 142.017,162.827 142.750 C 163.402 144.757,163.778 144.908,164.070 143.250 C 164.135 142.883,164.362 142.133,164.575 141.583 C 164.788 141.033,165.013 140.226,165.075 139.789 C 165.137 139.352,165.335 138.662,165.515 138.255 C 165.695 137.849,165.920 137.082,166.015 136.550 C 166.111 136.018,166.363 135.133,166.576 134.583 C 166.788 134.033,167.013 133.226,167.075 132.789 C 167.137 132.352,167.335 131.662,167.515 131.255 C 167.695 130.849,167.920 130.082,168.015 129.550 C 168.111 129.018,168.363 128.133,168.576 127.583 C 168.788 127.033,169.013 126.225,169.075 125.788 C 169.137 125.351,169.361 124.601,169.573 124.121 C 169.785 123.642,170.014 122.841,170.083 122.341 C 170.151 121.841,170.352 121.155,170.529 120.815 C 170.706 120.476,170.928 119.698,171.024 119.086 C 171.119 118.474,171.368 117.585,171.577 117.112 C 171.787 116.638,172.014 115.841,172.083 115.341 C 172.151 114.841,172.352 114.155,172.529 113.815 C 172.706 113.476,172.928 112.698,173.024 112.086 C 173.119 111.474,173.368 110.585,173.577 110.112 C 173.787 109.638,174.014 108.841,174.083 108.341 C 174.151 107.841,174.352 107.155,174.529 106.815 C 174.706 106.476,174.928 105.698,175.024 105.086 C 175.119 104.474,175.367 103.585,175.575 103.112 C 175.784 102.638,176.007 101.875,176.072 101.417 C 176.136 100.958,176.338 100.270,176.521 99.887 C 176.703 99.503,176.929 98.691,177.024 98.082 C 177.119 97.472,177.367 96.585,177.575 96.112 C 177.784 95.638,178.007 94.875,178.072 94.417 C 178.136 93.958,178.338 93.270,178.521 92.887 C 178.703 92.503,178.929 91.691,179.024 91.082 C 179.119 90.472,179.367 89.585,179.575 89.112 C 179.784 88.638,180.007 87.875,180.072 87.417 C 180.136 86.958,180.337 86.272,180.518 85.892 C 180.698 85.512,180.921 84.738,181.012 84.172 C 181.103 83.605,181.357 82.679,181.576 82.113 C 181.794 81.547,182.021 80.783,182.080 80.417 C 182.140 80.050,182.371 79.287,182.594 78.722 C 182.817 78.156,183.002 77.481,183.004 77.222 C 183.005 76.962,183.200 76.225,183.435 75.583 C 183.671 74.942,183.936 74.042,184.026 73.583 C 184.115 73.125,184.370 72.287,184.594 71.722 C 184.817 71.156,185.002 70.481,185.004 70.222 C 185.005 69.962,185.200 69.225,185.435 68.583 C 185.671 67.942,185.935 67.042,186.022 66.583 C 186.109 66.125,186.333 65.386,186.519 64.941 C 186.705 64.496,186.930 63.680,187.019 63.127 C 187.108 62.575,187.356 61.701,187.570 61.186 C 187.784 60.671,188.010 59.892,188.073 59.455 C 188.136 59.018,188.333 58.334,188.510 57.934 C 188.687 57.534,188.940 56.640,189.072 55.948 C 189.205 55.256,189.433 54.458,189.580 54.174 C 189.726 53.890,189.923 53.229,190.017 52.704 C 190.112 52.179,190.363 51.300,190.576 50.750 C 190.788 50.200,191.016 49.375,191.081 48.917 C 191.146 48.458,191.369 47.671,191.578 47.167 C 191.787 46.663,192.010 45.950,192.074 45.583 C 192.137 45.217,192.362 44.429,192.572 43.833 C 192.783 43.237,193.008 42.455,193.074 42.095 C 193.139 41.735,193.412 40.787,193.680 39.987 C 193.948 39.188,194.167 38.395,194.167 38.225 C 194.167 38.056,194.319 37.516,194.505 37.027 C 194.691 36.538,194.925 35.750,195.025 35.277 C 195.125 34.804,195.423 33.768,195.687 32.975 C 195.951 32.183,196.167 31.407,196.167 31.252 C 196.167 31.096,196.364 30.415,196.604 29.737 C 197.018 28.570,197.027 28.483,196.767 28.086 L 196.492 27.667 178.371 27.689 C 168.405 27.702,160.087 27.744,159.887 27.783 M257.075 28.072 C 256.778 28.525,256.883 28.850,257.608 29.721 C 257.824 29.980,258.000 30.270,258.000 30.366 C 258.000 30.461,258.206 30.782,258.458 31.078 C 258.710 31.375,259.067 31.866,259.250 32.170 C 259.884 33.222,260.251 33.793,260.548 34.187 C 261.155 34.994,261.665 35.762,261.865 36.167 C 261.978 36.396,262.261 36.816,262.493 37.100 C 262.726 37.385,263.067 37.866,263.250 38.170 C 263.884 39.222,264.251 39.793,264.548 40.187 C 265.120 40.948,265.656 41.755,265.981 42.344 C 266.161 42.671,266.431 43.040,266.581 43.165 C 266.730 43.289,266.961 43.621,267.094 43.903 C 267.322 44.387,267.772 45.075,268.452 45.979 C 268.749 46.374,269.116 46.944,269.750 47.996 C 269.933 48.300,270.274 48.782,270.507 49.066 C 270.739 49.351,271.022 49.771,271.135 50.000 C 271.335 50.405,271.845 51.172,272.452 51.979 C 272.749 52.374,273.116 52.944,273.750 53.996 C 273.933 54.300,274.274 54.782,274.507 55.066 C 274.739 55.351,275.022 55.771,275.135 56.000 C 275.335 56.405,275.845 57.172,276.452 57.979 C 276.749 58.374,277.116 58.944,277.750 59.996 C 277.933 60.300,278.274 60.782,278.507 61.066 C 278.739 61.351,279.022 61.771,279.135 62.000 C 279.335 62.405,279.845 63.172,280.452 63.979 C 280.749 64.374,281.116 64.944,281.750 65.996 C 281.933 66.300,282.274 66.782,282.507 67.066 C 282.739 67.351,283.022 67.771,283.135 68.000 C 283.335 68.405,283.845 69.172,284.452 69.979 C 284.744 70.367,285.083 70.893,285.750 71.993 C 285.933 72.295,286.266 72.766,286.488 73.039 C 286.711 73.312,287.011 73.741,287.155 73.992 C 287.760 75.045,288.107 75.578,288.507 76.066 C 288.739 76.351,289.022 76.771,289.135 77.000 C 289.335 77.405,289.845 78.172,290.452 78.979 C 290.749 79.374,291.116 79.944,291.750 80.996 C 291.933 81.300,292.279 81.782,292.519 82.066 C 292.759 82.351,293.008 82.752,293.072 82.958 C 293.136 83.165,293.247 83.333,293.318 83.333 C 293.389 83.333,293.643 83.694,293.883 84.134 C 294.123 84.575,294.472 85.074,294.659 85.243 C 294.847 85.413,295.000 85.641,295.000 85.750 C 295.000 85.860,295.157 86.129,295.350 86.349 C 295.542 86.570,295.834 87.013,295.999 87.333 C 296.163 87.654,296.456 88.060,296.649 88.234 C 296.842 88.409,297.000 88.641,297.000 88.750 C 297.000 88.860,297.157 89.129,297.350 89.349 C 297.542 89.570,297.834 90.013,297.999 90.333 C 298.163 90.654,298.456 91.060,298.649 91.234 C 298.842 91.409,299.000 91.641,299.000 91.750 C 299.000 91.860,299.157 92.129,299.350 92.349 C 299.542 92.570,299.834 93.013,299.999 93.333 C 300.163 93.654,300.456 94.060,300.649 94.234 C 300.842 94.409,301.000 94.641,301.000 94.750 C 301.000 94.860,301.157 95.129,301.350 95.349 C 301.542 95.570,301.834 96.013,301.999 96.333 C 302.163 96.654,302.456 97.060,302.649 97.234 C 302.842 97.409,303.000 97.641,303.000 97.750 C 303.000 97.860,303.157 98.129,303.350 98.349 C 303.542 98.570,303.834 99.013,303.999 99.333 C 304.163 99.654,304.456 100.060,304.649 100.234 C 304.842 100.409,305.000 100.641,305.000 100.750 C 305.000 100.860,305.157 101.129,305.350 101.349 C 305.542 101.570,305.834 102.013,305.999 102.333 C 306.163 102.654,306.456 103.060,306.649 103.234 C 306.842 103.409,307.000 103.642,307.000 103.753 C 307.000 103.864,307.224 104.209,307.497 104.519 C 307.771 104.829,307.996 105.172,307.997 105.281 C 307.999 105.390,308.225 105.726,308.500 106.027 C 308.775 106.328,309.000 106.660,309.000 106.765 C 309.000 106.869,309.224 107.209,309.497 107.519 C 309.771 107.829,309.996 108.172,309.997 108.281 C 309.999 108.390,310.225 108.726,310.500 109.027 C 310.775 109.328,311.000 109.660,311.000 109.765 C 311.000 109.869,311.224 110.209,311.497 110.519 C 311.771 110.829,311.996 111.172,311.997 111.281 C 311.999 111.390,312.225 111.726,312.500 112.027 C 312.775 112.328,313.000 112.660,313.000 112.765 C 313.000 112.869,313.224 113.209,313.497 113.519 C 313.771 113.829,313.996 114.172,313.997 114.281 C 313.999 114.390,314.225 114.726,314.500 115.027 C 314.775 115.328,315.000 115.660,315.000 115.765 C 315.000 115.869,315.224 116.209,315.497 116.519 C 315.771 116.829,315.996 117.172,315.997 117.281 C 315.999 117.390,316.225 117.726,316.500 118.027 C 316.775 118.328,317.000 118.660,317.000 118.765 C 317.000 118.869,317.224 119.209,317.497 119.519 C 317.771 119.829,317.996 120.172,317.997 120.281 C 317.999 120.390,318.225 120.726,318.500 121.027 C 318.775 121.328,319.000 121.660,319.000 121.765 C 319.000 121.869,319.224 122.209,319.497 122.519 C 319.771 122.829,319.996 123.172,319.997 123.281 C 319.999 123.390,320.225 123.726,320.500 124.027 C 320.775 124.328,321.000 124.641,321.000 124.721 C 321.000 124.802,321.225 125.153,321.500 125.500 C 321.775 125.847,322.000 126.196,322.000 126.274 C 322.001 126.352,322.225 126.679,322.500 127.000 C 322.775 127.321,322.999 127.648,323.000 127.726 C 323.000 127.804,323.225 128.153,323.500 128.500 C 323.775 128.847,324.000 129.196,324.000 129.274 C 324.001 129.352,324.225 129.679,324.500 130.000 C 324.775 130.321,324.999 130.648,325.000 130.726 C 325.000 130.804,325.225 131.153,325.500 131.500 C 325.775 131.847,326.000 132.196,326.000 132.274 C 326.001 132.352,326.225 132.679,326.500 133.000 C 326.775 133.321,326.999 133.648,327.000 133.726 C 327.000 133.804,327.225 134.153,327.500 134.500 C 327.775 134.847,328.000 135.196,328.000 135.274 C 328.001 135.352,328.225 135.679,328.500 136.000 C 328.775 136.321,328.999 136.648,329.000 136.726 C 329.000 136.804,329.225 137.153,329.500 137.500 C 329.775 137.847,330.000 138.196,330.000 138.274 C 330.001 138.352,330.225 138.679,330.500 139.000 C 330.775 139.321,330.999 139.648,331.000 139.726 C 331.000 139.804,331.225 140.153,331.500 140.500 C 331.775 140.847,332.000 141.196,332.000 141.274 C 332.001 141.352,332.225 141.679,332.500 142.000 C 332.775 142.321,332.999 142.648,333.000 142.726 C 333.000 142.804,333.225 143.153,333.500 143.500 C 333.775 143.847,334.000 144.200,334.000 144.284 C 334.000 144.368,334.136 144.583,334.303 144.762 C 334.555 145.033,335.268 146.074,336.078 147.355 C 336.173 147.504,336.644 148.209,337.125 148.920 C 337.606 149.631,338.000 150.246,338.000 150.287 C 338.000 150.327,338.272 150.692,338.603 151.097 L 339.207 151.833 361.416 151.833 C 385.879 151.833,384.562 151.890,383.644 150.869 C 383.097 150.259,382.000 148.602,382.000 148.383 C 382.000 148.287,381.887 148.113,381.748 147.999 C 381.424 147.730,380.000 145.591,380.000 145.373 C 380.000 145.282,379.887 145.113,379.748 144.999 C 379.424 144.730,378.000 142.591,378.000 142.373 C 378.000 142.282,377.887 142.113,377.748 141.999 C 377.424 141.730,376.000 139.591,376.000 139.373 C 376.000 139.282,375.887 139.113,375.748 138.999 C 375.424 138.730,374.000 136.591,374.000 136.373 C 374.000 136.282,373.887 136.113,373.748 135.999 C 373.424 135.730,372.000 133.591,372.000 133.373 C 372.000 133.282,371.887 133.113,371.748 132.999 C 371.424 132.730,370.000 130.591,370.000 130.373 C 370.000 130.282,369.887 130.113,369.748 129.999 C 369.424 129.730,368.000 127.591,368.000 127.373 C 368.000 127.282,367.887 127.113,367.748 126.999 C 367.610 126.884,367.174 126.293,366.779 125.687 C 366.384 125.080,365.937 124.396,365.784 124.167 C 365.632 123.938,365.136 123.188,364.682 122.500 C 364.228 121.813,363.664 121.041,363.428 120.785 C 363.193 120.529,362.997 120.229,362.993 120.118 C 362.990 120.007,362.765 119.657,362.493 119.340 C 362.222 119.022,362.000 118.695,362.000 118.612 C 362.000 118.529,361.775 118.204,361.500 117.891 C 361.225 117.578,360.997 117.231,360.993 117.119 C 360.990 117.008,360.765 116.657,360.493 116.340 C 360.222 116.022,360.000 115.695,360.000 115.612 C 360.000 115.529,359.775 115.204,359.500 114.891 C 359.225 114.578,358.997 114.231,358.993 114.119 C 358.990 114.008,358.765 113.657,358.493 113.340 C 358.222 113.022,358.000 112.675,358.000 112.568 C 358.000 112.462,357.881 112.276,357.736 112.155 C 357.591 112.035,357.018 111.238,356.462 110.385 C 355.906 109.532,355.393 108.833,355.320 108.833 C 355.248 108.833,355.137 108.668,355.072 108.466 C 354.934 108.029,353.732 106.209,353.302 105.785 C 353.136 105.621,353.000 105.411,353.000 105.317 C 353.000 105.139,351.599 103.075,351.221 102.697 C 351.099 102.575,351.000 102.411,351.000 102.332 C 351.000 102.167,349.570 100.046,349.228 99.704 C 349.102 99.579,349.000 99.411,349.000 99.332 C 349.000 99.167,347.570 97.046,347.228 96.704 C 347.102 96.579,347.000 96.411,347.000 96.332 C 347.000 96.167,345.570 94.046,345.228 93.704 C 345.102 93.579,345.000 93.411,345.000 93.332 C 345.000 93.167,343.570 91.046,343.228 90.704 C 343.102 90.579,343.000 90.411,343.000 90.332 C 343.000 90.167,341.570 88.046,341.228 87.704 C 341.102 87.579,341.000 87.411,341.000 87.332 C 341.000 87.167,339.570 85.046,339.228 84.704 C 339.102 84.579,339.000 84.399,339.000 84.304 C 339.000 84.209,338.775 83.847,338.500 83.500 C 338.225 83.153,338.000 82.797,338.000 82.710 C 338.000 82.623,337.840 82.409,337.644 82.234 C 337.448 82.060,337.203 81.729,337.100 81.500 C 336.877 81.008,335.907 79.620,335.375 79.032 C 335.169 78.804,335.000 78.528,335.000 78.418 C 335.000 78.308,334.844 78.077,334.653 77.904 C 334.462 77.731,334.209 77.359,334.092 77.077 C 333.974 76.795,333.680 76.352,333.439 76.091 C 333.197 75.831,333.000 75.528,333.000 75.418 C 333.000 75.308,332.844 75.077,332.653 74.904 C 332.462 74.731,332.209 74.359,332.092 74.077 C 331.974 73.795,331.680 73.352,331.439 73.091 C 331.197 72.831,331.000 72.528,331.000 72.418 C 331.000 72.308,330.844 72.077,330.653 71.904 C 330.462 71.731,330.206 71.351,330.084 71.060 C 329.962 70.768,329.725 70.390,329.556 70.220 C 329.388 70.049,327.753 67.661,325.923 64.913 C 324.093 62.165,322.536 59.842,322.462 59.750 C 322.389 59.658,321.940 58.983,321.465 58.250 C 320.989 57.517,320.539 56.842,320.465 56.750 C 320.390 56.658,319.940 55.983,319.465 55.250 C 318.989 54.517,318.539 53.842,318.465 53.750 C 318.390 53.658,317.940 52.983,317.465 52.250 C 316.989 51.517,316.539 50.842,316.465 50.750 C 316.390 50.658,315.940 49.983,315.465 49.250 C 314.989 48.517,314.539 47.842,314.465 47.750 C 314.390 47.658,313.940 46.983,313.465 46.250 C 312.989 45.517,312.539 44.842,312.465 44.750 C 312.390 44.658,311.942 43.983,311.469 43.250 C 310.996 42.517,310.563 41.879,310.505 41.833 C 310.448 41.787,310.195 41.394,309.943 40.958 C 309.692 40.523,309.422 40.167,309.344 40.167 C 309.267 40.167,309.160 39.996,309.108 39.788 C 309.056 39.580,308.849 39.235,308.650 39.020 C 308.450 38.806,306.773 36.358,304.924 33.580 C 303.075 30.803,301.331 28.336,301.049 28.099 L 300.535 27.667 278.938 27.667 L 257.341 27.667 257.075 28.072 M338.045 28.042 C 337.752 28.248,337.378 28.679,337.214 29.000 C 337.051 29.320,336.530 30.159,336.057 30.863 C 335.584 31.567,335.143 32.311,335.078 32.518 C 335.012 32.725,334.743 33.191,334.479 33.555 C 334.216 33.919,334.000 34.279,334.000 34.355 C 334.000 34.431,333.606 35.075,333.125 35.785 C 332.644 36.496,332.092 37.378,331.899 37.747 C 331.096 39.278,330.858 39.673,330.439 40.170 C 330.198 40.457,329.998 40.780,329.995 40.888 C 329.993 40.995,329.768 41.378,329.495 41.738 C 329.223 42.098,329.000 42.466,329.000 42.556 C 329.000 42.645,328.819 42.955,328.599 43.245 C 328.378 43.534,328.082 44.048,327.940 44.386 C 327.799 44.724,327.604 45.000,327.506 45.000 C 327.409 45.000,327.141 45.394,326.912 45.875 C 326.436 46.873,325.860 47.837,325.476 48.280 C 325.332 48.447,325.126 48.846,325.019 49.167 C 324.912 49.487,324.672 49.866,324.486 50.008 C 323.726 50.587,323.788 52.125,324.606 53.009 C 324.823 53.243,325.000 53.509,325.000 53.599 C 325.000 53.689,325.222 54.022,325.493 54.340 C 325.765 54.657,325.990 55.003,325.993 55.109 C 325.997 55.215,326.244 55.602,326.542 55.969 C 327.586 57.256,327.918 57.708,328.080 58.061 C 328.170 58.256,328.346 58.522,328.470 58.652 C 328.594 58.781,328.874 59.168,329.091 59.513 C 329.309 59.857,329.566 60.188,329.662 60.247 C 329.759 60.307,329.950 60.595,330.087 60.886 C 330.321 61.385,330.765 62.066,331.452 62.979 C 331.746 63.370,332.099 63.918,332.750 64.994 C 332.933 65.297,333.290 65.763,333.542 66.028 C 333.794 66.294,334.000 66.573,334.000 66.649 C 334.000 66.725,334.262 67.116,334.582 67.518 C 334.902 67.921,335.164 68.338,335.165 68.444 C 335.166 68.551,335.232 68.664,335.312 68.694 C 335.512 68.771,337.167 71.238,337.167 71.459 C 337.167 71.558,337.232 71.664,337.312 71.694 C 337.519 71.774,339.167 74.242,339.167 74.473 C 339.167 74.580,339.223 74.667,339.292 74.668 C 339.360 74.668,339.604 74.946,339.833 75.285 C 340.063 75.623,340.419 76.084,340.625 76.308 C 340.831 76.532,341.000 76.810,341.000 76.925 C 341.000 77.041,341.244 77.438,341.542 77.809 C 342.546 79.058,342.769 79.378,343.750 80.991 C 343.933 81.292,344.327 81.837,344.625 82.202 C 344.923 82.566,345.167 82.925,345.167 82.998 C 345.167 83.071,345.289 83.178,345.439 83.236 C 345.747 83.354,347.000 82.155,347.000 81.743 C 347.000 81.609,347.131 81.368,347.292 81.208 C 347.707 80.791,349.000 78.870,349.000 78.669 C 349.000 78.576,349.131 78.368,349.292 78.208 C 349.707 77.791,351.000 75.870,351.000 75.669 C 351.000 75.576,351.131 75.368,351.292 75.208 C 351.698 74.800,353.000 72.872,353.000 72.677 C 353.000 72.589,353.197 72.307,353.439 72.050 C 353.680 71.793,353.963 71.396,354.067 71.167 C 354.172 70.938,354.556 70.313,354.920 69.779 C 355.285 69.245,355.771 68.488,356.000 68.097 C 356.229 67.706,356.562 67.168,356.739 66.901 C 357.128 66.317,358.489 64.276,358.823 63.775 C 358.955 63.578,359.385 62.920,359.780 62.313 C 360.174 61.707,360.610 61.116,360.748 61.001 C 360.887 60.887,361.000 60.718,361.000 60.627 C 361.000 60.409,362.424 58.270,362.748 58.001 C 362.887 57.887,363.000 57.707,363.000 57.602 C 363.000 57.498,363.262 57.022,363.583 56.546 C 363.904 56.070,364.167 55.631,364.167 55.570 C 364.167 55.510,364.392 55.204,364.667 54.891 C 364.942 54.578,365.167 54.212,365.167 54.078 C 365.167 53.943,365.235 53.833,365.318 53.833 C 365.402 53.833,365.640 53.477,365.848 53.042 C 366.055 52.606,366.367 52.100,366.540 51.917 C 366.968 51.464,368.000 49.881,368.000 49.677 C 368.000 49.587,368.190 49.304,368.423 49.048 C 368.959 48.459,370.000 46.894,370.000 46.677 C 370.000 46.587,370.190 46.304,370.423 46.048 C 370.960 45.457,372.000 43.893,372.000 43.676 C 372.000 43.586,372.225 43.255,372.500 42.942 C 372.775 42.629,373.000 42.299,373.000 42.209 C 373.000 42.119,373.206 41.777,373.458 41.447 C 373.710 41.118,374.217 40.354,374.583 39.749 C 374.950 39.144,375.406 38.447,375.597 38.200 C 375.787 37.952,375.985 37.634,376.037 37.493 C 376.088 37.351,376.494 36.727,376.940 36.105 C 377.385 35.483,377.863 34.772,378.000 34.524 C 378.137 34.276,378.587 33.598,379.000 33.017 C 379.412 32.437,379.856 31.766,379.985 31.527 C 380.114 31.288,380.589 30.577,381.039 29.946 C 382.851 27.406,385.252 27.667,360.013 27.667 L 338.579 27.667 338.045 28.042 M204.919 52.936 C 204.474 54.003,204.543 151.422,204.989 151.661 C 205.585 151.980,245.584 151.893,245.905 151.571 C 246.250 151.226,246.294 54.011,245.949 53.000 L 245.750 52.417 225.461 52.374 L 205.172 52.332 204.919 52.936 M292.789 94.999 C 292.556 95.182,292.168 95.670,291.926 96.083 C 291.684 96.496,291.419 96.833,291.338 96.833 C 291.256 96.833,291.138 97.002,291.076 97.208 C 291.014 97.415,290.798 97.771,290.597 98.000 C 290.396 98.229,290.048 98.697,289.824 99.041 C 289.600 99.384,289.360 99.665,289.292 99.666 C 289.223 99.666,289.167 99.779,289.167 99.916 C 289.167 100.053,288.923 100.447,288.625 100.791 C 288.327 101.135,287.940 101.698,287.765 102.042 C 287.591 102.385,287.384 102.667,287.307 102.667 C 287.230 102.667,287.167 102.779,287.167 102.916 C 287.167 103.053,286.904 103.456,286.583 103.811 C 286.262 104.167,286.000 104.505,286.000 104.564 C 286.000 104.718,284.636 106.695,284.292 107.041 C 284.131 107.202,284.000 107.428,284.000 107.543 C 284.000 107.659,283.829 107.940,283.620 108.168 C 283.412 108.397,282.282 110.008,281.111 111.750 C 279.940 113.492,278.724 115.292,278.410 115.750 C 278.096 116.208,277.669 116.832,277.461 117.135 C 277.253 117.438,276.840 117.989,276.542 118.359 C 276.244 118.729,276.000 119.123,276.000 119.235 C 276.000 119.346,275.775 119.653,275.500 119.917 C 275.225 120.180,274.998 120.475,274.995 120.573 C 274.993 120.670,274.768 121.045,274.495 121.405 C 274.223 121.765,274.000 122.144,274.000 122.249 C 274.000 122.353,273.775 122.653,273.500 122.917 C 273.225 123.180,273.000 123.458,273.000 123.533 C 273.000 123.709,271.690 125.632,271.484 125.760 C 271.398 125.813,271.185 126.132,271.010 126.470 C 270.836 126.807,270.574 127.233,270.430 127.417 C 269.347 128.791,269.002 129.272,268.995 129.417 C 268.990 129.508,268.765 129.843,268.493 130.160 C 268.222 130.478,267.997 130.815,267.993 130.910 C 267.990 131.006,267.765 131.343,267.493 131.660 C 267.222 131.978,267.000 132.325,267.000 132.432 C 267.000 132.538,266.894 132.713,266.765 132.821 C 266.636 132.928,266.061 133.724,265.486 134.591 C 264.912 135.458,264.380 136.167,264.304 136.167 C 264.229 136.167,264.167 136.272,264.167 136.401 C 264.167 136.530,263.904 136.949,263.583 137.333 C 263.262 137.717,263.000 138.123,263.000 138.235 C 263.000 138.346,262.775 138.653,262.500 138.917 C 262.225 139.180,261.998 139.475,261.995 139.573 C 261.993 139.670,261.768 140.045,261.495 140.405 C 261.223 140.765,261.000 141.144,261.000 141.249 C 261.000 141.353,260.775 141.653,260.500 141.917 C 260.225 142.180,259.996 142.475,259.992 142.573 C 259.987 142.670,259.652 143.200,259.248 143.750 C 258.843 144.300,258.158 145.275,257.725 145.917 C 257.292 146.558,256.727 147.330,256.469 147.631 C 256.211 147.932,256.000 148.260,256.000 148.359 C 256.000 148.458,255.775 148.796,255.500 149.109 C 255.225 149.422,255.000 149.760,255.000 149.859 C 255.000 149.958,254.775 150.296,254.500 150.609 C 253.361 151.906,251.991 151.833,277.732 151.833 L 300.820 151.833 301.260 151.375 C 301.502 151.123,301.812 150.659,301.948 150.344 C 302.085 150.029,302.378 149.534,302.599 149.245 C 302.819 148.955,303.000 148.645,303.000 148.556 C 303.000 148.466,303.223 148.098,303.495 147.738 C 303.768 147.378,303.993 147.000,303.995 146.898 C 303.998 146.796,304.225 146.429,304.500 146.083 C 304.775 145.737,305.000 145.367,305.000 145.259 C 305.000 145.152,305.194 144.806,305.431 144.491 C 305.668 144.175,305.923 143.767,305.997 143.583 C 306.072 143.400,306.553 142.621,307.066 141.853 C 307.580 141.085,308.000 140.364,308.000 140.251 C 308.000 140.138,308.222 139.766,308.493 139.425 C 308.765 139.083,309.031 138.665,309.085 138.495 C 309.139 138.325,309.592 137.572,310.091 136.821 C 310.591 136.070,311.000 135.364,311.000 135.251 C 311.000 135.138,311.222 134.766,311.493 134.425 C 311.765 134.083,312.034 133.656,312.091 133.474 C 312.149 133.293,312.535 132.650,312.949 132.045 C 313.363 131.440,313.845 130.639,314.020 130.264 C 314.195 129.890,314.525 129.328,314.753 129.017 C 315.324 128.236,315.302 127.403,314.687 126.555 C 314.424 126.191,314.159 125.738,314.099 125.549 C 314.039 125.359,313.823 125.023,313.620 124.801 C 313.416 124.579,313.117 124.140,312.955 123.824 C 312.646 123.225,312.034 122.337,311.508 121.727 C 311.339 121.531,311.153 121.218,311.094 121.033 C 311.035 120.848,310.765 120.417,310.493 120.075 C 310.222 119.734,310.000 119.389,310.000 119.309 C 310.000 119.116,308.688 117.165,308.302 116.785 C 308.136 116.621,308.000 116.414,308.000 116.325 C 308.000 116.120,306.705 114.182,306.302 113.785 C 306.136 113.621,306.000 113.414,306.000 113.325 C 306.000 113.120,304.705 111.182,304.302 110.785 C 304.136 110.621,304.000 110.414,304.000 110.325 C 304.000 110.120,302.705 108.182,302.302 107.785 C 302.136 107.621,302.000 107.414,302.000 107.325 C 302.000 107.236,301.550 106.502,301.000 105.693 C 300.450 104.885,300.000 104.164,300.000 104.092 C 300.000 104.020,299.775 103.704,299.500 103.391 C 299.225 103.078,299.000 102.740,299.000 102.641 C 299.000 102.542,298.775 102.204,298.500 101.891 C 298.225 101.578,298.000 101.225,298.000 101.107 C 298.000 100.988,297.813 100.715,297.583 100.500 C 297.354 100.285,297.167 100.031,297.167 99.937 C 297.167 99.734,294.010 94.972,293.757 94.794 C 293.476 94.596,293.238 94.646,292.789 94.999 " stroke="none" fill="#fbd132" fill-rule="evenodd"></path></g></svg>