<svg height="496pt" viewBox="0 -24 496 496" width="496pt" xmlns="http://www.w3.org/2000/svg"><path d="m496 128c0-17.648438-14.351562-32-32-32h-12.449219c2.753907-4.726562 4.449219-10.144531 4.449219-16 0-17.648438-14.351562-32-32-32h-20.449219c2.753907-4.726562 4.449219-10.144531 4.449219-16 0-17.648438-14.351562-32-32-32h-139.128906c-24.632813 0-48.488282 8.550781-67.613282 24h-9.257812c-18.976562 0-35.753906 9.511719-45.886719 24h-114.113281v176h100.222656c22.167969 0 44.371094 5.238281 64.191406 15.160156 1.25.625 2.53125 1.199219 3.792969 1.785156l15.855469 35.375 14.59375-6.542968-75.167969-167.6875c-2.3125-5.167969-3.488281-10.675782-3.488281-16.355469v-5.734375c0-19.320312 13.769531-35.480469 32-39.191406v15.191406c0 22.382812 4.679688 44.070312 13.910156 64.457031l60.480469 133.480469 14.578125-6.609375-60.480469-133.480469c-8.289062-18.296875-12.488281-37.75-12.488281-57.847656v-10.945312c3.191406-2.191407 6.304688-4.488282 9.199219-6.976563 16.625-14.246094 37.808593-22.078125 59.671875-22.078125h139.128906c8.824219 0 16 7.175781 16 16s-7.175781 16-16 16h-62.390625c-18.328125 0-36.304687 6.304688-50.609375 17.753906-11.480469 9.183594-25.894531 14.246094-40.609375 14.246094h-30.390625v16h30.390625c18.328125 0 36.304687-6.304688 50.609375-17.753906 11.480469-9.183594 25.894531-14.246094 40.609375-14.246094h29.964844c-.972657 17.246094-4.886719 34-12.070313 49.839844l-60.480468 133.480468 14.578124 6.609376 60.476563-133.480469c8.128906-17.945313 12.730469-36.90625 13.714844-56.457031h32.207031v21.734374c0 5.679688-1.175781 11.183594-3.503906 16.363282l-75.167969 167.679687 14.59375 6.542969 9.117187-20.3125h86.960938c17.648438 0 32-14.351562 32-32 0-5.992188-1.761719-11.542969-4.632812-16.34375 16.046874-1.703125 28.632812-15.160156 28.632812-31.65625 0-6.632812-2.03125-12.800781-5.496094-17.910156 12.472656-4.378906 21.496094-16.136719 21.496094-30.089844zm-337.59375 91.0625c-18.496094-7.222656-38.335938-11.0625-58.183594-11.0625h-84.222656v-144h90.359375c-1.519531 5.070312-2.359375 10.441406-2.359375 16v5.734375c0 7.960937 1.648438 15.664063 4.902344 22.90625zm265.59375-155.0625c8.824219 0 16 7.175781 16 16s-7.175781 16-16 16h-17c.625-3.367188 1-6.785156 1-10.265625v-21.734375zm0 176h-79.792969l14.34375-32h65.449219c8.824219 0 16 7.175781 16 16s-7.175781 16-16 16zm24-48h-82.273438l14.34375-32h67.929688c8.824219 0 16 7.175781 16 16s-7.175781 16-16 16zm16-48h-76.753906l14.347656-32h62.40625c8.824219 0 16 7.175781 16 16s-7.175781 16-16 16zm0 0"/><path d="m256 448c-57.34375 0-104-46.65625-104-104s46.65625-104 104-104 104 46.65625 104 104-46.65625 104-104 104zm0 0" fill="#ebc000"/><path d="m256 416c-39.703125 0-72-32.296875-72-72s32.296875-72 72-72 72 32.296875 72 72-32.296875 72-72 72zm0-128c-30.871094 0-56 25.128906-56 56s25.128906 56 56 56 56-25.128906 56-56-25.128906-56-56-56zm0 0"/><path d="m272 384h-16v-62.382812l-19.558594 13.039062-8.882812-13.3125 26.015625-17.34375h18.425781zm0 0"/></svg>