<svg height="496pt" viewBox="-24 0 496 496" width="496pt" xmlns="http://www.w3.org/2000/svg"><g fill="#f0bc5e"><path d="m64 440h80v16h-80zm0 0"/><path d="m8 184h192v40h-192zm0 0"/><path d="m304 0c-52.9375 0-96 43.0625-96 96v64h8c0-13.257812 10.742188-24 24-24h8v-2.183594c0-7.328125 5.039062-13.496094 12.097656-15.472656 10.199219-2.855469 19.199219-9.28125 25.222656-18.3125l2.679688-4.03125c16.886719 12.664062 36.753906 20.601562 57.542969 23.128906 8.175781.992188 14.457031 7.65625 14.457031 15.894532v.976562h8c13.257812 0 24 10.742188 24 24h8v-64c0-52.9375-43.0625-96-96-96zm0 0"/><path d="m104 72-40 40 16 32h48l16-32zm0 0"/></g><path d="m48 224h-16v1.472656c0 37.910156 15.824219 74.496094 43.414062 100.367188l10.945313-11.671875c-24.375-22.863281-38.359375-55.191407-38.359375-88.695313zm0 0"/><path d="m448 352v-45.886719c0-24.808593-16.648438-46.921875-40.480469-53.808593l-63.519531-18.320313v-16.023437c1.574219-1.265626 3.097656-2.601563 4.566406-4.023438 6.523438-6.320312 11.472656-13.785156 14.769532-21.9375h4.664062c17.648438 0 32-14.351562 32-32s-14.351562-32-32-32h-1.167969c-2.777343-8.832031-10.550781-15.632812-20.320312-16.816406-19.464844-2.359375-38.03125-9.824219-53.710938-21.582032l-6.769531-5.074218-7.375 11.066406c-4.878906 7.328125-12.242188 12.664062-20.71875 15.039062-8.738281 2.445313-15.066406 9.109376-17.136719 17.359376h-.800781c-17.648438 0-32 14.351562-32 32 0 17.648437 14.351562 32 32 32h5.398438c4.1875 9.847656 10.609374 18.472656 18.601562 25.183593v16.800781l-57.953125 16.71875c1.242187-8.28125 1.953125-16.695312 1.953125-25.222656v-49.472656h-16.808594c-3.71875-18.230469-19.871094-32-39.191406-32h-96c-19.3125 0-35.472656 13.769531-39.191406 32h-16.808594v49.472656c0 55.398438 26.863281 106.871094 72 138.648438v8.101562c0 22.167969-5.238281 44.371094-15.160156 64.191406l-.839844 1.699219v9.886719h-16c-13.230469 0-24 10.769531-24 24v24h176v-24c0-13.230469-10.769531-24-24-24h-16v-9.886719l-.839844-1.6875c-9.921875-19.832031-15.160156-42.035156-15.160156-64.203125v-8.101562c8.703125-6.128906 16.71875-12.984375 24-20.464844v8.34375zm-97.601562-99.519531-10.789063 37.757812-23.632813-18.902343 22.34375-22.34375zm33.601562-92.480469c0 8.824219-7.175781 16-16 16h-.550781c.328125-2.640625.550781-5.296875.550781-8v-24c8.824219 0 16 7.175781 16 16zm-144 16c-8.824219 0-16-7.175781-16-16s7.175781-16 16-16v21.65625c0 3.519531.34375 6.960938.871094 10.34375zm16-10.34375v-31.832031c0-3.601563 2.511719-6.726563 6.246094-7.777344 11.089844-3.101563 20.84375-9.742187 27.785156-18.855469 16.382812 10.6875 35.074219 17.519532 54.542969 19.878906 4.304687.523438 7.425781 3.867188 7.425781 7.953126v32.976562c0 13.097656-5.175781 25.328125-14.574219 34.449219-9.394531 9.117187-21.824219 13.941406-34.914062 13.527343-25.648438-.769531-46.511719-23.34375-46.511719-50.320312zm46.03125 66.3125c.671875.023438 1.328125.03125 1.992188.03125 8.351562 0 16.449218-1.59375 23.976562-4.632812v9.320312l-24 24-24-24v-9.65625c6.855469 2.929688 14.265625 4.703125 22.03125 4.9375zm-32.351562 17.023438 22.34375 22.34375-23.632813 18.902343-10.789063-37.757812zm-64.769532 18.6875 37.3125-10.757813 17.386719 60.839844 44.390625-35.515625 44.390625 35.515625 17.386719-60.839844 37.3125 10.757813c17.023437 4.914062 28.910156 20.71875 28.910156 38.433593v29.886719h-256v-11.367188c12.152344-16.847656 21.121094-35.824218 26.40625-56.015624.839844-.304688 1.640625-.6875 2.503906-.9375zm-148.910156-107.679688h96c10.414062 0 19.214844 6.710938 22.527344 16h-141.054688c3.3125-9.289062 12.113282-16 22.527344-16zm120 312v8h-144v-8c0-4.414062 3.59375-8 8-8h128c4.40625 0 8 3.585938 8 8zm-104-24v-6.144531c10.472656-21.589844 16-45.632813 16-69.632813v-4.222656h32v4.222656c0 24 5.527344 48.042969 16 69.632813v6.144531zm53.542969-96h-43.085938c-41.65625-28.710938-66.457031-75.832031-66.457031-126.527344v-33.472656h176v33.472656c0 50.695313-24.800781 97.816406-66.457031 126.527344zm0 0"/></svg>