<svg height="496pt" viewBox="0 0 496 496" width="496pt" xmlns="http://www.w3.org/2000/svg"><g fill="#f0bc5e"><path d="m296.792969 97.367188-32.792969-9.367188v-12.441406c9.527344-5.542969 16-15.742188 16-27.558594v-14.625c0-16.710938-12.214844-31.640625-28.855469-33.222656-19.089843-1.824219-35.144531 13.132812-35.144531 31.847656v16c0 11.816406 6.472656 22.015625 16 27.558594v12.441406l-32.792969 9.367188c-13.734375 3.925781-23.207031 16.480468-23.207031 30.769531v15.863281h144v-15.863281c0-14.289063-9.472656-26.84375-23.207031-30.769531zm0 0"/><path d="m136.792969 193.367188-32.792969-9.367188v-12.441406c9.527344-5.542969 16-15.742188 16-27.558594v-14.625c0-16.710938-12.214844-31.640625-28.855469-33.222656-19.089843-1.824219-35.144531 13.132812-35.144531 31.847656v16c0 11.816406 6.472656 22.015625 16 27.558594v12.441406l-32.792969 9.367188c-13.734375 3.925781-23.207031 16.480468-23.207031 30.769531v15.863281h144v-15.863281c0-14.289063-9.472656-26.84375-23.207031-30.769531zm0 0"/><path d="m456.792969 145.367188-32.792969-9.367188v-12.441406c9.527344-5.542969 16-15.742188 16-27.558594v-14.625c0-16.710938-12.214844-31.640625-28.855469-33.222656-19.089843-1.824219-35.144531 13.132812-35.144531 31.847656v16c0 11.816406 6.472656 22.015625 16 27.558594v12.441406l-32.792969 9.367188c-13.734375 3.925781-23.207031 16.480468-23.207031 30.769531v15.863281h144v-15.863281c0-14.289063-9.472656-26.84375-23.207031-30.769531zm0 0"/><path d="m184 176v168l64-56 64 56v-168zm0 0"/></g><path d="m344 192v-48h-192v96h-152v256h496v-304zm-16-32v320h-160v-320zm-312 96h136v224h-136zm464 224h-136v-272h136zm0 0"/><path d="m240 365.335938v98.664062h16v-120h-20l-26.398438 35.199219 12.796876 9.597656zm0 0"/><path d="m434.238281 401.046875-42.238281 35.199219v27.753906h64v-16h-48v-4.25l36.488281-30.40625c7.320313-6.105469 11.511719-15.066406 11.511719-24.585938v-4.757812c0-17.648438-14.351562-32-32-32s-32 14.351562-32 32v8h16v-8c0-8.824219 7.175781-16 16-16s16 7.175781 16 16v4.757812c0 4.753907-2.097656 9.242188-5.761719 12.289063zm0 0"/><path d="m104 384c0-17.648438-14.351562-32-32-32h-32v16h32c8.824219 0 16 7.175781 16 16s-7.175781 16-16 16h-16v16h16c8.824219 0 16 7.175781 16 16s-7.175781 16-16 16h-32v16h32c17.648438 0 32-14.351562 32-32 0-9.546875-4.199219-18.136719-10.855469-24 6.65625-5.863281 10.855469-14.457031 10.855469-24zm0 0"/></svg>