<svg height="496pt" viewBox="0 0 496 496" width="496pt" xmlns="http://www.w3.org/2000/svg"><path d="m264 192h-32c-30.871094 0-56 25.128906-56 56v176h144v-176c0-30.871094-25.128906-56-56-56zm0 0" fill="#f0bc5e"/><path d="m336 416h-3.769531l33.027343-75.480469c12.4375-28.421875 18.742188-58.582031 18.742188-89.625 0-34.527343-8.167969-69.109375-23.609375-99.992187-7.054687-14.125-21.246094-22.902344-37.046875-22.902344h-41.054688v16h41.054688c9.695312 0 18.410156 5.382812 22.734375 14.054688 14.347656 28.679687 21.921875 60.785156 21.921875 92.839843 0 28.816407-5.855469 56.816407-17.40625 83.21875l-35.824219 81.886719h-133.539062l-35.824219-81.878906c-11.550781-26.410156-17.40625-54.410156-17.40625-83.226563 0-32.054687 7.574219-64.167969 21.921875-92.847656 4.324219-8.664063 13.039063-14.046875 22.734375-14.046875h41.054688v-16h-41.054688c-15.800781 0-29.992188 8.777344-37.046875 22.894531-15.441406 30.898438-23.609375 65.472657-23.609375 100 0 31.042969 6.304688 61.195313 18.753906 89.625l33.015625 75.480469h-3.769531c-22.054688 0-40 17.945312-40 40v40h256v-40c0-22.054688-17.945312-40-40-40zm-200 64v-16h136v-16h-134.527344c3.3125-9.289062 12.113282-16 22.527344-16h176c10.414062 0 19.214844 6.710938 22.527344 16h-70.527344v16h72v16zm0 0"/><path d="m208 384h80v16h-80zm0 0"/><path d="m208 352h80v16h-80zm0 0"/><path d="m313.953125 189.585938-65.953125-43.96875-65.953125 43.96875 31.976563-74.617188-62.023438-42.96875h73.96875l22.03125-72 22.03125 72h73.96875l-62.023438 42.96875zm0 0" fill="#f0bc5e"/><path d="m208 320h80v16h-80zm0 0"/><path d="m208 288h80v16h-80zm0 0"/><path d="m208 256h80v16h-80zm0 0"/><path d="m208 224h80v16h-80zm0 0"/><path d="m64 0h16v16h-16zm0 0"/><path d="m64 32h16v16h-16zm0 0"/><path d="m80 16h16v16h-16zm0 0"/><path d="m48 16h16v16h-16zm0 0"/><path d="m16 344h16v16h-16zm0 0"/><path d="m16 376h16v16h-16zm0 0"/><path d="m32 360h16v16h-16zm0 0"/><path d="m0 360h16v16h-16zm0 0"/><path d="m464 200h16v16h-16zm0 0"/><path d="m464 232h16v16h-16zm0 0"/><path d="m480 216h16v16h-16zm0 0"/><path d="m448 216h16v16h-16zm0 0"/><path d="m392 16h16v16h-16zm0 0"/><path d="m392 48h16v16h-16zm0 0"/><path d="m408 32h16v16h-16zm0 0"/><path d="m376 32h16v16h-16zm0 0"/><path d="m48 128h16v16h-16zm0 0"/><path d="m48 160h16v16h-16zm0 0"/><path d="m64 144h16v16h-16zm0 0"/><path d="m32 144h16v16h-16zm0 0"/><path d="m432 368h16v16h-16zm0 0"/><path d="m432 400h16v16h-16zm0 0"/><path d="m448 384h16v16h-16zm0 0"/><path d="m416 384h16v16h-16zm0 0"/></svg>