<svg height="496pt" viewBox="-72 0 496 496" width="496pt" xmlns="http://www.w3.org/2000/svg"><path d="m176 0c-52.9375 0-96 43.0625-96 96v64h8c0-13.257812 10.742188-24 24-24h8v-16c20.488281 0 40.136719-8.136719 54.625-22.625l1.375-1.375 1.375 1.375c14.488281 14.488281 34.136719 22.625 54.625 22.625v16h8c13.257812 0 24 10.742188 24 24h8v-64c0-52.9375-43.0625-96-96-96zm0 0" fill="#f0bc5e"/><path d="m322.886719 88c-14.847657 0-27.285157 11.136719-28.925781 25.886719l-10.753907 96.761719c-1.351562 12.175781-11.597656 21.351562-23.847656 21.351562h-43.359375v-14.121094c8.457031-6.789062 15.144531-15.679687 19.289062-25.878906h4.710938c17.648438 0 32-14.351562 32-32s-14.351562-32-32-32v-16h-8c-18.496094 0-35.886719-7.199219-48.96875-20.273438l-7.03125-7.054687-7.023438 7.046875c-13.089843 13.082031-30.480468 20.28125-48.976562 20.28125h-8v16c-17.648438 0-32 14.351562-32 32s14.351562 32 32 32h4.710938c4.144531 10.199219 10.832031 19.089844 19.289062 25.878906v14.121094h-43.359375c-12.25 0-22.496094-9.175781-23.855469-21.351562l-10.753906-96.761719c-1.632812-14.75-14.070312-25.886719-28.917969-25.886719-16.058593 0-29.113281 13.054688-29.113281 29.113281v1.886719c0 .910156.0390625 1.832031.128906 2.761719l10.597656 111.246093c3.160157 33.214844 28.882813 58.878907 61.273438 62.542969v200.449219h16v-80h51.175781v-16h-51.175781v-120h-8c-22.601562 0-41.992188-13.800781-49.855469-33.839844l31.742188-12.695312c7.371093 8.894531 18.425781 14.535156 30.753906 14.535156h6.160156l34.613281 77.886719 9.816407-9.816407 13.121093 78.722657 15.785157-2.625-15-90 18.863281-18.855469 18.863281 18.863281-15 90 15.785157 2.625 13.121093-78.722656 9.816407 9.816406 34.613281-77.894531h6.160156c12.328125 0 23.382813-5.640625 30.753906-14.535156l31.742188 12.695312c-7.863281 20.039063-27.253907 33.839844-49.855469 33.839844h-8v120h-52.296875v16h52.296875v80h16v-200.449219c32.390625-3.664062 58.113281-29.328125 61.273438-62.542969l10.597656-111.253906c.089844-.921875.128906-1.84375.128906-2.753906v-1.886719c0-16.058593-13.054688-29.113281-29.113281-29.113281zm-296.335938 142.359375-10.488281-110.113281c-.046875-.414063-.0625-.832032-.0625-1.246094v-1.886719c0-7.234375 5.878906-13.113281 13.113281-13.113281 6.6875 0 12.285157 5.007812 13.023438 11.65625l10.75 96.757812c.265625 2.363282.769531 4.640626 1.417969 6.851563zm229.449219-70.359375c0 8.824219-7.175781 16-16 16h-.550781c.328125-2.625.550781-5.289062.550781-8v-24c8.824219 0 16 7.175781 16 16zm-144 16c-8.824219 0-16-7.175781-16-16s7.175781-16 16-16v24c0 2.710938.222656 5.375.550781 8zm16-8v-40.367188c17.816406-1.648437 34.480469-8.792968 48-20.59375 13.519531 11.808594 30.183594 18.945313 48 20.59375v40.367188c0 26.472656-21.527344 48-48 48s-48-21.527344-48-48zm48 64c8.488281 0 16.585938-1.695312 24-4.710938v9.398438l-24 24-24-24v-9.398438c7.414062 3.015626 15.511719 4.710938 24 4.710938zm-37.425781 66.113281-22.261719-50.113281h24.375l24 24zm74.851562 0-26.113281-26.113281 24-24h24.375zm122.574219-179.113281c0 .414062-.015625.832031-.054688 1.238281l-10.488281 110.121094-27.753906-11.101563c.648437-2.210937 1.152344-4.488281 1.417969-6.851562l10.75-96.757812c.738281-6.640626 6.328125-11.648438 13.015625-11.648438 7.234375 0 13.113281 5.878906 13.113281 13.113281zm0 0"/><path d="m176 496c-30.871094 0-56-25.128906-56-56s25.128906-56 56-56 56 25.128906 56 56-25.128906 56-56 56zm0 0" fill="#f0bc5e"/><path d="m176 472c-17.648438 0-32-14.351562-32-32s14.351562-32 32-32 32 14.351562 32 32-14.351562 32-32 32zm0-48c-8.824219 0-16 7.175781-16 16s7.175781 16 16 16 16-7.175781 16-16-7.175781-16-16-16zm0 0"/></svg>