<svg height="501pt" viewBox="0 -2 501.736 501" width="501pt" xmlns="http://www.w3.org/2000/svg"><path d="m314.40625 64.367188c0-35.289063-28.710938-64-64-64-35.285156 0-64 28.710937-64 64 0 26.039062 16.234375 49.417968 40 59.113281v30.328125h16v-73.441406h16v73.441406h16v-30.328125c23.769531-9.695313 40-33.074219 40-59.113281zm-40 41.394531v-25.394531c0-8.824219-7.175781-16-16-16h-16c-8.820312 0-16 7.175781-16 16v25.394531c-14.476562-8.472657-24-24.144531-24-41.394531 0-26.472657 21.53125-48 48-48 26.472656 0 48 21.527343 48 48 0 17.25-9.519531 32.921874-24 41.394531zm0 0"/><path d="m250.40625 352.367188c-57.34375 0-104-46.65625-104-104s46.65625-104 104-104c57.347656 0 104 46.65625 104 104s-46.652344 104-104 104zm0 0" fill="#f0bc5e"/><path d="m250.40625 320.367188c-39.695312 0-72-32.296876-72-72 0-39.703126 32.304688-72 72-72 39.699219 0 72 32.296874 72 72 0 39.703124-32.300781 72-72 72zm0-128c-30.878906 0-56 25.128906-56 56 0 30.871093 25.121094 56 56 56 30.882812 0 56-25.128907 56-56 0-30.871094-25.117188-56-56-56zm0 0"/><path d="m258.40625 288.367188h-16v-60.6875l-10.34375 10.34375-11.308594-11.3125 18.34375-18.34375h19.308594zm0 0"/><path d="m494.304688 315.832031c-4.839844-1.929687-9.800782-3.078125-14.753907-3.609375.410157-.359375.839844-.6875 1.234375-1.054687 10.886719-10.246094 17.136719-24.136719 17.582032-39.089844l1.199218-39.980469-8-.242187c-5.183594-.128907-10.253906.472656-15.132812 1.671875 7.078125-13.101563 9.015625-28.953125 3.992187-44.167969l-12.554687-37.984375-7.597656 2.511719c-4.953126 1.632812-9.480469 3.945312-13.617188 6.722656.078125-.539063.207031-1.066406.273438-1.601563 1.75-14.855468-2.394532-29.503906-11.664063-41.238281l-24.785156-31.402343-6.28125 4.953124c-4.464844 3.527344-8.238281 7.609376-11.320313 12.054688-3.34375-11.742188-10.167968-22.269531-20.039062-29.285156l-30.238282-21.488282-4.296874 7.984376c-13.519532 25.167968-6.570313 58.390624 15.511718 74.078124l5.960938 4.238282c-11.21875.738281-21.921875 4.785156-30.929688 11.890625l-6.28125 4.949219 24.777344 31.410156c5.25 6.648437 11.976562 11.902344 19.535156 15.582031l7.191406 21.761719c2.648438 8.03125 7.175782 15.28125 13.027344 21.3125l-.691406 22.917968c-.253906 8.457032 1.523438 16.816407 4.953125 24.488282l-8.488281 21.296875c-3.128906 7.871093-4.320313 16.328125-3.71875 24.703125l-15.265625 17.121094c-4.0625 4.558593-7.261719 9.695312-9.628907 15.230468l-25.402343 13.898438c-25.488281 13.941406-36.519531 44.589844-27.167969 71.503906-33.320312 9.617188-69.359375 9.605469-102.664062-.023438 9.335937-26.898437-1.6875-57.539062-27.175782-71.480468l-24.070312-13.175782c-2.402344-5.824218-5.6875-11.199218-9.9375-15.960937l-15.253906-17.121094c.597656-8.375-.59375-16.832031-3.722657-24.703125l-8.488281-21.296875c3.433594-7.671875 5.199219-16.03125 4.953125-24.488281l-.6875-22.917969c5.839844-6.03125 10.367187-13.28125 13.023437-21.3125l7.191407-21.769531c7.550781-3.671875 14.28125-8.925781 19.527343-15.574219l24.777344-31.410156-6.28125-4.949219c-9.007812-7.113281-19.71875-11.152344-30.933594-11.890625l5.964844-4.238281c22.082032-15.6875 29.035156-48.914062 15.515625-74.082031l-4.296875-7.980469-30.242187 21.484375c-9.871094 7.019531-16.695313 17.554687-20.039063 29.289063-3.078125-4.457032-6.855468-8.535157-11.320312-12.054688l-6.28125-4.953125-24.78125 31.402344c-9.265625 11.734375-13.410156 26.382812-11.65625 41.238281.0625.542969.191406 1.0625.269531 1.601562-4.125-2.777343-8.664063-5.082031-13.613281-6.722656l-7.601563-2.511718-12.550781 37.984374c-5.023438 15.214844-3.097656 31.054688 3.976562 44.152344-4.875-1.191406-9.929687-1.785156-15.121093-1.648437l-8 .242187 1.199219 39.980469c.449218 14.953125 6.695312 28.832031 17.585937 39.089844.390625.367187.808594.679687 1.207031 1.03125-4.984375.542969-9.9375 1.722656-14.726562 3.632812l-7.433594 2.960938 14.800781 37.160156c5.941407 14.910156 17.671875 25.734375 31.535157 31.207031-4.558594 2.222656-8.863282 5.046875-12.75 8.519532l-5.976563 5.320312 26.636719 29.847656c9.953125 11.167969 23.664062 17.792969 38.59375 18.648438.152344.007812.304687.007812.449218.015625-3.601562 3.824219-6.753906 8.128906-9.289062 12.921875l-3.6875 6.972656 36.351562 19.890625c8.601563 4.703125 18.015626 7.09375 27.519532 7.09375 5.542968 0 11.128906-.816406 16.585937-2.453125 12.671875-3.808594 23.40625-11.707031 30.902344-22.496094 18.96875 5.824219 38.671875 8.925782 58.734375 8.925782 20.042969 0 39.714844-3.101563 58.664062-8.910157 7.496094 10.773438 18.226563 18.671875 30.898438 22.472657 5.464844 1.636718 11.03125 2.453124 16.574219 2.453124 9.503906 0 18.921875-2.390624 27.519531-7.09375l36.351562-19.890624-3.6875-6.972657c-2.527343-4.777343-5.671874-9.074219-9.261718-12.890625.480468-.015625.96875-.015625 1.445312-.039062 14.9375-.855469 28.640625-7.480469 38.59375-18.640625l26.625-29.855469-5.976562-5.320312c-3.9375-3.511719-8.25-6.3125-12.777344-8.511719 13.882812-5.472657 25.617188-16.296875 31.5625-31.214844l14.796875-37.160156zm-351.777344 71.808594 21.648437 11.839844c17.96875 9.832031 26.105469 31.085937 20.449219 50.253906l-21.816406-11.34375c-18.113282-9.910156-26.234375-31.445313-20.28125-50.75zm-32.0625-37.992187 15.4375 17.320312c1.945312 2.175781 3.578125 4.558594 4.976562 7.054688-6.6875 13.472656-7.789062 28.375-4.125 41.984374l-14.089844-15.808593c-7.113281-7.976563-10.6875-18.238281-10.078124-28.910157.460937-7.945312 3.207031-15.417968 7.878906-21.640624zm-23.242188 15.121093-7.023437-17.640625c-7.152344-17.9375-.34375-38.050781 15.226562-48.25l8.582031 21.546875c1.3125 3.285157 2.167969 6.71875 2.566407 10.191407l-1.308594 1.167968c-9.753906 8.695313-16.042969 20.253906-18.042969 32.984375zm25.25-145.296875c-1.105468 3.351563-2.65625 6.527344-4.585937 9.457032l-1.757813.046874c-13.058594.390626-25.296875 5.199219-35.015625 13.664063l5.949219-18.023437c3.351562-10.144532 10.457031-18.378907 20-23.175782 7.113281-3.585937 14.953125-4.960937 22.679688-4zm25.6875-132.34375 14.632813-10.402344c4.6875 16.648438-.777344 35.394532-14.144531 44.882813l-14.632813 10.398437c-4.6875-16.648437.785156-35.390624 14.144531-44.878906zm-31.359375 82.832032c6.613281-8.386719 16.101563-13.695313 26.71875-14.945313 7.90625-.9375 15.746094.488281 22.6875 3.992187l-14.375 18.214844c-2.191406 2.777344-4.734375 5.234375-7.542969 7.320313l-1.664062-.550781c-12.402344-4.105469-25.554688-3.769532-37.585938.863281zm-27.777343-42.296876 14.375-18.199218c12.007812 14.207031 12.800781 35.429687.839843 50.589844l-14.382812 18.210937c-5.03125-5.9375-8.222657-13.226563-9.160157-21.144531-1.246093-10.601563 1.710938-21.066406 8.328126-29.457032zm-.328126 129.863282c5.464844-5.800782 12.359376-9.75 19.953126-11.511719l.695312 23.191406c.105469 3.527344-.265625 7.039063-1.070312 10.449219l-1.640626.65625c-12.480468 4.976562-22.183593 13.96875-28.226562 24.894531l-.574219-19.054687c-.320312-10.679688 3.535157-20.847656 10.863281-28.625zm-42.183593-63.160156 7.273437-22.023438c16.152344 9.257812 24.152344 28.921875 18.085938 47.257812l-7.277344 22.03125c-16.144531-9.257812-24.144531-28.921874-18.082031-47.265624zm-17.136719 77.226562-.695312-23.195312c7.671874 1.3125 14.808593 4.847656 20.601562 10.3125 7.773438 7.320312 12.238281 17.242187 12.558594 27.921874l.695312 23.183594c-7.671875-1.304687-14.800781-4.839844-20.597656-10.304687-7.785156-7.3125-12.242188-17.238281-12.5625-27.917969zm10.304688 78.429688-8.582032-21.550782c7.664063-1.402344 15.558594-.511718 22.886719 2.640625 9.816406 4.214844 17.390625 12.015625 21.34375 21.933594l8.582031 21.554687c-18.335937 3.300782-37.085937-6.632812-44.230468-24.578124zm36.511718 70.175781-15.4375-17.320313c6.71875-3.925781 14.4375-5.832031 22.40625-5.351562 10.664063.609375 20.457032 5.34375 27.566406 13.3125l15.441407 17.328125c-6.71875 3.929687-14.40625 5.824219-22.40625 5.34375-10.671875-.609375-20.457031-5.328125-27.570313-13.3125zm89.976563 58.410156c-10.703125 3.199219-21.992188 2.015625-31.824219-3.351563l-21.886719-11.984374c5.335938-6.753907 12.535157-11.6875 20.871094-14.183594 10.6875-3.226563 21.976563-2.019532 31.792969 3.34375l22.152344 11.519531c-5.363282 6.957031-12.609376 12.101563-21.105469 14.65625zm326.902343-230.210937-.695312 23.195312c-.320312 10.679688-4.78125 20.597656-12.558594 27.917969-5.800781 5.464843-12.929687 9-20.601562 10.304687l.695312-23.183594c.320313-10.679687 4.785156-20.601562 12.5625-27.921874 5.800782-5.464844 12.925782-9 20.597656-10.3125zm-25.101562-76.054688 7.269531 22.023438c6.066407 18.34375-1.933593 38.007812-18.085937 47.265624l-7.28125-22.03125c-6.054688-18.335937 1.945312-38 18.097656-47.257812zm-52.847656 107.960938-1.640625-.65625c-.808594-3.410157-1.175781-6.921876-1.074219-10.449219l.699219-23.191407c7.582031 1.769532 14.488281 5.71875 19.949219 11.511719 7.328124 7.785157 11.183593 17.945313 10.867187 28.625l-.578125 19.046875c-6.039062-10.917968-15.734375-19.910156-28.222656-24.886718zm16.4375 66.824218-7.046875 17.703125c-1.945313-12.335937-7.984375-24.105469-18.015625-33.039062l-1.3125-1.167969c.410156-3.480469 1.265625-6.914062 2.570312-10.191406l8.582032-21.546875c15.566406 10.191406 22.375 30.304687 15.222656 48.242187zm-13.207032-237.664062 14.367188 18.199218c6.625 8.390626 9.578125 18.847657 8.328125 29.464844-.933594 7.910156-4.117187 15.199219-9.160156 21.144532l-14.375-18.210938c-11.960938-15.175781-11.167969-36.390625.839843-50.597656zm-59.390624-32.738282 14.632812 10.402344c13.359375 9.496094 18.832031 28.230469 14.140625 44.878906l-14.628906-10.398437c-13.371094-9.488281-18.839844-28.234375-14.144531-44.882813zm20.175781 107.273438-1.671875.550781c-2.808594-2.085937-5.351563-4.542969-7.535156-7.320312l-14.378907-18.222657c6.953125-3.503906 14.808594-4.917968 22.6875-3.992187 10.617188 1.25 20.105469 6.558594 26.722657 14.945313l11.765624 14.902343c-12.03125-4.625-25.183593-4.96875-37.589843-.863281zm20.144531 35.472656-7.28125-22.03125c7.734375-.960937 15.566406.414063 22.679688 4 9.542968 4.804688 16.648437 13.039063 20 23.175782l5.953124 18.023437c-9.722656-8.464844-21.960937-13.28125-35.015624-13.664063l-1.761719-.046874c-1.917969-2.929688-3.464844-6.105469-4.574219-9.457032zm-13.433594 147.488282 15.441406-17.3125c4.671876 6.222656 7.414063 13.695312 7.871094 21.640624.617188 10.671876-2.96875 20.933594-10.082031 28.910157l-15.460937 17.351562c4.054687-13.628906 3.175781-28.703125-3.265626-42.382812 1.519532-2.910157 3.265626-5.703125 5.496094-8.207031zm-39.296875 32.527343 21.648438-11.839843c5.960937 19.304687-2.167969 40.847656-20.296875 50.765624l-21.796875 11.339844c-5.65625-19.179687 2.480469-40.433594 20.445312-50.265625zm39.832031 75.769531c-9.824218 5.367188-21.109374 6.558594-31.816406 3.351563-8.496094-2.554687-15.75-7.699219-21.109375-14.65625l22.167969-11.539063c9.816406-5.359374 21.101562-6.535156 31.78125-3.335937 8.328125 2.507813 15.53125 7.441406 20.859375 14.1875zm59.175782-55.058593c-7.109375 7.976562-16.894532 12.703125-27.566406 13.3125-7.984376.472656-15.6875-1.421875-22.40625-5.34375l15.4375-17.328125c7.113281-7.96875 16.898437-12.703125 27.570312-13.3125 8-.472656 15.6875 1.425781 22.40625 5.351562zm36.511718-70.175781c-7.148437 17.945312-25.902343 27.871093-44.230468 24.578124l8.585937-21.554687c7.148438-17.941406 25.917969-27.886719 44.230469-24.566406zm0 0"/></svg>