<svg height="500pt" viewBox="0 -2 500.384 500" width="500pt" xmlns="http://www.w3.org/2000/svg"><path d="m151.753906 384.894531c3.933594 1.902344 7.484375 4.382813 10.558594 7.390625l11.175781-11.449218c-4.320312-4.214844-9.289062-7.695313-14.777343-10.351563l-14.382813-6.941406c-1.703125-10.472657-6.128906-20.175781-13.289063-28.210938l-10.632812-11.925781c2.433594-10.328125 2.066406-20.984375-1.476562-31.144531l-5.257813-15.089844c6.199219-8.605469 9.9375-18.597656 10.550781-29.335937l.914063-15.941407c9.023437-5.578125 16.296875-13.375 20.976562-23.066406l17.398438-36.023437-7.199219-3.480469c-6.625-3.199219-13.570312-4.933594-20.496094-5.398438l.839844-.726562c10.472656-9.113281 16.671875-21.664063 17.457031-35.363281.78125-13.644532-3.914062-26.765626-13.226562-36.949219l-5.261719-5.761719-27.890625 24.25c-10.390625 9.039062-16.558594 21.460938-17.421875 35.03125-5.304688-7.089844-12.25-12.871094-20.449219-16.832031l-7.199219-3.480469-17.398437 36.015625c-6.503906 13.472656-7.378906 28.664063-2.457031 42.792969.597656 1.726562 1.289062 3.40625 2.039062 5.054687-6.808594-3.464843-14.3125-5.550781-22.167968-6l-7.984376-.457031-2.296874 39.9375c-1 17.390625 6.097656 33.40625 18.007812 44.390625-7.527344-.605469-15.277344.273437-22.855469 2.90625l-7.550781 2.632813 13.167969 37.765624c4.921875 14.128907 15.046875 25.488282 28.519531 32 1.671875.808594 3.375 1.488282 5.097656 2.121094-7.183594 2.320313-14.015625 6.097656-20 11.433594l-5.976562 5.324219 26.625 29.859375c9.949218 11.167968 23.664062 17.78125 38.589844 18.636718 1.097656.066407 2.191406.097657 3.28125.097657.75 0 1.488281-.070313 2.238281-.105469-5.839844 4.976562-10.664063 11.121094-14.09375 18.242188l-3.480469 7.199218 36.015625 17.398438c7.664063 3.707031 16 5.5625 24.359375 5.5625 7.128906 0 14.273438-1.351563 21.007812-4.082032l-6-14.832031c-10.457031 4.234375-22.261718 3.855469-32.414062-1.054687l-20.898438-10.097656c4.714844-6.199219 11.136719-10.886719 18.65625-13.511719 10.097657-3.511719 20.960938-2.886719 30.570313 1.753906l5.167969 2.496094 6.957031-14.410157-5.167969-2.496093c-17.390625-8.398438-25.957031-27.832031-21.375-45.863281zm-29.058594-31.808593-3.480468 7.199218c-4.328125 8.96875-6.015625 18.527344-5.421875 27.816406l-7.929688-8.894531c-7.109375-7.976562-10.6875-18.242187-10.078125-28.90625.453125-7.949219 3.199219-15.414062 7.871094-21.648437l15.441406 17.320312c2.183594 2.449219 3.910156 5.160156 5.40625 7.984375zm-18.261718-47.617188-5.976563 5.328125c-7.289062 6.496094-12.59375 14.601563-15.664062 23.59375l-3.914063-11.21875c-6.359375-18.238281 1.320313-38.03125 17.3125-47.542969l7.640625 21.90625c1.078125 3.09375 1.640625 6.261719 1.945313 9.445313zm1.335937-50.976562-7.554687 2.632812c-9.398438 3.28125-17.351563 8.847656-23.503906 15.832031l.679687-11.894531c.609375-10.664062 5.335937-20.457031 13.320313-27.570312 5.945312-5.300782 13.167968-8.636719 20.875-9.734376l-1.328126 23.167969c-.1875 3.273438-.882812 6.414063-1.824218 9.472657zm36.039063-73.511719-10.089844 20.890625c-1.421875 2.949218-3.269531 5.589844-5.3125 8.054687l.113281-2.015625-7.992187-.464844c-9.941406-.558593-19.421875 1.550782-27.792969 5.664063l5.195313-10.75c3.007812-6.226563 7.460937-11.265625 12.726562-15.035156l.105469.113281 1.132812-.992188c9.265625-6.09375 20.839844-8.273437 31.914063-5.464843zm-23.570313-59.527344 15.464844-13.449219c3.273437 5.722656 4.824219 12.234375 4.441406 18.921875-.535156 9.351563-4.792969 17.945313-11.984375 24.199219l-15.464844 13.449219c-3.269531-5.71875-4.824218-12.234375-4.4375-18.921875.535157-9.359375 4.789063-17.949219 11.980469-24.199219zm-58.558593 45.625 10.097656-20.894531c6.199218 4.710937 10.886718 11.132812 13.511718 18.652344 3.511719 10.089843 2.894532 20.945312-1.753906 30.570312l-10.09375 20.894531c-6.203125-4.710937-10.898437-11.136719-13.511718-18.65625-3.523438-10.09375-2.898438-20.949219 1.75-30.566406zm-31.289063 75.261719 1.328125-23.167969c7.527344 1.976563 14.328125 6.121094 19.625 12.066406 7.113281 7.976563 10.6875 18.238281 10.070312 28.910157l-1.324218 23.160156c-17.992188-4.75-30.808594-21.679688-29.699219-40.96875zm-.101563 81.523437-7.640624-21.90625c18.449218-2.503906 36.757812 8.242188 43.121093 26.480469l7.636719 21.914062c-7.703125 1.070313-15.574219-.167968-22.75-3.632812-9.617188-4.648438-16.847656-12.769531-20.367188-22.855469zm58.671876 88.671875c-10.664063-.609375-20.457032-5.335937-27.570313-13.320312l-15.4375-17.320313c16.078125-9.359375 37.109375-6.464843 49.96875 7.96875l15.4375 17.320313c-6.71875 3.933594-14.480469 5.804687-22.398437 5.351562zm0 0"/><path d="m284.039062 144.375c-7.445312 0-14.792968-6.921875-21.941406-13.671875-3.664062-3.457031-9.800781-9.234375-12.175781-9.753906-1.824219.511719-7.953125 6.296875-11.617187 9.753906-9.152344 8.621094-18.59375 17.535156-28.167969 11.910156-9.640625-5.679687-6.722657-18.625-3.898438-31.152343 1.097657-4.832032 2.914063-12.910157 2.21875-15.183594-1.167969-.9375-8.617187-3.230469-13.066406-4.609375-11.804687-3.636719-25.191406-7.765625-25.191406-19.382813 0-11.617187 13.386719-15.742187 25.183593-19.382812 4.449219-1.375 11.890626-3.671875 13.457032-5.273438.304687-1.617187-1.511719-9.703125-2.609375-14.527344-2.824219-12.519531-5.742188-25.472656 3.898437-31.144531 9.535156-5.605469 19.023438 3.289063 28.167969 11.914063 3.664063 3.453125 9.800781 9.230468 12.175781 9.75 1.824219-.511719 7.953125-6.296875 11.617188-9.75 9.148437-8.625 18.574218-17.554688 28.167968-11.914063 9.636719 5.679688 6.71875 18.625 3.894532 31.152344-1.097656 4.832031-2.914063 12.914063-2.214844 15.183594 1.167969.9375 8.613281 3.234375 13.0625 4.609375 11.816406 3.640625 25.199219 7.765625 25.199219 19.382812 0 11.617188-13.382813 15.746094-25.183594 19.382813-4.449219 1.378906-11.886719 3.671875-13.457031 5.273437-.300782 1.617188 1.511718 9.703125 2.609375 14.527344 2.824219 12.519531 5.742187 25.472656-3.894531 31.144531-2.082032 1.214844-4.160157 1.761719-6.234376 1.761719zm0 0" fill="#f0bc5e"/><path d="m487.214844 329.125 13.167968-37.765625-7.550781-2.632813c-8.496093-2.960937-17.214843-3.695312-25.574219-2.609374 12.117188-10.984376 19.375-27.128907 18.367188-44.695313l-2.296875-39.9375-7.984375.457031c-7.855469.449219-15.359375 2.535156-22.167969 6 .753907-1.640625 1.441407-3.328125 2.039063-5.054687 4.929687-14.121094 4.058594-29.320313-2.453125-42.792969l-17.402344-36.015625-7.199219 3.480469c-7.25 3.503906-13.488281 8.445312-18.511718 14.429687-1.402344-12.621093-7.367188-24.125-17.105469-32.621093l-27.816407-24.28125-5.269531 5.792968c-9.28125 10.183594-13.960937 23.3125-13.175781 36.949219.78125 13.691406 6.964844 26.234375 17.390625 35.335937l.734375.640626c-7.644531.21875-15.367188 1.96875-22.695312 5.503906l-7.199219 3.480468 17.398437 36.015626c4.675782 9.6875 11.953125 17.488281 20.976563 23.074218l.914062 15.941406c.671875 11.65625 4.933594 22.472657 12.152344 31.539063l-4.496094 12.886719c-3.304687 9.472656-3.871093 19.382812-1.984375 29.054687l-12.488281 14.007813c-7.160156 8.03125-11.578125 17.738281-13.28125 28.199218l-14.390625 6.953126c-4.089844 1.976562-7.914062 4.433593-11.375 7.296874l10.199219 12.328126c2.472656-2.046876 5.207031-3.808594 8.136719-5.214844l20.886718-10.089844c4.59375 18.039062-3.984375 37.464844-21.367187 45.863281l-3.511719 1.695313 6.949219 14.410156 3.511719-1.695312c9.632812-4.648438 20.480468-5.257813 30.5625-1.753907 7.519531 2.625 13.941406 7.3125 18.65625 13.511719l-20.898438 10.097656c-9.863281 4.757813-20.964844 5.304688-31.253906 1.503906l-5.535156 15.007813c6.34375 2.34375 12.902343 3.503906 19.445312 3.503906 8.304688 0 16.578125-1.878906 24.304688-5.617187l36.015624-17.398438-3.480468-7.199218c-3.4375-7.113282-8.253906-13.265626-14.09375-18.242188.75.03125 1.488281.105469 2.238281.105469 1.089844 0 2.183594-.03125 3.28125-.097657 14.9375-.855468 28.640625-7.480468 38.589844-18.640624l26.625-29.855469-5.976563-5.328125c-5.628906-5.023438-12.007812-8.671875-18.726562-11.015625 2.097656-.71875 4.160156-1.558594 6.191406-2.535157 13.480469-6.480468 23.609375-17.847656 28.527344-31.976562zm-7.472656-27.167969-7.636719 21.90625c-3.511719 10.085938-10.753907 18.207031-20.371094 22.855469-7.167969 3.464844-15.03125 4.6875-22.75 3.632812l7.640625-21.914062c6.359375-18.238281 24.703125-28.976562 43.117188-26.480469zm-85.0625 4.472657c.328124-2.992188.871093-5.976563 1.886718-8.894532l7.640625-21.90625c16 9.511719 23.671875 29.3125 17.3125 47.542969l-5.183593 14.867187c-2.726563-10.183593-8.320313-19.714843-16.761719-27.242187zm74.96875-64.089844c1.105468 19.289062-11.710938 36.210937-29.703126 40.96875l-1.328124-23.160156c-.617188-10.664063 2.96875-20.933594 10.078124-28.910157 5.304688-5.945312 12.097657-10.089843 19.625-12.066406zm-54.894532-77.511719c2.621094-7.519531 7.308594-13.941406 13.511719-18.65625l10.09375 20.898437c4.648437 9.625 5.273437 20.472657 1.753906 30.558594-2.625 7.519532-7.3125 13.945313-13.511719 18.65625l-10.097656-20.894531c-4.648437-9.609375-5.273437-20.464844-1.75-30.5625zm-52.496094-37.894531c-.386718-6.679688 1.15625-13.183594 4.40625-18.902344l15.359376 13.40625c7.167968 6.25 11.402343 14.839844 11.9375 24.191406.382812 6.679688-1.160157 13.183594-4.410157 18.90625l-15.351562-13.410156c-7.167969-6.246094-11.40625-14.839844-11.941407-24.191406zm17.246094 80.519531-7.992187.464844.113281 2.007812c-2.03125-2.464843-3.882812-5.105469-5.304688-8.054687l-10.089843-20.890625c18.035156-4.582031 37.457031 3.984375 45.867187 21.378906l5.167969 10.695313c-8.523437-4.167969-18-6.144532-27.761719-5.601563zm10.28125 39.472656-1.328125-23.167969c7.703125 1.105469 14.925781 4.441407 20.871094 9.734376 7.976563 7.113281 12.703125 16.90625 13.3125 27.570312l.527344 9.261719c-5.761719-5.742188-12.808594-10.351563-20.992188-13.207031l-7.550781-2.632813-1.890625 5.410156c-1.671875-4.082031-2.695313-8.433593-2.949219-12.96875zm-10.847656 99.054688 15.4375-17.320313c11.136719 14.914063 10.65625 36.136719-2.199219 50.554688l-7.929687 8.894531c.59375-9.296875-1.085938-18.855469-5.421875-27.816406l-3.480469-7.199219-1.816406.871094c1.496094-2.824219 3.226562-5.535156 5.410156-7.984375zm59.710938 53.234375c-12.855469 14.414062-33.894532 17.320312-49.96875 7.96875l15.441406-17.320313c12.847656-14.417969 33.878906-17.328125 49.96875-7.96875zm0 0"/><path d="m375.855469 442.628906c-12.535157-12.535156-27.871094-22.046875-44.785157-27.839844 7.859376-16.046874 11.976563-33.605468 11.976563-51.351562v-8h-8c-17.742187 0-35.304687 4.121094-51.351563 11.976562-5.800781-16.90625-15.304687-32.242187-27.839843-44.785156l-5.65625-5.65625-5.65625 5.65625c-12.535157 12.535156-22.046875 27.871094-27.839844 44.785156-16.046875-7.855468-33.605469-11.976562-51.351563-11.976562h-8v8c0 17.746094 4.121094 35.304688 11.976563 51.351562-16.902344 5.800782-32.238281 15.304688-44.785156 27.839844l-5.65625 5.65625 5.65625 5.65625c22.152343 22.152344 51.59375 34.34375 82.914062 34.34375h85.488281c31.320313 0 60.765626-12.191406 82.910157-34.34375l5.65625-5.65625zm0 0" fill="#f0bc5e"/><path d="m250.199219 496.285156c-26.472657 0-48-21.527344-48-48s21.527343-48 48-48c26.472656 0 48 21.527344 48 48s-21.527344 48-48 48zm0-80c-17.648438 0-32 14.351563-32 32 0 17.648438 14.351562 32 32 32 17.648437 0 32-14.351562 32-32 0-17.648437-14.351563-32-32-32zm0 0"/></svg>