<svg height="496pt" viewBox="0 0 496 496" width="496pt" xmlns="http://www.w3.org/2000/svg"><path d="m332.769531 41.457031-7.632812-7.632812c-21.808594-21.816407-50.808594-33.824219-81.65625-33.824219-63.671875 0-115.480469 51.808594-115.480469 115.480469v60.519531h8c0-17.671875 14.328125-32 32-32v-32l.0625-.0625c.363281 13.34375 11.234375 24.0625 24.65625 24.0625 30.984375 0 61.433594-8.089844 88.328125-23.457031l9.121094-5.207031c3.824219-2.183594 8.144531-3.335938 12.542969-3.335938 13.96875 0 25.289062 11.320312 25.289062 25.289062v14.710938c17.671875 0 32 14.328125 32 32h8v-76.222656c0-24.671875-13.464844-46.898438-35.230469-58.320313zm0 0" fill="#FBD132"/><path d="m168 474.289062c25.03125 8.847657 51.945312 13.710938 80 13.710938s54.96875-4.863281 80-13.710938v-90.289062h-160zm0 0" fill="#FBD132"/><path d="m248 240c-8.824219 0-16-7.175781-16-16h-16c0 17.648438 14.351562 32 32 32s32-14.351562 32-32h-16c0 8.824219-7.175781 16-16 16zm0 0"/><path d="m216 176c0 4.417969-3.582031 8-8 8s-8-3.582031-8-8 3.582031-8 8-8 8 3.582031 8 8zm0 0"/><path d="m296 176c0 4.417969-3.582031 8-8 8s-8-3.582031-8-8 3.582031-8 8-8 8 3.582031 8 8zm0 0"/><path d="m248 0c-136.753906 0-248 111.246094-248 248s111.246094 248 248 248 248-111.246094 248-248-111.246094-248-248-248zm-152 400h40v51.089844c-14.335938-7.9375-27.71875-17.371094-40-28.050782zm56 59.121094v-99.121094h-16v24h-40v-16.648438c0-19 13.519531-35.496093 32.160156-39.222656l75.441406-15.089844c5.230469 8.6875 17.839844 22.960938 44.398438 22.960938s39.167969-14.273438 44.40625-22.960938l75.441406 15.089844c18.632813 3.726563 32.152344 20.222656 32.152344 39.222656v16.648438h-40v-24h-16v99.121094c-29.28125 13.367187-61.769531 20.878906-96 20.878906s-66.71875-7.511719-96-20.878906zm96-187.121094c-39.703125 0-72-32.296875-72-72v-60.601562c4.894531 2.921874 10.617188 4.601562 16.71875 4.601562 32.320312 0 64.234375-8.480469 92.296875-24.503906l9.121094-5.214844c2.617187-1.488281 5.574219-2.28125 8.582031-2.28125 9.527344 0 17.28125 7.753906 17.28125 17.28125v70.71875c0 39.703125-32.296875 72-72 72zm0 16c11.296875 0 22.0625-2.214844 32-6.113281v20.570312c-1.734375 3.824219-9.550781 17.542969-32 17.542969-22.28125 0-30.175781-13.617188-32-17.566406v-20.546875c9.9375 3.898437 20.703125 6.113281 32 6.113281zm112 112h40v23.046875c-12.28125 10.679687-25.664062 20.105469-40 28.050781zm56 7.742188v-40.390626c0-26.589843-18.929688-49.695312-45.015625-54.910156l-74.984375-14.992187v-23.785157c19.960938-13.046874 34.265625-33.96875 38.574219-58.328124 18.921875-3.160157 33.425781-19.535157 33.425781-39.335938 0-19.3125-13.769531-35.472656-32-39.191406v-7.527344c0-18.351562-14.929688-33.28125-33.289062-33.28125-5.773438 0-11.488282 1.511719-16.503907 4.382812l-9.128906 5.21875c-25.644531 14.65625-54.820313 22.398438-84.359375 22.398438-9.214844 0-16.71875-7.503906-16.71875-16.71875 0-6.378906 3.535156-12.113281 9.238281-14.960938l18.335938-9.167968-7.160157-14.3125-18.335937 9.167968c-11.148437 5.578126-18.078125 16.800782-18.078125 29.273438 0 .238281 0 .480469.007812.71875v24.808594c-18.238281 3.710937-32.007812 19.871094-32.007812 39.191406 0 19.800781 14.503906 36.175781 33.425781 39.335938 4.300781 24.359374 18.613281 45.273437 38.574219 58.328124v23.785157l-74.984375 14.992187c-26.085937 5.214844-45.015625 28.320313-45.015625 54.910156v40.390626c-39.609375-41.636719-64-97.878907-64-159.742188 0-127.921875 104.078125-232 232-232s232 104.078125 232 232c0 61.863281-24.390625 118.105469-64 159.742188zm-80-254.269532c9.289062 3.3125 16 12.113282 16 22.527344s-6.710938 19.214844-16 22.527344zm-176 45.054688c-9.289062-3.3125-16-12.113282-16-22.527344s6.710938-19.214844 16-22.527344zm0 0"/><path d="m184 416h88v16h-88zm0 0"/><path d="m288 416h24v16h-24zm0 0"/></svg>