<?xml version="1.0" encoding="iso-8859-1"?>
<!-- Generator: Adobe Illustrator 22.0.0, SVG Export Plug-In . SVG Version: 6.00 Build 0)  -->
<svg xmlns="http://www.w3.org/2000/svg" xmlns:xlink="http://www.w3.org/1999/xlink" version="1.1" id="Layer_1_1_" x="0px" y="0px" viewBox="0 0 64 64" style="enable-background:new 0 0 64 64;" xml:space="preserve" width="512" height="512">
<g>
	<g>
		<path style="fill:#FBD132;" d="M13,15c-4.963,0-9,4.037-9,9v4h1c0-1.657,1.343-3,3-3h10c1.657,0,3,1.343,3,3h1v-4    C22,19.037,17.963,15,13,15z"/>
	</g>
	<g>
		<path style="fill:#FBD132;" d="M51,15c-4.963,0-9,4.037-9,9v4h1c0-1.657,1.343-3,3-3h0.172c1.811,0,3.548-0.719,4.828-2    c1.281,1.281,3.017,2,4.828,2H56c1.657,0,3,1.343,3,3h1v-4C60,19.037,55.963,15,51,15z"/>
	</g>
	<g>
		<path d="M32,63c-8.271,0-15-6.729-15-15s6.729-15,15-15s15,6.729,15,15S40.271,63,32,63z M32,35c-7.168,0-13,5.832-13,13    s5.832,13,13,13s13-5.832,13-13S39.168,35,32,35z"/>
	</g>
	<g>
		<path d="M18.513,49.858l-1.027-1.716C17.699,48.015,22.828,45,32,45s14.301,3.015,14.515,3.143l-1.029,1.715    C45.439,49.83,40.574,47,32,47S18.561,49.83,18.513,49.858z"/>
	</g>
	<g>
		<rect x="31" y="34" width="2" height="28"/>
	</g>
	<g>
		<path d="M40.99,58.814C38.492,56.405,37,52.362,37,48s1.492-8.405,3.99-10.814l1.389,1.439C40.263,40.665,39,44.17,39,48    s1.263,7.335,3.379,9.375L40.99,58.814z"/>
	</g>
	<g>
		<path d="M23.01,58.814l-1.389-1.439C23.737,55.335,25,51.83,25,48s-1.263-7.335-3.379-9.375l1.389-1.439    C25.508,39.595,27,43.638,27,48S25.508,56.405,23.01,58.814z"/>
	</g>
	<g>
		<path style="fill:#FBD132;" d="M32,1c-4.963,0-9,4.037-9,9v4h1c0-1.657,1.343-3,3-3c1.956,0,3.869-0.579,5.496-1.664L33,9    l0.586,0.586C34.491,10.491,35.719,11,37,11c1.657,0,3,1.343,3,3h1v-4C41,5.037,36.963,1,32,1z"/>
	</g>
	<path d="M59.756,37.09L55,35.307V34.46c0.757-0.679,1.34-1.545,1.675-2.528C58.559,31.609,60,29.975,60,28c0-2.206-1.794-4-4-4   h-0.172c-1.534,0-3.036-0.622-4.121-1.707L51,21.586l-0.707,0.707C49.208,23.378,47.706,24,46.172,24H46   c-1.079,0-2.055,0.433-2.775,1.13c-0.571-0.913-1.423-1.647-2.469-2.04L36,21.307V20.46c0.757-0.679,1.34-1.545,1.675-2.528   C39.559,17.609,41,15.975,41,14c0-2.206-1.794-4-4-4c-1.008,0-1.994-0.408-2.707-1.121l-1.166-1.166l-1.186,0.791   C30.473,9.482,28.764,10,27,10c-2.206,0-4,1.794-4,4c0,1.975,1.441,3.609,3.325,3.932C26.66,18.914,27.243,19.78,28,20.46v0.847   l-4.756,1.783c-1.046,0.393-1.897,1.127-2.469,2.04C20.055,24.433,19.079,24,18,24H8c-2.206,0-4,1.794-4,4   c0,1.975,1.441,3.609,3.325,3.932C7.66,32.914,8.243,33.78,9,34.46v0.847L4.244,37.09C2.304,37.818,1,39.7,1,41.772V45h17.581v-2H8   v-2H6v2H3v-1.228c0-1.244,0.782-2.373,1.947-2.81l4.303-1.614C9.807,38.89,11.27,40,13,40s3.193-1.11,3.749-2.651l4.301,1.613   c0.139,0.053,0.271,0.113,0.398,0.183l0.963-1.752c-0.207-0.114-0.426-0.216-0.656-0.303L17,35.307V34.46   c0.757-0.679,1.34-1.545,1.675-2.528c0.739-0.127,1.401-0.458,1.943-0.932h22.764c0.542,0.473,1.204,0.805,1.943,0.932   C45.66,32.914,46.243,33.78,47,34.46v0.847l-4.758,1.784c-0.229,0.086-0.447,0.188-0.654,0.302l0.963,1.752   c0.127-0.069,0.26-0.13,0.396-0.182L47.65,37.2L51,41.667l3.35-4.467l4.703,1.763C60.218,39.399,61,40.528,61,41.772V43h-3v-2h-2v2   H45.419v2H63v-3.228C63,39.7,61.696,37.818,59.756,37.09z M58,28c0,0.737-0.405,1.375-1,1.722v-3.443   C57.595,26.625,58,27.263,58,28z M51,24.332c1.151,0.898,2.548,1.44,4,1.598V30c0,2.206-1.794,4-4,4s-4-1.794-4-4v-4.07   C48.452,25.772,49.849,25.23,51,24.332z M39,14c0,0.737-0.405,1.375-1,1.722v-3.443C38.595,12.625,39,13.263,39,14z M32.871,10.285   l0.008,0.008C33.726,11.14,34.828,11.7,36,11.907V16c0,2.206-1.794,4-4,4s-4-1.794-4-4v-4.071   C29.73,11.77,31.397,11.227,32.871,10.285z M25,14c0-0.737,0.405-1.375,1-1.722v3.443C25.405,15.375,25,14.737,25,14z M32,22   c0.702,0,1.373-0.128,2-0.35v0.017l-2,2.666l-2-2.666V21.65C30.627,21.872,31.298,22,32,22z M6,28c0-0.737,0.405-1.375,1-1.722   v3.443C6.405,29.375,6,28.737,6,28z M15,36c0,1.103-0.897,2-2,2s-2-0.897-2-2v-0.35c0.627,0.223,1.298,0.35,2,0.35   s1.373-0.128,2-0.35V36z M13,34c-2.206,0-4-1.794-4-4v-4h8v4C17,32.206,15.206,34,13,34z M19,29.722v-3.443   c0.595,0.347,1,0.985,1,1.722S19.595,29.375,19,29.722z M42,29h-3v-2h-2v2H27v-2h-2v2h-3v-1.228c0-1.244,0.782-2.373,1.947-2.81   L28.65,23.2L32,27.667l3.35-4.467l4.703,1.763C41.218,25.399,42,26.528,42,27.772V29z M44,28c0-0.737,0.405-1.375,1-1.722v3.443   C44.405,29.375,44,28.737,44,28z M51,38.333l-2-2.666V35.65c0.627,0.223,1.298,0.35,2,0.35s1.373-0.128,2-0.35v0.017L51,38.333z"/>
</g>
</svg>
