<svg height="496pt" viewBox="0 0 496 496" width="496pt" xmlns="http://www.w3.org/2000/svg"><g fill="#f0bc5e"><path d="m120 424h256v40h-256zm0 0"/><path d="m208 424h40v-152l-40 40zm0 0"/><path d="m248 0c-52.9375 0-96 43.0625-96 96v64h8c0-13.257812 10.742188-24 24-24h8v-8c0-4.414062 3.585938-8 8-8h10.742188c8.488281 0 16.625-3.367188 22.625-9.375l14.632812-14.625 14.625 14.625c6 6 14.144531 9.375 22.621094 9.375h10.753906c4.414062 0 8 3.585938 8 8v8h8c13.257812 0 24 10.742188 24 24h8v-64c0-52.9375-43.0625-96-96-96zm0 0"/></g><path d="m466 408 30-40h-136v48h-16v-120h26.902344c20.738281 0 37.859375-15.566406 39.824218-36.207031l13.152344-138.039063c.082032-.921875.121094-1.84375.121094-2.753906v-1.886719c0-16.058593-13.054688-29.113281-29.113281-29.113281-14.847657 0-27.285157 11.136719-28.925781 25.886719l-13.121094 118.113281h-64.839844v-14.121094c8.457031-6.789062 15.144531-15.679687 19.289062-25.878906h4.710938c17.648438 0 32-14.351562 32-32s-14.351562-32-32-32c0-8.824219-7.175781-16-16-16h-10.742188c-6.320312 0-12.496093-2.558594-16.96875-7.03125l-20.289062-20.28125-20.289062 20.28125c-4.464844 4.472656-10.648438 7.03125-16.96875 7.03125h-10.742188c-8.824219 0-16 7.175781-16 16-17.648438 0-32 14.351562-32 32s14.351562 32 32 32h4.710938c4.144531 10.199219 10.832031 19.089844 19.289062 25.878906v14.121094h-64.839844l-13.128906-118.113281c-1.632812-14.75-14.070312-25.886719-28.917969-25.886719-16.058593 0-29.113281 13.054688-29.113281 29.113281v1.886719c0 .910156.039062 1.832031.128906 2.761719l13.152344 138.03125c1.957031 20.640625 19.078125 36.207031 39.816406 36.207031h26.902344v120h-16v-48h-136l30 40-30 40h88v24c0 13.230469 10.769531 24 24 24h272c13.230469 0 24-10.769531 24-24v-24h88zm-138-248c0 8.824219-7.175781 16-16 16h-.550781c.328125-2.625.550781-5.289062.550781-8v-24c8.824219 0 16 7.175781 16 16zm53.863281-44.34375c.746094-6.648438 6.335938-11.65625 13.023438-11.65625 7.234375 0 13.113281 5.878906 13.113281 13.113281v1.886719c0 .414062-.015625.832031-.054688 1.238281l-8.359374 87.761719h-27.984376zm-13.128906 118.113281 1.089844-9.769531h28.230469l-3.261719 34.273438c-1.175781 12.382812-11.449219 21.726562-23.890625 21.726562h-42.902344v136h-72v-124.6875l34.574219 34.574219 34.625-77.886719h27.640625c8.160156 0 15-6.121094 15.894531-14.230469zm-61.046875 14.230469-22.273438 50.113281-26.101562-26.113281 24-24zm-123.6875-72c-8.824219 0-16-7.175781-16-16s7.175781-16 16-16v24c0 2.710938.222656 5.375.550781 8zm16-8v-40h10.742188c10.683593 0 20.730468-4.167969 28.28125-11.71875l8.976562-8.96875 8.976562 8.96875c7.550782 7.550781 17.597657 11.71875 28.28125 11.71875l10.742188-.007812v40.007812c0 26.472656-21.527344 48-48 48s-48-21.527344-48-48zm48 64c8.488281 0 16.585938-1.695312 24-4.710938v9.398438l-24 24-24-24v-9.398438c7.414062 3.015626 15.511719 4.710938 24 4.710938zm-35.3125 16 24 24-26.113281 26.113281-22.261719-50.113281zm-124.6875-129v-1.886719c0-7.234375 5.878906-13.113281 13.113281-13.113281 6.6875 0 12.285157 5.007812 13.023438 11.65625l10.253906 92.34375h-27.976563l-8.359374-87.753906c-.039063-.414063-.054688-.832032-.054688-1.246094zm37.097656 161c-12.441406 0-22.714844-9.34375-23.890625-21.726562l-3.261719-34.273438h28.230469l1.089844 9.769531c.894531 8.109375 7.734375 14.230469 15.894531 14.230469h27.640625l34.613281 77.886719 34.585938-34.574219v124.6875h-72v-136zm-93.097656 152 18-24-18-24h88v32h-32v16zm360 40c0 4.414062-3.59375 8-8 8h-272c-4.40625 0-8-3.585938-8-8v-40h288zm72-40h-56v-16h-32v-32h88l-18 24zm0 0"/><path d="m208 336h16v16h-16zm0 0"/><path d="m208 368h16v16h-16zm0 0"/></svg>