<svg height="496pt" viewBox="0 0 496 496" width="496pt" xmlns="http://www.w3.org/2000/svg"><path d="m72 424h352v64h-352zm0 0" fill="#f0bc5e"/><path d="m248 240c-35.289062 0-64 28.710938-64 64v16c0 35.289062 28.710938 64 64 64s64-28.710938 64-64v-16c0-35.289062-28.710938-64-64-64zm48 64v16c0 8.28125-2.105469 16.070312-5.808594 22.878906l-12.167968-12.167968c1.199218-3.367188 1.976562-6.933594 1.976562-10.710938v-16c0-3.777344-.777344-7.34375-1.976562-10.710938l12.167968-12.167968c3.703125 6.808594 5.808594 14.597656 5.808594 22.878906zm-90.191406 38.878906c-3.703125-6.808594-5.808594-14.597656-5.808594-22.878906v-16c0-8.28125 2.105469-16.070312 5.808594-22.878906l12.167968 12.167968c-1.199218 3.367188-1.976562 6.933594-1.976562 10.710938v16c0 3.777344.777344 7.34375 1.976562 10.710938zm26.191406-22.878906v-16c0-8.824219 7.175781-16 16-16s16 7.175781 16 16v16c0 8.824219-7.175781 16-16 16s-16-7.175781-16-16zm48.191406-51.503906-11.390625 11.390625c-5.609375-4.847657-12.824219-7.886719-20.800781-7.886719s-15.191406 3.039062-20.800781 7.886719l-11.390625-11.390625c8.527344-7.734375 19.800781-12.496094 32.191406-12.496094s23.664062 4.761719 32.191406 12.496094zm-64.382812 87.007812 11.390625-11.390625c5.609375 4.847657 12.824219 7.886719 20.800781 7.886719s15.191406-3.039062 20.800781-7.886719l11.390625 11.390625c-8.527344 7.734375-19.800781 12.496094-32.191406 12.496094s-23.664062-4.761719-32.191406-12.496094zm0 0"/><path d="m352 376c-13.230469 0-24-10.769531-24-24s10.769531-24 24-24 24 10.769531 24 24-10.769531 24-24 24zm0 0" fill="#f0bc5e"/><path d="m144 376c-13.230469 0-24-10.769531-24-24s10.769531-24 24-24 24 10.769531 24 24-10.769531 24-24 24zm0 0" fill="#f0bc5e"/><path d="m432 496h-368v-71.207031l-39.839844-199.226563 15.679688-3.132812 40.160156 201.566406v56h336l.160156-57.566406 40-200 15.679688 3.132812-39.839844 199.226563zm0 0"/><path d="m147.679688 260.761719-102.414063-37.242188 5.46875-15.039062 73.585937 26.757812-28.046874-105.175781 15.453124-4.125zm0 0"/><path d="m212.695312 206.183594-97.757812-79.992188 10.125-12.382812 78.242188 64.007812 31.128906-124.542968 15.527344 3.878906zm0 0"/><path d="m283.304688 206.183594-37.265626-149.03125 15.527344-3.878906 31.128906 124.542968 78.242188-64.007812 10.125 12.382812zm0 0"/><path d="m357.257812 260.910156 26.902344-134.476562 15.679688 3.132812-21.097656 105.523438 66.28125-26.523438 5.953124 14.867188zm0 0"/><g fill="#f0bc5e"><path d="m248 64c-17.648438 0-32-14.351562-32-32s14.351562-32 32-32 32 14.351562 32 32-14.351562 32-32 32zm0 0"/><path d="m104 136c-17.648438 0-32-14.351562-32-32s14.351562-32 32-32 32 14.351562 32 32-14.351562 32-32 32zm0 0"/><path d="m32 232c-17.648438 0-32-14.351562-32-32s14.351562-32 32-32 32 14.351562 32 32-14.351562 32-32 32zm0 0"/><path d="m392 136c-17.648438 0-32-14.351562-32-32s14.351562-32 32-32 32 14.351562 32 32-14.351562 32-32 32zm0 0"/><path d="m464 232c-17.648438 0-32-14.351562-32-32s14.351562-32 32-32 32 14.351562 32 32-14.351562 32-32 32zm0 0"/></g></svg>