<svg height="496pt" viewBox="0 0 496 496" width="496pt" xmlns="http://www.w3.org/2000/svg"><path d="m488 96v88s-24-24-64-24-72 16-104 16-56-8-56-8v-88s24 8 56 8 64-16 104-16 64 24 64 24zm0 0" fill="#f0bc5e"/><path d="m0 480h16v16h-16zm0 0"/><path d="m480 480h16v16h-16zm0 0"/><path d="m493.65625 42.34375c-1.082031-1.078125-26.832031-26.34375-69.65625-26.34375-22.046875 0-41.167969 4.511719-59.671875 8.878906-15.503906 3.65625-30.152344 7.121094-44.328125 7.121094-21.558594 0-39.433594-3.824219-48-6.039062v-1.960938c0-6.496094-2.527344-12.527344-6.984375-16.855469-4.488281-4.617187-10.519531-7.144531-17.015625-7.144531-13.230469 0-24 10.769531-24 24v344h-176v112h-16v16h432v-16h-16v-112h-176v-141.542969c10.367188 2.4375 27.574219 5.542969 48 5.542969 16.039062 0 31.566406-3.664062 48.007812-7.542969 17.601563-4.160156 35.816407-8.457031 55.992188-8.457031 35.960938 0 58.144531 21.464844 58.34375 21.65625l13.65625 13.65625v-206.625zm-245.65625-26.34375c2.136719 0 4.113281.824219 5.703125 2.457031 1.472656 1.429688 2.296875 3.40625 2.296875 5.542969v424h-16v-424c0-4.414062 3.585938-8 8-8zm184 368v96h-368v-96h160v64h-32v16h112v-16h-32v-64zm48-168.03125c-11.847656-7.375-31.023438-15.96875-56-15.96875-22.046875 0-41.167969 4.511719-59.671875 8.878906-15.503906 3.65625-30.152344 7.121094-44.328125 7.121094-21.558594 0-39.433594-3.824219-48-6.039062v-167.503907c10.367188 2.4375 27.574219 5.542969 48 5.542969 16.039062 0 31.566406-3.664062 48.007812-7.542969 17.601563-4.160156 35.816407-8.457031 55.992188-8.457031 29.265625 0 49.40625 14.214844 56 19.609375zm0 0"/></svg>