<svg height="512pt" viewBox="0 0 512 512" width="512pt" xmlns="http://www.w3.org/2000/svg"><g fill="#9cdd05"><path d="m166.167969 450.015625c-29.566407-20.421875-50.632813-40.699219-64.386719-61.984375l25.195312-16.292969c11.429688 17.667969 30.339844 35.703125 56.242188 53.574219zm0 0"/><path d="m73.695312 331.523438c-9.273437-25.929688-14.109374-52.855469-14.386718-80.019532l30.003906-.320312c.25 23.835937 4.496094 47.464844 12.628906 70.261718zm0 0"/><path d="m95.949219 205.59375-29.328125-6.269531c14.648437-68.59375 58.144531-113.613281 125.769531-130.210938l7.148437 29.152344c-56.476562 13.84375-91.328124 49.957031-103.589843 107.328125zm0 0"/><path d="m165.960938 512c-39.394532 0-69.894532-33.5625-71.183594-35l-8.964844-10.003906 8.964844-10.007813c1.289062-1.4375 31.789062-35 71.183594-35 39.394531 0 69.898437 33.566407 71.1875 35l8.964843 10.007813-8.964843 10.003906c-1.289063 1.4375-31.792969 35-71.1875 35zm0 0"/><path d="m92.449219 398.578125c-15.675781 0-35.878907-2.886719-52.800781-14.722656-32.289063-22.605469-38.015626-67.59375-38.25-69.5l-1.398438-13.332031 12.882812-3.0625c1.859376-.425782 46.074219-10.445313 78.378907 12.144531 32.273437 22.605469 38 67.597656 38.234375 69.5l1.597656 13.332031-13.082031 3.0625c-.878907.203125-11.355469 2.578125-25.5625 2.578125zm0 0"/><path d="m82.824219 269.597656-12.863281-3.894531c-1.832032-.558594-45.152344-14.003906-61.796876-49.707031-16.640624-35.71875.882813-77.542969 1.644532-79.316406l5.273437-12.351563 12.859375 3.898437c1.832032.554688 45.152344 14.003907 61.796875 49.707032 16.640625 35.714844-.878906 77.542968-1.640625 79.316406zm0 0"/><path d="m105.953125 157.101562-10.003906-8.964843c-1.4375-1.292969-35-31.792969-35-71.1875s33.566406-66.894531 35-68.183594l10.003906-8.765625 10.007813 8.765625c1.4375 1.289063 35 28.789063 35 68.183594s-33.566407 69.898437-35 71.1875zm0 0"/></g><path d="m345.804688 450.015625-17.050782-24.699219c25.898438-17.875 44.8125-35.910156 56.242188-53.578125l25.195312 16.292969c-13.753906 21.285156-34.820312 41.5625-64.386718 61.984375zm0 0" fill="#6b0"/><path d="m294.378906 481.394531-16.503906 8.699219c-5.402344 3.003906-10.5 5.40625-14.703125 7.800781l-7.199219 4.203125-7.203125-4.203125c-4.199219-2.398437-9.300781-5.097656-15-8.097656l-15.902343-8.402344 14.402343-26.402343 15.601563 8.402343c2.699218 1.5 5.699218 3 8.101562 4.5 2.402344-1.5 5.097656-3 7.800782-4.5l16.199218-8.402343zm0 0" fill="#9cdd05"/><path d="m438.277344 331.523438-28.246094-10.078126c8.132812-22.796874 12.378906-46.425781 12.628906-70.261718l30.003906.320312c-.277343 27.164063-5.113281 54.089844-14.386718 80.019532zm0 0" fill="#6b0"/><path d="m416.023438 205.59375c-12.261719-57.371094-47.128907-93.496094-103.617188-107.339844l7.148438-29.15625c67.652343 16.601563 111.148437 61.632813 125.796874 130.226563zm0 0" fill="#6b0"/><path d="m346.011719 512c-39.394531 0-69.894531-33.5625-71.1875-35l-8.964844-10.003906 8.964844-10.007813c1.292969-1.4375 31.792969-35 71.1875-35s69.894531 33.566407 71.183593 35l8.96875 10.007813-8.96875 10.003906c-1.289062 1.4375-31.789062 35-71.183593 35zm0 0" fill="#6b0"/><path d="m419.527344 398.578125c-14.210938 0-24.6875-2.375-25.566406-2.578125l-13.082032-3.0625 1.597656-13.332031c.234376-1.902344 5.960938-46.894531 38.222657-69.5 32.300781-22.5625 76.558593-12.570313 78.390625-12.144531l12.882812 3.0625-1.398437 13.332031c-.230469 1.902343-5.976563 46.894531-38.234375 69.5-16.9375 11.835937-37.152344 14.722656-52.8125 14.722656zm0 0" fill="#6b0"/><path d="m429.152344 269.597656-5.273438-12.347656c-.765625-1.773438-18.285156-43.601562-1.644531-79.316406 16.644531-35.703125 59.964844-49.152344 61.796875-49.707032l12.859375-3.898437 5.273437 12.351563c.765626 1.773437 18.285157 43.597656 1.644532 79.316406-16.644532 35.703125-59.964844 49.148437-61.796875 49.707031zm0 0" fill="#6b0"/><path d="m406.019531 157.101562-10.007812-8.964843c-1.4375-1.292969-35-31.792969-35-71.1875s33.566406-66.894531 35-68.183594l10.007812-8.765625 10.003907 8.765625c1.4375 1.289063 35 28.789063 35 68.183594s-33.5625 69.898437-35 71.1875zm0 0" fill="#6b0"/><path d="m354.984375 165.460938h-24.003906v-20.703126c-21.601563-14.402343-47.105469-22.800781-75.007813-22.800781s-53.40625 8.398438-75.007812 22.800781l2.398437 20.703126h-26.402343c-22.5 24.003906-36.003907 56.105468-36.003907 91.511718 0 35.402344 13.503907 67.507813 36.003907 91.507813l26.402343-3.300781-2.398437 24.003906c21.601562 14.402344 47.105468 22.804687 75.007812 22.804687s53.40625-8.402343 75.007813-22.804687v-19.804688l24.003906-.898437c22.5-24.003907 36.003906-56.105469 36.003906-91.511719 0-35.402344-13.503906-67.503906-36.003906-91.507812zm0 0" fill="#efe2dd"/><path d="m390.988281 256.972656c0 35.402344-13.503906 67.507813-36.003906 91.507813l-24.003906.898437v19.804688c-21.601563 14.402344-47.105469 22.804687-75.007813 22.804687v-270.03125c27.902344 0 53.40625 8.398438 75.007813 22.800781v20.703126h24.003906c22.5 24.003906 36.003906 56.105468 36.003906 91.511718zm0 0" fill="#cdbfba"/><path d="m240.96875 256.972656c0 46.503906-23.699219 87.910156-60.003906 112.210938-9.003906-6-16.804688-12.902344-24.003906-20.703125 32.40625-18 54.007812-52.503907 54.007812-91.507813 0-38.707031-21.003906-73.511718-54.007812-91.511718 7.199218-7.800782 15-14.703126 24.003906-20.703126 36.902344 24.601563 60.003906 66.308594 60.003906 112.214844zm0 0" fill="#ff641a"/><path d="m354.984375 348.480469c-7.203125 7.800781-15.003906 14.703125-24.003906 20.703125-37.203125-24.605469-60.007813-66.609375-60.007813-112.214844 0-46.203125 23.703125-87.609375 60.007813-112.210938 9 6 16.800781 12.902344 24.003906 20.703126-32.40625 18-54.007813 52.804687-54.007813 91.507812 0 38.40625 20.703126 73.511719 54.007813 91.511719zm0 0" fill="#f03800"/><path d="m294.378906 481.394531-16.503906 8.699219c-5.402344 3.003906-10.5 5.40625-14.703125 7.800781l-7.199219 4.203125v-34.203125c2.402344-1.5 5.097656-3 7.800782-4.5l16.199218-8.402343zm0 0" fill="#6b0"/></svg>