<svg height="496pt" viewBox="0 0 496 496" width="496pt" xmlns="http://www.w3.org/2000/svg"><g fill="#f0bc5e"><path d="m48 104h200v64h-200zm0 0"/><path d="m48 288h128v176h-128zm0 0"/><path d="m192 40h176v32h-176zm0 0"/></g><path d="m176 80h-128v-48h128zm-112-16h96v-16h-96zm0 0"/><path d="m192 32h176v16h-176zm0 0"/><path d="m192 64h176v16h-176zm0 0"/><path d="m48 96h200v16h-200zm0 0"/><path d="m48 128h200v16h-200zm0 0"/><path d="m48 160h200v16h-200zm0 0"/><path d="m432 314.246094h-16v90.441406l-24-24-24 24v-90.441406h-16v129.066406l32-32v68.6875h-352v-208h274.878906v-16h-282.878906c-4.40625 0-8-3.585938-8-8v-16c0-4.414062 3.59375-8 8-8h282.878906v-16h-274.878906v-192h352v128h16v-144h-384v209.472656c-9.289062 3.3125-16 12.113282-16 22.527344v16c0 10.414062 6.710938 19.214844 16 22.527344v225.472656h384v-84.6875l32 32zm0 0"/><path d="m192 392c0 39.703125 32.304688 72 72 72s72-32.296875 72-72-32.304688-72-72-72-72 32.296875-72 72zm128 0c0 30.871094-25.121094 56-56 56s-56-25.128906-56-56 25.121094-56 56-56 56 25.128906 56 56zm0 0"/><path d="m48 448h96v16h-96zm0 0"/><path d="m48 416h128v16h-128zm0 0"/><path d="m48 384h128v16h-128zm0 0"/><path d="m48 288h16v16h-16zm0 0"/><path d="m80 288h96v16h-96zm0 0"/><path d="m496 239.609375c0-14.511719-7.824219-27.464844-20.136719-34.351563 3.824219-13.59375.128907-28.347656-10.605469-39.082031-10.257812-10.265625-24.945312-13.871093-38.515624-10.054687-6.910157-12.296875-19.964844-20.121094-35.132813-20.121094-14.511719 0-27.464844 7.824219-34.363281 20.128906-13.550782-3.808594-28.335938-.121094-39.070313 10.613282-10.265625 10.265624-13.878906 24.945312-10.054687 38.515624-12.296875 6.910157-20.121094 19.964844-20.121094 35.132813 0 14.511719 7.824219 27.464844 20.136719 34.351563-3.824219 13.59375-.128907 28.347656 10.605469 39.082031 10.265624 10.265625 24.96875 13.894531 38.515624 10.054687 6.910157 12.296875 19.964844 20.121094 35.132813 20.121094 14.511719 0 27.464844-7.824219 34.351563-20.136719 13.609374 3.847657 28.347656.128907 39.082031-10.605469 10.265625-10.265624 13.878906-24.945312 10.054687-38.515624 12.296875-6.910157 20.121094-19.964844 20.121094-35.132813zm0 0" fill="#f0bc5e"/><path d="m392 312c-39.695312 0-72-32.296875-72-72s32.304688-72 72-72 72 32.296875 72 72-32.304688 72-72 72zm0-128c-30.878906 0-56 25.128906-56 56s25.121094 56 56 56 56-25.128906 56-56-25.121094-56-56-56zm0 0"/><path d="m392 280c-22.054688 0-40-17.945312-40-40s17.945312-40 40-40 40 17.945312 40 40-17.945312 40-40 40zm0-64c-13.230469 0-24 10.769531-24 24s10.769531 24 24 24 24-10.769531 24-24-10.769531-24-24-24zm0 0"/><path d="m48 352h128v16h-128zm0 0"/><path d="m48 320h128v16h-128zm0 0"/></svg>