<svg height="496pt" viewBox="0 0 496 496.06166" width="496pt" xmlns="http://www.w3.org/2000/svg"><path d="m240.054688 72.039062h16v135.3125h-16zm0 0"/><path d="m72.054688 240.039062h112v16h-112zm0 0"/><path d="m240.054688 288.726562h16v135.3125h-16zm0 0"/><path d="m320.054688 240.039062h104v16h-104zm0 0"/><path d="m67.035156 78.332031 11.316406-11.3125 22.625 22.628907-11.3125 11.3125zm0 0"/><path d="m100.976562 112.277344 11.3125-11.3125 22.628907 22.625-11.3125 11.3125zm0 0"/><path d="m100.976562 89.644531 22.628907-22.628906 11.3125 11.3125-22.625 22.628906zm0 0"/><path d="m67.035156 123.582031 22.625-22.625 11.316406 11.3125-22.628906 22.628907zm0 0"/><path d="m134.925781 146.214844 11.3125-11.3125 72.636719 72.640625-11.3125 11.3125zm0 0"/><path d="m67.035156 417.742188 22.628906-22.628907 11.3125 11.3125-22.628906 22.628907zm0 0"/><path d="m100.980469 383.800781 22.625-22.628906 11.3125 11.316406-22.625 22.625zm0 0"/><path d="m67.035156 372.492188 11.316406-11.316407 22.625 22.628907-11.3125 11.3125zm0 0"/><path d="m100.972656 406.429688 11.3125-11.316407 22.628906 22.628907-11.316406 11.3125zm0 0"/><path d="m134.921875 349.855469 72.648437-72.652344 11.316407 11.316406-72.652344 72.648438zm0 0"/><path d="m395.128906 406.429688 11.3125-11.316407 22.628906 22.628907-11.3125 11.3125zm0 0"/><path d="m361.191406 372.492188 11.316406-11.316407 22.625 22.628907-11.3125 11.3125zm0 0"/><path d="m361.191406 417.738281 22.628906-22.625 11.3125 11.3125-22.625 22.628907zm0 0"/><path d="m395.128906 383.804688 22.628906-22.625 11.3125 11.3125-22.628906 22.625zm0 0"/><path d="m277.234375 288.527344 11.3125-11.3125 72.640625 72.640625-11.316406 11.3125zm0 0"/><path d="m395.128906 89.648438 22.628906-22.628907 11.3125 11.316407-22.628906 22.625zm0 0"/><path d="m361.191406 123.582031 22.628906-22.625 11.3125 11.3125-22.628906 22.625zm0 0"/><path d="m395.132812 112.277344 11.3125-11.316406 22.628907 22.628906-11.3125 11.3125zm0 0"/><path d="m361.191406 78.332031 11.316406-11.3125 22.625 22.628907-11.3125 11.3125zm0 0"/><path d="m277.234375 207.546875 72.640625-72.636719 11.3125 11.3125-72.636719 72.640625zm0 0"/><path d="m120.054688 176.039062h16v16h-16zm0 0"/><path d="m120.054688 208.039062h16v16h-16zm0 0"/><path d="m136.054688 192.039062h16v16h-16zm0 0"/><path d="m104.054688 192.039062h16v16h-16zm0 0"/><path d="m286.585938 32.507812c-1.90625-.664062-4.832032-1.703124-6.425782-2.503906.054688-1.71875.566406-4.644531.902344-6.550781 1.289062-7.375 3.058594-17.472656-5.140625-21.992187-7.648437-4.214844-15.257813 1.6875-21.363281 6.449218-1.878906 1.464844-4.910156 3.832032-6.503906 4.566406-1.589844-.734374-4.621094-3.109374-6.519532-4.582031-6.09375-4.761719-13.703125-10.679687-21.335937-6.441406-8.207031 4.503906-6.445313 14.617187-5.160157 21.992187.335938 1.90625.847657 4.832032.90625 6.550782-1.585937.808594-4.519531 1.839844-6.433593 2.503906-7.777344 2.753906-17.457031 6.167969-17.457031 15.539062 0 9.375 9.6875 12.789063 17.472656 15.527344 1.90625.664063 4.832031 1.703125 6.425781 2.503906-.058594 1.71875-.570313 4.648438-.90625 6.550782-1.285156 7.375-3.054687 17.472656 5.144531 21.992187 7.65625 4.222657 15.25-1.6875 21.359375-6.449219 1.890625-1.476562 4.921875-3.839843 6.511719-4.574218 1.59375.734375 4.625 3.113281 6.523438 4.582031 4.621093 3.609375 10.109374 7.890625 15.832031 7.890625 1.820312 0 3.652343-.433594 5.503906-1.457031 8.207031-4.503907 6.445313-14.617188 5.160156-21.992188-.339843-1.902343-.851562-4.832031-.90625-6.550781 1.585938-.808594 4.519531-1.839844 6.433594-2.503906 7.765625-2.738282 17.445313-6.152344 17.445313-15.519532 0-9.378906-9.6875-12.792968-17.46875-15.53125zm0 0" fill="#f0bc5e"/><path d="m281.894531 320.125c-7.445312 0-14.789062-6.917969-21.941406-13.671875-3.664063-3.457031-9.800781-9.230469-12.175781-9.75-1.824219.511719-7.953125 6.292969-11.617188 9.75-9.152344 8.625-18.59375 17.542969-28.167968 11.914063-9.640626-5.679688-6.71875-18.625-3.894532-31.152344 1.09375-4.832032 2.910156-12.914063 2.214844-15.183594-1.167969-.9375-8.617188-3.234375-13.0625-4.609375-11.808594-3.640625-25.195312-7.769531-25.195312-19.382813 0-11.617187 13.386718-15.746093 25.183593-19.386718 4.449219-1.375 11.890625-3.671875 13.457031-5.269532.304688-1.617187-1.511718-9.707031-2.605468-14.527343-2.824219-12.523438-5.746094-25.472657 3.894531-31.144531 9.542969-5.601563 19.023437 3.277343 28.167969 11.910156 3.664062 3.457031 9.800781 9.234375 12.175781 9.753906 1.824219-.511719 7.953125-6.296875 11.617187-9.753906 9.144532-8.632813 18.582032-17.550782 28.167969-11.910156 9.640625 5.679687 6.71875 18.621093 3.894531 31.152343-1.097656 4.832031-2.910156 12.910157-2.214843 15.183594 1.167969.933594 8.613281 3.230469 13.0625 4.605469 11.816406 3.640625 25.199219 7.769531 25.199219 19.386718 0 11.613282-13.382813 15.742188-25.183594 19.382813-4.445313 1.375-11.886719 3.671875-13.453125 5.273437-.304688 1.613282 1.511719 9.703126 2.605469 14.527344 2.824218 12.519532 5.746093 25.472656-3.894532 31.144532-2.082031 1.214843-4.160156 1.757812-6.234375 1.757812zm0 0" fill="#f0bc5e"/><path d="m288.054688 104.039062h16v16h-16zm0 0"/><path d="m83.617188 248.039062c.734374-1.59375 3.109374-4.625 4.582031-6.519531 4.753906-6.097656 10.671875-13.683593 6.441406-21.335937-4.496094-8.21875-14.617187-6.425782-21.992187-5.160156-1.90625.335937-4.832032.847656-6.550782.902343-.808594-1.585937-1.839844-4.519531-2.503906-6.433593-2.753906-7.773438-6.167969-17.453126-15.539062-17.453126-9.375 0-12.789063 9.6875-15.527344 17.46875-.664063 1.90625-1.703125 4.832032-2.503906 6.425782-1.71875-.054688-4.648438-.566406-6.550782-.902344-7.390625-1.28125-17.480468-3.050781-21.992187 5.140625-4.222657 7.671875 1.6875 15.257813 6.449219 21.363281 1.476562 1.886719 3.839843 4.917969 4.574218 6.511719-.734375 1.589844-3.113281 4.621094-4.582031 6.519531-4.753906 6.09375-10.671875 13.679688-6.441406 21.335938 4.503906 8.207031 14.625 6.429687 21.992187 5.160156 1.902344-.335938 4.832032-.847656 6.550782-.90625.808593 1.585938 1.839843 4.519531 2.503906 6.433594 2.746094 7.769531 6.160156 17.449218 15.527344 17.449218 9.378906 0 12.792968-9.6875 15.53125-17.472656.664062-1.90625 1.703124-4.832031 2.503906-6.425781 1.71875.058594 4.644531.570313 6.550781.90625 7.390625 1.285156 17.480469 3.046875 21.992187-5.144531 4.222657-7.671875-1.6875-15.257813-6.449218-21.359375-1.464844-1.882813-3.832032-4.914063-4.566406-6.503907zm0 0" fill="#f0bc5e"/><path d="m288.054688 136.039062h16v16h-16zm0 0"/><path d="m286.585938 432.507812c-1.90625-.664062-4.832032-1.703124-6.425782-2.503906.054688-1.71875.566406-4.644531.902344-6.550781 1.289062-7.375 3.058594-17.472656-5.140625-21.992187-7.648437-4.207032-15.257813 1.695312-21.363281 6.449218-1.886719 1.480469-4.917969 3.839844-6.511719 4.574219-1.589844-.734375-4.621094-3.109375-6.519531-4.582031-6.09375-4.761719-13.703125-10.679688-21.335938-6.441406-8.207031 4.503906-6.449218 14.617187-5.160156 21.992187.335938 1.90625.847656 4.832031.90625 6.550781-1.585938.808594-4.519531 1.839844-6.433594 2.503906-7.769531 2.746094-17.449218 6.160157-17.449218 15.53125 0 9.375 9.6875 12.789063 17.472656 15.527344 1.90625.664063 4.832031 1.703125 6.425781 2.503906-.058594 1.71875-.570313 4.648438-.90625 6.550782-1.285156 7.375-3.054687 17.472656 5.144531 21.992187 7.65625 4.214844 15.25-1.6875 21.359375-6.449219 1.890625-1.476562 4.921875-3.839843 6.511719-4.574218 1.59375.734375 4.625 3.113281 6.523438 4.582031 4.621093 3.609375 10.109374 7.890625 15.832031 7.890625 1.820312 0 3.652343-.433594 5.503906-1.457031 8.207031-4.503907 6.445313-14.617188 5.160156-21.992188-.339843-1.902343-.851562-4.832031-.90625-6.550781 1.585938-.808594 4.519531-1.839844 6.433594-2.503906 7.765625-2.738282 17.445313-6.152344 17.445313-15.519532 0-9.378906-9.6875-12.792968-17.46875-15.53125zm0 0" fill="#f0bc5e"/><path d="m304.054688 120.039062h16v16h-16zm0 0"/><path d="m483.617188 248.039062c.734374-1.59375 3.109374-4.625 4.582031-6.519531 4.753906-6.097656 10.671875-13.683593 6.441406-21.335937-4.496094-8.21875-14.625-6.425782-21.992187-5.160156-1.90625.335937-4.832032.847656-6.550782.902343-.808594-1.585937-1.839844-4.519531-2.503906-6.433593-2.753906-7.773438-6.167969-17.453126-15.539062-17.453126-9.375 0-12.789063 9.6875-15.527344 17.46875-.664063 1.90625-1.703125 4.832032-2.503906 6.425782-1.71875-.054688-4.648438-.566406-6.550782-.902344-7.382812-1.28125-17.472656-3.050781-21.992187 5.140625-4.222657 7.671875 1.6875 15.257813 6.449219 21.363281 1.476562 1.886719 3.839843 4.917969 4.574218 6.511719-.734375 1.589844-3.113281 4.621094-4.582031 6.519531-4.753906 6.09375-10.671875 13.679688-6.441406 21.335938 4.503906 8.207031 14.625 6.429687 21.992187 5.160156 1.902344-.335938 4.832032-.847656 6.550782-.90625.808593 1.585938 1.839843 4.519531 2.503906 6.433594 2.746094 7.769531 6.160156 17.449218 15.527344 17.449218 9.378906 0 12.792968-9.6875 15.53125-17.472656.664062-1.90625 1.703124-4.832031 2.503906-6.425781 1.71875.058594 4.644531.570313 6.550781.90625 7.382813 1.285156 17.480469 3.046875 21.992187-5.144531 4.222657-7.671875-1.6875-15.257813-6.449218-21.359375-1.464844-1.882813-3.832032-4.914063-4.566406-6.503907zm0 0" fill="#f0bc5e"/><path d="m272.054688 120.039062h16v16h-16zm0 0"/><path d="m288.054688 344.039062h16v16h-16zm0 0"/><path d="m288.054688 376.039062h16v16h-16zm0 0"/><path d="m304.054688 360.039062h16v16h-16zm0 0"/><path d="m272.054688 360.039062h16v16h-16zm0 0"/></svg>