<svg height="496pt" viewBox="0 0 496 496" width="496pt" xmlns="http://www.w3.org/2000/svg"><path d="m272.335938 480h-16.335938v-80h-16v80h-16.335938l-4.472656-104.34375-15.984375.6875 5.128907 119.65625h79.328124l5.128907-119.65625-15.984375-.6875zm0 0"/><path d="m372.007812 375.710938-3.726562 104.289062h-16.28125v-80h-16v80h-16.28125l-3.726562-104.289062-15.984376.578124 4.273438 119.710938h79.4375l4.273438-119.710938zm0 0"/><path d="m176.28125 480h-16.28125v-80h-16v80h-16.28125l-3.726562-104.289062-15.984376.578124 4.273438 119.710938h79.4375l4.273438-119.710938-15.984376-.578124zm0 0"/><g fill="#f0bc5e"><path d="m40 328h416v56h-416zm0 0"/><path d="m221.183594 144.128906c-1.671875 0-3.390625-.449218-5.160156-1.457031-9.207032-5.246094-4.6875-16.953125-.3125-28.273437 1.097656-2.832032 2.730468-7.054688 3.511718-9.902344-2.839844-.710938-7.238281-1.398438-10.191406-1.863282-12.304688-1.929687-25.03125-3.921874-25.03125-14.632812s12.726562-12.703125 25.039062-14.625c2.953126-.472656 7.351563-1.160156 10.191407-1.863281-.789063-2.847657-2.421875-7.078125-3.511719-9.910157-4.375-11.3125-8.894531-23.015624.304688-28.265624 8.929687-5.039063 16.382812 3.9375 24.289062 13.480468 2.167969 2.589844 5.464844 6.558594 7.6875 8.632813 2.222656-2.074219 5.519531-6.042969 7.6875-8.640625 7.914062-9.535156 15.417969-18.535156 24.28125-13.480469 9.207031 5.246094 4.6875 16.953125.3125 28.273437-1.097656 2.832032-2.730469 7.054688-3.511719 9.902344 2.839844.710938 7.238281 1.398438 10.191407 1.863282 12.3125 1.929687 25.039062 3.921874 25.039062 14.632812s-12.726562 12.703125-25.039062 14.625c-2.953126.472656-7.351563 1.160156-10.191407 1.863281.789063 2.847657 2.421875 7.078125 3.511719 9.910157 4.375 11.3125 8.894531 23.015624-.304688 28.265624-8.921874 5.023438-16.382812-3.945312-24.289062-13.480468-2.167969-2.597656-5.464844-6.566406-7.6875-8.640625-2.222656 2.074219-5.519531 6.042969-7.6875 8.640625-6.335938 7.648437-12.402344 14.945312-19.128906 14.945312zm0 0"/><path d="m77.183594 144.128906c-1.671875 0-3.390625-.449218-5.160156-1.457031-9.207032-5.246094-4.6875-16.953125-.3125-28.273437 1.097656-2.832032 2.730468-7.054688 3.511718-9.902344-2.839844-.710938-7.238281-1.398438-10.191406-1.863282-12.304688-1.929687-25.03125-3.921874-25.03125-14.632812s12.726562-12.703125 25.039062-14.625c2.953126-.472656 7.351563-1.160156 10.191407-1.863281-.789063-2.847657-2.421875-7.078125-3.511719-9.910157-4.375-11.3125-8.894531-23.015624.304688-28.265624 8.921874-5.039063 16.375 3.9375 24.289062 13.480468 2.167969 2.589844 5.464844 6.558594 7.6875 8.632813 2.222656-2.074219 5.519531-6.042969 7.6875-8.640625 7.914062-9.535156 15.425781-18.535156 24.28125-13.480469 9.207031 5.246094 4.6875 16.953125.3125 28.273437-1.097656 2.832032-2.730469 7.054688-3.511719 9.902344 2.839844.710938 7.238281 1.398438 10.191407 1.863282 12.3125 1.929687 25.039062 3.921874 25.039062 14.632812s-12.726562 12.703125-25.039062 14.625c-2.953126.472656-7.351563 1.160156-10.191407 1.863281.789063 2.847657 2.421875 7.078125 3.511719 9.910157 4.375 11.3125 8.894531 23.015624-.304688 28.265624-8.929687 5.023438-16.382812-3.945312-24.289062-13.480468-2.167969-2.597656-5.464844-6.566406-7.6875-8.640625-2.222656 2.074219-5.519531 6.042969-7.6875 8.640625-6.335938 7.648437-12.402344 14.945312-19.128906 14.945312zm0 0"/><path d="m365.183594 144.128906c-1.671875 0-3.390625-.449218-5.160156-1.457031-9.207032-5.246094-4.6875-16.953125-.3125-28.273437 1.097656-2.832032 2.730468-7.054688 3.511718-9.902344-2.839844-.710938-7.238281-1.398438-10.191406-1.863282-12.304688-1.929687-25.03125-3.921874-25.03125-14.632812s12.726562-12.703125 25.039062-14.625c2.953126-.472656 7.351563-1.160156 10.191407-1.863281-.789063-2.847657-2.421875-7.078125-3.511719-9.910157-4.375-11.3125-8.894531-23.015624.304688-28.265624 8.929687-5.039063 16.382812 3.9375 24.289062 13.480468 2.167969 2.589844 5.464844 6.558594 7.6875 8.632813 2.222656-2.074219 5.519531-6.042969 7.6875-8.640625 7.914062-9.535156 15.425781-18.535156 24.28125-13.480469 9.207031 5.246094 4.6875 16.953125.3125 28.273437-1.097656 2.832032-2.730469 7.054688-3.511719 9.902344 2.839844.710938 7.238281 1.398438 10.191407 1.863282 12.3125 1.929687 25.039062 3.921874 25.039062 14.632812s-12.726562 12.703125-25.039062 14.625c-2.953126.472656-7.351563 1.160156-10.191407 1.863281.789063 2.847657 2.421875 7.078125 3.511719 9.910157 4.375 11.3125 8.894531 23.015624-.304688 28.265624-8.921874 5.023438-16.382812-3.945312-24.289062-13.480468-2.167969-2.597656-5.464844-6.566406-7.6875-8.640625-2.222656 2.074219-5.519531 6.042969-7.6875 8.640625-6.335938 7.648437-12.402344 14.945312-19.128906 14.945312zm0 0"/></g><path d="m488 288v-288h-480v288h-8v208h48v-160h400v160h48v-208zm-464-272h448v144h-448zm8 464h-16v-176h16zm108.023438-211.351562c-7.527344-4.382813-12.023438-12.105469-12.023438-20.648438v-16c0-6.703125 2.832031-13.160156 7.792969-17.695312 5.007812-4.59375 11.574219-6.769532 18.382812-6.207032 12.238281 1.0625 21.824219 12.285156 21.824219 25.566406v14.335938c0 8.542969-4.496094 16.265625-12.023438 20.648438l-3.976562 2.3125v22.453124l24.910156 9.96875c1.59375.640626 3.058594 1.472657 4.449219 2.410157-2.480469 4.335937-4.183594 9.136719-4.925781 14.207031h-79.707032c1.792969-7.441406 7-13.679688 14.351563-16.617188l24.921875-9.96875v-22.453124zm96 0c-7.527344-4.382813-12.023438-12.105469-12.023438-20.648438v-16c0-6.703125 2.832031-13.160156 7.792969-17.695312 5.007812-4.59375 11.574219-6.769532 18.382812-6.207032 12.238281 1.0625 21.824219 12.285156 21.824219 25.566406v14.335938c0 8.542969-4.496094 16.265625-12.023438 20.648438l-3.976562 2.3125v22.453124l24.910156 9.96875c7.355469 2.945313 12.5625 9.175782 14.355469 16.617188h-94.53125c1.792969-7.441406 7-13.679688 14.355469-16.617188l24.910156-9.96875v-22.453124zm70.617187 37.152343c1.398437-.945312 2.871094-1.792969 4.449219-2.417969l24.910156-9.96875v-22.453124l-3.976562-2.3125c-7.527344-4.382813-12.023438-12.105469-12.023438-20.648438v-16c0-6.703125 2.832031-13.160156 7.792969-17.695312 5.007812-4.59375 11.542969-6.769532 18.382812-6.207032 12.238281 1.0625 21.824219 12.285156 21.824219 25.566406v14.335938c0 8.542969-4.496094 16.265625-12.023438 20.648438l-3.976562 2.3125v22.453124l24.910156 9.96875c7.355469 2.945313 12.5625 9.175782 14.355469 16.617188h-79.707031c-.734375-5.070312-2.4375-9.863281-4.917969-14.199219zm100.933594 14.199219c-1.972657-14.070312-11.222657-26.078125-24.726563-31.480469l-14.847656-5.933593v-2.753907c9.96875-7.511719 16-19.328125 16-31.832031v-14.335938c0-21.503906-16.007812-39.726562-36.441406-41.503906-11.238282-.992187-22.351563 2.800782-30.582032 10.351563-8.25 7.558593-12.976562 18.3125-12.976562 29.488281v16c0 12.503906 6.03125 24.320312 16 31.832031v2.753907l-14.847656 5.933593c-3.273438 1.3125-6.335938 3.105469-9.152344 5.214844-2.777344-2.078125-5.800781-3.878906-9.144531-5.214844l-14.855469-5.933593v-2.753907c9.96875-7.511719 16-19.328125 16-31.832031v-14.335938c0-21.503906-16.007812-39.726562-36.441406-41.503906-11.238282-.992187-22.351563 2.800782-30.582032 10.351563-8.25 7.558593-12.976562 18.3125-12.976562 29.488281v16c0 12.503906 6.03125 24.320312 16 31.832031v2.753907l-14.847656 5.933593c-3.335938 1.335938-6.367188 3.136719-9.144532 5.214844-2.816406-2.117187-5.878906-3.902344-9.152343-5.214844l-14.855469-5.933593v-2.753907c9.96875-7.511719 16-19.328125 16-31.832031v-14.335938c0-21.503906-16.007812-39.726562-36.441406-41.503906-11.230469-.992187-22.351563 2.800782-30.582032 10.351563-8.25 7.558593-12.976562 18.3125-12.976562 29.488281v16c0 12.503906 6.03125 24.320312 16 31.832031v2.753907l-14.847656 5.933593c-13.503906 5.402344-22.753906 17.410157-24.726563 31.480469h-40.425781v-32h-24v-112h448v112h-24v32zm72.425781 160h-16v-176h16zm0 0"/></svg>