<svg height="496pt" viewBox="0 0 496 496" width="496pt" xmlns="http://www.w3.org/2000/svg"><path d="m488 96h8v-96h-496v96h8c13.230469 0 24 10.769531 24 24s-10.769531 24-24 24h-8v96h136v-40c0-8.839844 7.160156-16 16-16 17.671875 0 32 14.328125 32 32v24h312v-96h-8c-13.230469 0-24-10.769531-24-24s10.769531-24 24-24zm-240 104c-44.183594 0-80-35.816406-80-80s35.816406-80 80-80 80 35.816406 80 80-35.816406 80-80 80zm0 0" fill="#f0bc5e"/><path d="m344 400h-16v-43.3125l2.34375-2.34375c13.96875-13.96875 21.65625-32.535156 21.65625-52.289062v-62.054688h16v62.054688c0 22.898437-8.496094 44.488281-24 61.167968zm0 0"/><path d="m360 448h-224v-48h224zm0 0" fill="#f0bc5e"/><path d="m168 400h-16v-20.777344c-15.503906-16.679687-24-38.269531-24-61.167968v-118.054688c0-13.230469 10.769531-24 24-24 22.054688 0 40 17.945312 40 40v44.121094c20.113281 16.613281 32 41.6875 32 67.878906h-16c0-22.542969-10.769531-44.070312-28.800781-57.601562l-3.199219-2.398438v-52c0-13.230469-10.769531-24-24-24-4.40625 0-8 3.59375-8 8v118.054688c0 19.753906 7.6875 38.320312 21.65625 52.289062l2.34375 2.34375zm0 0"/><path d="m344 496h-192v-48h16v32h160v-32h16zm0 0"/><path d="m248 208c-48.519531 0-88-39.480469-88-88s39.480469-88 88-88 88 39.480469 88 88-39.480469 88-88 88zm0-160c-39.695312 0-72 32.304688-72 72s32.304688 72 72 72 72-32.304688 72-72-32.304688-72-72-72zm0 0"/><path d="m264 160h-16v-70.382812l-19.558594 13.039062-8.882812-13.3125 26.015625-17.34375h18.425781zm0 0"/><path d="m80 8h16v32h-16zm0 0"/><path d="m80 56h16v32h-16zm0 0"/><path d="m80 104h16v32h-16zm0 0"/><path d="m80 152h16v32h-16zm0 0"/><path d="m80 200h16v32h-16zm0 0"/><path d="m400 8h16v32h-16zm0 0"/><path d="m400 56h16v32h-16zm0 0"/><path d="m400 104h16v32h-16zm0 0"/><path d="m400 152h16v32h-16zm0 0"/><path d="m400 200h16v32h-16zm0 0"/><path d="m432 312h16v16h-16zm0 0"/><path d="m432 344h16v16h-16zm0 0"/><path d="m448 328h16v16h-16zm0 0"/><path d="m416 328h16v16h-16zm0 0"/><path d="m56 256h16v16h-16zm0 0"/><path d="m56 288h16v16h-16zm0 0"/><path d="m72 272h16v16h-16zm0 0"/><path d="m40 272h16v16h-16zm0 0"/><path d="m32 432h16v16h-16zm0 0"/><path d="m32 464h16v16h-16zm0 0"/><path d="m48 448h16v16h-16zm0 0"/><path d="m16 448h16v16h-16zm0 0"/><path d="m392 432h16v16h-16zm0 0"/><path d="m392 464h16v16h-16zm0 0"/><path d="m408 448h16v16h-16zm0 0"/><path d="m376 448h16v16h-16zm0 0"/></svg>