<svg height="496pt" viewBox="0 0 496 496" width="496pt" xmlns="http://www.w3.org/2000/svg"><path d="m384 104v-16h-33.472656c-3.3125-9.289062-12.113282-16-22.527344-16h-32c-10.414062 0-19.214844 6.710938-22.527344 16h-41.472656c-22.054688 0-40-17.945312-40-40v-48h-16c-17.648438 0-32 14.351562-32 32v40h-96c-13.230469 0-24 10.769531-24 24 0 2.816406.574219 5.488281 1.472656 8h-1.472656c-13.230469 0-24 10.769531-24 24 0 11.0625 7.558594 20.3125 17.761719 23.070312-1.113281 2.769532-1.761719 5.769532-1.761719 8.929688 0 11.0625 7.558594 20.3125 17.761719 23.070312-1.113281 2.769532-1.761719 5.769532-1.761719 8.929688 0 13.230469 10.769531 24 24 24h130.464844c13.253906 0 26.222656-2.289062 38.695312-6.558594l9.3125 79.734375 15.886719-1.847656-9.710937-83.214844c9.367187-2.722656 19.046874-4.113281 28.886718-4.113281h2.464844v68.65625h16v-172.65625c0-4.40625 3.585938-8 8-8h32c4.414062 0 8 3.59375 8 8v172.65625h16v-68.65625h32v-16h-32v-80zm-114.464844 80c-15.320312 0-30.289062 2.878906-44.503906 8.574219-12.320312 4.929687-25.296875 7.425781-38.566406 7.425781h-130.464844c-4.414062 0-8-3.59375-8-8s3.585938-8 8-8h80v-16h-96c-4.414062 0-8-3.59375-8-8s3.585938-8 8-8h96v-16h-112c-4.414062 0-8-3.59375-8-8s3.585938-8 8-8h112v-16h-88c-4.414062 0-8-3.59375-8-8s3.585938-8 8-8h96.191406c.921875 13.496094 6.5625 26.0625 16.214844 35.710938l9.9375 9.945312 11.3125-11.3125-9.9375-9.945312c-7.550781-7.550782-11.71875-17.589844-11.71875-28.277344v-52.121094c0-8.824219 7.175781-16 16-16v32c0 30.878906 25.128906 56 56 56h40v80zm0 0"/><path d="m312 256c-66.167969 0-120 53.832031-120 120s53.832031 120 120 120 120-53.832031 120-120-53.832031-120-120-120zm0 200c-44.183594 0-80-35.816406-80-80s35.816406-80 80-80 80 35.816406 80 80-35.816406 80-80 80zm0 0" fill="#ebc000"/><path d="m334.367188 424.03125c-5.734376 0-11.214844-4.277344-15.839844-7.886719-1.894532-1.480469-4.925782-3.847656-6.519532-4.585937-1.59375.738281-4.625 3.105468-6.519531 4.585937-6.097656 4.75-13.671875 10.65625-21.34375 6.449219-8.199219-4.523438-6.441406-14.625-5.152343-22 .335937-1.90625.847656-4.839844.902343-6.554688-1.582031-.808593-4.519531-1.839843-6.421875-2.511718-7.785156-2.742188-17.472656-6.160156-17.472656-15.527344s9.6875-12.785156 17.472656-15.527344c1.894532-.664062 4.832032-1.703125 6.421875-2.511718-.054687-1.714844-.566406-4.648438-.902343-6.554688-1.28125-7.375-3.046876-17.484375 5.152343-22 7.679688-4.222656 15.253907 1.691406 21.34375 6.441406 1.894531 1.480469 4.925781 3.847656 6.519531 4.585938 1.59375-.738282 4.625-3.105469 6.519532-4.585938 6.089844-4.75 13.664062-10.664062 21.34375-6.449218 8.199218 4.523437 6.441406 14.625 5.152344 22-.335938 1.90625-.847657 4.839843-.902344 6.554687 1.582031.808594 4.519531 1.839844 6.421875 2.511719 7.769531 2.75 17.457031 6.167968 17.457031 15.535156s-9.6875 12.785156-17.472656 15.527344c-1.894532.664062-4.832032 1.703125-6.421875 2.511718.054687 1.714844.566406 4.648438.902343 6.554688 1.28125 7.375 3.046876 17.484375-5.152343 22-1.832031 1.015625-3.679688 1.4375-5.488281 1.4375zm-22.367188-28.605469c5.96875 0 11.246094 4.125 16.367188 8.109375.320312.257813.679687.535156 1.066406.832032-.066406-.359376-.128906-.703126-.175782-1.015626-1.097656-6.246093-2.21875-12.710937.863282-17.792968 2.925781-4.824219 8.832031-6.902344 15.101562-9.109375.378906-.136719.792969-.28125 1.226563-.441407-.441407-.160156-.847657-.304687-1.226563-.441406-6.261718-2.207031-12.167968-4.285156-15.101562-9.117187-3.089844-5.074219-1.960938-11.539063-.863282-17.792969.054688-.3125.117188-.65625.175782-1.007812-.386719.296874-.746094.574218-1.074219.832031-5.113281 3.992187-10.390625 8.113281-16.359375 8.113281s-11.246094-4.128906-16.367188-8.113281c-.320312-.257813-.679687-.535157-1.066406-.832031.066406.359374.128906.703124.175782 1.015624 1.097656 6.246094 2.21875 12.710938-.863282 17.792969-2.925781 4.824219-8.832031 6.902344-15.101562 9.109375-.378906.136719-.792969.28125-1.226563.441406.441407.160157.847657.304688 1.226563.441407 6.261718 2.207031 12.167968 4.285156 15.101562 9.117187 3.089844 5.074219 1.960938 11.539063.863282 17.792969-.054688.3125-.117188.65625-.175782 1.007813.386719-.296876.746094-.574219 1.074219-.832032 5.113281-3.992187 10.390625-8.109375 16.359375-8.109375zm0 0"/><path d="m312 464c-48.519531 0-88-39.480469-88-88s39.480469-88 88-88 88 39.480469 88 88-39.480469 88-88 88zm0-160c-39.703125 0-72 32.304688-72 72s32.296875 72 72 72 72-32.304688 72-72-32.296875-72-72-72zm0 0"/><path d="m496 216h-112v-144h112zm0 0" fill="#ebc000"/><path d="m416 72h16v32h-16zm0 0"/><path d="m416 120h16v96h-16zm0 0"/><path d="m448 72h16v144h-16zm0 0"/></svg>