<svg height="496pt" viewBox="0 0 496 496" width="496pt" xmlns="http://www.w3.org/2000/svg"><g fill="#FBD132"><path d="m343.695312 322.191406-48.09375-8.800781-4.617187 16.144531c-7.128906 24.960938-22.222656 46.898438-42.984375 62.464844v96h16l48-72-6.449219-26.753906 22.449219-5.246094zm0 0"/><path d="m152 322.191406 48.097656-8.800781 4.613282 16.144531c7.128906 24.953125 22.226562 46.890625 42.992187 62.464844v96h-16l-48-72 6.449219-26.753906-22.457032-5.246094zm0 0"/><path d="m144 228.921875c0 26.015625-15.839844 49.414063-40 59.078125 15.113281 20.144531 38.816406 32 64 32l40-8v-34.792969c-23.886719-13.839843-40-39.613281-40-69.207031v-56h16c25.183594 0 48.886719-11.855469 64-32 15.113281 20.144531 38.816406 32 64 32h16v56c0 29.59375-16.113281 55.367188-40 69.207031v34.792969l40 8c25.183594 0 48.886719-11.855469 64-32-24.160156-9.664062-40-26.359375-40-52.375v-20.921875l-.808594-1.03125c2.417969.609375 4.90625 1.03125 7.511719 1.03125 6.066406 0 11.984375-1.792969 17.03125-5.160156l16.265625-10.839844c-20.144531-15.109375-32-38.816406-32-64v-14.703125c0-61.855469-50.144531-112-112-112s-112 50.144531-112 112v8c0 25.183594-11.855469 56.886719-32 72l16.265625 10.839844c5.039063 3.359375 10.964844 5.160156 17.03125 5.160156 2.605469 0 5.09375-.425781 7.511719-1.03125l-.808594 1.03125zm0 0"/></g><path d="m248 264c17.648438 0 32-14.351562 32-32h-16c0 8.824219-7.175781 16-16 16s-16-7.175781-16-16h-16c0 17.648438 14.351562 32 32 32zm0 0"/><path d="m216 184c0 4.417969-3.582031 8-8 8s-8-3.582031-8-8 3.582031-8 8-8 8 3.582031 8 8zm0 0"/><path d="m296 184c0 4.417969-3.582031 8-8 8s-8-3.582031-8-8 3.582031-8 8-8 8 3.582031 8 8zm0 0"/><path d="m248 0c-136.753906 0-248 111.257812-248 248 0 136.753906 111.246094 248 248 248s248-111.246094 248-248c0-136.742188-111.246094-248-248-248zm-72 160h8c24.222656 0 47.496094-10.175781 64-27.617188 16.503906 17.441407 39.777344 27.617188 64 27.617188h8v48c0 39.695312-32.296875 72-72 72s-72-32.304688-72-72zm224 263.046875c-12.28125 10.679687-25.664062 20.105469-40 28.050781v-75.097656h-16v83.121094c-26.984375 12.320312-56.703125 19.605468-88 20.679687v-84.015625c20.367188-16.351562 35.496094-38.90625 42.6875-64.050781l2.550781-8.925781 73.042969 14.605468c14.894531 2.976563 25.71875 16.171876 25.71875 31.378907zm-152-87.046875c15.574219 0 27.96875-5.832031 35.945312-10.929688l-.648437 2.273438c-6.050781 21.167969-18.488281 40.289062-35.296875 54.441406-16.816406-14.152344-29.246094-33.265625-35.296875-54.441406l-.648437-2.273438c7.976562 5.097657 20.371093 10.929688 35.945312 10.929688zm0-40c11.296875 0 22.0625-2.214844 32-6.113281v18.472656c-4.726562 3.792969-16.375 11.640625-32 11.640625-15.449219 0-27.222656-7.878906-32-11.664062v-18.449219c9.9375 3.898437 20.703125 6.113281 32 6.113281zm-53.238281 26.800781 2.550781 8.925781c7.191406 25.152344 22.320312 47.699219 42.6875 64.050782v84.015625c-31.296875-1.066407-61.015625-8.359375-88-20.679688v-83.113281h-16v75.089844c-14.335938-7.9375-27.71875-17.371094-40-28.050782v-54.253906c0-15.199218 10.824219-28.402344 25.726562-31.378906zm221.238281 84.941407v-38.949219c0-22.808594-16.222656-42.59375-38.585938-47.066407l-81.414062-16.277343v-23.785157c24.046875-15.726562 40-42.847656 40-73.664062v-80h-16v16h-8c-22.535156 0-44.070312-10.769531-57.601562-28.800781l-6.398438-8.535157-6.398438 8.535157c-13.53125 18.03125-35.066406 28.800781-57.601562 28.800781h-8v-16h-16v80c0 30.816406 15.953125 57.9375 40 73.664062v23.785157l-81.414062 16.277343c-22.363282 4.464844-38.585938 24.257813-38.585938 47.066407v38.949219c-39.609375-41.636719-64-97.878907-64-159.742188 0-127.929688 104.078125-232 232-232s232 104.070312 232 232c0 61.863281-24.390625 118.105469-64 159.742188zm0 0"/></svg>