<?xml version="1.0" encoding="iso-8859-1"?>
<!-- Generator: Adobe Illustrator 19.0.0, SVG Export Plug-In . SVG Version: 6.00 Build 0)  -->
<svg version="1.1" id="Capa_1" xmlns="http://www.w3.org/2000/svg" xmlns:xlink="http://www.w3.org/1999/xlink" x="0px" y="0px"
	 viewBox="0 0 512 512" style="enable-background:new 0 0 512 512;" xml:space="preserve">
<path style="fill:#FF4C4C;" d="M256.909,166.694V7.505l182.726,77.094c2.212,0.933,2.212,4.067,0,5L256.909,166.694z"/>
<path style="fill:#EA2828;" d="M439.635,84.599l-39.837-16.808L256.91,128.078v38.616L439.636,89.6
	C441.846,88.666,441.846,85.532,439.635,84.599z"/>
<path style="fill:#B9BBC1;" d="M498.056,339.034H338.731v-41.5c0-3.388-2.747-6.135-6.135-6.135H179.405
	c-3.388,0-6.135,2.747-6.135,6.135v41.5H13.943c-3.388,0-6.135,2.747-6.135,6.135V498.36c0,3.388,2.747,6.135,6.135,6.135h159.326
	H338.73h159.326c3.388,0,6.135-2.747,6.135-6.135V345.169C504.192,341.781,501.445,339.034,498.056,339.034z"/>
<g>
	<path style="fill:#A0A3AA;" d="M498.056,339.034h-30.505v165.461l0,0h30.505c3.388,0,6.135-2.747,6.135-6.135V345.169
		C504.192,341.781,501.445,339.034,498.056,339.034z"/>
	<polygon style="fill:#A0A3AA;" points="173.269,339.034 136.629,339.034 136.629,504.495 136.629,504.495 173.269,504.495 	"/>
</g>
<path style="fill:#B9BBC1;" d="M338.731,504.495H173.269V297.534c0-3.388,2.747-6.135,6.135-6.135h153.191
	c3.388,0,6.135,2.747,6.135,6.135v206.961H338.731z"/>
<path style="fill:#A0A3AA;" d="M332.595,291.399h-29.221v213.096h35.356V297.534C338.731,294.145,335.984,291.399,332.595,291.399z"
	/>
<path style="fill:#FED130;" d="M88.087,478.142c-31.087,0-56.377-25.291-56.377-56.377c0-31.088,25.291-56.378,56.377-56.378h0.831
	c31.087,0,56.377,25.291,56.377,56.378s-25.291,56.377-56.377,56.377L88.087,478.142L88.087,478.142z"/>
<path style="fill:#F7BC14;" d="M88.918,365.386h-0.831c-5.347,0-10.517,0.764-15.422,2.162c22.447,7.794,38.608,29.15,38.608,54.217
	s-16.161,46.422-38.608,54.216c4.905,1.397,10.074,2.162,15.422,2.162h0.831c31.087,0,56.377-25.291,56.377-56.377
	C145.295,390.677,120.004,365.386,88.918,365.386z"/>
<path style="fill:#FED130;" d="M256.494,454.325c-31.088,0-56.378-25.291-56.378-56.378s25.291-56.377,56.378-56.377h0.83
	c31.087,0,56.378,25.291,56.378,56.377c0,31.088-25.291,56.378-56.378,56.378H256.494z"/>
<path style="fill:#F7BC14;" d="M257.324,341.569h-0.83c-5.417,0-10.651,0.783-15.613,2.216
	c22.371,7.835,38.464,29.149,38.464,54.161c0,25.013-16.093,46.327-38.465,54.162c4.962,1.433,10.196,2.216,15.613,2.216h0.83
	c31.087,0,56.378-25.291,56.378-56.378C313.702,366.86,288.411,341.569,257.324,341.569z"/>
<path style="fill:#FED130;" d="M423.082,478.142c-31.087,0-56.378-25.291-56.378-56.377c0-31.088,25.291-56.378,56.378-56.378h0.831
	c31.087,0,56.377,25.291,56.377,56.378s-25.291,56.377-56.377,56.377L423.082,478.142L423.082,478.142z"/>
<path style="fill:#F7BC14;" d="M423.913,365.386h-0.831c-5.399,0-10.617,0.779-15.565,2.203
	c22.391,7.825,38.501,29.149,38.501,54.176c0,25.026-16.11,46.35-38.5,54.175c4.948,1.424,10.165,2.203,15.565,2.203h0.831
	c31.087,0,56.377-25.291,56.377-56.377C480.29,390.677,455,365.386,423.913,365.386z"/>
<path d="M424.029,453.383c11.349,0,20.635-5.245,20.635-19.087v-1.634c0-7.136-3.697-11.005-8.77-12.983
	c4.213-1.977,6.706-7.48,6.706-14.272c0-11.435-7.738-15.39-18.141-15.39c-14.53,0-18.829,8.856-18.829,14.96
	c0,3.611,0.774,4.815,5.761,4.815c4.127,0,5.331-1.72,5.331-4.299c0-3.439,2.063-5.761,7.652-5.761c4.643,0,7.566,1.892,7.566,7.566
	c0,7.394-3.611,8.425-7.91,8.425c-2.493,0-3.353,2.236-3.353,4.385c0,2.235,0.86,4.385,3.353,4.385c5.503,0,9.458,1.806,9.458,8.168
	v1.634c0,6.534-2.751,9.285-9.2,9.285c-5.503,0-8.942-2.407-8.942-6.276c0-2.751-1.203-3.955-5.761-3.955
	c-3.869,0-5.331,0.946-5.331,4.385C404.254,444.699,409.929,453.383,424.029,453.383z"/>
<path d="M73.886,453.125h30.608c1.892,0,3.525-2.407,3.525-4.987s-1.633-4.815-3.525-4.815H80.593v-2.064
	c0-8.941,27.255-14.96,27.255-33.531c0-10.92-9.286-17.454-19.259-17.454c-9.544,0-18.485,6.019-18.485,15.82
	c0,4.643,2.149,6.019,5.073,6.019c3.697,0,5.847-2.063,5.847-4.127c0-5.331,3.439-7.566,7.652-7.566
	c5.675,0,7.996,4.127,7.996,7.652c0,12.123-27.685,19.431-27.685,33.188v8.34C68.986,451.749,71.909,453.125,73.886,453.125z"/>
<path d="M247.225,380.929c0.601,0,1.375-0.172,2.063-0.774l2.751-2.751v45.912c0,2.321,2.751,3.525,5.589,3.525
	c2.751,0,5.589-1.204,5.589-3.525v-55.885c0-2.236-2.665-3.611-4.987-3.611c-0.946,0-1.72,0.344-2.322,0.86l-10.145,7.738
	c-1.375,0.859-2.149,2.493-2.149,4.041C243.614,378.693,245.075,380.929,247.225,380.929z"/>
<path d="M498.057,331.529h-94.964c-4.145,0-7.505,3.36-7.505,7.505c0,4.145,3.36,7.505,7.505,7.505h93.594V496.99H346.235V346.539
	h21.938c4.145,0,7.505-3.36,7.505-7.505c0-4.145-3.36-7.505-7.505-7.505h-21.938v-33.996c0-7.521-6.119-13.64-13.64-13.64h-68.182
	V171.672L442.55,96.514c3.795-1.601,6.247-5.296,6.247-9.415c0-4.118-2.452-7.814-6.247-9.414l-126.992-53.58
	c-3.816-1.61-8.219,0.177-9.832,3.998c-1.611,3.818,0.179,8.22,3.998,9.832L426.252,87.1l-161.84,68.283V18.817l13.337,5.627
	c3.813,1.607,8.219-0.178,9.832-3.998c1.611-3.818-0.179-8.22-3.998-9.832L259.871,0.61c-0.279-0.12-0.569-0.22-0.864-0.306
	c-0.07-0.02-0.141-0.036-0.212-0.054c-0.201-0.052-0.405-0.097-0.613-0.133c-0.097-0.017-0.193-0.032-0.29-0.044
	c-0.184-0.024-0.37-0.04-0.558-0.05c-0.104-0.006-0.207-0.014-0.311-0.016C256.985,0.005,256.948,0,256.909,0
	c-0.18,0-0.355,0.014-0.532,0.027c-0.065,0.005-0.13,0.003-0.195,0.01c-0.289,0.028-0.572,0.073-0.85,0.132
	c-0.042,0.009-0.084,0.022-0.126,0.032c-0.238,0.055-0.472,0.121-0.701,0.199c-0.068,0.023-0.136,0.049-0.203,0.075
	c-0.208,0.077-0.411,0.163-0.609,0.257c-0.066,0.032-0.133,0.062-0.199,0.096c-0.228,0.117-0.45,0.244-0.664,0.383
	c-0.023,0.015-0.048,0.026-0.071,0.041c-0.005,0.003-0.01,0.008-0.015,0.011c-0.236,0.158-0.462,0.33-0.678,0.514
	c-0.061,0.052-0.118,0.108-0.178,0.161c-0.15,0.136-0.296,0.276-0.435,0.424c-0.065,0.069-0.129,0.139-0.192,0.211
	c-0.134,0.154-0.262,0.314-0.383,0.478c-0.045,0.06-0.092,0.119-0.135,0.181c-0.162,0.233-0.313,0.474-0.448,0.725
	c-0.001,0.001-0.001,0.003-0.002,0.004c-0.132,0.246-0.247,0.502-0.352,0.764c-0.026,0.064-0.047,0.129-0.071,0.194
	c-0.075,0.203-0.141,0.409-0.198,0.62c-0.021,0.079-0.042,0.158-0.061,0.238c-0.049,0.207-0.088,0.418-0.119,0.631
	c-0.011,0.077-0.026,0.153-0.035,0.23c-0.033,0.285-0.054,0.574-0.054,0.868v276.389l0,0h-70c-7.521,0-13.64,6.119-13.64,13.64
	v33.996H13.943c-7.521,0-13.64,6.119-13.64,13.64V498.36c0,7.522,6.119,13.64,13.64,13.64h484.114c7.521,0,13.64-6.118,13.64-13.64
	V345.169C511.697,337.648,505.577,331.529,498.057,331.529z M165.765,496.99H15.313V346.539h150.451L165.765,496.99L165.765,496.99z
	 M331.226,298.903V496.99H180.774V298.903l0,0H331.226L331.226,298.903z"/>
<path d="M88.087,485.647h0.831c35.225,0,63.882-28.657,63.882-63.882s-28.657-63.883-63.882-63.883h-0.831
	c-35.225,0-63.882,28.658-63.882,63.883S52.862,485.647,88.087,485.647z M88.087,372.891h0.831
	c26.948,0,48.873,21.924,48.873,48.874c0,26.948-21.924,48.873-48.873,48.873h-0.831c-26.948,0-48.873-21.924-48.873-48.873
	C39.214,394.815,61.139,372.891,88.087,372.891z"/>
<path d="M256.494,461.83h0.83c35.225,0,63.882-28.658,63.882-63.883s-28.657-63.882-63.882-63.882h-0.83
	c-35.225,0-63.883,28.657-63.883,63.882S221.269,461.83,256.494,461.83z M256.494,349.074h0.83
	c26.948,0,48.873,21.924,48.873,48.873s-21.924,48.874-48.873,48.874h-0.83c-26.949,0-48.874-21.924-48.874-48.874
	C207.621,370.998,229.545,349.074,256.494,349.074z"/>
<path d="M423.082,485.647h0.831c35.225,0,63.882-28.657,63.882-63.882s-28.657-63.883-63.882-63.883h-0.831
	c-35.225,0-63.882,28.658-63.882,63.883S387.857,485.647,423.082,485.647z M423.082,372.891h0.831
	c26.948,0,48.873,21.924,48.873,48.874c0,26.948-21.924,48.873-48.873,48.873h-0.831c-26.948,0-48.873-21.924-48.873-48.873
	C374.21,394.815,396.134,372.891,423.082,372.891z"/>
<g>
</g>
<g>
</g>
<g>
</g>
<g>
</g>
<g>
</g>
<g>
</g>
<g>
</g>
<g>
</g>
<g>
</g>
<g>
</g>
<g>
</g>
<g>
</g>
<g>
</g>
<g>
</g>
<g>
</g>
</svg>
