<?xml version="1.0" encoding="iso-8859-1"?>
<!-- Generator: Adobe Illustrator 19.0.0, SVG Export Plug-In . SVG Version: 6.00 Build 0)  -->
<svg version="1.1" id="Capa_1" xmlns="http://www.w3.org/2000/svg" xmlns:xlink="http://www.w3.org/1999/xlink" x="0px" y="0px"
	 viewBox="0 0 512.001 512.001" style="enable-background:new 0 0 512.001 512.001;" xml:space="preserve">
<path style="fill:#FF4C4C;" d="M173.143,43.047L8.755,180.331c-1.785,1.491-1.643,4.277,0.285,5.578l61.181,41.292
	c0.533,0.36,0.957,0.86,1.224,1.445l32.32,70.81c0.958,2.099,3.652,2.71,5.422,1.229l164.541-137.712L173.143,43.047z"/>
<path style="fill:#FED9A8;" d="M407.096,424.129l-47.391,3.405l-44.306,45.489c-1.25,1.283-2.964,2.006-4.755,2.006H154.8
	c-6.339,0-9.071-8.036-4.046-11.9l143.383-110.247l46.774-77.963c7.84-13.068,25.969-15.085,36.489-4.06l87.766,67.238
	c13.266,10.163,14.088,29.859,1.714,41.092l-36.89,33.489C423.563,418.589,415.613,422.566,407.096,424.129z"/>
<path style="fill:#F4C28C;" d="M465.165,338.097l-21.458-16.439c2.308,9.19-0.285,19.422-7.965,26.394l-36.89,33.489
	c-6.427,5.911-14.377,9.888-22.893,11.452l-47.391,3.405l-76.587,78.632h58.663c1.791,0,3.506-0.724,4.755-2.007l44.306-45.489
	l47.39-3.405c8.517-1.564,16.467-5.54,22.893-11.452l36.89-33.489C479.253,367.956,478.431,348.26,465.165,338.097z"/>
<path style="fill:#AF8A82;" d="M470.766,367.949L344.655,217.176c-2.516-3.008-6.993-3.408-10.003-0.895l-20.561,17.171
	c-3.013,2.516-3.414,6.999-0.895,10.01l126.148,150.816c2.52,3.012,7.005,3.409,10.014,0.885l20.525-17.215
	C472.885,375.43,473.281,370.955,470.766,367.949z"/>
<path style="fill:#E8D06B;" d="M398.367,299.834l8.857,9.526c-4.986,0.532-10.095-1.161-13.711-5.05l-8.058-8.668
	C390.087,294.791,394.984,296.195,398.367,299.834z"/>
<path style="fill:#F4C28C;" d="M447.666,377.627L447.666,377.627c7.159,7.711,19.214,8.157,26.923,0.996l23.843-22.151
	c7.705-7.158,8.15-19.205,0.995-26.913l0,0c-7.159-7.711-19.214-8.157-26.923-0.996l-23.843,22.151
	C440.957,357.872,440.511,369.92,447.666,377.627z"/>
<path style="fill:#FED9A8;" d="M448.661,350.714l23.843-22.151c7.709-7.161,19.764-6.716,26.923,0.996l0,0
	c4.151,4.471,5.738,10.403,4.84,15.994c-7.253-6.18-18.145-6.089-25.297,0.556l-23.843,22.151
	c-3.235,3.005-5.185,6.873-5.835,10.919c-0.564-0.481-1.109-0.995-1.626-1.552l0,0C440.511,369.92,440.957,357.872,448.661,350.714z
	"/>
<path style="fill:#F4C28C;" d="M428.564,343.255L428.564,343.255c7.267,7.828,19.504,8.28,27.329,1.011l23.422-21.759
	c7.821-7.266,8.273-19.495,1.01-27.319l0,0c-7.267-7.828-19.504-8.28-27.329-1.011l-23.422,21.759
	C421.754,323.202,421.301,335.432,428.564,343.255z"/>
<path style="fill:#FED9A8;" d="M429.575,315.936l23.422-21.759c7.825-7.27,20.062-6.817,27.329,1.011l0,0
	c4.163,4.484,5.786,10.415,4.945,16.03c-7.362-6.407-18.523-6.358-25.834,0.434l-23.422,21.759
	c-3.338,3.101-5.329,7.108-5.955,11.289c-0.517-0.45-1.017-0.931-1.495-1.445l0,0C421.301,335.432,421.753,323.202,429.575,315.936z
	"/>
<path style="fill:#F4C28C;" d="M402.126,315.164L402.126,315.164c7.267,7.828,19.504,8.28,27.329,1.011l23.422-21.759
	c7.821-7.266,8.273-19.495,1.01-27.319l0,0c-7.267-7.828-19.504-8.28-27.329-1.011l-23.422,21.759
	C395.315,295.111,394.863,307.341,402.126,315.164z"/>
<path style="fill:#FED9A8;" d="M403.136,287.845l23.422-21.759c7.825-7.27,20.062-6.817,27.329,1.011l0,0
	c0.501,0.54,0.962,1.103,1.39,1.682c-4.25,0.298-8.43,1.992-11.794,5.118l-23.422,21.759c-7.281,6.764-8.172,17.829-2.4,25.637
	c-5.635,0.396-11.393-1.666-15.535-6.128l0,0C394.863,307.341,395.315,295.111,403.136,287.845z"/>
<path style="fill:#F4C28C;" d="M376.664,286.02L376.664,286.02c7.267,7.828,19.504,8.28,27.329,1.011l23.422-21.759
	c7.821-7.266,8.273-19.495,1.01-27.319l0,0c-7.267-7.828-19.504-8.28-27.329-1.011l-23.422,21.759
	C369.853,265.967,369.401,278.197,376.664,286.02z"/>
<g>
	<path style="fill:#FED9A8;" d="M377.674,258.701l23.422-21.759c7.825-7.27,20.062-6.817,27.329,1.011l0,0
		c4.159,4.48,5.783,10.403,4.948,16.012c-7.362-6.419-18.532-6.373-25.848,0.423l-23.422,21.759
		c-3.343,3.106-5.335,7.119-5.958,11.307c-0.513-0.447-1.008-0.924-1.481-1.434l0,0
		C369.401,278.197,369.853,265.967,377.674,258.701z"/>
	<path style="fill:#FED9A8;" d="M421.417,300.817l-4.344,4.036c-6.834,6.349-17.379,6.106-23.56-0.541l-10.936-11.763
		c-5.353-5.758-14.497-5.937-20.38-0.401l0,0c3.292,50.94-68.061,60.736-68.061,60.736l30.328-74.598
		c1.87-5.565,5.106-10.606,9.408-14.655l21.539-20.272c10.472-9.856,26.747-9.542,36.283,0.7l30.9,33.189
		C428.788,283.901,428.261,294.458,421.417,300.817z"/>
</g>
<polygon style="fill:#EA2828;" points="138.596,71.898 239.685,191.464 273.722,162.976 172.665,43.446 "/>
<path d="M504.923,324.457c-3.619-3.899-8.215-6.565-13.276-7.765c2.92-8.968,1.033-19.22-5.825-26.607
	c-4.878-5.254-11.51-8.294-18.674-8.559c-0.216-0.008-0.43-0.005-0.645-0.008c0.329-6.955-2.02-14.032-7.119-19.524
	c-4.818-5.19-11.348-8.214-18.412-8.543c0.637-7.297-1.688-14.825-7.051-20.602c-4.877-5.254-11.51-8.294-18.674-8.559
	c-7.156-0.266-14.002,2.276-19.255,7.156l-3.56,3.307c-5.171-3.732-11.358-5.852-17.93-6.069c-3.258-0.099-6.466,0.27-9.549,1.071
	l-14.547-17.393c-5.163-6.172-14.387-6.995-20.561-1.839l-3.791,3.166L173.791,32.15c-2.662-3.173-7.39-3.588-10.565-0.927
	c-3.173,2.661-3.588,7.392-0.927,10.564l0.269,0.32L3.948,174.575c-2.676,2.235-4.11,5.515-3.933,8.998
	c0.178,3.483,1.937,6.6,4.829,8.553l60.246,40.661l31.852,69.783c1.437,3.148,4.196,5.392,7.571,6.157
	c0.82,0.187,1.645,0.277,2.462,0.277c2.545,0,5.015-0.887,7.024-2.568l158.796-132.904l41.747,49.774l-5.259,4.391
	c-2.995,2.502-4.836,6.021-5.185,9.907c-0.348,3.888,0.84,7.678,3.344,10.67l14.776,17.666c-1.992,3.029-3.612,6.297-4.786,9.726
	l-29.479,72.511L146.181,457.185c-4.876,3.751-6.747,9.936-4.766,15.76c1.98,5.823,7.234,9.585,13.384,9.585h155.845
	c3.79,0,7.481-1.557,10.127-4.273l42.316-43.447l44.546-3.201c0.274-0.02,0.547-0.054,0.817-0.103
	c9.93-1.824,19.133-6.426,26.579-13.276l18.713-16.988c0.144-0.112,0.293-0.215,0.433-0.333l12.032-10.091
	c5.011-0.868,9.671-3.159,13.485-6.701l23.844-22.151C514.256,352.007,514.878,335.181,504.923,324.457z M108.405,291.56
	l-30.138-66.028c-0.842-1.844-2.175-3.417-3.85-4.546l-56.766-38.312L172.206,53.6l90.952,108.44L108.405,291.56z M434.384,289.516
	c0.29-5.806-1.474-11.352-4.987-15.832l2.266-2.105c2.316-2.151,5.333-3.264,8.492-3.156c3.16,0.117,6.085,1.458,8.236,3.775
	c4.148,4.469,4.174,11.313,0.258,15.814c-0.255,0.22-0.509,0.44-0.757,0.67l-23.422,21.76c-0.345,0.321-0.68,0.649-1.004,0.983
	c-1.761,1.347-3.841,2.151-6.041,2.356c1.676-0.941,3.28-2.068,4.752-3.435l4.344-4.036
	C431.272,301.898,434.064,295.933,434.384,289.516z M406.2,242.436c2.316-2.152,5.325-3.283,8.493-3.156
	c3.16,0.116,6.085,1.457,8.236,3.774c4.439,4.781,4.161,12.283-0.618,16.723l-3.076,2.857l-16.129-17.324L406.2,242.436z
	 M319.202,238.955l19.954-16.664l12.223,14.613c-0.374,0.323-0.745,0.652-1.108,0.993l-17.879,16.828L319.202,238.955z
	 M424.913,407.159c-5.3,4.875-11.788,8.162-18.784,9.521l-46.961,3.375c-1.832,0.132-3.553,0.932-4.834,2.247l-44.053,45.23h-152.95
	l141.376-108.704c0.104-0.08,0.197-0.168,0.296-0.252c0.068-0.058,0.137-0.112,0.202-0.172c0.239-0.219,0.462-0.45,0.666-0.693
	c0.04-0.048,0.077-0.099,0.116-0.148c0.187-0.234,0.358-0.476,0.514-0.727c0.029-0.047,0.06-0.092,0.089-0.14
	c0.177-0.3,0.33-0.609,0.462-0.927c0.009-0.021,0.021-0.039,0.03-0.06l30.327-74.598c0.059-0.144,0.112-0.289,0.162-0.436
	c1.473-4.383,4.045-8.388,7.439-11.582l21.539-20.272c3.699-3.48,8.481-5.314,13.458-5.143c4.712,0.155,9.044,2.106,12.197,5.492
	l0.802,0.861l0.001,0.001l0.001,0.001l26.341,28.293c0.002,0.003,0.004,0.005,0.007,0.008c0.002,0.002,0.004,0.004,0.006,0.006
	c0.001,0.001,0.002,0.003,0.003,0.004c0.002,0.002,0.004,0.004,0.006,0.006l3.733,4.009c1.603,1.722,2.42,4,2.3,6.411
	c-0.124,2.49-1.222,4.818-3.092,6.555l-4.343,4.035c-3.007,2.792-7.281,3.319-10.596,1.625c-0.082-0.045-0.168-0.081-0.251-0.123
	c-0.772-0.427-1.488-0.979-2.117-1.655l-10.936-11.762c-3.909-4.205-9.249-6.626-15.035-6.82c-5.94-0.199-11.612,1.954-15.977,6.063
	c-1.629,1.533-2.488,3.714-2.344,5.945c0.181,2.794,0.1,5.471-0.228,8.05c-0.018,0.134-0.04,0.268-0.051,0.403
	c-0.88,6.389-3.333,12.157-7.424,17.467c-2.528,3.281-1.918,7.989,1.363,10.517c3.28,2.526,7.989,1.917,10.517-1.364
	c2.542-3.298,4.634-6.771,6.29-10.399l68.408,81.786c0.03,0.036,0.065,0.068,0.096,0.104L424.913,407.159z M444.795,389.109
	l-75.122-89.81c0.071-1.071,0.121-2.148,0.131-3.238c0.867-0.325,1.789-0.484,2.729-0.448c1.765,0.059,3.382,0.784,4.551,2.042
	l10.936,11.762c1.119,1.204,2.338,2.264,3.631,3.18c1.205,2.83,2.872,5.401,4.978,7.669c4.877,5.254,11.51,8.294,18.674,8.56
	c0.215,0.007,0.43,0.009,0.644,0.012c-0.327,6.954,2.021,14.028,7.119,19.52l0,0c3.654,3.936,8.293,6.629,13.403,7.844
	c-2.985,8.92-1.138,19.163,5.699,26.528l0,0c1.51,1.627,3.191,3.039,5.004,4.22L444.795,389.109z M442.296,341.928
	c-3.159-0.116-6.084-1.457-8.235-3.774c-4.148-4.469-4.175-11.312-0.26-15.812c0.255-0.22,0.51-0.442,0.758-0.672l23.422-21.759
	c0.346-0.321,0.68-0.65,1.005-0.984c2.175-1.66,4.838-2.506,7.606-2.411c3.16,0.117,6.085,1.458,8.236,3.775
	c4.439,4.781,4.161,12.283-0.618,16.723l-4.319,4.013c-0.863,0.628-1.697,1.306-2.491,2.043l-18.312,17.012
	C447.08,341.367,444.736,342.02,442.296,341.928z M493.328,350.978l-23.843,22.15c-1.927,1.791-4.345,2.846-6.932,3.046
	c-0.103,0.007-0.206,0.012-0.308,0.023c-0.347,0.017-0.695,0.024-1.047,0.01c-3.083-0.113-5.937-1.422-8.035-3.682
	c-4.331-4.666-4.061-11.985,0.602-16.317l4.731-4.395c0.866-0.631,1.704-1.312,2.502-2.053l18.298-16.999
	c1.954-1.243,4.232-1.871,6.6-1.784c3.084,0.114,5.938,1.423,8.037,3.683C498.262,339.326,497.991,346.646,493.328,350.978z"/>
<g>
</g>
<g>
</g>
<g>
</g>
<g>
</g>
<g>
</g>
<g>
</g>
<g>
</g>
<g>
</g>
<g>
</g>
<g>
</g>
<g>
</g>
<g>
</g>
<g>
</g>
<g>
</g>
<g>
</g>
</svg>
