<?xml version="1.0" encoding="iso-8859-1"?>
<!-- Generator: Adobe Illustrator 19.0.0, SVG Export Plug-In . SVG Version: 6.00 Build 0)  -->
<svg version="1.1" id="Capa_1" xmlns="http://www.w3.org/2000/svg" xmlns:xlink="http://www.w3.org/1999/xlink" x="0px" y="0px"
	 viewBox="0 0 512.001 512.001" style="enable-background:new 0 0 512.001 512.001;" xml:space="preserve">
<path style="fill:#10C4C4;" d="M500.932,331.755H11.068c-2.338,0-4.043-2.215-3.443-4.475l18.671-70.364
	c0.159-0.599,0.159-1.228,0-1.827L7.625,184.724c-0.6-2.26,1.104-4.475,3.443-4.475h489.864c2.339,0,4.043,2.215,3.443,4.475
	l-18.671,70.364c-0.159,0.599-0.159,1.228,0,1.827l18.671,70.364C504.975,329.54,503.27,331.755,500.932,331.755z"/>
<path style="fill:#04AFAF;" d="M485.703,256.915c-0.159-0.599-0.159-1.229,0-1.827l18.671-70.364c0.6-2.26-1.104-4.476-3.443-4.476
	h-31.51l-20.101,75.753l20.101,75.753h31.51c2.339,0,4.043-2.215,3.443-4.476L485.703,256.915z"/>
<path style="fill:#FFB125;" d="M397.251,147.451L397.251,147.451c0.691,11.893,7.421,22.604,17.837,28.387l0,0
	c15.429,8.567,21.996,27.332,15.274,43.65l0,0c-4.537,11.015-3.121,23.586,3.754,33.314l0,0
	c10.184,14.413,7.958,34.169-5.178,45.954l0,0c-8.867,7.955-13.045,19.896-11.073,31.644l0,0
	c2.922,17.404-7.655,34.238-24.604,39.157l0,0c-11.441,3.32-20.386,12.265-23.706,23.706l0,0
	c-4.918,16.949-21.752,27.526-39.157,24.604l0,0c-11.748-1.973-23.689,2.205-31.644,11.073l0,0
	c-11.785,13.136-31.541,15.362-45.954,5.178l0,0c-9.729-6.875-22.3-8.291-33.314-3.754l0,0c-16.318,6.722-35.083,0.156-43.65-15.274
	l0,0c-5.783-10.415-16.494-17.146-28.387-17.837l0,0c-17.618-1.024-31.676-15.082-32.7-32.7l0,0
	c-0.691-11.893-7.421-22.604-17.837-28.387l0,0c-15.429-8.567-21.996-27.332-15.274-43.65l0,0
	c4.537-11.015,3.121-23.586-3.754-33.314l0,0c-10.184-14.413-7.958-34.169,5.178-45.954l0,0
	c8.867-7.955,13.045-19.896,11.073-31.644l0,0c-2.922-17.404,7.655-34.238,24.604-39.157l0,0
	c11.441-3.32,20.386-12.265,23.706-23.706l0,0c4.918-16.949,21.752-27.526,39.157-24.604l0,0
	c11.748,1.973,23.689-2.205,31.644-11.073l0,0c11.785-13.136,31.541-15.362,45.954-5.178l0,0c9.729,6.875,22.3,8.291,33.314,3.754
	l0,0c16.318-6.722,35.083-0.156,43.65,15.274l0,0c5.783,10.415,16.494,17.146,28.387,17.837l0,0
	C382.169,115.774,396.227,129.832,397.251,147.451z"/>
<path style="fill:#FF901D;" d="M434.115,252.802L434.115,252.802c-6.875-9.729-8.291-22.3-3.754-33.315l0,0
	c6.722-16.318,0.156-35.083-15.274-43.65l0,0c-10.415-5.783-17.145-16.494-17.837-28.387l0,0c-1.024-17.618-15.082-31.676-32.7-32.7
	l0,0c-11.893-0.691-22.604-7.421-28.387-17.837l0,0c-8.567-15.429-27.332-21.996-43.65-15.274l0,0
	c-4.498,1.853-9.254,2.696-13.972,2.597c4.903,3.035,9.108,7.32,12.082,12.676c5.783,10.415,16.494,17.146,28.387,17.837
	c17.618,1.024,31.676,15.082,32.7,32.7l0,0c0.691,11.893,7.421,22.604,17.837,28.387l0,0c15.429,8.567,21.996,27.332,15.274,43.65
	l0,0c-4.537,11.015-3.121,23.586,3.754,33.315l0,0c10.184,14.413,7.958,34.169-5.178,45.954l0,0
	c-8.867,7.955-13.045,19.896-11.073,31.644l0,0c2.922,17.404-7.655,34.238-24.604,39.156c-11.441,3.32-20.386,12.265-23.706,23.706
	l0,0c-4.919,16.949-21.752,27.526-39.157,24.604l0,0c-11.748-1.973-23.689,2.206-31.644,11.073l0,0
	c-1.071,1.193-2.209,2.294-3.401,3.306c1.019,0.575,2.02,1.188,2.987,1.872l0,0c14.413,10.184,34.169,7.959,45.954-5.178l0,0
	c7.955-8.867,19.896-13.045,31.644-11.073c17.404,2.922,34.238-7.655,39.157-24.604l0,0c3.32-11.441,12.265-20.386,23.706-23.706
	l0,0c16.949-4.918,27.526-21.752,24.604-39.156l0,0c-1.973-11.748,2.205-23.689,11.073-31.644l0,0
	C442.073,286.97,444.299,267.214,434.115,252.802z"/>
<circle style="fill:#E1EFFB;" cx="256" cy="256.001" r="142.22"/>
<path style="fill:#C3D8E5;" d="M256,113.784c-8.05,0-15.939,0.679-23.624,1.964c67.299,11.253,118.594,69.758,118.594,140.253
	s-51.294,129-118.594,140.253c7.685,1.285,15.574,1.964,23.624,1.964c78.545,0,142.218-63.673,142.218-142.218
	S334.545,113.784,256,113.784z"/>
<circle style="fill:#E1EFFB;" cx="256" cy="256.001" r="142.22"/>
<path style="fill:#C3D8E5;" d="M256,113.784c-8.05,0-15.939,0.679-23.624,1.964c67.299,11.253,118.594,69.758,118.594,140.253
	s-51.294,129-118.594,140.253c7.685,1.285,15.574,1.964,23.624,1.964c78.545,0,142.218-63.673,142.218-142.218
	S334.545,113.784,256,113.784z"/>
<path style="fill:#10C4C4;" d="M320.946,185.063c-0.733-1.158-2.008-1.86-3.378-1.86H256h-61.568c-1.37,0-2.645,0.702-3.378,1.86
	l-29.118,46.003c-0.905,1.43-0.812,3.275,0.233,4.606l90.686,115.598c1.601,2.04,4.69,2.04,6.291,0l90.686-115.598
	c1.044-1.331,1.138-3.176,0.233-4.606L320.946,185.063z"/>
<path style="fill:#21D8DE;" d="M191.054,185.063l-0.498,0.786l-28.62,45.217c-0.461,0.728-0.66,1.564-0.609,2.385h189.345
	c0.051-0.821-0.148-1.657-0.609-2.385l-28.62-45.217l-0.498-0.786c-0.733-1.158-2.008-1.86-3.378-1.86H256h-61.568
	C193.062,183.203,191.787,183.905,191.054,185.063z"/>
<g>
	<polygon style="fill:#25F2F2;" points="255.754,183.203 223.746,233.448 256,233.448 287.761,233.448 	"/>
	<path style="fill:#25F2F2;" d="M287.761,233.448l62.912,0.003l0,0c0.025-0.404-0.012-0.811-0.109-1.207
		c-0.002-0.007-0.002-0.014-0.004-0.021c-0.045-0.177-0.107-0.351-0.176-0.523c-0.01-0.024-0.015-0.048-0.025-0.072
		c-0.082-0.193-0.181-0.381-0.296-0.562l-5.899-9.319L325.2,191.786l-4.255-6.723c-0.093-0.147-0.195-0.286-0.304-0.417
		c-0.012-0.015-0.027-0.027-0.039-0.042c-0.1-0.116-0.203-0.228-0.314-0.331c-0.002-0.002-0.005-0.004-0.008-0.006
		c-0.248-0.228-0.523-0.424-0.817-0.583l0,0L287.761,233.448z"/>
	<path style="fill:#25F2F2;" d="M192.537,183.683c-0.595,0.321-1.11,0.79-1.483,1.38l-10.227,16.158l-18.891,29.845
		c-0.461,0.728-0.66,1.564-0.609,2.385l62.912-0.003L192.537,183.683z"/>
</g>
<g>
	<path style="fill:#21D8DE;" d="M224.239,233.448h-62.912c0.048,0.792,0.329,1.57,0.842,2.224l90.686,115.598
		c0.649,0.827,1.543,1.313,2.483,1.469L224.239,233.448z"/>
	<path style="fill:#21D8DE;" d="M349.831,235.671c0.129-0.164,0.242-0.336,0.342-0.514c0.086-0.154,0.156-0.314,0.22-0.475
		c0.01-0.024,0.023-0.047,0.033-0.071c0.139-0.373,0.221-0.763,0.246-1.157c0-0.001,0-0.003,0.001-0.004l-63.158-0.003
		l-30.858,119.292l0,0c0.439-0.073,0.868-0.22,1.267-0.438c0.037-0.02,0.074-0.038,0.11-0.06c0.065-0.038,0.128-0.081,0.191-0.123
		c0.057-0.038,0.113-0.077,0.169-0.119c0.052-0.039,0.103-0.078,0.153-0.12c0.068-0.056,0.133-0.116,0.198-0.177
		c0.038-0.035,0.076-0.07,0.112-0.107c0.1-0.103,0.198-0.211,0.289-0.327l57.484-73.276L349.831,235.671z"/>
</g>
<g>
	<path style="fill:#0BB2AD;" d="M253.328,351.767c-0.167-0.15-0.327-0.312-0.472-0.496
		C253.001,351.456,253.161,351.617,253.328,351.767z"/>
	<path style="fill:#0BB2AD;" d="M253.866,352.17c-0.13-0.082-0.256-0.171-0.378-0.269
		C253.61,351.999,253.736,352.088,253.866,352.17z"/>
	<path style="fill:#0BB2AD;" d="M254.488,352.488c-0.145-0.059-0.288-0.121-0.427-0.197
		C254.2,352.366,254.343,352.43,254.488,352.488z"/>
	<path style="fill:#0BB2AD;" d="M255.133,352.686c-0.047-0.01-0.094-0.024-0.141-0.037
		C255.039,352.662,255.086,352.676,255.133,352.686z"/>
	<path style="fill:#0BB2AD;" d="M239.624,334.405l0.576,0.734L239.624,334.405z"/>
</g>
<g>
	<path style="fill:#21D8DE;" d="M255.338,352.739l-0.006-0.023c-0.066-0.01-0.133-0.016-0.198-0.03
		C255.202,352.701,255.268,352.728,255.338,352.739z"/>
	<path style="fill:#21D8DE;" d="M254.992,352.65c-0.171-0.042-0.339-0.097-0.504-0.162
		C254.653,352.554,254.821,352.606,254.992,352.65z"/>
	<polygon style="fill:#21D8DE;" points="240.2,335.139 252.854,351.27 252.856,351.271 252.854,351.269 	"/>
	<path style="fill:#21D8DE;" d="M253.488,351.9c-0.054-0.043-0.108-0.086-0.16-0.133C253.38,351.814,253.434,351.857,253.488,351.9z
		"/>
	<path style="fill:#21D8DE;" d="M254.062,352.29c-0.067-0.036-0.131-0.08-0.196-0.121
		C253.931,352.211,253.995,352.254,254.062,352.29z"/>
</g>
<path d="M511.624,325.356l-18.403-69.354l18.403-69.353c0.889-3.346,0.188-6.838-1.923-9.582c-2.11-2.744-5.307-4.318-8.768-4.318
	H456.34c-4.142,0-7.5,3.357-7.5,7.5s3.358,7.5,7.5,7.5h39.474l-17.357,65.412c-0.494,1.859-0.494,3.823-0.001,5.679l17.358,65.417
	h-39.782c-4.142,0-7.5,3.357-7.5,7.5c0,4.142,3.358,7.5,7.5,7.5h44.901c3.462,0,6.658-1.574,8.768-4.318
	C511.811,332.193,512.512,328.701,511.624,325.356z"/>
<path d="M62.848,180.248c0-4.143-3.358-7.5-7.5-7.5h-44.28c-3.461,0-6.657,1.573-8.767,4.317c-2.111,2.744-2.812,6.236-1.924,9.582
	l18.402,69.354L0.376,325.356c-0.888,3.346-0.187,6.838,1.924,9.582c2.11,2.744,5.306,4.317,8.767,4.317h44.218
	c4.142,0,7.5-3.357,7.5-7.5s-3.358-7.5-7.5-7.5H16.187l17.359-65.419c0.492-1.855,0.492-3.816,0-5.673l-17.359-65.416h39.161
	C59.49,187.748,62.848,184.391,62.848,180.248z"/>
<path d="M114.056,244.336c4.098,0.54,7.879-2.331,8.431-6.435c4.3-32.034,20.094-61.51,44.473-82.999
	c24.595-21.678,56.217-33.618,89.041-33.618c32.83,0,64.456,11.943,89.052,33.628c24.381,21.495,40.172,50.979,44.465,83.02
	c0.505,3.768,3.725,6.505,7.424,6.505c0.332,0,0.667-0.022,1.005-0.067c4.105-0.55,6.987-4.324,6.437-8.43
	c-4.772-35.622-22.321-68.394-49.412-92.28c-27.338-24.102-62.487-37.376-98.972-37.376c-36.478,0-71.622,13.27-98.959,37.366
	c-27.089,23.877-44.64,56.64-49.421,92.254C107.069,240.01,109.95,243.784,114.056,244.336z"/>
<path d="M398.055,266.207c-4.118-0.505-7.856,2.412-8.365,6.522c-8.326,67.266-65.8,117.99-133.69,117.99
	c-67.94,0-125.419-50.767-133.702-118.088c-0.506-4.11-4.244-7.032-8.36-6.528c-4.111,0.506-7.034,4.249-6.528,8.36
	c9.206,74.828,73.086,131.256,148.59,131.256c75.449,0,139.322-56.381,148.577-131.148
	C405.085,270.46,402.165,266.715,398.055,266.207z"/>
<path d="M437.295,222.343c8.172-19.836,0.189-42.648-18.568-53.064c-8.215-4.56-13.445-12.884-13.99-22.263v-0.001
	c-1.245-21.418-18.335-38.507-39.752-39.751c-9.38-0.545-17.704-5.775-22.265-13.99c-10.414-18.757-33.227-26.738-53.064-18.568
	c-8.688,3.581-18.455,2.478-26.129-2.944c-17.521-12.382-41.537-9.675-55.865,6.295c-6.273,6.993-15.551,10.242-24.819,8.684
	c-21.155-3.555-41.622,9.306-47.601,29.911c-2.618,9.023-9.569,15.974-18.593,18.592c-20.605,5.98-33.463,26.444-29.91,47.602
	c1.556,9.266-1.691,18.545-8.685,24.819c-15.969,14.327-18.675,38.344-6.294,55.865c5.423,7.674,6.523,17.441,2.944,26.129
	c-8.172,19.838-0.189,42.65,18.567,53.063c8.215,4.561,13.445,12.886,13.99,22.266c1.245,21.418,18.335,38.507,39.752,39.751
	c9.38,0.545,17.704,5.775,22.265,13.99c10.414,18.758,33.227,26.738,53.063,18.567c8.687-3.578,18.456-2.478,26.13,2.944
	c7.378,5.214,15.905,7.752,24.378,7.751c11.649,0,23.193-4.8,31.487-14.045c6.276-6.995,15.553-10.239,24.82-8.684
	c21.155,3.551,41.621-9.307,47.601-29.911c2.618-9.024,9.569-15.974,18.593-18.592c20.605-5.98,33.463-26.444,29.91-47.602
	c-1.556-9.266,1.691-18.545,8.685-24.82c15.969-14.327,18.674-38.344,6.294-55.864C434.817,240.8,433.717,231.031,437.295,222.343z
	 M423.929,293.173c-10.841,9.725-15.873,24.106-13.461,38.469c2.292,13.65-6.004,26.854-19.297,30.711
	c-13.987,4.059-24.76,14.832-28.818,28.818c-3.858,13.294-17.065,21.589-30.711,19.299c-14.362-2.414-28.743,2.619-38.469,13.46
	c-9.243,10.304-24.738,12.05-36.044,4.061c-7.277-5.142-15.768-7.776-24.35-7.776c-5.443,0-10.923,1.06-16.15,3.213
	c-12.8,5.271-27.517,0.122-34.236-11.979c-7.069-12.732-19.969-20.839-34.509-21.683c-13.819-0.803-24.845-11.829-25.648-25.647
	c-0.845-14.539-8.95-27.44-21.683-34.51c-12.102-6.719-17.252-21.436-11.98-34.236c5.547-13.466,3.841-28.605-4.563-40.498
	c-7.988-11.305-6.242-26.8,4.061-36.043c10.841-9.725,15.873-24.106,13.461-38.469c-2.292-13.65,6.004-26.854,19.298-30.711
	c13.987-4.059,24.76-14.833,28.818-28.818c3.858-13.295,17.059-21.593,30.712-19.299c14.361,2.414,28.744-2.621,38.468-13.461
	c9.243-10.305,24.74-12.051,36.044-4.061c11.894,8.404,27.034,10.111,40.499,4.563c12.798-5.271,27.517-0.123,34.236,11.98
	c7.069,12.732,19.969,20.839,34.509,21.683c13.819,0.803,24.845,11.829,25.648,25.648v-0.001c0.845,14.54,8.951,27.44,21.683,34.508
	c12.102,6.72,17.252,21.438,11.98,34.237c-5.547,13.466-3.841,28.606,4.563,40.499C435.977,268.434,434.231,283.929,423.929,293.173
	z"/>
<path d="M172.991,213.6c-3.5-2.218-8.134-1.175-10.348,2.325l-7.045,11.13c-1.224,1.933-1.803,4.138-1.768,6.328
	c0,0.023-0.003,0.045-0.003,0.068c0,0.038,0.005,0.075,0.006,0.113c0.005,0.147,0.012,0.293,0.022,0.439
	c0.008,0.114,0.017,0.228,0.03,0.341c0.211,2.127,1.005,4.201,2.383,5.956l90.686,115.6c1.764,2.248,4.245,3.708,6.996,4.201
	c0.097,0.018,0.194,0.035,0.292,0.05c0.578,0.088,1.162,0.15,1.758,0.15c0.594,0,1.177-0.061,1.753-0.149
	c0.099-0.015,0.197-0.032,0.295-0.051c2.751-0.493,5.234-1.953,6.998-4.202l90.685-115.598c1.378-1.756,2.171-3.83,2.383-5.956
	c0.013-0.114,0.022-0.229,0.03-0.344c0.01-0.145,0.017-0.291,0.022-0.436c0.001-0.039,0.006-0.076,0.006-0.115
	c0-0.023-0.003-0.045-0.003-0.068c0.035-2.19-0.544-4.394-1.768-6.327l-29.12-46.005c-0.968-1.528-2.261-2.758-3.747-3.662
	c-0.015-0.009-0.027-0.021-0.042-0.03c-0.016-0.01-0.032-0.017-0.047-0.027c-0.183-0.109-0.367-0.217-0.556-0.316
	c-0.091-0.047-0.184-0.087-0.276-0.13c-1.545-0.755-3.257-1.181-5.045-1.181H194.432c-1.789,0-3.501,0.427-5.046,1.182
	c-0.092,0.043-0.184,0.083-0.275,0.13c-0.189,0.098-0.371,0.206-0.554,0.315c-0.016,0.01-0.033,0.018-0.049,0.028
	c-0.015,0.01-0.029,0.021-0.044,0.031c-1.485,0.904-2.778,2.134-3.746,3.663l-7.834,12.377c-2.215,3.5-1.174,8.133,2.326,10.348
	c3.499,2.215,8.133,1.174,10.348-2.326l2.694-4.256l18.317,28.755l-36.519,0.001l1.267-2.001
	C177.533,220.449,176.491,215.815,172.991,213.6z M272.247,322.417l9.39-36.299c1.037-4.01-1.373-8.101-5.383-9.139
	c-4.012-1.038-8.102,1.371-9.139,5.383l-11.143,43.078l-22.027-84.494h43.884l-4.054,15.674c-1.038,4.01,1.372,8.101,5.382,9.139
	c0.63,0.163,1.262,0.241,1.884,0.241c3.336,0,6.381-2.243,7.256-5.624l5.026-19.429l42.837,0.002L272.247,322.417z M319.748,197.194
	l18.202,28.756l-36.519-0.001L319.748,197.194z M306.098,190.703l-18.337,28.785l-18.337-28.785H306.098z M274.091,225.948h-36.674
	l18.337-28.786L274.091,225.948z M205.901,190.703h36.182l-18.091,28.399L205.901,190.703z M218.444,240.948l21.204,81.337
	l-63.806-81.335L218.444,240.948z"/>
<g>
</g>
<g>
</g>
<g>
</g>
<g>
</g>
<g>
</g>
<g>
</g>
<g>
</g>
<g>
</g>
<g>
</g>
<g>
</g>
<g>
</g>
<g>
</g>
<g>
</g>
<g>
</g>
<g>
</g>
</svg>
