<?xml version="1.0" encoding="iso-8859-1"?>
<!-- Generator: Adobe Illustrator 19.0.0, SVG Export Plug-In . SVG Version: 6.00 Build 0)  -->
<svg version="1.1" id="Capa_1" xmlns="http://www.w3.org/2000/svg" xmlns:xlink="http://www.w3.org/1999/xlink" x="0px" y="0px"
	 viewBox="0 0 512 512" style="enable-background:new 0 0 512 512;" xml:space="preserve">
<path style="fill:#FF6D3A;" d="M503.593,300.344C342.15,223.977,169.85,223.978,8.408,300.342c-1.023,0.484-1.171,1.878-0.275,2.567
	c14.37,11.055,28.45,22.898,42.213,35.382c0.436,0.395,0.603,1.008,0.429,1.57c-6.393,20.639-12.376,41.421-17.981,62.504
	c-0.331,1.243,0.945,2.303,2.11,1.756c144.372-67.784,297.815-67.785,442.188,0c1.165,0.547,2.441-0.512,2.11-1.756
	c-5.604-21.081-11.588-41.864-17.981-62.506c-0.174-0.561-0.007-1.174,0.427-1.569c13.749-12.524,27.864-24.292,42.222-35.38
	C504.764,302.22,504.614,300.827,503.593,300.344z"/>
<path style="fill:#ED5729;" d="M503.87,302.91c0.894-0.691,0.744-2.084-0.277-2.567c-11.654-5.513-23.366-10.614-35.125-15.331
	c-15.335,11.825-30.407,24.389-45.074,37.788c6.809,21.937,13.161,44.034,19.113,66.447c11.58,4.531,23.112,9.486,34.586,14.873
	c1.165,0.547,2.44-0.513,2.11-1.756c-5.604-21.081-11.587-41.864-17.981-62.506c-0.174-0.561-0.007-1.174,0.427-1.569
	C475.397,325.766,489.512,313.998,503.87,302.91z"/>
<path style="fill:#FED130;" d="M482.802,319.837c-16.339-6.003-30.487-10.955-30.487-10.955
	c-64.254-25.01-130.115-37.663-196.316-37.663c-66.209,0-132.071,12.653-196.331,37.669c0,0-14.233,5.329-29.803,11.514
	c6.901,5.798,13.73,11.766,20.481,17.89c0.436,0.395,0.603,1.008,0.429,1.57c-3.169,10.233-6.237,20.501-9.209,30.823
	c16.341-6.451,33.354-13.539,33.354-13.539c59.322-21.264,120.021-32.013,181.078-32.013c61.059,0,121.754,10.748,181.078,32.012
	c0,0,16.934,6.579,33.04,12.467c-2.875-9.96-5.835-19.874-8.895-29.753c-0.174-0.561-0.007-1.174,0.427-1.569
	C468.611,331.948,475.668,325.801,482.802,319.837z"/>
<path style="fill:#E1EFFB;" d="M279.345,452.702l-21.463,11.281c-1.179,0.62-2.588,0.62-3.768,0l-21.463-11.281
	C130.548,399.037,67.675,300.009,67.675,192.857v-71.171c0-2.174,1.719-3.942,3.891-4.04c39.455-1.778,71.121-30.438,73.258-66.234
	c0.129-2.16,1.882-3.862,4.047-3.862h214.253c2.164,0,3.918,1.702,4.047,3.862c2.137,35.795,33.803,64.456,73.258,66.234
	c2.172,0.098,3.891,1.866,3.891,4.04v71.171C444.32,300.009,381.447,399.037,279.345,452.702z"/>
<path style="fill:#C3D8E5;" d="M440.429,117.646c-39.455-1.778-71.121-30.438-73.258-66.234c-0.129-2.16-1.882-3.862-4.046-3.862
	h-41.203c2.108,69.109,54.387,100.997,77.158,100.997v66.427c0,100.147-54.926,193.194-145.466,248.745l0.501,0.263
	c1.179,0.62,2.588,0.62,3.768,0l21.463-11.281C381.447,399.037,444.32,300.009,444.32,192.857v-71.171
	C444.32,119.512,442.601,117.744,440.429,117.646z"/>
<path style="fill:#61AFF6;" d="M249.99,419.711c-44.341-23.306-81.22-56.796-106.65-96.851
	c-25.117-39.561-38.394-84.515-38.394-130.004v-40.912c0-1.622,1.044-3.044,2.577-3.574c30.511-10.543,54.807-32.863,66.707-61.199
	c0.594-1.414,1.956-2.35,3.489-2.35h156.555c1.533,0,2.896,0.937,3.489,2.35c11.9,28.337,36.198,50.656,66.707,61.2
	c1.533,0.53,2.577,1.952,2.577,3.574v40.912c0,45.488-13.277,90.443-38.393,130.004c-25.431,40.054-62.311,73.545-106.652,96.851
	l-4.253,2.236c-1.098,0.577-2.409,0.577-3.507,0L249.99,419.711z"/>
<path style="fill:#49A0E8;" d="M404.472,148.371c-30.51-10.544-54.807-32.863-66.707-61.2c-0.594-1.414-1.956-2.35-3.49-2.35
	h-42.371c3.614,43.39,37.68,67.38,67.327,77.625c1.533,0.53,2.577,1.952,2.577,3.574v40.912c0,45.488-13.277,90.443-38.393,130.004
	c-19.837,31.243-46.64,58.492-78.517,80.029c1.687,0.929,3.382,1.848,5.091,2.746l4.254,2.236c1.098,0.577,2.409,0.577,3.507,0
	l4.253-2.236c44.342-23.306,81.221-56.796,106.652-96.851c25.116-39.561,38.393-84.515,38.393-130.004v-40.912
	C407.049,150.323,406.005,148.901,404.472,148.371z"/>
<path style="fill:#E1EFFB;" d="M278.229,297.086V135.047c0-1.446-1.172-2.618-2.618-2.618h-30.586c-0.616,0-1.211,0.217-1.683,0.613
	l-55.568,46.633c-1.08,0.907-1.248,2.506-0.38,3.617l18.225,23.323c0.908,1.162,2.596,1.345,3.732,0.405l23.23-19.233
	c1.707-1.413,4.287-0.199,4.287,2.016v107.283c0,1.446-1.172,2.618-2.618,2.618h-32.122c-1.446,0-2.618,1.172-2.618,2.618v27.739
	c0,1.446,1.172,2.618,2.618,2.618H307.63c1.446,0,2.618-1.172,2.618-2.618v-27.739c0-1.446-1.172-2.618-2.618-2.618h-26.784
	C279.401,299.704,278.229,298.532,278.229,297.086z"/>
<path style="fill:#F7BC14;" d="M452.315,308.882c-3.039-1.183-6.082-2.329-9.128-3.456c-6.668,5.635-13.273,11.418-19.793,17.375
	c3.4,10.953,6.685,21.946,9.864,32.998c1.273,0.446,2.547,0.891,3.819,1.347c0,0,16.934,6.579,33.04,12.467
	c-1.437-4.978-2.895-9.945-4.377-14.902c-1.484-4.959-2.988-9.91-4.518-14.851c-0.174-0.561-0.007-1.174,0.427-1.569
	c1.738-1.583,3.482-3.154,5.232-4.713c0.094-0.084,0.189-0.166,0.283-0.25c5.166-4.599,10.381-9.095,15.639-13.49
	C466.463,313.834,452.315,308.882,452.315,308.882z"/>
<path d="M406.934,141.244c-28.46-9.835-51.138-30.607-62.217-56.989c-1.777-4.236-5.876-6.974-10.442-6.974H177.72
	c-4.563,0-8.662,2.736-10.441,6.971c-11.081,26.385-33.758,47.158-62.216,56.992c-4.579,1.581-7.656,5.881-7.656,10.701v40.912
	c0,7.826,0.387,15.755,1.151,23.566c0.381,3.896,3.662,6.808,7.496,6.808c0.245,0,0.493-0.013,0.742-0.036
	c4.145-0.405,7.176-4.094,6.771-8.238c-0.717-7.326-1.08-14.761-1.08-22.099v-38.253c30.53-11.275,54.997-33.766,67.712-62.243
	h151.597c12.716,28.478,37.185,50.968,67.713,62.243v38.253c0,7.253-0.355,14.605-1.055,21.853c-0.401,4.145,2.634,7.83,6.779,8.23
	c4.141,0.41,7.83-2.634,8.23-6.779c0.747-7.728,1.126-15.568,1.126-23.304v-40.912C414.589,147.128,411.514,142.828,406.934,141.244
	z"/>
<path d="M401.746,243.087c-4.038-1.01-8.134,1.442-9.147,5.481c-6.186,24.682-16.383,48.318-30.308,70.25
	c-24.725,38.944-60.617,71.524-103.794,94.218l-2.499,1.314l-2.5-1.314c-43.176-22.694-79.067-55.274-103.792-94.218
	c-13.947-21.969-24.154-45.643-30.336-70.365c-1.01-4.041-5.108-6.491-9.144-5.486c-4.04,1.01-6.497,5.104-5.486,9.144
	c6.576,26.292,17.421,51.456,32.235,74.789c26.136,41.166,64.003,75.567,109.508,99.484l4.252,2.235
	c1.648,0.867,3.456,1.3,5.263,1.3c1.807,0,3.615-0.433,5.261-1.299l4.253-2.236c45.506-23.918,83.374-58.319,109.51-99.484
	c14.79-23.295,25.625-48.417,32.205-74.666C408.239,248.196,405.786,244.101,401.746,243.087z"/>
<path d="M275.611,124.889h-30.586c-2.382,0-4.7,0.842-6.531,2.377l-55.567,46.633c-4.212,3.534-4.861,9.699-1.475,14.036
	l18.226,23.325c1.68,2.148,4.198,3.548,6.91,3.842c2.713,0.298,5.471-0.535,7.572-2.274l15.168-12.559v91.895h-27.199
	c-5.601,0-10.159,4.556-10.159,10.158v27.739c0,5.601,4.557,10.159,10.159,10.159h105.502c5.601,0,10.158-4.557,10.158-10.159
	v-27.739c0-5.601-4.557-10.158-10.158-10.158h-21.862V135.047C285.769,129.446,281.213,124.889,275.611,124.889z M302.708,307.245
	v17.894h-95.657v-17.894h27.2c5.601,0,10.158-4.557,10.158-10.159V189.803c0-3.977-2.236-7.5-5.835-9.193s-7.739-1.168-10.801,1.368
	l-19.331,16.005l-12.179-15.588l50.554-42.426h23.872v157.117c0,5.601,4.557,10.159,10.158,10.159L302.708,307.245L302.708,307.245z
	"/>
<path d="M511.946,300.738c-0.342-3.157-2.258-5.852-5.129-7.21c-21.28-10.066-43.098-18.938-64.955-26.446
	c6.605-24.195,9.998-49.129,9.998-74.225v-71.17c0-6.211-4.874-11.295-11.092-11.572c-35.749-1.611-64.153-27.041-66.071-59.149
	c-0.365-6.143-5.449-10.955-11.573-10.955H148.871c-6.124,0-11.208,4.812-11.573,10.953c-1.917,32.111-30.322,57.54-66.068,59.151
	c-6.222,0.278-11.095,5.362-11.095,11.572v71.17c0,25.097,3.393,50.03,9.998,74.226c-21.854,7.506-43.671,16.378-64.953,26.445
	c-2.871,1.36-4.787,4.057-5.127,7.216c-0.339,3.158,0.961,6.202,3.481,8.142c7.663,5.895,15.384,12.138,23.097,18.66
	c0.638,0.54,1.277,1.079,1.916,1.623c0.942,0.802,1.884,1.612,2.826,2.423c0.608,0.523,1.215,1.044,1.823,1.571
	c1.032,0.895,2.063,1.798,3.094,2.702c0.51,0.447,1.02,0.891,1.53,1.34c1.541,1.359,3.08,2.727,4.617,4.107
	c-1.452,4.728-2.887,9.487-4.302,14.25c-0.413,1.391-0.814,2.786-1.223,4.179c-0.869,2.955-1.745,5.913-2.593,8.858
	c-0.013,0.043-0.016,0.088-0.028,0.131c-3.042,10.568-5.983,21.158-8.785,31.698c-0.9,3.386,0.255,7.027,2.945,9.273
	c1.656,1.383,3.728,2.101,5.817,2.101c1.306-0.001,2.618-0.281,3.839-0.854c29.446-13.825,59.686-24.934,89.958-33.063
	c27.257,32.962,61.645,60.769,101.076,81.493l21.465,11.282c1.688,0.887,3.538,1.329,5.39,1.329s3.704-0.443,5.392-1.33
	l21.464-11.281c39.431-20.724,73.818-48.531,101.076-81.493c30.271,8.129,60.51,19.237,89.958,33.064
	c1.221,0.573,2.534,0.853,3.84,0.853c2.089,0,4.162-0.717,5.817-2.1c2.69-2.246,3.846-5.887,2.945-9.272
	c-2.9-10.91-5.951-21.868-9.106-32.8c-0.01-0.036-0.013-0.072-0.023-0.107c-0.958-3.318-1.926-6.621-2.898-9.911
	c-0.251-0.849-0.5-1.697-0.752-2.545c-1.368-4.603-2.744-9.165-4.122-13.655c-0.011-0.036-0.022-0.072-0.033-0.108
	c0.851-0.766,1.716-1.531,2.576-2.296c0.633-0.564,1.262-1.13,1.899-1.692c0.791-0.699,1.593-1.395,2.391-2.092
	c0.747-0.653,1.491-1.308,2.243-1.96c0.701-0.608,1.41-1.211,2.115-1.817c0.868-0.746,1.734-1.492,2.608-2.236
	c0.643-0.547,1.291-1.089,1.936-1.633c7.524-6.348,15.258-12.599,23.152-18.696C510.991,306.939,512.288,303.896,511.946,300.738z
	 M31.251,311.745c-3.576-2.965-7.152-5.876-10.721-8.712c17.761-8.063,35.846-15.271,53.957-21.511
	c1.363,4.127,2.827,8.228,4.38,12.301c-7.369,2.536-14.701,5.222-21.843,8.003C56.893,301.874,45.026,306.322,31.251,311.745z
	 M55.411,332.707c-1.681-1.525-3.365-3.034-5.051-4.536c-0.491-0.438-0.983-0.871-1.475-1.307c-1.253-1.11-2.507-2.213-3.762-3.31
	c-0.273-0.239-0.545-0.482-0.818-0.72c10.185-3.954,17.927-6.855,18.098-6.92c7.299-2.842,14.745-5.559,22.211-8.116
	c4.931,11.158,10.586,22.067,16.946,32.664c-9.778,2.924-19.558,6.135-29.184,9.585c-0.12,0.043-0.239,0.089-0.355,0.138
	c-0.119,0.049-8.394,3.495-18.843,7.728c0.217-0.727,0.429-1.457,0.647-2.183c0.267-0.89,0.535-1.779,0.803-2.668
	c1.106-3.666,2.22-7.327,3.349-10.973C59.015,338.74,58.005,335.054,55.411,332.707z M43.418,391.951
	c1.429-5.208,2.899-10.419,4.386-15.629c14.204-5.65,28.11-11.424,29.837-12.142c10.668-3.819,21.525-7.315,32.354-10.462
	c2.573,3.82,5.234,7.586,7.983,11.294C92.923,372.069,67.934,381.097,43.418,391.951z M392.451,340.81
	c-0.01,0.015-0.02,0.031-0.03,0.046c-28.155,43.517-68.412,79.853-116.584,105.172l-19.84,10.427l-19.839-10.427
	c-48.167-25.317-88.421-61.648-116.576-105.158c-0.015-0.024-0.031-0.048-0.046-0.072c-0.432-0.668-0.87-1.332-1.296-2.003
	c-28.146-44.333-43.024-94.798-43.024-145.939v-67.885c40.747-3.272,72.977-32.583,76.872-69.881h207.821
	c3.895,37.296,36.122,66.609,76.872,69.881v67.885c0,51.141-14.878,101.606-43.025,145.939
	C393.326,339.471,392.886,340.138,392.451,340.81z M454.018,342.092c0.018,0.059,0.036,0.119,0.055,0.177
	c1.077,3.479,2.14,6.974,3.197,10.473c0.32,1.059,0.639,2.116,0.958,3.181c0.138,0.46,0.272,0.922,0.41,1.382
	c-10.407-3.918-18.713-7.143-18.831-7.189c-0.062-0.024-0.124-0.047-0.187-0.07c-9.622-3.449-19.402-6.66-29.184-9.586
	c6.36-10.597,12.015-21.506,16.945-32.664c7.453,2.552,14.894,5.268,22.198,8.111c0.081,0.031,0.162,0.062,0.244,0.09
	c0.103,0.036,7.78,2.724,18.236,6.497c-0.317,0.275-0.626,0.553-0.942,0.828c-1.314,1.146-2.621,2.294-3.919,3.445
	c-0.516,0.457-1.033,0.914-1.546,1.372c-1.707,1.523-3.406,3.048-5.084,4.577c-0.646,0.589-1.192,1.26-1.633,1.988
	c-0.882,1.456-1.34,3.14-1.317,4.842C453.628,340.4,453.76,341.256,454.018,342.092z M394.017,365.012
	c2.75-3.708,5.41-7.474,7.984-11.294c10.862,3.157,21.749,6.663,32.44,10.492c1.284,0.499,15.258,5.912,29.477,11.158
	c1.581,5.527,3.143,11.056,4.661,16.583C444.061,381.096,419.071,372.068,394.017,365.012z M481.327,311.267
	c-13.662-4.987-25.086-8.999-26.396-9.458c-7.177-2.792-14.482-5.467-21.802-7.986c1.553-4.074,3.017-8.175,4.38-12.303
	c18.116,6.242,36.206,13.452,53.97,21.518C488.059,305.757,484.676,308.502,481.327,311.267z"/>
<g>
</g>
<g>
</g>
<g>
</g>
<g>
</g>
<g>
</g>
<g>
</g>
<g>
</g>
<g>
</g>
<g>
</g>
<g>
</g>
<g>
</g>
<g>
</g>
<g>
</g>
<g>
</g>
<g>
</g>
</svg>
