<?xml version="1.0" encoding="iso-8859-1"?>
<!-- Generator: Adobe Illustrator 19.0.0, SVG Export Plug-In . SVG Version: 6.00 Build 0)  -->
<svg version="1.1" id="Capa_1" xmlns="http://www.w3.org/2000/svg" xmlns:xlink="http://www.w3.org/1999/xlink" x="0px" y="0px"
	 viewBox="0 0 511.995 511.995" style="enable-background:new 0 0 511.995 511.995;" xml:space="preserve">
<path style="fill:#FF4C4C;" d="M502.659,341.19c-151.35-98.29-341.969-98.293-493.324,0c-2.505,1.627-2.44,5.313,0.133,6.829
	c9.779,5.76,23.072,13.417,27.838,16.157c1.122,0.645,1.862,1.785,1.989,3.073c0.599,6.075,2.488,24.34,4.655,36.306
	c0.508,2.808,3.702,4.207,6.102,2.662c127.024-81.772,284.863-81.774,411.891,0c2.4,1.545,5.593,0.146,6.102-2.662
	c2.167-11.966,4.056-30.231,4.655-36.306c0.127-1.288,0.867-2.428,1.989-3.073c4.766-2.74,18.059-10.397,27.838-16.157
	C505.099,346.503,505.164,342.816,502.659,341.19z"/>
<path style="fill:#EA2828;" d="M502.659,341.19c-11.441-7.43-23.112-14.284-34.968-20.591c-0.067,0.033-0.131,0.064-0.132,0.065
	c-11.362,6.814-35.379,20.596-35.379,20.596s-2.957,31.704-6.098,44.436c12.182,6.147,24.153,12.984,35.86,20.52
	c2.4,1.545,5.593,0.146,6.102-2.662c2.167-11.966,4.056-30.231,4.655-36.306c0.127-1.288,0.867-2.428,1.989-3.073
	c4.766-2.74,18.059-10.397,27.838-16.157C505.099,346.503,505.164,342.816,502.659,341.19z"/>
<path style="fill:#FEE570;" d="M462.482,344.293C398.807,309.21,328.042,290.8,255.997,290.8s-142.809,18.41-206.485,53.494
	c0,0-14.292,7.482-24.302,12.903c5.165,2.99,9.705,5.604,12.097,6.979c1.122,0.645,1.862,1.785,1.989,3.073
	c0.309,3.128,0.96,9.491,1.814,16.56c11.264-6.311,22.055-12.508,22.055-12.508c59.662-32.623,125.748-49.743,192.832-49.743
	c67.083,0,133.17,17.12,192.832,49.743c0,0,9.992,5.72,22.048,12.571c0.858-7.094,1.512-13.486,1.822-16.623
	c0.127-1.288,0.867-2.428,1.989-3.073c2.267-1.303,6.47-3.723,11.299-6.518C473.797,350.788,462.482,344.293,462.482,344.293z"/>
<path style="fill:#E1EFFB;" d="M479.514,206.144c-0.004-0.02-0.003-0.041-0.007-0.061c-0.044-0.241-0.109-0.477-0.18-0.712
	c-0.012-0.04-0.018-0.081-0.03-0.12l0,0c-0.707-2.183-2.552-3.998-5.191-4.382l-146.727-21.321L261.762,46.592
	c-0.147-0.299-0.312-0.579-0.492-0.84c-2.7-3.919-8.827-3.639-11.037,0.84l-65.618,132.956l-62.702,9.111l-84.024,12.209
	c-0.209,0.03-0.403,0.084-0.602,0.132c-0.115,0.028-0.238,0.044-0.35,0.077c-0.105,0.031-0.2,0.078-0.303,0.114
	c-0.193,0.068-0.389,0.132-0.571,0.216c-0.058,0.027-0.108,0.063-0.164,0.091c-0.215,0.108-0.429,0.219-0.627,0.349
	c-0.037,0.025-0.069,0.055-0.106,0.08c-0.208,0.143-0.412,0.292-0.599,0.456c-0.008,0.007-0.014,0.015-0.021,0.021
	c-0.211,0.188-0.41,0.387-0.592,0.599c-0.021,0.024-0.036,0.051-0.056,0.075c-0.165,0.198-0.323,0.402-0.463,0.618
	c-0.013,0.021-0.023,0.044-0.036,0.064c-0.141,0.222-0.272,0.451-0.385,0.688c-0.007,0.016-0.012,0.033-0.019,0.049
	c-0.114,0.244-0.215,0.494-0.298,0.751l0,0l0,0c-0.706,2.179-0.277,4.726,1.628,6.583l106.171,103.492l-11.389,66.406
	l-13.674,79.726c-0.056,0.328-0.088,0.652-0.095,0.969c-0.002,0.061,0.008,0.118,0.008,0.179c0.001,0.255,0.006,0.508,0.036,0.754
	c0.001,0.009,0.004,0.017,0.005,0.026c0.037,0.294,0.093,0.582,0.169,0.862c0.01,0.037,0.026,0.07,0.037,0.106
	c0.073,0.249,0.154,0.495,0.255,0.73c0.001,0.001,0.001,0.002,0.002,0.003c0.232,0.536,0.536,1.033,0.897,1.48
	c0.001,0.001,0.002,0.002,0.003,0.003c0.362,0.446,0.781,0.842,1.244,1.178l0,0c1.855,1.346,4.41,1.726,6.767,0.487l131.236-68.992
	l131.235,68.994c1.166,0.613,2.381,0.827,3.535,0.726c0.012-0.001,0.024,0,0.036-0.001c1.125-0.105,2.187-0.516,3.093-1.149
	c0.033-0.023,0.069-0.041,0.102-0.064l0,0c1.857-1.347,3.012-3.662,2.561-6.29l-25.064-146.133l0,0l106.171-103.492l0,0
	c0.238-0.232,0.453-0.475,0.646-0.727c0.087-0.113,0.152-0.234,0.23-0.35c0.095-0.143,0.2-0.282,0.282-0.429
	c0.085-0.152,0.147-0.311,0.217-0.467c0.053-0.118,0.118-0.233,0.164-0.352c0.069-0.183,0.116-0.37,0.167-0.556
	c0.027-0.097,0.065-0.192,0.087-0.29c0.06-0.266,0.098-0.534,0.123-0.803c0.002-0.019,0.007-0.038,0.009-0.058
	c0.021-0.252,0.021-0.504,0.012-0.756c-0.001-0.036,0.004-0.072,0.002-0.108C479.594,206.67,479.56,206.406,479.514,206.144z"/>
<g>
	<path style="fill:#C3D8E5;" d="M261.762,46.592c-1.179-2.389-3.472-3.583-5.765-3.583v235.003l71.382-98.464L261.762,46.592z"/>
	<path style="fill:#C3D8E5;" d="M32.698,205.25l223.299,72.762l-71.382-98.464l-146.726,21.32
		C35.25,201.252,33.405,203.067,32.698,205.25z"/>
	<path style="fill:#C3D8E5;" d="M479.296,205.25l-223.299,72.762l115.499,37.313l106.172-103.492
		C479.573,209.976,480.002,207.429,479.296,205.25z"/>
	<path style="fill:#C3D8E5;" d="M117.995,467.748l138.002-189.736l-115.499,37.313l-25.064,146.133
		C114.984,464.085,116.138,466.4,117.995,467.748z"/>
	<path style="fill:#C3D8E5;" d="M393.999,467.748L255.997,278.012V399.24l131.235,68.994
		C389.589,469.473,392.144,469.093,393.999,467.748z"/>
</g>
<circle style="fill:#61AFF6;" cx="255.997" cy="278.148" r="86.25"/>
<path style="fill:#49A0E8;" d="M255.997,191.899c-7.903,0-15.55,1.084-22.821,3.075c36.556,10.008,63.431,43.445,63.431,83.177
	s-26.874,73.169-63.431,83.177c7.272,1.991,14.918,3.075,22.821,3.075c47.636,0,86.252-38.616,86.252-86.252
	S303.633,191.899,255.997,191.899z"/>
<path style="fill:#F4D658;" d="M478.092,362.216c2.193-1.263,4.923-2.839,7.895-4.559c-12.19-6.869-23.505-13.364-23.505-13.364
	c-6.168-3.398-12.404-6.636-18.699-9.719c-6.556,3.79-11.603,6.686-11.603,6.686s-0.896,9.599-2.224,20.352
	c6.356,3.063,12.651,6.287,18.873,9.689c0,0,9.992,5.72,22.048,12.571c0.638-5.276,1.163-10.16,1.518-13.609
	c0.004-0.037,0.008-0.077,0.012-0.114c0.025-0.247,0.05-0.483,0.073-0.714c0.004-0.035,0.007-0.073,0.011-0.107
	c0.05-0.492,0.095-0.944,0.137-1.359c0.003-0.035,0.007-0.074,0.011-0.108c0.021-0.215,0.042-0.42,0.061-0.611
	c0.127-1.288,0.867-2.428,1.989-3.073c0.749-0.431,1.725-0.992,2.85-1.64C477.723,362.428,477.898,362.327,478.092,362.216z"/>
<path d="M255.855,228.116c-1.641,0-2.735,0.547-3.693,1.504l-14.222,13.675c-1.778,1.231-2.872,3.556-2.872,5.607
	c0,2.872,2.051,5.881,4.923,5.881c0.821,0,2.051-0.41,3.009-1.367l4.786-6.017v76.035c0,3.145,3.556,4.786,7.248,4.786
	c3.556,0,7.248-1.641,7.248-4.786v-90.53C262.283,229.894,258.864,228.116,255.855,228.116z"/>
<path d="M506.744,334.9c-30.132-19.569-62.275-35.561-95.698-47.653l71.856-70.043l0.001-0.001l0.002-0.002
	c0.017-0.016,0.031-0.034,0.047-0.05c0.224-0.221,0.441-0.446,0.648-0.679c0.124-0.139,0.233-0.278,0.348-0.418
	c0.094-0.114,0.192-0.225,0.281-0.341c0.005-0.006,0.011-0.013,0.016-0.019c0.016-0.021,0.029-0.044,0.045-0.065
	c0.388-0.51,0.738-1.042,1.048-1.592c0.011-0.02,0.026-0.039,0.037-0.058c0.094-0.168,0.182-0.34,0.268-0.519
	c0.198-0.394,0.378-0.795,0.537-1.204c0.011-0.028,0.028-0.06,0.038-0.087c0.02-0.052,0.031-0.105,0.05-0.157
	c0.195-0.531,0.359-1.072,0.487-1.622c0.008-0.033,0.018-0.059,0.025-0.093c0.022-0.098,0.037-0.198,0.057-0.298
	c0.032-0.16,0.065-0.319,0.092-0.481c0.006-0.039,0.01-0.077,0.016-0.116c0.045-0.29,0.083-0.581,0.11-0.873
	c0.003-0.031,0.007-0.062,0.01-0.093c0.002-0.026,0-0.054,0.002-0.08c0.046-0.575,0.058-1.153,0.031-1.734
	c0-0.014,0-0.031-0.001-0.044c-0.001-0.018-0.005-0.038-0.006-0.056c-0.026-0.475-0.075-0.951-0.15-1.426
	c-0.001-0.01-0.001-0.019-0.003-0.029c-0.003-0.016-0.005-0.031-0.007-0.047c-0.001-0.009-0.003-0.019-0.005-0.028
	c-0.012-0.07-0.022-0.14-0.035-0.209c-0.005-0.025-0.008-0.05-0.012-0.075c-0.007-0.037-0.02-0.076-0.027-0.113
	c-0.077-0.396-0.174-0.791-0.287-1.184c-0.004-0.015-0.006-0.028-0.01-0.042c-0.039-0.149-0.083-0.301-0.124-0.43
	c-1.647-5.085-5.957-8.723-11.249-9.492l-142.823-20.755L268.487,43.273l0,0l-0.001-0.002c-0.15-0.304-0.31-0.6-0.479-0.888
	c-0.056-0.096-0.121-0.189-0.18-0.284c-0.116-0.188-0.231-0.377-0.355-0.558c-0.01-0.014-0.018-0.029-0.028-0.044
	c-0.154-0.223-0.316-0.439-0.482-0.652c-0.019-0.024-0.035-0.049-0.054-0.073c-0.106-0.134-0.22-0.261-0.331-0.391
	c-2.241-2.634-5.379-4.338-8.862-4.762c-0.008-0.001-0.016-0.002-0.023-0.002c-0.281-0.034-0.564-0.062-0.85-0.079
	c-0.1-0.006-0.201-0.006-0.301-0.01c-0.182-0.007-0.362-0.019-0.545-0.019c-0.018,0-0.036,0.003-0.054,0.003
	c-0.321,0.001-0.643,0.011-0.966,0.034c-4.972,0.361-9.26,3.25-11.47,7.727l-27.633,55.992c-1.833,3.714-0.308,8.211,3.406,10.044
	c3.717,1.834,8.211,0.308,10.044-3.406l19.174-38.851v117.65c-14.994,1.192-29.006,5.926-41.195,13.365l-13.961-19.256l20.527-41.59
	c1.833-3.714,0.309-8.211-3.406-10.044c-3.714-1.832-8.211-0.308-10.044,3.406l-20.784,42.111L36.809,193.448
	c-0.218,0.032-0.432,0.072-0.65,0.118c-0.451,0.087-0.897,0.189-1.331,0.318c-0.013,0.004-0.025,0.006-0.038,0.009
	c-0.055,0.016-0.108,0.039-0.162,0.057c-0.36,0.112-0.714,0.24-1.061,0.38c-0.117,0.045-0.227,0.091-0.338,0.138
	c-0.073,0.031-0.147,0.06-0.218,0.093c-0.021,0.01-0.045,0.018-0.066,0.028c-0.105,0.048-0.205,0.104-0.307,0.156
	c-0.241,0.118-0.478,0.242-0.71,0.373c-0.114,0.063-0.233,0.134-0.354,0.206c-0.094,0.057-0.19,0.112-0.282,0.171
	c-0.036,0.023-0.068,0.04-0.105,0.064c-0.049,0.032-0.098,0.065-0.146,0.099c-0.074,0.05-0.145,0.103-0.217,0.156
	c-0.19,0.133-0.376,0.271-0.56,0.413c-0.078,0.06-0.154,0.119-0.228,0.179c-0.112,0.091-0.223,0.181-0.332,0.275
	c-0.023,0.02-0.049,0.039-0.071,0.059c-0.064,0.056-0.129,0.114-0.192,0.174c-0.033,0.03-0.063,0.062-0.096,0.092
	c-0.142,0.132-0.281,0.266-0.418,0.403c-0.077,0.077-0.147,0.152-0.22,0.229c-0.123,0.13-0.246,0.261-0.364,0.396
	c-0.009,0.011-0.021,0.022-0.03,0.032c-0.048,0.055-0.098,0.12-0.148,0.18c-0.203,0.242-0.398,0.491-0.585,0.747
	c-0.02,0.028-0.041,0.057-0.061,0.085c-0.127,0.176-0.251,0.354-0.369,0.537c-0.012,0.019-0.025,0.036-0.038,0.055
	c-0.047,0.073-0.097,0.155-0.145,0.238c-0.003,0.005-0.006,0.01-0.009,0.015c-0.113,0.185-0.223,0.373-0.328,0.564
	c-0.057,0.102-0.11,0.206-0.163,0.308c-0.07,0.135-0.141,0.268-0.206,0.405c-0.007,0.014-0.014,0.027-0.021,0.041
	c-0.038,0.082-0.076,0.166-0.112,0.251c-0.01,0.021-0.015,0.043-0.025,0.064c-0.199,0.449-0.384,0.907-0.538,1.382
	c-0.004,0.011-0.005,0.022-0.009,0.033c-1.627,5.067-0.272,10.517,3.538,14.23l71.858,70.044
	c-33.422,12.092-65.565,28.084-95.699,47.653c-3.376,2.193-5.338,5.902-5.25,9.923c0.088,4.011,2.206,7.621,5.663,9.656
	c4.881,2.875,10.662,6.237,15.78,9.2c0.004,0.002,0.007,0.005,0.01,0.007c1.359,0.786,2.666,1.542,3.91,2.26
	c0.002,0.001,0.003,0.002,0.005,0.003c0.491,0.283,0.969,0.559,1.436,0.829c0.062,0.036,0.125,0.072,0.187,0.108
	c0.372,0.215,0.733,0.423,1.087,0.627c0.145,0.084,0.292,0.168,0.433,0.25c1.32,0.761,2.506,1.444,3.501,2.017
	c0.353,3.484,0.93,8.943,1.652,14.928c0.002,0.016,0.007,0.031,0.009,0.047c0.818,6.758,1.823,14.199,2.897,20.135
	c0.687,3.793,3.208,6.974,6.742,8.509c1.472,0.639,3.03,0.955,4.583,0.954c2.172,0,4.331-0.617,6.216-1.831
	c21.607-13.91,44.458-25.583,68.077-34.805l-14.143,82.465v0.001l-0.001,0.005c-0.057,0.33-0.101,0.66-0.135,0.989
	c-0.027,0.267-0.04,0.524-0.051,0.779c-0.003,0.069-0.011,0.139-0.013,0.208c0,0.008-0.001,0.016-0.001,0.024
	c-0.003,0.112,0.002,0.22,0.003,0.329c-0.001,0.28,0.004,0.559,0.019,0.837c0.009,0.197,0.025,0.402,0.045,0.614
	c0.005,0.051,0.007,0.102,0.013,0.153c0.003,0.023,0.003,0.044,0.006,0.066c0.011,0.097,0.023,0.195,0.039,0.294
	c0.014,0.104,0.035,0.203,0.052,0.306c0.021,0.132,0.042,0.264,0.067,0.395c0.038,0.204,0.082,0.395,0.127,0.586
	c0.023,0.099,0.044,0.198,0.07,0.296c0.008,0.029,0.013,0.062,0.021,0.09c0.041,0.156,0.088,0.306,0.137,0.456
	c0.064,0.211,0.133,0.419,0.207,0.626c0.04,0.113,0.081,0.226,0.123,0.334c0.049,0.126,0.098,0.252,0.15,0.377
	c0.016,0.038,0.03,0.079,0.047,0.117v-0.001c0.012,0.025,0.022,0.051,0.034,0.076c0.011,0.025,0.026,0.047,0.037,0.072
	c0.232,0.52,0.494,1.026,0.79,1.516c0.023,0.038,0.047,0.074,0.07,0.112c0.302,0.489,0.632,0.961,0.995,1.412
	c0.009,0.011,0.015,0.023,0.024,0.034c0.024,0.03,0.05,0.061,0.075,0.091c0.018,0.021,0.039,0.039,0.056,0.06
	c0.353,0.423,0.729,0.828,1.135,1.211c0.032,0.031,0.066,0.059,0.099,0.089c0.411,0.381,0.842,0.744,1.304,1.08
	c0.001,0,0.001,0.001,0.002,0.001c0,0,0,0,0.001,0.001c2.44,1.769,5.293,2.669,8.166,2.669c2.214,0,4.438-0.534,6.493-1.614
	l127.743-67.158l127.746,67.16h0.001h0.001h0.001c0.467,0.246,0.948,0.456,1.434,0.646c0.071,0.028,0.142,0.059,0.213,0.085
	c0.462,0.172,0.931,0.316,1.405,0.438c0.09,0.023,0.18,0.045,0.271,0.067c0.475,0.112,0.954,0.202,1.437,0.263
	c0.07,0.009,0.14,0.013,0.21,0.021c0.478,0.053,0.957,0.084,1.437,0.087c0.027,0,0.054,0.005,0.082,0.005
	c0.012,0,0.023-0.001,0.035-0.001c0.27-0.001,0.54-0.014,0.81-0.032c0.095-0.006,0.191-0.008,0.287-0.016
	c0.043-0.003,0.088-0.006,0.13-0.01c0.046-0.004,0.09-0.017,0.136-0.021c0.504-0.051,1.005-0.13,1.501-0.237
	c0.042-0.009,0.084-0.015,0.125-0.025c0.536-0.121,1.064-0.277,1.585-0.462c0.041-0.014,0.081-0.03,0.121-0.045
	c1.045-0.381,2.052-0.892,3.004-1.531c0.02-0.013,0.042-0.023,0.062-0.037c0.122-0.078,0.241-0.16,0.346-0.236
	c0.007-0.005,0.015-0.01,0.023-0.015c0.003-0.002,0.006-0.005,0.009-0.007c4.32-3.139,6.443-8.357,5.54-13.62l-14.145-82.473
	c23.62,9.223,46.47,20.895,68.076,34.804c1.887,1.215,4.046,1.832,6.217,1.832c1.553,0,3.113-0.315,4.584-0.955
	c3.535-1.535,6.054-4.717,6.74-8.509c1.783-9.845,3.353-23.55,4.249-32.089c0.019-0.181,0.036-0.344,0.054-0.519
	c0.035-0.339,0.072-0.684,0.104-1.005c0.055-0.53,0.106-1.032,0.153-1.496c2.397-1.379,5.877-3.385,9.761-5.633
	c0.001-0.001,0.002-0.002,0.003-0.002c5.309-3.072,11.446-6.639,16.584-9.665c3.458-2.036,5.576-5.646,5.663-9.657
	C512.082,340.802,510.119,337.093,506.744,334.9z M458.702,219.848l-89.203,86.951l-22.233-7.183
	c1.622-6.896,2.483-14.082,2.483-21.466c0-7.558-0.905-14.908-2.602-21.953L458.702,219.848L458.702,219.848z M454.17,205.55
	l-111.697,36.396c-5.723-13.617-14.572-25.606-25.643-35.069l13.961-19.257L454.17,205.55z M263.496,67.051l9.063,18.363
	l46.093,93.396l-13.96,19.256c-12.19-7.439-26.201-12.173-41.195-13.365L263.496,67.051L263.496,67.051z M57.825,205.55
	l123.38-17.928l13.96,19.256c-11.071,9.463-19.921,21.452-25.643,35.069L57.825,205.55L57.825,205.55z M53.292,219.848
	l111.556,36.35c-1.697,7.045-2.602,14.395-2.602,21.953c0,7.384,0.861,14.57,2.483,21.466l-22.233,7.182L53.292,219.848z
	 M25.344,348.605c-2.377-1.379-4.812-2.797-7.168-4.174c29.867-18.878,61.699-34.158,94.753-45.507l6.703,6.534
	c-25.39,8.447-50.12,19.258-73.669,32.227C44.993,338.195,34.398,343.749,25.344,348.605z M47.291,371.716
	c-0.228-2.149-0.407-3.94-0.533-5.209c-0.056-0.563-0.166-1.112-0.302-1.654c-0.532-2.115-1.643-4.04-3.214-5.537
	c-0.658-0.627-1.394-1.181-2.198-1.643c-0.117-0.066-0.239-0.137-0.364-0.209c-0.011-0.006-0.021-0.012-0.032-0.018
	c6.619-3.51,12.255-6.461,12.344-6.508c0.048-0.024,0.095-0.05,0.141-0.075c25.059-13.808,51.499-25.083,78.65-33.56l0.658,0.642
	l-2.816,16.416c-24.113,7.913-47.66,18.115-70.057,30.362c-0.045,0.024-0.091,0.05-0.136,0.076
	C59.356,364.841,54.163,367.822,47.291,371.716z M50.471,397.069c-0.455-2.941-0.891-6.076-1.295-9.191
	c8.997-5.069,16.837-9.565,17.653-10.033c19.225-10.508,39.329-19.447,59.909-26.663l-1.611,9.395
	C99.231,370.005,74.158,382.257,50.471,397.069z M126.051,443.923l21.071-122.857c0.002-0.013-0.002,0.013,0,0l0,0l22.209-7.174
	c5.675,13.712,14.511,25.795,25.597,35.334L126.051,443.923z M248.498,394.71l-110.274,57.975l68.815-94.612
	c12.251,7.532,26.356,12.329,41.459,13.53V394.71z M177.244,278.151c0-43.424,35.329-78.752,78.753-78.752
	s78.753,35.328,78.753,78.752s-35.329,78.753-78.753,78.753S177.244,321.576,177.244,278.151z M356.302,403.169
	c-2.436-3.351-7.128-4.089-10.476-1.654c-3.35,2.436-4.09,7.126-1.654,10.476l29.599,40.694L263.497,394.71l0,0v-23.107
	c15.103-1.201,29.207-5.997,41.459-13.53l18.511,25.45c1.468,2.018,3.754,3.09,6.071,3.09c1.53,0,3.074-0.467,4.405-1.435
	c3.35-2.436,4.09-7.126,1.654-10.476l-18.53-25.476c11.087-9.539,19.922-21.623,25.597-35.334l22.21,7.175l0,0l0,0l0,0
	c0.004,0.024-0.004-0.023,0,0l21.071,122.858L356.302,403.169z M461.522,397.069c-23.686-14.813-48.758-27.064-74.655-36.493
	l-1.611-9.395c20.582,7.216,40.687,16.157,59.913,26.665c0.761,0.435,8.155,4.666,17.644,10.066
	C462.409,391.018,461.975,394.141,461.522,397.069z M470.296,358.103c-0.177,0.119-0.361,0.227-0.53,0.355
	c-0.191,0.144-0.364,0.306-0.545,0.461c-0.164,0.141-0.337,0.272-0.492,0.422c-0.17,0.163-0.321,0.343-0.48,0.516
	c-0.147,0.159-0.302,0.31-0.44,0.477c-0.15,0.182-0.28,0.38-0.418,0.571c-0.126,0.173-0.261,0.339-0.377,0.519
	c-0.132,0.205-0.241,0.423-0.36,0.636c-0.1,0.18-0.212,0.353-0.303,0.538c-0.115,0.235-0.206,0.482-0.304,0.726
	c-0.071,0.175-0.155,0.344-0.218,0.522c-0.097,0.276-0.166,0.561-0.242,0.844c-0.041,0.156-0.097,0.306-0.132,0.464
	c-0.099,0.445-0.172,0.897-0.217,1.356c-0.019,0.196-0.042,0.427-0.064,0.647c-0.115,1.153-0.274,2.713-0.47,4.569
	c-7.168-4.085-12.145-6.934-12.148-6.935c-0.042-0.024-0.085-0.048-0.127-0.071c-22.397-12.247-45.944-22.449-70.057-30.362
	l-2.816-16.416l0.659-0.642c27.127,8.469,53.546,19.735,78.592,33.528c0.58,0.333,5.484,3.145,12.068,6.888
	C470.672,357.835,470.489,357.975,470.296,358.103z M485.938,349.018c-10.533-5.954-19.622-11.171-19.724-11.229
	c-0.037-0.021-0.076-0.043-0.114-0.064c-23.573-12.987-48.326-23.811-73.738-32.265l6.703-6.534
	c33.055,11.349,64.887,26.63,94.753,45.507C491.226,345.947,488.539,347.509,485.938,349.018z"/>
<g>
</g>
<g>
</g>
<g>
</g>
<g>
</g>
<g>
</g>
<g>
</g>
<g>
</g>
<g>
</g>
<g>
</g>
<g>
</g>
<g>
</g>
<g>
</g>
<g>
</g>
<g>
</g>
<g>
</g>
</svg>
