<?xml version="1.0" encoding="iso-8859-1"?>
<!-- Generator: Adobe Illustrator 19.0.0, SVG Export Plug-In . SVG Version: 6.00 Build 0)  -->
<svg version="1.1" id="Capa_1" xmlns="http://www.w3.org/2000/svg" xmlns:xlink="http://www.w3.org/1999/xlink" x="0px" y="0px"
	 viewBox="0 0 512.002 512.002" style="enable-background:new 0 0 512.002 512.002;" xml:space="preserve">
<g>
	<path style="fill:#FFB125;" d="M45.462,115.009c12.537-13.679,25.676-25.988,40.142-37.415c1.701-1.344,4.15,0.265,3.581,2.356
		c-8.108,29.802-22.275,59.254-44.114,81.148C44.09,145.771,44.075,130.316,45.462,115.009z"/>
	<path style="fill:#FFB125;" d="M45.072,161.11c-12.609-15.216-23.444-30.948-33.207-47.932c-1.116-1.942-4.086-1.249-4.199,0.988
		c-1.761,34.791,11.532,75.5,43.918,91.918C48.356,191.29,46.031,176.233,45.072,161.11z"/>
	<path style="fill:#FFB125;" d="M51.582,206.074c7.935-16.327,16.818-31.518,27.228-46.242c1.235-1.747,4.005-0.946,4.095,1.191
		c1.268,30.053-3.889,61.823-18.289,88.205C59.279,235.186,54.776,220.762,51.582,206.074z"/>
	<path style="fill:#FFB125;" d="M64.62,249.238c-16.372-10.522-31.329-22.028-45.676-34.951c-1.655-1.491-4.251,0.066-3.69,2.221
		c8.643,33.231,33.359,67.333,68.548,73.357C76.487,276.803,69.934,263.245,64.62,249.238z"/>
	<path style="fill:#FFB125;" d="M83.796,289.856c2.868-17.812,6.971-34.804,12.681-51.791c0.679-2.021,3.548-2.059,4.26-0.05
		c9.987,28.195,14.033,60.005,8.007,89.238C99.585,315.398,91.111,302.94,83.796,289.856z"/>
	<path style="fill:#FFB125;" d="M108.751,327.262c-18.663-5.288-36.295-11.9-53.758-20.005c-2.018-0.936-4.039,1.308-2.877,3.204
		c17.954,29.279,51.568,54.63,86.973,50.261C128.221,350.31,117.951,339.186,108.751,327.262z"/>
	<path style="fill:#FFB125;" d="M139.081,360.714c-2.547-17.947-3.628-35.449-3.128-53.442c0.059-2.133,2.795-3.007,4.062-1.29
		c17.882,24.244,31.223,53.694,34.415,83.551C161.994,380.795,150.055,371.244,139.081,360.714z"/>
	<path style="fill:#FFB125;" d="M466.54,115.009c-12.537-13.679-25.676-25.988-40.142-37.415c-1.701-1.344-4.15,0.265-3.581,2.356
		c8.108,29.802,22.275,59.254,44.114,81.148C467.912,145.771,467.927,130.316,466.54,115.009z"/>
	<path style="fill:#FFB125;" d="M466.93,161.11c12.609-15.216,23.444-30.948,33.207-47.932c1.116-1.942,4.086-1.249,4.199,0.988
		c1.761,34.791-11.532,75.5-43.918,91.918C463.646,191.29,465.971,176.233,466.93,161.11z"/>
	<path style="fill:#FFB125;" d="M460.42,206.074c-7.935-16.327-16.818-31.518-27.228-46.242c-1.235-1.747-4.005-0.946-4.095,1.191
		c-1.268,30.053,3.889,61.823,18.289,88.205C452.723,235.186,457.226,220.762,460.42,206.074z"/>
	<path style="fill:#FFB125;" d="M447.382,249.238c16.372-10.522,31.329-22.028,45.676-34.951c1.655-1.491,4.251,0.066,3.69,2.221
		c-8.643,33.231-33.359,67.333-68.548,73.357C435.515,276.803,442.068,263.245,447.382,249.238z"/>
	<path style="fill:#FFB125;" d="M428.206,289.856c-2.868-17.812-6.971-34.804-12.681-51.791c-0.679-2.021-3.548-2.059-4.26-0.05
		c-9.987,28.195-14.033,60.005-8.007,89.238C412.417,315.398,420.891,302.94,428.206,289.856z"/>
	<path style="fill:#FFB125;" d="M403.251,327.262c18.663-5.288,36.295-11.9,53.758-20.005c2.018-0.936,4.039,1.308,2.877,3.204
		c-17.954,29.279-51.568,54.63-86.973,50.261C383.781,350.31,394.051,339.186,403.251,327.262z"/>
	<path style="fill:#FFB125;" d="M372.921,360.714c2.547-17.947,3.628-35.449,3.128-53.442c-0.059-2.133-2.795-3.007-4.062-1.29
		c-17.882,24.244-31.223,53.694-34.415,83.551C350.008,380.795,361.947,371.244,372.921,360.714z"/>
</g>
<path style="fill:#10C4C4;" d="M342.186,127.639c-0.973-1.537-2.664-2.468-4.483-2.468h-81.702h-81.702
	c-1.819,0-3.51,0.931-4.483,2.468l-38.64,61.047c-1.201,1.897-1.077,4.345,0.309,6.112L251.827,348.2
	c2.124,2.708,6.224,2.708,8.349,0l120.342-153.402c1.386-1.767,1.51-4.215,0.309-6.112L342.186,127.639z"/>
<path style="fill:#21D8DE;" d="M169.816,127.639l-0.66,1.043l-37.98,60.004c-0.612,0.967-0.876,2.076-0.808,3.165h251.267
	c0.068-1.089-0.196-2.198-0.808-3.165l-37.98-60.004l-0.66-1.043c-0.973-1.537-2.664-2.468-4.483-2.468h-81.703h-81.702
	C172.48,125.171,170.789,126.102,169.816,127.639z"/>
<g>
	<polygon style="fill:#25F2F2;" points="255.674,125.17 213.2,191.847 256.001,191.847 298.149,191.847 	"/>
	<path style="fill:#25F2F2;" d="M298.149,191.847l83.485,0.004l0,0c0.033-0.536-0.016-1.076-0.145-1.602
		c-0.002-0.009-0.003-0.019-0.005-0.028c-0.059-0.235-0.141-0.466-0.234-0.694c-0.013-0.031-0.019-0.064-0.033-0.095
		c-0.109-0.256-0.24-0.505-0.392-0.746l-7.828-12.367l-25.166-39.759l-5.647-8.921c-0.123-0.195-0.258-0.379-0.404-0.554
		c-0.016-0.02-0.036-0.036-0.052-0.056c-0.132-0.154-0.269-0.302-0.417-0.439c-0.003-0.003-0.007-0.005-0.01-0.008
		c-0.329-0.303-0.694-0.563-1.085-0.774l0,0L298.149,191.847z"/>
</g>
<path style="fill:#21D8DE;" d="M381.634,191.85L381.634,191.85c0.033-0.536-0.016-1.076-0.145-1.602c0,0,0-0.001,0-0.002
	c-0.002-0.009-0.002-0.018-0.005-0.027c-0.059-0.235-0.141-0.466-0.234-0.694c-0.013-0.031-0.019-0.064-0.033-0.095
	c-0.109-0.256-0.24-0.505-0.392-0.746l-7.068-11.167l-8.639-13.649l-17.286-27.31l-5.647-8.921
	c-0.123-0.195-0.258-0.379-0.404-0.554c-0.013-0.016-0.028-0.03-0.043-0.046c-0.003-0.004-0.007-0.007-0.011-0.011
	c-0.132-0.153-0.269-0.302-0.416-0.438c-0.001-0.001-0.002-0.002-0.004-0.003c-0.003-0.003-0.006-0.004-0.009-0.007
	c-0.328-0.302-0.692-0.562-1.082-0.772l0,0l0,0l-20.204,31.715l18.664,29.487c0.933,1.474,1.057,3.278,0.419,4.839L381.634,191.85z"
	/>
<path style="fill:#25F2F2;" d="M171.784,125.808c-0.79,0.425-1.473,1.048-1.968,1.831l-13.572,21.442l-25.068,39.605
	c-0.612,0.967-0.876,2.076-0.808,3.165l83.485-0.004L171.784,125.808z"/>
<g>
	<path style="fill:#21D8DE;" d="M213.853,191.847h-83.486c0.064,1.051,0.437,2.083,1.117,2.951L251.827,348.2
		c0.861,1.098,2.048,1.742,3.295,1.95L213.853,191.847z"/>
	<path style="fill:#21D8DE;" d="M380.518,194.798c0.171-0.218,0.321-0.446,0.454-0.682c0.114-0.204,0.207-0.416,0.292-0.631
		c0.013-0.032,0.031-0.062,0.043-0.094c0.185-0.495,0.294-1.013,0.327-1.535c0-0.002,0.001-0.004,0.001-0.005l-83.812-0.004
		l-40.95,158.304l0,0c0.583-0.096,1.152-0.292,1.682-0.581c0.048-0.027,0.098-0.051,0.146-0.079c0.086-0.051,0.17-0.107,0.253-0.163
		c0.075-0.051,0.15-0.103,0.224-0.158c0.068-0.051,0.136-0.104,0.203-0.159c0.09-0.075,0.177-0.153,0.262-0.235
		c0.05-0.047,0.101-0.092,0.149-0.142c0.133-0.137,0.263-0.28,0.384-0.435l76.283-97.239L380.518,194.798z"/>
</g>
<g>
	<path style="fill:#10C4C4;" d="M380.518,194.798c0.171-0.218,0.322-0.446,0.454-0.682c0.113-0.202,0.205-0.412,0.289-0.624
		c0.004-0.009,0.009-0.018,0.013-0.028c0.011-0.024,0.024-0.048,0.033-0.073c0.185-0.494,0.293-1.01,0.326-1.532
		c0-0.003,0.001-0.006,0.001-0.009l-42.537-0.002c-0.183,0.448-0.419,0.879-0.728,1.273l-60.987,77.741l-20.51,79.288l0,0
		c0.583-0.096,1.152-0.292,1.681-0.581c0.034-0.019,0.068-0.037,0.102-0.056c0.014-0.008,0.029-0.015,0.044-0.024
		c0.086-0.05,0.169-0.106,0.252-0.162c0.076-0.051,0.151-0.103,0.225-0.158c0.068-0.051,0.136-0.104,0.202-0.159
		c0.034-0.028,0.065-0.059,0.098-0.088c0.055-0.048,0.111-0.096,0.165-0.147c0.05-0.047,0.1-0.092,0.149-0.142
		c0.133-0.137,0.263-0.28,0.384-0.435l76.283-97.239L380.518,194.798z"/>
	<path style="fill:#10C4C4;" d="M320.014,157.523l20.195-31.702c-0.373-0.201-0.762-0.374-1.175-0.481
		c-0.43-0.111-0.876-0.17-1.331-0.17H299.41c0.23,0.244,0.445,0.503,0.628,0.792L320.014,157.523z"/>
</g>
<g>
	<path style="fill:#0BB2AD;" d="M252.455,348.86c-0.221-0.2-0.434-0.414-0.626-0.658
		C252.021,348.447,252.234,348.661,252.455,348.86z"/>
	<path style="fill:#0BB2AD;" d="M253.17,349.394c-0.172-0.109-0.34-0.227-0.501-0.357
		C252.83,349.167,252.997,349.286,253.17,349.394z"/>
	<path style="fill:#0BB2AD;" d="M253.995,349.816c-0.192-0.078-0.383-0.161-0.566-0.262
		C253.613,349.655,253.803,349.74,253.995,349.816z"/>
	<path style="fill:#0BB2AD;" d="M254.851,350.08c-0.063-0.014-0.125-0.032-0.187-0.048
		C254.727,350.047,254.788,350.066,254.851,350.08z"/>
	<path style="fill:#0BB2AD;" d="M234.27,325.819l0.764,0.975L234.27,325.819z"/>
	<path style="fill:#0BB2AD;" d="M245.16,311.937l9.954,38.182c0.585,0.093,1.181,0.099,1.767-0.001l20.502-79.256L245.16,311.937z"
		/>
</g>
<g>
	<path style="fill:#21D8DE;" d="M255.122,350.15l-0.008-0.03c-0.088-0.014-0.176-0.021-0.263-0.04
		C254.943,350.1,255.031,350.135,255.122,350.15z"/>
	<path style="fill:#21D8DE;" d="M254.664,350.031c-0.227-0.056-0.45-0.128-0.669-0.215
		C254.214,349.905,254.437,349.973,254.664,350.031z"/>
	<polygon style="fill:#21D8DE;" points="235.034,326.794 251.827,348.2 251.829,348.202 251.827,348.2 	"/>
	<path style="fill:#21D8DE;" d="M252.668,349.037c-0.072-0.058-0.144-0.114-0.213-0.177
		C252.525,348.923,252.596,348.979,252.668,349.037z"/>
	<path style="fill:#21D8DE;" d="M253.429,349.554c-0.089-0.048-0.173-0.106-0.26-0.16
		C253.256,349.449,253.34,349.506,253.429,349.554z"/>
</g>
<path style="fill:#10C4C4;" d="M234.27,325.819l0.764,0.974l16.793,21.406c0.001,0.001,0.001,0.002,0.002,0.002
	c0.192,0.244,0.405,0.459,0.626,0.658c0.069,0.062,0.141,0.119,0.213,0.177c0.161,0.131,0.329,0.249,0.501,0.357
	c0.086,0.054,0.171,0.112,0.26,0.16c0.184,0.101,0.374,0.184,0.566,0.262c0.219,0.087,0.442,0.159,0.669,0.215
	c0.063,0.016,0.124,0.035,0.187,0.048c0.087,0.018,0.175,0.026,0.263,0.04l-9.954-38.182L234.27,325.819z"/>
<path d="M499.642,207.617c-3.718-2.257-8.385-1.819-11.611,1.091c-8.537,7.69-17.201,14.77-26.158,21.398
	c1.969-6.463,3.67-12.815,5.11-19.03c15.102-8.629,27.192-22.76,35.097-41.084c7.274-16.862,10.74-36.822,9.759-56.204
	c-0.221-4.354-3.218-7.963-7.459-8.982c-4.252-1.017-8.573,0.838-10.755,4.631c-5.795,10.081-11.926,19.6-18.502,28.76
	c-0.044-7.929-0.389-15.619-1.034-23.015c-0.002-0.148,0-0.295-0.011-0.444c-1.716-22.852-5.929-45.76-12.52-68.086
	c-1.175-3.979-5.355-6.251-9.331-5.078c-3.979,1.175-6.253,5.352-5.078,9.331c4.195,14.212,7.357,28.668,9.499,43.184
	c-8.215-7.937-16.686-15.349-25.594-22.386c-3.315-2.619-7.914-2.812-11.444-0.48c-3.526,2.33-5.149,6.631-4.042,10.703
	c9.008,33.111,24.067,61.348,43.624,81.957c-0.485,6.31-1.225,12.81-2.222,19.47c-5.461-9.656-11.3-18.88-17.646-27.855
	c-2.414-3.412-6.732-4.907-10.742-3.727c-4.004,1.18-6.814,4.771-6.991,8.938c-0.984,23.341,1.333,57.403,17.545,88.99
	c-2.272,5.752-4.826,11.606-7.657,17.536c-2.435-10.761-5.356-21.211-8.835-31.562c-1.327-3.945-5.019-6.619-9.188-6.653
	c-0.026,0-0.053,0-0.078,0c-4.127,0-7.816,2.6-9.194,6.49c-10.759,30.375-13.88,62.085-8.931,89.766
	c-3.872,4.881-8.046,9.775-12.509,14.656c0.844-11.032,1.117-21.914,0.813-32.867c-0.116-4.165-2.869-7.801-6.849-9.049
	c-3.969-1.247-8.298,0.164-10.766,3.51c-19.249,26.098-31.736,55.769-35.422,83.934c-20.016,15.067-30.583,19.066-41.74,23.284
	c-9.194,3.476-18.579,7.033-32.779,16.499c-14.2-9.467-23.585-13.023-32.779-16.499c-11.157-4.218-21.725-8.218-41.74-23.284
	c-3.686-28.166-16.173-57.837-35.423-83.935c-2.469-3.344-6.796-4.753-10.765-3.509c-3.981,1.248-6.733,4.884-6.849,9.051
	c-0.304,10.952-0.031,21.833,0.813,32.865c-4.463-4.881-8.637-9.774-12.509-14.656c4.949-27.681,1.828-59.391-8.931-89.767
	c-1.378-3.89-5.066-6.489-9.194-6.489c-0.025,0-0.052,0-0.078,0c-4.168,0.033-7.861,2.707-9.189,6.655
	c-3.478,10.349-6.4,20.799-8.834,31.56c-2.83-5.93-5.385-11.784-7.657-17.536c16.212-31.587,18.529-65.649,17.545-88.992
	c-0.177-4.165-2.987-7.756-6.991-8.936c-4.009-1.179-8.33,0.316-10.742,3.727c-6.346,8.974-12.185,18.198-17.646,27.855
	c-0.997-6.66-1.737-13.16-2.222-19.47c19.557-20.609,34.616-48.845,43.624-81.957c1.107-4.072-0.516-8.373-4.042-10.703
	c-3.529-2.331-8.128-2.139-11.444,0.48C72.04,78.74,63.569,86.152,55.354,94.089c2.142-14.517,5.304-28.972,9.499-43.184
	c1.175-3.979-1.099-8.156-5.078-9.331c-3.975-1.176-8.156,1.098-9.331,5.078c-6.591,22.327-10.803,45.234-12.52,68.086
	c-0.011,0.149-0.008,0.296-0.011,0.444c-0.646,7.396-0.99,15.086-1.034,23.015c-6.576-9.16-12.707-18.68-18.503-28.763
	c-2.181-3.79-6.501-5.644-10.754-4.628c-4.241,1.019-7.238,4.628-7.459,8.983c-0.981,19.381,2.485,39.341,9.759,56.203
	c7.905,18.325,19.995,32.455,35.097,41.084c1.439,6.215,3.141,12.567,5.11,19.03c-8.956-6.628-17.62-13.707-26.156-21.397
	c-3.229-2.91-7.897-3.35-11.613-1.091c-3.709,2.252-5.467,6.585-4.376,10.783c8.684,33.385,33.876,69.874,71,78.168
	c3.172,5.5,6.628,11.051,10.367,16.628c-10.469-3.711-20.8-7.927-31.195-12.752c-3.937-1.825-8.522-0.878-11.411,2.364
	c-2.881,3.234-3.297,7.888-1.033,11.58c17.157,27.98,49.51,54.334,85.399,54.334c1.761,0,3.532-0.072,5.31-0.202
	c9.927,9.272,21.193,18.368,33.567,27.071c23.314,17.898,35.824,22.628,47.92,27.201c7.529,2.846,14.858,5.622,25.003,11.863
	c-7.767,5.953-16.764,13.423-27.437,22.973c-3.092,2.766-3.356,7.514-0.589,10.606c1.484,1.659,3.538,2.503,5.6,2.503
	c1.783,0,3.573-0.631,5.006-1.914c12.377-11.075,22.27-19.169,30.508-25.256c8.238,6.087,18.131,14.181,30.508,25.256
	c1.433,1.283,3.223,1.914,5.006,1.914c2.063,0,4.117-0.845,5.6-2.503c2.767-3.092,2.503-7.84-0.589-10.606
	c-10.673-9.551-19.67-17.02-27.437-22.973c10.145-6.24,17.475-9.016,25.003-11.863c12.097-4.573,24.607-9.304,47.92-27.201
	c12.375-8.703,23.64-17.8,33.567-27.071c1.777,0.13,3.547,0.202,5.31,0.202c35.885,0,68.243-26.356,85.399-54.334
	c2.264-3.692,1.848-8.346-1.033-11.58c-2.888-3.241-7.473-4.192-11.409-2.364c-10.396,4.824-20.727,9.041-31.197,12.752
	c3.739-5.577,7.195-11.128,10.367-16.629c37.124-8.294,62.316-44.783,71-78.169C505.109,214.202,503.35,209.869,499.642,207.617z
	 M471.55,187.369c0.207-1.327,0.412-2.653,0.6-3.969c0.115-0.808,0.218-1.608,0.326-2.412c0.166-1.231,0.329-2.461,0.477-3.682
	c0.1-0.823,0.191-1.64,0.284-2.458c0.135-1.193,0.265-2.383,0.383-3.565c0.081-0.812,0.157-1.62,0.231-2.427
	c0.108-1.183,0.208-2.36,0.299-3.531c0.034-0.431,0.079-0.871,0.11-1.301c7.857-9.614,15.098-19.517,21.882-29.931
	c-2.448,20.436-10.365,41.226-24.873,55.136C471.37,188.605,471.453,187.991,471.55,187.369z M15.861,134.093
	c6.784,10.415,14.025,20.317,21.882,29.931c0.031,0.43,0.077,0.869,0.11,1.301c0.091,1.171,0.191,2.348,0.299,3.531
	c0.074,0.807,0.15,1.615,0.231,2.427c0.119,1.182,0.248,2.372,0.383,3.565c0.092,0.818,0.184,1.635,0.284,2.458
	c0.149,1.221,0.312,2.451,0.477,3.682c0.108,0.804,0.211,1.604,0.326,2.412c0.188,1.316,0.393,2.642,0.6,3.969
	c0.097,0.622,0.18,1.236,0.281,1.861C26.226,175.32,18.309,154.53,15.861,134.093z M75.375,178.526
	c-0.826,18.08-4.183,35.296-9.84,50.522c-0.175-0.553-0.345-1.104-0.517-1.655c-0.332-1.067-0.662-2.132-0.979-3.192
	c-0.233-0.78-0.456-1.556-0.681-2.332c-0.296-1.022-0.59-2.043-0.872-3.059c-0.222-0.8-0.436-1.596-0.649-2.391
	c-0.263-0.98-0.522-1.957-0.771-2.93c-0.208-0.812-0.409-1.62-0.607-2.427c-0.233-0.948-0.461-1.893-0.681-2.833
	c-0.097-0.412-0.188-0.822-0.282-1.233C64.437,197.016,69.691,187.594,75.375,178.526z M51.916,136.527
	c0.01-0.847,0.028-1.687,0.045-2.528c0.022-1.088,0.046-2.174,0.08-3.251c0.027-0.848,0.061-1.689,0.096-2.53
	c0.043-1.049,0.09-2.094,0.145-3.132c0.045-0.851,0.095-1.697,0.148-2.54c0.063-1.006,0.131-2.007,0.206-3.003
	c0.034-0.451,0.071-0.899,0.107-1.348c7.75-8.337,15.651-16.055,23.884-23.322c-6.386,17.781-14.734,33.601-24.723,46.867
	c-0.004-0.624-0.002-1.243-0.002-1.864C51.903,138.756,51.903,137.637,51.916,136.527z M28.952,232.719
	c9.521,7.706,19.295,14.817,29.536,21.497c0.159,0.408,0.334,0.821,0.496,1.23c0.411,1.037,0.83,2.077,1.258,3.12
	c0.316,0.771,0.635,1.542,0.961,2.315c0.441,1.048,0.895,2.1,1.353,3.153c0.333,0.766,0.665,1.531,1.008,2.3
	c0.486,1.092,0.988,2.188,1.492,3.284c0.337,0.733,0.668,1.463,1.013,2.198c0.56,1.193,1.139,2.39,1.719,3.588
	c0.261,0.539,0.508,1.075,0.774,1.615C50.827,268.179,37.269,251.067,28.952,232.719z M98.608,256.795
	c4.414,17.299,6.167,34.638,5.155,50.878c-0.358-0.522-0.711-1.043-1.064-1.564c-0.576-0.85-1.152-1.7-1.715-2.548
	c-0.475-0.717-0.939-1.432-1.404-2.147c-0.555-0.853-1.108-1.706-1.648-2.556c-0.456-0.718-0.902-1.434-1.348-2.15
	c-0.526-0.844-1.047-1.687-1.559-2.529c-0.435-0.716-0.862-1.43-1.287-2.144c-0.501-0.843-0.997-1.685-1.484-2.526
	c-0.206-0.356-0.407-0.711-0.611-1.067C93.486,277.521,95.789,267.048,98.608,256.795z M69.879,321.897
	c11.339,4.57,22.74,8.51,34.451,11.912c0.279,0.355,0.575,0.71,0.857,1.064c0.693,0.872,1.396,1.744,2.108,2.616
	c0.529,0.648,1.059,1.295,1.598,1.943c0.738,0.888,1.489,1.776,2.245,2.664c0.537,0.63,1.072,1.26,1.618,1.891
	c0.8,0.924,1.617,1.846,2.437,2.769c0.526,0.592,1.045,1.183,1.579,1.775c0.903,1.001,1.826,2,2.751,2.999
	c0.397,0.429,0.779,0.858,1.18,1.287C101.127,349.466,83.165,337.022,69.879,321.897z M162.233,370.983
	c-0.83-0.666-1.661-1.333-2.477-2.002c-0.668-0.548-1.325-1.098-1.983-1.648c-0.804-0.671-1.605-1.343-2.393-2.016
	c-0.645-0.551-1.28-1.103-1.914-1.655c-0.779-0.678-1.553-1.356-2.316-2.036c-0.619-0.552-1.231-1.104-1.84-1.657
	c-0.754-0.685-1.502-1.37-2.24-2.057c-0.306-0.284-0.607-0.569-0.91-0.854c-1.481-11.037-2.371-21.782-2.686-32.471
	c9.373,15.378,16.266,31.595,20.237,47.578C163.215,371.771,162.725,371.377,162.233,370.983z M365.842,357.058
	c-0.303,0.285-0.604,0.57-0.91,0.854c-0.738,0.687-1.486,1.372-2.24,2.057c-0.609,0.553-1.221,1.105-1.84,1.657
	c-0.763,0.68-1.537,1.358-2.316,2.036c-0.635,0.552-1.27,1.104-1.914,1.655c-0.789,0.674-1.59,1.345-2.393,2.016
	c-0.658,0.55-1.315,1.1-1.983,1.648c-0.816,0.669-1.647,1.336-2.477,2.002c-0.491,0.394-0.981,0.788-1.477,1.181
	c3.972-15.983,10.865-32.2,20.237-47.578C368.214,335.275,367.323,346.021,365.842,357.058z M413.394,256.795
	c2.819,10.252,5.122,20.726,6.965,31.647c-0.204,0.356-0.405,0.711-0.611,1.067c-0.487,0.84-0.983,1.683-1.484,2.526
	c-0.424,0.714-0.852,1.428-1.287,2.144c-0.511,0.841-1.033,1.685-1.559,2.529c-0.446,0.716-0.892,1.432-1.348,2.15
	c-0.541,0.851-1.094,1.704-1.648,2.556c-0.465,0.715-0.929,1.431-1.404,2.147c-0.563,0.848-1.138,1.698-1.715,2.548
	c-0.353,0.521-0.706,1.042-1.064,1.564C407.227,291.434,408.98,274.094,413.394,256.795z M442.124,321.897
	c-13.288,15.126-31.247,27.57-50.825,30.92c0.446-0.477,0.872-0.955,1.314-1.432c0.87-0.941,1.74-1.882,2.591-2.824
	c0.565-0.626,1.115-1.252,1.671-1.879c0.792-0.892,1.581-1.783,2.354-2.675c0.56-0.646,1.109-1.292,1.659-1.938
	c0.745-0.875,1.484-1.749,2.212-2.624c0.545-0.655,1.081-1.31,1.616-1.965c0.708-0.868,1.407-1.736,2.098-2.604
	c0.283-0.356,0.58-0.711,0.86-1.067C419.383,330.407,430.784,326.466,442.124,321.897z M435.375,94.873
	c8.232,7.267,16.134,14.985,23.884,23.322c0.036,0.449,0.074,0.897,0.107,1.348c0.074,0.996,0.143,1.998,0.206,3.004
	c0.053,0.841,0.103,1.685,0.148,2.534c0.055,1.041,0.102,2.089,0.145,3.141c0.034,0.839,0.068,1.679,0.095,2.525
	c0.034,1.077,0.058,2.164,0.08,3.252c0.017,0.841,0.036,1.681,0.046,2.528c0.013,1.11,0.013,2.229,0.014,3.349
	c0,0.621,0.002,1.24-0.002,1.864C450.109,128.476,441.759,112.652,435.375,94.873z M436.627,178.526
	c5.685,9.068,10.938,18.491,15.878,28.468c-0.094,0.411-0.185,0.821-0.282,1.233c-0.22,0.941-0.448,1.886-0.681,2.833
	c-0.198,0.807-0.4,1.615-0.607,2.427c-0.249,0.973-0.508,1.951-0.771,2.93c-0.213,0.796-0.427,1.591-0.649,2.391
	c-0.282,1.015-0.576,2.036-0.872,3.059c-0.225,0.777-0.448,1.552-0.681,2.332c-0.317,1.06-0.647,2.126-0.979,3.192
	c-0.171,0.551-0.341,1.102-0.517,1.655C440.81,213.822,437.452,196.605,436.627,178.526z M443.44,277.02
	c0.265-0.54,0.513-1.076,0.774-1.615c0.58-1.198,1.16-2.395,1.719-3.588c0.345-0.734,0.676-1.465,1.013-2.198
	c0.504-1.097,1.006-2.193,1.492-3.284c0.342-0.769,0.674-1.534,1.008-2.3c0.458-1.053,0.912-2.105,1.353-3.153
	c0.326-0.774,0.645-1.545,0.961-2.315c0.428-1.043,0.848-2.083,1.259-3.12c0.162-0.409,0.337-0.822,0.496-1.23
	c10.241-6.68,20.015-13.79,29.536-21.497C474.733,251.068,461.175,268.179,443.44,277.02z"/>
<path d="M122.884,192.4c0.008,0.116,0.017,0.233,0.031,0.348c0.229,2.387,1.115,4.716,2.661,6.686l120.341,153.402
	c1.972,2.514,4.749,4.144,7.826,4.689c0.091,0.017,0.182,0.033,0.273,0.047c0.652,0.101,1.312,0.171,1.985,0.171
	c0.668,0,1.324-0.069,1.971-0.169c0.098-0.015,0.194-0.031,0.291-0.05c3.075-0.546,5.851-2.175,7.822-4.688l120.341-153.401
	c1.546-1.97,2.432-4.3,2.661-6.687c0.014-0.115,0.022-0.23,0.031-0.346c0.011-0.155,0.019-0.309,0.023-0.464
	c0-0.029,0.004-0.057,0.004-0.086c0-0.017-0.002-0.034-0.003-0.051c0.054-2.467-0.592-4.953-1.97-7.131l-38.639-61.046
	c-1.234-1.951-2.936-3.478-4.904-4.504c-0.063-0.032-0.128-0.06-0.192-0.091c-1.75-0.876-3.699-1.368-5.735-1.368H174.299
	c-2.041,0-3.993,0.494-5.746,1.373c-0.06,0.028-0.12,0.054-0.178,0.084c-1.969,1.026-3.671,2.553-4.906,4.504l-10.396,16.423
	c-2.219,3.505-1.176,8.146,2.329,10.364c3.506,2.219,8.147,1.177,10.364-2.329l5.632-8.897l28.764,45.154l-57.346,0.002l4.054-6.404
	c2.219-3.505,1.176-8.146-2.329-10.364c-3.505-2.219-8.146-1.177-10.364,2.329l-9.348,14.768c-1.379,2.178-2.024,4.664-1.97,7.131
	c0,0.017-0.003,0.034-0.003,0.051c0,0.029,0.004,0.057,0.004,0.086C122.866,192.092,122.874,192.246,122.884,192.4z
	 M272.273,320.609l15.386-59.478c1.039-4.016-1.374-8.114-5.391-9.153c-4.021-1.043-8.114,1.375-9.152,5.391l-17.142,66.266
	l-32.399-124.277h64.547l-6.169,23.851c-1.039,4.016,1.374,8.114,5.391,9.152c0.631,0.163,1.264,0.242,1.886,0.242
	c3.342,0,6.392-2.247,7.267-5.633l7.142-27.613l63.753,0.003L272.273,320.609z M340.603,139.182l28.582,45.156l-57.347-0.002
	L340.603,139.182z M326.933,132.682l-28.785,45.185l-28.784-45.185H326.933z M284.458,184.335h-57.567l28.784-45.185
	L284.458,184.335z M185.069,132.682h56.915l-28.457,44.672L185.069,132.682z M208.049,199.358l31.575,121.116l-95.012-121.113
	L208.049,199.358z"/>
<g>
</g>
<g>
</g>
<g>
</g>
<g>
</g>
<g>
</g>
<g>
</g>
<g>
</g>
<g>
</g>
<g>
</g>
<g>
</g>
<g>
</g>
<g>
</g>
<g>
</g>
<g>
</g>
<g>
</g>
</svg>
