<?xml version="1.0" encoding="iso-8859-1"?>
<!-- Generator: Adobe Illustrator 19.0.0, SVG Export Plug-In . SVG Version: 6.00 Build 0)  -->
<svg version="1.1" id="Capa_1" xmlns="http://www.w3.org/2000/svg" xmlns:xlink="http://www.w3.org/1999/xlink" x="0px" y="0px"
	 viewBox="0 0 511.999 511.999" style="enable-background:new 0 0 511.999 511.999;" xml:space="preserve">
<path style="fill:#FF4C4C;" d="M353.573,503.789l-95.803-41.365c-2.211-0.954-4.72-0.94-6.92,0.039l-92.333,41.122
	c-5.697,2.537-12.119-1.633-12.119-7.869V16.114c0-4.758,3.857-8.615,8.615-8.615h201.975c4.758,0,8.615,3.857,8.615,8.615V495.88
	C365.602,502.075,359.26,506.245,353.573,503.789z"/>
<path style="fill:#EA2828;" d="M356.988,7.499h-37.045v481.77l33.63,14.521c5.687,2.456,12.029-1.714,12.029-7.909V16.114
	C365.602,11.356,361.745,7.499,356.988,7.499z"/>
<circle style="fill:#F2F2F2;" cx="256" cy="230.82" r="170.06"/>
<path style="fill:#D9DDE2;" d="M256,60.752c-7.881,0-15.633,0.548-23.228,1.586c82.933,11.329,146.837,82.436,146.837,168.479
	s-63.903,157.151-146.837,168.479c7.596,1.038,15.348,1.586,23.228,1.586c93.924,0,170.065-76.141,170.065-170.065
	S349.924,60.752,256,60.752z"/>
<path style="fill:#2C5871;" d="M274.25,275.437V153.792c0-1.085-0.88-1.965-1.965-1.965h-22.961c-0.462,0-0.909,0.163-1.263,0.46
	l-41.716,35.009c-0.811,0.681-0.937,1.881-0.285,2.716l13.682,17.509c0.682,0.872,1.949,1.01,2.802,0.304l17.439-14.439
	c1.281-1.061,3.219-0.15,3.219,1.514v80.54c0,1.085-0.88,1.965-1.965,1.965H217.12c-1.085,0-1.965,0.88-1.965,1.965v20.824
	c0,1.085,0.88,1.965,1.965,1.965h79.202c1.085,0,1.965-0.88,1.965-1.965V279.37c0-1.085-0.88-1.965-1.965-1.965h-20.107
	C275.129,277.403,274.25,276.523,274.25,275.437z"/>
<path d="M151.805,148.042c-3.382-2.392-8.06-1.592-10.453,1.789c-4.518,6.384-8.524,13.186-11.906,20.219
	c-1.796,3.732-0.225,8.213,3.507,10.008c1.049,0.504,2.155,0.743,3.246,0.743c2.792,0,5.472-1.566,6.763-4.25
	c3.02-6.279,6.598-12.354,10.633-18.055C155.986,155.114,155.186,150.434,151.805,148.042z"/>
<path d="M168.559,340.615c1.382,1.101,3.031,1.636,4.67,1.636c2.204,0,4.387-0.967,5.868-2.824
	c2.582-3.238,2.049-7.956-1.188-10.538c-5.454-4.349-10.583-9.188-15.245-14.383c-2.764-3.083-7.506-3.34-10.589-0.574
	c-3.083,2.766-3.339,7.507-0.573,10.59C156.717,330.333,162.455,335.748,168.559,340.615z"/>
<path d="M198.007,111.012c-2.015-3.619-6.583-4.917-10.2-2.902c-6.815,3.797-13.363,8.197-19.462,13.079
	c-3.233,2.588-3.755,7.307-1.167,10.54c1.481,1.85,3.66,2.813,5.858,2.813c1.643,0,3.298-0.538,4.682-1.645
	c5.448-4.362,11.298-8.294,17.386-11.685C198.724,119.197,200.022,114.631,198.007,111.012z"/>
<path d="M129.568,291.837c1.294,2.677,3.97,4.236,6.757,4.236c1.095,0,2.207-0.241,3.258-0.749c3.728-1.803,5.29-6.287,3.487-10.016
	c-3.037-6.281-5.56-12.86-7.498-19.553c-1.152-3.978-5.313-6.267-9.29-5.116c-3.978,1.152-6.269,5.311-5.116,9.289
	C123.338,277.428,126.165,284.799,129.568,291.837z"/>
<path d="M283.962,353.048c-6.78,1.544-13.759,2.528-20.742,2.924c-4.134,0.234-7.297,3.776-7.062,7.911
	c0.227,3.991,3.533,7.075,7.48,7.075c0.143,0,0.287-0.004,0.432-0.012c7.815-0.443,15.629-1.545,23.224-3.274
	c4.037-0.919,6.565-4.939,5.646-8.977C292.021,354.656,288.001,352.129,283.962,353.048z"/>
<path d="M130.641,230.952v-0.135c0-6.963,0.575-13.948,1.71-20.759c0.68-4.085-2.08-7.948-6.165-8.629
	c-4.1-0.687-7.949,2.08-8.63,6.165c-1.269,7.623-1.913,15.436-1.913,23.222v0.135c0,4.141,3.357,7.499,7.499,7.499
	S130.641,235.093,130.641,230.952z"/>
<path d="M208.198,346.742c-3.827-1.58-8.212,0.242-9.792,4.071c-1.58,3.828,0.242,8.212,4.071,9.792
	c7.227,2.983,14.756,5.372,22.377,7.099c0.559,0.126,1.116,0.187,1.665,0.187c3.425,0,6.518-2.362,7.306-5.843
	c0.916-4.039-1.617-8.055-5.655-8.971C221.368,351.536,214.648,349.404,208.198,346.742z"/>
<path d="M383.589,201.163c0.693,0,1.398-0.097,2.097-0.3c3.977-1.156,6.264-5.318,5.108-9.294
	c-2.18-7.498-5.014-14.866-8.423-21.899c-1.805-3.726-6.291-5.284-10.019-3.477c-3.727,1.806-5.283,6.292-3.477,10.018
	c3.042,6.278,5.572,12.854,7.517,19.545C377.345,199.034,380.34,201.163,383.589,201.163z"/>
<path d="M226.234,108.805c0.554,0,1.117-0.062,1.679-0.19c6.778-1.551,13.756-2.542,20.74-2.945
	c4.134-0.238,7.293-3.784,7.054-7.918c-0.238-4.135-3.778-7.295-7.919-7.055c-7.816,0.452-15.629,1.561-23.22,3.298
	c-4.037,0.924-6.561,4.946-5.637,8.983C219.726,106.452,222.815,108.805,226.234,108.805z"/>
<path d="M360.112,313.698c1.317,0.934,2.832,1.383,4.331,1.383c2.348,0,4.661-1.1,6.124-3.162
	c4.523-6.378,8.536-13.177,11.926-20.206c1.799-3.73,0.232-8.213-3.497-10.012c-3.73-1.8-8.214-0.233-10.012,3.497
	c-3.027,6.277-6.61,12.349-10.651,18.045C355.938,306.621,356.733,311.302,360.112,313.698z"/>
<path d="M313.471,110.763c1.576-3.83-0.25-8.213-4.08-9.789c-7.227-2.975-14.759-5.356-22.385-7.076
	c-4.039-0.911-8.053,1.625-8.965,5.665c-0.911,4.04,1.625,8.054,5.665,8.965c6.806,1.535,13.527,3.66,19.977,6.315
	c0.933,0.384,1.9,0.566,2.851,0.566C309.484,115.41,312.28,113.659,313.471,110.763z"/>
<path d="M387.033,260.441c3.597,0,6.772-2.595,7.387-6.26c1.286-7.669,1.937-15.529,1.937-23.283l0.001-0.351
	c0-4.141-3.357-7.499-7.499-7.499s-7.499,3.357-7.499,7.499l-0.001,0.27c0,7.006-0.582,14.033-1.73,20.884
	c-0.684,4.085,2.071,7.951,6.156,8.635C386.204,260.407,386.622,260.441,387.033,260.441z"/>
<path d="M354.831,149.519c1.786,0,3.579-0.635,5.011-1.923c3.08-2.769,3.332-7.511,0.562-10.59
	c-5.223-5.808-10.968-11.216-17.074-16.075c-3.242-2.579-7.958-2.042-10.537,1.199c-2.579,3.241-2.042,7.959,1.199,10.537
	c5.458,4.343,10.592,9.177,15.26,14.368C350.733,148.681,352.778,149.519,354.831,149.519z"/>
<path d="M320.432,354.538c1.232,0,2.482-0.305,3.635-0.945c6.816-3.787,13.369-8.181,19.475-13.059
	c3.235-2.585,3.763-7.304,1.178-10.539c-2.584-3.235-7.302-3.763-10.539-1.179c-5.455,4.359-11.309,8.284-17.398,11.667
	c-3.621,2.011-4.924,6.577-2.913,10.197C315.241,353.146,317.797,354.538,320.432,354.538z"/>
<path d="M86.055,220.889c0.258,0.026,0.514,0.039,0.766,0.039c3.801,0,7.059-2.879,7.452-6.742
	c4.044-39.827,22.661-76.657,52.422-103.706c1.462-1.328,2.95-2.619,4.453-3.889c0.017-0.014,0.033-0.028,0.05-0.042
	C180.497,81.814,217.475,68.251,256,68.251c38.526,0,75.507,13.566,104.806,38.304c0.014,0.012,0.027,0.023,0.042,0.035
	c1.495,1.264,2.977,2.548,4.432,3.869c29.756,27.034,48.38,63.847,52.44,103.659c0.42,4.119,4.081,7.119,8.22,6.7
	c4.12-0.42,7.12-4.101,6.699-8.221c-4.436-43.497-24.775-83.712-57.274-113.238c-0.748-0.68-1.506-1.344-2.264-2.01V16.114
	C373.101,7.228,365.872,0,356.988,0H155.012c-8.884,0-16.113,7.228-16.113,16.114v81.235c-0.767,0.673-1.534,1.346-2.291,2.034
	c-32.503,29.542-52.837,69.775-57.257,113.289C78.934,216.792,81.934,220.471,86.055,220.889z M153.897,16.114
	c0-0.616,0.5-1.116,1.115-1.116h201.976c0.615,0,1.115,0.5,1.115,1.116v69.428c-29.75-20.94-65.28-32.289-102.103-32.289
	s-72.354,11.349-102.103,32.289V16.114z"/>
<path d="M425.945,240.745c-4.133-0.422-7.8,2.583-8.218,6.703c-4.044,39.827-22.661,76.656-52.422,103.705
	c-1.462,1.328-2.95,2.619-4.453,3.889c-0.017,0.014-0.033,0.028-0.05,0.042C331.503,379.82,294.525,393.383,256,393.383
	c-38.523,0-75.501-13.564-104.8-38.298c-0.017-0.014-0.034-0.029-0.052-0.044c-1.494-1.263-2.975-2.545-4.428-3.866
	c-29.756-27.033-48.379-63.846-52.44-103.658c-0.42-4.119-4.084-7.126-8.22-6.699c-4.12,0.42-7.12,4.101-6.699,8.221
	c4.436,43.496,24.776,83.711,57.274,113.236c0.748,0.68,1.506,1.344,2.264,2.01v131.43c0,5.479,2.743,10.531,7.338,13.514
	c4.594,2.983,10.324,3.435,15.332,1.205l92.334-41.122c0.283-0.125,0.607-0.128,0.894-0.004l95.803,41.365
	c2.055,0.888,4.23,1.326,6.395,1.326c3.095,0,6.169-0.896,8.844-2.655c4.547-2.989,7.262-8.023,7.262-13.464V364.286
	c0.767-0.673,1.534-1.346,2.291-2.034c32.503-29.541,52.837-69.775,57.257-113.288C433.066,244.843,430.066,241.163,425.945,240.745
	z M358.103,495.88c0,0.399-0.169,0.713-0.503,0.932c-0.334,0.219-0.687,0.25-1.055,0.092l-95.803-41.365
	c-4.123-1.78-8.84-1.754-12.942,0.074l-92.332,41.121c-0.368,0.164-0.725,0.135-1.062-0.083c-0.337-0.219-0.508-0.534-0.508-0.935
	V376.093c29.75,20.94,65.28,32.288,102.103,32.288s72.354-11.348,102.103-32.288V495.88H358.103z"/>
<path d="M305.786,300.192v-20.824c0-5.218-4.245-9.464-9.464-9.464h-14.574V153.791c0-5.218-4.245-9.464-9.463-9.464h-22.961
	c-2.225,0-4.389,0.788-6.084,2.214l-41.714,35.007c-3.929,3.295-4.532,9.04-1.376,13.078l13.681,17.508
	c1.564,2.003,3.911,3.309,6.437,3.582c2.525,0.273,5.099-0.499,7.056-2.119l8.377-6.935v63.241H217.12
	c-5.218,0-9.463,4.245-9.463,9.464v20.824c0,5.218,4.245,9.464,9.463,9.464h79.202C301.54,309.656,305.786,305.411,305.786,300.192z
	 M290.789,294.659h-68.135v-9.757h18.58c5.219,0,9.464-4.246,9.464-9.464v-80.54c0-3.705-2.083-6.987-5.437-8.564
	c-3.351-1.576-7.208-1.09-10.063,1.275l-13.055,10.808l-6.887-8.813l36.08-30.278h15.413v116.112c0,5.218,4.245,9.464,9.464,9.464
	h14.574v9.757H290.789z"/>
<g>
</g>
<g>
</g>
<g>
</g>
<g>
</g>
<g>
</g>
<g>
</g>
<g>
</g>
<g>
</g>
<g>
</g>
<g>
</g>
<g>
</g>
<g>
</g>
<g>
</g>
<g>
</g>
<g>
</g>
</svg>
