<?xml version="1.0" encoding="iso-8859-1"?>
<!-- Generator: Adobe Illustrator 19.0.0, SVG Export Plug-In . SVG Version: 6.00 Build 0)  -->
<svg version="1.1" id="Capa_1" xmlns="http://www.w3.org/2000/svg" xmlns:xlink="http://www.w3.org/1999/xlink" x="0px" y="0px"
	 viewBox="0 0 512.001 512.001" style="enable-background:new 0 0 512.001 512.001;" xml:space="preserve">
<path style="fill:#FFB125;" d="M32.973,51.611l-2.911,8.335c-4.132,11.831,2.109,24.771,13.939,28.903l3.125,1.091l-4.389,12.566
	c-4.132,11.831,2.109,24.771,13.939,28.903l9.261,3.235l-4.389,12.565c-4.132,11.831,2.109,24.771,13.94,28.903l19.174,6.697
	l-4.389,12.565c-4.132,11.831,2.109,24.771,13.939,28.903l144.736,50.551l47.481-135.947L38.681,48.859
	C36.345,48.043,33.789,49.275,32.973,51.611z"/>
<path style="fill:#FF901D;" d="M217.175,239.504c-0.229-2.573-1.273-5.005-2.98-6.945l-19.382-22.025
	c-1.702-1.934-2.745-4.359-2.978-6.924l-6.764-74.402c-0.74-8.139,4.375-15.666,12.214-17.975l10.841-3.193l-20.539-7.174
	l-35.194,10.367c-7.839,2.309-12.954,9.836-12.214,17.975l6.764,74.402c0.233,2.565,1.276,4.99,2.978,6.924l19.382,22.025
	c1.706,1.939,2.75,4.372,2.98,6.945l0.787,8.823l46.335,16.183L217.175,239.504z"/>
<path style="fill:#FF6D3A;" d="M481.94,59.946l-2.911-8.335c-0.816-2.336-3.371-3.569-5.708-2.753l-257.75,90.023l47.481,135.947
	l144.736-50.551c11.831-4.132,18.072-17.072,13.94-28.903l-4.389-12.565l19.174-6.697c11.831-4.132,18.072-17.072,13.94-28.903
	l-4.389-12.565l9.261-3.235c11.831-4.132,18.072-17.072,13.939-28.903l-4.389-12.566l3.126-1.091
	C479.831,84.717,486.072,71.777,481.94,59.946z"/>
<path style="fill:#ED5729;" d="M481.94,59.946l-2.911-8.335c-0.816-2.336-3.372-3.569-5.708-2.753L430.9,63.674l5.851,16.752
	c3.316,9.494-1.676,19.923-11.171,23.239l-7.211,2.519l5.707,16.802c3.316,9.494-1.652,19.914-11.146,23.23l-13.5,4.715
	l5.835,16.757c3.316,9.494-1.626,19.905-11.12,23.221l-23.469,8.197l5.865,16.747c3.316,9.494-1.692,19.879-11.187,23.195
	l42.436-14.773c11.831-4.132,18.072-17.072,13.94-28.903l-4.389-12.565l19.174-6.697c11.831-4.132,18.072-17.072,13.939-28.903
	l-4.389-12.565l9.261-3.235c11.831-4.132,18.072-17.072,13.939-28.903l-4.389-12.565l3.125-1.09
	C479.831,84.717,486.072,71.777,481.94,59.946z"/>
<g>
	<path style="fill:#FFB125;" d="M455.325,131.409l-216.013,75.446l-11.87-33.987L464.877,89.94l4.389,12.565
		C473.397,114.337,467.156,127.277,455.325,131.409z"/>
	<path style="fill:#FFB125;" d="M407.788,224.277l-144.736,50.551l-11.87-33.987l166.157-58.033l4.389,12.565
		C425.86,207.205,419.619,220.145,407.788,224.277z"/>
</g>
<g>
	<path style="fill:#FF6D3A;" d="M44.002,88.849l240.559,84.019l11.87-33.987L38.681,48.859c-2.336-0.816-4.892,0.416-5.708,2.753
		l-2.911,8.335C25.93,71.777,32.171,84.717,44.002,88.849z"/>
	<path style="fill:#FF6D3A;" d="M75.489,176.112l185.331,64.73l11.87-33.987L65.938,134.644l-4.389,12.565
		C57.418,159.04,63.659,171.98,75.489,176.112z"/>
</g>
<path style="fill:#FFB125;" d="M314.716,111.234l-44.803-13.198v-8.004l3.018-2.567c8.541-7.265,13.463-17.913,13.463-29.126V37.894
	C286.395,21.108,272.787,7.5,256.001,7.5l0,0c-16.786,0-30.394,13.608-30.394,30.394V58.34c0,11.213,4.922,21.861,13.463,29.126
	l3.018,2.567v8.004l-44.803,13.198c-7.839,2.309-12.954,9.836-12.214,17.975l6.764,74.402c0.233,2.565,1.276,4.99,2.978,6.924
	l19.382,22.025c1.706,1.939,2.75,4.372,2.98,6.945l15.505,173.841h23.321h23.321l15.505-173.841c0.229-2.573,1.273-5.005,2.98-6.945
	l19.382-22.025c1.702-1.934,2.745-4.359,2.978-6.924l6.764-74.402C327.67,121.07,322.556,113.543,314.716,111.234z"/>
<path style="fill:#FF901D;" d="M314.716,111.234l-44.803-13.198v-8.004l3.018-2.567c8.541-7.265,13.463-17.913,13.463-29.126V37.894
	C286.395,21.108,272.787,7.5,256.001,7.5s-30.394,13.608-30.394,30.394v20.445c0,6.451,1.637,12.71,4.646,18.25
	c2.76,2.191,4.073,3.931,3.247,5.009c0.815,1.063,1.686,2.086,2.614,3.065c0.041,0.044,0.086,0.085,0.128,0.128
	c0.423,0.443,0.855,0.878,1.302,1.302c0.495,0.469,1.004,0.927,1.526,1.372l3.018,2.567v8.004l27.627,13.198
	c7.839,2.309,12.954,9.836,12.214,17.975l-6.764,74.402c-0.233,2.565-1.276,4.99-2.978,6.924l-19.382,22.025
	c-1.706,1.939-2.75,4.372-2.98,6.945L234.32,413.346h21.681h23.321l15.505-173.841c0.057-0.643,0.166-1.278,0.322-1.898
	c0.47-1.86,1.377-3.592,2.657-5.047l19.382-22.025c0.213-0.242,0.415-0.491,0.607-0.747c1.343-1.795,2.167-3.932,2.371-6.176
	l6.764-74.402C327.67,121.07,322.556,113.543,314.716,111.234z"/>
<path style="fill:#FF6D3A;" d="M311.187,453.108H200.816l6.885-43.118c0.363-2.275,2.326-3.949,4.63-3.949h87.341
	c2.304,0,4.267,1.674,4.63,3.949L311.187,453.108z"/>
<path style="fill:#2C5871;" d="M339.269,504.5H172.734c-3.275,0-5.771-2.933-5.247-6.165l9.45-58.347
	c0.417-2.574,2.64-4.466,5.247-4.466H329.82c2.608,0,4.83,1.892,5.247,4.466l9.45,58.347
	C345.04,501.567,342.544,504.5,339.269,504.5z"/>
<path style="fill:#1D4859;" d="M344.516,498.335l-9.45-58.347c-0.417-2.574-2.64-4.466-5.247-4.466h-40.476l11.172,68.978h38.754
	C342.544,504.5,345.04,501.567,344.516,498.335z"/>
<path style="fill:#E1EFFB;" d="M192.354,478.444l2.941-18.158c0.317-1.958,2.007-3.396,3.99-3.396h113.432
	c1.983,0,3.673,1.439,3.99,3.396l2.941,18.158c0.398,2.458-1.5,4.689-3.99,4.689H196.345
	C193.854,483.132,191.956,480.902,192.354,478.444z"/>
<path style="fill:#C3D8E5;" d="M319.648,478.444l-2.941-18.158c-0.317-1.958-2.007-3.396-3.99-3.396h-41.56l4.25,26.242h40.25
	C318.148,483.132,320.046,480.902,319.648,478.444z"/>
<g>
	<path style="fill:#FF901D;" d="M470.349,107.086c-0.199-1.531-0.555-3.064-1.085-4.58l-4.389-12.565l0,0l0,0l-42.517,14.85
		l-3.991,1.394l5.707,16.802c3.316,9.494-1.652,19.914-11.146,23.23l42.396-14.807c9.243-3.228,15.074-11.832,15.212-21.084
		c0.006-0.391,0-0.783-0.015-1.176C470.497,108.464,470.439,107.775,470.349,107.086z"/>
	<path style="fill:#FF901D;" d="M421.728,195.374l-4.389-12.565l-46.665,16.299l5.865,16.747
		c3.316,9.494-1.692,19.879-11.187,23.195l42.436-14.773c0.37-0.129,0.734-0.267,1.093-0.413c1.435-0.584,2.779-1.301,4.025-2.131
		c1.094-0.729,2.107-1.55,3.042-2.441C422.2,213.335,424.761,204.058,421.728,195.374z"/>
</g>
<g>
	<path style="fill:#ED5729;" d="M146.705,200.985l57.324,20.021l-9.216-10.473c-1.702-1.934-2.745-4.359-2.978-6.924l-2.347-25.815
		l-46.364-16.193L146.705,200.985z"/>
	<path style="fill:#ED5729;" d="M187.588,100.866l-35.194,10.367c-5.664,1.669-9.892,6.067-11.53,11.446l45.045,15.733l-0.837-9.204
		c-0.74-8.139,4.375-15.666,12.214-17.975l10.841-3.193L187.588,100.866z"/>
</g>
<path d="M196.344,490.632h119.313c3.39,0,6.594-1.48,8.79-4.062c2.197-2.581,3.146-5.98,2.604-9.325l-2.94-18.159
	c-0.911-5.618-5.703-9.696-11.395-9.696H199.285c-5.691,0-10.482,4.078-11.394,9.697l-2.94,18.157
	c-0.542,3.346,0.406,6.745,2.604,9.326C189.751,489.152,192.955,490.632,196.344,490.632z M202.228,464.39h107.546l1.821,11.242
	H200.407L202.228,464.39z M199.758,479.643l0.001-0.006C199.759,479.639,199.758,479.642,199.758,479.643
	S199.758,479.643,199.758,479.643z"/>
<path d="M489.02,57.473l-2.911-8.336c-2.178-6.236-9.027-9.537-15.261-7.359l-167.167,58.386L278.343,92.7
	c9.894-8.688,15.552-21.168,15.552-34.361V37.894C293.895,16.999,276.896,0,256.001,0s-37.894,16.999-37.894,37.894V58.34
	c0,13.192,5.659,25.674,15.552,34.361l-25.337,7.464L41.154,41.777c-6.237-2.176-13.082,1.125-15.262,7.361l-2.911,8.335
	c-5.02,14.374,1.512,30.032,14.688,36.801l-2.012,5.759c-2.658,7.613-2.193,15.806,1.31,23.069
	c3.503,7.264,9.625,12.729,17.238,15.387l2.18,0.761l-1.916,5.485c-5.488,15.715,2.832,32.967,18.548,38.457l12.093,4.224
	l-1.916,5.485c-5.488,15.716,2.832,32.967,18.548,38.457l110.623,38.637l11.466,128.546h-11.5c-6.024,0-11.086,4.318-12.036,10.267
	l-3.068,19.215h-15.043c-6.319,0-11.64,4.528-12.65,10.767l-9.45,58.347c-0.602,3.715,0.452,7.489,2.892,10.355
	c2.438,2.866,5.996,4.509,9.76,4.509H339.27c3.764,0,7.321-1.644,9.76-4.509c2.439-2.866,3.493-6.64,2.892-10.355l-9.45-58.347
	c-1.011-6.238-6.331-10.766-12.65-10.766h-15.043l-3.068-19.215c-0.95-5.949-6.012-10.267-12.036-10.267h-11.499l4.582-51.375
	c0.367-4.126-2.679-7.769-6.805-8.137c-4.13-0.381-7.769,2.677-8.137,6.804l-4.701,52.708h-9.61V251c0-4.142-3.357-7.5-7.5-7.5
	s-7.5,3.358-7.5,7.5v147.541h-9.612l-14.245-159.7c-0.372-4.192-2.039-8.078-4.82-11.236l-10.219-11.613
	c-0.014-0.016-0.027-0.032-0.041-0.047l-9.12-10.365c-0.655-0.745-1.05-1.661-1.14-2.649l-6.764-74.402
	c-0.414-4.559,2.473-8.808,6.864-10.102l44.803-13.198c3.19-0.94,5.381-3.869,5.381-7.194v-8.003c0-2.199-0.965-4.287-2.64-5.712
	l-3.019-2.568c-6.879-5.849-10.823-14.383-10.823-23.412V37.894C233.107,25.27,243.378,15,256.001,15
	c12.624,0,22.895,10.27,22.895,22.894V58.34c0,9.029-3.944,17.563-10.824,23.413l-3.018,2.567c-1.675,1.425-2.64,3.513-2.64,5.712
	v8.003c0,3.326,2.19,6.254,5.381,7.194l44.803,13.198c4.392,1.294,7.278,5.542,6.864,10.102l-0.855,9.405c0,0.001,0,0.001,0,0.002
	l-5.909,64.995c-0.09,0.988-0.484,1.904-1.141,2.649l-19.379,22.023c-2.779,3.156-4.446,7.04-4.822,11.234l-6.478,72.626
	c-0.367,4.126,2.679,7.769,6.805,8.137c4.111,0.368,7.769-2.678,8.137-6.804l3.817-42.802l110.625-38.637
	c15.715-5.49,24.035-22.741,18.546-38.457l-1.915-5.484l12.094-4.224c15.715-5.49,24.035-22.741,18.546-38.457l-1.915-5.485
	l2.18-0.761c7.613-2.659,13.735-8.124,17.239-15.387c3.503-7.264,3.968-15.457,1.308-23.07l-2.011-5.758
	C487.51,87.506,494.041,71.847,489.02,57.473z M327.96,443.022c0.007,0-0.011,0-0.004,0
	C327.96,443.022,327.956,443.022,327.96,443.022L327.96,443.022L336.703,497H175.3l8.743-53.978H327.96z M214.729,413.541
	c0.003,0,0,0,0.003,0C214.736,413.541,214.726,413.541,214.729,413.541h82.544c0.004,0-0.007,0-0.003,0c0.003,0,0,0,0.003,0l0,0
	l2.313,14.481h-87.169L214.729,413.541L214.729,413.541z M59.15,124.329c-3.83-1.338-6.91-4.087-8.673-7.742
	s-1.996-7.777-0.659-11.607l1.916-5.485l35.543,12.414c0.818,0.286,1.652,0.421,2.473,0.421c3.101,0,6.001-1.937,7.081-5.029
	c1.365-3.911-0.697-8.188-4.608-9.554L49.602,82.861c-0.001,0-0.002-0.001-0.002-0.001l-3.125-1.091
	c-7.907-2.762-12.093-11.442-9.331-19.35l1.915-5.485l147.646,51.568c-5.663,4.577-9.156,11.532-9.195,19.033l-52.265-18.254
	c-3.909-1.365-8.188,0.698-9.553,4.607c-1.366,3.911,0.696,8.188,4.607,9.554l58.578,20.459l2.088,22.974L68.411,127.563
	L59.15,124.329z M77.963,169.032c-7.908-2.762-12.094-11.442-9.332-19.35l1.915-5.485l111.912,39.087l1.91,21.006
	c0.062,0.68,0.17,1.348,0.299,2.01l-91.246-31.869L77.963,169.032z M199.699,227.438l8.867,10.077
	c0.656,0.746,1.05,1.663,1.138,2.655l1.198,13.425l-104.214-36.399c-7.907-2.762-12.094-11.442-9.333-19.349l1.916-5.485
	L199.699,227.438z M405.316,217.197l-104.217,36.399l1.197-13.423c0.089-0.993,0.483-1.912,1.142-2.659l8.865-10.075l100.428-35.076
	l1.915,5.484C417.409,205.754,413.222,214.435,405.316,217.197z M434.041,169.032l-19.174,6.697L327.336,206.3
	c0.129-0.662,0.238-1.33,0.299-2.01l1.91-21.005l111.911-39.087l1.915,5.484C446.134,157.589,441.948,166.27,434.041,169.032z
	 M461.526,116.587c-1.763,3.654-4.844,6.404-8.674,7.742l-9.261,3.234c-0.001,0-0.001,0.001-0.002,0.001l-112.553,39.311
	l2.089-22.974l127.143-44.407l1.916,5.486C463.522,108.81,463.288,112.932,461.526,116.587z M465.528,81.769l-3.125,1.091
	l-127.91,44.674c-0.039-7.501-3.531-14.456-9.195-19.033l147.646-51.568l1.915,5.484C477.621,70.327,473.434,79.007,465.528,81.769z
	"/>
<g>
</g>
<g>
</g>
<g>
</g>
<g>
</g>
<g>
</g>
<g>
</g>
<g>
</g>
<g>
</g>
<g>
</g>
<g>
</g>
<g>
</g>
<g>
</g>
<g>
</g>
<g>
</g>
<g>
</g>
</svg>
