<?xml version="1.0" encoding="iso-8859-1"?>
<!-- Generator: Adobe Illustrator 19.0.0, SVG Export Plug-In . SVG Version: 6.00 Build 0)  -->
<svg version="1.1" id="Capa_1" xmlns="http://www.w3.org/2000/svg" xmlns:xlink="http://www.w3.org/1999/xlink" x="0px" y="0px"
	 viewBox="0 0 512 512" style="enable-background:new 0 0 512 512;" xml:space="preserve">
<polygon style="fill:#FFB125;" points="343.687,449.293 168.313,449.293 210.567,351.037 301.433,351.037 "/>
<polygon style="fill:#FF901D;" points="301.433,351.037 255.236,351.037 297.49,449.293 343.687,449.293 "/>
<path style="fill:#2D5872;" d="M412.293,504.498H99.707c-5.631,0-9.863-5.139-8.783-10.665l16.89-86.435
	c0.821-4.201,4.502-7.233,8.783-7.233h278.806c4.281,0,7.962,3.032,8.783,7.233l16.89,86.435
	C422.156,499.359,417.924,504.498,412.293,504.498z"/>
<path style="fill:#1D4859;" d="M421.076,493.833l-16.89-86.435c-0.821-4.201-4.502-7.233-8.783-7.233H355l20.387,104.333h36.905
	C417.924,504.498,422.156,499.359,421.076,493.833z"/>
<path style="fill:#E1EFFB;" d="M128.704,468.767l6.641-33.985c0.266-1.363,1.46-2.346,2.849-2.346h235.612
	c1.389,0,2.583,0.983,2.849,2.346l6.641,33.985c0.35,1.793-1.022,3.46-2.849,3.46H131.553
	C129.726,472.227,128.353,470.56,128.704,468.767z"/>
<path style="fill:#C3D8E5;" d="M383.296,468.767l-6.641-33.985c-0.266-1.363-1.46-2.346-2.849-2.346h-43.467l7.775,39.791h42.332
	C382.273,472.227,383.646,470.56,383.296,468.767z"/>
<path style="fill:#FF4C4C;" d="M298.928,295.545V12.082c0-2.529-2.05-4.58-4.58-4.58h-53.505c-1.077,0-2.119,0.379-2.944,1.072
	l-97.208,81.578c-1.89,1.586-2.184,4.384-0.665,6.328l31.881,40.8c1.589,2.033,4.542,2.353,6.529,0.708l40.637-33.646
	c2.985-2.472,7.5-0.348,7.5,3.527v187.676c0,2.529-2.05,4.58-4.58,4.58h-56.192c-2.529,0-4.58,2.05-4.58,4.58v48.525
	c0,2.529,2.05,4.58,4.58,4.58H350.36c2.529,0,4.58-2.05,4.58-4.58v-48.525c0-2.529-2.05-4.58-4.58-4.58h-46.854
	C300.979,300.124,298.928,298.074,298.928,295.545z"/>
<g>
	<path style="fill:#EA2828;" d="M303.508,300.124c-2.529,0-4.58-2.05-4.58-4.58V12.082c0-2.529-2.05-4.58-4.58-4.58H253.07v273.209
		c0,10.722,8.692,19.414,19.414,19.414h31.024V300.124z"/>
	<path style="fill:#EA2828;" d="M350.362,300.124h-41.278v57.684h41.278c2.529,0,4.58-2.05,4.58-4.58v-48.525
		C354.941,302.175,352.891,300.124,350.362,300.124z"/>
</g>
<path d="M428.439,492.394l-16.89-86.435c-1.505-7.704-8.295-13.296-16.146-13.296H327.5l-11.763-27.352h34.624
	c6.662,0,12.082-5.42,12.082-12.082v-48.525c0-6.662-5.42-12.082-12.082-12.082H306.43v-25.92c0-4.143-3.359-7.502-7.502-7.502
	s-7.502,3.359-7.502,7.502v28.842c0,6.661,5.42,12.081,12.081,12.081h43.932v42.681l0,0c-0.026,0,0.026,0,0,0H168.725
	c-0.014,0,0.013,0,0,0l0,0v-42.681h53.27c6.662,0,12.082-5.42,12.082-12.081V107.869c0-4.73-2.659-8.92-6.94-10.933
	c-4.279-2.012-9.203-1.39-12.847,1.627l-38.321,31.729l-28.293-36.208l33.019-27.709c3.174-2.663,3.587-7.395,0.924-10.569
	c-2.664-3.174-7.396-3.588-10.569-0.924l-35.181,29.524c-5.01,4.206-5.78,11.538-1.752,16.692l31.882,40.801
	c2.027,2.593,4.946,4.217,8.218,4.571c3.274,0.356,6.471-0.606,9.006-2.705l35.851-29.684v178.54h-53.27
	c-6.662,0-12.082,5.42-12.082,12.082v48.525c0,6.662,5.42,12.082,12.082,12.082h30.46L184.5,392.663h-67.903
	c-7.85,0-14.64,5.592-16.146,13.296l-16.89,86.435c-0.946,4.842,0.31,9.804,3.447,13.613c3.137,3.809,7.765,5.993,12.699,5.993
	h312.586c4.934,0,9.562-2.184,12.699-5.993C428.128,502.198,429.385,497.237,428.439,492.394z M212.595,365.31h86.809l11.763,27.352
	H200.833L212.595,365.31z M413.41,496.469c-0.198,0.24-0.552,0.527-1.117,0.527H99.707c-0.565,0-0.919-0.287-1.117-0.527
	c-0.198-0.241-0.412-0.644-0.303-1.198l16.89-86.435c0.132-0.678,0.73-1.17,1.42-1.17l0,0c0.013,0,0,0,0.013,0
	c0.009,0-0.022,0-0.013,0h278.806c0.009,0-0.022,0-0.013,0c0.013,0,0,0,0.013,0l0,0c0.691,0,1.288,0.492,1.42,1.17l16.89,86.434
	C413.822,495.825,413.608,496.229,413.41,496.469z"/>
<path d="M384.018,433.344c-0.952-4.873-5.246-8.41-10.211-8.41H138.194c-4.964,0-9.258,3.536-10.212,8.409l-6.641,33.985
	c-0.598,3.062,0.195,6.2,2.179,8.609c1.984,2.41,4.912,3.791,8.033,3.791h248.894c3.12,0,6.048-1.382,8.032-3.79
	c1.983-2.409,2.778-5.547,2.18-8.61L384.018,433.344z M137.137,464.725l4.843-24.787h228.038l4.843,24.787H137.137z"/>
<path d="M207.936,43.513l33.972-28.509h49.519v215.915c0,4.143,3.359,7.502,7.502,7.502s7.502-3.359,7.502-7.502V12.082
	C306.43,5.42,301.01,0,294.349,0h-53.505c-2.837,0-5.595,1.005-7.767,2.827L198.291,32.02c-3.174,2.663-3.587,7.395-0.924,10.569
	C200.029,45.762,204.761,46.176,207.936,43.513z"/>
<g>
</g>
<g>
</g>
<g>
</g>
<g>
</g>
<g>
</g>
<g>
</g>
<g>
</g>
<g>
</g>
<g>
</g>
<g>
</g>
<g>
</g>
<g>
</g>
<g>
</g>
<g>
</g>
<g>
</g>
</svg>
