<svg height="496pt" viewBox="-40 0 496 496" width="496pt" xmlns="http://www.w3.org/2000/svg"><g fill="#f0bc5e"><path d="m368 168c.800781 0 1.601562-.078125 2.398438-.078125h.082031l-58.480469 112.078125h-32c0-8.800781-7.199219-16-16-16h-48l-44.640625-93.761719 4.640625-2.238281c24 0 24-32 48-32 23.921875 0 23.921875 32 47.921875 32s24-32 48-32 24 32 48.078125 32zm0 0"/><path d="m336 0c-35.289062 0-64 28.710938-64 64 0 9.585938 2.0625 18.808594 6.128906 27.414062h115.75c4.058594-8.605468 6.121094-17.828124 6.121094-27.414062 0-35.289062-28.710938-64-64-64zm0 0"/><path d="m112 424h-112v-160h112zm0 0"/></g><path d="m416 97.960938v-17.960938h-288v17.808594l75.328125 158.191406h-6.046875c-10.546875 0-20.855469 4.265625-28.296875 11.703125l-12.296875 12.296875h-44.6875v16h51.3125l16.984375-16.984375c4.464844-4.464844 10.648437-7.015625 16.984375-7.015625h66.71875c4.40625 0 8 3.585938 8 8v40c0 1.382812-.375 2.792969-1.070312 3.96875-2.570313 4.40625-8.90625 5.390625-12.625 1.582031-1.488282-1.445312-2.304688-3.414062-2.304688-5.550781v-32h-43.3125l-3.703125 3.703125c-12.894531 12.898437-30.753906 20.296875-48.984375 20.296875v16c17.160156 0 34.007812-5.382812 48.105469-14.984375.246093 5.761719 2.519531 10.96875 6.132812 14.984375-3.839843 4.257812-6.238281 9.832031-6.238281 16 0 6.089844 2.304688 11.71875 6.257812 15.984375-3.851562 4.253906-6.257812 9.839844-6.257812 16.015625 0 6.089844 2.304688 11.71875 6.257812 15.984375-3.851562 4.253906-6.257812 9.839844-6.257812 16.015625 0 2.792969.558594 5.472656 1.449219 8h-12.167969c-6.335938 0-12.519531-2.550781-16.984375-7.015625l-16.984375-16.984375h-51.3125v16h44.6875l12.296875 12.296875c7.441406 7.4375 17.75 11.703125 28.296875 11.703125h42.71875v16h-8c-10.59375 0-20.632812 4.144531-28.335938 11.742188-7.519531 7.632812-11.664062 17.671874-11.664062 28.257812v8h160v-8c0-22.054688-17.945312-40-40-40h-8v-17.472656c9.289062-3.3125 16-12.113282 16-22.527344 0-6.167969-2.40625-11.742188-6.238281-16 3.839843-4.257812 6.238281-9.832031 6.238281-16s-2.40625-11.742188-6.238281-16c3.839843-4.257812 6.238281-9.832031 6.238281-16 0-6.089844-2.304688-11.71875-6.257812-15.984375 3.851562-4.253906 6.257812-9.839844 6.257812-16.015625 0-6.488281-2.535156-12.519531-6.992188-16.855469-4.480468-4.617187-10.519531-7.144531-17.007812-7.144531h20.847656zm-152 246.039062c6.921875 0 13.191406-2.992188 17.695312-8h14.304688c2.136719 0 4.105469.824219 5.695312 2.449219 1.488282 1.445312 2.304688 3.414062 2.304688 5.550781 0 4.414062-3.59375 8-8 8h-64c-2.136719 0-4.105469-.824219-5.695312-2.449219-1.488282-1.445312-2.304688-3.414062-2.304688-5.550781 0-4.414062 3.59375-8 8-8h14.273438c.253906.273438.445312.601562.71875.855469 4.480468 4.617187 10.519531 7.144531 17.007812 7.144531zm40 32c0 4.414062-3.59375 8-8 8h-64c-2.136719 0-4.105469-.824219-5.695312-2.449219-1.488282-1.445312-2.304688-3.414062-2.304688-5.550781 0-4.414062 3.59375-8 8-8h64c4.40625 0 8 3.585938 8 8zm-64-56h-8c-4.40625 0-8-3.585938-8-8v-8h16zm94.632812 160h-125.265624c1.167968-3.320312 3.074218-6.375 5.609374-8.945312 4.617188-4.550782 10.664063-7.054688 17.023438-7.054688h80c10.433594 0 19.328125 6.6875 22.632812 16zm-78.632812-32v-16h32v16zm40-32h-64c-2.136719 0-4.105469-.824219-5.695312-2.449219-1.488282-1.445312-2.304688-3.414062-2.304688-5.550781 0-4.414062 3.59375-8 8-8h64c4.40625 0 8 3.585938 8 8s-3.59375 8-8 8zm5.695312-109.550781c1.488282 1.445312 2.304688 3.414062 2.304688 5.550781 0 4.414062-3.59375 8-8 8h-8v-16h8c2.136719 0 4.105469.824219 5.695312 2.449219zm-15.167968-34.449219c-3.3125-9.289062-12.113282-16-22.527344-16h-42.953125l-76.191406-160h254.121093l-91.824218 176zm0 0"/><path d="m64 264h16v160h-16zm0 0"/></svg>