<svg height="496pt" viewBox="-31 0 496 496" width="496pt" xmlns="http://www.w3.org/2000/svg"><path d="m222.28125 64c-9.695312 0-18.808594 3.777344-25.65625 10.625l-94.59375 94.589844c-12.328125 12.328125-20.648438 27.875-24.0625 44.960937l-7.433594 37.167969c-2.246094 11.222656-7.214844 21.894531-14.382812 30.855469l-56.152344 70.183593 114.351562 123.136719 76.191407-76.191406c9.824219-9.824219 22.191406-16.550781 35.777343-19.480469l.023438-9.046875c-3.0625-6.242187-6.929688-12.113281-11.574219-17.425781l-21.808593-24.925781c-9.425782-10.769531-15.785157-23.875-18.425782-37.9375l-19.519531-104.085938c-.304687-1.617187-.457031-3.25-.457031-4.890625v-2.992187c0-14.664063 11.882812-26.542969 26.546875-26.542969 10.742187 0 20.191406 6.464844 24.320312 16.023438l1.359375-.933594 19.773438 96.910156h8v-197.710938c-3.855469-1.402343-7.949219-2.289062-12.277344-2.289062zm0 0" fill="#f0bc5e"/><path d="m138.320312 382.089844.238282 1.910156c.328125-.328125.144531-1.039062-.238282-1.910156zm0 0" fill="#f0bc5e"/><path d="m402.558594 56c-5.855469 0-11.269532 1.695312-16 4.449219v-12.449219c0-17.648438-14.351563-32-32-32-6.628906 0-12.796875 2.03125-17.910156 5.503906-4.375-12.480468-16.136719-21.503906-30.089844-21.503906-17.648438 0-32 14.351562-32 32v4.449219c-4.726563-2.753907-10.144532-4.449219-16-4.449219-17.648438 0-32 14.351562-32 32v161.824219l-11.679688-54.511719c-3.390625-15.824219-17.589844-27.3125-33.773437-27.3125-19.050781 0-34.546875 15.496094-34.546875 34.542969v2.992187c0 2.128906.203125 4.265625.59375 6.367188l2.558594 13.640625-2.175782 2.175781c-16.109375 16.097656-24.976562 37.503906-24.976562 60.28125h16c0-15.71875 5.25-30.617188 14.839844-42.769531l13.273437 70.761719c2.894531 15.457031 9.902344 29.886718 20.265625 41.734374l21.816406 24.929688c11.476563 13.121094 17.804688 29.960938 17.804688 47.398438v33.945312h16v-33.945312c0-21.320313-7.726563-41.894532-21.773438-57.949219l-21.808594-24.921875c-8.480468-9.695313-14.207031-21.503906-16.585937-34.144532l-19.519531-104.078124c-.207032-1.128907-.3125-2.28125-.3125-3.433594v-2.992188c0-10.214844 8.320312-18.535156 18.546875-18.535156 8.6875 0 16.308593 6.167969 18.125 14.65625l20.859375 97.34375h22.46875v-208c0-8.824219 7.175781-16 16-16 8.824218 0 16 7.175781 16 16v160h16v-192c0-8.824219 7.175781-16 16-16 8.824218 0 16 7.175781 16 16v192h16v-176c0-8.824219 7.175781-16 16-16 8.824218 0 16 7.175781 16 16v176h16v-136c0-8.824219 7.175781-16 16-16 8.824218 0 16 7.175781 16 16v181.113281c0 11.125-2.628906 22.253907-7.597656 32.199219l-15.113282 30.214844c-6.078125 12.152344-9.289062 25.769531-9.289062 39.359375v69.113281h16v-69.113281c0-11.125 2.632812-22.253907 7.601562-32.199219l15.113282-30.214844c6.078124-12.152344 9.285156-25.769531 9.285156-39.359375v-181.113281c0-17.648438-14.351563-32-32-32zm0 0"/><path d="m418.558594 496h-208v-64h208zm0 0" fill="#f0bc5e"/></svg>