<svg height="496pt" viewBox="0 0 496 496.09365" width="496pt" xmlns="http://www.w3.org/2000/svg"><path d="m216.042969 136.09375 19.203125 223.960938 28.4375.039062 16.359375-224zm0 0" fill="#f0bc5e"/><path d="m281.882812 144.183594c-7.445312 0-14.789062-6.921875-21.941406-13.675782-3.664062-3.453124-9.800781-9.230468-12.175781-9.75-1.824219.511719-7.953125 6.296876-11.617187 9.75-9.152344 8.625-18.585938 17.539063-28.167969 11.914063-9.640625-5.679687-6.71875-18.625-3.894531-31.152344 1.09375-4.832031 2.910156-12.910156 2.214843-15.183593-1.167969-.9375-8.617187-3.230469-13.066406-4.609376-11.804687-3.640624-25.191406-7.765624-25.191406-19.382812s13.386719-15.742188 25.183593-19.382812c4.449219-1.378907 11.890626-3.671876 13.457032-5.273438.304687-1.617188-1.511719-9.703125-2.605469-14.527344-2.824219-12.519531-5.746094-25.472656 3.894531-31.144531 9.542969-5.609375 19.023438 3.289063 28.167969 11.910156 3.664063 3.457031 9.800781 9.234375 12.175781 9.753907 1.824219-.511719 7.953125-6.296876 11.617188-9.753907 9.144531-8.621093 18.582031-17.550781 28.167968-11.910156 9.640626 5.679687 6.71875 18.625 3.894532 31.152344-1.097656 4.832031-2.910156 12.910156-2.214844 15.183593 1.167969.9375 8.613281 3.230469 13.0625 4.609376 11.816406 3.640624 25.199219 7.765624 25.199219 19.382812s-13.382813 15.742188-25.183594 19.382812c-4.445313 1.378907-11.886719 3.671876-13.457031 5.273438-.300782 1.617188 1.515625 9.703125 2.609375 14.527344 2.824219 12.519531 5.746093 25.472656-3.894531 31.144531-2.082032 1.214844-4.160157 1.761719-6.234376 1.761719zm0 0" fill="#f0bc5e"/><path d="m192.042969 352.09375c-13.230469 0-24 10.769531-24 24v24h160v-24c0-13.230469-10.765625-24-24-24h-7.480469l32.738281-223.960938h-162.511719l32.734376 223.960938zm120 24v8h-128v-8c0-4.40625 3.585937-8 8-8h112c4.417969 0 8 3.59375 8 8zm-126.742188-231.960938h125.488281l-30.394531 207.960938h-64.703125zm0 0"/><path d="m248.042969 96.09375c13.234375 0 24-10.769531 24-24s-10.765625-24-24-24c-13.230469 0-24 10.769531-24 24s10.769531 24 24 24zm0-32c4.417969 0 8 3.59375 8 8s-3.582031 8-8 8c-4.414063 0-8-3.59375-8-8s3.585937-8 8-8zm0 0"/><path d="m481.773438 349.324219c9.566406-10.710938 15.0625-25.0625 14.175781-40.503907l-2.289063-39.925781-7.992187.457031c-1.640625.09375-3.246094.292969-4.839844.527344.007813-.015625.015625-.035156.023437-.050781 4.929688-14.125 4.058594-29.328125-2.457031-42.789063l-17.390625-36.015624-7.199218 3.476562c-1.480469.714844-2.894532 1.511719-4.28125 2.34375 0-.023438 0-.039062 0-.054688-.855469-14.933593-7.480469-28.640624-18.640626-38.589843l-29.855468-26.625-5.320313 5.976562c-13.558593 15.207031-17.222656 35.808594-11.566406 53.984375-4.480469-.859375-9.074219-1.226562-13.71875-.96875-14.9375.855469-28.640625 7.480469-38.59375 18.640625l-5.328125 5.976563 29.855469 26.621094c2.320312 2.066406 4.847656 3.847656 7.449219 5.496093l13.75 28.480469c1.355468 2.800781 3 5.410156 4.769531 7.921875l1.816406 31.566406c.175781 3.105469.695313 6.144531 1.375 9.144531l-10.40625 29.855469c-1.015625 2.929688-1.707031 5.945313-2.234375 8.992188l-21.03125 23.59375c-9.953125 11.167969-14.96875 25.535156-14.113281 40.46875.640625 11.089843 4.464843 21.488281 10.953125 30.183593-18.992188 9.066407-54.878906 22.585938-100.640625 22.585938-45.757813 0-81.648438-13.519531-100.640625-22.609375 6.488281-8.703125 10.3125-19.101563 10.953125-30.183594.855469-14.933593-4.160157-29.3125-14.109375-40.472656l-21.042969-23.597656c-.519531-3.03125-1.207031-6.039063-2.222656-8.984375l-10.410157-29.855469c.683594-3.015625 1.203126-6.066406 1.378907-9.152344l1.816406-31.5625c1.773437-2.511719 3.414063-5.125 4.773437-7.925781l13.746094-28.464844c2.605469-1.648437 5.136719-3.429687 7.464844-5.503906l29.847656-26.625-5.328125-5.972656c-9.953125-11.171875-23.65625-17.785156-38.59375-18.640625-4.640625-.257813-9.238281.109375-13.71875.964843 5.65625-18.167968 1.992188-38.773437-11.570312-53.980468l-5.320313-5.976563-29.847656 26.621094c-11.167969 9.953125-17.789062 23.664063-18.648438 38.59375v.046875c-1.398437-.816406-2.8125-1.605469-4.285156-2.320312l-7.199218-3.480469-17.394532 36.019531c-6.503906 13.46875-7.382812 28.664062-2.457031 42.789062.011719.015626.019531.035157.027344.050782-1.59375-.234375-3.203125-.433594-4.839844-.53125l-7.992187-.445313-2.289063 39.933594c-.886719 15.441406 4.609375 29.792969 14.175781 40.503906-1.574218.402344-3.144531.832031-4.710937 1.378907l-7.554688 2.628906 13.167969 37.769531c5.097656 14.609375 15.679688 25.746094 28.632812 31.96875-1.3125.976563-2.605468 1.984375-3.847656 3.09375l-5.976562 5.328125 26.617187 29.859375c11.046875 12.390625 26.40625 18.703125 41.832031 18.703125 10.726563 0 21.414063-3.21875 30.769532-9.410156l.496094.5625 1.847656-1.648438c18.933594 9.765625 59.132812 26.527344 112.453125 26.527344 53.320312 0 93.519531-16.761719 112.457031-26.519531l1.847656 1.648437.496094-.5625c9.359375 6.195313 20.03125 9.410156 30.761719 9.410156 15.429687 0 30.789062-6.320312 41.832031-18.703124l26.613281-29.859376-5.972656-5.324218c-1.242187-1.105469-2.539063-2.121094-3.851563-3.097656 12.953126-6.230469 23.539063-17.359376 28.632813-31.96875l13.167969-37.765626-7.550782-2.632812c-1.558593-.554688-3.128906-.992188-4.703124-1.394531zm-418.65625-20.863281c.613281-10.664063 5.34375-20.457032 13.320312-27.566407 5.941406-5.304687 13.167969-8.640625 20.871094-9.738281l-1.328125 23.167969c-.136719 2.363281-.550781 4.679687-1.105469 6.976562-11.621094 5.441407-20.957031 14.609375-26.613281 26.320313-2.035157 4.207031-3.449219 8.585937-4.378907 13.039062-.824218-.6875-1.636718-1.390625-2.503906-2.03125zm-7.898438-31.976563 13.136719-27.214844c4.648437-9.625 12.769531-16.855469 22.847656-20.375 7.519531-2.625 15.472656-2.945312 23.015625-1.007812l-10.078125 20.878906c-1.039063 2.144531-2.320313 4.128906-3.6875 6.03125-12.890625.554687-24.960937 5.488281-34.664063 14.144531-3.488281 3.105469-6.472656 6.617188-9.03125 10.375-.503906-.941406-.984374-1.910156-1.539062-2.832031zm35.65625 117.210937-9.949219-28.539062c-3.511719-10.085938-2.898437-20.941406 1.75-30.558594 3.472657-7.175781 8.855469-13.023437 15.570313-16.992187l7.628906 21.902343c.785156 2.257813 1.289062 4.570313 1.65625 6.882813-8.664062 9.472656-13.765625 21.519531-14.519531 34.503906-.269531 4.664063.105469 9.253907.953125 13.726563-1.03125-.328125-2.046875-.671875-3.089844-.925782zm51.503906 12.6875c-.453125 7.949219-3.199218 15.421876-7.871094 21.648438l-15.449218-17.320312c-7.109375-7.976563-10.6875-18.242188-10.070313-28.90625.457031-7.949219 3.199219-15.421876 7.871094-21.65625l15.449219 17.328124c7.113281 7.96875 10.6875 18.242188 10.070312 28.90625zm-17.613281-219.863281c7.949219.453125 15.421875 3.199219 21.648437 7.871094l-17.320312 15.445313c-1.769531 1.585937-3.707031 2.929687-5.714844 4.160156-12.054687-4.375-25.144531-4.488282-37.4375-.207032-4.394531 1.535157-8.480468 3.625-12.28125 6.105469-.097656-1.074219-.183594-2.136719-.34375-3.199219l22.542969-20.097656c7.976563-7.113281 18.28125-10.65625 28.90625-10.078125zm-48.898437-36.394531 17.304687-15.4375c9.359375 16.078125 6.464844 37.109375-7.953125 49.964844l-17.191406 15.328125c-.574219-1.160157-1.152344-2.328125-1.800782-3.4375-7.078124-15.539063-3.757812-34.480469 9.640626-46.417969zm-45.527344 94.433594c-3.511719-10.089844-2.886719-20.945313 1.761718-30.570313l10.09375-20.894531c3.816407 2.894531 6.976563 6.503906 9.519532 10.558594.792968 1.699218 1.679687 3.34375 2.640625 4.960937.464843 1.039063.976562 2.046875 1.351562 3.136719 3.511719 10.085938 2.890625 20.945312-1.757812 30.558594l-10.023438 20.761718c-1.058593-.921874-2.128906-1.824218-3.25-2.671874-4.609375-4.335938-8.191406-9.695313-10.335937-15.839844zm4.703125 31.992187c8.050781 7.816407 12.792969 18.941407 12.105469 31l-1.328126 23.023438c-1.039062-.351563-2.078124-.703125-3.144531-1-16.28125-5.816407-27.609375-21.71875-26.566406-39.832031l1.335937-23.160157c4.519532 1.191407 8.703126 3.160157 12.429688 5.726563 1.625 1.519531 3.351562 2.921875 5.167969 4.242187zm-4.710938 89.285157-7.640625-21.894532c4.832032-.664062 9.65625-.351562 14.273438.710938 1.816406.65625 3.679687 1.21875 5.574218 1.6875 10.511719 4.113281 19.273438 12.601562 23.273438 24.074218l4.414062 12.648438 3.1875 9.128906c-1.121093.078125-2.242187.140625-3.363281.285156-17.214843.839844-33.757812-9.527343-39.71875-26.640624zm42.25 64.875-15.433593-17.3125c16.078124-9.359376 37.113281-6.464844 49.96875 7.960937l15.4375 17.316406c-16.078126 9.355469-37.109376 6.449219-49.972657-7.964843zm406.0625-164.128907 1.335938 23.160157c1.03125 18.078124-10.238281 33.960937-26.472657 39.808593-1.09375.292969-2.167968.664063-3.238281 1.023438l-1.328125-23.023438c-.6875-12.058593 4.054688-23.183593 12.101563-31 1.808593-1.320312 3.546875-2.722656 5.167969-4.242187 3.730468-2.566406 7.914062-4.535156 12.433593-5.726563zm-50.9375-17.351562c.007813.015625.007813.023437.015625.039062l13.144532 27.214844c-.550782.921875-1.03125 1.890625-1.535157 2.839844-2.558593-3.757813-5.542969-7.261719-9.03125-10.375-9.710937-8.664063-21.792969-13.582031-34.664062-14.144531-1.375-1.902344-2.648438-3.886719-3.6875-6.023438l-10.089844-20.894531c7.535156-1.945313 15.496094-1.609375 23.015625 1.007812 10.074219 3.519531 18.175781 10.734375 22.832031 20.335938zm-24.628906 131.65625c-.746094-12.984375-5.859375-25.03125-14.523437-34.503907.378906-2.328124.882812-4.640624 1.664062-6.875l7.632812-21.910156c6.710938 3.96875 12.105469 9.816406 15.570313 16.992188 4.644531 9.617187 5.261719 20.472656 1.75 30.558594l-9.953125 28.539062c-1.039062.253906-2.0625.597656-3.085938.917969.839844-4.472657 1.207032-9.054688.945313-13.71875zm29.117187-40.21875c-.925781-4.453125-2.34375-8.839844-4.375-13.039063-5.65625-11.710937-14.992187-20.886718-26.617187-26.320312-.542969-2.285156-.957031-4.605469-1.101563-6.992188l-1.328124-23.160156c7.710937 1.105469 14.925781 4.441406 20.871093 9.738281 7.976563 7.109375 12.703125 16.902344 13.320313 27.566407l.078125 1.441406 1.648437 28.726562c-.855468.648438-1.664062 1.351563-2.496094 2.039063zm21.703126-147.566407 10.089843 20.886719c4.648438 9.625 5.273438 20.480469 1.761719 30.570313-2.144531 6.152344-5.738281 11.511718-10.347656 15.855468-1.117188.839844-2.183594 1.742188-3.238282 2.664063l-10.023437-20.761719c-.007813-.015625-.023437-.039062-.03125-.054687-5.226563-10.863281-5.089844-22.953125-.632813-33.238281 1.152344-1.890626 2.199219-3.824219 3.113282-5.816407 2.460937-3.824219 5.582031-7.265625 9.308594-10.105469zm-50.980469-58.414062 17.308593 15.4375c13.515626 12.046875 16.769532 31.25 9.425782 46.855469-.566406.984375-1.0625 2-1.566406 3.015625l-17.210938-15.34375c-14.414062-12.855469-17.320312-33.886719-7.957031-49.964844zm-30.210938 79.308594c-2-1.230469-3.933593-2.582032-5.710937-4.160156l-17.320313-15.4375c6.222657-4.671876 13.695313-7.417969 21.648438-7.871094 10.617187-.570313 20.929687 2.964844 28.902343 10.078125l22.5625 20.113281c-.160156 1.0625-.234374 2.136719-.335937 3.207031-3.808594-2.496093-7.90625-4.59375-12.3125-6.128906-12.296875-4.289063-25.375-4.183594-37.433594.199219zm-8.925781 163.480468 15.445312-17.328124c4.671876 6.234374 7.425782 13.695312 7.875 21.65625.613282 10.664062-2.960937 20.9375-10.074218 28.90625l-15.445313 17.320312c-4.671875-6.234375-7.425781-13.699219-7.875-21.648438-.613281-10.664062 2.960938-20.9375 10.074219-28.90625zm59.726562 53.234376c-12.863281 14.421874-33.894531 17.3125-49.976562 7.957031l15.433594-17.308594c12.847656-14.410156 33.863281-17.335937 49.96875-7.960937zm42.25-64.867188c-5.9375 17.035156-22.3125 27.410156-39.457031 26.65625-1.199219-.160156-2.410156-.230469-3.617187-.308594l7.59375-21.777344c4.007812-11.472656 12.757812-19.960937 23.269531-24.074218 1.898437-.46875 3.761719-1.03125 5.578125-1.6875 4.617188-1.070313 9.429688-1.375 14.269531-.710938zm0 0"/></svg>