<svg height="496pt" viewBox="0 0 496 496" width="496pt" xmlns="http://www.w3.org/2000/svg"><path d="m382.105469 350.710938-13.441407 8.671874 77.816407 120.617188h-34.167969l-59.871094-90.886719-13.363281 8.808594 38.257813 58.078125h-258.671876l38.257813-58.078125-13.363281-8.808594-59.871094 90.886719h-34.167969l77.816407-120.617188-13.441407-8.671874-81.894531 126.9375v18.351562h60.3125l15.808594-24h279.757812l15.808594 24h60.3125v-18.351562zm0 0"/><g fill="#f0bc5e"><path d="m264 136.855469v48.503906c49.824219 7.710937 88 50.65625 88 102.640625 0 57.441406-46.558594 104-104 104s-104-46.558594-104-104c0-51.984375 38.175781-94.929688 88-102.648438v-48.503906c-76.425781 8-136 72.609375-136 151.144532 0 83.945312 68.054688 152 152 152s152-68.054688 152-152c0-78.535157-59.574219-143.136719-136-151.136719zm0 0"/><path d="m272 32v80l48-32v-80zm0 0"/><path d="m224 32v80l-48-32v-80zm0 0"/></g><path d="m248 352c-35.289062 0-64-28.710938-64-64 0-2.710938.167969-5.398438.496094-8.023438l15.871094 1.992188c-.238282 1.976562-.367188 3.992188-.367188 6.03125 0 26.472656 21.527344 48 48 48s48-21.527344 48-48c0-2.222656-.160156-4.457031-.457031-6.625l15.839843-2.199219c.417969 2.894531.617188 5.863281.617188 8.824219 0 35.289062-28.710938 64-64 64zm0 0"/><path d="m272 178.679688v-147.824219h-48v147.824219c-51.367188 11.136718-88 56-88 109.320312 0 61.761719 50.238281 112 112 112s112-50.238281 112-112c0-53.328125-36.632812-98.191406-88-109.320312zm-32-131.824219h16v193.144531h25.863281l-33.863281 56.449219-33.863281-56.449219h25.863281zm8 337.144531c-52.9375 0-96-43.0625-96-96 0-43.761719 30.359375-82.152344 72-92.9375v28.9375h-38.136719l62.136719 103.550781 62.136719-103.550781h-38.136719v-28.9375c41.640625 10.792969 72 49.175781 72 92.9375 0 52.9375-43.0625 96-96 96zm0 0"/><path d="m440 152h16v24h-16zm0 0"/><path d="m408.402344 171.730469 11.316406-11.3125 16.96875 16.972656-11.316406 11.3125zm0 0"/><path d="m400 192h24v16h-24zm0 0"/><path d="m408.398438 228.289062 16.972656-16.972656 11.3125 11.3125-16.972656 16.972656zm0 0"/><path d="m440 224h16v24h-16zm0 0"/><path d="m459.3125 222.636719 11.316406-11.3125 16.96875 16.972656-11.316406 11.3125zm0 0"/><path d="m472 192h24v16h-24zm0 0"/><path d="m459.308594 177.371094 16.96875-16.96875 11.316406 11.3125-16.972656 16.972656zm0 0"/><path d="m40 0h16v24h-16zm0 0"/><path d="m8.402344 19.71875 11.316406-11.3125 16.96875 16.972656-11.316406 11.3125zm0 0"/><path d="m0 40h24v16h-24zm0 0"/><path d="m8.402344 76.285156 16.972656-16.96875 11.3125 11.3125-16.972656 16.96875zm0 0"/><path d="m40 72h16v24h-16zm0 0"/><path d="m59.3125 70.625 11.316406-11.308594 16.96875 16.972656-11.316406 11.308594zm0 0"/><path d="m72 40h24v16h-24zm0 0"/><path d="m59.3125 25.371094 16.96875-16.96875 11.3125 11.3125-16.96875 16.96875zm0 0"/><path d="m416 16h16v16h-16zm0 0"/><path d="m416 48h16v16h-16zm0 0"/><path d="m432 32h16v16h-16zm0 0"/><path d="m400 32h16v16h-16zm0 0"/><path d="m64 152h16v16h-16zm0 0"/><path d="m64 184h16v16h-16zm0 0"/><path d="m80 168h16v16h-16zm0 0"/><path d="m48 168h16v16h-16zm0 0"/><path d="m32 264h16v16h-16zm0 0"/><path d="m32 296h16v16h-16zm0 0"/><path d="m48 280h16v16h-16zm0 0"/><path d="m16 280h16v16h-16zm0 0"/><path d="m368 80h16v16h-16zm0 0"/><path d="m368 112h16v16h-16zm0 0"/><path d="m384 96h16v16h-16zm0 0"/><path d="m352 96h16v16h-16zm0 0"/></svg>