<svg height="496pt" viewBox="0 -56 496 496" width="496pt" xmlns="http://www.w3.org/2000/svg"><path d="m100.488281 16c25.871094 0 50.71875 9.640625 69.945313 27.144531l10.773437-11.832031c-22.183593-20.191406-50.847656-31.3125-80.71875-31.3125h-100.488281v24c0 11.0625 7.558594 20.3125 17.761719 23.070312-1.113281 2.769532-1.761719 5.769532-1.761719 8.929688 0 11.0625 7.558594 20.3125 17.761719 23.070312-1.113281 2.769532-1.761719 5.769532-1.761719 8.929688 0 11.0625 7.558594 20.3125 17.761719 23.070312-1.113281 2.769532-1.761719 5.769532-1.761719 8.929688 0 13.230469 10.769531 24 24 24h61.824219c4.183593 0 8.558593-.28125 13.777343-.878906l-1.832031-15.890625c-4.59375.523437-8.386719.769531-11.945312.769531h-61.824219c-4.40625 0-8-3.59375-8-8s3.59375-8 8-8h32v-16h-48c-4.40625 0-8-3.59375-8-8s3.59375-8 8-8h48v-16h-64c-4.40625 0-8-3.59375-8-8s3.59375-8 8-8h72v-16h-88c-4.40625 0-8-3.59375-8-8v-8zm0 0"/><path d="m395.511719 0c-29.871094 0-58.535157 11.121094-80.71875 31.3125l10.773437 11.832031c19.226563-17.503906 44.074219-27.144531 69.945313-27.144531h84.488281v8c0 4.40625-3.59375 8-8 8h-88v16h72c4.40625 0 8 3.59375 8 8s-3.59375 8-8 8h-64v16h48c4.40625 0 8 3.59375 8 8s-3.59375 8-8 8h-48v16h32c4.40625 0 8 3.59375 8 8s-3.59375 8-8 8h-61.824219c-3.558593 0-7.351562-.246094-11.9375-.777344l-1.839843 15.898438c5.210937.597656 9.585937.878906 13.777343.878906h61.824219c13.230469 0 24-10.769531 24-24 0-3.160156-.648438-6.160156-1.761719-8.929688 10.203125-2.765624 17.761719-12.007812 17.761719-23.070312 0-3.160156-.648438-6.160156-1.761719-8.929688 10.203125-2.765624 17.761719-12.007812 17.761719-23.070312 0-3.160156-.648438-6.160156-1.761719-8.929688 10.203125-2.765624 17.761719-12.007812 17.761719-23.070312v-24zm0 0"/><path d="m248 224c-61.761719 0-112-50.238281-112-112s50.238281-112 112-112 112 50.238281 112 112-50.238281 112-112 112zm0 0" fill="#f0bc5e"/><path d="m256 152h-16v-70.382812l-19.558594 13.039062-8.882812-13.3125 26.015625-17.34375h18.425781zm0 0"/><path d="m128 240h240v48h-240zm0 0" fill="#f0bc5e"/><path d="m248 192c-44.113281 0-80-35.886719-80-80s35.886719-80 80-80 80 35.886719 80 80-35.886719 80-80 80zm0-144c-35.289062 0-64 28.710938-64 64s28.710938 64 64 64 64-28.710938 64-64-28.710938-64-64-64zm0 0"/><path d="m240 240h16v16h-16zm0 0"/><path d="m240 272h16v16h-16zm0 0"/><path d="m256 256h16v16h-16zm0 0"/><path d="m224 256h16v16h-16zm0 0"/><path d="m320 240h16v16h-16zm0 0"/><path d="m320 272h16v16h-16zm0 0"/><path d="m336 256h16v16h-16zm0 0"/><path d="m304 256h16v16h-16zm0 0"/><path d="m160 240h16v16h-16zm0 0"/><path d="m160 272h16v16h-16zm0 0"/><path d="m176 256h16v16h-16zm0 0"/><path d="m144 256h16v16h-16zm0 0"/><path d="m494.953125 272h-94.953125v-64h-304v64h-94.953125l37.335937 56-37.335937 56h190.953125v-64h112v64h190.953125l-37.335937-56zm-110.953125-48v80h-272v-80zm-326.382812 104-26.664063-40h65.046875v27.839844l65.191406 52.160156h-130.238281zm118.382812 31.351562-49.191406-39.351562h49.191406zm193.191406-39.351562-49.191406 39.351562v-39.351562zm95.855469 48h-130.238281l65.191406-52.160156v-27.839844h65.046875l-26.664063 40zm0 0"/></svg>