<svg height="496pt" viewBox="0 0 496 496" width="496pt" xmlns="http://www.w3.org/2000/svg"><path d="m408 0h-320c-30.878906 0-56 25.121094-56 56v45.199219c0 13.832031 3.953125 27.296875 11.433594 38.9375l87.695312 136.414062 13.464844-8.648437-87.699219-136.414063c-5.824219-9.046875-8.894531-19.519531-8.894531-30.289062v-45.199219c0-5.480469 1.121094-10.710938 3.121094-15.472656l124.472656 196.625 13.511719-8.550782-94.066407-148.601562h305.921876l-94.066407 148.601562 13.511719 8.550782 124.472656-196.625c2 4.761718 3.121094 9.992187 3.121094 15.472656v45.199219c0 10.761719-3.070312 21.234375-8.894531 30.289062l-87.699219 136.414063 13.464844 8.648437 87.695312-136.414062c7.480469-11.640625 11.433594-25.097657 11.433594-38.9375v-45.199219c0-30.878906-25.121094-56-56-56zm-323.089844 64-23.71875-37.472656c7.105469-6.472656 16.457032-10.527344 26.808594-10.527344h320c10.351562 0 19.703125 4.054688 26.808594 10.527344l-23.71875 37.472656zm0 0"/><path d="m96 32h16v16h-16zm0 0"/><path d="m128 32h240v16h-240zm0 0"/><path d="m384 32h16v16h-16zm0 0"/><path d="m248 208c-79.398438 0-144 64.601562-144 144s64.601562 144 144 144 144-64.601562 144-144-64.601562-144-144-144zm0 256c-61.753906 0-112-50.246094-112-112s50.246094-112 112-112 112 50.246094 112 112-50.246094 112-112 112zm0 0" fill="#f0bc5e"/><path d="m281.832031 424.089844c-7.441406 0-14.785156-6.929688-21.945312-13.675782-3.664063-3.453124-9.789063-9.230468-12.175781-9.742187-1.816407.511719-7.941407 6.289063-11.605469 9.742187-9.152344 8.632813-18.625 17.523438-28.183594 11.90625-9.640625-5.671874-6.714844-18.617187-3.890625-31.136718 1.089844-4.832032 2.914062-12.917969 2.214844-15.191406-1.167969-.9375-8.613282-3.230469-13.054688-4.609376-11.808594-3.640624-25.191406-7.765624-25.191406-19.382812 0-11.625 13.382812-15.753906 25.191406-19.390625 4.449219-1.371094 11.878906-3.664063 13.449219-5.265625.304687-1.617188-1.519531-9.703125-2.617187-14.527344-2.824219-12.519531-5.742188-25.464844 3.898437-31.136718 9.582031-5.625 19.03125 3.289062 28.175781 11.914062 3.664063 3.453125 9.789063 9.230469 12.175782 9.742188 1.816406-.511719 7.941406-6.289063 11.605468-9.742188 9.152344-8.625 18.617188-17.539062 28.183594-11.90625 9.640625 5.671875 6.714844 18.617188 3.890625 31.136719-1.089844 4.832031-2.914063 12.917969-2.21875 15.191406 1.167969.9375 8.617187 3.230469 13.058594 4.609375 11.824219 3.632812 25.207031 7.757812 25.207031 19.375 0 11.625-13.382812 15.753906-25.191406 19.390625-4.449219 1.371094-11.878906 3.664063-13.449219 5.265625-.304687 1.617188 1.519531 9.703125 2.617187 14.527344 2.824219 12.519531 5.742188 25.464844-3.898437 31.136718-2.085937 1.230469-4.167969 1.769532-6.246094 1.769532zm-33.832031-39.402344c7.9375 0 15.183594 6.839844 22.871094 14.089844 2.121094 2 5.128906 4.832031 7.632812 6.847656-.449218-3.402344-1.449218-7.816406-2.144531-10.914062-2.289063-10.117188-4.4375-19.679688-.65625-26.335938 3.703125-6.519531 12.359375-9.183594 22.386719-12.277344 3.421875-1.058594 8.503906-2.625 11.703125-4.105468-3.199219-1.480469-8.28125-3.039063-11.703125-4.097657-10.027344-3.09375-18.683594-5.757812-22.386719-12.277343-3.78125-6.65625-1.625-16.210938.65625-26.335938.695313-3.097656 1.695313-7.503906 2.152344-10.90625-2.511719 2.015625-5.511719 4.847656-7.640625 6.847656-7.679688 7.242188-14.933594 14.082032-22.871094 14.082032s-15.183594-6.839844-22.871094-14.089844c-2.121094-2-5.128906-4.832032-7.632812-6.847656.449218 3.402343 1.449218 7.816406 2.144531 10.914062 2.289063 10.117188 4.4375 19.679688.65625 26.335938-3.703125 6.519531-12.359375 9.183593-22.386719 12.277343-3.421875 1.058594-8.503906 2.625-11.703125 4.105469 3.199219 1.480469 8.28125 3.039062 11.703125 4.097656 10.027344 3.09375 18.683594 5.757813 22.386719 12.277344 3.78125 6.65625 1.625 16.210938-.65625 26.335938-.695313 3.097656-1.695313 7.503906-2.152344 10.90625 2.511719-2.015626 5.511719-4.847657 7.640625-6.847657 7.6875-7.242187 14.933594-14.082031 22.871094-14.082031zm0 0"/><path d="m440 232h-40v8c0 30.878906 25.121094 56 56 56h24v20.34375c-4.753906-2.742188-10.199219-4.34375-16-4.34375h-32v16c0 17.648438 14.351562 32 32 32h10.214844c-2.535156 9.335938-5.933594 18.398438-10.085938 27.128906-5.914062-6.808594-14.570312-11.128906-24.128906-11.128906h-32v16c0 17.609375 14.304688 31.9375 31.902344 31.992188-1.046875 1.199218-1.980469 2.472656-3.0625 3.648437-30.71875 33.269531-74.320313 52.359375-119.609375 52.359375h-138.460938c-45.289062 0-88.882812-19.089844-119.601562-52.359375-1.078125-1.175781-2.015625-2.449219-3.0625-3.648437 17.589843-.054688 31.894531-14.382813 31.894531-31.992188v-16h-32c-9.558594 0-18.214844 4.320312-24.128906 11.128906-4.152344-8.730468-7.550782-17.792968-10.085938-27.128906h10.214844c17.648438 0 32-14.351562 32-32v-16h-32c-5.800781 0-11.246094 1.601562-16 4.34375v-20.34375h24c30.878906 0 56-25.121094 56-56v-8h-40c-30.878906 0-56 25.121094-56 56v29.230469c0 45.074219 16.832031 88.136719 47.40625 121.257812.691406.742188 1.417969 1.441407 2.113281 2.175781-14.542969 3-25.519531 15.910157-25.519531 31.335938v16h32c12.761719 0 23.886719-7.695312 29-18.664062 27.96875 17.207031 60.441406 26.664062 93.769531 26.664062h138.460938c33.328125 0 65.800781-9.457031 93.769531-26.664062 5.113281 10.96875 16.238281 18.664062 29 18.664062h32v-16c0-15.425781-10.976562-28.335938-25.519531-31.335938.695312-.726562 1.429687-1.433593 2.113281-2.175781 30.574219-33.121093 47.40625-76.183593 47.40625-121.257812v-29.230469c0-30.878906-25.121094-56-56-56zm16 48c-19.320312 0-35.480469-13.769531-39.191406-32h23.191406c19.320312 0 35.480469 13.769531 39.191406 32zm-400-32h23.191406c-3.710937 18.230469-19.871094 32-39.191406 32h-23.191406c3.710937-18.230469 19.871094-32 39.191406-32zm-38.550781 89.761719c2.503906-5.839844 8.078125-9.761719 14.550781-9.761719h16c0 8.824219-7.175781 16-16 16h-13.671875c-.34375-2.070312-.617187-4.152344-.878906-6.238281zm26.390625 70.238281c-1.03125-1.527344-2.175782-2.992188-3.152344-4.550781 1.976562-6.664063 8.152344-11.449219 15.3125-11.449219h16c0 8.824219-7.175781 16-16 16zm12.160156 64h-16c0-8.824219 7.175781-16 16-16h10.152344c1.726562 1.398438 3.488281 2.753906 5.261718 4.078125-1.828124 6.824219-8.070312 11.921875-15.414062 11.921875zm400 0h-16c-7.34375 0-13.585938-5.097656-15.414062-11.921875 1.773437-1.324219 3.535156-2.679687 5.261718-4.078125h10.152344c8.824219 0 16 7.175781 16 16zm-3.839844-64h-12.160156c-8.824219 0-16-7.175781-16-16h16c7.160156 0 13.335938 4.785156 15.3125 11.449219-.976562 1.558593-2.121094 3.023437-3.152344 4.550781zm25.511719-64h-13.671875c-8.824219 0-16-7.175781-16-16h16c6.472656 0 12.046875 3.921875 14.550781 9.761719-.261719 2.085937-.535156 4.167969-.878906 6.238281zm0 0"/><path d="m248 464c-26.679688 0-52.558594-9.609375-72.878906-27.054688l10.421875-12.144531c17.417969 14.960938 39.601562 23.199219 62.457031 23.199219 52.9375 0 96-43.0625 96-96 0-22.855469-8.238281-45.039062-23.191406-62.457031l12.144531-10.421875c17.4375 20.320312 27.046875 46.199218 27.046875 72.878906 0 61.761719-50.238281 112-112 112zm0 0"/><path d="m163.054688 424.878906c-17.445313-20.320312-27.054688-46.199218-27.054688-72.878906 0-61.761719 50.238281-112 112-112 26.679688 0 52.558594 9.609375 72.878906 27.054688l-10.421875 12.144531c-17.417969-14.960938-39.601562-23.199219-62.457031-23.199219-52.9375 0-96 43.0625-96 96 0 22.855469 8.238281 45.039062 23.191406 62.457031zm0 0"/></svg>