<svg height="496pt" viewBox="0 0 496 496.128" width="496pt" xmlns="http://www.w3.org/2000/svg"><path d="m159.734375 324.886719-31.671875-42.222657v-226.664062h16v221.335938l28.472656 37.960937zm0 0"/><path d="m336.390625 324.886719-12.796875-9.589844 28.46875-37.960937v-221.335938h16v226.664062zm0 0"/><path d="m176.0625 56h16v246.023438h-16zm0 0"/><path d="m208.0625 56h16v229.015625h-16zm0 0"/><path d="m272.0625 56h16v229.015625h-16zm0 0"/><path d="m304.0625 56h16v246.023438h-16zm0 0"/><path d="m248.0625 496c-61.757812 0-112-50.238281-112-112s50.242188-112 112-112c61.761719 0 112 50.238281 112 112s-50.238281 112-112 112zm0 0" fill="#f0bc5e"/><path d="m264.0625 424h-16v-70.382812l-19.558594 13.039062-8.878906-13.3125 26.015625-17.34375h18.421875zm0 0"/><path d="m248.0625 464c-44.109375 0-80-35.886719-80-80s35.890625-80 80-80c44.113281 0 80 35.886719 80 80s-35.886719 80-80 80zm0-144c-35.285156 0-64 28.710938-64 64s28.714844 64 64 64c35.289062 0 64-28.710938 64-64s-28.710938-64-64-64zm0 0"/><path d="m405.238281 496.128906c-1.664062 0-3.382812-.449218-5.148437-1.457031-9.210938-5.246094-4.683594-16.953125-.3125-28.265625 1.09375-2.832031 2.726562-7.0625 3.519531-9.910156-2.839844-.710938-7.242187-1.398438-10.191406-1.863282-12.3125-1.929687-25.042969-3.921874-25.042969-14.632812s12.730469-12.703125 25.042969-14.625c2.957031-.472656 7.351562-1.160156 10.191406-1.863281-.792969-2.847657-2.425781-7.078125-3.519531-9.910157-4.371094-11.3125-8.890625-23.015624.3125-28.265624 8.902344-5.023438 16.382812 3.953124 24.292968 13.480468 2.160157 2.597656 5.457032 6.566406 7.679688 8.640625 2.234375-2.074219 5.53125-6.042969 7.691406-8.640625 7.910156-9.527344 15.359375-18.558594 24.285156-13.480468 9.207032 5.25 4.679688 16.953124.3125 28.265624-1.09375 2.832032-2.726562 7.0625-3.519531 9.910157 2.839844.710937 7.238281 1.398437 10.191407 1.863281 12.3125 1.921875 25.039062 3.914062 25.039062 14.625s-12.726562 12.703125-25.039062 14.625c-2.960938.472656-7.351563 1.160156-10.191407 1.863281.792969 2.847657 2.425781 7.078125 3.519531 9.910157 4.367188 11.3125 8.886719 23.015624-.3125 28.265624-8.894531 5.03125-16.382812-3.945312-24.296874-13.480468-2.15625-2.597656-5.453126-6.566406-7.679688-8.640625-2.230469 2.074219-5.527344 6.042969-7.6875 8.640625-6.335938 7.648437-12.398438 14.945312-19.136719 14.945312zm26.824219-40.511718c5.304688 0 9.738281 3.628906 14.523438 8.933593-2.289063-6.710937-3.289063-12.277343-.625-16.816406 2.671874-4.535156 8.238281-6.382813 15.496093-7.742187-7.25-1.359376-12.816406-3.191407-15.488281-7.746094-2.664062-4.519532-1.664062-10.101563.625-16.8125-4.792969 5.300781-9.226562 8.933594-14.523438 8.933594-5.292968 0-9.734374-3.632813-14.519531-8.933594 2.289063 6.710937 3.289063 12.277344.625 16.8125-2.6875 4.554687-8.253906 6.394531-15.503906 7.753906 7.25 1.359375 12.816406 3.191406 15.488281 7.742188 2.664063 4.523437 1.664063 10.105468-.625 16.816406 4.792969-5.3125 9.226563-8.941406 14.527344-8.941406zm0 0"/><path d="m405.238281 368.128906c-1.664062 0-3.382812-.449218-5.148437-1.457031-9.210938-5.246094-4.683594-16.953125-.3125-28.265625 1.09375-2.832031 2.726562-7.0625 3.519531-9.910156-2.839844-.710938-7.242187-1.398438-10.191406-1.863282-12.3125-1.929687-25.042969-3.921874-25.042969-14.632812s12.730469-12.703125 25.042969-14.625c2.957031-.472656 7.351562-1.160156 10.191406-1.863281-.792969-2.847657-2.425781-7.078125-3.519531-9.910157-4.371094-11.3125-8.890625-23.015624.3125-28.265624 8.902344-5.023438 16.382812 3.953124 24.292968 13.480468 2.160157 2.597656 5.457032 6.566406 7.679688 8.640625 2.234375-2.074219 5.53125-6.042969 7.691406-8.640625 7.910156-9.535156 15.359375-18.542968 24.285156-13.480468 9.207032 5.25 4.679688 16.953124.3125 28.265624-1.09375 2.832032-2.726562 7.0625-3.519531 9.910157 2.839844.710937 7.238281 1.398437 10.191407 1.863281 12.3125 1.921875 25.039062 3.914062 25.039062 14.625s-12.726562 12.703125-25.039062 14.625c-2.960938.472656-7.351563 1.160156-10.191407 1.863281.792969 2.847657 2.425781 7.078125 3.519531 9.910157 4.367188 11.3125 8.886719 23.015624-.3125 28.265624-8.894531 5.03125-16.382812-3.945312-24.296874-13.480468-2.15625-2.597656-5.453126-6.566406-7.679688-8.640625-2.230469 2.074219-5.527344 6.042969-7.6875 8.640625-6.335938 7.648437-12.398438 14.945312-19.136719 14.945312zm26.824219-40.511718c5.304688 0 9.738281 3.628906 14.523438 8.933593-2.289063-6.710937-3.289063-12.277343-.625-16.816406 2.671874-4.535156 8.238281-6.382813 15.496093-7.742187-7.25-1.359376-12.816406-3.191407-15.488281-7.746094-2.664062-4.519532-1.664062-10.101563.625-16.8125-4.792969 5.300781-9.226562 8.933594-14.523438 8.933594-5.292968 0-9.734374-3.632813-14.519531-8.933594 2.289063 6.710937 3.289063 12.277344.625 16.8125-2.6875 4.554687-8.253906 6.394531-15.503906 7.753906 7.25 1.359375 12.816406 3.191406 15.488281 7.742188 2.664063 4.523437 1.664063 10.105468-.625 16.816406 4.792969-5.3125 9.226563-8.941406 14.527344-8.941406zm0 0"/><path d="m376.0625 64h-256c-13.230469 0-24-10.769531-24-24v-40h304v40c0 13.230469-10.765625 24-24 24zm0 0" fill="#f0bc5e"/><path d="m37.238281 496.128906c-1.664062 0-3.382812-.449218-5.148437-1.457031-9.210938-5.246094-4.683594-16.953125-.3125-28.265625 1.09375-2.832031 2.726562-7.0625 3.519531-9.910156-2.839844-.710938-7.242187-1.398438-10.191406-1.863282-12.3125-1.929687-25.042969-3.921874-25.042969-14.632812s12.730469-12.703125 25.042969-14.625c2.957031-.472656 7.351562-1.160156 10.191406-1.863281-.792969-2.847657-2.425781-7.078125-3.519531-9.910157-4.371094-11.3125-8.890625-23.015624.3125-28.265624 8.894531-5.023438 16.382812 3.953124 24.292968 13.480468 2.160157 2.597656 5.457032 6.566406 7.679688 8.640625 2.234375-2.074219 5.53125-6.042969 7.691406-8.640625 7.910156-9.527344 15.375-18.558594 24.285156-13.480468 9.207032 5.25 4.679688 16.953124.3125 28.265624-1.09375 2.832032-2.726562 7.0625-3.519531 9.910157 2.839844.710937 7.238281 1.398437 10.191407 1.863281 12.3125 1.921875 25.039062 3.914062 25.039062 14.625s-12.726562 12.703125-25.039062 14.625c-2.960938.472656-7.351563 1.160156-10.191407 1.863281.792969 2.847657 2.425781 7.078125 3.519531 9.910157 4.367188 11.3125 8.886719 23.015624-.3125 28.265624-8.894531 5.03125-16.382812-3.945312-24.296874-13.480468-2.15625-2.597656-5.453126-6.566406-7.679688-8.640625-2.230469 2.074219-5.527344 6.042969-7.6875 8.640625-6.335938 7.648437-12.398438 14.945312-19.136719 14.945312zm26.824219-40.511718c5.304688 0 9.738281 3.628906 14.523438 8.933593-2.289063-6.710937-3.289063-12.277343-.625-16.816406 2.671874-4.535156 8.238281-6.382813 15.496093-7.742187-7.25-1.359376-12.816406-3.191407-15.488281-7.746094-2.664062-4.519532-1.664062-10.101563.625-16.8125-4.792969 5.320312-9.226562 8.949218-14.53125 8.949218-5.300781 0-9.734375-3.628906-14.519531-8.933593 2.289062 6.710937 3.289062 12.277343.625 16.816406-2.679688 4.535156-8.246094 6.375-15.496094 7.734375 7.25 1.359375 12.816406 3.191406 15.488281 7.742188 2.664063 4.523437 1.664063 10.105468-.625 16.816406 4.792969-5.3125 9.226563-8.941406 14.527344-8.941406zm0 0"/><path d="m37.238281 368.128906c-1.664062 0-3.382812-.449218-5.148437-1.457031-9.210938-5.246094-4.683594-16.953125-.3125-28.265625 1.09375-2.832031 2.726562-7.0625 3.519531-9.910156-2.839844-.710938-7.242187-1.398438-10.191406-1.863282-12.3125-1.929687-25.042969-3.921874-25.042969-14.632812s12.730469-12.703125 25.042969-14.625c2.957031-.472656 7.351562-1.160156 10.191406-1.863281-.792969-2.847657-2.425781-7.078125-3.519531-9.910157-4.371094-11.3125-8.890625-23.015624.3125-28.265624 8.894531-5.023438 16.382812 3.953124 24.292968 13.480468 2.160157 2.597656 5.457032 6.566406 7.679688 8.640625 2.234375-2.074219 5.53125-6.042969 7.691406-8.640625 7.910156-9.535156 15.375-18.542968 24.285156-13.480468 9.207032 5.25 4.679688 16.953124.3125 28.265624-1.09375 2.832032-2.726562 7.0625-3.519531 9.910157 2.839844.710937 7.238281 1.398437 10.191407 1.863281 12.3125 1.921875 25.039062 3.914062 25.039062 14.625s-12.726562 12.703125-25.039062 14.625c-2.960938.472656-7.351563 1.160156-10.191407 1.863281.792969 2.847657 2.425781 7.078125 3.519531 9.910157 4.367188 11.3125 8.886719 23.015624-.3125 28.265624-8.894531 5.03125-16.382812-3.945312-24.296874-13.480468-2.15625-2.597656-5.453126-6.566406-7.679688-8.640625-2.230469 2.074219-5.527344 6.042969-7.6875 8.640625-6.335938 7.648437-12.398438 14.945312-19.136719 14.945312zm26.824219-40.511718c5.304688 0 9.738281 3.628906 14.523438 8.933593-2.289063-6.710937-3.289063-12.277343-.625-16.816406 2.671874-4.535156 8.238281-6.382813 15.496093-7.742187-7.25-1.359376-12.816406-3.191407-15.488281-7.746094-2.664062-4.519532-1.664062-10.101563.625-16.8125-4.792969 5.320312-9.226562 8.949218-14.53125 8.949218-5.300781 0-9.734375-3.628906-14.519531-8.933593 2.289062 6.710937 3.289062 12.277343.625 16.816406-2.679688 4.535156-8.246094 6.375-15.496094 7.734375 7.25 1.359375 12.816406 3.191406 15.488281 7.742188 2.664063 4.523437 1.664063 10.105468-.625 16.816406 4.792969-5.3125 9.226563-8.941406 14.527344-8.941406zm0 0"/></svg>