<svg height="496pt" viewBox="0 0 496 496" width="496pt" xmlns="http://www.w3.org/2000/svg"><g fill="#f0bc5e"><path d="m352 232c0 57.4375-46.5625 104-104 104s-104-46.5625-104-104 46.5625-104 104-104 104 46.5625 104 104zm0 0"/><path d="m112 344h272c0 11.679688-3.121094 22.640625-8.558594 32h-254.800781c-5.519531-9.359375-8.640625-20.320312-8.640625-32zm0 0"/><path d="m8 56v56c30.871094 0 56-25.128906 56-56zm0 0"/><path d="m8 144v56h56c0-30.871094-25.128906-56-56-56zm0 0"/><path d="m432 288h56v-56c-30.871094 0-56 25.128906-56 56zm0 0"/><path d="m432 144c0 30.871094 25.128906 56 56 56v-56zm0 0"/></g><path d="m369.246094 296h126.753906v-160h-137.832031c-6.3125-6.910156-13.375-13.207031-21.191407-18.679688l-22.480468-15.734374 34.480468-62.074219c1.976563-3.566407 3.023438-7.589844 3.023438-11.65625v-3.855469c0-13.230469-10.769531-24-24-24-14.441406 0-21.574219 11.414062-26.792969 19.761719-5.328125 8.511719-8.183593 12.238281-13.230469 12.238281-5.046874 0-7.90625-3.726562-13.222656-12.238281-5.21875-8.335938-12.363281-19.761719-26.800781-19.761719-14.433594 0-21.5625 11.414062-26.777344 19.761719-5.320312 8.511719-8.175781 12.238281-13.214843 12.238281-5.03125 0-7.882813-3.726562-13.191407-12.238281-5.21875-8.335938-12.34375-19.761719-26.769531-19.761719-13.230469 0-24 10.769531-24 24v3.855469c0 4.066406 1.046875 8.089843 3.023438 11.65625l4.710937 8.488281h-151.734375v160h104.894531c-.582031 4.953125-.894531 9.953125-.894531 15 0 48.625 27.054688 91.015625 66.886719 113h-66.886719v8c0 12.792969 3.375 25.257812 9.703125 35.976562 12.738281 22.214844 36.609375 36.023438 62.296875 36.023438h31.3125c-1.648438 10.296875-6.425781 19.800781-13.9375 27.3125l-4.6875 4.6875h-12.6875c-22.054688 0-40 17.945312-40 40v8h224v-8c0-22.054688-17.945312-40-40-40h-12.6875l-4.6875-4.6875c-7.511719-7.511719-12.28125-17.015625-13.9375-27.3125h31.3125c19.167969 0 37.246094-7.472656 50.9375-21.0625 4.511719-4.511719 8.335938-9.539062 11.359375-14.945312l.054687.03125c6.3125-10.855469 9.648438-23.304688 9.648438-36.023438v-8h-66.886719c17.640625-9.734375 32.75-23.480469 44.132813-40zm110.753906-144v128h-101.449219c8.527344-17.214844 13.449219-36.519531 13.449219-57 0-25.585938-7.648438-50.191406-21.367188-71zm-320-128c0-4.40625 3.585938-8 8-8 5.023438 0 7.871094 3.726562 13.183594 12.230469 5.214844 8.34375 12.34375 19.769531 26.777344 19.769531 14.4375 0 21.566406-11.425781 26.78125-19.761719 5.320312-8.511719 8.179687-12.238281 13.210937-12.238281 5.046875 0 7.902344 3.726562 13.230469 12.238281 5.214844 8.347657 12.351562 19.761719 26.792968 19.761719 14.4375 0 21.582032-11.425781 26.800782-19.761719 5.320312-8.511719 8.175781-12.238281 13.222656-12.238281 4.414062 0 8 3.59375 8 8v3.855469c0 1.351562-.351562 2.695312-1.007812 3.878906l-35.695313 64.265625h-102.59375l-35.695313-64.257812c-.65625-1.191407-1.007812-2.535157-1.007812-3.886719zm-144 168v-128h144.625l20.878906 37.585938-9.808594 6.863281c-7.597656-16.914063-24.550781-28.449219-43.695312-28.449219-26.472656 0-48 21.527344-48 48 0 21.527344 14.246094 39.785156 33.800781 45.855469-2.425781 5.878906-4.472656 11.9375-6.015625 18.144531zm104.976562-32.832031c-14.273437-3.214844-24.976562-15.945313-24.976562-31.167969 0-17.648438 14.351562-32 32-32 13.847656 0 25.960938 9.03125 30.265625 21.886719-15.503906 11.023437-28.121094 25.183593-37.289063 41.28125zm221.65625 320.832031h-189.265624c3.304687-9.3125 12.199218-16 22.632812-16h144c10.433594 0 19.328125 6.6875 22.632812 16zm-57.039062-32h-75.1875c7.160156-9.335938 11.65625-20.304688 13.066406-32h49.0625c1.410156 11.695312 5.898438 22.664062 13.058594 32zm89.839844-96c-1.007813 7.0625-3.34375 13.847656-6.90625 19.976562l8.65625 5.03125-8.816406-4.894531c-2.304688 4.152344-5.246094 8.023438-8.71875 11.496094-10.65625 10.566406-24.738282 16.390625-39.648438 16.390625h-144c-19.96875 0-38.519531-10.71875-48.472656-28.0625-3.589844-6.089844-5.941406-12.867188-6.960938-19.9375zm-112.433594-16h-30c-62.304688 0-113-50.695312-113-113 0-36.839844 18.015625-71.449219 48.191406-92.574219l26.328125-18.425781h106.953125l26.328125 18.425781c30.183594 21.125 48.199219 55.734375 48.199219 92.574219 0 62.304688-50.695312 113-113 113zm0 0"/><path d="m248 176c13.230469 0 24 10.769531 24 24h16c0-19.3125-13.769531-35.472656-32-39.191406v-16.808594h-16v16.808594c-18.230469 3.71875-32 19.871094-32 39.191406 0 22.054688 17.945312 40 40 40 13.230469 0 24 10.769531 24 24s-10.769531 24-24 24-24-10.769531-24-24h-16c0 19.3125 13.769531 35.472656 32 39.191406v16.808594h16v-16.808594c18.230469-3.71875 32-19.871094 32-39.191406 0-22.054688-17.945312-40-40-40-13.230469 0-24-10.769531-24-24s10.769531-24 24-24zm0 0"/></svg>