<svg height="496pt" viewBox="-1 0 495 496" width="496pt" xmlns="http://www.w3.org/2000/svg"><path d="m494.386719 384h-94.941407v-64h-72.234374v16h56.234374v80h-272v-80h56.222657v-16h-72.222657v64h-94.945312l37.328125 56-37.328125 56h190.945312v-64h112v64h190.941407l-37.328125-56zm-437.328125 56-26.671875-40h65.058593v27.839844l65.191407 52.160156h-130.25zm118.386718 31.351562-49.191406-39.351562h49.191406zm193.191407-39.351562-49.191407 39.351562v-39.351562zm95.863281 48h-130.238281l65.183593-52.160156v-27.839844h65.054688l-26.671875 40zm0 0"/><path d="m319.445312 384h16v16h-16zm0 0"/><path d="m335.445312 368h16v16h-16zm0 0"/><path d="m303.445312 368h16v16h-16zm0 0"/><path d="m159.445312 384h16v16h-16zm0 0"/><path d="m175.445312 368h16v16h-16zm0 0"/><path d="m143.445312 368h16v16h-16zm0 0"/><path d="m319.445312 352h16v16h-16zm0 0"/><path d="m159.445312 352h16v16h-16zm0 0"/><path d="m423.445312 80c-39.707031 0-72-32.296875-72-72v-8h-208v8c0 39.703125-32.296874 72-72 72h-8v69.121094c0 107.519531 76.78125 199.519531 182.566407 218.75l1.433593.265625 1.429688-.265625c105.785156-19.230469 182.570312-111.230469 182.570312-218.75v-69.121094zm-176 232c-70.699218 0-128-57.304688-128-128s57.300782-128 128-128c70.695313 0 128 57.304688 128 128s-57.304687 128-128 128zm0 0" fill="#f0bc5e"/><path d="m217.019531 247.929688c-1.839843 0-3.710937-.480469-5.597656-1.578126-9.386719-5.421874-5.691406-17.726562-2.121094-29.625 1.109375-3.6875 2.855469-9.519531 3.128907-12.445312-2.617188-1.160156-8.289063-2.480469-11.890626-3.320312-12.335937-2.882813-25.09375-5.847657-25.09375-16.960938s12.757813-14.089844 25.09375-16.960938c3.601563-.839843 9.273438-2.160156 11.890626-3.320312-.257813-2.925781-2.019532-8.757812-3.128907-12.453125-3.570312-11.898437-7.257812-24.195313 2.121094-29.617187 9.167969-5.34375 17.839844 3.816406 26.207031 12.671874 2.832032 3 7.351563 7.792969 9.816406 9.351563 2.460938-1.558594 6.992188-6.359375 9.824219-9.351563 8.351563-8.847656 16.984375-18.023437 26.199219-12.671874 9.382812 5.421874 5.6875 17.726562 2.121094 29.625-1.113282 3.6875-2.859375 9.519531-3.128906 12.445312 2.613281 1.160156 8.285156 2.480469 11.886718 3.320312 12.335938 2.882813 25.097656 5.847657 25.097656 16.960938s-12.761718 14.089844-25.097656 16.960938c-3.601562.839843-9.273437 2.160156-11.886718 3.320312.253906 2.925781 2.015624 8.757812 3.128906 12.453125 3.566406 11.898437 7.253906 24.195313-2.121094 29.617187-9.175781 5.328126-17.847656-3.816406-26.207031-12.671874-2.832031-3-7.355469-7.792969-9.816407-9.351563-2.464843 1.558594-6.992187 6.359375-9.824218 9.351563-6.640625 7.023437-13.457032 14.25-20.601563 14.25zm-18.542969-63.929688c2.015626.511719 4.054688.992188 5.6875 1.367188 10.136719 2.359374 18.878907 4.402343 22.480469 10.609374 3.6875 6.375 1.046875 15.167969-2.007812 25.34375-.359375 1.183594-.785157 2.589844-1.191407 4.054688.917969-.960938 1.808594-1.886719 2.550782-2.6875 7.441406-7.878906 13.871094-14.6875 21.449218-14.6875 7.574219 0 14.007813 6.808594 21.445313 14.6875.761719.800781 1.632813 1.726562 2.5625 2.6875-.425781-1.464844-.832031-2.863281-1.191406-4.046875-3.058594-10.175781-5.699219-18.976563-2.019531-25.34375 3.601562-6.214844 12.355468-8.257813 22.488281-10.617187 1.632812-.382813 3.671875-.855469 5.691406-1.375-2.019531-.511719-4.058594-.992188-5.691406-1.367188-10.132813-2.359375-18.878907-4.402344-22.476563-10.609375-3.691406-6.375-1.050781-15.167969 2.007813-25.34375.359375-1.183594.78125-2.59375 1.191406-4.054687-.921875.957031-1.808594 1.886718-2.554687 2.6875-7.445313 7.886718-13.878907 14.695312-21.453126 14.695312-7.578124 0-14.007812-6.808594-21.449218-14.6875-.761719-.800781-1.632813-1.726562-2.558594-2.6875.421875 1.464844.832031 2.863281 1.191406 4.046875 3.054688 10.175781 5.695313 18.976563 2.015625 25.34375-3.601562 6.214844-12.351562 8.257813-22.488281 10.617187-1.625.375-3.664062.847657-5.679688 1.367188zm0 0"/><path d="m247.445312 320c-74.992187 0-136-61.007812-136-136s61.007813-136 136-136c74.992188 0 136 61.007812 136 136s-61.007812 136-136 136zm0-256c-66.167968 0-120 53.832031-120 120s53.832032 120 120 120c66.167969 0 120-53.832031 120-120s-53.832031-120-120-120zm0 0"/><path d="m247.445312 288c-53.699218 0-99.191406-41.921875-103.578124-95.433594l15.953124-1.300781c3.703126 45.269531 42.191407 80.734375 87.625 80.734375 45.429688 0 83.917969-35.464844 87.621094-80.734375l15.953125 1.300781c-4.382812 53.511719-49.878906 95.433594-103.574219 95.433594zm0 0"/><path d="m335.066406 176.734375c-3.703125-45.269531-42.191406-80.734375-87.621094-80.734375-45.433593 0-83.921874 35.464844-87.625 80.734375l-15.953124-1.300781c4.386718-53.511719 49.878906-95.433594 103.578124-95.433594 53.695313 0 99.191407 41.921875 103.574219 95.433594zm0 0"/></svg>