<svg id="Capa_1" enable-background="new 0 0 511.191 511.191" height="512" viewBox="0 0 511.191 511.191" width="512" xmlns="http://www.w3.org/2000/svg"><path d="m364.095 277.115-10.24-10.12-291.4 168.25v15.28c0 6.46 5.24 11.7 11.7 11.7h128.63c2.14 0 4.2-.85 5.72-2.37l14.45-14.46c1.08-1.07 1.08-2.81 0-3.88l-3.33-3.33 25.8-25.81.84.84c2.29 2.29 6 2.29 8.29 0l16.34-16.34c2.29-2.29 2.29-6 0-8.29l-3.48-3.48 25.52-25.51 2.29 2.29c2.29 2.29 6 2.29 8.29 0l16.93-16.92c2.28-2.29 2.28-6.01 0-8.3l-2.88-2.87 19.26-19.27 3 3.01c2.29 2.29 6 2.29 8.29 0l16.26-16.85c6.38-6.61 6.26-17.12-.28-23.57z" fill="#acacac"/><path d="m154.274 205.044-144.402-142.489c-5.052-4.985-1.522-13.589 5.576-13.589h147.557l65.639 99.006 8.655 15.353-55.886 67.68z" fill="#fed2a4"/><path d="m180.058 179.282-132.066-130.316h-32.545c-7.098 0-10.628 8.604-5.576 13.589l144.403 142.489 27.139 25.961 23.264-28.173z" fill="#ffbd86"/><path d="m194.771 259.971-41.292-46.652c-2.184-2.468-1.819-6.269.796-8.276l74.369-57.072c2.275-1.746 5.494-1.523 7.507.519l55.721 56.522 12.898 12.897-81.817 81.817z" fill="#ebebeb"/><path d="m304.77 217.91-12.897-12.897-15.445-15.667c-4.032 2.622-7.169 6.507-8.875 11.213-4.111 11.4-11.927 21.217-21.231 28.806-13.798 11.256-34.084 9.388-45.771-4.048l-26.896-30.922c-.814-.92-1.273-2.026-1.394-3.154l-17.887 13.727c-2.668 2.047-3.041 5.927-.812 8.445l28.159 31.814 13.05 14.744 28.182 39.755 19.657-19.657-3.565-5.029c4.755-1.338 9.31-3.022 13.649-5.055z" fill="#cecece"/><path d="m312.725 308.125 41.13-41.13-34.99-34.99-26.99-26.99c-2.33-2.33-6.27-1.44-7.39 1.65-10.54 29.23-29.07 47.24-56.65 52.55-9.85 1.9-20.86 2.17-33.06.76-2.97-.35-5.78 1.38-6.76 4.2l-30.87 88.42-9.324 26.725c-.902 2.584-3.339 4.315-6.076 4.315h-49.37c-16.524 0-29.92 13.396-29.92 29.92v21.69h123.15l27.52-27.52 99.6-99.59" fill="#fe646f"/><path d="m180.409 379.32 9.324-26.725 30.87-88.42c.98-2.82 3.79-4.55 6.76-4.2 12.2 1.41 23.21 1.14 33.06-.76 22.045-4.244 38.302-16.611 49.324-36.327l-17.873-17.873c-2.33-2.33-6.27-1.44-7.39 1.65-10.54 29.23-29.07 47.24-56.65 52.55-9.85 1.9-20.86 2.17-33.06.76-2.97-.35-5.78 1.38-6.76 4.2l-30.87 88.42-9.324 26.725c-.902 2.584-3.339 4.315-6.076 4.315h32.588c2.738 0 5.175-1.731 6.077-4.315z" fill="#fd4755"/><path d="m124.963 383.635h-32.588c-16.524 0-29.92 13.396-29.92 29.92v21.69h32.588v-21.69c0-16.524 13.396-29.92 29.92-29.92z" fill="#fd4755"/><path d="m353.855 266.995-41.13 41.13-14.35-15.07c-3.94-4.15-6.45-9.15-7.51-14.38-1.91-9.36.77-19.45 8.01-26.69l19.99-19.98z" fill="#ffd3d6"/><path d="m312.725 308.125v.01l-99.6 99.59 1.68-18.83c2.18-24.49 13-47.4 30.51-64.65l45.55-45.57c1.06 5.23 3.57 10.23 7.51 14.38z" fill="#fd8087"/><path d="m227.835 259.215-22.28 72.14c-4.08 12.82-15.98 21.53-29.44 21.53h-18.15l-.82-.29 30.87-88.42c.98-2.82 3.79-4.55 6.76-4.2 12.2 1.41 23.21 1.14 33.06-.76z" fill="#ffd3d6"/><g fill="#ebebeb"><path d="m193.014 290.926h-14.926c-4.142 0-7.5-3.358-7.5-7.5s3.358-7.5 7.5-7.5h14.926c4.142 0 7.5 3.358 7.5 7.5s-3.358 7.5-7.5 7.5z"/><path d="m187.365 312.101h-14.927c-4.142 0-7.5-3.358-7.5-7.5s3.358-7.5 7.5-7.5h14.927c4.142 0 7.5 3.358 7.5 7.5s-3.358 7.5-7.5 7.5z"/><path d="m181.365 333.048h-14.927c-4.142 0-7.5-3.358-7.5-7.5s3.358-7.5 7.5-7.5h14.927c4.142 0 7.5 3.358 7.5 7.5s-3.358 7.5-7.5 7.5z"/></g><path d="m251.559 164.12-15.408-15.63c-2.013-2.042-5.233-2.265-7.508-.519l-74.369 57.072c-2.614 2.006-2.98 5.808-.796 8.276l14.798 16.719 1.81-1.773 78.316-61.563z" fill="#bfbfbf"/><path d="m173.655 194.396c-.814-.92-1.273-2.026-1.394-3.154l-17.887 13.727c-2.667 2.047-3.04 5.926-.812 8.444l3.409 3.852 11.307 12.775 1.81-1.772 19.616-15.42z" fill="#acacac"/><path d="m275.065 56.466h28.796c4.143 0 7.5-3.358 7.5-7.5s-3.357-7.5-7.5-7.5h-28.796c-4.143 0-7.5 3.358-7.5 7.5s3.357 7.5 7.5 7.5z"/><path d="m425.462 360.41h-91.508c-4.143 0-7.5 3.358-7.5 7.5s3.357 7.5 7.5 7.5h91.508c4.143 0 7.5-3.358 7.5-7.5s-3.357-7.5-7.5-7.5z"/><path d="m291.872 410.012c-4.143 0-7.5 3.358-7.5 7.5s3.357 7.5 7.5 7.5h91.045c4.143 0 7.5-3.358 7.5-7.5s-3.357-7.5-7.5-7.5z"/><path d="m503.691 297.101h-128.532c2.999-8.591 1.066-18.551-5.792-25.325l-10.205-10.08s0 0-.001-.001l-49.152-49.152h102.685c4.143 0 7.5-3.358 7.5-7.5s-3.357-7.5-7.5-7.5h-117.654l-53.548-54.317c-2.608-2.646-6.101-3.971-9.595-3.919l-16.216-24.46c-2.289-3.453-6.943-4.395-10.396-2.106-3.452 2.289-4.396 6.943-2.106 10.396l15.346 23.147-63.634 48.833-139.751-137.9c-.122-.12-.209-.207-.098-.479.112-.272.235-.272.406-.272h140.232 3.298l27.615 41.652c2.289 3.453 6.944 4.395 10.395 2.107 3.453-2.289 4.396-6.943 2.107-10.395l-22.12-33.364h68.089c4.142 0 7.5-3.358 7.5-7.5s-3.358-7.5-7.5-7.5h-82.06-7.324-140.232c-6.289 0-11.896 3.76-14.283 9.578-2.387 5.818-1.038 12.433 3.439 16.85l140.352 138.492c-.156.625-.282 1.259-.345 1.906-.349 3.626.836 7.271 3.251 10l35.087 39.642c-.841 1.121-1.532 2.38-2.017 3.768l-4.965 14.226h-5.88c-4.142 0-7.5 3.358-7.5 7.5s3.358 7.5 7.5 7.5h.645l-2.155 6.175h-4.139c-4.142 0-7.5 3.358-7.5 7.5 0 3.779 2.798 6.896 6.433 7.415l-2.105 6.031h-2.828c-4.142 0-7.5 3.358-7.5 7.5 0 3.346 2.192 6.177 5.217 7.143l-15.165 43.449h-48.615c-20.634 0-37.422 16.788-37.422 37.422v21.686 15.275c0 10.588 8.614 19.202 19.201 19.202h331.6c4.143 0 7.5-3.358 7.5-7.5s-3.357-7.5-7.5-7.5h-181.513l4.022-4.022c3.313-3.313 3.878-8.351 1.696-12.252l16.591-16.591c4.561 1.367 9.715.255 13.312-3.342l16.34-16.34c4.585-4.585 5.134-11.703 1.647-16.895l15.568-15.569c1.826.91 3.852 1.391 5.951 1.391 3.568 0 6.924-1.39 9.449-3.914l16.925-16.926c2.524-2.524 3.915-5.88 3.915-9.45 0-2.396-.627-4.696-1.802-6.712l9.247-9.247c2.054 1.234 4.409 1.893 6.867 1.893 3.569 0 6.926-1.39 9.449-3.915.031-.031.063-.063.093-.094l10.297-10.667c.186.014.372.028.562.028h139.32c4.143 0 7.5-3.358 7.5-7.5s-3.357-7.501-7.499-7.501zm-253.111 32.488 37.79-37.215c1.301 2.056 2.824 4.019 4.573 5.855l9.305 9.773-79.772 79.772c2.379-22.018 12.301-42.623 28.104-58.185zm62.277-32.196-9.051-9.507c-8.266-8.682-8.101-22.122.376-30.598l14.679-14.679 24.39 24.39zm-114.413-44.587-19.464-21.991 72.001-56.598 27.448 27.842c-.387.651-.735 1.331-.998 2.061-13.172 36.527-39.033 52.467-78.987 48.686zm33.492-97.907 8.448 8.569-71.362 56.096-8.636-9.757zm-52.707 157.202h8.136c4.142 0 7.5-3.358 7.5-7.5s-3.358-7.5-7.5-7.5h-2.901l2.155-6.175h6.394c4.142 0 7.5-3.358 7.5-7.5s-3.358-7.5-7.5-7.5h-1.159l2.933-8.405c5.158.567 10.134.85 14.932.85 2.758 0 5.449-.105 8.087-.292l-19.397 61c-3.102 9.754-12.062 16.308-22.297 16.308h-8.501l4.307-12.339h9.447c4.142 0 7.5-3.358 7.5-7.5s-3.358-7.5-7.5-7.5h-4.211zm164.72-1.052-1.822-1.823c-2.93-2.929-7.679-2.929-10.606 0l-19.262 19.261c-1.407 1.406-2.197 3.314-2.197 5.303s.79 3.897 2.196 5.303l1.722 1.722-14.61 14.611-1.136-1.135c-2.93-2.929-7.677-2.928-10.606 0l-25.511 25.511c-2.929 2.929-2.929 7.678 0 10.606l2.321 2.321-14.034 14.034c-1.368-1.213-3.137-1.888-4.976-1.888-1.989 0-3.897.79-5.303 2.197l-25.804 25.804c-2.92 2.92-2.929 7.65-.025 10.581l-11.094 11.095c-.11.109-.261.172-.416.172h-128.631c-2.316 0-4.201-1.885-4.201-4.202v-7.775h36.295c4.142 0 7.5-3.358 7.5-7.5s-3.358-7.5-7.5-7.5h-36.295v-14.186c0-12.363 10.059-22.422 22.422-22.422h53.941 23.299c4.142 0 7.5-3.358 7.5-7.5s-3.358-7.5-7.5-7.5h-12.738l5.498-15.753h13.737c16.797 0 31.502-10.755 36.592-26.762l21.669-68.145c25.633-6.467 44.224-23.8 55.491-51.867l18.389 18.389-14.679 14.68c-8.267 8.266-11.831 19.334-10.674 30.028-.013.013-.028.024-.041.037l-42.806 42.155c-15.846 15.606-26.572 35.601-30.938 57.239h-10.406c-4.142 0-7.5 3.358-7.5 7.5s3.358 7.5 7.5 7.5h8.367l-1.177 13.21-23.398 23.398h-46.253c-4.142 0-7.5 3.358-7.5 7.5s3.358 7.5 7.5 7.5h49.36c1.989 0 3.897-.79 5.303-2.197l162.979-162.979 4.936 4.875c3.593 3.549 3.663 9.393.155 13.026z"/><path d="m375.208 253.506c0 4.142 3.357 7.5 7.5 7.5h67.384c4.143 0 7.5-3.358 7.5-7.5s-3.357-7.5-7.5-7.5h-67.384c-4.142 0-7.5 3.357-7.5 7.5z"/></svg>