<svg id="Capa_1" enable-background="new 0 0 512.23 512.23" height="512" viewBox="0 0 512.23 512.23" width="512" xmlns="http://www.w3.org/2000/svg"><path d="m404.143 392.418-12.639-15.381c-4.93-6-7.625-13.525-7.625-21.29 0-8.894 3.533-17.424 9.822-23.713v-13.892h-40.651-5.208-40.651v13.892c6.289 6.289 9.822 14.819 9.822 23.713 0 7.766-2.695 15.29-7.625 21.29l-12.639 15.381c-7.54 9.175-11.661 20.683-11.661 32.558v18.482h62.754 5.208 62.754v-18.482c-.001-11.876-4.122-23.383-11.661-32.558z" fill="#fef1da"/><path d="m349.338 415.94h-10.394l11.101-14.692c4.139-5.478 6.378-12.156 6.378-19.022 0-7.443-2.631-14.647-7.429-20.338l-36.878-43.747h-4.926v13.892c6.289 6.289 9.822 14.819 9.822 23.713 0 7.766-2.695 15.29-7.625 21.29l-12.639 15.381c-7.54 9.175-11.661 20.683-11.661 32.558v18.482h62.754 5.208 11.226v-12.58c0-8.249-6.687-14.937-14.937-14.937z" fill="#fddeb0"/><path d="m345.636 331.277 16.268.228c7.584.106 13.807-5.857 14.124-13.364h-22.978-5.208-15.928c.423 7.25 6.367 13.033 13.722 13.136z" fill="#838383"/><path d="m97 443.458v-18.482c0-11.875 4.121-23.383 11.661-32.558l12.639-15.381c4.93-6 7.625-13.525 7.625-21.29 0-8.894-3.533-17.424-9.822-23.713v-13.892h92.632v125.317h-114.735z" fill="#fef1da"/><path d="m148.028 392.418 12.639-15.381c4.93-6 7.625-13.525 7.625-21.29 0-8.894-3.533-17.424-9.822-23.713v-13.892h-39.367v13.892c6.289 6.289 9.822 14.819 9.822 23.713 0 7.766-2.695 15.29-7.625 21.29l-12.639 15.381c-7.54 9.175-11.661 20.682-11.661 32.558v18.482h39.367v-18.482c0-11.876 4.121-23.383 11.661-32.558z" fill="#fddeb0"/><path d="m81.668 463.332v-10.866c0-7.184 5.824-13.008 13.008-13.008h50.651 48.407v38.372h-112.066z" fill="#fddeb0"/><path d="m200.99 289.307c-1.719 0-102.519 0-102.519 0v14.941 22.716c0 2.799 2.269 5.069 5.069 5.069h46.196 51.254z" fill="#fddeb0"/><path d="m134.073 452.466c0-7.184 5.824-13.008 13.009-13.008h-1.755-50.651c-7.184 0-13.008 5.824-13.008 13.008v10.866 14.497h52.405v-14.497z" fill="#fccd7f"/><path d="m150.876 326.964v-22.716-14.941c-26.008 0-52.405 0-52.405 0v14.941 22.716c0 2.799 2.269 5.069 5.069 5.069h46.196 6.209c-2.8 0-5.069-2.269-5.069-5.069z" fill="#fccd7f"/><path d="m197.692 260.854v10.378c0 2.035-1.65 3.685-3.685 3.685h-20.695c-2.035 0-3.685-1.65-3.685-3.685v-10.042c0-1.531-1.241-2.772-2.772-2.772h-1.431-21.267c-1.432 0-2.593 1.161-2.593 2.593v9.83c0 2.25-1.824 4.075-4.075 4.075h-19.914c-2.251 0-4.075-1.824-4.075-4.075v-9.83c0-1.432-1.161-2.593-2.593-2.593h-24.631c-1.432 0-2.593 1.161-2.593 2.593v38.079c0 2.799 2.269 5.069 5.069 5.069h71.673 57.565v-45.741h-17.861c-1.346 0-2.437 1.09-2.437 2.436z" fill="#fef1da"/><path d="m139.661 299.09v-24.812c-.63.399-1.371.638-2.172.638h-19.914c-2.25 0-4.075-1.824-4.075-4.075v-9.83c0-1.432-1.161-2.593-2.593-2.593h-24.631c-1.432 0-2.593 1.161-2.593 2.593v38.079c0 2.799 2.269 5.069 5.069 5.069h55.979c-2.801 0-5.07-2.27-5.07-5.069z" fill="#fddeb0"/><path d="m162.933 504.73h-90.726c-1.695 0-3.069-1.374-3.069-3.069v-23.384c0-8.254 6.691-14.945 14.945-14.945h52.896 43.363v38.329c0 1.695-1.374 3.069-3.069 3.069z" fill="#fef1da"/><path d="m127.208 501.661v-23.384c0-8.254 6.691-14.945 14.945-14.945h-5.173-52.897c-8.254 0-14.945 6.691-14.945 14.945v23.384c0 1.695 1.374 3.069 3.069 3.069h58.069c-1.694 0-3.068-1.374-3.068-3.069z" fill="#fddeb0"/><path d="m431.135 463.332v-10.866c0-7.184-5.824-13.008-13.008-13.008h-50.651-48.407v38.372h112.066z" fill="#fddeb0"/><path d="m383.789 459.908c0-8.26-6.696-14.956-14.956-14.956h-4.557v-5.494h-45.207v38.372h64.72z" fill="#fccd7f"/><path d="m349.87 504.73h90.726c1.695 0 3.069-1.374 3.069-3.069v-23.384c0-8.254-6.691-14.945-14.945-14.945h-52.896-43.364v38.329c0 1.695 1.374 3.069 3.069 3.069z" fill="#fef1da"/><path d="m383.789 463.332h-7.966-43.363v38.329c0 1.695 1.374 3.069 3.069 3.069h14.341 33.919z" fill="#fddeb0"/><path d="m384.055 235.181-44.881-.333v47.304h40.369c13.094 0 24.305-10.71 24.222-23.804-.073-11.652-8.573-21.298-19.71-23.167z" fill="#fddeb0"/><path d="m384.055 235.181-44.881-.333v47.304h36.883v-21.297l18.026-21.414c-2.911-2.136-6.317-3.638-10.028-4.26z" fill="#fccd7f"/><path d="m329.855 315.511h81.569v-26.756c0-5.869-4.758-10.627-10.627-10.627h-70.943v37.383z" fill="#fef1da"/><path d="m329.855 278.129v11.846c1.32 2.672 2.017 5.622 2.017 8.628v16.909h44.184v-37.382h-46.201z" fill="#fddeb0"/><path d="m311.813 304.248v27.785h51.254 51.196c2.799 0 5.069-2.863 5.069-6.395v-11.837c0-5.276-4.277-9.553-9.553-9.553z" fill="#fddeb0"/><path d="m340.081 332.033h22.987 5.251c4.58-2.287 7.739-7.008 7.739-12.485v-15.299h-44.184v15.072c-.001 5.65 3.364 10.518 8.207 12.712z" fill="#fccd7f"/><path d="m185.209 117.273-19.77-23.14-7.55-5.34c-3.06-2.17-6.57-3.61-10.27-4.22l-12.35-2.04c-9.79-1.61-19.14 4.7-21.31 14.38-.31 1.38-.46 2.75-.46 4.11 0 8.51 5.85 16.21 14.49 18.22l11.63 2.7 14.181 14.484c.788.805 1.229 1.886 1.229 3.013v1.473h40.43v-3.727c0-.271-.066-.538-.192-.778z" fill="#ffbd86"/><path d="m248.219 140.11v1.802h-52.76v-5.14l-10.25-19.5-10.36-5.92c-6.05-3.45-9.44-9.77-9.44-16.27 0-.32.01-.64.03-.95.14-2.79.92-5.6 2.37-8.19 4.86-8.66 15.62-12.02 24.54-7.66l10.35 5.05c3.96 1.94 7.42 4.74 10.14 8.21l33.324 42.601c1.333 1.704 2.056 3.805 2.056 5.967z" fill="#ffbd86"/><path d="m389.381 10.173-10.522 104.739 4.88 19.09c5.58 21.84 2.46 44.99-8.7 64.58l-.01.01c-12.93 22.69-30.64 42.31-51.9 57.48-.39.28-.78.56-1.16.83-8.64 6.17-20.64 4.2-26.85-4.41l-.28-.38c-3.01-4.17-4.21-9.11-3.7-13.86.53-4.95 2.9-9.68 6.97-13.11 6.11-5.14 12.98-10.9 17.9-15.03 2.12-1.79 3.8-3.99 4.94-6.45 1.15-2.45 1.76-5.16 1.76-7.93 0-10.37-8.4-18.78-18.77-18.78-12.51-.01-28.29-.01-40.94-.01s-22.18 0-22.18 0c-10.45 0-18.93 8.48-18.93 18.94v5.52c0 4.84 1.85 9.5 5.17 13.01l6.81 7.21c4.26 4.51 5.45 10.82 3.61 16.33l.56 2.58c-6.38 2.09-12.25 5.56-17.17 10.17l-1.12-1.8c-2.48-.36-4.91-1.29-7.08-2.82-5.04-3.57-11.22-7.93-17.28-12.22-15.73-11.12-25.08-29.19-25.08-48.46v-6.39l-17.27.19h-31.66l-15.01 12.17c-3.76 3.04-8.28 4.53-12.79 4.53-5.61 0-11.18-2.31-15.19-6.81-7.8-8.77-6.57-22.3 2.67-29.52l15.34-11.98c8.02-6.27 17.91-9.68 28.1-9.68h30.53 40.43 52.76 2.71c9.566 0 17.32-7.754 17.32-17.32v-73.93c-8.8-8.81-13.75-20.75-13.75-33.21v-4.485c0-1.358 1.106-2.456 2.464-2.446l130.002.962c1.441.01 2.56 1.257 2.416 2.69z" fill="#fed2a4"/><g fill="#ffbd86"><path d="m103.609 189.093c-7.8-8.77-6.57-22.3 2.67-29.52l15.34-11.98c8.02-6.27 17.91-9.68 28.1-9.68h-25.219c-10.19 0-20.08 3.41-28.1 9.68l-15.34 11.98c-9.24 7.22-10.47 20.75-2.67 29.52 4.01 4.5 9.58 6.81 15.19 6.81 4.443 0 8.892-1.454 12.619-4.404-.913-.723-1.79-1.508-2.59-2.406z"/><path d="m250.929 137.913h22.51 2.71c9.566 0 17.32-7.754 17.32-17.32v-67.748c0-3.773-1.364-7.384-3.696-10.35-6.477-8.237-10.054-18.452-10.054-29.043v-4.485c0-1.027.634-1.904 1.531-2.266l-24.286-.18c-1.358-.01-2.464 1.088-2.464 2.446v4.486c0 12.46 4.95 24.4 13.75 33.21v73.93c0 9.565-7.755 17.32-17.321 17.32z"/><path d="m320.339 252.493-.28-.38c-3.01-4.17-4.21-9.11-3.7-13.86.53-4.95 2.9-9.68 6.97-13.11 6.11-5.14 12.98-10.9 17.9-15.03 2.12-1.79 3.8-3.99 4.94-6.45 1.15-2.45 1.76-5.16 1.76-7.93 0-10.37-8.4-18.78-18.77-18.78-12.51-.01-28.29-.01-40.94-.01-9.356 0-16.992 0-20.342 0 11.666 0 25.116.001 36.062.01 10.37 0 18.77 8.41 18.77 18.78 0 2.77-.61 5.48-1.76 7.93-1.14 2.46-2.82 4.66-4.94 6.45-4.92 4.13-11.79 9.89-17.9 15.03-4.07 3.43-6.44 8.16-6.97 13.11-.51 4.75.69 9.69 3.7 13.86l.28.38c6.21 8.61 18.21 10.58 26.85 4.41.38-.27.77-.55 1.16-.83.106-.075.208-.155.314-.23-1.137-.976-2.189-2.082-3.104-3.35z"/><path d="m220.609 233.863c-15.73-11.12-25.08-29.19-25.08-48.46 0-3.518-2.872-6.358-6.39-6.32l-10.88.12h-7.949v6.2c0 19.27 9.35 37.34 25.08 48.46 6.06 4.29 12.24 8.65 17.28 12.22 2.17 1.53 4.6 2.46 7.08 2.82l1.12 1.8c3.571-3.346 7.647-6.082 12.051-8.135-3.887-2.748-8.124-5.741-12.312-8.705z"/></g><path d="m367.355 238.257h-22.948l-37.391 22.018-15.876-22.023h-38.78c-4.93 0-9.76.79-14.32 2.28-6.38 2.09-12.25 5.56-17.17 10.17-2.81 2.63-5.32 5.64-7.43 8.97l-21.58 34.07c-2.34 3.69-3.58 7.97-3.58 12.33v43.09c0 16.951 8.157 32.483 21.307 42.185v33.604 11.685h100.884v-11.685h.258l11.101-14.692c4.139-5.478 6.378-12.156 6.378-19.022 0-7.443-2.631-14.647-7.429-20.338l-48.475-57.504c-1.414-1.677-2.189-3.799-2.189-5.993v-20.049c0-5.894 4.778-10.672 10.672-10.672 3.489 0 6.758 1.706 8.753 4.567l10.616 15.223c2.279 3.268 3.501 7.157 3.501 11.141v18.717c0 7.633 6.131 13.85 13.763 13.957l16.268.228c7.785.109 14.154-6.172 14.154-13.957v-56.693l22.039-26.181c1.808-2.145.282-5.426-2.526-5.426z" fill="#838383"/><path d="m280.35 391.276h-33.033c-3.845 0-7.563-1.446-10.352-4.093-10.207-9.688-16.343-23.32-16.343-38.02v-43.09c0-4.36 1.24-8.64 3.58-12.33l21.58-34.07c2.11-3.33 4.62-6.34 7.43-8.97 4.92-4.61 10.79-8.08 17.17-10.17 4.56-1.49 9.39-2.28 14.32-2.28h-32.342c-4.93 0-9.76.79-14.32 2.28-6.38 2.09-12.25 5.56-17.17 10.17-2.81 2.63-5.32 5.64-7.43 8.97l-21.58 34.07c-2.34 3.69-3.58 7.97-3.58 12.33v43.09c0 16.951 8.157 32.483 21.307 42.185v33.604 11.685h32.342v-11.685-6.261c0-8.347 6.767-15.114 15.114-15.114h23.565c3.459 0 6.252-2.856 6.147-6.339-.101-3.367-3.038-5.962-6.405-5.962z" fill="#766e6e"/><path d="m336.06 456.963h-151.027v-17.074c0-8.25 6.688-14.937 14.937-14.937h121.153c8.25 0 14.937 6.688 14.937 14.937z" fill="#acacac"/><path d="m246.687 424.952h-46.717c-8.25 0-14.937 6.688-14.937 14.937v17.074h46.717v-17.074c0-8.249 6.687-14.937 14.937-14.937z" fill="#9e9797"/><path d="m352.505 504.73h-183.917c-1.695 0-3.069-1.374-3.069-3.069v-32.742c0-8.26 6.696-14.956 14.956-14.956h160.143c8.26 0 14.956 6.696 14.956 14.956v32.742c0 1.695-1.374 3.069-3.069 3.069z" fill="#838383"/><path d="m225.748 501.661v-32.742c0-8.26 6.696-14.956 14.956-14.956h-60.229c-8.26 0-14.956 6.696-14.956 14.956v32.742c0 1.695 1.374 3.069 3.069 3.069h60.229c-1.695 0-3.069-1.374-3.069-3.069z" fill="#766e6e"/><path d="m385.407 50.327c.258.026.513.039.766.039 3.802 0 7.062-2.88 7.453-6.744l3.483-34.365c.418-4.121-2.585-7.8-6.705-8.218-4.124-.411-7.801 2.585-8.219 6.706l-3.483 34.365c-.418 4.119 2.585 7.799 6.705 8.217z"/><path d="m476.289 497.23h-24.948v-18.953c0-8.818-5.114-16.461-12.529-20.129v-5.682c0-9.518-6.526-17.518-15.332-19.821v-7.67c0-13.576-4.747-26.83-13.366-37.319l-12.639-15.382c-3.817-4.645-5.92-10.515-5.92-16.528 0-5.965 1.998-11.62 5.668-16.213h17.217c6.931 0 12.568-5.638 12.568-12.569v-19.128c0-5.071-3.426-9.349-8.083-10.663v-6.308c0-8.082-4.774-15.052-11.64-18.293 2.524-4.127 3.98-8.973 3.98-14.155 0-8.524-3.881-16.394-10.647-21.59-3.286-2.523-7.994-1.904-10.517 1.38-2.522 3.285-1.905 7.994 1.38 10.517 3.04 2.335 4.784 5.868 4.784 9.694 0 6.733-5.478 12.211-12.211 12.211h-8.392c-4.143 0-7.5 3.358-7.5 7.5s3.357 7.5 7.5 7.5h23.025c2.888 0 5.236 2.349 5.236 5.236v5.883h-22.063c-4.143 0-7.5 3.358-7.5 7.5s3.357 7.5 7.5 7.5h30.146v12.785h-39.876c-4.143 0-7.5 3.358-7.5 7.5s3.357 7.5 7.5 7.5h7.75c-2.175 5.055-3.325 10.544-3.325 16.213 0 9.478 3.313 18.73 9.33 26.051l12.639 15.381c6.42 7.813 9.956 17.686 9.956 27.797v6.982h-33.827c-4.143 0-7.5 3.358-7.5 7.5s3.357 7.5 7.5 7.5h43.65c3.037 0 5.509 2.471 5.509 5.509v3.366h-40.813c-4.143 0-7.5 3.358-7.5 7.5s3.357 7.5 7.5 7.5h45.896c4.105 0 7.445 3.34 7.445 7.445v18.953h-73.267v-28.311c0-11.385-8.518-20.811-19.514-22.258v-6.773c0-10.883-7.791-19.978-18.087-22.01l2.341-3.098c5.09-6.738 7.894-15.099 7.894-23.543 0-9.199-3.265-18.138-9.193-25.172l-16.632-19.729c2.313.903 4.818 1.415 7.432 1.452l16.27.228c5.799.09 11.244-2.112 15.366-6.177s6.392-9.491 6.392-15.279v-53.957l20.276-24.086c2.736-3.25 3.323-7.662 1.531-11.514-1.793-3.853-5.546-6.246-9.795-6.246h-5.768c7.519-8.86 14.229-18.398 19.957-28.447.012-.02.024-.042.037-.066 12.168-21.375 15.515-46.265 9.426-70.096l-4.548-17.801 4.128-40.727c.418-4.121-2.585-7.8-6.706-8.218-4.121-.417-7.8 2.584-8.218 6.706l-4.262 42.05c-.089.875-.022 1.76.195 2.613l4.877 19.09c5.126 20.06 2.302 41.014-7.951 59.002-.012.019-.023.042-.036.064-12.307 21.574-29.496 40.607-49.711 55.043l-1.163.83c-5.263 3.76-12.629 2.549-16.413-2.693l-.281-.389c-1.84-2.549-2.598-5.517-2.363-8.386.031-.212.052-.426.064-.643.398-2.943 1.856-5.737 4.32-7.808 6.11-5.137 12.972-10.898 17.892-15.029 5.961-5.004 9.379-12.339 9.379-20.124 0-14.49-11.786-26.28-26.272-26.282l-63.112-.003c-14.576 0-26.436 11.859-26.436 26.436v5.524c0 6.783 2.566 13.234 7.225 18.163l6.811 7.208c2.194 2.322 2.94 5.634 1.977 8.675-3.565 1.598-6.944 3.581-10.078 5.926-1.193-.239-2.311-.706-3.32-1.419l-17.281-12.218c-13.723-9.703-21.915-25.529-21.915-42.336v-6.388c0-2.003-.802-3.923-2.226-5.332-1.425-1.409-3.373-2.193-5.356-2.167l-17.185.188h-31.659c-1.72 0-3.387.591-4.723 1.673l-15.012 12.167c-5.335 4.324-13.087 3.692-17.651-1.439-2.379-2.675-3.512-6.111-3.188-9.676.322-3.565 2.054-6.743 4.875-8.947l15.338-11.982c6.673-5.213 15.011-8.084 23.478-8.084h126.437c13.686 0 24.82-11.134 24.82-24.82v-73.934c0-1.989-.79-3.897-2.197-5.304-7.452-7.452-11.557-17.361-11.557-27.9v-5.957c0-4.142-3.357-7.5-7.5-7.5s-7.5 3.358-7.5 7.5v5.957c0 13.475 4.861 26.203 13.754 36.181v70.958c0 4.831-3.51 8.849-8.113 9.661l-33.9-43.337c-3.394-4.336-7.802-7.906-12.749-10.323l-10.355-5.057c-12.419-6.065-27.43-1.422-34.27 10.56-3.771-2.49-8.078-4.196-12.534-4.93l-12.349-2.035c-13.705-2.255-26.812 6.588-29.848 20.136-3.14 14.002 5.68 28.033 19.659 31.276l9.493 2.202 1.632 1.666h-12.927c-11.798 0-23.415 4-32.712 11.264l-15.338 11.982c-6.033 4.714-9.89 11.791-10.58 19.416s1.832 15.278 6.921 20.998c5.492 6.176 13.113 9.348 20.788 9.347 6.162 0 12.36-2.046 17.516-6.224l12.947-10.494h29.083l9.703-.106c.381 21.222 10.87 41.109 28.236 53.389l17.285 12.22c.251.177.511.342.768.509-.698.957-1.37 1.938-2.01 2.948l-21.578 34.065c-3.102 4.896-4.741 10.549-4.741 16.347v10.957c0 4.142 3.357 7.5 7.5 7.5s7.5-3.358 7.5-7.5v-10.957c0-2.951.834-5.828 2.413-8.32l21.578-34.066c7.113-11.229 19.296-17.933 32.588-17.933h31.73c.742 3.777 2.283 7.447 4.661 10.74l.281.39c5.225 7.236 13.444 11.091 21.774 11.09 5.388 0 10.821-1.613 15.519-4.967l1.163-.831c6.99-4.991 13.643-10.492 19.901-16.423h10.943l-16.229 19.279c-1.139 1.352-1.763 3.063-1.763 4.83v56.693c0 1.742-.684 3.375-1.924 4.599-1.219 1.202-2.824 1.86-4.531 1.86-.031 0-.063 0-.093 0l-16.269-.228c-3.512-.049-6.368-2.946-6.368-6.458v-18.717c0-5.546-1.677-10.882-4.849-15.431l-10.615-15.222c-3.396-4.871-8.968-7.778-14.905-7.778-10.02 0-18.172 8.152-18.172 18.171v20.049c0 3.956 1.404 7.801 3.954 10.827l48.476 57.503c3.651 4.332 5.662 9.838 5.662 15.504 0 5.201-1.727 10.351-4.862 14.501l-8.85 11.713h-89.909v-13.221c1.38.591 2.788 1.138 4.226 1.63.805.275 1.623.406 2.429.406 3.117 0 6.03-1.96 7.096-5.074 1.34-3.919-.75-8.183-4.669-9.524-18.174-6.217-30.385-23.3-30.385-42.509v-2.127c0-4.142-3.357-7.5-7.5-7.5s-7.5 3.358-7.5 7.5v2.127c0 18.032 8.074 34.651 21.304 45.811v22.481h-2.117c-12.372 0-22.438 10.065-22.438 22.437v6.773c-10.996 1.446-19.514 10.873-19.514 22.258v28.311h-81.381v-18.953c0-4.105 3.34-7.445 7.445-7.445h52.896c4.143 0 7.5-3.358 7.5-7.5s-3.357-7.5-7.5-7.5h-47.812v-3.366c0-3.038 2.472-5.509 5.509-5.509h50.65c4.143 0 7.5-3.358 7.5-7.5s-3.357-7.5-7.5-7.5h-40.827v-6.982c0-10.111 3.536-19.983 9.956-27.797l12.639-15.381c6.017-7.322 9.33-16.574 9.33-26.052 0-5.669-1.151-11.158-3.325-16.213h16.637c4.143 0 7.5-3.358 7.5-7.5s-3.357-7.5-7.5-7.5h-43.765v-12.785h50.765c.375 0 .741-.037 1.102-.09h2.588c4.143 0 7.5-3.358 7.5-7.5s-3.357-7.5-7.5-7.5h-69.243v-30.741h14.816v4.923c0 6.382 5.192 11.575 11.575 11.575h19.915c6.382 0 11.574-5.192 11.574-11.575v-4.923h16.361c4.143 0 7.5-3.358 7.5-7.5s-3.357-7.5-7.5-7.5h-21.268c-5.565 0-10.094 4.528-10.094 10.093v6.405h-13.064v-6.405c0-5.565-4.527-10.093-10.093-10.093h-24.629c-5.565 0-10.093 4.528-10.093 10.093v38.079c0 6.931 5.638 12.569 12.568 12.569h2.22v15.306c0 6.931 5.638 12.569 12.568 12.569h12.217c3.67 4.593 5.668 10.248 5.668 16.213 0 6.013-2.103 11.883-5.92 16.529l-12.639 15.381c-8.619 10.49-13.366 23.744-13.366 37.319v7.67c-8.806 2.303-15.332 10.304-15.332 19.821v5.682c-7.416 3.668-12.529 11.311-12.529 20.129v18.953h-25.697c-4.143 0-7.5 3.358-7.5 7.5s3.357 7.5 7.5 7.5h440.349c4.143 0 7.5-3.358 7.5-7.5s-3.358-7.499-7.501-7.499zm-287.232-412.211 10.354 5.056c2.917 1.425 5.517 3.53 7.518 6.087l26.792 34.253h-33.127l-8.742-16.631c-.665-1.265-1.678-2.314-2.919-3.023l-10.363-5.919c-5.332-3.045-7.225-9.879-4.22-15.234 2.908-5.181 9.369-7.195 14.707-4.589zm-44.08 31.671c-1-1.021-2.271-1.735-3.663-2.059l-11.625-2.697c-5.982-1.388-9.757-7.391-8.413-13.383 1.299-5.797 6.902-9.587 12.771-8.616l12.349 2.035c2.563.422 5.039 1.439 7.159 2.94l4.567 3.233c.95 7.99 5.529 15.452 13.008 19.724l8.463 4.833 4.055 7.714h-25.23zm100.78 114.476c-.371-5.403-2.577-10.612-6.432-14.692l-6.812-7.208c-2.016-2.133-3.126-4.924-3.126-7.86v-5.524c0-6.306 5.13-11.436 11.436-11.436l63.11.003c6.217.001 11.274 5.062 11.274 11.282 0 3.341-1.467 6.489-4.023 8.636-4.922 4.131-11.785 9.896-17.898 15.035-3.711 3.119-6.388 7.059-7.981 11.356h-32.943c-2.227-.001-4.431.142-6.605.408zm32.283 77.397c-.273-.324-.424-.736-.424-1.16v-20.049c0-1.749 1.423-3.171 3.172-3.171 1.036 0 2.008.507 2.601 1.357l10.616 15.224c1.408 2.019 2.152 4.388 2.152 6.85v18.717c0 1.444.146 2.856.422 4.224zm-85.508 131.326c0-4.101 3.337-7.437 7.438-7.437h9.617 101.143 10.394c4.101 0 7.438 3.336 7.438 7.437v6.574h-136.03zm-19.513 29.03c0-4.111 3.345-7.457 7.456-7.457h4.558 151.028 4.557c4.112 0 7.457 3.345 7.457 7.457v28.311h-175.056z"/></svg>