<svg id="Capa_1" enable-background="new 0 0 511.003 511.003" height="512" viewBox="0 0 511.003 511.003" width="512" xmlns="http://www.w3.org/2000/svg"><circle cx="136.644" cy="256.502" fill="#fee903" r="128.021"/><path d="m101.555 256.502c0-54.313 33.824-100.721 81.555-119.322-14.405-5.614-30.075-8.699-46.466-8.699-70.704 0-128.021 57.317-128.021 128.021s57.317 128.022 128.021 128.022c16.391 0 32.061-3.085 46.466-8.699-47.731-18.602-81.555-65.01-81.555-119.323z" fill="#fed402"/><path d="m502.388 369.41c3.794 0 7.05-2.869 7.451-6.725.429-4.12-2.564-7.807-6.684-8.236l-143.847-14.962c-2.047-14.007-3.561-27.944-4.552-41.84h71.016c4.143 0 7.5-3.358 7.5-7.5s-3.357-7.5-7.5-7.5h-71.884c-.332-7.517-.515-15.027-.54-22.531h149.03c4.143 0 7.5-3.358 7.5-7.5s-3.357-7.5-7.5-7.5h-148.87c.575-24.097 2.73-47.938 6.503-71.668l143.144-14.893c4.12-.428 7.112-4.116 6.684-8.235-.43-4.12-4.107-7.112-8.236-6.684l-138.92 14.453c7.427-39.335 19.328-78.452 35.839-118.014l105.604-25.278c4.028-.964 6.512-5.012 5.548-9.04-.965-4.027-5.007-6.516-9.04-5.548l-369.913 88.544c-.052.012-.103.025-.154.039-76.215 19.96-129.444 88.925-129.444 167.71s53.229 147.75 129.443 167.71c.063.017 370.104 86.592 370.104 86.592.575.135 1.149.199 1.716.199 3.404 0 6.486-2.334 7.296-5.793.943-4.033-1.561-8.068-5.594-9.011l-111.166-26.008c-9.688-26.734-17.568-52.936-23.671-78.783l8.23-.022c4.142-.011 7.49-3.378 7.479-7.52-.011-4.135-3.367-7.48-7.5-7.48-.007 0-.014 0-.021 0l-11.542.031c-1.521-7.222-2.906-14.419-4.149-21.594l139.853 14.547c.266.026.528.04.787.04zm-158.327-31.509-92.516-9.623c5.95-9.49 10.757-19.764 14.228-30.631h74.063c.934 13.364 2.344 26.781 4.225 40.254zm-124.399 5.891c-.294-1.28-.588-2.56-.869-3.839l4.287.446c-1.118 1.152-2.255 2.286-3.418 3.393zm3.424-171.18-2.261.235c.168-.666.345-1.332.518-1.997.587.581 1.167 1.169 1.743 1.762zm33.537 72.504h-46.418c.805-18.99 3.169-37.946 7.078-56.819l17.402-1.811c12.062 16.842 19.893 36.906 21.938 58.63zm-230.368 59.729c-6.052-13.765-9.604-28.866-10.074-44.729h59.439c-.035 16.639 1.569 33.442 4.803 50.364zm57.562 21.069c3.707 14.924 8.667 29.928 14.871 44.981-26.634-8.86-49.166-26.777-63.929-50.084zm-1.41-123.584c-3.318 14.209-5.421 28.48-6.305 42.786h-59.438c1.227-13.024 4.534-25.449 9.586-36.944zm-47.656-10.124c15.883-25.082 40.764-43.922 70.072-51.953-7.563 15.412-13.671 30.946-18.305 46.567zm55.869 67.91h104.261c.016 20.74 1.812 41.704 5.351 62.825l-104.188-10.837c-3.652-17.504-5.462-34.852-5.424-51.988zm114.359-85.62-39.112 4.069c-4.119.429-7.112 4.116-6.684 8.236.401 3.856 3.657 6.725 7.451 6.725.259 0 .521-.013.785-.041l34.234-3.562c-3.555 18.33-5.712 36.741-6.461 55.193h-104.066c.977-14.846 3.36-29.668 7.13-44.435l39.164-4.074c4.119-.429 7.112-4.116 6.684-8.236s-4.112-7.113-8.236-6.684l-33.115 3.445c5.237-16.242 12.161-32.401 20.756-48.432 4.315-.47 8.696-.719 13.135-.719 27.007 0 51.967 8.929 72.084 23.989-1.348 4.835-2.598 9.677-3.749 14.526zm-6.405-38.515h17.659c-1.02 2.935-2.005 5.873-2.952 8.814-4.698-3.233-9.607-6.183-14.707-8.814zm-53.274-15c-.558 0-1.1.065-1.623.181-2.33-.12-4.674-.181-7.033-.181-1.403 0-2.799.029-4.192.071 4.07-6.701 8.426-13.377 13.083-20.024.107-.153.2-.311.294-.468l95.687-22.904c-7.472 14.34-14.057 28.789-19.744 43.325zm-31.314 1.905c-17.003 2.874-32.94 8.92-47.177 17.516 16.104-14.953 35.43-26.665 57.065-33.955-3.483 5.461-6.78 10.941-9.888 16.439zm-7.403 265.772c2.226 4.677 4.562 9.357 7.026 14.039-17.513-7.286-33.296-17.55-46.81-30.1 12.153 7.34 25.546 12.824 39.784 16.061zm28.064 21.107c-3.526-6.098-6.842-12.19-9.948-18.274 3.937.345 7.919.532 11.944.532.734 0 1.465-.016 2.196-.028.184.013.367.028.554.028h.021l78.382-.21c4.681 13.7 10.084 27.437 16.187 41.192zm64.229-32.901c4.135-2.147 8.143-4.502 12.016-7.049.67 2.336 1.361 4.673 2.073 7.011zm-62.233.16c-6.699 0-13.269-.558-19.674-1.615-7.222-16.032-12.967-31.992-17.228-47.839l103.366 10.751c1.112 5.369 2.337 10.747 3.673 16.134-19.77 14.197-43.993 22.569-70.137 22.569zm79.09-52.471c-3.872-21.691-5.834-43.196-5.851-64.438h47.224c-.731 24.709-8.934 47.574-22.425 66.409zm123.252-41.906h-69.361c1.437-7.319 2.29-14.845 2.492-22.531h66.336c.027 7.495.205 15.005.533 22.531zm-.387-37.531h-66.916c-.74-8.858-2.329-17.479-4.698-25.775h10.857c4.143 0 7.5-3.358 7.5-7.5s-3.357-7.5-7.5-7.5h-16.122c-2.862-6.838-6.272-13.39-10.17-19.608l93.161-9.692c-3.528 23.243-5.562 46.591-6.112 70.075zm8.666-85.423-105.801 11.007c-4.734-5.773-9.936-11.146-15.545-16.067 1.909-6.23 3.989-12.448 6.236-18.651h90.384c4.143 0 7.5-3.358 7.5-7.5s-3.357-7.5-7.5-7.5h-84.614c6.574-16.121 14.299-32.135 23.159-48.009l119.487-28.601c-15.236 38.277-26.337 76.666-33.306 115.321zm28.297 306.436-123.11-28.803c-7.155-15.221-13.419-30.414-18.78-45.555l120.272-.322c5.656 24.667 12.868 49.55 21.618 74.68zm-24.866-89.672-122.042.327c-1.746-5.535-3.368-11.061-4.871-16.578 6.427-5.409 12.348-11.399 17.677-17.896l104.94 10.915c1.28 7.725 2.708 15.468 4.296 23.232z"/><path d="m428.818 376.248-21.379.058c-4.142.011-7.49 3.378-7.479 7.52.011 4.135 3.367 7.48 7.5 7.48h.021l21.379-.058c4.142-.011 7.49-3.378 7.479-7.52-.011-4.135-3.367-7.48-7.5-7.48-.007 0-.014 0-.021 0z"/><path d="m307.841 219.34h4.373c4.143 0 7.5-3.358 7.5-7.5s-3.357-7.5-7.5-7.5h-4.373c-4.143 0-7.5 3.358-7.5 7.5s3.357 7.5 7.5 7.5z"/><path d="m455.772 282.647c-4.143 0-7.5 3.358-7.5 7.5s3.357 7.5 7.5 7.5h11.963c4.143 0 7.5-3.358 7.5-7.5s-3.357-7.5-7.5-7.5z"/><path d="m377.483 204.34c-4.143 0-7.5 3.358-7.5 7.5s3.357 7.5 7.5 7.5h34.521c4.143 0 7.5-3.358 7.5-7.5s-3.357-7.5-7.5-7.5z"/></svg>