<svg id="Capa_1" enable-background="new 0 0 511.623 511.623" height="512" viewBox="0 0 511.623 511.623" width="512" xmlns="http://www.w3.org/2000/svg"><path d="m355.131 178.883h-341.614c-3.177 0-5.752 2.464-5.752 5.504v288.314c0 3.04 2.575 5.504 5.752 5.504h341.614z" fill="#00f2a6"/><path d="m355.131 410.538v67.667h-341.614c-3.177 0-5.752-2.464-5.752-5.504v-288.314c0-3.04 2.575-5.504 5.752-5.504h72.903c0 127.939 103.715 231.655 231.655 231.655z" fill="#05e39c"/><path d="m275.543 178.883v299.322h222.47c3.177 0 5.752-2.464 5.752-5.504v-288.314c0-3.04-2.575-5.504-5.752-5.504z" fill="#00f2a6"/><path d="m503.765 472.701v-62.163h-228.222v67.667h222.469c3.178 0 5.753-2.464 5.753-5.504z" fill="#05e39c"/><path d="m256.078 113.827h33.344v111.887h-33.344z" fill="#acacac"/><path d="m256.078 113.827h12.49v111.887h-12.49z" fill="#9e9797"/><path d="m256.078 133.195h33.344v-72.384c0-10.986-8.906-19.893-19.893-19.893h-264.466c-1.825 0-3.304 1.479-3.304 3.304v26.735c0 1.825 1.479 3.304 3.304 3.304h251.015z" fill="#acacac"/><path d="m268.568 133.195v-16.665-19.368-30.892c0-4.79-3.883-8.673-8.673-8.673h-228.967c-9.211 0-16.679-7.467-16.679-16.679h-9.186c-1.825 0-3.304 1.479-3.304 3.304v26.735c0 1.825 1.479 3.304 3.304 3.304h251.015v58.934z" fill="#9e9797"/><path d="m120.856 260.877c-2.83 10.5-4.34 21.54-4.34 32.94s1.51 22.44 4.34 32.94c5.07 18.83 14.38 35.92 26.83 50.19 14.55 16.63 33.37 29.42 54.76 36.64 12.7 4.28 26.3 6.61 40.45 6.61 14.14 0 27.75-2.32 40.44-6.61 21.39-7.22 40.22-20.01 54.76-36.64 12.46-14.27 21.77-31.36 26.84-50.19 2.83-10.5 4.34-21.54 4.34-32.94s-1.51-22.44-4.34-32.94c-5.07-18.83-14.38-35.92-26.84-50.19-14.54-16.63-33.37-29.42-54.76-36.64-12.69-4.29-26.3-6.61-40.44-6.61-14.15 0-27.75 2.33-40.45 6.61-21.39 7.22-40.21 20.01-54.76 36.64-12.45 14.27-21.76 31.36-26.83 50.19z" fill="#ebebeb"/><path d="m303.916 390.648c-14.15 0-27.75-2.33-40.45-6.61-21.39-7.22-40.21-20.01-54.76-36.64-12.45-14.27-21.76-31.36-26.83-50.19-2.83-10.5-4.34-21.54-4.34-32.94s1.51-22.44 4.34-32.94c5.07-18.83 14.38-35.92 26.83-50.19 3.618-4.135 7.501-8.032 11.621-11.666-6.122 1.104-12.099 2.626-17.881 4.575-21.39 7.22-40.21 20.01-54.76 36.64-12.45 14.27-21.76 31.36-26.83 50.19-2.83 10.5-4.34 21.54-4.34 32.94s1.51 22.44 4.34 32.94c5.07 18.83 14.38 35.92 26.83 50.19 14.55 16.63 33.37 29.42 54.76 36.64 12.7 4.28 26.3 6.61 40.45 6.61 14.14 0 27.75-2.32 40.44-6.61 16.069-5.424 30.692-13.992 43.138-24.969-7.323 1.319-14.858 2.03-22.558 2.03z" fill="#cecece"/><g fill="#838383"><path d="m338.096 210.687-.01.01-4.79 7.17c-3.43 5.14-9.29 8.1-15.46 7.83l-17.85-.78c-6.59-.28-12.46-4.21-15.25-10.19l-7.54-16.2c-2.61-5.59-2.1-12.14 1.33-17.27l4.81-7.21c21.39 7.22 40.22 20.01 54.76 36.64z"/><path d="m364.936 260.877c2.83 10.5 4.34 21.54 4.34 32.94s-1.51 22.44-4.34 32.94h-.01-8.65c-6.17 0-11.9-3.22-15.1-8.49l-9.28-15.28c-3.42-5.63-3.42-12.7 0-18.34l9.28-15.27c3.2-5.28 8.93-8.5 15.1-8.5h8.65z"/><path d="m338.086 376.937.01.01c-14.54 16.63-33.37 29.42-54.76 36.64l-4.81-7.2c-3.43-5.13-3.94-11.68-1.33-17.28l7.54-16.2c2.79-5.97 8.66-9.9 15.25-10.19l17.85-.78c6.17-.27 12.03 2.7 15.46 7.83z"/></g><path d="m326.474 388.618c-7.323 1.319-14.858 2.03-22.558 2.03-8.975 0-17.727-.944-26.17-2.722l-.55 1.181c-2.61 5.6-2.1 12.15 1.33 17.28l4.81 7.2c16.069-5.424 30.692-13.992 43.138-24.969z" fill="#766e6e"/><path d="m281.726 286.277c2.56 4.7 2.56 10.38 0 15.09l-11.41 20.94c-2.76 5.07-8.07 8.23-13.85 8.23h-27.14c-5.78 0-11.09-3.16-13.86-8.23l-11.4-20.94c-2.57-4.71-2.57-10.39 0-15.09l11.4-20.94c2.77-5.08 8.08-8.23 13.86-8.23h27.14c5.78 0 11.09 3.15 13.85 8.23z" fill="#838383"/><path d="m207.266 181.257c3.43 5.13 3.93 11.68 1.33 17.27l-7.55 16.2c-2.78 5.98-8.66 9.91-15.24 10.19l-17.85.78c-6.17.27-12.03-2.69-15.46-7.83l-4.8-7.17-.01-.01c14.55-16.63 33.37-29.42 54.76-36.64z" fill="#838383"/><path d="m208.596 389.107c2.6 5.6 2.1 12.15-1.33 17.28l-4.82 7.2c-21.39-7.22-40.21-20.01-54.76-36.64l.01-.01 4.8-7.17c3.43-5.13 9.29-8.1 15.46-7.83l17.85.78c6.58.29 12.46 4.22 15.24 10.19z" fill="#766e6e"/><path d="m153.886 284.647c3.42 5.64 3.42 12.71 0 18.34l-9.27 15.28c-3.2 5.27-8.93 8.49-15.1 8.49h-8.66c-2.83-10.5-4.34-21.54-4.34-32.94s1.51-22.44 4.34-32.94h8.66c6.17 0 11.9 3.22 15.1 8.5z" fill="#766e6e"/><path d="m152.496 217.867c3.43 5.14 9.29 8.1 15.46 7.83l15.81-.691c5.192-15.899 13.451-30.408 24.067-42.839-.18-.308-.367-.612-.567-.911l-4.82-7.21c-21.39 7.22-40.21 20.01-54.76 36.64l.01.01z" fill="#766e6e"/><path d="m208.884 261.744-10.1 18.539c-1.981 3.637-.64 8.192 2.998 10.174 3.637 1.982 8.192.639 10.174-2.998l10.1-18.539c1.45-2.663 4.234-4.316 7.266-4.316h27.146c3.031 0 5.815 1.654 7.267 4.316l11.407 20.941c1.35 2.478 1.35 5.438 0 7.916l-11.407 20.94c-1.45 2.663-4.235 4.317-7.267 4.317h-27.146c-3.031 0-5.815-1.654-7.266-4.316l-4.595-8.434c-1.98-3.637-6.534-4.98-10.174-2.998-3.638 1.981-4.979 6.537-2.998 10.174l4.595 8.434c4.079 7.488 11.91 12.14 20.438 12.14h27.146c8.526 0 16.358-4.651 20.438-12.14l11.407-20.941c3.798-6.972 3.798-15.295 0-22.267l-11.407-20.942c-4.081-7.488-11.912-12.14-20.438-12.14h-27.146c-8.528 0-16.359 4.652-20.438 12.14z"/><path d="m7.5 48.418h262.028c6.833 0 12.393 5.56 12.393 12.393v93.102c0 4.142 3.357 7.5 7.5 7.5s7.5-3.358 7.5-7.5v-93.102c0-15.104-12.288-27.393-27.393-27.393h-262.028c-4.143 0-7.5 3.358-7.5 7.5s3.357 7.5 7.5 7.5z"/><path d="m2.461 126.782c-2.929 2.929-2.929 7.678 0 10.606l24.76 24.76-9.849 9.849c-2.93 2.929-2.93 7.677-.001 10.606 1.465 1.465 3.384 2.197 5.304 2.197 1.919 0 3.839-.732 5.303-2.196l9.85-9.85 19.457 19.457-14.655 14.655c-2.929 2.929-2.929 7.678 0 10.606 1.465 1.464 3.385 2.197 5.304 2.197s3.839-.732 5.304-2.197l14.654-14.654 19.456 19.456-14.218 14.218c-2.929 2.929-2.929 7.678 0 10.606 1.465 1.464 3.384 2.197 5.304 2.197 1.919 0 3.839-.732 5.304-2.197l14.218-14.217 5.954 5.954c1.465 1.464 3.385 2.197 5.304 2.197s3.839-.732 5.304-2.197c2.929-2.929 2.929-7.678 0-10.606l-5.955-5.955 49.519-49.519 2.583 2.583c1.465 1.464 3.384 2.197 5.304 2.197 1.919 0 3.839-.732 5.304-2.197 2.929-2.929 2.929-7.678 0-10.606l-2.584-2.584 19.456-19.456 9.563 9.563c1.465 1.464 3.385 2.197 5.304 2.197s3.839-.732 5.304-2.197c2.929-2.929 2.929-7.678 0-10.606l-9.564-9.564 19.61-19.61 30.218 30.218v4.812c0 4.142 3.357 7.5 7.5 7.5s7.5-3.358 7.5-7.5v-73.244c0-4.142-3.357-7.5-7.5-7.5h-248.58c-4.143 0-7.5 3.358-7.5 7.5 0 3.95 3.055 7.179 6.931 7.471l20.29 20.29zm15.911 5.304 19.456-19.456 19.456 19.456-19.456 19.456zm90.189-30.063 19.456-19.456 19.456 19.456-19.456 19.456zm8.849 30.063-19.456 19.456-19.456-19.456 19.456-19.456zm31.015-50.325h19.309l-9.654 9.654zm-50.471 9.655-9.654-9.655h19.309zm-10.607 10.607-19.456 19.456-19.456-19.456 19.456-19.456zm-38.912 60.125 19.456-19.456 19.457 19.456-19.456 19.456zm30.063 30.064 19.456-19.456 19.456 19.456-19.456 19.456zm49.519-10.607-19.456-19.456 19.456-19.456 19.456 19.456zm30.063-30.063-19.456-19.456 19.456-19.456 19.456 19.456zm30.063-30.063-19.456-19.456 19.61-19.61 19.456 19.456zm20.717-39.718h19l-9.5 9.5zm20.107 20.107 19.611-19.611v39.222zm-200.794-20.107h19.309l-9.655 9.654z"/><path d="m456.979 186.383h16.221c4.143 0 7.5-3.358 7.5-7.5s-3.357-7.5-7.5-7.5h-16.222c-4.143 0-7.5 3.358-7.5 7.5s3.358 7.5 7.501 7.5z"/><path d="m504.123 348.173h-138.89c6.448-14.456 10.407-30.256 11.328-46.854h79.289c4.143 0 7.5-3.358 7.5-7.5s-3.357-7.5-7.5-7.5h-79.289c-.788-14.203-3.802-27.819-8.695-40.512h76.244c4.143 0 7.5-3.358 7.5-7.5s-3.357-7.5-7.5-7.5h-83.12c-9.364-17.48-22.492-32.653-38.299-44.424h104.288c4.143 0 7.5-3.358 7.5-7.5s-3.357-7.5-7.5-7.5h-129.95c-16.562-7.351-34.878-11.445-54.134-11.445-73.822 0-133.881 60.059-133.881 133.881 0 2.17.056 4.327.159 6.472h-14.119-65.185-22.104c-4.143 0-7.5 3.358-7.5 7.5s3.357 7.5 7.5 7.5h22.104 57.313c-3.776 37.963-35.899 67.711-74.84 67.711h-4.577c-4.143 0-7.5 3.358-7.5 7.5s3.357 7.5 7.5 7.5h4.578c47.216 0 86.072-36.465 89.897-82.711h8.504c10.305 63.65 65.637 112.409 132.151 112.409h197.807c4.143 0 7.5-3.358 7.5-7.5s-3.357-7.5-7.5-7.5h-136.282c21.854-11.356 40.204-28.558 52.955-49.526h146.749c4.143 0 7.5-3.358 7.5-7.5s-3.358-7.501-7.501-7.501zm-147.849-28.912c-3.529 0-6.859-1.874-8.69-4.89l-9.274-15.276c-1.976-3.254-1.976-7.298 0-10.552l9.274-15.276c1.831-3.017 5.161-4.891 8.69-4.891h2.751c1.795 8.2 2.75 16.711 2.75 25.442s-.955 17.242-2.75 25.442h-2.751zm-27.723-107.791-1.492 2.232c-1.961 2.933-5.371 4.652-8.896 4.506l-17.854-.78c-3.804-.167-7.165-2.414-8.772-5.865l-7.545-16.199c-1.489-3.2-1.197-7.01.765-9.943l1.527-2.285c16.091 6.331 30.477 16.075 42.267 28.334zm-57.092-33.055c-4.097 7.058-4.531 15.837-1.065 23.282l7.545 16.2c3.979 8.543 12.301 14.105 21.716 14.517l17.854.78c.36.016.719.024 1.078.024 7.798 0 15.253-3.689 19.994-9.861 6.733 9.12 12.197 19.23 16.125 30.071-8.145.518-15.684 5.036-19.944 12.054l-9.274 15.276c-4.891 8.056-4.891 18.064 0 26.121l9.274 15.276c4.261 7.019 11.8 11.536 19.944 12.054-3.928 10.84-9.391 20.95-16.124 30.069-4.96-6.455-12.893-10.191-21.073-9.835l-17.854.78c-9.414.412-17.735 5.975-21.715 14.518l-7.545 16.2c-3.466 7.445-3.032 16.224 1.064 23.281-9.154 2.266-18.72 3.477-28.564 3.477-9.845 0-19.411-1.211-28.565-3.478 4.096-7.058 4.531-15.836 1.064-23.282l-7.545-16.199c-3.979-8.543-12.299-14.106-21.716-14.518l-17.854-.78c-8.168-.365-16.111 3.379-21.073 9.835-6.733-9.119-12.196-19.229-16.124-30.069 8.144-.518 15.683-5.036 19.943-12.054l9.274-15.276c4.891-8.056 4.891-18.064 0-26.121l-9.274-15.275c-4.261-7.018-11.799-11.537-19.943-12.055 3.928-10.841 9.392-20.951 16.125-30.07 4.741 6.172 12.195 9.86 19.993 9.86.359 0 .719-.008 1.079-.024l17.854-.78c9.416-.411 17.737-5.974 21.716-14.517l7.545-16.201c3.466-7.444 3.032-16.223-1.064-23.281 9.154-2.267 18.72-3.478 28.565-3.478 9.844.002 19.41 1.213 28.564 3.479zm-147.445 115.404c0-8.731.955-17.242 2.75-25.442h2.75c3.529 0 6.859 1.874 8.69 4.891l9.274 15.275c1.976 3.254 1.976 7.298 0 10.553l-9.274 15.276c-1.831 3.017-5.161 4.89-8.69 4.89h-2.75c-1.795-8.201-2.75-16.712-2.75-25.443zm75.49-110.682 1.527 2.284c1.962 2.934 2.254 6.744.765 9.943l-7.545 16.201c-1.607 3.451-4.969 5.698-8.772 5.864l-17.854.78c-3.522.16-6.934-1.572-8.896-4.507l-1.492-2.231c11.791-12.259 26.176-22.004 42.267-28.334zm-42.266 193.03 1.492-2.231c1.96-2.934 5.365-4.659 8.896-4.507l17.853.78c3.805.167 7.166 2.414 8.773 5.865l7.545 16.199c1.489 3.2 1.197 7.01-.765 9.943l-1.527 2.284c-16.092-6.33-30.477-16.074-42.267-28.333zm129.046 28.333-1.527-2.285c-1.962-2.933-2.254-6.743-.765-9.942l7.545-16.199c1.607-3.452 4.97-5.699 8.772-5.866l17.854-.78c3.521-.148 6.936 1.573 8.896 4.506l1.492 2.232c-11.79 12.26-26.176 22.004-42.267 28.334z"/></svg>