<svg id="Capa_1" enable-background="new 0 0 511.232 511.232" height="512" viewBox="0 0 511.232 511.232" width="512" xmlns="http://www.w3.org/2000/svg"><path d="m108.894 237.956h27.737v206.214h-27.737z" fill="#acacac"/><path d="m108.894 237.956h13.868v206.214h-13.868z" fill="#9e9797"/><path d="m.5 252.32c0 1.938 1.571 3.509 3.509 3.509h73.481l194.196.324v-108.888-69.814c0-5.738-4.651-10.389-10.389-10.389h-260.044c-.416 0-.753.337-.753.753z" fill="#fccd7f"/><path d="m130.651 200.633c-42.52 0-76.99-34.47-76.99-76.99v-56.581h-52.408c-.416 0-.753.337-.753.753v184.505c0 1.938 1.571 3.509 3.509 3.509h73.481l194.196.324v-55.284z" fill="#fbc56d"/><path d="m237.018 136.981v-26.773c0-6.701-6.2-12.133-13.848-12.133h-188.41c-7.648 0-13.848 5.432-13.848 12.133v101.678c0 6.059 4.912 10.972 10.972 10.972h17.591 187.543z" fill="#fddeb0"/><path d="m237.018 200.811-106.367-.177c-42.52 0-76.99-34.469-76.99-76.99v-25.569h-18.9c-7.648 0-13.848 5.432-13.848 12.133v101.678c0 6.059 4.912 10.972 10.972 10.972h17.591 187.543v-22.047z" fill="#fdd79b"/><circle cx="342.667" cy="304.231" fill="#fe7d43" r="139.939"/><path d="m296.631 275.038c0-44.928 21.176-84.905 54.088-110.51-2.665-.151-5.348-.236-8.052-.236-77.286 0-139.939 62.653-139.939 139.939s62.653 139.939 139.939 139.939c32.359 0 62.148-10.988 85.852-29.429-73.539-4.173-131.888-65.12-131.888-139.703z" fill="#fd6930"/><path d="m335.167 164.493v14.133c4.663-4.902 9.674-9.47 15-13.657v-.477c-2.484-.131-4.984-.201-7.5-.201-2.516.001-5.016.071-7.5.202z" fill="#fd5426"/><path d="m335.167 371.468v72.502c2.484.131 4.984.201 7.5.201s5.016-.07 7.5-.201v-58.862c-5.323-4.184-10.339-8.741-15-13.64z" fill="#fd5426"/><path d="m454.941 451.67h-446.997c-4.142 0-7.5-3.358-7.5-7.5s3.358-7.5 7.5-7.5h446.997c4.142 0 7.5 3.358 7.5 7.5s-3.358 7.5-7.5 7.5z" fill="#acacac"/><path d="m503.732 451.67h-19.194c-4.142 0-7.5-3.358-7.5-7.5s3.358-7.5 7.5-7.5h19.194c4.142 0 7.5 3.358 7.5 7.5s-3.358 7.5-7.5 7.5z" fill="#acacac"/><path d="m189.089 186.309h-128.945c-7.533 0-13.639-6.106-13.639-13.639 0-7.533 6.106-13.639 13.639-13.639h128.945c7.533 0 13.639 6.106 13.639 13.639 0 7.532-6.106 13.639-13.639 13.639z" fill="#9c9c9c"/><path d="m7.5 74.562h253.797c1.593 0 2.889 1.296 2.889 2.889v69.814c0 4.142 3.358 7.5 7.5 7.5s7.5-3.358 7.5-7.5v-69.814c0-9.864-8.025-17.889-17.889-17.889h-253.797c-4.142 0-7.5 3.358-7.5 7.5s3.358 7.5 7.5 7.5z"/><path d="m244.518 110.208c0-10.826-9.577-19.633-21.348-19.633h-188.41c-11.771 0-21.348 8.808-21.348 19.633v101.679c0 10.186 8.287 18.472 18.472 18.472h17.591c4.142 0 7.5-3.358 7.5-7.5s-3.358-7.5-7.5-7.5h-17.591c-1.914 0-3.472-1.558-3.472-3.472v-101.679c0-2.512 2.907-4.633 6.348-4.633h188.41c3.441 0 6.348 2.122 6.348 4.633v26.773c0 4.142 3.358 7.5 7.5 7.5s7.5-3.358 7.5-7.5z"/><path d="m237.018 158.235c-4.142 0-7.5 3.358-7.5 7.5v10.887c0 4.142 3.358 7.5 7.5 7.5s7.5-3.358 7.5-7.5v-10.887c0-4.142-3.358-7.5-7.5-7.5z"/><path d="m108.894 393.997c4.142 0 7.5-3.358 7.5-7.5v-67.878c0-4.142-3.358-7.5-7.5-7.5s-7.5 3.358-7.5 7.5v67.878c0 4.142 3.358 7.5 7.5 7.5z"/><path d="m454.941 436.67h-47.528c48.928-24.017 82.693-74.356 82.693-132.439 0-81.298-66.141-147.439-147.439-147.439-61.521 0-114.352 37.879-136.42 91.536h-30.942c3.371-18.31 9.29-36.661 17.723-54.901 9.778-1.853 17.2-10.448 17.2-20.757 0-11.656-9.483-21.139-21.139-21.139h-128.945c-11.656 0-21.139 9.483-21.139 21.139 0 10.206 7.27 18.744 16.903 20.712 7.207 18.249 12.631 36.614 16.239 54.947h-64.647c-4.142 0-7.5 3.358-7.5 7.5s3.358 7.5 7.5 7.5h67.199c1.271 8.896 2.123 17.774 2.527 26.616.184 4.021 3.501 7.158 7.486 7.158.115 0 .231-.002.348-.008 4.138-.189 7.339-3.697 7.15-7.834-.158-3.466-.392-6.937-.676-10.41h12.307c.101 3.625.19 7.249.244 10.864.061 4.104 3.407 7.388 7.497 7.388.038 0 .076 0 .114-.001 4.142-.062 7.449-3.469 7.387-7.611-.053-3.542-.135-7.09-.232-10.641h11.306c-.032 3.61-.037 7.216-.006 10.816.035 4.143 3.44 7.51 7.563 7.436 4.142-.035 7.471-3.421 7.436-7.563-.03-3.558-.022-7.121.01-10.688h11.873c-.097 3.653-.11 7.303-.015 10.948.108 4.141 3.565 7.396 7.693 7.302 4.141-.108 7.41-3.553 7.302-7.693-.135-5.158-.037-10.33.244-15.511.288-.796.453-1.651.453-2.546 0-.571-.07-1.125-.191-1.66.16-2.119.356-4.24.586-6.361h27.901c-3.757 12.993-5.777 26.716-5.777 40.903 0 58.083 33.765 108.422 82.693 132.439h-133.713v-118.053c0-4.142-3.358-7.5-7.5-7.5s-7.5 3.358-7.5 7.5v118.051h-12.815v-20.173c0-4.142-3.358-7.5-7.5-7.5s-7.5 3.358-7.5 7.5v20.173h-93.45c-4.142 0-7.5 3.358-7.5 7.5s3.358 7.5 7.5 7.5h446.997c4.142 0 7.5-3.358 7.5-7.5s-3.358-7.5-7.5-7.5zm-278.531-242.861c-2.04 4.743-3.901 9.495-5.621 14.252h-20.924c.589-4.757 1.226-9.509 1.924-14.252zm-41.656 14.252h-20.694c-.513-4.756-1.052-9.509-1.641-14.252h24.211c-.68 4.743-1.301 9.495-1.876 14.252zm-37.476-14.252c.6 4.744 1.162 9.495 1.684 14.252h-21.838c-1.545-4.757-3.191-9.509-4.966-14.252zm-15.659 29.252h18.865c.381 4.13.731 8.261 1.054 12.394h-16.791c-.954-4.132-2-8.264-3.128-12.394zm33.923 0h17.574c-.401 4.13-.763 8.262-1.084 12.394h-15.452c-.317-4.132-.663-8.264-1.038-12.394zm32.652 0h17.692c-1.2 4.129-2.284 8.261-3.242 12.394h-15.558c.328-4.132.697-8.264 1.108-12.394zm-88.05-56.531h128.945c3.385 0 6.139 2.754 6.139 6.139s-2.754 6.139-6.139 6.139h-1.017-42.728-41.456-42.727-1.017c-3.385 0-6.139-2.754-6.139-6.139s2.754-6.139 6.139-6.139zm29.771 97.32c-.597-4.462-1.3-8.927-2.103-13.395h14.777c.271 4.468.512 8.933.714 13.395zm28.395 0c-.198-4.462-.436-8.927-.703-13.395h13.446c-.241 4.468-.435 8.933-.582 13.395zm27.164 0c.15-4.461.351-8.927.598-13.395h13.64c-.72 4.467-1.301 8.932-1.738 13.395zm64.971 47.881h63.263c-1.622 29.072-12.651 56.494-31.597 78.589-18.341-21.392-29.988-48.68-31.666-78.589zm31.665-93.589c18.946 22.094 29.975 49.517 31.597 78.589h-63.263c1.679-29.909 13.326-57.197 31.666-78.589zm201.116 172.175c-5.875-6.863-11.049-14.308-15.419-22.229-2.001-3.626-6.563-4.946-10.19-2.944-3.626 2.001-4.945 6.563-2.944 10.19 5.099 9.243 11.189 17.899 18.124 25.84-21.945 20.417-50.802 33.493-82.63 35.279v-124.722h46.455c.588 11.651 2.522 23.165 5.816 34.318.964 3.264 3.952 5.377 7.189 5.377.704 0 1.419-.1 2.128-.309 3.973-1.174 6.242-5.345 5.068-9.317-2.887-9.774-4.61-19.859-5.183-30.069h63.248c-1.677 29.908-13.322 57.194-31.662 78.586zm-31.599-93.586c1.623-29.071 12.654-56.491 31.6-78.585 18.339 21.392 29.984 48.677 31.662 78.585zm-15.026 0h-46.434v-124.722c31.821 1.785 60.673 14.857 82.616 35.266-21.867 25-34.522 56.286-36.182 89.456zm-61.434 0h-46.433c-1.661-33.17-14.316-64.456-36.183-89.456 21.943-20.409 50.795-33.481 82.616-35.266zm-46.433 15h46.433v124.722c-31.821-1.785-60.673-14.857-82.616-35.266 21.868-25 34.522-56.286 36.183-89.456z"/><path d="m503.732 436.67h-19.194c-4.142 0-7.5 3.358-7.5 7.5s3.358 7.5 7.5 7.5h19.194c4.142 0 7.5-3.358 7.5-7.5s-3.358-7.5-7.5-7.5z"/></svg>