<svg id="Capa_1" enable-background="new 0 0 511.256 511.256" height="512" viewBox="0 0 511.256 511.256" width="512" xmlns="http://www.w3.org/2000/svg"><path d="m224.556 252.796h63.43 35.81 166.79c7.27 0 13.17-5.9 13.17-13.17 0-3.63-1.48-6.93-3.86-9.31s-5.68-3.86-9.31-3.86h-105.76c-6.63 0-12.01-5.37-12.01-12v-.01c0-6.63 5.38-12 12.01-12h29.08c6.77 0 12.27-5.5 12.27-12.27 0-3.39-1.38-6.46-3.6-8.68s-5.28-3.59-8.67-3.59h-69.87c-7.84 0-14.2-6.36-14.2-14.2 0-3.93 1.59-7.47 4.16-10.04s6.12-4.16 10.04-4.16h55.55 30.66c7.96 0 14.42-6.46 14.42-14.43 0-3.98-1.61-7.58-4.23-10.2-2.6-2.6-6.21-4.22-10.19-4.22h-73.18-29.68-102.83z" fill="#fee903"/><path d="m224.556 252.796h56.822c18.63-16.003 30.433-39.73 30.433-66.215 0-26.325-11.658-49.926-30.092-65.925h-57.163z" fill="#fed402"/><path d="m182.06 335.605-108.976 56.112-34.706-24.491 30.074-117.326 18.126 42.052-13.877 54.141 10.918 8.706 51.331-26.431z" fill="#08a9f1"/><path d="m72.612 381.833-23.088-18.409c-5.569-4.441-13.684-3.526-18.124 2.044l-23.466 29.43c-.281.352-.433.789-.433 1.239v82.366c0 1.88 2.369 2.708 3.54 1.239l63.615-79.784c4.44-5.569 3.525-13.684-2.044-18.125z" fill="#01d0fb"/><path d="m34.564 429.803c0-22.246 7.553-43.833 21.421-61.227l-6.461-5.152c-5.569-4.44-13.684-3.525-18.124 2.044l-23.466 29.431c-.281.352-.433.788-.433 1.238v82.366c0 1.88 2.369 2.709 3.541 1.239l23.523-29.502v-20.437z" fill="#01c0fa"/><circle cx="224.554" cy="186.581" fill="#00f2a6" r="66.069"/><path d="m224.29 186.581c0-24.505 13.351-45.877 33.166-57.284-9.69-5.578-20.919-8.785-32.903-8.785-36.489 0-66.069 29.58-66.069 66.069s29.58 66.069 66.069 66.069c11.984 0 23.213-3.207 32.903-8.785-19.814-11.407-33.166-32.78-33.166-57.284z" fill="#05e39c"/><path d="m134.95 328.368-27.018 13.911c10.155 6.227 21.015 11.212 32.309 14.858l41.819-21.533z" fill="#0290cf"/><path d="m57.781 291.532c6.038 10.121 13.307 19.552 21.705 28.091l7.093-27.671-18.127-42.052z" fill="#0290cf"/><path d="m356.546 118.946c.18.57.35 1.14.52 1.71h-29.68v-.15c-6.39-16.32-17.01-31.22-31.68-42.91-44.48-35.47-109.53-28.13-145 16.35l-45.37 56.9c-35.47 44.49-28.14 109.54 16.35 145.01s109.54 28.13 145.01-16.35l21.29-26.71h35.81l-35.21 44.16c-45.17 56.65-127.71 65.96-184.36 20.79-32.48-25.91-49.4-64.1-49.4-102.65 0-28.67 9.36-57.54 28.62-81.7l45.37-56.9c45.16-56.65 127.7-65.96 184.35-20.79 10.62 8.47 19.58 18.25 26.82 28.93 7.25 10.68 12.79 22.26 16.56 34.31z" fill="#01d0fb"/><path d="m214.685 314.26c-31.062 8.94-65.856 3.236-92.999-18.404-44.49-35.47-51.82-100.52-16.35-145.01l45.37-56.9c13.583-17.033 31.505-28.613 50.948-34.435l4.584-5.749c8.391-10.525 18.073-19.413 28.639-26.624-39.703-1.028-79.397 15.911-106.061 49.358l-45.37 56.9c-19.26 24.16-28.62 53.03-28.62 81.7 0 38.55 16.92 76.74 49.4 102.65 46.125 36.778 109.411 37.435 155.717 5.834-15.336-.396-30.67-3.477-45.258-9.32z" fill="#01c0fa"/><path d="m489.2 149.502h-5.853c-7.965 0-14.423-6.457-14.423-14.423 0-7.965 6.457-14.423 14.423-14.423h5.853c7.965 0 14.423 6.457 14.423 14.423 0 7.966-6.457 14.423-14.423 14.423z" fill="#fee903"/><path d="m490.587 218.959h-19.656c-4.142 0-7.5 3.358-7.5 7.5s3.358 7.5 7.5 7.5h19.656c3.125 0 5.668 2.542 5.668 5.668s-2.543 5.668-5.668 5.668h-221.764c7.164-5.415 13.302-12.114 18.087-19.744h24.916c4.142 0 7.5-3.358 7.5-7.5s-3.358-7.5-7.5-7.5h-17.735c2.599-7.519 4.031-15.578 4.031-23.97 0-23.79-11.36-44.967-28.93-58.424h161.049c3.817 0 6.923 3.105 6.923 6.922s-3.105 6.923-6.923 6.923h-86.201c-11.967 0-21.702 9.735-21.702 21.702 0 11.966 9.735 21.702 21.702 21.702h69.864c2.63 0 4.769 2.139 4.769 4.769 0 2.629-2.139 4.769-4.769 4.769h-29.076c-10.756 0-19.507 8.751-19.507 19.508 0 10.756 8.751 19.507 19.507 19.507h56.104c4.142 0 7.5-3.358 7.5-7.5s-3.358-7.5-7.5-7.5h-56.104c-2.485 0-4.507-2.022-4.507-4.507 0-2.486 2.022-4.508 4.507-4.508h29.076c10.901 0 19.769-8.868 19.769-19.769s-8.868-19.769-19.769-19.769h-69.864c-3.696 0-6.702-3.006-6.702-6.702s3.006-6.702 6.702-6.702h86.202c12.088 0 21.923-9.834 21.923-21.923 0-12.088-9.834-21.922-21.923-21.922h-67.72c-8.552-24.938-23.93-46.774-44.678-63.317-28.964-23.094-65.188-33.525-101.999-29.375s-69.802 22.388-92.896 51.352l-16.961 21.272c-2.582 3.239-2.05 7.958 1.188 10.54 3.239 2.582 7.958 2.05 10.54-1.188l16.961-21.272c20.596-25.832 50.019-42.096 82.848-45.798 32.827-3.703 65.135 5.603 90.966 26.199 17.142 13.668 30.177 31.38 38.067 51.588h-14.133c-7.177-16.118-18.171-30.368-32.038-41.424-23.082-18.403-51.989-26.711-81.4-23.396-29.41 3.316-55.742 17.854-74.146 40.936l-45.369 56.901c-18.404 23.082-26.713 51.991-23.396 81.4 3.316 29.41 17.854 55.742 40.936 74.146 19.758 15.754 43.785 24.111 68.743 24.111 4.198 0 8.423-.237 12.657-.714 29.41-3.316 55.742-17.854 74.146-40.936l19.045-23.885h16.626l-25.506 31.99c-24.394 30.594-60.447 46.529-96.832 46.526-27.033-.002-54.253-8.803-76.983-26.927-25.832-20.596-42.096-50.019-45.798-82.848s5.602-65.135 26.199-90.966l9.587-12.024c2.582-3.239 2.05-7.958-1.188-10.54-3.239-2.582-7.958-2.05-10.54 1.188l-9.587 12.024c-23.094 28.964-33.526 65.188-29.376 101.999 1.361 12.068 4.245 23.721 8.516 34.754l-22.845 89.125c-3.237 1.297-6.106 3.398-8.338 6.198l-23.902 29.971c-1.059 1.328-1.636 2.977-1.636 4.676v88.74c0 3.188 2.015 6.027 5.023 7.079.812.284 1.647.421 2.475.421 2.239 0 4.415-1.005 5.866-2.825l67.155-84.225c2.454-3.077 3.919-6.714 4.323-10.535l81.054-41.735c6.633.961 13.311 1.44 19.98 1.44 40.792 0 81.226-17.868 108.575-52.168l32.962-41.341h163.175c11.396 0 20.668-9.271 20.668-20.668s-9.272-20.667-20.669-20.667zm-391.031 104.653c3.833 3.056 7.782 5.871 11.824 8.457l-26.88 13.84-3.329-2.655 7.505-29.28c3.437 3.374 7.062 6.594 10.88 9.638zm-30.765 71.67-53.791 67.464v-64.68l22.264-27.922c.898-1.127 2.183-1.837 3.615-1.999 1.428-.163 2.841.244 3.967 1.142l9.834 7.841 13.255 10.569c1.127.898 1.837 2.183 1.999 3.615.162 1.433-.244 2.842-1.143 3.97zm12.419-16.185-17.203-13.716-9.808-7.82c-.001-.001-.002-.002-.003-.002l-4.648-3.706 17.321-67.572c2.948 4.935 6.21 9.687 9.771 14.234l-11.205 43.716c-.733 2.861.28 5.885 2.589 7.727l10.918 8.706c1.356 1.081 3.01 1.636 4.677 1.636 1.171 0 2.349-.274 3.433-.832l40.155-20.676c5.265 2.465 10.642 4.574 16.098 6.333zm95.117-225.697c6.7 9.711 10.324 21.219 10.324 33.181s-3.625 23.47-10.324 33.181c-6.515-9.439-10.342-20.869-10.342-33.181s3.827-23.742 10.342-33.181zm25.324 33.181c0-16.225-5.304-31.786-15.05-44.554 10.231-8.728 23.483-14.014 37.953-14.014s27.722 5.286 37.953 14.014c-9.747 12.769-15.051 28.33-15.051 44.554s5.304 31.786 15.051 44.554c-10.231 8.728-23.483 14.014-37.953 14.014s-27.722-5.286-37.953-14.014c9.746-12.768 15.05-28.33 15.05-44.554zm71.142 33.164c-6.7-9.708-10.337-21.205-10.337-33.164 0-11.961 3.625-23.47 10.325-33.181 6.515 9.439 10.342 20.869 10.342 33.181 0 12.304-3.823 23.728-10.33 33.164zm-52.126-156.504c5.231-.59 10.443-.747 15.597-.498l-7.788 9.767-11.084-8.838c1.088-.159 2.178-.307 3.275-.431zm-130.012 159.175 11.186 8.919-7.865 9.864c-1.727-6.141-2.836-12.436-3.321-18.783zm9.539 35.046 13.376-16.776 26.732 21.315-18.919 23.727c-8.988-8.223-16.073-17.843-21.189-28.266zm33.009 37.504 18.828-23.613 26.732 21.314-12.821 16.08c-11.614-2.469-22.693-7.112-32.739-13.781zm63.527 15.245c-4.434.5-8.853.687-13.236.583l6.997-8.775 9.698 7.733c-1.147.17-2.299.328-3.459.459zm64.099-35.383c-2.001 2.51-4.111 4.902-6.321 7.174l-13.205-10.529c-3.239-2.582-7.958-2.05-10.54 1.188s-2.05 7.958 1.188 10.54l11.086 8.839c-7.483 5.561-15.734 9.976-24.535 13.127l-18.659-14.878 8.717-10.933c2.582-3.239 2.05-7.958-1.188-10.54-3.239-2.582-7.958-2.05-10.54 1.188l-8.717 10.933-26.732-21.314 4.026-5.049c2.582-3.239 2.05-7.958-1.188-10.54s-7.958-2.05-10.54 1.188l-4.026 5.049-26.732-21.315 13.916-17.453c2.582-3.239 2.05-7.958-1.188-10.54-3.239-2.582-7.958-2.05-10.54 1.188l-13.916 17.453-20.128-16.044c1.105-9.152 3.536-18.202 7.329-26.846l22.37 17.836c1.381 1.101 3.032 1.636 4.671 1.636 2.204 0 4.388-.967 5.869-2.825 2.582-3.239 2.05-7.958-1.188-10.54l-24.499-19.534c1.714-2.651 3.573-5.243 5.582-7.763l15.361-19.266 14.344 11.437c1.381 1.101 3.032 1.636 4.671 1.636 2.204 0 4.388-.967 5.869-2.825 2.582-3.239 2.05-7.958-1.188-10.54l-14.344-11.437 20.657-25.907c.22-.276.446-.544.668-.817l18.924 15.089c1.381 1.101 3.032 1.636 4.671 1.636 2.204 0 4.388-.967 5.869-2.825 2.582-3.239 2.05-7.958-1.188-10.54l-17.884-14.26c9.19-8.234 19.831-14.55 31.418-18.676l20.078 16.009-5.509 6.909c-2.582 3.239-2.05 7.958 1.188 10.54 1.381 1.101 3.032 1.636 4.671 1.636 2.204 0 4.388-.967 5.869-2.825l5.508-6.909 14.819 11.815c1.381 1.101 3.032 1.636 4.671 1.636 2.204 0 4.388-.967 5.869-2.825 2.582-3.239 2.05-7.958-1.188-10.54l-14.819-11.816 13.313-16.697c11.471 2.707 22.386 7.553 32.255 14.388l-12.209 15.313c-2.582 3.239-2.05 7.958 1.188 10.54 1.381 1.101 3.032 1.636 4.671 1.636 2.204 0 4.388-.967 5.869-2.825l12.11-15.188c7.363 7.024 13.552 15.178 18.329 24.127 0 0-89.691-.145-91.178-.145-40.566 0-73.569 33.003-73.569 73.569 0 40.014 32.117 72.646 71.924 73.527.53.119 1.079.187 1.645.187h47.863z"/><path d="m483.347 157.002h5.853c12.088 0 21.923-9.834 21.923-21.922s-9.834-21.923-21.923-21.923h-5.853c-12.088 0-21.922 9.834-21.922 21.923 0 12.088 9.834 21.922 21.922 21.922zm0-28.845h5.853c3.817 0 6.923 3.105 6.923 6.923 0 3.817-3.105 6.922-6.923 6.922h-5.853c-3.817 0-6.922-3.105-6.922-6.922 0-3.818 3.105-6.923 6.922-6.923z"/><path d="m340.18 210.55c-4.142 0-7.5 3.358-7.5 7.5s3.358 7.5 7.5 7.5h7.933c4.142 0 7.5-3.358 7.5-7.5s-3.358-7.5-7.5-7.5z"/></svg>