<svg id="Capa_1" enable-background="new 0 0 511.714 511.714" height="512" viewBox="0 0 511.714 511.714" width="512" xmlns="http://www.w3.org/2000/svg"><path d="m83.852 20.351c-34.08 1.55-61.24 29.68-61.24 64.15v89.81c0 35.46 28.75 64.22 64.22 64.22h45.43 54.889v-218.18z" fill="#fd4755"/><path d="m120.696 207.501h45.43 21.025v31.03h-54.889-45.43c-35.47 0-64.22-28.76-64.22-64.22v-89.81c0-27.142 16.845-50.343 40.644-59.742-4.329 8.642-6.78 18.389-6.78 28.712v89.81 32.276c0 17.556 14.205 31.802 31.761 31.852z" fill="#fb2b3a"/><path d="m439.992 273.191h-45.43-67.314v218.24h115.724l.04-.073c34.061-1.57 61.2-29.691 61.2-64.147v-89.8c0-35.47-28.75-64.22-64.22-64.22z" fill="#0290cf"/><path d="m49.835 434.714h238.086c2.924 0 5.294-2.37 5.294-5.294v-100.463c0-2.924-2.37-5.294-5.294-5.294h-238.086c-2.924 0-5.294 2.37-5.294 5.294v100.463c.001 2.924 2.371 5.294 5.294 5.294z" fill="#fed2a4"/><path d="m145.232 388.622c-35.875 0-64.958-29.083-64.958-64.958h-30.439c-2.924 0-5.294 2.37-5.294 5.294v100.462c0 2.924 2.37 5.294 5.294 5.294h238.086c2.924 0 5.294-2.37 5.294-5.294v-40.798z" fill="#ffbd86"/><path d="m243.702 185.091h235.677c2.62 0 4.745-2.124 4.745-4.745v-95.641c0-2.62-2.124-4.745-4.745-4.745h-235.677z" fill="#fed2a4"/><path d="m338.044 79.961h-94.343v105.13h235.677c2.62 0 4.745-2.124 4.745-4.745v-27.141h-72.835c-40.451 0-73.244-32.793-73.244-73.244z" fill="#ffbd86"/><path d="m292.242 114.771h14.5c2.85 0 5.16-2.31 5.16-5.16v-31.59c0-5.93-4.8-10.74-10.74-10.74h-53.6-.04c-.92-26.11-22.39-47-48.73-47h-111.96c-1 0-1.99.02-2.98.07 0 16.6 13.45 30.06 30.05 30.06h2.07 24.1c22.57 0 40.87 18.29 40.87 40.86v36.66l-2.26 82.29v46.53 1.14h22.51c25.61 0 46.37-20.76 46.37-46.37v-13.75h1.55 52.05c5.94 0 10.74-4.81 10.74-10.74v-31.59c0-2.85-2.31-5.16-5.16-5.16h-14.5c-9.8 0-17.75-7.95-17.75-17.76 0-4.9 1.99-9.34 5.2-12.55s7.65-5.2 12.55-5.2z" fill="#fd8087"/><path d="m202.052 160.971v16.19c0 12.57-6.89 24.13-17.94 30.12l-5.43 2.94v46.53 1.14h-11.65c-14.68 0-27.56-7.74-34.77-19.36-3.88-6.25-6.12-13.62-6.12-21.52v-52.95c0-21.82 17.69-39.5 39.5-39.5 5.46 0 10.65 1.21 15.3 3.37 3.91 1.8 7.44 4.29 10.45 7.29 6.58 6.59 10.66 15.7 10.66 25.75z" fill="#fe646f"/><path d="m412.852 461.311h-2-24.11c-22.56 0-40.86-18.3-40.86-40.87v-36.65l2.26-82.3-.09-47.67h-22.42c-25.61 0-46.37 20.76-46.37 46.37v13.76h-1.55-52.06c-5.93 0-10.73 4.8-10.73 10.73v31.59c0 2.85 2.3 5.16 5.15 5.16h14.51c9.8 0 17.75 7.95 17.75 17.76 0 4.9-1.99 9.34-5.2 12.55s-7.65 5.2-12.55 5.2h-14.51c-2.85 0-5.15 2.31-5.15 5.16v31.59c0 5.93 4.8 10.74 10.73 10.74h53.61.04c.92 26.11 22.38 47 48.72 47h111.97c1 0 1.99-.02 2.98-.07-.04-16.61-13.51-30.05-30.12-30.05z" fill="#01c0fa"/><path d="m351.425 470.126c-22.401 0-41.273-15.11-46.982-35.69-1.837-6.623-7.714-11.31-14.587-11.31h-40.801c-5.926 0-10.73-4.804-10.73-10.73v-15.859c-1.208.26-2.458.404-3.742.404h-14.51c-2.844 0-5.15 2.306-5.15 5.15v31.6c0 5.932 4.808 10.74 10.74 10.74h53.6.04c.92 26.11 22.38 47 48.72 47h111.97c1 0 1.99-.02 2.98-.07-.02-8.296-3.39-15.8-8.828-21.235z" fill="#08a9f1"/><path d="m345.882 383.791c-3.91-1.81-7.44-4.29-10.45-7.3-6.58-6.59-10.66-15.69-10.66-25.74v-16.2c0-12.57 6.89-24.13 17.94-30.12l5.43-2.94-.09-47.67h11.74c14.68 0 27.56 7.74 34.77 19.37 3.88 6.25 6.12 13.62 6.12 21.52v52.94c0 21.82-17.69 39.5-39.5 39.5-5.46 0-10.65-1.2-15.3-3.36z" fill="#08a9f1"/><path d="m126.145 246.027c.691 0 1.357-.101 1.992-.276 8.823 11.907 22.971 19.642 38.895 19.642h34.157c29.704 0 53.869-24.166 53.869-53.869v-6.256h46.108c8.118 0 15.007-5.333 17.365-12.677h163.75c4.143 0 7.5-3.358 7.5-7.5s-3.357-7.5-7.5-7.5h-162.875v-22.152c0-6.98-5.679-12.658-12.659-12.658h-14.501c-5.654 0-10.254-4.6-10.254-10.254s4.6-10.254 10.254-10.254h14.501c6.98 0 12.659-5.678 12.659-12.658v-22.154h162.876c4.143 0 7.5-3.358 7.5-7.5s-3.357-7.5-7.5-7.5h-163.75c-2.358-7.344-9.247-12.677-17.365-12.677h-46.883c-4.43-26.631-27.618-47.003-55.488-47.003h-111.969c-39.545 0-71.718 32.173-71.718 71.718v51.398c0 4.142 3.358 7.5 7.5 7.5s7.5-3.358 7.5-7.5v-51.398c0-31.274 25.444-56.718 56.718-56.718h111.969c22.752 0 41.263 18.51 41.263 41.262v50.305c0 4.142 3.358 7.5 7.5 7.5s7.5-3.358 7.5-7.5v-44.564h46.108c1.786 0 3.239 1.453 3.239 3.239v29.249h-12.16c-13.925 0-25.254 11.329-25.254 25.254s11.329 25.254 25.254 25.254h12.16v29.249c0 1.786-1.453 3.239-3.239 3.239h-46.108v-8.351c0-4.142-3.358-7.5-7.5-7.5s-7.5 3.358-7.5 7.5v29.607c0 21.433-17.437 38.869-38.869 38.869h-34.157c-18.41 0-33.387-14.977-33.387-33.387v-52.946c0-17.644 14.354-31.998 31.998-31.998 15.938 0 28.905 12.967 28.905 28.905v16.193c0 9.828-5.368 18.842-14.008 23.524l-5.432 2.943c-3.642 1.974-4.994 6.526-3.021 10.167s6.524 4.994 10.167 3.021l5.432-2.944c13.485-7.308 21.861-21.375 21.861-36.712v-16.193c0-15.868-8.462-29.795-21.109-37.51v-32.187c0-26.667-21.695-48.362-48.362-48.362h-19.106c-4.142 0-7.5 3.358-7.5 7.5s3.358 7.5 7.5 7.5h19.106c18.396 0 33.362 14.966 33.362 33.362v26.5c-2.532-.456-5.135-.707-7.796-.707-25.915 0-46.998 21.083-46.998 46.998v52.946c0 4.875.732 9.58 2.079 14.021h-33.897c-31.274 0-56.718-25.444-56.718-56.719v-8.411c0-4.142-3.358-7.5-7.5-7.5s-7.5 3.358-7.5 7.5v8.411c0 39.546 32.173 71.719 71.718 71.719z"/><path d="m365.821 53.863h106.854c4.143 0 7.5-3.358 7.5-7.5s-3.357-7.5-7.5-7.5h-106.854c-4.143 0-7.5 3.358-7.5 7.5s3.357 7.5 7.5 7.5z"/><path d="m495.444 53.863h8.771c4.143 0 7.5-3.358 7.5-7.5s-3.357-7.5-7.5-7.5h-8.771c-4.143 0-7.5 3.358-7.5 7.5s3.357 7.5 7.5 7.5z"/><path d="m340.048 207.455c-4.143 0-7.5 3.358-7.5 7.5s3.357 7.5 7.5 7.5h96.695c4.143 0 7.5-3.358 7.5-7.5s-3.357-7.5-7.5-7.5z"/><path d="m439.996 265.688h-39.317c-.691 0-1.357.101-1.992.276-8.823-11.907-22.971-19.643-38.896-19.643h-34.157c-29.703 0-53.869 24.166-53.869 53.869v6.257h-46.108c-6.979 0-13.048 3.944-16.114 9.717h-165.001c-4.142 0-7.5 3.358-7.5 7.5s3.358 7.5 7.5 7.5h162.876v25.112c0 6.98 5.678 12.658 12.658 12.658h14.502c5.654 0 10.254 4.6 10.254 10.254s-4.6 10.254-10.254 10.254h-14.502c-6.98 0-12.658 5.679-12.658 12.659v25.112h-162.876c-4.142 0-7.5 3.358-7.5 7.5s3.358 7.5 7.5 7.5h165.001c3.065 5.772 9.135 9.716 16.114 9.716h46.883c4.43 26.632 27.618 47.004 55.488 47.004h111.969c39.546 0 71.719-32.173 71.719-71.719v-89.809c-.002-39.544-32.174-71.717-71.72-71.717zm56.718 161.527c0 31.275-25.444 56.719-56.719 56.719h-111.968c-22.752 0-41.263-18.51-41.263-41.263v-50.305c0-4.142-3.357-7.5-7.5-7.5s-7.5 3.358-7.5 7.5v44.563h-46.108c-1.786 0-3.239-1.453-3.239-3.239v-29.249h12.16c13.925 0 25.254-11.329 25.254-25.254s-11.329-25.254-25.254-25.254h-12.16v-29.249c0-1.786 1.453-3.239 3.239-3.239h46.108v8.351c0 4.142 3.357 7.5 7.5 7.5s7.5-3.358 7.5-7.5v-29.606c0-21.433 17.437-38.869 38.869-38.869h34.157c18.409 0 33.387 14.977 33.387 33.387v5.516c0 4.142 3.357 7.5 7.5 7.5s7.5-3.358 7.5-7.5v-5.516c0-4.874-.732-9.58-2.079-14.02h33.897c31.274 0 56.719 25.444 56.719 56.718z"/><path d="m406.852 453.807h-20.106c-18.396 0-33.361-14.966-33.361-33.362v-26.5c2.532.456 5.135.707 7.796.707 25.914 0 46.997-21.083 46.997-46.998v-17.431c0-4.142-3.357-7.5-7.5-7.5s-7.5 3.358-7.5 7.5v17.431c0 17.644-14.354 31.998-31.997 31.998-15.938 0-28.905-12.967-28.905-28.905v-16.192c0-9.829 5.367-18.842 14.009-23.524l5.431-2.944c3.642-1.974 4.993-6.526 3.02-10.168s-6.526-4.993-10.168-3.02l-5.43 2.943c-13.484 7.307-21.861 21.374-21.861 36.712v16.192c0 15.868 8.462 29.795 21.109 37.51v32.188c0 26.667 21.694 48.362 48.361 48.362h20.106c4.143 0 7.5-3.358 7.5-7.5s-3.358-7.499-7.501-7.499z"/><path d="m164.226 459.683h-84.968c-4.142 0-7.5 3.358-7.5 7.5s3.358 7.5 7.5 7.5h84.968c4.142 0 7.5-3.358 7.5-7.5s-3.358-7.5-7.5-7.5z"/><path d="m45.158 285.82c-4.142 0-7.5 3.358-7.5 7.5s3.358 7.5 7.5 7.5h59.038c4.142 0 7.5-3.358 7.5-7.5s-3.358-7.5-7.5-7.5z"/><path d="m21.921 285.82h-14.421c-4.142 0-7.5 3.358-7.5 7.5s3.358 7.5 7.5 7.5h14.421c4.142 0 7.5-3.358 7.5-7.5s-3.358-7.5-7.5-7.5z"/></svg>