<svg id="Capa_1" enable-background="new 0 0 511.175 511.175" height="512" viewBox="0 0 511.175 511.175" width="512" xmlns="http://www.w3.org/2000/svg"><path d="m423.107 147.744h19.461c1.849 0 3.348-1.499 3.348-3.348v-131.875c0-2.773-2.248-5.021-5.021-5.021h-16.115c-2.773 0-5.021 2.248-5.021 5.021v131.875c0 1.849 1.499 3.348 3.348 3.348z" fill="#bfbfbf"/><path d="m87.14 147.744h-19.461c-1.849 0-3.348-1.499-3.348-3.348v-131.875c0-2.773 2.248-5.021 5.021-5.021h16.115c2.773 0 5.021 2.248 5.021 5.021v131.875c0 1.849-1.499 3.348-3.348 3.348z" fill="#bfbfbf"/><path d="m52.487 179.68h406.2c4.071 0 7.372-3.3 7.372-7.372v-38.294c0-4.071-3.3-7.372-7.372-7.372h-406.2c-4.071 0-7.372 3.3-7.372 7.372v38.294c.001 4.072 3.301 7.372 7.372 7.372z" fill="#9c9c9c"/><path d="m45.116 156.395v15.913c0 4.071 3.3 7.372 7.372 7.372h406.2c4.071 0 7.372-3.3 7.372-7.372v-15.913z" fill="#838383"/><path d="m255.588 211.403h-40.201v33.333c-2.415 48.206-14.062 93.569-33.23 136.618-1.282 2.88-2.722 5.688-4.267 8.436l-34.917 62.111c-10.954 16.422-22.981 32.105-35.966 47.607-1.216 1.452-.195 3.661 1.698 3.661h146.884v-291.766z" fill="#fe646f"/><path d="m403.471 499.52c-63.294-76.747-103.854-159.852-108.61-254.784v-33.333h-39.273v291.765h146.174c1.885 0 2.909-2.193 1.709-3.648z" fill="#00f2a6"/><path d="m316.863 503.168c-27.085-77.24-44.468-162.817-46.493-258.432v-33.333h-30.493v33.333c-2.025 95.615-19.409 181.184-46.494 258.432z" fill="#fee903"/><path d="m255.124 94.775c-13.304 0-24.088 10.785-24.088 24.088v41.718h48.176v-41.718c0-13.304-10.785-24.088-24.088-24.088z" fill="#ebebeb"/><path d="m265.789 97.264c-3.216-1.591-6.835-2.489-10.665-2.489-13.303 0-24.088 10.785-24.088 24.088v41.718h21.33v-41.718c0-9.473 5.47-17.665 13.423-21.599z" fill="#e2e2e2"/><path d="m231.035 130.083h48.176v23.709h-48.176z" fill="#fe646f"/><path d="m231.035 130.083h21.33v23.709h-21.33z" fill="#fd4755"/><path d="m248.499 153.585-12.56 68.11c-.01.03-.01.06-.01.09l-1.82 9.85c-1.4 7.59-8.01 13.1-15.73 13.1-11.31 0-19.05-11.41-14.87-21.91l27.53-69.24z" fill="#cecece"/><path d="m274.319 221.785c.22 1.17.32 2.33.32 3.48 0 10.52-8.55 19.47-19.51 19.47-12.16 0-21.34-10.99-19.2-22.95 0-.03 0-.06.01-.09l12.56-68.11h13.25l12.56 68.11c.01.03.01.06.01.09z" fill="#e2e2e2"/><path d="m306.739 222.825c4.18 10.5-3.56 21.91-14.87 21.91-7.72 0-14.33-5.51-15.73-13.1l-1.82-9.85c0-.03 0-.06-.01-.09l-12.56-68.11h17.46z" fill="#ebebeb"/><path d="m366.44 277.685c-4.403 7.199-10.068 13.017-17.163 17.27-1.494.896-1.503 3.078-.011 3.978 7.401 4.464 13.228 10.022 17.194 16.873.896 1.547 3.121 1.556 4.023.014 4.131-7.063 9.814-12.764 17.154-17.013 1.52-.88 1.511-3.056.028-3.999-6.987-4.441-12.91-9.977-17.266-17.123-.899-1.475-3.059-1.472-3.959 0z" fill="#fee903"/><path d="m161.469 399.292c-5.061 8.388-11.628 15.129-19.906 19.997-1.533.902-1.475 3.121.053 4.032 8.628 5.141 15.38 11.585 19.902 19.58.885 1.565 3.145 1.597 4.039.037 4.741-8.274 11.348-14.911 19.951-19.797 1.53-.869 1.527-3.057.036-3.991-8.164-5.115-15.06-11.536-20.065-19.901-.907-1.517-3.097-1.471-4.01.043z" fill="#fee903"/><path d="m361.596 322.745c1.195 2.67 3.833 4.402 6.758 4.437h.088c2.891 0 5.528-1.663 6.772-4.278 4.132-8.686 10.429-14.977 19.251-19.232 2.52-1.215 4.154-3.733 4.238-6.529.084-2.797-1.396-5.408-3.838-6.772-9.256-5.172-15.706-11.577-19.719-19.58-1.261-2.514-3.822-4.112-6.635-4.138-2.771-.025-5.403 1.524-6.71 4.015-4.73 9.013-11.09 15.399-19.444 19.524-2.531 1.25-4.146 3.815-4.179 6.637-.033 2.823 1.521 5.425 4.022 6.733 9.501 4.972 15.845 11.246 19.396 19.183zm6.854-34.856c2.597 3.177 5.571 6.104 8.943 8.801-3.338 2.608-6.323 5.564-8.945 8.859-2.553-3.127-5.523-6.011-8.904-8.644 3.26-2.636 6.231-5.645 8.906-9.016z"/><path d="m156.666 449.913c1.195 2.67 3.833 4.402 6.758 4.437h.088c2.891 0 5.528-1.663 6.772-4.278 4.741-9.964 11.963-17.18 22.08-22.061 2.52-1.215 4.154-3.733 4.238-6.529.084-2.797-1.396-5.408-3.838-6.773-10.574-5.909-17.95-13.238-22.548-22.408-1.261-2.515-3.822-4.112-6.635-4.138-.023 0-.046 0-.07 0-2.786 0-5.345 1.545-6.641 4.015-5.413 10.314-12.698 17.625-22.272 22.353-2.531 1.25-4.146 3.815-4.179 6.637-.033 2.823 1.521 5.425 4.022 6.733 10.874 5.69 18.143 12.89 22.225 22.012zm6.844-40.311c3.279 4.17 7.131 7.962 11.586 11.408-4.395 3.298-8.256 7.121-11.569 11.456-3.213-4.108-7.064-7.85-11.536-11.21 4.278-3.327 8.123-7.217 11.519-11.654z"/><path d="m459.426 119.143h-6.01v-27.183c0-4.142-3.358-7.5-7.5-7.5s-7.5 3.358-7.5 7.5v27.183h-11.158v-104.143h11.158v46.96c0 4.142 3.358 7.5 7.5 7.5s7.5-3.358 7.5-7.5v-52.787c0-5.058-4.115-9.173-9.173-9.173h-22.812c-5.058 0-9.173 4.115-9.173 9.173v12.292h-23.972v-13.965c0-4.142-3.358-7.5-7.5-7.5s-7.5 3.358-7.5 7.5v13.965h-26.733v-13.965c0-4.142-3.358-7.5-7.5-7.5s-7.5 3.358-7.5 7.5v13.965h-26.733v-13.965c0-4.142-3.358-7.5-7.5-7.5s-7.5 3.358-7.5 7.5v13.965h-26.733v-13.965c0-4.142-3.358-7.5-7.5-7.5s-7.5 3.358-7.5 7.5v13.965h-26.733v-13.965c0-4.142-3.358-7.5-7.5-7.5s-7.5 3.358-7.5 7.5v13.965h-26.733v-13.965c0-4.142-3.358-7.5-7.5-7.5s-7.5 3.358-7.5 7.5v13.965h-26.733v-13.965c0-4.142-3.358-7.5-7.5-7.5s-7.5 3.358-7.5 7.5v13.965h-24.9v-12.292c0-5.058-4.114-9.173-9.173-9.173h-22.812c-5.058 0-9.173 4.115-9.173 9.173v109.97h-5.082c-7.793 0-14.133 6.34-14.133 14.133v39.771c0 7.793 6.34 14.133 14.133 14.133h129.662c4.142 0 7.5-3.358 7.5-7.5s-3.358-7.5-7.5-7.5h-128.794v-8.285h138.594c4.142 0 7.5-3.358 7.5-7.5s-3.358-7.5-7.5-7.5h-138.594v-14.753h151.114c4.142 0 7.5-3.358 7.5-7.5s-3.358-7.5-7.5-7.5h-24.109v-16.688h24.109c4.142 0 7.5-3.358 7.5-7.5s-3.358-7.5-7.5-7.5h-24.109v-17.995h26.733v8.965c0 4.142 3.358 7.5 7.5 7.5s7.5-3.358 7.5-7.5v-8.965h68.466v8.965c0 4.142 3.358 7.5 7.5 7.5s7.5-3.358 7.5-7.5v-8.965h26.733v17.995h-25.037c-4.142 0-7.5 3.358-7.5 7.5s3.358 7.5 7.5 7.5h25.037v16.688h-25.036c-4.142 0-7.5 3.358-7.5 7.5s3.358 7.5 7.5 7.5h152.043v14.753h-139.522c-4.142 0-7.5 3.358-7.5 7.5s3.358 7.5 7.5 7.5h139.522v8.285h-129.724c-4.142 0-7.5 3.358-7.5 7.5s3.358 7.5 7.5 7.5h130.59c7.793 0 14.133-6.34 14.133-14.133v-39.771c.001-7.793-6.34-14.133-14.133-14.133zm-47.167-31.689h-23.972v-17.995h23.972zm0 15v16.688h-23.972v-16.688zm0-65.989v17.994h-23.972v-17.994zm-38.972 0v17.994h-26.733v-17.994zm-208.665 0v17.994h-26.733v-17.994zm-41.733 0v17.994h-24.9v-17.994zm-24.901 32.994h24.9v17.995h-24.9zm-26.157-54.459h11.158v102.91h-11.158zm26.157 87.454h24.9v16.688h-24.9zm66.634 16.689h-26.733v-16.688h26.733zm0-31.689h-26.733v-17.995h26.733zm15-32.995v-17.994h26.733v17.994zm41.732-17.994h26.733v17.994h-26.733zm41.733 17.994v-17.994h26.733v17.994zm41.733 0v-17.994h26.733v17.994zm41.733 15h26.733v17.995h-26.733zm0 32.995h26.733v16.688h-26.733z"/><path d="m464.186 496.175h-53.729c-66.99-80.791-102.29-161.533-107.783-246.572 3.424-1.772 6.412-4.382 8.646-7.673 4.378-6.453 5.272-14.632 2.391-21.878l-26.999-67.908v-33.281c0-17.418-14.17-31.588-31.588-31.588-17.417 0-31.588 14.17-31.588 31.588v33.281l-26.999 67.908c-2.881 7.247-1.987 15.425 2.391 21.878 2.232 3.29 5.219 5.899 8.641 7.671-2.925 45.101-14.396 89.799-34.178 132.939-1.727 3.765-.074 8.217 3.691 9.943 1.013.464 2.075.685 3.121.685 2.842 0 5.561-1.624 6.822-4.376 20.358-44.396 32.25-90.423 35.429-136.914 3.623-.636 6.972-2.117 9.844-4.232-2.122 85.887-16.896 167.28-45.118 248.53h-67.71c11.22-13.822 21.021-27.042 29.74-40.113 2.299-3.446 1.368-8.103-2.078-10.401-3.447-2.3-8.103-1.369-10.401 2.078-10.416 15.616-22.45 31.485-36.727 48.437h-39.091c-4.142 0-7.5 3.358-7.5 7.5s3.358 7.5 7.5 7.5h403.272c4.142 0 7.5-3.358 7.5-7.5s-3.357-7.502-7.499-7.502zm-165.279-262.667c-1.607 2.369-4.171 3.728-7.035 3.728-4.101 0-7.617-2.927-8.36-6.961l-8.139-44.166-4.612-25.029h3.362l25.649 64.514c1.058 2.66.742 5.545-.865 7.914zm-60.371-96.137h33.176v8.709h-33.176zm7.362 95.542c-2.287-2.747-3.228-6.339-2.58-9.855l11.421-61.978h.768l4.656 25.267 6.764 36.709c.648 3.516-.292 7.108-2.58 9.856s-5.65 4.323-9.225 4.323-6.936-1.575-9.224-4.322zm9.226-130.639c9.147 0 16.588 7.441 16.588 16.588v3.508h-33.176v-3.508c0-9.146 7.441-16.588 16.588-16.588zm-36.749 134.962c-2.863 0-5.427-1.359-7.035-3.728s-1.923-5.253-.865-7.914l25.65-64.514h3.362l-10.92 59.258c0 .001 0 .002-.001.004l-1.831 9.933c-.742 4.034-4.258 6.961-8.36 6.961zm28.841 13.813c2.533.774 5.191 1.187 7.908 1.187 2.715 0 5.372-.413 7.904-1.186.472 16.658 1.426 33.38 2.848 49.798.338 3.907 3.614 6.854 7.463 6.854.217 0 .436-.009.656-.028 4.127-.357 7.183-3.993 6.825-8.119-1.482-17.108-2.43-34.55-2.86-51.9 2.868 2.11 6.211 3.587 9.826 4.223 5.742 84.44 39.627 164.56 103.336 244.299h-68.046c-19.284-55.499-32.108-110.146-39.134-166.896-.509-4.111-4.256-7.027-8.365-6.522-4.111.509-7.031 4.254-6.522 8.365 6.95 56.133 19.453 110.232 38.147 165.053h-104.156c27.31-80.148 41.788-160.514 44.17-245.128z"/></svg>