<svg id="Capa_1" enable-background="new 0 0 510.093 510.093" height="512" viewBox="0 0 510.093 510.093" width="512" xmlns="http://www.w3.org/2000/svg"><path d="m367.95 184.363 7.858-10.429c5.45-7.232 4.437-17.473-2.377-23.438-6.339-5.549-12.83-10.449-19.38-14.774-8.052-5.317-18.91-2.944-24.099 5.191l-6.09 9.547-6.867 11.291 42.038 33.578z" fill="#017bae"/><path d="m333.458 420.416c-7.6-5.66-13.87-11.33-18.28-15.65-11.05-10.79-15.04-26.64-10.42-41.38 23.13-73.75 60.07-107.31 84.53-122.1l10.787-5.827c-56.624-131.759-194.371-100.693-194.371-100.693l-77.39 3.21v300.04h24.94l37.5-3.4c19.38-1.76 38.89-1.3 58.16 1.35l72.7 10c5.06.7 10.03-1.82 12.47-6.31l7.531-13.856z" fill="#08a9f1"/><path d="m270.814 255.047c0-45.869-16.936-88.07-38.587-123.288-16.18.676-26.523 3.008-26.523 3.008l-77.39 3.21v300.04h24.94l36.422-3.302c36.9-40.958 81.138-105.525 81.138-179.668z" fill="#0290cf"/><path d="m205.32 375.909c5.699 3.316 12.317 5.224 19.385 5.224 21.325 0 38.612-17.287 38.612-38.613 0-16.296-10.1-30.224-24.378-35.892l-16.331-6.737-34.191 66.456z" fill="#fef1da"/><path d="m238.94 306.629-16.331-6.737-34.191 66.456 16.902 9.561c5.699 3.316 12.317 5.224 19.385 5.224 2.071 0 4.103-.168 6.085-.482 10.839-17.314 20.583-36.363 27.742-56.746-4.305-7.802-11.23-13.957-19.592-17.276z" fill="#fddeb0"/><path d="m246.814 255.047c0 90.628-75.755 167.602-106.712 195.274-7.297 6.523-18.593 6.523-25.89 0-30.957-27.672-106.712-104.647-106.712-195.274s75.755-167.603 106.712-195.274c7.297-6.523 18.593-6.523 25.89 0 30.957 27.671 106.712 104.646 106.712 195.274z" fill="#d6694b"/><path d="m68.762 255.047c0-76.215 53.574-142.77 89.026-178.47-6.704-6.751-12.763-12.403-17.686-16.804-7.297-6.523-18.593-6.523-25.89 0-30.957 27.671-106.712 104.646-106.712 195.274s75.755 167.602 106.712 195.273c7.297 6.523 18.593 6.523 25.89 0 4.923-4.401 10.982-10.053 17.686-16.804-35.453-35.7-89.026-102.254-89.026-178.469z" fill="#c4573a"/><path d="m214.855 149.363c-6.619-11.246-13.821-21.798-21.163-31.523h-133.07c-7.341 9.725-14.544 20.277-21.163 31.523z" fill="#fef1da"/><path d="m38.715 359.464c6.537 11.233 13.669 21.782 20.956 31.522h134.973c7.287-9.74 14.419-20.29 20.956-31.522z" fill="#fef1da"/><path d="m119.657 117.841h-10.339-48.696c-7.341 9.725-14.544 20.277-21.163 31.523h61.261c6.62-11.248 13.826-21.796 21.168-31.523z" fill="#fddeb0"/><path d="m119.657 390.986h1.279c-7.288-9.741-14.424-20.287-20.962-31.522h-61.259c6.537 11.233 13.669 21.782 20.956 31.522h40.767z" fill="#fddeb0"/><path d="m400.154 235.637c3.44 8.02 0 17.39-7.81 21.3-19.89 9.93-56.5 37.52-79.53 110.99-1.62 5.14-.21 10.74 3.65 14.5 5.4 5.28 14.06 12.96 24.53 19.46 5.7 3.54 7.72 10.85 4.52 16.74l-7.02 12.92-1.48-.8-20.78-13.72c-7.6-5.66-13.87-11.33-18.28-15.65-11.05-10.79-15.04-26.64-10.42-41.38 23.13-73.75 60.07-107.31 84.53-122.1l22.9-12.37.43-.22c1.62 3.28 3.18 6.67 4.69 10.17.02.06.05.11.07.16z" fill="#fef1da"/><path d="m501.166 335.61c-5.674-4.616-13.035-6.412-20.146-4.934l-77.587 15.55-14.377-78.896c2.379-1.453 4.606-2.672 6.644-3.689 11.369-5.681 16.353-19.281 11.318-31.022-.002-.004-.041-.095-.043-.099-8.334-19.395-18.393-35.337-29.417-48.445l4.24-5.627c7.788-10.337 6.283-25.094-3.428-33.595-6.355-5.563-13.147-10.741-20.187-15.39-5.563-3.672-12.222-4.929-18.76-3.538-6.572 1.399-12.182 5.289-15.795 10.954l-2.534 3.971c-13.218-6.12-26.17-10.025-37.895-12.483-33.735-7.073-62.708-3.73-74.06-1.863-22.756-33.167-48.704-58.614-64.04-72.323-10.062-8.993-25.825-8.993-35.886 0-32.837 29.353-109.213 107.684-109.213 200.866 0 93.183 76.376 171.513 109.214 200.865 5.032 4.498 11.486 6.746 17.943 6.746 6.456 0 12.913-2.249 17.943-6.746 3.361-3.004 7.234-6.575 11.468-10.664l34.866-3.162c18.779-1.702 37.773-1.264 56.455 1.307l72.701 10.002c.891.123 1.779.182 2.663.182 7.166 0 13.946-3.938 17.425-10.339l11.43-21.032c4.563-8.395 2.455-18.717-4.631-24.81l48.961-5.896 2.151 11.803c3.139 17.224 16.934 30.136 34.378 32.136l50.168 5.41c.918.105 1.836.157 2.751.157 5.908 0 11.662-2.168 16.116-6.14 5.143-4.587 8.093-11.17 8.093-18.062v-62.42c-.002-7.315-3.256-14.158-8.929-18.774zm-17.147 9.763c2.725-.565 5.523.117 7.68 1.872s3.395 4.357 3.395 7.138v10.129l-86.431 10.407-2.54-13.934zm-97.105-6.129-41.113-26.891c10.013-15.981 20.405-27.282 29.791-35.236zm-50.638-194.299c1.435-2.25 3.662-3.794 6.271-4.35 2.571-.546 5.189-.057 7.371 1.384 6.476 4.276 12.725 9.04 18.572 14.159 3.83 3.353 4.413 9.187 1.327 13.282l-2.59 3.437c-10.503-10.402-21.615-18.604-32.77-25.063zm-271.974-19.598h55.355v16.517h-66.822c3.717-5.723 7.562-11.235 11.467-16.517zm70.355 0h55.297c3.127 4.233 6.218 8.613 9.237 13.135.156.275.332.534.519.784.571.861 1.14 1.726 1.705 2.597h-66.758zm43.6-15h-43.6v-45.344c.149.12.302.233.446.362 10.696 9.56 26.792 25.072 43.154 44.982zm-59.047-44.983c.144-.129.298-.242.447-.362v45.344h-43.643c16.217-19.711 32.245-35.192 43.196-44.982zm-75.51 91.499h75.957v22.545h-14.256c-4.142 0-7.5 3.358-7.5 7.5s3.358 7.5 7.5 7.5h14.256v19.069h-14.256c-4.142 0-7.5 3.358-7.5 7.5s3.358 7.5 7.5 7.5h14.256v19.069h-14.256c-4.142 0-7.5 3.358-7.5 7.5s3.358 7.5 7.5 7.5h14.256v19.069h-14.256c-4.142 0-7.5 3.358-7.5 7.5s3.358 7.5 7.5 7.5h14.256v19.069h-14.256c-4.142 0-7.5 3.358-7.5 7.5s3.358 7.5 7.5 7.5h14.256v22.545h-75.957c-16.53-29.083-28.7-62.582-28.7-98.182 0-35.601 12.171-69.1 28.7-98.184zm199.573 160.702c7.794 5.767 12.545 14.899 12.545 24.955 0 17.156-13.957 31.113-31.112 31.113-2.808 0-5.591-.387-8.276-1.128 10.553-16.771 20.017-35.231 26.843-54.94zm-53.318 67.181h-55.298v-16.516h66.759c-3.717 5.725-7.561 11.237-11.461 16.516zm-70.298 0h-55.355c-3.905-5.282-7.75-10.794-11.467-16.517h66.822zm-43.643 15h43.643v45.344c-.149-.12-.303-.233-.447-.362-10.951-9.789-26.979-25.271-43.196-44.982zm59.09 44.983c-.144.129-.297.241-.446.362v-45.344h43.6c-10.676 12.991-21.235 24.105-30.258 32.919-.013.013-.026.025-.038.037-4.792 4.678-9.151 8.712-12.858 12.026zm187.53-6.194-72.701-10.002c-19.807-2.724-39.944-3.19-59.854-1.385l-17.285 1.568c11.26-12.103 23.542-26.701 35.08-43.289 5.343 2.096 11.052 3.207 16.831 3.207 25.426 0 46.112-20.686 46.112-46.113 0-16.711-8.826-31.727-22.964-39.887 2.766-10.362 4.747-21.018 5.733-31.911.374-4.125-2.667-7.772-6.792-8.146-4.135-.376-7.772 2.667-8.146 6.793-2.74 30.254-13.807 58.718-28.098 83.859h-75.893v-22.545h12.289c4.142 0 7.5-3.358 7.5-7.5s-3.358-7.5-7.5-7.5h-12.289v-19.069h12.289c4.142 0 7.5-3.358 7.5-7.5s-3.358-7.5-7.5-7.5h-12.289v-19.069h12.289c4.142 0 7.5-3.358 7.5-7.5s-3.358-7.5-7.5-7.5h-12.289v-19.069h12.289c4.142 0 7.5-3.358 7.5-7.5s-3.358-7.5-7.5-7.5h-12.289v-19.069h12.289c4.142 0 7.5-3.358 7.5-7.5s-3.358-7.5-7.5-7.5h-12.289v-22.545h75.892c14.292 25.142 25.359 53.606 28.099 83.859.374 4.125 4.021 7.174 8.146 6.793 4.125-.374 7.167-4.021 6.792-8.146-3.293-36.355-17.644-70.084-35.409-98.974 12.91-1.524 36.027-2.782 61.945 2.651 23.026 4.828 43.62 13.948 61.209 27.106 17.708 13.249 32.453 30.708 44.005 52.052l-16.835 9.091c-.107.058-.213.118-.316.181-21.709 13.125-52.493 40.093-75.869 94.034-1.646 3.8.099 8.216 3.899 9.864.972.421 1.983.62 2.979.62 2.899 0 5.659-1.69 6.886-4.52 21.745-50.18 49.881-75.039 69.712-87.068l16.168-8.731c.418.935.846 1.86 1.253 2.808l.045.106c1.882 4.388.01 9.498-4.262 11.632-3.468 1.732-7.562 4.059-12.062 7.099-.247.148-.485.307-.711.48-8.434 5.787-18.26 14.109-28.213 25.984-6.849 8.172-13.176 17.324-18.973 27.39-.014.026-.03.051-.044.077-9.148 15.901-16.963 34.095-23.34 54.431-2.468 7.873-.336 16.344 5.565 22.108 5.688 5.555 14.784 13.616 25.822 20.471 2.336 1.45 3.165 4.429 1.887 6.781l-3.192 5.873-15.187-10.029c-7.474-5.584-13.56-11.166-17.358-14.875-9.014-8.804-12.271-21.743-8.501-33.767.354-1.126.71-2.242 1.069-3.348 1.277-3.94-.881-8.17-4.821-9.448-3.937-1.277-8.171.879-9.448 4.821-.373 1.152-.745 2.314-1.112 3.486-5.47 17.445-.744 36.215 12.333 48.988 6.043 5.9 12.451 11.384 19.045 16.297.114.084.23.166.349.244l16.444 10.859-1.05 1.932c-.947 1.743-2.905 2.732-4.864 2.46zm7.165-54.119c-3.178-2.683-5.916-5.222-8.099-7.354-1.839-1.796-2.503-4.438-1.734-6.891 5.492-17.516 11.751-32.305 18.345-44.792l52.313 34.215 3.12 17.123zm162.217 39.255c-1.984 1.77-4.523 2.578-7.225 2.27l-50.168-5.41c-10.782-1.236-19.334-9.24-21.278-19.917l-1.989-10.91 83.737-10.083v37.183c0 2.658-1.093 5.097-3.077 6.867z"/></svg>