<svg id="Capa_1" enable-background="new 0 0 508.622 508.622" height="512" viewBox="0 0 508.622 508.622" width="512" xmlns="http://www.w3.org/2000/svg"><path d="m177.703 67.411v-34.273c0-8.328-6.752-15.08-15.08-15.08-8.328 0-15.08 6.752-15.08 15.08v19.911c0 7.382-5.984 13.366-13.366 13.366-7.382 0-13.366-5.984-13.366-13.366v-31.784c0-7.602-6.163-13.765-13.765-13.765-7.602 0-13.765 6.163-13.765 13.765v175.84 24.833h84.423v-154.527z" fill="#6bd9e7"/><path d="m152.888 66.416c7.382 0 13.366-5.984 13.366-13.366v-19.912c0-4.791 2.241-9.051 5.724-11.813-2.572-2.04-5.818-3.267-9.356-3.267-8.328 0-15.08 6.751-15.08 15.08v19.911c0 3.737-1.538 7.113-4.01 9.538 2.411 2.366 5.711 3.829 9.356 3.829z" fill="#03bed7"/><path d="m111.991 21.265c0-3.985 1.703-7.563 4.409-10.077-2.457-2.282-5.738-3.688-9.356-3.688-7.602 0-13.765 6.163-13.765 13.765v175.84 24.833h18.712v-24.833z" fill="#03bed7"/><path d="m434.688 212.168v-177.434c0-7.554-6.124-13.678-13.678-13.678-7.554 0-13.678 6.124-13.678 13.678v24.94c0 6.671-5.408 12.078-12.078 12.078-6.671 0-12.078-5.408-12.078-12.078v-8.426c0-7.856-6.369-14.225-14.225-14.225-7.856 0-14.225 6.369-14.225 14.225v33.642 138.709h79.962z" fill="#6bd9e7"/><path d="m412.806 71.752c6.671 0 12.078-5.408 12.078-12.079v-24.94c0-4.212 1.907-7.977 4.902-10.486-2.376-1.991-5.435-3.193-8.777-3.193-7.554 0-13.678 6.124-13.678 13.678v24.94c0 3.209-1.26 6.118-3.302 8.281 2.203 2.335 5.316 3.799 8.777 3.799z" fill="#03bed7"/><path d="m372.279 51.247c0-4.541 2.135-8.575 5.448-11.179-2.419-1.901-5.461-3.045-8.777-3.045-7.856 0-14.225 6.369-14.225 14.225v33.643 138.709h17.553v-138.709-33.644z" fill="#03bed7"/><circle cx="254.299" cy="211.73" fill="#fe7d43" r="161.69"/><path d="m339.963 337.416c-89.299 0-161.69-72.391-161.69-161.69 0-50.237 22.91-95.122 58.853-124.778-81.225 8.576-144.517 77.285-144.517 160.782 0 89.299 72.391 161.69 161.69 161.69 39.063 0 74.89-13.852 102.837-36.912-5.643.596-11.371.908-17.173.908z" fill="#fd6930"/><path d="m246.992 311.969c-3.488-2.235-8.126-1.219-10.361 2.269l-6.503 10.151c-.088.137-.171.276-.25.418-7.936 14.361-13.439 28.415-16.357 41.771-.016.074-.031.149-.045.224l-.252 1.348c4.808 1.259 9.706 2.297 14.678 3.114l.298-1.594c2.6-11.841 7.542-24.42 14.691-37.396l6.371-9.944c2.234-3.488 1.218-8.127-2.27-10.361z" fill="#fd6930"/><path d="m415.991 204.249c27.17 6.48 47.37 30.92 47.37 60.07 0 17.05-6.91 32.5-18.09 43.68-11.18 11.17-26.62 18.09-43.67 18.09h-34.31-226.13-34.14c-34.11 0-61.76-27.66-61.76-61.77 0-14.57 5.05-27.97 13.5-38.54 8.44-10.56 20.29-18.29 33.87-21.53l.17.01c-.11 2.44-.17 4.89-.17 7.35 0 9.25.78 18.32 2.27 27.14l-2.3.41c-8.71 5.01-14.59 14.41-14.59 25.16 0 16 13.02 29.02 29.01 29.02h6.84 280.64 7.1c15.99 0 29.01-13.02 29.01-29.02 0-10.76-5.89-20.17-14.62-25.18l-2.27-.4c1.49-8.82 2.27-17.88 2.27-27.13 0-2.46-.06-4.91-.17-7.35z" fill="#fee903"/><g fill="#fed402"><path d="m429.334 255.851c.828-2.693 1.276-5.551 1.276-8.512 0-10.76-5.89-20.17-14.62-25.18l-.338-.06c-.362 5.63-1.01 11.181-1.932 16.639l2.27.4c6.34 3.639 11.168 9.603 13.344 16.713z"/><path d="m445.271 291.019c-11.18 11.17-26.62 18.09-43.67 18.09h-34.31-226.13-34.14c-31.238 0-57.042-23.204-61.169-53.309-.385 2.786-.591 5.628-.591 8.519 0 34.11 27.65 61.77 61.76 61.77h34.14 226.13 34.31c17.05 0 32.49-6.92 43.67-18.09 11.18-11.18 18.09-26.63 18.09-43.68 0-2.892-.207-5.734-.591-8.52-1.874 13.667-8.202 25.922-17.499 35.22z"/><path d="m78.011 247.339c0 2.961.448 5.82 1.277 8.513 2.174-7.1 6.991-13.056 13.313-16.693l2.3-.41c-.922-5.455-1.57-11.006-1.932-16.636l-.369.066c-8.709 5.009-14.589 14.41-14.589 25.16z"/></g><path d="m235.039 106.408c-8.103 0-14.673-6.569-14.673-14.673v-68.206c0-8.103 6.569-14.673 14.673-14.673 8.103 0 14.673 6.569 14.673 14.673v68.206c0 8.104-6.57 14.673-14.673 14.673z" fill="#6bd9e7"/><path d="m235.039 91.735v-68.206c0-5.428 2.955-10.156 7.336-12.694-2.16-1.251-4.661-1.979-7.336-1.979-8.103 0-14.673 6.569-14.673 14.672v68.207c0 8.104 6.569 14.673 14.673 14.673 2.676 0 5.176-.728 7.336-1.979-4.381-2.538-7.336-7.266-7.336-12.694z" fill="#03bed7"/><path d="m470.858 264.323c0-22.891-11.048-43.501-28.67-56.192v-173.398c0-11.678-9.5-21.178-21.178-21.178s-21.178 9.5-21.178 21.178v24.94c0 2.524-2.054 4.579-4.579 4.579s-4.578-2.054-4.578-4.579v-8.426c0-11.979-9.746-21.725-21.725-21.725s-21.725 9.746-21.725 21.725v19.053c-8.371-5.523-17.255-10.327-26.571-14.313-.463-.26-.958-.477-1.486-.638-.029-.009-.058-.013-.087-.022-19.117-7.953-39.994-12.492-61.87-12.862v-18.936c0-12.226-9.947-22.172-22.173-22.172s-22.172 9.946-22.172 22.172v24.036c-9.502 2.399-18.76 5.624-27.664 9.623v-24.05c0-12.45-10.129-22.58-22.58-22.58s-22.58 10.129-22.58 22.58v19.911c0 3.235-2.631 5.866-5.866 5.866s-5.867-2.631-5.867-5.866v-31.784c.001-11.725-9.539-21.265-21.264-21.265s-21.265 9.54-21.265 21.265v175.626c-.045.511-.08 1.023-.12 1.535-28.456 9.163-47.896 35.526-47.896 65.897 0 32.46 22.45 59.764 52.636 67.231l10.324 24.183c9.261 21.694 13.957 44.654 13.957 68.242v77.143c0 4.142 3.358 7.5 7.5 7.5s7.5-3.358 7.5-7.5v-48.092c17.312 5.274 34.596 9.487 51.835 12.614v35.478c0 4.142 3.358 7.5 7.5 7.5s7.5-3.358 7.5-7.5v-33.038c16.819 2.446 33.59 3.871 50.295 4.266v28.772c0 4.142 3.358 7.5 7.5 7.5s7.5-3.358 7.5-7.5v-28.7c16.842-.222 33.614-1.484 50.295-3.801v32.501c0 4.142 3.358 7.5 7.5 7.5s7.5-3.358 7.5-7.5v-34.878c17.388-3.081 34.674-7.299 51.835-12.671v47.549c0 4.142 3.358 7.5 7.5 7.5s7.5-3.358 7.5-7.5v-77.143c0-23.588 4.696-46.548 13.957-68.241l10.324-24.184c30.185-7.467 52.636-34.771 52.636-67.231zm-108.633-213.075c0-3.708 3.017-6.725 6.725-6.725s6.725 3.017 6.725 6.725v8.426c0 10.796 8.783 19.579 19.579 19.579 10.795 0 19.578-8.783 19.578-19.579v-24.94c0-3.407 2.771-6.178 6.178-6.178s6.178 2.771 6.178 6.178v165.209c-1.38-.545-2.782-1.052-4.209-1.512-3.634-46.952-26.521-88.59-60.754-117.015zm-67.326 197.335-21.221-30.411 109.829-90.607c12.194 18.681 20.446 40.153 23.574 63.234-34.85 7.412-72.512 26.197-106.692 53.318-1.855 1.471-3.679 2.964-5.49 4.466zm-37.8 37.251h-65.439l70.409-58.086 21.451 30.74c-9.54 8.705-18.374 17.852-26.421 27.346zm35.075-14.944 10.429 14.945h-25.45c4.766-5.108 9.777-10.097 15.021-14.945zm-173.008 14.944c-8.833-16.055-14.703-33.607-17.369-51.741.251.001.497.014.749.014 11.076 0 23.021-1.539 35.626-4.597 4.025-.977 6.497-5.031 5.521-9.057s-5.03-6.498-9.057-5.521c-12.319 2.988-23.827 4.366-34.304 4.138-.12-2.484-.201-4.972-.201-7.465 0-35.5 12.358-70.149 34.798-97.567 8.439-10.31 18.154-19.431 28.824-27.179l59.07 84.649c-19.455 14.448-40.264 26.3-60.677 34.509-3.843 1.546-5.706 5.914-4.16 9.757 1.177 2.926 3.989 4.704 6.961 4.704.932 0 1.879-.175 2.796-.543 21.462-8.631 43.291-21.03 63.669-36.118l22.044 31.59-85.368 70.427zm-17.211-.628c-9.418-2.289-16.441-10.771-16.441-20.883 0-4.734 1.585-9.268 4.366-12.951 2.813 11.667 6.851 23.019 12.075 33.834zm272.735-169.813-109.624 90.438-21.796-31.235c37.246-30.372 65.219-66.877 78.141-101.784 20.785 10.09 38.972 24.717 53.279 42.581zm44.054 135.98c2.78 3.683 4.364 8.215 4.364 12.95 0 10.115-7.026 18.599-16.448 20.885 5.225-10.818 9.27-22.166 12.084-33.835zm-183.705-235.017c3.955 0 7.173 3.217 7.173 7.172v68.207c0 3.955-3.218 7.172-7.173 7.172s-7.172-3.217-7.172-7.172v-38.25c0-.019 0-.037 0-.055v-29.9c-.001-3.956 3.217-7.174 7.172-7.174zm0 97.552c12.226 0 22.173-9.946 22.173-22.172v-34.27c17.677.328 34.636 3.64 50.391 9.462-11.759 32.357-37.895 66.551-72.942 95.333l-58.352-83.621c11.442-6.726 23.735-11.978 36.557-15.559v28.655c0 12.225 9.947 22.172 22.173 22.172zm-134.259-92.643c0-3.455 2.811-6.265 6.265-6.265s6.265 2.811 6.265 6.265v31.784c0 11.506 9.361 20.866 20.867 20.866s20.866-9.36 20.866-20.866v-19.911c0-4.179 3.4-7.58 7.58-7.58 4.179 0 7.58 3.4 7.58 7.58v31.709c-2.726 1.565-5.408 3.207-8.044 4.921-.285.149-.566.31-.837.499-.145.101-.279.212-.414.321-14.065 9.324-26.779 20.75-37.584 33.951-9.053 11.061-16.605 23.198-22.543 36.055v-119.329zm233.43 312.319-5.632 13.192c-20.369 11.224-43.102 17.699-66.767 18.829v-32.021zm59.892 16.264c-3.517 8.239-6.414 16.649-8.712 25.194-18.138 6.226-36.465 11.151-54.897 14.729 2.222-11.075 5.542-21.926 9.931-32.484 11.131-6.601 21.563-14.533 31.101-23.703h29.52zm-147.291 30.767v16.196c-17.534-.441-35.237-2.091-53.031-4.915-1.435-8.339-3.43-16.57-5.988-24.665 18.522 7.92 38.452 12.489 59.019 13.384zm15 0c20.564-.895 40.496-5.464 59.02-13.385-2.62 8.289-4.646 16.721-6.087 25.265-17.602 2.685-35.272 4.145-52.932 4.392v-16.272zm-15-15.01c-5.774-.276-11.49-.879-17.132-1.781 2.699-9.699 6.893-19.836 12.517-30.24h4.616v32.021zm-31.852-4.88c-12.18-3.196-23.894-7.874-34.915-13.947l-5.632-13.193h50.905c-4.509 9.246-7.975 18.328-10.358 27.14zm-77.86-27.141c9.539 9.171 19.97 17.105 31.101 23.707 4.298 10.339 7.576 20.958 9.797 31.793-18.253-3.605-36.577-8.434-54.888-14.498-2.279-8.389-5.134-16.647-8.589-24.74l-6.943-16.263h29.522zm-7.419 103.746v-13.351c0-10.95-.94-21.774-2.792-32.422 17.894 5.566 35.755 9.978 53.566 13.253.698 6.335 1.061 12.728 1.061 19.169v26.413c-17.241-3.256-34.545-7.61-51.835-13.062zm66.835 15.616v-28.968c0-5.575-.256-11.115-.738-16.618 17.068 2.512 34.084 3.961 51.033 4.362v45.71c-16.633-.418-33.423-1.922-50.295-4.486zm65.296 4.565v-45.722c17.075-.225 34.076-1.528 50.987-3.906-.451 5.331-.692 10.697-.692 16.095v29.531c-16.728 2.436-33.517 3.766-50.295 4.002zm65.295-6.475v-27.058c0-6.23.337-12.414.99-18.544 17.965-3.228 35.821-7.676 53.55-13.35-1.792 10.478-2.705 21.125-2.705 31.895v13.842c-17.131 5.576-34.436 9.995-51.835 13.215zm74.49-132.452h-294.571c-29.92 0-54.261-24.342-54.261-54.262 0-21.935 12.938-41.2 32.418-49.701.116 6.516.593 13.005 1.451 19.433-10.002 6.76-16.119 18.126-16.119 30.268 0 20.133 16.379 36.512 36.511 36.512h209.955.008.007 29.446c4.142 0 7.5-3.358 7.5-7.5s-3.358-7.5-7.5-7.5h-25.547l-17.383-24.911c2.039-1.705 4.104-3.392 6.201-5.056 31.8-25.232 66.558-42.81 98.66-50.003.07 1.907.118 3.819.118 5.742 0 26.006-6.584 51.597-19.033 74.228h-13.015c-4.142 0-7.5 3.358-7.5 7.5s3.358 7.5 7.5 7.5h25.156c20.132 0 36.511-16.379 36.511-36.512 0-12.144-6.116-23.505-16.117-30.266.858-6.428 1.333-12.918 1.449-19.436 2.346 1.024 4.594 2.208 6.739 3.53.351.265.725.501 1.121.702 15.022 9.776 24.558 26.639 24.558 45.47-.001 29.921-24.343 54.262-54.263 54.262z"/></svg>