<svg id="Capa_1" enable-background="new 0 0 510.707 510.707" height="512" viewBox="0 0 510.707 510.707" width="512" xmlns="http://www.w3.org/2000/svg"><path d="m382.972 60.801c-63.274 0-114.568 51.294-114.568 114.568s51.294 114.568 114.568 114.568 114.568-51.294 114.568-114.568c.001-63.274-51.293-114.568-114.568-114.568zm0 192.427c-43 0-77.858-34.858-77.858-77.858s34.858-77.858 77.858-77.858 77.858 34.858 77.858 77.858-34.858 77.858-77.858 77.858z" fill="#6bd9e7"/><path d="m384.215 81.493c-52.634 0-95.302 42.668-95.302 95.302s42.668 95.302 95.302 95.302 95.302-42.668 95.302-95.302c0-52.633-42.668-95.302-95.302-95.302zm-1.243 171.735c-43 0-77.858-34.858-77.858-77.858s34.858-77.858 77.858-77.858 77.858 34.858 77.858 77.858-34.858 77.858-77.858 77.858z" fill="#03bed7"/><path d="m360.059 7.5h46.098v107.473c0 4.696-3.807 8.502-8.502 8.502h-29.094c-4.696 0-8.502-3.807-8.502-8.502z" fill="#fef1da"/><path d="m360.059 83.479v31.493c0 4.696 3.807 8.502 8.502 8.502h29.094c4.696 0 8.502-3.806 8.502-8.502v-31.493z" fill="#fddeb0"/><path d="m127.454 60.801c-63.274 0-114.568 51.294-114.568 114.568s51.294 114.568 114.568 114.568 114.568-51.294 114.568-114.568-51.294-114.568-114.568-114.568zm0 192.427c-43 0-77.858-34.858-77.858-77.858s34.858-77.858 77.858-77.858 77.858 34.858 77.858 77.858-34.858 77.858-77.858 77.858z" fill="#6bd9e7"/><path d="m127.454 80.067c-52.634 0-95.302 42.668-95.302 95.302s42.668 95.302 95.302 95.302 95.302-42.668 95.302-95.302-42.668-95.302-95.302-95.302zm0 173.161c-43 0-77.858-34.858-77.858-77.858s34.858-77.858 77.858-77.858 77.858 34.858 77.858 77.858-34.858 77.858-77.858 77.858z" fill="#03bed7"/><path d="m217.634 312.962-10.89-25.57-6.209-16.58h-125.041v106.61.01 123.993c0 .987.8 1.787 1.787 1.787h123.716c.987 0 1.787-.8 1.787-1.787v-123.91c9.547-3.882 16.28-13.237 16.28-24.173v-34.88c0-1.93-.49-3.82-1.43-5.5z" fill="#fed2a4"/><g fill="#ffbd86"><path d="m104.591 337.142c5.916 0 10.713-4.796 10.713-10.713v-11.767c0-22.704-17.56-41.371-39.81-43.166v65.646z"/><path d="m185.001 488.418c-51.578 0-93.391-41.812-93.391-93.391v-32.389-.01c-5.622-1.29-11.016-3.177-16.117-5.584v20.378.01 123.993c0 .987.8 1.787 1.787 1.787h123.716c.987 0 1.787-.8 1.787-1.787v-13.007z"/><path d="m127.594 233.302v42.74c0 11.12-8.86 20.14-19.79 20.14-5.47 0-10.41-2.25-13.99-5.9s-5.8-8.68-5.8-14.24v-20.57l-.22-.57c7.92-3.23 13.51-11.01 13.51-20.09v-11.68c0-3.18-2.58-5.76-5.76-5.76l1.37-.88c3.12-2.1 6.86-3.33 10.89-3.33 5.47 0 10.41 2.25 13.99 5.9s5.8 8.68 5.8 14.24z"/><path d="m206.744 232.952v43.44c0 3.75-1.04 7.27-2.86 10.26-3.48 5.71-9.76 9.53-16.93 9.53-10.93 0-19.79-8.86-19.79-19.79v-43.44c0-5.46 2.21-10.41 5.8-13.99 3.58-3.59 8.53-5.8 13.99-5.8 10.93 0 19.79 8.86 19.79 19.79z"/><path d="m167.164 232.952v43.44c0 10.93-8.86 19.79-19.79 19.79-10.92 0-19.78-8.86-19.78-19.79v-.35-42.74-.35c0-5.46 2.22-10.41 5.8-13.99 3.58-3.59 8.52-5.8 13.98-5.8 10.93 0 19.79 8.86 19.79 19.79z"/><path d="m127.479 232.952v43.44c0 10.93-8.86 19.79-19.79 19.79-10.92 0-19.78-8.86-19.78-19.79v-.35-42.74-.35c0-5.46 2.22-10.41 5.8-13.99 3.58-3.59 8.52-5.8 13.98-5.8 10.93 0 19.79 8.86 19.79 19.79z"/><path d="m48.991 239.283v36.759.35c0 10.93 8.86 19.79 19.78 19.79 10.93 0 19.79-8.86 19.79-19.79v-37.109z"/></g><path d="m186.575 276.392v-43.44c0-5.46 2.21-10.41 5.8-13.99 1.267-1.271 2.713-2.357 4.285-3.245-2.869-1.62-6.176-2.555-9.706-2.555-5.46 0-10.41 2.21-13.99 5.8-3.59 3.58-5.8 8.53-5.8 13.99v43.44c0 10.93 8.86 19.79 19.79 19.79 3.53 0 6.841-.929 9.712-2.551-6.02-3.394-10.091-9.836-10.091-17.239z" fill="#f6a96c"/><path d="m147.005 276.392v-.35-42.74-.35c0-5.46 2.22-10.41 5.8-13.99 1.266-1.27 2.709-2.356 4.278-3.243-2.87-1.621-6.178-2.557-9.71-2.557-5.46 0-10.4 2.21-13.98 5.8-3.58 3.58-5.8 8.53-5.8 13.99v.35 42.74.35c0 10.93 8.86 19.79 19.78 19.79 3.531 0 6.839-.936 9.709-2.556-6.009-3.396-10.077-9.835-10.077-17.234z" fill="#f6a96c"/><path d="m107.32 276.392v-.35-42.74-.35c0-5.46 2.22-10.41 5.8-13.99 1.266-1.27 2.709-2.356 4.278-3.243-2.87-1.621-6.179-2.557-9.71-2.557-5.46 0-10.4 2.21-13.98 5.8-3.58 3.58-5.8 8.53-5.8 13.99v.35 42.74.35c0 10.93 8.86 19.79 19.78 19.79 3.531 0 6.839-.936 9.709-2.556-6.01-3.396-10.077-9.835-10.077-17.234z" fill="#f6a96c"/><path d="m68.402 276.392v-.35-36.759h-19.411v36.759.35c0 10.93 8.86 19.79 19.78 19.79 3.531 0 6.839-.936 9.709-2.556-6.011-3.396-10.078-9.835-10.078-17.234z" fill="#f6a96c"/><path d="m101.304 328.862v42.72c0 4.346-3.524 7.87-7.87 7.87-6.17 0-12.17-.7-17.94-2.03-35.48-8.14-61.95-39.91-61.95-77.86v-59.74c0-12.399 10.051-22.45 22.45-22.45h59.55c3.181 0 5.76 2.579 5.76 5.76v11.68c0 9.08-5.59 16.86-13.51 20.09-2.52 1.02-5.28 1.59-8.17 1.59h-20.23c-2.55 0-4.62 2.06-4.62 4.62v19.61c0 2.552 2.068 4.62 4.62 4.62h12.59c16.126 0 29.32 13.194 29.32 29.32z" fill="#fed2a4"/><path d="m95.544 217.372h-59.55c-12.399 0-22.45 10.051-22.45 22.45v17.922c0-12.399 10.051-22.45 22.45-22.45h59.55c2.432 0 4.507 1.509 5.352 3.64.258-1.336.408-2.711.408-4.123v-11.68c0-3.18-2.579-5.759-5.76-5.759z" fill="#ffbd86"/><path d="m293.343 312.962 10.89-25.57 6.209-16.58h125.041v106.61.01 123.993c0 .987-.8 1.787-1.787 1.787h-123.716c-.987 0-1.787-.8-1.787-1.787v-123.91c-9.547-3.882-16.28-13.237-16.28-24.173v-34.88c0-1.93.49-3.82 1.43-5.5z" fill="#fed2a4"/><path d="m435.483 337.142v-65.719c-22.171 1.304-39.811 19.747-39.811 42.239v12.556c0 6.033 4.891 10.924 10.924 10.924z" fill="#ffbd86"/><path d="m411.39 483.822c-45.663 0-82.68-37.017-82.68-82.68v-43.017c-9.547-3.882-16.28-13.237-16.28-24.173v-34.88c0-1.93.49-3.82 1.43-5.5l9.693-22.76h-13.112l-6.209 16.58-10.89 25.57c-.94 1.68-1.43 3.57-1.43 5.5v34.88c0 10.937 6.733 20.291 16.28 24.173v123.91c0 .987.8 1.787 1.787 1.787h123.716c.987 0 1.787-.8 1.787-1.787v-17.603z" fill="#ffbd86"/><path d="m304.233 232.952v43.44c0 3.75 1.04 7.27 2.86 10.26 3.48 5.71 9.76 9.53 16.93 9.53 10.93 0 19.79-8.86 19.79-19.79v-43.44c0-5.46-2.21-10.41-5.8-13.99-3.58-3.59-8.53-5.8-13.99-5.8-10.93 0-19.79 8.86-19.79 19.79z" fill="#ffbd86"/><path d="m343.813 232.952v43.44c0 10.93 8.86 19.79 19.79 19.79 10.92 0 19.78-8.86 19.78-19.79v-.35-42.74-.35c0-5.46-2.22-10.41-5.8-13.99-3.58-3.59-8.52-5.8-13.98-5.8-10.93 0-19.79 8.86-19.79 19.79z" fill="#ffbd86"/><path d="m383.498 232.952v43.44c0 10.93 8.86 19.79 19.79 19.79 10.92 0 19.78-8.86 19.78-19.79v-.35-42.74-.35c0-5.46-2.22-10.41-5.8-13.99-3.58-3.59-8.52-5.8-13.98-5.8-10.93 0-19.79 8.86-19.79 19.79z" fill="#ffbd86"/><path d="m461.986 239.283v36.759.35c0 10.93-8.86 19.79-19.78 19.79-10.93 0-19.79-8.86-19.79-19.79v-37.109z" fill="#ffbd86"/><path d="m327.266 286.652c-1.82-2.99-2.86-6.51-2.86-10.26v-43.44c0-7.24 3.9-13.554 9.702-17.004-2.957-1.76-6.399-2.786-10.086-2.786-10.93 0-19.79 8.86-19.79 19.79v43.44c0 3.75 1.04 7.27 2.86 10.26 3.48 5.71 9.76 9.53 16.93 9.53 3.684 0 7.121-1.025 10.075-2.778-2.79-1.66-5.142-3.981-6.831-6.752z" fill="#f6a96c"/><path d="m363.986 276.392v-43.44c0-7.239 3.899-13.551 9.699-17.002-2.955-1.761-6.394-2.788-10.082-2.788-10.93 0-19.79 8.86-19.79 19.79v43.44c0 10.93 8.86 19.79 19.79 19.79 3.687 0 7.127-1.029 10.083-2.788-5.801-3.45-9.7-9.763-9.7-17.002z" fill="#f6a96c"/><path d="m403.671 276.392v-43.44c0-7.239 3.899-13.551 9.699-17.002-2.955-1.761-6.394-2.788-10.082-2.788-10.93 0-19.79 8.86-19.79 19.79v43.44c0 10.93 8.86 19.79 19.79 19.79 3.687 0 7.127-1.029 10.083-2.788-5.801-3.45-9.7-9.763-9.7-17.002z" fill="#f6a96c"/><path d="m442.589 276.392v-37.109h-20.173v37.109c0 10.93 8.86 19.79 19.79 19.79 3.687 0 7.127-1.029 10.083-2.788-5.801-3.45-9.7-9.763-9.7-17.002z" fill="#f6a96c"/><path d="m409.673 328.862v42.72c0 4.346 3.523 7.87 7.87 7.87 6.17 0 12.17-.7 17.94-2.03 35.48-8.14 61.95-39.91 61.95-77.86v-59.74c0-12.399-10.051-22.45-22.45-22.45h-59.55c-3.181 0-5.76 2.579-5.76 5.76v11.68c0 9.08 5.59 16.86 13.51 20.09 2.52 1.02 5.28 1.59 8.17 1.59h20.23c2.55 0 4.62 2.06 4.62 4.62v19.61c0 2.552-2.068 4.62-4.62 4.62h-13.59c-15.576 0-28.32 12.744-28.32 28.32z" fill="#fed2a4"/><path d="m104.54 7.5h46.098v107.473c0 4.696-3.807 8.502-8.502 8.502h-29.094c-4.696 0-8.502-3.807-8.502-8.502z" fill="#fef1da"/><path d="m104.54 83.479v31.493c0 4.696 3.807 8.502 8.502 8.502h29.094c4.696 0 8.502-3.806 8.502-8.502v-31.493z" fill="#fddeb0"/><path d="m497.162 276.646c-4.143 0-7.5 3.358-7.5 7.5v15.42c0 39.914-32.473 72.387-72.387 72.387h-7.868c-4.143 0-7.5 3.358-7.5 7.5s3.357 7.5 7.5 7.5h7.868c3.534 0 7.018-.217 10.443-.626v116.881c0 4.142 3.357 7.5 7.5 7.5s7.5-3.358 7.5-7.5v-120.037c35.814-10.92 61.943-44.267 61.943-83.605v-15.42c.001-4.142-3.356-7.5-7.499-7.5z"/><path d="m505.051 175.275c0-55.615-38.078-104.307-91.384-118.066v-42.209h11.665c4.143 0 7.5-3.358 7.5-7.5s-3.357-7.5-7.5-7.5h-19.165-46.097-16.53c-4.143 0-7.5 3.358-7.5 7.5s3.357 7.5 7.5 7.5h9.029v42.209c-53.306 13.76-91.384 62.451-91.384 118.066 0 32.476 12.503 62.81 35.276 85.781v15.336c0 2.521.351 4.96.993 7.279-.143.251-.278.511-.394.784l-10.755 25.25c-1.414 2.693-2.159 5.71-2.159 8.755v34.882c0 12.194 6.528 22.891 16.272 28.782v121.083c0 4.142 3.357 7.5 7.5 7.5s7.5-3.358 7.5-7.5v-116.345c.773.053 1.551.09 2.337.09h28.52c4.143 0 7.5-3.358 7.5-7.5s-3.357-7.5-7.5-7.5h-28.52c-10.262 0-18.609-8.349-18.609-18.61v-34.882c0-.649.166-1.292.481-1.858.127-.229.242-.464.345-.705l7.502-17.615c4.547 3.389 10.181 5.399 16.275 5.399 7.784 0 14.813-3.282 19.789-8.528 4.976 5.246 12.005 8.528 19.789 8.528 7.812 0 14.862-3.305 19.841-8.583 4.973 5.281 11.98 8.583 19.737 8.583.144 0 .285-.009.428-.011-.923 3.173-1.428 6.523-1.428 9.99v15.205c0 4.142 3.357 7.5 7.5 7.5s7.5-3.358 7.5-7.5v-15.205c0-11.479 9.339-20.817 20.817-20.817h13.588c6.683 0 12.12-5.438 12.12-12.121v-19.614c0-6.684-5.438-12.121-12.12-12.121h-20.228c-7.817 0-14.178-6.36-14.178-14.178v-9.937h31.507c.014 0 .028.003.042.003.016 0 .032-.003.048-.003h26.212c8.241 0 14.946 6.705 14.946 14.947v14.326c0 4.142 3.357 7.5 7.5 7.5s7.5-3.358 7.5-7.5v-14.325c0-7.805-3.004-14.919-7.913-20.255 5.509-14.094 8.305-28.965 8.305-44.29zm-60.821 34.598h-26.898c-4.329-2.747-9.294-4.21-14.425-4.21-7.757 0-14.764 3.301-19.737 8.583-4.979-5.278-12.03-8.583-19.841-8.583-7.784 0-14.813 3.282-19.789 8.528-4.976-5.247-12.005-8.528-19.789-8.528-1.271 0-2.52.094-3.745.263-4.462-9.122-6.907-19.143-7.098-29.299-.518-27.564 15.386-52.794 39.661-64.579v2.924c0 8.824 7.179 16.002 16.002 16.002h29.094c8.823 0 16.002-7.179 16.002-16.002v-2.954c24.092 11.557 39.674 35.831 39.674 63.257 0 12.206-3.145 24.082-9.111 34.598zm-45.563-108.874v.076 13.897c0 .553-.449 1.002-1.002 1.002h-29.094c-.553 0-1.002-.45-1.002-1.002v-13.897c0-.026 0-.051 0-.076v-10.084h31.098zm0-85.999v48.148.051 12.715h-31.097v-12.714c0-.017 0-.034 0-.051v-48.149zm-122.481 160.275c0-47.462 31.614-89.177 76.384-102.504v22.945c-15.116 5.828-28.526 16.022-38.17 29.146-11.142 15.163-16.844 33.16-16.489 52.046.229 12.155 3.111 24.15 8.374 35.096-5.998 5.01-9.822 12.539-9.822 20.947v5.036c-13.177-18.098-20.277-39.796-20.277-62.712zm47.565 113.407c-6.776 0-12.289-5.513-12.289-12.29v-43.44c0-6.776 5.513-12.289 12.289-12.289s12.289 5.513 12.289 12.289v43.44c0 6.776-5.512 12.29-12.289 12.29zm51.867-12.29c0 6.776-5.513 12.29-12.289 12.29s-12.289-5.513-12.289-12.29v-43.44c0-6.776 5.513-12.289 12.289-12.289s12.289 5.513 12.289 12.289v.351 42.738zm15-.351v-42.738c0-6.703 5.103-12.189 11.522-12.6-.146.788-.233 1.596-.233 2.426v11.682c0 10.231 5.297 19.243 13.289 24.453v16.778c0 6.97-5.513 12.64-12.289 12.64s-12.289-5.671-12.289-12.641zm57.815-12.053v13.855h-10.708c-2.628 0-5.187.292-7.655.832.081-.867.127-1.746.127-2.634v-12.076c.296.009.591.022.889.022h17.347zm12.577-54.115c4.814-10.829 7.331-22.583 7.331-34.598 0-18.56-5.863-36.203-16.956-51.022-9.598-12.822-22.846-22.802-37.718-28.538v-22.944c44.77 13.327 76.384 55.042 76.384 102.504 0 12.427-2.093 24.509-6.219 36.021-2.876-.921-5.938-1.423-9.116-1.423z"/><path d="m214.246 261.056c22.774-22.971 35.276-53.305 35.276-85.781 0-55.614-38.077-104.307-91.384-118.066v-42.209h9.029c4.142 0 7.5-3.358 7.5-7.5s-3.358-7.5-7.5-7.5h-16.529-46.098-19.165c-4.142 0-7.5 3.358-7.5 7.5s3.358 7.5 7.5 7.5h11.665v42.209c-53.306 13.76-91.384 62.452-91.384 118.066 0 15.323 2.796 30.194 8.302 44.289-4.909 5.336-7.913 12.45-7.913 20.255v59.746c0 39.338 26.13 72.685 61.944 83.605v120.036c0 4.142 3.358 7.5 7.5 7.5s7.5-3.358 7.5-7.5v-116.88c3.425.41 6.909.626 10.442.626h7.868c4.142 0 7.5-3.358 7.5-7.5s-3.358-7.5-7.5-7.5h-7.868c-39.914 0-72.387-32.473-72.387-72.387v-59.745c0-8.242 6.705-14.947 14.947-14.947h26.212c.016 0 .032.003.048.003.014 0 .028-.003.042-.003h31.507v9.938c0 7.817-6.36 14.177-14.178 14.177h-20.227c-6.683 0-12.121 5.438-12.121 12.121v19.614c0 6.684 5.438 12.121 12.121 12.121h12.587c11.826 0 21.817 9.533 21.817 20.817v15.205c0 4.142 3.358 7.5 7.5 7.5s7.5-3.358 7.5-7.5v-15.205c0-3.453-.542-6.806-1.531-9.993.177.003.353.014.532.014 7.758 0 14.764-3.301 19.737-8.583 4.979 5.278 12.029 8.583 19.841 8.583 7.785 0 14.813-3.282 19.789-8.528 4.976 5.246 12.004 8.528 19.789 8.528 6.094 0 11.728-2.009 16.275-5.399l7.502 17.615c.103.24.217.475.344.703.315.568.482 1.21.482 1.859v34.882c0 10.262-8.349 18.61-18.61 18.61h-28.519c-4.142 0-7.5 3.358-7.5 7.5s3.358 7.5 7.5 7.5h28.519c.787 0 1.564-.037 2.338-.09v116.345c0 4.142 3.358 7.5 7.5 7.5s7.5-3.358 7.5-7.5v-121.083c9.744-5.892 16.272-16.588 16.272-28.782v-34.882c0-3.044-.746-6.062-2.16-8.755l-10.754-25.251c-.116-.273-.25-.532-.394-.784.643-2.319.994-4.758.994-7.279v-15.335zm20.276-85.781c0 22.915-7.099 44.613-20.276 62.711v-5.035c0-8.408-3.824-15.937-9.822-20.947 5.263-10.946 8.145-22.94 8.373-35.096.257-13.706-2.659-26.865-8.667-39.112-1.824-3.72-6.318-5.256-10.036-3.431-3.719 1.824-5.255 6.317-3.431 10.036 4.947 10.085 7.348 20.928 7.136 32.226-.191 10.156-2.636 20.177-7.098 29.299-1.225-.169-2.474-.263-3.746-.263-7.785 0-14.813 3.282-19.789 8.528-4.976-5.246-12.004-8.528-19.789-8.528-7.812 0-14.862 3.304-19.841 8.583-4.973-5.281-11.979-8.583-19.737-8.583-5.131 0-10.097 1.464-14.425 4.21h-26.896c-5.966-10.516-9.112-22.392-9.112-34.598 0-27.427 15.583-51.701 39.674-63.257v2.955c0 8.824 7.178 16.002 16.002 16.002h29.094c8.824 0 16.002-7.179 16.002-16.002v-2.933c5.799 2.806 11.197 6.4 16.11 10.774 1.429 1.272 3.209 1.898 4.984 1.898 2.066 0 4.123-.849 5.604-2.514 2.754-3.094 2.479-7.834-.616-10.588-7.764-6.91-16.523-12.229-26.083-15.894v-22.945c44.771 13.328 76.385 55.042 76.385 102.504zm-91.384-74.278v.081 13.895c0 .553-.449 1.002-1.002 1.002h-29.094c-.553 0-1.002-.45-1.002-1.002v-13.895c0-.027 0-.054 0-.081v-10.082h31.098zm0-85.997v48.148.051 12.716h-31.098v-12.71c0-.021 0-.042 0-.063v-48.142zm-116.263 196.296c-4.127-11.514-6.219-23.595-6.219-36.021 0-47.462 31.614-89.177 76.384-102.505v22.945c-14.871 5.737-28.12 15.715-37.718 28.537-11.093 14.82-16.957 32.463-16.957 51.022 0 12.015 2.517 23.769 7.331 34.598h-13.705c-3.178.001-6.239.503-9.116 1.424zm35.4 66.548v-13.856h17.347c.298 0 .593-.014.889-.022v12.076c0 .966.05 1.92.146 2.86-2.793-.685-5.698-1.058-8.675-1.058zm45.525 10.837c-6.776 0-12.289-5.67-12.289-12.64v-16.778c7.991-5.21 13.289-14.222 13.289-24.453v-11.683c0-.829-.086-1.638-.233-2.425 6.419.41 11.522 5.896 11.522 12.6v42.738c0 6.971-5.513 12.641-12.289 12.641zm39.578.001c-6.776 0-12.289-5.513-12.289-12.29v-.351-42.738-.351c0-6.776 5.513-12.289 12.289-12.289s12.289 5.513 12.289 12.289v43.44c0 6.776-5.512 12.29-12.289 12.29zm39.578 0c-6.776 0-12.289-5.513-12.289-12.29v-43.44c0-6.776 5.513-12.289 12.289-12.289s12.29 5.513 12.29 12.289v43.44c0 6.776-5.513 12.29-12.29 12.29z"/></svg>