<svg id="Capa_1" enable-background="new 0 0 510.998 510.998" height="512" viewBox="0 0 510.998 510.998" width="512" xmlns="http://www.w3.org/2000/svg"><path d="m7.5 57.701v396.568c108.741-.91 196.615-89.328 196.615-198.284s-87.874-197.374-196.615-198.284z" fill="#fe646f"/><path d="m7.5 90.4v331.171c90.682-.909 163.916-74.689 163.916-165.585s-73.234-164.677-163.916-165.586z" fill="#ebebeb"/><path d="m138.199 355.839h.01c-10.84 14.1-23.91 26.4-38.69 36.36l-74.24-96.57c8.79-3.9 16.06-10.6 20.67-18.98z" fill="#bfbfbf"/><path d="m100.195 119.913-73.776 95.976c8.75 4.19 15.89 11.19 20.25 19.84l91.837-78.825c-10.691-14.292-23.638-26.796-38.311-36.991z" fill="#bfbfbf"/><path d="m7.5 132.958v246.054c67.177-.906 121.357-55.635 121.357-123.027s-54.18-122.121-121.357-123.027z" fill="#fe646f"/><path d="m45.949 276.649c-4.61 8.38-11.88 15.08-20.67 18.98l48.418 62.982c12.417-8.229 23.25-18.649 31.955-30.711z" fill="#fb2b3a"/><path d="m74.217 153.708-47.798 62.181c8.75 4.19 15.89 11.19 20.25 19.84l59.443-51.021c-8.661-12.163-19.478-22.68-31.895-31z" fill="#fb2b3a"/><path d="m7.5 164.635v182.7c49.682-.903 89.68-41.452 89.68-91.35s-39.998-90.447-89.68-91.35z" fill="#ebebeb"/><path d="m54.857 178.894-28.438 36.996-3.53 4.252 20.482 19.371 3.297-3.783 35.275-30.277c-7.07-10.631-16.312-19.691-27.086-26.559z" fill="#bfbfbf"/><path d="m45.949 276.649-4.255-3.505-18.022 19.019 1.607 3.466 29.049 37.787c10.78-6.768 20.043-15.725 27.173-26.247z" fill="#bfbfbf"/><path d="m7.5 211.064v89.842c24.048-.891 43.273-20.655 43.273-44.921s-19.225-44.03-43.273-44.921z" fill="#fb2b3a"/><path d="m422.283 280.449v7.17c0 11.12-6.63 21.17-16.85 25.55-7.72 3.31-15.8 4.89-23.79 4.89-19.73 0-38.85-9.68-50.35-26.97l-15.44-23.21v-12.38h90.33l15.03 21.54c.7 1 1.07 2.19 1.07 3.41z" fill="#fe646f"/><path d="m422.283 223.379v7.17c0 1.22-.37 2.41-1.07 3.41l-15.03 21.54h-90.33v-12.38l15.44-23.21c11.5-17.29 30.62-26.97 50.35-26.97 7.99 0 16.07 1.58 23.79 4.89 10.22 4.38 16.85 14.43 16.85 25.55z" fill="#fb2b3a"/><path d="m199.919 243.123h93.801v26.752h-93.801z" fill="#bfbfbf"/><path d="m199.919 255.985h85.303v13.89h-85.303z" fill="#9e9797"/><path d="m212.792 277.268h-24.109v-41.538h24.109c4.41 0 7.985 3.575 7.985 7.985v25.567c0 4.411-3.575 7.986-7.985 7.986z" fill="#f4d902"/><path d="m212.792 249.966h-24.109v27.302h24.109c4.41 0 7.985-3.575 7.985-7.985v-25.567c0-.293-.018-.582-.049-.867-.433 4.001-3.82 7.117-7.936 7.117z" fill="#fac600"/><path d="m115.223 267.875h-51.462c-1.094 0-2.175-.231-3.173-.678l-23.831-10.67c-.888-.398-.888-1.659 0-2.057l23.831-10.67c.998-.447 2.079-.678 3.173-.678h51.462z" fill="#bfbfbf"/><path d="m36.21 255.985c.107.226.283.424.547.542l23.831 10.67c.998.447 2.079.678 3.173.678h51.462v-11.89z" fill="#9e9797"/><path d="m188.282 283.801h-62.97c-8.886 0-16.089-7.203-16.089-16.089v-22.426c0-8.886 7.203-16.089 16.089-16.089h62.97c2.983 0 5.4 2.418 5.4 5.4v43.803c0 2.983-2.417 5.401-5.4 5.401z" fill="#fee903"/><path d="m188.282 256.499h-62.97c-8.054 0-14.707-5.925-15.885-13.651-.121.797-.204 1.607-.204 2.438v22.426c0 8.885 7.203 16.089 16.089 16.089h62.97c2.983 0 5.4-2.418 5.4-5.4v-27.302c0 2.982-2.417 5.4-5.4 5.4z" fill="#fed402"/><path d="m379.289 280.449v7.17c0 11.12-6.63 21.17-16.85 25.55-7.72 3.31-15.8 4.89-23.79 4.89-19.73 0-38.85-9.68-50.35-26.97l-15.44-23.21v-12.38h90.33l15.03 21.54c.7 1 1.07 2.19 1.07 3.41z" fill="#fb2b3a"/><path d="m379.289 223.379v7.17c0 1.22-.37 2.41-1.07 3.41l-15.03 21.54h-90.33v-12.38l15.44-23.21c11.5-17.29 30.62-26.97 50.35-26.97 7.99 0 16.07 1.58 23.79 4.89 10.22 4.38 16.85 14.43 16.85 25.55z" fill="#fe646f"/><path d="m7.5 65.18c42.006 0 81.827 13.41 115.159 38.781 32.271 24.563 56.264 59.406 67.562 98.114.956 3.274 3.949 5.4 7.196 5.4.696 0 1.403-.098 2.105-.303 3.976-1.16 6.259-5.324 5.098-9.301-12.19-41.765-38.071-79.355-72.876-105.848-35.966-27.374-78.929-41.843-124.244-41.843-4.142 0-7.5 3.357-7.5 7.5s3.358 7.5 7.5 7.5z"/><path d="m200.176 301.138c-3.993-1.104-8.124 1.236-9.229 5.229-10.88 39.329-34.768 74.802-67.261 99.883-33.534 25.886-73.711 39.568-116.186 39.568-4.142 0-7.5 3.357-7.5 7.5s3.358 7.5 7.5 7.5c45.822 0 89.168-14.764 125.353-42.695 35.045-27.052 60.812-65.32 72.552-107.757 1.104-3.992-1.237-8.124-5.229-9.228z"/><path d="m503.498 188.55h-10.539c-4.143 0-7.5 3.357-7.5 7.5s3.357 7.5 7.5 7.5h10.539c4.143 0 7.5-3.357 7.5-7.5s-3.357-7.5-7.5-7.5z"/><path d="m471.864 291.876h-43.127c.17-1.403.279-2.822.279-4.26v-7.17c0-2.767-.837-5.429-2.419-7.695l-12.036-17.252 12.035-17.25c1.583-2.269 2.42-4.931 2.42-7.697v-7.17c0-7.239-2.213-14.102-6.106-19.832h43.954c4.143 0 7.5-3.357 7.5-7.5s-3.357-7.5-7.5-7.5h-65.713c-13.478-4.231-27.874-4.15-41.405.281-15.565-5.068-32.689-4.376-47.846 2.103-3.809 1.629-5.576 6.036-3.948 9.845 1.629 3.81 6.037 5.577 9.845 3.948 13.264-5.671 28.458-5.673 41.688-.002 7.474 3.203 12.303 10.526 12.303 18.657v6.683l-12.513 17.935h-78.913v-2.609l14.183-21.322c.685-1.029 1.453-2.089 2.35-3.24 2.546-3.268 1.961-7.98-1.307-10.525-3.268-2.546-7.979-1.96-10.525 1.307-1.13 1.45-2.113 2.808-3.008 4.152l-13.211 19.862h-42.875c-2.729-4.426-7.607-7.393-13.177-7.393h-13.304c-2.223-3.896-6.408-6.533-11.205-6.533h-62.971c-9.564 0-17.811 5.725-21.51 13.926h-41.7c-1.056 0-2.101.223-3.065.654l-3.115 1.395 24.131-20.713c1.353 2.557 2.591 5.199 3.689 7.931 1.176 2.927 3.989 4.705 6.961 4.705.931 0 1.878-.175 2.794-.543 3.843-1.545 5.707-5.912 4.162-9.756-1.724-4.289-3.734-8.394-5.984-12.314l12.334-10.587c3.161 5.18 5.951 10.654 8.299 16.412 1.186 2.908 3.989 4.67 6.947 4.67.943 0 1.902-.179 2.83-.558 3.835-1.563 5.677-5.94 4.113-9.776-2.97-7.285-6.558-14.174-10.669-20.636l22.312-19.151c7.864 11.641 14.259 24.471 18.871 38.279 1.049 3.141 3.974 5.126 7.113 5.126.788 0 1.589-.125 2.377-.389 3.929-1.312 6.05-5.561 4.738-9.489-23.508-70.379-89.19-117.664-163.44-117.664-4.142 0-7.5 3.357-7.5 7.5s3.358 7.5 7.5 7.5c29.76 0 58.011 8.322 82.159 23.093l-17.863 23.237c-19.088-11.044-41.126-17.191-64.296-17.191-4.142 0-7.5 3.357-7.5 7.5s3.358 7.5 7.5 7.5c19.769 0 38.6 5.073 55.055 14.212l-9.872 12.842c-13.614-7.124-29.029-11.048-45.183-11.048-4.142 0-7.5 3.357-7.5 7.5s3.358 7.5 7.5 7.5c12.743 0 24.94 2.889 35.866 8.167l-19.422 25.266c-5.177-1.735-10.708-2.677-16.444-2.677-4.142 0-7.5 3.357-7.5 7.5s3.358 7.5 7.5 7.5c5.454 0 10.648 1.196 15.319 3.351.161.088.327.154.492.229 6.996 3.356 12.771 8.891 16.405 15.828.143.355.316.702.517 1.037.675 1.396 1.264 2.844 1.761 4.339l-10.599 4.745c-2.698 1.209-4.435 3.89-4.435 6.846s1.737 5.637 4.435 6.846l10.599 4.745c-.636 1.912-1.419 3.748-2.342 5.494-.218.337-.412.685-.57 1.044-3.755 6.57-9.476 11.777-16.32 14.921-.345.123-.683.276-1.013.453-4.389 1.855-9.209 2.874-14.249 2.874-4.142 0-7.5 3.357-7.5 7.5s3.358 7.5 7.5 7.5c5.283 0 10.392-.801 15.211-2.281l19.524 25.398c-10.635 4.939-22.428 7.641-34.735 7.641-4.142 0-7.5 3.357-7.5 7.5s3.358 7.5 7.5 7.5c15.721 0 30.733-3.727 44.074-10.49l9.87 12.839c-16.216 8.784-34.659 13.657-53.944 13.657-4.142 0-7.5 3.357-7.5 7.5s3.358 7.5 7.5 7.5c22.678 0 44.336-5.934 63.2-16.616l17.892 23.275c-24.405 14.749-52.147 22.48-81.092 22.48-4.142 0-7.5 3.357-7.5 7.5s3.358 7.5 7.5 7.5c37.401 0 72.976-11.784 102.877-34.077 12.522-9.336 23.716-20.396 33.261-32.713.085-.09.175-.172.256-.267.279-.325.517-.67.731-1.024 12.005-15.792 21.318-33.598 27.252-52.474 1.242-3.951-.954-8.161-4.905-9.403-3.955-1.242-8.162.953-9.404 4.905-4.702 14.957-11.732 29.178-20.674 42.103l-22.206-19.06c4.177-6.38 7.833-13.188 10.878-20.388 1.613-3.815-.171-8.216-3.986-9.829-3.815-1.612-8.216.171-9.83 3.985-2.431 5.747-5.31 11.204-8.561 16.362l-12.287-10.546c2.576-4.33 4.85-8.898 6.773-13.69 1.542-3.845-.323-8.211-4.167-9.754-3.845-1.545-8.211.321-9.754 4.166-1.298 3.233-2.791 6.341-4.443 9.329l-24.127-20.709c.191-.479.379-.961.556-1.448l3.296 1.476c.964.432 2.009.654 3.065.654h40.906c3.189 9.255 11.979 15.926 22.304 15.926h19.837c4.142 0 7.5-3.357 7.5-7.5s-3.358-7.5-7.5-7.5h-19.837c-4.736 0-8.588-3.853-8.588-8.589v-22.426c0-4.736 3.853-8.589 8.588-8.589h60.871v39.604h-11.033c-4.142 0-7.5 3.357-7.5 7.5s3.358 7.5 7.5 7.5h13.133c4.797 0 8.983-2.637 11.205-6.533h13.304c5.57 0 10.449-2.966 13.177-7.393h44.205l11.881 17.862c12.928 19.436 34.417 30.325 56.599 30.325 7.046-.001 14.16-1.118 21.094-3.39 6.905 2.261 14.034 3.395 21.153 3.395 9.092 0 18.164-1.84 26.723-5.507 6.563-2.813 11.948-7.458 15.676-13.185h48.565c4.143 0 7.5-3.357 7.5-7.5s-3.357-7.499-7.5-7.499zm-369.775-162.119c9.856 7.408 18.841 15.981 26.748 25.56l-22.11 18.978c-6.595-8.085-14.127-15.267-22.386-21.451zm-26.896 34.988c7.446 5.555 14.22 12.032 20.138 19.332l-12.153 10.431c-5.191-6.468-11.157-12.195-17.736-17.079zm-18.9 24.587c5.767 4.253 10.976 9.277 15.486 14.961l-23.357 20.048c-3.09-4.065-6.767-7.632-10.896-10.596zm71.482 167.437c-7.79 9.264-16.637 17.654-26.363 24.906-.112.083-.225.163-.337.246l-17.745-23.083c8.24-6.045 15.775-13.075 22.402-20.989zm-33.426-28.691c-5.951 7.129-12.735 13.448-20.164 18.864l-9.724-12.65c6.563-4.745 12.529-10.326 17.753-16.63zm-23.523-20.191c-4.547 5.519-9.77 10.381-15.523 14.492l-18.78-24.43c4.12-2.811 7.813-6.213 10.956-10.102zm-18.012-52.388 10.891-4.876h38.019v9.752h-38.019zm344.874-52.31c.03.01.059.021.089.03 1.325.448 2.639.949 3.936 1.505 7.474 3.203 12.303 10.526 12.303 18.657v6.683l-12.512 17.935h-23.939l6.806-9.755c1.581-2.269 2.417-4.929 2.417-7.692v-7.17c0-8.573-3.102-16.618-8.43-22.875 6.518-.315 13.062.576 19.33 2.682zm-184.896 66.579h-11.609v-26.538h11.609c.268 0 .485.218.485.485v25.566c0 .269-.218.487-.485.487zm15.485-19.145h37.085v11.752h-37.085zm66.268 36.308-14.183-21.322v-2.609h78.913l12.513 17.936v6.682c0 8.131-4.829 15.454-12.302 18.656-.723.31-1.45.602-2.18.877-.013.004-.024.01-.037.015-22.962 8.649-49.019.369-62.724-20.235zm107.169 19.342c-7.462 3.198-15.426 4.597-23.353 4.213 5.326-6.256 8.427-14.299 8.427-22.87v-7.17c0-2.766-.837-5.426-2.419-7.694l-6.804-9.753h23.939l12.512 17.935v6.683c0 8.13-4.829 15.453-12.302 18.656z"/><path d="m476.74 240.696h-32.324c-4.143 0-7.5 3.357-7.5 7.5s3.357 7.5 7.5 7.5h32.324c4.143 0 7.5-3.357 7.5-7.5s-3.357-7.5-7.5-7.5z"/></svg>