<svg id="Capa_1" enable-background="new 0 0 512.483 512.483" height="512" viewBox="0 0 512.483 512.483" width="512" xmlns="http://www.w3.org/2000/svg"><path d="m504.492 392.176c-.008 1.939-1.616 3.488-3.554 3.424l-150.209-4.964-25.821-1.531 4.179-99.953 38.229-4.453 134.008-7.908c1.982-.117 3.651 1.463 3.643 3.449z" fill="#ebebeb"/><path d="m504.492 353.306c-.008 1.939-1.616 3.488-3.554 3.424l-150.209-4.964-24.2-1.435-1.621 38.774 25.821 1.531 150.209 4.964c1.938.064 3.546-1.485 3.554-3.424z" fill="#e2e2e2"/><path d="m451.124 393.953 31.579 1.044v-117.108l-31.579 1.864z" fill="#fe646f"/><path d="m451.124 355.083v38.87l2.931.097 28.648.947v-38.87z" fill="#fb2b3a"/><g fill="#9c9c9c"><path d="m250.068 144.453h-28.297c-2.2 0-5.983-1.783-5.983-3.983v-19.163c0-2.2 3.783-3.983 5.983-3.983h29.178z"/><path d="m248.285 199.374h-27.514c-2.2 0-5.983-1.783-5.983-3.983v-19.163c0-2.2 3.783-3.983 5.983-3.983h28.395z"/><path d="m246.502 254.294h-27.731c-2.2 0-5.983-1.783-5.983-3.983v-19.163c0-2.2 3.783-3.983 5.983-3.983h28.612z"/><path d="m244.719 309.215h-29.948c-2.2 0-3.983-1.783-3.983-3.983v-19.163c0-2.2 1.783-3.983 3.983-3.983h30.829z"/><path d="m242.936 364.136h-30.165c-2.2 0-3.983-1.783-3.983-3.983v-19.163c0-2.2 1.783-3.983 3.983-3.983h31.046z"/></g><path d="m367.461 282.595-62.6-80.54-21.94-91.4c-2.18-9.09-9.68-15.9-18.88-17.24-.25-.04-.51-.07-.76-.1l-9.2-1.02c-1.141-.128-2.255-.08-3.333.094l-9.565 315.111c4.03 4.492 9.101 8.037 14.848 10.235 4.26 1.64 8.88 2.53 13.72 2.53h26.29 2.95c8.43 0 16.63-2.77 23.32-7.89l28.42-21.74c.52-.4.74-1.08.55-1.71-9.68-32.72-10.53-61.84 2.03-85.49 3.55-6.7 8.19-12.96 14-18.74.57-.56.64-1.461.15-2.1z" fill="#00f2a6"/><path d="m343.959 344.365-21.648 16.56c-6.69 5.12-14.89 7.89-23.32 7.89h-2.95-26.29c-4.84 0-9.46-.89-13.72-2.53-5.05-1.932-9.576-4.904-13.334-8.644l-1.513 49.859c4.03 4.492 9.101 8.037 14.848 10.235 4.26 1.64 8.88 2.53 13.72 2.53h26.29 2.95c8.43 0 16.63-2.77 23.32-7.89l28.42-21.74c.52-.4.74-1.08.55-1.71-4.663-15.759-7.269-30.68-7.323-44.56z" fill="#05e39c"/><path d="m367.461 282.595-62.6-80.54-21.94-91.4c-2.18-9.09-9.68-15.9-18.88-17.24l-.734-.097-8.345 86.744 6.939.183 52.77 117.24c1.63 3.62 5.24 5.95 9.21 5.95h29.43c3.55-6.7 8.19-12.96 14-18.74.57-.56.64-1.461.15-2.1z" fill="#c2fae3"/><path d="m296.041 418.544v-8.34c0-21.47-17.4-38.87-38.86-38.89h-7.787v43.107c2.085 1.307 4.306 2.421 6.637 3.313 4.26 1.64 8.88 2.53 13.72 2.53h26.29z" fill="#c2fae3"/><path d="m263.545 93.349c-.088-.011-.177-.024-.264-.035l-9.2-1.02c-7.15-.8-13.47 4.67-13.7 11.87l-8.98 276.48c-.536 16.387 9.274 30.647 23.472 36.621z" fill="#ebebeb"/><path d="m11.508 390.285c11.154 3.386 22.961 5.273 35.186 5.422 69.782.852 127.491-55.736 127.951-125.521.462-70.188-56.297-127.231-126.378-127.231-12.779 0-25.114 1.898-36.74 5.426-2.384.723-4.014 2.926-4.014 5.418v231.075c0 2.485 1.618 4.689 3.995 5.411z" fill="#ebebeb"/><path d="m89.861 358.996c-.137-.002-.274-.004-.411-.006-21.563-.332-38.771-18.136-38.771-39.701v-176.303c-.803-.015-1.606-.031-2.413-.031-12.779 0-25.114 1.898-36.74 5.426-2.384.723-4.013 2.926-4.013 5.418v231.075c0 2.488 1.625 4.691 4.006 5.414 11.151 3.384 22.954 5.27 35.176 5.419 41.863.511 79.375-19.656 102.794-50.937-17.861 9.312-38.172 14.488-59.628 14.226z" fill="#cecece"/><path d="m138.671 345.285 4.79 7.17c-14.53 16.64-33.36 29.43-54.75 36.65l-4.82-7.2c-3.43-5.14-3.93-11.69-1.32-17.28l7.54-16.2c2.78-5.98 8.66-9.9 15.24-10.19l17.86-.78c6.16-.27 12.02 2.7 15.46 7.83z" fill="#838383"/><path d="m143.366 352.312-2.357-3.529c-15.708 6.76-33.015 10.434-51.147 10.213-.137-.002-.274-.004-.411-.006-1.395-.021-2.77-.119-4.125-.283l-2.754 5.918c-2.61 5.59-2.11 12.14 1.32 17.28l4.773 7.13c21.319-7.257 40.141-20.077 54.701-36.723z" fill="#766e6e"/><path d="m170.311 236.395c2.83 10.5 4.34 21.55 4.34 32.94s-1.51 22.44-4.34 32.94h-.01-8.65c-6.18 0-11.9-3.22-15.11-8.49l-9.27-15.28c-3.42-5.63-3.42-12.7 0-18.34l9.27-15.27c3.21-5.28 8.93-8.5 15.11-8.5h8.65z" fill="#838383"/><path d="m143.461 186.215-4.79 7.17c-3.44 5.13-9.3 8.1-15.46 7.83l-17.86-.78c-6.58-.28-12.46-4.21-15.24-10.19l-7.54-16.2c-2.61-5.59-2.11-12.14 1.32-17.27l4.82-7.21c21.39 7.22 40.22 20.01 54.75 36.65z" fill="#838383"/><path d="m87.101 261.795c2.56 4.7 2.56 10.38 0 15.09l-11.41 20.94c-2.76 5.07-8.08 8.23-13.85 8.23h-27.15c-5.77 0-11.09-3.16-13.85-8.23l-11.41-20.94c-1.28-2.35-1.92-4.95-1.92-7.55s.64-5.19 1.92-7.54l11.41-20.95c2.76-5.07 8.08-8.22 13.85-8.22h27.15c5.77 0 11.09 3.15 13.85 8.22z" fill="#838383"/><path d="m50.68 232.625h-15.989c-5.77 0-11.09 3.15-13.85 8.22l-11.41 20.95c-1.271 2.333-1.909 4.903-1.918 7.485v.111c.009 2.582.647 5.161 1.918 7.495l11.41 20.94c2.76 5.07 8.08 8.23 13.85 8.23h15.989z" fill="#766e6e"/><path d="m27.428 244.438c1.451-2.663 4.235-4.317 7.267-4.317h27.145c3.031 0 5.815 1.653 7.266 4.316l5.592 10.264c1.981 3.637 6.537 4.981 10.174 2.998 3.638-1.981 4.979-6.537 2.998-10.174l-5.592-10.263c-4.078-7.489-11.91-12.142-20.438-12.142h-27.146c-8.526 0-16.358 4.651-20.438 12.141l-11.408 20.942c-3.797 6.972-3.797 15.296.001 22.267l11.407 20.942c4.081 7.487 11.912 12.139 20.438 12.139h27.146c8.527 0 16.358-4.651 20.438-12.14l9.103-16.71c1.981-3.638.64-8.192-2.998-10.174-3.64-1.983-8.193-.64-10.174 2.998l-9.103 16.71c-1.45 2.662-4.234 4.315-7.266 4.315h-27.146c-3.031 0-5.816-1.654-7.267-4.315l-11.407-20.941c-1.35-2.479-1.35-5.438 0-7.916z"/><path d="m182.147 269.336c0-73.822-60.059-133.881-133.881-133.881-14.773 0-29.298 2.395-43.171 7.118-3.921 1.335-6.018 5.596-4.683 9.517s5.597 6.015 9.517 4.683c12.313-4.191 25.211-6.317 38.337-6.317 9.845 0 19.411 1.211 28.566 3.478-4.097 7.059-4.532 15.838-1.065 23.281l7.545 16.2c3.979 8.543 12.299 14.106 21.716 14.519l17.854.779c.36.016.719.023 1.078.023 7.797 0 15.253-3.688 19.994-9.86 6.733 9.119 12.196 19.229 16.125 30.07-8.144.518-15.683 5.036-19.943 12.054l-9.274 15.276c-4.892 8.057-4.892 18.065 0 26.122l9.274 15.274c4.261 7.019 11.799 11.537 19.943 12.055-3.928 10.84-9.391 20.949-16.124 30.069-4.959-6.454-12.886-10.187-21.073-9.835l-17.854.78c-9.416.411-17.737 5.974-21.716 14.518l-7.545 16.199c-3.467 7.444-3.032 16.223 1.065 23.282-9.155 2.267-18.721 3.478-28.566 3.478-13.126 0-26.023-2.126-38.337-6.317-3.918-1.338-8.183.761-9.517 4.683-1.335 3.921.762 8.182 4.683 9.517 13.873 4.724 28.397 7.118 43.171 7.118 73.823-.003 133.881-60.061 133.881-133.883zm-49.715-80.117c-1.961 2.933-5.362 4.669-8.896 4.506l-17.853-.779c-3.805-.166-7.166-2.413-8.773-5.864l-7.545-16.201c-1.49-3.198-1.197-7.008.765-9.942l1.527-2.284c16.091 6.33 30.477 16.074 42.266 28.334zm29.215 105.559c-3.529 0-6.859-1.874-8.69-4.891l-9.274-15.275c-1.977-3.254-1.977-7.298 0-10.552l9.274-15.277c1.831-3.016 5.161-4.89 8.69-4.89h2.75c1.795 8.2 2.75 16.711 2.75 25.442s-.955 17.242-2.75 25.442h-2.75zm-69.99 85.239-1.527-2.284c-1.962-2.935-2.255-6.744-.765-9.943l7.545-16.2c1.607-3.451 4.969-5.697 8.772-5.863l17.854-.78c3.533-.163 6.936 1.572 8.896 4.506l1.492 2.231c-11.791 12.258-26.176 22.003-42.267 28.333z"/><path d="m504.725 388.22-14.522-.48v-102.781l15.221-.898c4.136-.244 7.29-3.794 7.046-7.929-.244-4.136-3.811-7.288-7.929-7.046l-132.027 7.791-60.74-78.146-21.558-89.828c-2.97-12.372-13.461-21.632-26.106-23.042l-9.196-1.025c-5.489-.613-11.02 1.11-15.189 4.723-4.17 3.611-6.664 8.844-6.843 14.357l-.192 5.907h-10.917c-5.511 0-13.483 4.089-13.483 11.483v19.162c0 7.395 7.973 11.483 13.483 11.483h9.55l-.415 12.792h-10.134c-5.511 0-13.483 4.089-13.483 11.482v19.163c0 7.395 7.973 11.483 13.483 11.483h8.766l-.415 12.792h-10.351c-5.511 0-13.483 4.089-13.483 11.483v19.162c0 7.395 7.973 11.483 13.483 11.483h8.983l-.415 12.792h-12.568c-6.332 0-11.483 5.151-11.483 11.482v19.163c0 6.332 5.151 11.483 11.483 11.483h11.2l-.415 12.792h-12.784c-6.332 0-11.483 5.151-11.483 11.483v19.162c0 6.332 5.151 11.483 11.483 11.483h11.417l-.285 8.768c-.391 12.06 3.847 23.492 11.94 32.364h-123.659c-4.143 0-7.5 3.357-7.5 7.5s3.357 7.5 7.5 7.5h157.567 29.239 165.893c4.143 0 7.5-3.357 7.5-7.5s-3.357-7.5-7.5-7.5h-130.748l19.02-14.548 151.071 4.993c.085.003.169.004.253.004 4.027 0 7.357-3.197 7.491-7.252.136-4.136-3.109-7.603-7.249-7.74zm-29.522-.975-14.964-.495v-100.022l14.964-.883zm-117.712-3.89c-11.126-40.012-6.809-69.955 13.179-91.341l74.569-4.4v98.642zm-134.203-246.402v-12.129h8.914l-.394 12.129zm-1 54.921v-12.129h8.131l-.394 12.129zm-2 54.92v-12.129h8.347l-.394 12.129zm-2 54.921v-12.129h8.564l-.394 12.129zm-2 54.921v-12.129h8.781l-.394 12.129zm47.344 55.529.806-32.487c13.802 3.299 24.098 15.73 24.098 30.529v2.561h-18.781c-2.082 0-4.13-.205-6.123-.603zm54.123-5.749c-4.145 3.171-9.076 5.223-14.218 5.996v-2.204c0-22.967-16.779-42.079-38.72-45.748l.316-12.739c.103-4.142-3.171-7.581-7.312-7.685-.063-.001-.127-.002-.19-.002-4.056 0-7.393 3.236-7.494 7.313l-1.321 53.231c-.423-.392-.839-.794-1.244-1.212-5.868-6.063-8.949-14.045-8.676-22.478l8.978-276.487c.06-1.843 1.072-2.987 1.671-3.505.535-.464 1.615-1.185 3.149-1.185.18 0 .366.01.559.031l3.119.348-5.49 221.256c-.103 4.142 3.171 7.581 7.312 7.685.063.001.127.002.19.002 4.056 0 7.393-3.236 7.494-7.313l2.69-108.393 41.948 93.184c1.25 2.777 3.982 4.423 6.843 4.423 1.029 0 2.075-.213 3.075-.663 3.776-1.7 5.46-6.141 3.76-9.918l-54.766-121.659 1.832-73.815c2.109 1.995 3.666 4.582 4.372 7.525l21.936 91.401c.249 1.038.717 2.011 1.371 2.853l59.476 76.52c-22.736 25.287-27.797 59.381-15.445 103.952z"/><path d="m317.353 140.594h84.473c4.143 0 7.5-3.357 7.5-7.5s-3.357-7.5-7.5-7.5h-84.473c-4.143 0-7.5 3.357-7.5 7.5s3.358 7.5 7.5 7.5z"/><path d="m362.19 168.745c-4.143 0-7.5 3.357-7.5 7.5s3.357 7.5 7.5 7.5h84.474c4.143 0 7.5-3.357 7.5-7.5s-3.357-7.5-7.5-7.5z"/><path d="m349.59 213.528c-4.143 0-7.5 3.357-7.5 7.5s3.357 7.5 7.5 7.5h56.59c4.143 0 7.5-3.357 7.5-7.5s-3.357-7.5-7.5-7.5z"/><path d="m427.603 140.594h14.707c4.143 0 7.5-3.357 7.5-7.5s-3.357-7.5-7.5-7.5h-14.707c-4.143 0-7.5 3.357-7.5 7.5s3.358 7.5 7.5 7.5z"/></svg>