<svg id="Capa_1" enable-background="new 0 0 510.563 510.563" height="512" viewBox="0 0 510.563 510.563" width="512" xmlns="http://www.w3.org/2000/svg"><path d="m499.433 489.24h-488.302c-2.005 0-3.631-1.626-3.631-3.631v-352.282c0-2.005 1.626-3.631 3.631-3.631h488.302c2.005 0 3.631 1.626 3.631 3.631v352.283c-.001 2.004-1.626 3.63-3.631 3.63z" fill="#00f2a6"/><path d="m177.548 321.907h-170.048v131.278h170.048c36.251 0 65.639-29.387 65.639-65.639 0-36.252-29.387-65.639-65.639-65.639z" fill="#00c285"/><path d="m177.548 321.907h-170.048v44.2h170.048c28.496 0 52.741 18.162 61.815 43.539 2.47-6.907 3.824-14.344 3.824-22.1 0-36.252-29.387-65.639-65.639-65.639z" fill="#fef1da"/><circle cx="296.198" cy="314.639" fill="#ebebeb" r="97.817"/><path d="m282.488 314.639c0-38.968 22.788-72.611 55.764-88.337-12.74-6.076-26.999-9.48-42.054-9.48-54.023 0-97.818 43.794-97.818 97.818 0 54.023 43.794 97.817 97.818 97.817 15.055 0 29.314-3.405 42.054-9.48-32.976-15.727-55.764-49.37-55.764-88.338z" fill="#cecece"/><path d="m92.822 25.565v427.62h-39.284v-427.62c0-2.343 1.899-4.242 4.242-4.242h30.8c2.343.001 4.242 1.9 4.242 4.242z" fill="#ebebeb"/><path d="m53.538 25.565v427.62h19.642v-431.862h-15.4c-2.343 0-4.242 1.9-4.242 4.242z" fill="#cecece"/><path d="m53.538 51.591h39.284v31.051h-39.284z" fill="#fe646f"/><path d="m53.538 114.917h39.284v31.051h-39.284z" fill="#fe646f"/><path d="m241.179 340.395h-1.642c-6.581 0-11.917-5.335-11.917-11.917v-1.311c0-.972.788-1.76 1.76-1.76h21.956c.972 0 1.76.788 1.76 1.76v1.311c-.001 6.582-5.336 11.917-11.917 11.917z" fill="#acacac"/><path d="m286.381 340.395h-1.642c-6.582 0-11.917-5.335-11.917-11.917v-1.311c0-.972.788-1.76 1.76-1.76h21.956c.972 0 1.76.788 1.76 1.76v1.311c0 6.582-5.335 11.917-11.917 11.917z" fill="#bfbfbf"/><path d="m283.074 325.408h-8.492c-.972 0-1.76.788-1.76 1.76v1.311c0 6.582 5.335 11.917 11.917 11.917h1.189c-1.322-4.858-2.292-9.861-2.854-14.988z" fill="#acacac"/><path d="m286.381 391.818h-1.642c-6.582 0-11.917-5.335-11.917-11.917v-1.311c0-.972.788-1.76 1.76-1.76h21.956c.972 0 1.76.788 1.76 1.76v1.311c0 6.582-5.335 11.917-11.917 11.917z" fill="#acacac"/><path d="m331.584 340.395h-1.642c-6.582 0-11.917-5.335-11.917-11.917v-1.311c0-.972.788-1.76 1.76-1.76h21.956c.972 0 1.76.788 1.76 1.76v1.311c0 6.582-5.335 11.917-11.917 11.917z" fill="#bfbfbf"/><path d="m307.012 366.107h-1.642c-6.582 0-11.917-5.335-11.917-11.917v-1.311c0-.972.788-1.76 1.76-1.76h21.956c.972 0 1.76.788 1.76 1.76v1.311c0 6.582-5.336 11.917-11.917 11.917z" fill="#bfbfbf"/><path d="m266.122 366.107h-1.642c-6.582 0-11.917-5.335-11.917-11.917v-1.311c0-.972.788-1.76 1.76-1.76h21.956c.972 0 1.76.788 1.76 1.76v1.311c0 6.582-5.335 11.917-11.917 11.917z" fill="#acacac"/><path d="m53.538 114.917h19.642v31.051h-19.642z" fill="#fb2b3a"/><path d="m53.538 51.591h19.642v31.051h-19.642z" fill="#fb2b3a"/><path d="m465.263 419.957h17.528c4.142 0 7.5-3.357 7.5-7.5s-3.358-7.5-7.5-7.5h-17.528c-4.142 0-7.5 3.357-7.5 7.5s3.358 7.5 7.5 7.5z"/><path d="m404.373 364.994c0 4.143 3.358 7.5 7.5 7.5h55.43c4.142 0 7.5-3.357 7.5-7.5s-3.358-7.5-7.5-7.5h-55.43c-4.142 0-7.5 3.357-7.5 7.5z"/><path d="m444.479 322.139c4.142 0 7.5-3.357 7.5-7.5s-3.358-7.5-7.5-7.5h-15.488c-4.142 0-7.5 3.357-7.5 7.5s3.358 7.5 7.5 7.5z"/><path d="m7.5 445.685c-4.142 0-7.5 3.357-7.5 7.5s3.358 7.5 7.5 7.5h167.646c33.394 0 61.931-22.407 70.498-53.679 15.015 8.251 32.245 12.951 50.554 12.951h139.064c4.142 0 7.5-3.357 7.5-7.5s-3.358-7.5-7.5-7.5h-84.949c30.651-18.434 51.202-52.019 51.202-90.317 0-21.833-6.679-42.135-18.1-58.972h83.887c4.142 0 7.5-3.357 7.5-7.5s-3.358-7.5-7.5-7.5h-96.216c-19.106-19.34-45.62-31.346-74.889-31.346-58.072 0-105.317 47.245-105.317 105.317 0 .501.012.999.019 1.498-5.154-1.139-10.419-1.73-15.754-1.73h-74.824v-176.464h347.036c4.142 0 7.5-3.357 7.5-7.5s-3.358-7.5-7.5-7.5h-347.035v-101.619c0-4.143-3.358-7.5-7.5-7.5s-7.5 3.357-7.5 7.5v22.768h-24.284v-22.768c0-4.143-3.358-7.5-7.5-7.5s-7.5 3.357-7.5 7.5v101.619h-38.538c-4.142 0-7.5 3.357-7.5 7.5s3.358 7.5 7.5 7.5h38.538v176.464h-38.538c-4.142 0-7.5 3.357-7.5 7.5s3.358 7.5 7.5 7.5h38.538v28.087h-38.538c-4.142 0-7.5 3.357-7.5 7.5s3.358 7.5 7.5 7.5h38.538v73.191zm288.698-221.363c49.801 0 90.317 40.517 90.317 90.317s-40.515 90.318-90.317 90.318-90.317-40.517-90.317-90.317 40.516-90.318 90.317-90.318zm-121.052 105.085c5.862 0 11.619.887 17.177 2.611 1.823 10.933 5.331 21.302 10.256 30.828-8.548-3.465-17.83-5.352-27.433-5.352h-74.824v-28.087zm-89.824-221.99h-24.284v-17.275h24.284zm-24.284 15h24.284v16.051h-24.284zm24.284-63.326v16.051h-24.284v-16.051zm-24.284 94.377h24.284v236.254c0 4.143 3.358 7.5 7.5 7.5s7.5-3.357 7.5-7.5v-17.229h74.824c23.859 0 45.237 14.61 54.003 36.615-8.598 21.623-29.679 36.576-54.003 36.576h-74.824v-25.963c0-4.143-3.358-7.5-7.5-7.5s-7.5 3.357-7.5 7.5v25.963h-24.284z"/><path d="m477.358 137.943h25.706c4.142 0 7.5-3.357 7.5-7.5s-3.358-7.5-7.5-7.5h-25.706c-4.142 0-7.5 3.357-7.5 7.5s3.358 7.5 7.5 7.5z"/><path d="m503.063 481.74h-495.563c-4.142 0-7.5 3.357-7.5 7.5s3.358 7.5 7.5 7.5h495.563c4.142 0 7.5-3.357 7.5-7.5s-3.357-7.5-7.5-7.5z"/><path d="m241.179 340.396c6.582 0 11.917-5.335 11.917-11.917v-1.311c0-.972-.788-1.76-1.76-1.76h-21.956c-.972 0-1.76.788-1.76 1.76v1.311c0 6.582 5.335 11.917 11.917 11.917z"/><path d="m284.74 340.396h1.642c6.581 0 11.917-5.335 11.917-11.917v-1.311c0-.972-.788-1.76-1.76-1.76h-21.956c-.972 0-1.76.788-1.76 1.76v1.311c0 6.581 5.335 11.917 11.917 11.917z"/><path d="m296.539 376.831h-21.956c-.972 0-1.76.788-1.76 1.76v1.311c0 6.582 5.335 11.917 11.917 11.917h1.642c6.581 0 11.917-5.335 11.917-11.917v-1.311c-.001-.972-.789-1.76-1.76-1.76z"/><path d="m329.943 340.396h1.642c6.581 0 11.917-5.335 11.917-11.917v-1.311c0-.972-.788-1.76-1.76-1.76h-21.956c-.972 0-1.76.788-1.76 1.76v1.311c0 6.581 5.335 11.917 11.917 11.917z"/><path d="m293.453 352.879v1.311c0 6.582 5.335 11.917 11.917 11.917h1.642c6.581 0 11.917-5.335 11.917-11.917v-1.311c0-.972-.788-1.76-1.76-1.76h-21.956c-.972 0-1.76.788-1.76 1.76z"/><path d="m252.563 352.879v1.311c0 6.582 5.335 11.917 11.917 11.917h1.642c6.582 0 11.917-5.335 11.917-11.917v-1.311c0-.972-.788-1.76-1.76-1.76h-21.956c-.972 0-1.76.788-1.76 1.76z"/></svg>