<svg id="Capa_1" enable-background="new 0 0 511.325 511.325" height="512" viewBox="0 0 511.325 511.325" width="512" xmlns="http://www.w3.org/2000/svg"><path d="m497.153 360.442c-7.46-1.97-19.2-5.05-33.84-8.82l-176.34-41.92c-27.6-5.75-52.62-10.33-71.2-12.56h-.8l-115.37-1.74-34.94-.08-52.269-.121c-2.144-.005-3.886 1.729-3.892 3.872l-.069 25.235c-.006 2.145 1.729 3.888 3.873 3.893l87.296.211 115.28 1.81c16.69 2.14 39.4 6.35 64.99 11.71l176.34 41.93c12.1 3.12 23.09 5.99 32.47 8.47 4.77 1.26 9.65-1.58 10.93-6.34l3.9-14.59c1.281-4.78-1.569-9.7-6.359-10.96z" fill="#acacac"/><path d="m503.181 370.473c-1.28 4.76-6.16 7.6-10.93 6.34-9.38-2.48-20.37-5.35-32.47-8.47l-176.34-41.93c-25.59-5.36-48.3-9.57-64.99-11.71l-115.28-1.81-73.743-.178c-9.629-.023-17.415-7.85-17.389-17.479-1.975.177-3.531 1.815-3.536 3.837l-.069 25.235c-.006 2.145 1.728 3.888 3.873 3.893l87.296.211 115.28 1.81c16.69 2.14 39.4 6.35 64.99 11.71l176.34 41.93c12.1 3.12 23.09 5.99 32.47 8.47 4.77 1.26 9.65-1.58 10.93-6.34l3.9-14.59c.282-1.052.353-2.109.258-3.135z" fill="#9e9797"/><g fill="#838383"><path d="m292.549 470.304-18.717-4.123c-11.231-2.474-18.33-13.584-15.856-24.815l49.996-226.976c2.474-11.231 13.584-18.33 24.815-15.856l18.717 4.123c11.231 2.474 18.33 13.584 15.856 24.815l-49.996 226.976c-2.475 11.231-13.584 18.33-24.815 15.856z"/><path d="m353.004 475.721-18.126-3.992c-11.231-2.474-18.33-13.584-15.856-24.815l45.612-207.075c2.474-11.231 13.584-18.33 24.815-15.856l18.126 3.992c11.231 2.474 18.33 13.584 15.856 24.815l-45.612 207.075c-2.474 11.231-13.584 18.33-24.815 15.856z"/><path d="m414.01 478.645-18.126-3.992c-11.231-2.474-18.33-13.584-15.856-24.815l40.562-184.149c2.474-11.231 13.584-18.33 24.815-15.856l18.126 3.993c11.231 2.474 18.33 13.584 15.856 24.815l-40.562 184.149c-2.475 11.23-13.584 18.329-24.815 15.855z"/></g><path d="m294.857 449.377 49.996-226.975c1.745-7.923 7.795-13.771 15.146-15.671-2.412-1.928-5.276-3.365-8.496-4.074l-18.717-4.123c-11.231-2.474-22.341 4.625-24.815 15.856l-49.996 226.975c-2.474 11.231 4.625 22.341 15.856 24.815l18.717 4.123c3.308.729 6.599.608 9.668-.186-6.001-4.796-9.124-12.728-7.359-20.74z" fill="#766e6e"/><path d="m355.904 454.925 45.612-207.075c1.719-7.806 7.615-13.606 14.819-15.593-2.464-2.036-5.424-3.547-8.76-4.282l-18.126-3.992c-11.231-2.474-22.341 4.625-24.815 15.856l-45.612 207.075c-2.474 11.231 4.625 22.341 15.856 24.815l18.125 3.992c3.425.754 6.835.609 9.995-.263-5.83-4.817-8.833-12.638-7.094-20.533z" fill="#766e6e"/><path d="m416.909 457.849 40.562-184.149c1.719-7.806 7.615-13.606 14.819-15.593-2.464-2.036-5.424-3.547-8.76-4.282l-18.125-3.992c-11.231-2.474-22.341 4.625-24.815 15.856l-40.562 184.149c-2.474 11.231 4.625 22.341 15.856 24.815l18.126 3.993c3.425.754 6.835.608 9.995-.263-5.831-4.819-8.835-12.64-7.096-20.534z" fill="#766e6e"/><path d="m99.603 303.579c0-4.519-3.658-8.185-8.177-8.196l-25.967-.059c-.439-.001-.793-.359-.789-.798l.215-22.823c.195-20.661 9.693-40.33 26.259-52.678.53-.395 1.066-.782 1.609-1.162.71-.5.97-1.43.58-2.21l-51.46-104.48h-3.93c-16.812 0-30.44-13.628-30.44-30.44v-50.958c0-3.63 2.943-6.573 6.573-6.573h66.784c2.319 0 4.569.792 6.378 2.244l49.386 39.656c7.81 6.29 13.41 14.92 15.97 24.62l27.33 103.56c.88 3.34 2.67 6.38 5.16 8.77l5.316 5.106c15.7 15.079 24.574 35.906 24.574 57.674v12.36 19.95 31.43c0 .56-.03 1.11-.09 1.65-.82 7.19-6.92 12.77-14.33 12.77-3.98 0-7.59-1.61-10.19-4.23-2.62-2.6-4.23-6.21-4.23-10.19-.01 7.95-6.46 14.4-14.42 14.4-3.98 0-7.59-1.61-10.19-4.23-2.62-2.6-4.23-6.21-4.23-10.19 0 7.96-6.46 14.42-14.42 14.42-3.99 0-7.59-1.61-10.2-4.23-2.61-2.6-4.22-6.21-4.22-10.19 0 7.96-6.46 14.42-14.42 14.42-3.99 0-7.59-1.61-10.2-4.23-2.61-2.6-4.23-6.21-4.23-10.19v-.14-24.833z" fill="#fed2a4"/><path d="m87.445 295.332-3.367-.008c-.439-.001-.793-.359-.789-.798l.215-22.823c.195-20.661 9.693-40.33 26.259-52.678.53-.395 1.066-.782 1.609-1.162.71-.5.97-1.43.58-2.21l-51.46-104.48h-3.93c-16.812 0-30.44-13.628-30.44-30.44v-50.958c0-3.63 2.943-6.573 6.573-6.573h-18.618c-3.63 0-6.573 2.943-6.573 6.573v50.957c0 16.812 13.628 30.44 30.44 30.44h3.93l51.46 104.48c.39.78.13 1.71-.58 2.21-.543.38-1.079.768-1.609 1.162-16.566 12.348-26.064 32.017-26.259 52.678l-.215 22.823c-.004.439.35.797.789.798l21.985.05z" fill="#ffbd86"/><path d="m122.452 338.742c-2.61-2.6-4.23-6.21-4.23-10.19v-.14-24.833c0-4.519-3.658-8.185-8.177-8.196l-18.056-.041v.071c4.255.3 7.614 3.837 7.614 8.166v24.833.14c0 3.98 1.62 7.59 4.23 10.19 2.61 2.62 6.21 4.23 10.2 4.23 3.549 0 6.795-1.29 9.308-3.419-.306-.26-.606-.527-.889-.811z" fill="#ffbd86"/><path d="m375.167 112.754-29.21-36.568c-.884-1.106-2.565-1.106-3.449 0l-29.21 36.568c-1.155 1.445-.125 3.585 1.724 3.585h10.49c1.219 0 2.207.988 2.207 2.207v35.251c0 1.219.988 2.207 2.207 2.207h28.613c1.219 0 2.207-.988 2.207-2.207v-35.251c0-1.219.988-2.207 2.207-2.207h10.49c1.849 0 2.878-2.139 1.724-3.585z" fill="#00f2a6"/><path d="m130.543 444.87-29.21-36.568c-.884-1.106-2.565-1.106-3.449 0l-29.21 36.568c-1.155 1.445-.125 3.585 1.724 3.585h10.49c1.219 0 2.207.988 2.207 2.207v35.251c0 1.219.988 2.207 2.207 2.207h28.613c1.219 0 2.207-.988 2.207-2.207v-35.251c0-1.219.988-2.207 2.207-2.207h10.49c1.849 0 2.878-2.139 1.724-3.585z" fill="#01d0fb"/><path d="m151.302 338.742c-2.61-2.6-4.23-6.21-4.23-10.19v-.14s-.004-7.748-.01-14.665c-.004-5.862-4.758-10.611-10.62-10.611h-8.01c.008.148.021 25.276.021 25.276v.14c0 3.98 1.62 7.59 4.23 10.19 2.61 2.62 6.21 4.23 10.2 4.23 3.549 0 6.795-1.29 9.308-3.419-.305-.26-.605-.527-.889-.811z" fill="#ffbd86"/><path d="m180.13 338.742c-2.61-2.6-4.23-6.21-4.23-10.19v-.14s-.004-7.748-.01-14.665c-.004-5.862-4.758-10.611-10.62-10.611h-8.01c.008.148.021 25.276.021 25.276v.14c0 3.98 1.62 7.59 4.23 10.19 2.61 2.62 6.21 4.23 10.2 4.23 3.549 0 6.795-1.29 9.308-3.419-.305-.26-.605-.527-.889-.811z" fill="#ffbd86"/><path d="m208.975 338.742c-2.61-2.6-4.23-6.21-4.23-10.19v-.14s-.004-7.748-.01-14.665c-.004-5.862-4.758-10.611-10.62-10.611h-8.01c.008.148.021 25.276.021 25.276v.14c0 3.98 1.62 7.59 4.23 10.19 2.61 2.62 6.21 4.23 10.2 4.23 3.549 0 6.795-1.29 9.308-3.419-.306-.26-.606-.527-.889-.811z" fill="#ffbd86"/><path d="m509.098 360.838c-2.209-3.808-5.77-6.524-10.026-7.648-6.053-1.6-15.283-4.023-26.88-7.022l14.519-65.915c3.359-15.252-6.315-30.393-21.566-33.752l-18.126-3.993c-5.532-1.219-11.047-.715-15.993 1.14-1.86-11.059-10.23-20.44-21.837-22.998l-18.125-3.992c-5.599-1.233-11.181-.704-16.172 1.208-.654-3.555-1.995-6.986-4-10.124-4.073-6.375-10.386-10.782-17.774-12.409l-18.717-4.123c-7.389-1.628-14.969-.281-21.343 3.793-6.375 4.073-10.782 10.386-12.409 17.774l-19.403 88.087c-23.827-4.864-43.536-8.358-58.769-10.42v-25.613c0-23.688-9.8-46.684-26.888-63.091l-5.311-5.099c-1.5-1.44-2.574-3.266-3.105-5.277l-10.397-39.398c-1.058-4.004-5.16-6.394-9.166-5.338-4.005 1.058-6.395 5.161-5.338 9.166l10.398 39.398c1.234 4.678 3.731 8.92 7.22 12.27l5.311 5.099c14.157 13.593 22.276 32.646 22.276 52.271v63.735c0 3.816-3.105 6.922-6.921 6.922-3.801 0-6.894-3.081-6.919-6.876 0-.021.002-.042.002-.063v-24.377c0-4.143-3.358-7.5-7.5-7.5s-7.5 3.357-7.5 7.5v15.304c0 .026-.004.051-.004.077v9.012c0 .013.001.027.001.04-.031 3.79-3.121 6.864-6.919 6.864-3.816 0-6.921-3.104-6.921-6.921v-7.453-16.924c0-4.143-3.358-7.5-7.5-7.5s-7.5 3.357-7.5 7.5v16.924 7.453c0 3.816-3.105 6.921-6.921 6.921s-6.921-3.104-6.921-6.921v-13.886-10.491c0-4.143-3.358-7.5-7.5-7.5s-7.5 3.357-7.5 7.5v10.491 13.886c0 3.816-3.105 6.921-6.921 6.921s-6.921-3.104-6.921-6.921v-51.377c0-4.143-3.358-7.5-7.5-7.5s-7.5 3.357-7.5 7.5v10.715l-19.875-.048.226-23.837c2.311-16.105 11.256-30.663 24.596-39.996 3.782-2.647 5.043-7.563 2.997-11.691l-46.458-93.649h5.594c4.142 0 7.5-3.357 7.5-7.5s-3.358-7.5-7.5-7.5h-21.246c-12.653.001-22.946-10.292-22.946-22.945 0-4.143-3.358-7.5-7.5-7.5s-7.5 3.358-7.5 7.5c0 20.583 16.476 37.378 36.931 37.919.111.337.238.672.4 1l47.157 95.057c-14.677 11.822-24.412 28.966-26.957 47.744-.042.31-.064.623-.067.936l-.231 24.428-48.704-.117c-.006 0-.012 0-.019 0-4.133 0-7.49 3.347-7.5 7.482-.01 4.142 3.34 7.508 7.482 7.518l83.616.2v18.001l-83.671-.202c-.006 0-.012 0-.019 0-4.133 0-7.49 3.346-7.5 7.482-.01 4.142 3.34 7.508 7.482 7.518l84.977.205c3.026 8.486 11.14 14.578 20.652 14.578 5.519 0 10.564-2.054 14.421-5.433 3.858 3.378 8.903 5.433 14.421 5.433s10.564-2.054 14.421-5.433c3.858 3.378 8.903 5.433 14.421 5.433 5.513 0 10.553-2.05 14.41-5.422 3.859 3.383 8.907 5.44 14.43 5.44 8.51 0 15.898-4.878 19.529-11.982 13.215 1.919 30.261 5.016 50.837 9.232l-20.268 92.014c-1.628 7.388-.281 14.968 3.792 21.344 4.074 6.375 10.386 10.782 17.774 12.409l18.717 4.122c2.045.451 4.104.674 6.149.674 5.342-.001 10.584-1.521 15.193-4.467 1.958-1.251 3.728-2.714 5.291-4.354 4.003 4.842 9.464 8.199 15.697 9.573l18.126 3.992c2.044.45 4.085.667 6.097.666 8.573 0 16.582-3.941 21.889-10.402 3.814 4.226 8.923 7.352 14.894 8.667l18.125 3.992c2.044.45 4.085.666 6.097.666 13 0 24.746-9.026 27.656-22.233l15.713-71.335c8.699 2.251 17.051 4.435 24.902 6.512 1.402.371 2.811.549 4.197.549 7.264-.001 13.934-4.862 15.896-12.199l3.902-14.588c1.139-4.253.549-8.692-1.66-12.502zm-231.081-45.325-3.871 17.573c-20.83-4.271-38.138-7.414-51.67-9.387v-18.114c14.562 2.041 33.167 5.364 55.541 9.928zm76.601 152.884-18.125-3.992c-3.476-.766-6.445-2.839-8.361-5.838s-2.55-6.563-1.784-10.039l26.701-121.221c0-.002.001-.004.001-.006l4.83-21.927c.892-4.045-1.666-8.047-5.711-8.938-4.048-.896-8.046 1.666-8.938 5.711l-33.192 150.688c-.766 3.476-2.839 6.444-5.837 8.36-2.999 1.916-6.564 2.55-10.04 1.784l-18.717-4.122c-3.476-.766-6.444-2.839-8.36-5.838s-2.55-6.564-1.784-10.04l27.583-125.224 1.418-6.438c0-.001 0-.001 0-.002l20.994-95.311c.766-3.476 2.839-6.444 5.838-8.361 2.998-1.915 6.562-2.549 10.039-1.784l18.717 4.123c3.476.766 6.445 2.839 8.361 5.837 1.916 2.999 2.55 6.564 1.784 10.04l-2.719 12.344c-.002.008-.004.016-.006.023l-7.623 34.612c-.892 4.045 1.666 8.047 5.711 8.938 4.042.895 8.046-1.666 8.938-5.711l7.626-34.624c1.586-7.167 8.707-11.712 15.875-10.134l18.124 3.992c7.175 1.581 11.727 8.703 10.146 15.877l-45.612 207.076c-1.58 7.175-8.704 11.728-15.877 10.145zm76.882-7.222c-1.581 7.175-8.707 11.728-15.878 10.146l-18.125-3.992c-7.174-1.581-11.726-8.704-10.146-15.878l40.563-184.148c1.581-7.174 8.707-11.726 15.877-10.146l18.126 3.993c7.174 1.58 11.725 8.702 10.145 15.877zm64.768-91.711-3.902 14.589c-.206.769-.997 1.229-1.764 1.026-8.039-2.128-16.593-4.364-25.512-6.671l3.873-17.582c11.322 2.929 20.333 5.295 26.276 6.865h.001c.48.127.744.436.882.673.137.237.275.62.146 1.1z"/><path d="m79.748 29.054 52.172 41.886c6.612 5.328 11.252 12.485 13.419 20.698l9.23 34.976c.888 3.363 3.924 5.588 7.247 5.588.633 0 1.277-.081 1.918-.25 4.005-1.058 6.395-5.161 5.338-9.166l-9.23-34.976c-2.99-11.328-9.391-21.2-18.522-28.559l-52.182-41.894c-3.23-2.593-7.951-2.077-10.544 1.153-2.593 3.231-2.076 7.95 1.154 10.544z"/><path d="m315.022 123.839h5.196v29.957c0 5.353 4.354 9.707 9.707 9.707h28.613c5.353 0 9.707-4.354 9.707-9.707v-29.957h5.197c3.765 0 7.116-2.107 8.748-5.5 1.631-3.393 1.185-7.327-1.166-10.268l-29.208-36.566c-1.853-2.319-4.617-3.649-7.585-3.649s-5.732 1.33-7.585 3.649l-29.208 36.566c-2.351 2.94-2.797 6.875-1.166 10.267 1.633 3.394 4.985 5.501 8.75 5.501zm29.21-37.795 18.219 22.808c-5.12.262-9.205 4.51-9.205 9.694v29.957h-18.027v-29.957c0-5.185-4.085-9.433-9.205-9.694z"/><path d="m136.403 440.19-29.21-36.568c-1.852-2.319-4.617-3.649-7.584-3.649s-5.732 1.33-7.584 3.649l-29.212 36.568c-2.349 2.941-2.794 6.875-1.163 10.267 1.632 3.392 4.984 5.498 8.748 5.498h5.197v29.958c0 5.353 4.354 9.707 9.707 9.707h28.613c5.353 0 9.707-4.354 9.707-9.707v-29.958h5.197c3.764 0 7.116-2.106 8.747-5.498s1.186-7.326-1.163-10.267zm-27.781 10.472v29.958h-18.028v-29.958c0-5.184-4.085-9.432-9.205-9.694l18.218-22.807 18.218 22.807c-5.118.262-9.203 4.51-9.203 9.694z"/></svg>