<svg id="Capa_1" enable-background="new 0 0 512.11 512.11" height="512" viewBox="0 0 512.11 512.11" width="512" xmlns="http://www.w3.org/2000/svg"><path d="m210.383 147.811-27.893-105.343c-.158-.589-.692-.999-1.302-.999h-95.252c-.912 0-1.56.887-1.284 1.756l32.325 102.199z" fill="#fed2a4"/><path d="m139.132 77.507-11.398-36.038h-41.797c-.912 0-1.561.887-1.284 1.756l32.325 102.199 93.406 2.387-8.255-31.175-11.375-.291c-23.731-.606-44.464-16.204-51.622-38.838z" fill="#ffbd86"/><circle cx="36.695" cy="441.224" fill="#838383" r="29.418"/><circle cx="151.928" cy="441.224" fill="#838383" r="29.418"/><path d="m265.423 361.444v14.24c0 5.51-4.47 9.99-9.99 9.99h-209.26c-5.52 0-9.99-4.48-9.99-9.99v-14.24z" fill="#fddeb0"/><path d="m257.163 322.044 8.26 39.4h-49.02-120.96-59.26v-25.42c0-17.54 14.22-31.76 31.76-31.76h4.68 55.72c7.57 0 13.06-7.22 11.04-14.52l-15.9-57.47h42.89 71.99z" fill="#08a9f1"/><path d="m230.223 203.014 3.76 14.63h-106.85l-4.2-14.63-20.37-65.88c-.95-3 1.28-6.06 4.43-6.06h101.28c2.12 0 3.97 1.43 4.51 3.48z" fill="#ebebeb"/><path d="m145.52 137.134c-.95-3 1.28-6.06 4.43-6.06h-42.958c-3.15 0-5.38 3.06-4.43 6.06l20.37 65.88 4.2 14.63h42.958l-4.2-14.63z" fill="#cecece"/><path d="m116.217 181.295h108.473l-6.605-25.927h-109.885z" fill="#fe646f"/><path d="m151.158 155.368h-42.958l8.017 25.927h42.958z" fill="#fb2b3a"/><path d="m246.353 207.304c2.64 2.64 4.28 6.3 4.28 10.34 0 8.08-6.55 14.63-14.63 14.63h-111.73c-4.04 0-7.7-1.64-10.34-4.29-2.65-2.64-4.29-6.3-4.29-10.34 0-8.08 6.55-14.63 14.63-14.63h111.73c4.04 0 7.7 1.64 10.35 4.29z" fill="#fddeb0"/><path d="m238.363 232.274 18.8 89.77h-8.59c-8.01 0-15.34 2.93-20.97 7.77l-13.89-64.57c-.51-2.4-2.63-4.11-5.08-4.11h-33.46l-8.8-28.86z" fill="#fef1da"/><path d="m182.633 285.584c2.83 9.29-4.12 18.68-13.83 18.68h-40.46c7.57 0 13.06-7.22 11.04-14.52l-15.9-57.47h42.89l8.8 28.86z" fill="#01d0fb"/><path d="m95.443 327.084v34.36h-59.26v-25.42c0-17.54 14.22-31.76 31.76-31.76h4.68c12.6 0 22.82 10.22 22.82 22.82z" fill="#fef1da"/><path d="m260.583 431.684c2.22 4.37-.96 9.54-5.85 9.54h-38.47c-.63 0-1.23-.26-1.66-.72l-5.19-5.53c-1.08-1.16-2.59-1.81-4.17-1.81h-110.05c-1.58 0-3.09.65-4.17 1.81l-5.19 5.53c-.43.46-1.03.72-1.66.72h-38.47c-4.89 0-8.07-5.17-5.85-9.54l8.93-17.62c1.15-2.43 3.59-3.98 6.27-3.98h190.33c2.68 0 5.12 1.55 6.27 3.98z" fill="#bfbfbf"/><path d="m193.093 385.674h41.46v24.41h-41.46z" fill="#838383"/><path d="m63.013 385.674h41.46v24.41h-41.46z" fill="#838383"/><path d="m423.984 147.811-27.894-105.343c-.158-.589-.692-.999-1.302-.999h-95.252c-.912 0-1.56.887-1.284 1.756l32.325 102.199z" fill="#fed2a4"/><path d="m352.732 77.507-11.399-36.038h-41.797c-.912 0-1.561.887-1.284 1.756l32.325 102.199 93.406 2.387-8.255-31.175-11.375-.291c-23.73-.606-44.462-16.204-51.621-38.838z" fill="#ffbd86"/><g fill="#838383"><circle cx="250.296" cy="441.224" r="29.418"/><circle cx="365.528" cy="441.224" r="29.418"/><circle cx="475.192" cy="441.224" r="29.418"/></g><path d="m479.023 361.444v14.24c0 5.51-4.47 9.99-9.99 9.99h-209.26c-5.52 0-9.99-4.48-9.99-9.99v-14.24z" fill="#fddeb0"/><path d="m470.763 322.044 8.26 39.4h-49.02-120.96-59.26v-25.42c0-17.54 14.22-31.76 31.76-31.76h4.68 55.72c7.57 0 13.06-7.22 11.04-14.52l-15.9-57.47h42.89 71.99z" fill="#08a9f1"/><path d="m444.118 203.014 3.76 14.63h-106.85l-4.2-14.63-20.37-65.88c-.95-3 1.28-6.06 4.43-6.06h101.28c2.12 0 3.97 1.43 4.51 3.48z" fill="#ebebeb"/><path d="m359.12 137.134c-.95-3 1.28-6.06 4.43-6.06h-42.663c-3.15 0-5.38 3.06-4.43 6.06l20.37 65.88 4.2 14.63h42.663l-4.2-14.63z" fill="#cecece"/><path d="m330.112 181.295h108.473l-6.605-25.927h-109.884z" fill="#fe646f"/><path d="m364.758 155.368h-42.662l7.874 25.465.142.462h42.663z" fill="#fb2b3a"/><path d="m459.953 207.304c2.64 2.64 4.28 6.3 4.28 10.34 0 8.08-6.55 14.63-14.63 14.63h-111.73c-4.04 0-7.7-1.64-10.34-4.29-2.65-2.64-4.29-6.3-4.29-10.34 0-8.08 6.55-14.63 14.63-14.63h111.73c4.04 0 7.7 1.64 10.35 4.29z" fill="#fddeb0"/><path d="m470.763 322.044 8.26 39.4h-49.02v-7.24c0-9.75 4.34-18.49 11.2-24.38v-.01c5.63-4.84 12.96-7.77 20.97-7.77z" fill="#01d0fb"/><path d="m451.963 232.274 18.8 89.77h-8.59c-8.01 0-15.34 2.93-20.97 7.77l-13.89-64.57c-.51-2.4-2.63-4.11-5.08-4.11h-33.46l-8.8-28.86z" fill="#fef1da"/><path d="m396.233 285.584c2.83 9.29-4.12 18.68-13.83 18.68h-40.46c7.57 0 13.06-7.22 11.04-14.52l-15.9-57.47h42.89l8.8 28.86z" fill="#01d0fb"/><path d="m309.043 327.084v34.36h-59.26v-25.42c0-17.54 14.22-31.76 31.76-31.76h4.68c12.6 0 22.82 10.22 22.82 22.82z" fill="#fef1da"/><path d="m474.183 431.684c2.22 4.37-.96 9.54-5.85 9.54h-38.47c-.63 0-1.23-.26-1.66-.72l-5.19-5.53c-1.08-1.16-2.59-1.81-4.17-1.81h-110.05c-1.58 0-3.09.65-4.17 1.81l-5.19 5.53c-.43.46-1.03.72-1.66.72h-38.47c-4.89 0-8.07-5.17-5.85-9.54l8.93-17.62c1.15-2.43 3.59-3.98 6.27-3.98h190.33c2.68 0 5.12 1.55 6.27 3.98z" fill="#bfbfbf"/><path d="m406.693 385.674h41.46v24.41h-41.46z" fill="#838383"/><path d="m276.613 385.674h41.46v24.41h-41.46z" fill="#838383"/><path d="m503.861 478.142h-493.361c-4.143 0-7.5-3.357-7.5-7.5s3.357-7.5 7.5-7.5h493.361c4.143 0 7.5 3.357 7.5 7.5s-3.357 7.5-7.5 7.5z" fill="#6bd9e7"/><path d="m449.344 48.968h9.962c4.143 0 7.5-3.357 7.5-7.5s-3.357-7.5-7.5-7.5h-9.962c-4.143 0-7.5 3.357-7.5 7.5s3.357 7.5 7.5 7.5z"/><path d="m504.828 463.211c4.572-6.146 7.282-13.756 7.282-21.988 0-20.357-16.562-36.919-36.919-36.919-2.708 0-5.382.294-7.994.872-2.375-1.646-5.231-2.59-8.215-2.59h-3.33v-9.416h13.38c9.644 0 17.488-7.845 17.488-17.488v-14.239c0-.528-.056-1.042-.159-1.539l-8.246-39.362c-.002-.009-.004-.017-.005-.025l-6.458-30.824c-.85-4.054-4.824-6.647-8.879-5.803-4.054.85-6.652 4.824-5.803 8.879l4.565 21.79c-5.407.086-10.554 1.256-15.233 3.307l-11.656-54.202c-1.249-5.809-6.469-10.024-12.41-10.024h-27.908l-4.229-13.865h55.768l4.948 23.618c.851 4.054 4.829 6.65 8.879 5.803 4.054-.85 6.652-4.824 5.803-8.879l-4.917-23.471c6.654-3.82 11.149-10.993 11.149-19.201 0-12.185-9.9-22.101-22.079-22.129l-16.013-62.838c-1.051-4.06-4.082-7.189-7.896-8.471l-20.147-75.237h13.749c4.143 0 7.5-3.357 7.5-7.5s-3.357-7.5-7.5-7.5h-23.521-98.128-14.043c-4.143 0-7.5 3.357-7.5 7.5s3.357 7.5 7.5 7.5h8.558l23.99 75.441c-2.135.832-4.031 2.25-5.413 4.14-2.279 3.118-2.941 7.178-1.788 10.8l18.218 58.907c-6.833 3.771-11.472 11.047-11.472 19.387 0 9.834 6.45 18.187 15.341 21.06l14.672 53.043c.455 1.646-.222 2.87-.665 3.453-.444.583-1.443 1.562-3.15 1.562h-60.4c-21.646 0-39.258 17.611-39.258 39.258v39.663c0 9.644 7.845 17.488 17.488 17.488h9.341v9.416h-.457c-3.215 0-6.281 1.094-8.758 2.984-3.114-.841-6.325-1.266-9.601-1.266-20.357 0-36.919 16.562-36.919 36.919 0 8.201 2.691 15.784 7.233 21.919h-38.772c4.541-6.135 7.233-13.718 7.233-21.919 0-.197-.017-.394-.021-.59 3.837-.33 6.85-3.544 6.85-7.467 0-4.143-3.357-7.5-7.5-7.5h-7.756c-.016 0-.032 0-.048 0h-85.183c-3.635 0-7.146 1.521-9.634 4.172l-3.646 3.886h-34.685l8.18-16.137h7.605 41.463 91.518c4.143 0 7.5-3.357 7.5-7.5 0-2.408-1.139-4.545-2.902-5.917v-11.002h17.164c4.143 0 7.5-3.357 7.5-7.5s-3.357-7.5-7.5-7.5h-113.28-41.463-16.84c-1.372 0-2.488-1.116-2.488-2.487v-6.74h172.877c4.143 0 7.5-3.357 7.5-7.5s-3.357-7.5-7.5-7.5h-113.617v-10.136h63.712c1.136 0 2.257-.258 3.277-.754l19.453-9.452c3.726-1.811 5.278-6.298 3.469-10.023-1.812-3.727-6.301-5.28-10.023-3.469l-17.901 8.698h-61.986v-1.722c0-5.588-1.526-10.824-4.173-15.324h29.57 40.459 25.097c4.143 0 7.5-3.357 7.5-7.5s-3.357-7.5-7.5-7.5h-4.257c1.437-4.265 1.528-8.896.166-13.366l-4.5-14.757h21.471l8.813 40.982c.756 3.519 3.866 5.926 7.324 5.926.522 0 1.054-.056 1.584-.17 4.05-.87 6.627-4.859 5.756-8.908l-9.204-42.806c-1.249-5.809-6.468-10.024-12.409-10.024h-27.908l-4.228-13.865h55.768l8.807 42.038c.85 4.054 4.828 6.652 8.879 5.803 4.054-.85 6.652-4.824 5.803-8.879l-8.776-41.891c6.654-3.821 11.149-10.994 11.149-19.201 0-12.185-9.9-22.101-22.079-22.129l-16.013-62.838c-1.051-4.06-4.082-7.189-7.896-8.471l-20.147-75.236h42.344c4.143 0 7.5-3.357 7.5-7.5s-3.357-7.5-7.5-7.5h-52.117-98.133-14.043c-4.143 0-7.5 3.357-7.5 7.5s3.357 7.5 7.5 7.5h8.558l23.99 75.44c-2.135.832-4.031 2.25-5.413 4.14-2.279 3.118-2.941 7.178-1.788 10.8l18.218 58.907c-6.833 3.771-11.472 11.047-11.472 19.387 0 9.834 6.45 18.187 15.341 21.06l14.672 53.043c.455 1.646-.222 2.87-.665 3.453-.444.583-1.443 1.562-3.15 1.562h-60.4c-21.646 0-39.258 17.611-39.258 39.258v25.424 14.24c0 9.643 7.846 17.487 17.488 17.487h9.341v9.416h-.457c-3.216 0-6.282 1.094-8.758 2.984-3.114-.841-6.325-1.266-9.601-1.266-20.358 0-36.92 16.562-36.92 36.919 0 8.454 2.863 16.248 7.661 22.479-2.734 1.119-4.661 3.803-4.661 6.94 0 4.143 3.357 7.5 7.5 7.5h493.361c4.143 0 7.5-3.357 7.5-7.5 0-3.814-2.848-6.955-6.533-7.431zm-261.474-245.568c0 3.932-3.198 7.13-7.13 7.13h-69.552c-.024 0-.048 0-.072 0h-42.103c-3.932 0-7.13-3.198-7.13-7.13s3.198-7.13 7.13-7.13h111.728c3.93 0 7.129 3.198 7.129 7.13zm-124.759-54.775h93.881l2.401 9.423h-93.368zm87.689-24.298 2.369 9.298h-94.697l-2.875-9.298zm12.416 48.721 2.095 8.223h-92.104l-2.543-8.223zm-42.011-138.322 19.977 74.601h-78.371l-23.723-74.601zm-29.853 238.78-13.27-47.976h27.477l7.177 23.536c.011.035.021.071.032.106l7.427 24.355c.65 2.132.263 4.382-1.063 6.173s-3.365 2.818-5.594 2.818h-21.908c.627-2.932.553-6.008-.278-9.012zm-102.931 48.27c0-13.376 10.882-24.258 24.258-24.258h4.68c8.449 0 15.323 6.874 15.323 15.324v26.857h-44.261zm453.205 105.204c0 12.086-9.833 21.919-21.919 21.919-9.453 0-17.527-6.015-20.596-14.419h13.734c4.927 0 9.407-2.506 11.986-6.704 2.578-4.198 2.788-9.328.561-13.723l-4.543-8.962c11.558.596 20.777 10.186 20.777 21.889zm-228.104-23.637h7.605 41.463 88.615 41.463 10.479l8.18 16.137h-34.686l-3.646-3.885c-2.487-2.652-5.999-4.173-9.635-4.173h-24.824c-.016 0-.032 0-.048 0h-85.18c-3.636 0-7.147 1.521-9.634 4.172l-3.647 3.886h-34.685zm130.183-24.416v9.416h-73.615v-9.416zm-101.418 55.553c2.695 0 5.297-1.128 7.132-3.089l4.663-4.969h19.063c-.003.186-.02.372-.02.558 0 8.201 2.691 15.784 7.233 21.919h-55.86c3.119-4.213 5.365-9.108 6.465-14.419zm45.838-7.5c0-.186.015-.372.02-.558h43.799c.005.186.02.372.02.558 0 12.086-9.833 21.919-21.919 21.919s-21.92-9.833-21.92-21.919zm58.819-.557h15.642l4.662 4.969c1.842 1.963 4.441 3.089 7.133 3.089h9.175c1.1 5.311 3.347 10.206 6.465 14.419h-50.291c4.541-6.135 7.233-13.718 7.233-21.919 0-.187-.016-.372-.019-.558zm38.224-38.08h-26.463v-9.416h26.463zm29.134-48.643h-32.273c.143-13.479 11.147-24.401 24.659-24.401h2.502zm-49.411-85.305 12.628 58.724c-6.455 7.009-10.422 16.339-10.489 26.581h-105.971v-10.136h63.712c1.136 0 2.257-.258 3.277-.754l19.453-9.452c3.726-1.811 5.278-6.298 3.469-10.023-1.812-3.727-6.301-5.28-10.023-3.469l-17.901 8.698h-61.986v-1.722c0-5.588-1.526-10.824-4.173-15.324h29.571 40.459 25.096c4.143 0 7.5-3.357 7.5-7.5s-3.357-7.5-7.5-7.5h-4.256c1.437-4.265 1.528-8.896.166-13.366l-4.5-14.757zm36.355-50.995c0 3.932-3.198 7.13-7.13 7.13h-69.552c-.024 0-.048 0-.072 0h-42.103c-3.932 0-7.13-3.198-7.13-7.13s3.198-7.13 7.13-7.13h111.728c3.931 0 7.129 3.198 7.129 7.13zm-124.758-54.775h93.881l2.401 9.423h-93.368zm-4.639-15-2.875-9.298h95.203l2.369 9.298zm82.467-25.204h-78.417l-23.434-73.694h82.117zm22.277 64.627 2.095 8.223h-92.104l-2.543-8.223zm-71.864 100.458-13.27-47.976h27.476l7.181 23.546c.009.03.018.06.027.089l7.43 24.362c.65 2.132.263 4.382-1.063 6.173s-3.365 2.818-5.594 2.818h-21.908c.626-2.932.552-6.008-.279-9.012zm-78.673 24.012h4.68c8.449 0 15.323 6.874 15.323 15.324v26.857h-44.261v-17.924c0-13.375 10.882-24.257 24.258-24.257zm-24.258 63.921v-6.739h214.238v3.501 3.238c0 1.372-1.116 2.488-2.488 2.488h-20.88-41.463-88.615-41.463-16.841c-1.372 0-2.488-1.116-2.488-2.488zm26.829 17.488h26.463v9.416h-26.463zm-55.734 48.053c0-12.086 9.833-21.919 21.919-21.919.338 0 .674.011 1.01.026l-4.545 8.966c-2.228 4.395-2.018 9.524.561 13.723 2.579 4.198 7.06 6.704 11.986 6.704h11.585c-3.07 8.404-11.144 14.419-20.596 14.419-12.087 0-21.92-9.833-21.92-21.919zm-98.145 0c0-.186.015-.372.02-.558h43.799c.005.186.02.372.02.558 0 12.086-9.833 21.919-21.919 21.919s-21.92-9.833-21.92-21.919zm-45.837 7.5c2.691 0 5.291-1.126 7.134-3.089l4.661-4.969h19.063c-.003.186-.02.372-.02.558 0 8.201 2.691 15.784 7.233 21.919h-55.86c3.119-4.213 5.365-9.108 6.465-14.419zm101.418-46.137h-73.615v-9.416h73.615zm-115.079-9.416h26.463v9.416h-26.463zm-33.815 26.134c.338 0 .674.011 1.01.026l-4.545 8.966c-2.228 4.395-2.018 9.524.562 13.723 2.578 4.198 7.059 6.704 11.985 6.704h11.585c-3.07 8.404-11.144 14.419-20.596 14.419-12.086 0-21.919-9.833-21.919-21.919s9.832-21.919 21.918-21.919z"/></svg>