<svg id="Capa_1" enable-background="new 0 0 511.388 511.388" height="512" viewBox="0 0 511.388 511.388" width="512" xmlns="http://www.w3.org/2000/svg"><g fill="#fed2a4"><path d="m283.434 170.454h35.507v46.275h-35.507z"/><path d="m213.642 288.574v2 18.57c0 14.68-11.91 26.59-26.59 26.59h-9.51c-3.43 0-6.21-2.78-6.21-6.2v-40.96z"/><path d="m255.792 291.354-4.975-4.975h-37.174v5.195 2 15.57 28.04c0 3.43 2.77 6.2 6.2 6.2h9.51c14.69 0 26.59-11.9 26.59-26.59l.1-23.22c-.021-.75-.111-1.49-.251-2.22z"/></g><path d="m189.153 329.534v-40.96h-17.821v40.96c0 3.42 2.78 6.2 6.21 6.2h9.51c1.938 0 3.826-.213 5.646-.607-2.095-.997-3.545-3.125-3.545-5.593z" fill="#ffbd86"/><path d="m231.463 337.184v-28.04-15.57-2-5.195h-17.821v5.195 2 15.57 28.04c0 3.43 2.77 6.2 6.2 6.2h9.51c1.938 0 3.826-.213 5.646-.606-2.09-.995-3.535-3.12-3.535-5.594z" fill="#ffbd86"/><path d="m81.962 7.504v265.11c0 10.47 8.49 18.96 18.97 18.96h70.4 42.31 39.93 51.38v-41.67-33.21-46.24-162.95z" fill="#fe646f"/><path d="m283.952 199.396-39.804-39.593c-9.306-9.266-21.664-14.367-34.797-14.367-13.283 0-25.739 5.201-35.07 14.642-9.195 9.297-14.259 21.619-14.259 34.697 0 12.313 4.563 24.103 12.831 33.175l17.667 19.436c3.474 3.821.762 9.95-4.402 9.95-36.125 0-65.418-29.27-65.446-65.395l-.145-184.437h-38.565v265.11c0 10.47 8.49 18.96 18.97 18.96h70.4 42.31 17.044 22.886 51.38v-34.239-7.431-29.106z" fill="#fd4755"/><path d="m427.142 273.934-29.18-58.54c-8.32-16.69-22.81-29.49-40.4-35.68l-24.862-8.757c-.945-.333-1.94-.503-2.942-.503h-24.806v46.24h12.45c13.189 0 23.88 10.691 23.88 23.88v20.44c0 9.27-11.19 13.92-17.75 7.38l-18.58-18.49-75.62-75.22c-11.11-11.06-29.1-10.99-40.12.16-5.45 5.51-8.19 12.71-8.19 19.93 0 6.81 2.44 13.64 7.37 19.05l63.62 69.99c1.96 2.13 3.26 4.75 3.78 7.54.14.73.23 1.47.25 2.22.02.21.02.42.02.63v81.1c0 20.3 12.37 37.7 29.98 45.09v78.964c0 2.5 2.026 4.526 4.526 4.526h116.798c2.5 0 4.526-2.026 4.526-4.526v-77.008c10.251-3.95 17.53-13.892 17.53-25.536v-12.47-100.72c0-3.36-.78-6.68-2.28-9.69z" fill="#fed2a4"/><path d="m426.549 407.693v1.33c.27-.54.515-1.092.75-1.651-.251.105-.495.223-.75.321z" fill="#ffbd86"/><path d="m300.699 408.807c0-1.833-1.055-3.49-2.699-4.301-16.162-7.974-27.281-24.613-27.281-43.859v-81.1c0-.21 0-.42-.02-.63-.02-.75-.11-1.49-.25-2.22-.52-2.79-1.82-5.41-3.78-7.54l-63.62-69.99c-4.93-5.41-7.37-12.24-7.37-19.05 0-3.867.794-7.726 2.361-11.325-3.211 1.397-6.217 3.41-8.829 6.052-5.45 5.51-8.19 12.71-8.19 19.93 0 6.81 2.44 13.64 7.37 19.05l63.62 69.99c1.96 2.13 3.26 4.75 3.78 7.54.14.73.23 1.47.25 2.22.02.21.02.42.02.63v81.1c0 20.3 12.37 37.7 29.98 45.09v78.964c0 2.5 2.026 4.526 4.526 4.526h116.798c2.5 0 4.526-2.026 4.526-4.526v-10.131h-30.773c-44.414 0-80.419-36.005-80.419-80.42z" fill="#ffbd86"/><path d="m341.282 240.584v15.302c6.473 2.941 14.657-1.601 14.657-9.529v-20.43c0-13.194-10.696-23.89-23.89-23.89-6.87 0-12.44-5.57-12.44-12.44v-19.143h-14.657v46.24h12.44c13.194 0 23.89 10.696 23.89 23.89z" fill="#ffbd86"/><path d="m100.929 299.077h62.907v30.452c0 7.556 6.147 13.702 13.702 13.702h9.509c7.073 0 13.649-2.166 19.101-5.868.097 7.473 6.198 13.524 13.693 13.524h9.509c7.121 0 13.737-2.198 19.211-5.947v30.364c0 21.555 12.162 40.314 29.98 49.8v78.784c0 4.143 3.358 7.5 7.5 7.5s7.5-3.357 7.5-7.5v-73.36c3.685.76 7.499 1.161 11.405 1.161 4.142 0 7.5-3.357 7.5-7.5s-3.358-7.5-7.5-7.5c-22.82 0-41.385-18.565-41.385-41.385v-81.095c0-5.741-2.138-11.232-5.998-15.438l-29.007-31.907c-2.785-3.063-7.529-3.29-10.594-.505-3.065 2.786-3.291 7.53-.504 10.595l24.657 27.123h-141.186c-6.323 0-11.468-5.145-11.468-11.468v-184.994c0-4.143-3.358-7.5-7.5-7.5s-7.5 3.357-7.5 7.5v184.994c0 14.595 11.874 26.468 26.468 26.468zm120.21 10.063v-10.063h27.304v17.717c0 10.527-8.565 19.093-19.092 19.093h-8.211v-26.747zm-42.303-10.063h27.303v10.063c0 10.527-8.565 19.092-19.092 19.092h-8.211z"/><path d="m81.961 65.115c4.142 0 7.5-3.357 7.5-7.5v-50.115c0-4.143-3.358-7.5-7.5-7.5s-7.5 3.357-7.5 7.5v50.115c0 4.143 3.358 7.5 7.5 7.5z"/><path d="m197.258 234.732c2.786 3.065 7.53 3.292 10.594.505 3.065-2.787 3.291-7.53.504-10.595l-14.42-15.861c-7.451-8.196-7.186-20.786.604-28.662 3.921-3.965 9.151-6.161 14.727-6.184 5.58-.06 10.824 2.131 14.777 6.064l94.196 93.713c3.431 3.415 7.979 5.224 12.616 5.223 2.316 0 4.657-.451 6.89-1.38 6.705-2.786 11.037-9.277 11.037-16.538v-20.437c0-17.306-14.08-31.386-31.386-31.386h-4.951v-31.247l17.511-.009 25.115 8.846c15.839 5.578 28.688 16.928 36.179 31.956l29.182 58.543c.977 1.959 1.493 4.151 1.493 6.34v113.189c0 10.959-8.916 19.875-19.875 19.875-4.142 0-7.5 3.357-7.5 7.5s3.358 7.5 7.5 7.5c.787 0 1.565-.036 2.338-.087v72.286c0 4.143 3.358 7.5 7.5 7.5s7.5-3.357 7.5-7.5v-76.834c10.468-6.025 17.537-17.319 17.537-30.24v-113.188c0-4.498-1.061-9.004-3.068-13.031l-29.182-58.543c-9.239-18.536-25.086-32.533-44.621-39.413l-25.12-8.848c-1.583-.556-3.234-.838-4.908-.838h-17.58v-155.451c0-4.143-3.358-7.5-7.5-7.5s-7.5 3.357-7.5 7.5v224.366l-62.823-62.5c-6.764-6.73-15.732-10.431-25.268-10.431-.05 0-.1 0-.15 0-9.591.039-18.587 3.816-25.332 10.637-13.397 13.547-13.853 35.201-1.037 49.299zm115.189-10.537h4.951c9.035 0 16.386 7.351 16.386 16.386v20.437c0 1.689-1.124 2.409-1.793 2.688s-1.972.566-3.169-.626l-16.374-16.29v-22.595z"/></svg>