<svg id="Capa_1" enable-background="new 0 0 510.871 510.871" height="512" viewBox="0 0 510.871 510.871" width="512" xmlns="http://www.w3.org/2000/svg"><path d="m13.647 437.905 33.508 17.824c14.656 7.796 32.467 6.6 45.949-3.085l9.036-6.491c13.985-10.046 32.571-10.929 47.445-2.252l14.739 8.599c12.99 7.578 28.968 7.933 42.282.938l21.871-11.491c14.4-7.566 31.813-6.493 45.175 2.782l21.541 14.952v-47.544l-21.541-14.952c-13.363-9.275-30.776-10.348-45.175-2.782l-21.871 11.491c-13.314 6.995-29.291 6.64-42.282-.938l-14.739-8.599c-14.874-8.677-33.459-7.795-47.445 2.252l-9.036 6.491c-13.483 9.685-31.293 10.881-45.949 3.085l-39.653-21.093v40.584c0 4.283 2.363 8.218 6.145 10.229z" fill="#d4f2f6"/><path d="m7.502 388.326 39.653 21.093c14.656 7.796 32.467 6.6 45.949-3.085l9.036-6.491c13.985-10.046 32.571-10.929 47.445-2.252l14.739 8.599c12.99 7.578 28.968 7.933 42.282.938l21.871-11.491c14.4-7.566 31.813-6.493 45.175 2.782l21.541 14.952v-47.544l-21.541-14.952c-13.363-9.275-30.776-10.348-45.175-2.782l-21.871 11.491c-13.314 6.995-29.291 6.64-42.282-.938l-14.739-8.599c-14.874-8.677-33.459-7.795-47.445 2.252l-9.036 6.491c-13.483 9.685-31.293 10.881-45.949 3.085l-39.653-21.093z" fill="#a6e7f0"/><path d="m7.502 342.016 39.653 21.093c14.656 7.796 32.467 6.6 45.949-3.085l9.036-6.491c13.985-10.046 32.571-10.928 47.445-2.252l14.739 8.599c12.99 7.578 28.968 7.933 42.282.938l21.871-11.491c14.4-7.566 31.813-6.493 45.175 2.782l21.541 14.952v-47.544l-21.541-14.952c-13.363-9.275-30.776-10.348-45.175-2.782l-21.871 11.491c-13.314 6.995-29.291 6.64-42.282-.938l-14.739-8.599c-14.874-8.677-33.459-7.795-47.445 2.252l-9.036 6.491c-13.483 9.685-31.293 10.881-45.949 3.085l-39.653-21.093z" fill="#6bd9e7"/><path d="m7.502 295.706 39.653 21.093c14.656 7.796 32.467 6.6 45.949-3.085l9.036-6.491c13.985-10.046 32.571-10.929 47.445-2.252l14.739 8.599c12.99 7.578 28.968 7.933 42.282.938l21.871-11.491c14.4-7.566 31.813-6.493 45.175 2.782l21.541 14.952v-47.544l-21.541-14.952c-13.363-9.275-30.776-10.348-45.175-2.782l-21.871 11.491c-13.314 6.995-29.291 6.64-42.282-.938l-14.739-8.599c-14.874-8.677-33.459-7.795-47.445 2.252l-9.036 6.491c-13.483 9.685-31.293 10.881-45.949 3.085l-39.653-21.094z" fill="#2ed1e2"/><path d="m7.502 249.395 39.653 21.093c14.656 7.796 32.467 6.6 45.949-3.085l9.036-6.491c13.985-10.046 32.571-10.929 47.445-2.252l14.739 8.599c12.99 7.578 28.968 7.933 42.282.938l21.871-11.491c14.4-7.566 31.813-6.493 45.175 2.782l21.541 14.952v-47.544l-21.541-14.952c-13.363-9.275-30.776-10.348-45.175-2.782l-21.871 11.491c-13.314 6.995-29.291 6.64-42.282-.938l-14.739-8.599c-14.874-8.677-33.459-7.795-47.445 2.252l-9.036 6.491c-13.483 9.685-31.293 10.881-45.949 3.085l-32.565-17.322c-3.213-1.709-7.089.619-7.089 4.258v39.515z" fill="#02c7dd"/><path d="m417.792 415.555c-9.784-.561-19.68 2.147-27.963 8.097l-9.036 6.491c-13.483 9.686-31.293 10.881-45.949 3.085l-39.653-21.093v47.544l39.653 21.093c14.656 7.796 32.467 6.6 45.949-3.085l9.036-6.491c8.283-5.95 18.179-8.658 27.963-8.097z" fill="#d4f2f6"/><path d="m417.792 369.258c-9.783-.561-19.679 2.147-27.961 8.097l-9.036 6.491c-13.483 9.686-31.293 10.881-45.949 3.085l-39.653-21.093v47.544l39.653 21.093c14.656 7.796 32.467 6.601 45.949-3.085l9.036-6.491c8.283-5.95 18.178-8.658 27.961-8.097z" fill="#a6e7f0"/><path d="m417.792 322.948c-9.783-.561-19.679 2.147-27.961 8.097l-9.036 6.491c-13.483 9.685-31.293 10.881-45.949 3.085l-39.653-21.093v47.544l39.653 21.093c14.656 7.796 32.467 6.6 45.949-3.085l9.036-6.491c8.283-5.95 18.178-8.658 27.961-8.097z" fill="#6bd9e7"/><circle cx="284.928" cy="193.283" fill="#00f2a6" r="159.894"/><path d="m332.219 305.885c-88.307 0-159.894-71.587-159.894-159.894 0-32.054 9.439-61.9 25.679-86.924-43.916 28.5-72.97 77.962-72.97 134.215 0 88.307 71.587 159.894 159.894 159.894 56.253 0 105.715-29.054 134.215-72.97-25.024 16.24-54.87 25.679-86.924 25.679z" fill="#05e39c"/><path d="m284.928 33.389c-4.599 0-9.15.206-13.651.586-53.749 57.1-101.27 121.591-142.572 193.474 4.64 21.313 13.52 41.043 25.729 58.251 41.875-76.534 90.544-145.015 145.998-205.439l19.94-21.08c5.599-5.743 11.266-11.398 16.994-16.983-16.429-5.702-34.069-8.809-52.438-8.809z" fill="#fef056"/><path d="m191.771 222.47c-10.72-19.645-17.431-41.788-19.053-65.333-15.375 22.6-30.058 46.023-44.013 70.311 4.64 21.313 13.52 41.043 25.729 58.251 11.891-21.733 24.35-42.794 37.337-63.229z" fill="#fed402"/><path d="m412.494 120.242 10.335-7.915c-9.311-15.826-21.266-29.908-35.262-41.638-19.166 16.324-40.914 41.003-40.914 41.003-54.43 57.66-102.49 122.88-144.19 195.66l-10.235 16.224c14.051 10.015 29.795 17.804 46.714 22.877 39.558-69.321 84.865-131.826 135.941-187.481l19.94-21.08c5.821-5.969 11.711-11.85 17.671-17.65z" fill="#fef056"/><path d="m238.943 346.453c10.293-18.038 20.985-35.603 32.057-52.717-16.145-6.698-30.956-15.961-43.921-27.287-8.436 13.36-16.644 26.991-24.615 40.903l-10.235 16.224c14.052 10.015 29.795 17.805 46.714 22.877z" fill="#fed402"/><path d="m493.374 92.902c-7.904-2.768-16.521 1.796-19.162 9.743l-22.486 67.655c-.334 1.004-1.826.708-1.751-.347l6.312-89.338c.644-9.111-5.468-17.53-14.443-19.227-10.438-1.974-20.245 5.533-21.105 16.079l-7.419 91.017c-.075.921-1.421.929-1.507.009l-10.536-112.327c-.849-9.054-8.449-15.975-17.543-15.975h-.43c-9.886 0-17.925 7.774-18.252 17.573-1.017 30.445-3.076 92.024-3.874 115.886-.041 1.23-1.819 1.35-2.034.138l-17.335-97.617c-1.64-9.233-9.667-15.961-19.045-15.961-11.602 0-20.594 10.142-19.203 21.661l17.132 141.925-7.482 32.939c-.82 3.608-5.256 4.952-7.94 2.404l-33.195-31.514c-8.145-7.733-21.008-8.231-29.325-.684-8.813 7.998-9.352 21.54-1.395 30.206l51.511 56.098c9.898 10.779 22.712 18.214 36.695 21.569 2.372.569 4.062 2.66 4.062 5.099v119.336c0 1.773 1.437 3.21 3.21 3.21h104.526c1.773 0 3.21-1.437 3.21-3.21v-124.758c0-1.905 1.042-3.644 2.702-4.577 14.059-7.898 24.348-21.914 27.03-38.789l28.887-181.815c1.121-7.062-2.936-14-9.815-16.408z" fill="#fed2a4"/><g fill="#ffbd86"><path d="m454.333 176.226c5.179 1.671 10.736-1.145 12.452-6.309l21.642-65.116c1.518-4.566 5.012-8.005 9.206-9.588-1.924-1.493-4.242-2.572-6.918-2.976-7.251-1.096-14.173 3.495-16.486 10.454l-22.67 68.055c-.759 2.28.487 4.742 2.774 5.48z"/><path d="m430.503 453.246c-42.514 0-76.978-34.464-76.978-76.978v-45.568c0-2.44-1.69-4.53-4.062-5.099-13.982-3.354-26.797-10.789-36.695-21.569l-51.511-56.098c-6.762-7.364-7.365-18.238-1.993-26.25-5.838-.634-11.861 1.067-16.481 5.26-8.813 7.997-9.352 21.54-1.395 30.206l51.511 56.098c9.898 10.779 22.712 18.214 36.695 21.569 2.372.569 4.062 2.66 4.062 5.099v119.336c0 1.773 1.437 3.21 3.21 3.21h104.526c1.773 0 3.21-1.437 3.21-3.21v-6.006z"/><path d="m326.619 220.994c8.197-3.615 13.085-12.149 12.024-21.045l-15.18-127.291c-.534-4.425.469-8.645 2.559-12.167-1.052-.177-2.128-.278-3.225-.278-11.602 0-20.594 10.142-19.203 21.661l17.121 141.838c1.69-.827 3.719-1.755 5.904-2.718z"/><path d="m383.255 40.193c-9.803 0-17.84 7.773-18.168 17.571l-3.954 118.201c-.07 2.098 1.241 3.995 3.229 4.67 8.622 2.928 17.614-3.331 17.862-12.433l3.083-113.284c.171-5.112 2.453-9.659 5.977-12.852-2.43-1.197-5.156-1.873-8.029-1.873z"/><path d="m441.877 61.389c-10.438-1.974-20.245 5.533-21.105 16.079l-7.419 91.017-.001.006c-.161 1.805 1.362 3.309 3.165 3.126 5.532-.563 9.9-4.94 10.443-10.474 2.287-23.327 7.991-81.509 7.995-81.52.632-7.755 6.108-13.85 13.109-15.757-1.839-1.189-3.921-2.048-6.187-2.477z"/></g><path d="m113.481 57.584c4.119 7.112 3.201 26.371 2.275 37.317-.332 3.92-4.461 6.302-8.019 4.624-9.913-4.673-26.981-13.496-31.098-20.604-5.892-10.174-2.421-23.198 7.753-29.09s23.197-2.42 29.089 7.753z" fill="#01d0fb"/><path d="m61.627 119.426c8.187-.728 25.253 8.241 34.783 13.706 3.413 1.957 3.827 6.706.803 9.222-8.424 7.011-23.633 18.752-31.814 19.48-11.711 1.042-22.048-7.607-23.09-19.318s7.607-22.048 19.318-23.09z" fill="#01d0fb"/><path d="m497.818 87.615c-5.779-2.651-12.436-2.721-18.27-.187-5.831 2.533-10.325 7.446-12.33 13.479l-6.065 18.25 2.646-37.456c.92-13.022-8.086-24.524-20.949-26.754-7.003-1.214-14.23.585-19.844 4.932-5.614 4.348-9.166 10.899-9.743 17.978l-1.169 14.35-3.307-35.236c-1.245-13.271-12.236-23.279-25.566-23.279-8.471 0-15.954 4.039-20.626 10.332-23.889-12.466-50.653-19.036-77.785-19.036-92.758 0-168.223 75.465-168.223 168.223s75.464 168.222 168.223 168.222c14.005 0 27.867-1.734 41.313-5.129v107.156c0 4.143 3.357 7.5 7.5 7.5s7.5-3.357 7.5-7.5v-118.314c1.819.125 3.644.211 5.478.211h10.859c4.143 0 7.5-3.357 7.5-7.5s-3.357-7.5-7.5-7.5h-10.86c-18.277 0-35.849-7.721-48.21-21.185l-14.318-15.592c-2.803-3.051-7.547-3.252-10.598-.451-3.051 2.802-3.253 7.547-.451 10.598l14.318 15.591c9.671 10.533 21.941 18.191 35.374 22.378-12.328 3.136-25.048 4.735-37.905 4.735-12.584 0-24.815-1.536-36.525-4.411 5.275-9.155 10.668-18.246 16.121-27.114 2.17-3.528 1.068-8.147-2.46-10.317-3.527-2.169-8.147-1.069-10.317 2.46-6.135 9.977-12.202 20.23-18.105 30.543-11.443-4.077-22.263-9.476-32.275-16.016 8.204-14.811 16.745-29.453 25.44-43.608 2.168-3.529 1.064-8.148-2.465-10.316-3.53-2.168-8.149-1.064-10.316 2.465-8.498 13.833-16.847 28.126-24.887 42.586-9.756-7.836-18.535-16.839-26.125-26.797 38.817-70.361 84.023-134.59 134.545-191.144l6.112 50.628c-13.971 16.651-27.641 34.055-40.658 51.794-2.45 3.34-1.729 8.033 1.609 10.484 1.337.98 2.891 1.454 4.432 1.454 2.307 0 4.583-1.062 6.053-3.063 10.012-13.643 20.417-27.08 31.045-40.123l7.058 58.468-6.133 26.996-30.076-28.554c-11.414-10.834-29.073-10.608-40.202.522-10.946 10.945-11.318 28.451-.849 39.852l16.755 18.248c2.802 3.053 7.545 3.254 10.597.452s3.254-7.546.452-10.597l-16.755-18.249c-5.018-5.464-4.839-13.854.407-19.1 5.334-5.335 13.798-5.444 19.268-.25l33.553 31.854c3.193 3.029 7.794 4.125 12.006 2.845 4.214-1.275 7.437-4.734 8.411-9.027l7.482-32.938c.19-.839.235-1.705.133-2.56l-17.195-142.427c-.728-6.028 3.188-11.595 9.106-12.948 3.187-.729 6.443-.137 9.17 1.67 2.726 1.806 4.542 4.573 5.113 7.792l17.424 98.118c.767 4.309 4.621 7.319 9.002 7.01 4.365-.313 7.766-3.847 7.912-8.219l3.876-115.882c.193-5.788 4.881-10.321 10.672-10.321 5.543 0 10.114 4.162 10.633 9.681l10.49 111.818c.399 4.277 3.929 7.489 8.219 7.489h.05c4.313-.025 7.831-3.286 8.183-7.586l7.419-91.018c.238-2.931 1.65-5.536 3.976-7.336 2.325-1.801 5.2-2.513 8.099-2.013 5.249.91 8.924 5.604 8.548 10.918l-6.344 89.781c-.297 4.213 2.604 8.009 6.747 8.829 4.144.824 8.271-1.583 9.604-5.591l22.609-68.026c.672-2.022 2.118-3.604 4.073-4.452 1.954-.851 4.098-.827 6.034.062 3.004 1.379 4.739 4.621 4.221 7.886l-28.888 181.814c-2.432 15.307-11.964 27.792-24.945 34.366-.464.174-.906.391-1.322.648-6.051 2.827-12.798 4.395-19.897 4.395-4.143 0-7.5 3.357-7.5 7.5s3.357 7.5 7.5 7.5c5.648 0 11.127-.753 16.34-2.165v120.269c0 4.143 3.357 7.5 7.5 7.5s7.5-3.357 7.5-7.5v-126.558c15.448-9.055 26.636-24.704 29.639-43.601l28.888-181.814c1.569-9.881-3.685-19.697-12.779-23.872zm-245.449-44.16c-44.309 49.081-84.628 103.842-120.179 163.264-.391-4.453-.602-8.956-.602-13.509 0-73.359 51.824-134.831 120.781-149.755zm44.216 30.369c-.607.363-1.174.815-1.677 1.364-53.164 57.926-100.691 124.117-141.445 196.842-7.804-12.957-13.741-27.157-17.448-42.226 40.363-70.015 87.327-133.753 139.652-189.535 3.026-.179 6.073-.281 9.143-.281 13.216 0 26.334 1.71 39.006 5.035-2.956 2.954-5.901 5.935-8.814 8.922-.172.177-.322.367-.473.556-9.129 2.899-15.814 10.342-17.944 19.323zm59.159 38.924-6.639-37.386c-1.297-7.302-5.416-13.578-11.599-17.674-1.061-.703-2.159-1.318-3.284-1.858 1.885-1.885 3.774-3.754 5.663-5.612 6.055 2.327 11.962 5.04 17.681 8.131-.002.054-.007.107-.009.161z"/><path d="m299.469 453.52-21.541-14.952c-15.718-10.909-36.004-12.157-52.94-3.261l-21.87 11.491c-11.099 5.829-24.188 5.54-35.015-.777l-14.739-8.599c-17.407-10.154-39.232-9.12-55.6 2.64l-9.036 6.491c-11.246 8.079-25.827 9.058-38.051 2.555l-39.653-21.093c-3.655-1.947-8.199-.558-10.144 3.099s-.558 8.198 3.099 10.144l39.653 21.093c7.604 4.045 15.851 6.044 24.059 6.044 10.467 0 20.869-3.251 29.789-9.659l9.036-6.491c11.566-8.309 26.988-9.04 39.29-1.864l14.739 8.599c15.322 8.938 33.845 9.349 49.549 1.1l21.871-11.491c11.968-6.29 26.304-5.407 37.411 2.304l21.541 14.952c3.402 2.363 8.075 1.519 10.438-1.885 2.361-3.405 1.518-8.078-1.886-10.44z"/><path d="m205.292 414.724c1.779-.711 3.35-1.429 4.802-2.191l21.871-11.49c11.968-6.29 26.304-5.407 37.411 2.304l21.54 14.951c1.304.905 2.794 1.34 4.27 1.34 2.375 0 4.711-1.126 6.168-3.225 2.362-3.402 1.519-8.076-1.885-10.438l-21.54-14.951c-15.718-10.909-36.003-12.157-52.94-3.261l-21.872 11.491c-.99.521-2.1 1.025-3.393 1.542-3.846 1.538-5.717 5.902-4.179 9.748 1.536 3.846 5.899 5.718 9.747 4.18z"/><path d="m3.979 393.713 39.654 21.094c7.604 4.045 15.85 6.044 24.058 6.044 10.466 0 20.869-3.252 29.789-9.659l9.037-6.491c11.566-8.309 26.988-9.041 39.289-1.864l14.74 8.599c2.994 1.746 6.221 3.201 9.589 4.325 3.928 1.307 8.177-.813 9.487-4.743 1.311-3.929-.813-8.177-4.742-9.487-2.392-.797-4.673-1.824-6.777-3.052l-14.739-8.599c-17.409-10.155-39.232-9.119-55.599 2.639l-9.037 6.491c-11.245 8.078-25.825 9.058-38.051 2.556l-39.653-21.096c-3.657-1.947-8.198-.558-10.144 3.099-1.945 3.657-.558 8.198 3.099 10.144z"/><path d="m3.98 346.169 39.653 21.093c7.604 4.045 15.851 6.044 24.059 6.044 10.467 0 20.869-3.251 29.789-9.659l9.035-6.49c11.566-8.309 26.99-9.042 39.29-1.864l14.741 8.599c5.38 3.138 11.218 5.247 17.352 6.27 4.088.677 7.95-2.079 8.631-6.166.681-4.085-2.079-7.949-6.165-8.631-4.333-.722-8.458-2.212-12.26-4.43l-14.739-8.599c-17.407-10.153-39.23-9.12-55.6 2.639l-9.036 6.491c-11.246 8.078-25.827 9.057-38.051 2.555l-39.653-21.093c-3.655-1.946-8.199-.559-10.144 3.099-1.947 3.655-.559 8.196 3.098 10.142z"/><path d="m3.98 298.625 39.653 21.093c7.603 4.045 15.85 6.044 24.058 6.044 10.467 0 20.869-3.251 29.79-9.659l9.036-6.491c4.765-3.423 10.353-5.653 16.16-6.45 4.104-.563 6.974-4.347 6.41-8.451-.563-4.103-4.344-6.971-8.45-6.41-8.22 1.129-16.129 4.286-22.872 9.13l-9.035 6.49c-11.247 8.079-25.827 9.058-38.052 2.556l-39.653-21.093c-3.655-1.947-8.199-.558-10.144 3.099-1.946 3.655-.558 8.196 3.099 10.142z"/><path d="m3.98 251.081 39.652 21.092c7.604 4.046 15.85 6.045 24.059 6.045 10.466 0 20.87-3.252 29.789-9.659l9.036-6.49c3.364-2.417 4.132-7.104 1.716-10.467-2.417-3.364-7.103-4.133-10.467-1.717l-9.036 6.491c-11.246 8.08-25.825 9.057-38.051 2.555l-39.653-21.092c-3.655-1.947-8.199-.558-10.144 3.099-1.946 3.656-.558 8.198 3.099 10.143z"/><path d="m3.98 203.536 39.653 21.093c7.604 4.045 15.851 6.044 24.059 6.044 10.467 0 20.869-3.251 29.789-9.659 3.364-2.416 4.132-7.103 1.715-10.467-2.417-3.363-7.103-4.133-10.467-1.715-11.246 8.078-25.827 9.057-38.051 2.555l-39.653-21.093c-3.655-1.947-8.199-.558-10.144 3.099-1.946 3.656-.558 8.197 3.099 10.143z"/><path d="m104.539 106.31c1.778.838 3.692 1.254 5.603 1.254 2.271 0 4.537-.588 6.56-1.754 3.725-2.147 6.165-5.989 6.527-10.277 2.663-31.483-1.793-39.179-3.258-41.707-7.955-13.735-25.602-18.438-39.339-10.484-13.736 7.956-18.439 25.602-10.484 39.338 1.462 2.524 5.909 10.204 34.391 23.63zm-16.39-49.988c2.17-1.257 4.543-1.854 6.887-1.854 4.762 0 9.401 2.466 11.955 6.875 1.264 2.182 2.928 10.97 1.505 30.233-16.212-7.85-23.801-13.708-25.367-16.414-3.811-6.578-1.558-15.03 5.02-18.84z"/><path d="m45.041 162.71c5.228 4.373 11.688 6.711 18.422 6.71.863 0 1.731-.038 2.601-.115 2.906-.259 11.749-1.045 35.948-21.186 3.307-2.752 5.059-6.952 4.687-11.235s-2.823-8.118-6.557-10.259c-27.412-15.716-36.268-14.928-39.179-14.669-7.659.682-14.595 4.305-19.528 10.202-4.934 5.897-7.276 13.363-6.595 21.022.68 7.66 4.303 14.595 10.201 19.53zm7.897-30.927c2.363-2.825 5.685-4.56 9.353-4.886h.001c.111-.01.233-.016.368-.016 2.924 0 11.555 2.413 27.669 11.426-13.963 11.376-22.48 15.779-25.595 16.056-3.666.328-7.244-.794-10.069-3.158-2.824-2.363-4.56-5.685-4.886-9.353-.326-3.669.796-7.245 3.159-10.069z"/></svg>