<svg id="Capa_1" enable-background="new 0 0 511.332 511.332" height="512" viewBox="0 0 511.332 511.332" width="512" xmlns="http://www.w3.org/2000/svg"><path d="m21.545 266.331h21.384v-80.875h-21.384c-7.757 0-14.045 6.288-14.045 14.045v52.785c0 7.756 6.288 14.045 14.045 14.045z" fill="#acacac"/><path d="m54.825 334.186h18.589v-216.586h-18.589c-8.779 0-15.897 7.117-15.897 15.897v184.793c.001 8.779 7.118 15.896 15.897 15.896z" fill="#838383"/><path d="m138.588 249.169h362.638c1.437 0 2.602-1.165 2.602-2.602v-40.816c0-1.437-1.165-2.602-2.602-2.602h-362.638z" fill="#acacac"/><path d="m208.938 203.149h-70.351v46.02h362.638c1.437 0 2.602-1.165 2.602-2.602v-18.01h-269.481c-14.032 0-25.408-11.376-25.408-25.408z" fill="#9e9797"/><path d="m453.528 141.409c-4.28-4.28-10.18-6.92-16.71-6.92-13.06 0-23.64 10.58-23.64 23.63 0-6.53-2.65-12.43-6.92-16.71-4.28-4.28-10.19-6.92-16.71-6.92-13.05 0-23.63 10.58-23.63 23.63 0-6.53-2.65-12.43-6.92-16.71-4.28-4.28-10.19-6.92-16.72-6.92-13.05 0-23.63 10.58-23.63 23.63 0-6.53-2.64-12.43-6.92-16.71s-10.18-6.92-16.71-6.92c-13.06 0-23.64 10.58-23.64 23.63v44.77 35.98c0 5.54-4.491 10.03-10.03 10.03h-45.68v.27l19.99 50.86c3.99 10.16 12.96 17.53 23.7 19.48l31.371 5.692c2.483.451 4.289 2.613 4.289 5.137v86.191c-3.93 6.72-6.93 13.91-8.95 21.37-2.02 7.45-3.05 15.17-3.05 22.96v26.491c0 1.026.832 1.859 1.859 1.859h133.843c1.026 0 1.859-.832 1.859-1.859v-157.487c0-2.141 1.317-4.043 3.301-4.848 21.443-8.697 36.569-29.717 36.569-54.286v-21.56-35.02-11-45.03c-.001-6.53-2.641-12.43-6.921-16.71z" fill="#fed2a4"/><g fill="#ffbd86"><path d="m283.648 234.549c5.54 0 10.031-4.491 10.031-10.031v-35.98-44.77c0-3.289.674-6.42 1.888-9.266-.002-.004-.003-.004-.005-.008-13.309-.299-24.184 10.393-24.184 23.624v44.77 31.66h12.27z"/><path d="m340.949 224.19v-35.98-45.77c0-2.79.489-5.465 1.378-7.95-.016 0-.033-.001-.049-.001-13.044 0-23.619 10.57-23.63 23.611v44.46 31.66h12.27c5.54 0 10.031-4.49 10.031-10.03z"/><path d="m388.036 224.19v-35.98-45.77c0-2.79.489-5.463 1.377-7.948-12.988.073-23.496 10.622-23.496 23.626 0-.882-.182 44.441-.182 44.441v31.66h12.27c5.54.001 10.031-4.489 10.031-10.029z"/><path d="m435.426 224.19v-35.98-45.77c0-2.791.489-5.465 1.378-7.951-13.054.007-23.626 10.584-23.626 23.629 0-.49-.053 44.441-.053 44.441v31.66h12.27c5.54.001 10.031-4.489 10.031-10.029z"/><path d="m333.668 474.859c-15.657 0-28.35-12.693-28.35-28.35 0-7.79 1.03-15.51 3.05-22.96 2.02-7.46 5.02-14.65 8.95-21.37v-86.191c0-2.524-1.806-4.687-4.289-5.137l-31.371-5.692c-10.74-1.95-19.71-9.32-23.7-19.48l-14.456-36.78h-27.835v.27l19.99 50.86c3.99 10.16 12.96 17.53 23.7 19.48l31.371 5.692c2.483.451 4.289 2.613 4.289 5.137v86.191c-3.93 6.72-6.93 13.91-8.95 21.37-2.02 7.45-3.05 15.17-3.05 22.96v26.492c0 1.026.832 1.858 1.858 1.858h133.843c1.026 0 1.859-.832 1.859-1.859v-12.491z"/></g><path d="m162.308 274.406h17.958c7.923 0 14.345-6.423 14.345-14.345v-68.334c0-7.923-6.423-14.345-14.345-14.345h-17.958z" fill="#838383"/><path d="m86.772 356.708h60.179c10.138 0 18.357-8.219 18.357-18.357v-224.916c0-10.138-8.219-18.357-18.357-18.357h-60.179c-10.138 0-18.357 8.219-18.357 18.357v224.915c0 10.139 8.218 18.358 18.357 18.358z" fill="#acacac"/><path d="m165.308 331.896c-28.413 0-51.446-23.033-51.446-51.446v-185.372h-27.09c-10.138 0-18.357 8.219-18.357 18.357v224.916c0 10.138 8.219 18.357 18.357 18.357h60.18c10.138 0 18.356-8.219 18.356-18.357z" fill="#9e9797"/><path d="m313.949 59.519-29.21-36.568c-.884-1.106-2.565-1.106-3.449 0l-29.21 36.568c-1.155 1.445-.125 3.585 1.724 3.585h10.49c1.219 0 2.207.988 2.207 2.207v35.251c0 1.219.988 2.207 2.207 2.207h28.613c1.219 0 2.207-.988 2.207-2.207v-35.252c0-1.219.988-2.207 2.207-2.207h10.49c1.849 0 2.878-2.139 1.724-3.584z" fill="#00f2a6"/><path d="m99.35 423.133-29.21-36.569c-.884-1.106-2.565-1.106-3.449 0l-29.21 36.569c-1.155 1.445-.125 3.585 1.724 3.585h10.49c1.219 0 2.207.988 2.207 2.207v35.251c0 1.219.988 2.207 2.207 2.207h28.613c1.219 0 2.207-.988 2.207-2.207v-35.251c0-1.219.988-2.207 2.207-2.207h10.49c1.849 0 2.878-2.139 1.724-3.585z" fill="#00f2a6"/><path d="m247.78 383.124-26.07-32.637c-.789-.987-2.29-.987-3.078 0l-26.07 32.637c-1.03 1.29-.112 3.199 1.539 3.199h9.362c1.088 0 1.97.882 1.97 1.97v31.461c0 1.088.882 1.97 1.97 1.97h25.537c1.088 0 1.97-.882 1.97-1.97v-31.461c0-1.088.882-1.97 1.97-1.97h9.362c1.65 0 2.568-1.909 1.538-3.199z" fill="#00f2a6"/><path d="m503.832 241.665h-35.885v-31.015h35.885c4.142 0 7.5-3.357 7.5-7.5s-3.358-7.5-7.5-7.5h-35.885v-37.528c0-17.167-13.966-31.133-31.133-31.133-9.447 0-17.919 4.235-23.633 10.9-5.714-6.665-14.186-10.9-23.633-10.9s-17.918 4.235-23.633 10.9c-5.714-6.665-14.186-10.9-23.633-10.9s-17.919 4.235-23.633 10.9c-5.714-6.665-14.186-10.9-23.633-10.9-17.167 0-31.133 13.966-31.133 31.133v37.264h-61.77v-3.66c0-12.045-9.8-21.845-21.846-21.845h-7.458v-56.446c0-14.257-11.599-25.856-25.856-25.856h-60.18c-13.127 0-23.992 9.835-25.634 22.521h-6.312c-12.901 0-23.397 10.495-23.397 23.396v44.459h-9.884c-11.881 0-21.546 9.665-21.546 21.545v52.785c0 11.88 9.665 21.545 21.545 21.545h9.884v44.459c0 12.901 10.496 23.396 23.397 23.396h6.312c1.642 12.687 12.507 22.521 25.634 22.521h60.18c14.257 0 25.856-11.6 25.856-25.856v-56.445h7.458c12.046 0 21.846-9.8 21.846-21.846v-3.659h8.344l18.22 46.372c4.979 12.673 15.949 21.688 29.346 24.116l29.493 5.346v82.304c-7.857 14.148-12 30.116-12 46.317v28.354c0 4.143 3.358 7.5 7.5 7.5s7.5-3.357 7.5-7.5v-28.354c0-14.235 3.795-28.257 10.977-40.549.67-1.148 1.024-2.454 1.024-3.783v-81.57l9.503 1.723c.453.082.902.121 1.347.121 3.556 0 6.714-2.54 7.371-6.163.739-4.076-1.966-7.979-6.042-8.718l-53.996-9.788c-8.245-1.494-14.997-7.043-18.061-14.842l-16.065-40.887h37.309v9.303c0 4.143 3.358 7.5 7.5 7.5s7.5-3.357 7.5-7.5v-107.58c0-8.896 7.237-16.133 16.133-16.133s16.133 7.237 16.133 16.133v13.317 16.713c0 4.143 3.358 7.5 7.5 7.5s7.5-3.357 7.5-7.5v-16.712-13.317c0-8.896 7.237-16.133 16.133-16.133s16.133 7.237 16.133 16.133v6.271 23.76c0 4.143 3.358 7.5 7.5 7.5s7.5-3.357 7.5-7.5v-23.76-6.271c0-8.896 7.237-16.133 16.133-16.133s16.133 7.237 16.133 16.133v6.271 23.76c0 4.143 3.358 7.5 7.5 7.5s7.5-3.357 7.5-7.5v-23.76-6.271c0-8.896 7.237-16.133 16.133-16.133s16.133 7.237 16.133 16.133v112.609c0 28.157-22.908 51.065-51.065 51.065-4.142 0-7.5 3.357-7.5 7.5s3.358 7.5 7.5 7.5c3.816 0 7.552-.343 11.192-.968v153.382c0 4.143 3.358 7.5 7.5 7.5s7.5-3.357 7.5-7.5v-157.841c23.434-10.162 39.873-33.512 39.873-60.639v-14.066h35.885c4.142 0 7.5-3.357 7.5-7.5s-3.357-7.5-7.499-7.5zm-482.287 17.165c-3.609 0-6.545-2.936-6.545-6.545v-52.785c0-3.609 2.936-6.545 6.545-6.545h9.884v65.875zm136.263 79.521c0 5.986-4.87 10.856-10.856 10.856h-60.18c-5.986 0-10.856-4.87-10.856-10.856v-155.387c0-4.143-3.358-7.5-7.5-7.5s-7.5 3.357-7.5 7.5v143.722h-6.089c-4.63 0-8.397-3.767-8.397-8.396v-51.96-80.875-51.959c0-4.63 3.767-8.396 8.397-8.396h6.089v27.864c0 4.143 3.358 7.5 7.5 7.5s7.5-3.357 7.5-7.5v-39.529c0-5.986 4.87-10.856 10.856-10.856h56.281 3.899c5.986 0 10.856 4.87 10.856 10.856v63.946 97.024zm29.303-78.291c0 3.774-3.071 6.846-6.846 6.846h-7.458v-82.024h7.458c3.775 0 6.846 3.07 6.846 6.845zm15-18.659v-31.015h61.77v31.015z"/><path d="m253.803 70.604h5.197v29.957c0 5.353 4.355 9.707 9.708 9.707h28.613c5.353 0 9.707-4.354 9.707-9.707v-29.957h5.197c3.764 0 7.116-2.107 8.748-5.5 1.631-3.392 1.186-7.326-1.164-10.267v.001l-29.209-36.567c-1.852-2.319-4.617-3.65-7.585-3.65-2.969 0-5.734 1.331-7.584 3.649l-29.21 36.567c-2.35 2.94-2.796 6.875-1.164 10.268 1.631 3.391 4.982 5.499 8.746 5.499zm29.211-37.795 18.218 22.808c-5.12.263-9.205 4.511-9.205 9.694v29.957h-18.027v-29.957c0-5.184-4.085-9.432-9.205-9.694z"/><path d="m105.209 418.452-29.209-36.567c-1.852-2.319-4.616-3.649-7.584-3.65-.001 0-.001 0-.001 0-2.968 0-5.732 1.33-7.584 3.649l-29.211 36.568c-2.349 2.941-2.794 6.875-1.162 10.268 1.632 3.392 4.983 5.498 8.747 5.498h5.197v29.957c0 5.353 4.354 9.707 9.707 9.707h28.613c5.353 0 9.707-4.354 9.707-9.707v-29.957h5.197c3.764 0 7.116-2.107 8.748-5.499 1.63-3.393 1.185-7.327-1.165-10.267zm-27.78 10.473v29.957h-18.028v-29.957c0-5.185-4.085-9.433-9.205-9.694l18.219-22.808 18.218 22.808c-5.119.262-9.204 4.51-9.204 9.694z"/><path d="m253.64 378.444-26.07-32.637c-1.807-2.263-4.504-3.56-7.399-3.56s-5.592 1.297-7.399 3.56l-26.07 32.637c-2.292 2.869-2.726 6.707-1.134 10.016s4.861 5.364 8.533 5.364h3.832v25.931c0 5.222 4.249 9.47 9.47 9.47h25.537c5.222 0 9.47-4.248 9.47-9.47v-25.931h3.832c3.672 0 6.941-2.056 8.533-5.364 1.591-3.309 1.157-7.147-1.135-10.016zm-26.231 9.849v25.931h-14.477v-25.931c0-4.547-3.221-8.355-7.5-9.264l14.739-18.452 14.739 18.452c-4.28.909-7.501 4.717-7.501 9.264z"/></svg>