<svg id="Capa_1" enable-background="new 0 0 511.798 511.798" height="512" viewBox="0 0 511.798 511.798" width="512" xmlns="http://www.w3.org/2000/svg"><path d="m215.638 75.591c0-26.894-21.801-48.695-48.695-48.695s-48.695 21.801-48.695 48.695c0 11.783 4.186 22.588 11.151 31.01v24.04h75.26l-.172-24.04c6.965-8.423 11.151-19.228 11.151-31.01zm-48.695 20.562c-11.356 0-20.562-9.206-20.562-20.562s9.206-20.562 20.562-20.562 20.562 9.206 20.562 20.562-9.205 20.562-20.562 20.562z" fill="#9c9c9c"/><path d="m311.034 361.107h189.065c2.319 0 4.199-1.88 4.199-4.199v-100.474c0-2.319-1.88-4.2-4.199-4.2h-189.065z" fill="#fed2a4"/><path d="m439.94 268.56v-16.325h-128.906v108.872h189.065c2.319 0 4.199-1.88 4.199-4.199v-36.486h-12.498c-28.641-.001-51.86-23.22-51.86-51.862z" fill="#ffbd86"/><path d="m289.87 423.885c-29.242 37.269-73.451 61.017-122.926 61.017-88.059 0-159.444-75.226-159.444-168.021 0-50.008 20.734-94.912 53.635-125.69 14.255-13.336 25.724-29.365 33.683-47.189l12.1-27.099c2.798-6.266 9.019-10.301 15.882-10.301h88.287c6.863 0 13.083 4.035 15.882 10.301l12.1 27.099c7.959 17.824 19.428 33.854 33.683 47.189 3.06 2.863 6.014 5.849 8.857 8.948l17.892 127.402z" fill="#00f2a6"/><path d="m80.565 316.881c0-50.008 20.734-94.912 53.635-125.69 14.255-13.336 25.724-29.365 33.683-47.189l12.1-27.099c2.798-6.266 9.019-10.301 15.882-10.301h-73.065c-6.863 0-13.083 4.035-15.882 10.301l-12.1 27.099c-7.959 17.824-19.428 33.854-33.683 47.189-32.902 30.778-53.635 75.681-53.635 125.69 0 92.795 71.385 168.021 159.444 168.021 12.57 0 24.798-1.54 36.529-4.438-70.45-17.407-122.908-84.037-122.908-163.583z" fill="#05e39c"/><path d="m142.82 106.601-7.64 37.4c-3.505 17.824-8.556 33.854-14.833 47.189-14.489 30.779-23.62 75.683-23.62 125.691 0 92.795 31.437 167.021 70.216 167.021 25.159 0 47.224-30.671 59.622-78.253l-9.126-205.51c-1.252-3.1-2.553-6.085-3.9-8.948-6.278-13.335-11.328-29.365-14.833-47.189l-7.45-37.4h-48.436z" fill="#fef056"/><path d="m120.347 191.19c-4.089 8.686-7.75 18.497-10.901 29.229 7.154-10.732 15.468-20.543 24.753-29.229 14.255-13.336 25.724-29.365 33.683-47.189l12.1-27.099c2.17-4.859 6.402-8.367 11.392-9.701l-.119-.6h-48.435l-7.64 37.4c-3.504 17.824-8.555 33.853-14.833 47.189z" fill="#fed402"/><path d="m188.591 475.958c-32.182-11.548-59.741-33.626-78.966-62.348 12.72 42.643 33.652 70.292 57.319 70.292 7.555 0 14.828-2.785 21.647-7.944z" fill="#fed402"/><path d="m203.659 200.212c-32.1 1.46-57.66 27.94-57.66 60.4v84.57c0 33.39 27.07 60.47 60.47 60.47h42.78 53.821v-205.44z" fill="#fd4755"/><path d="m277.492 377.958h-70.971c-17.827 0-32.279-14.452-32.279-32.279v-112.761c0-9.691 2.293-18.842 6.344-26.961-20.447 9.695-34.586 30.517-34.586 54.655v84.57c0 33.39 27.07 60.47 60.47 60.47h42.78 53.821v-27.694z" fill="#fb2b3a"/><path d="m399.899 289.112h13.65c2.68 0 4.86-2.17 4.86-4.85v-29.75c0-5.59-4.53-10.11-10.11-10.11h-50.48-.03c-.87-24.59-21.08-44.26-45.89-44.26h-105.43c-.94 0-1.88.021-2.81.07.01 15.63 12.67 28.3 28.3 28.3h1.95 22.7c21.25 0 38.48 17.22 38.48 38.47v34.52l-2.13 77.49.24 44.89h20.95c24.12 0 43.67-19.55 43.67-43.66v-12.95h1.46 49.02c5.58 0 10.11-4.53 10.11-10.12v-29.74c0-2.69-2.18-4.86-4.86-4.86h-13.65c-9.24 0-16.72-7.49-16.72-16.72 0-4.61 1.87-8.79 4.9-11.82 3.02-3.03 7.201-4.9 11.82-4.9z" fill="#fd8087"/><path d="m314.959 332.612v15.25c0 11.84-6.48 22.72-16.88 28.36l-5.12 2.77.24 44.89h-11.21c-13.83 0-25.95-7.29-32.74-18.23-3.65-5.89-5.76-12.83-5.76-20.27v-49.85c0-20.55 16.65-37.2 37.19-37.2 5.15 0 10.03 1.14 14.41 3.17 3.68 1.7 7 4.04 9.83 6.87 6.2 6.21 10.04 14.77 10.04 24.24z" fill="#fe646f"/><path d="m343.433 161.1-31.825-2.012c-2.735-.173-4.098-3.394-2.319-5.478l20.851-24.417c1.313-1.537 3.671-1.546 5.024-.044 7.598 8.436 11.823 17.88 11.809 28.589-.003 1.936-1.609 3.484-3.54 3.362z" fill="#fef056"/><path d="m302.521 110.018-17.592 26.598c-1.512 2.286-4.984 1.864-5.905-.717l-10.792-30.24c-.679-1.904.488-3.953 2.464-4.379 11.099-2.389 21.393-1.351 30.673 3.995 1.676.967 2.219 3.129 1.152 4.743z" fill="#fef056"/><path d="m150.316 203.722c1.75 0 3.508-.609 4.93-1.851 2.704-2.361 5.596-4.556 8.596-6.523 3.464-2.271 4.43-6.92 2.159-10.384s-6.921-4.432-10.385-2.159c-3.573 2.343-7.017 4.956-10.237 7.768-3.12 2.725-3.44 7.463-.716 10.583 1.483 1.698 3.563 2.566 5.653 2.566z"/><path d="m132.556 388.715c-3.369 2.41-4.145 7.096-1.734 10.464 2.953 4.125 6.27 8.041 9.861 11.641 1.465 1.468 3.387 2.202 5.309 2.202 1.917 0 3.833-.73 5.297-2.19 2.932-2.926 2.938-7.675.012-10.607-3.016-3.022-5.803-6.312-8.281-9.775-2.41-3.369-7.095-4.146-10.464-1.735z"/><path d="m504.298 351.931h-78.39v-24.523c0-6.813-5.544-12.356-12.357-12.356h-13.655c-5.083 0-9.218-4.136-9.218-9.219s4.135-9.218 9.218-9.218h13.655c6.813 0 12.357-5.544 12.357-12.357v-24.523h78.39c4.143 0 7.5-3.357 7.5-7.5s-3.357-7.5-7.5-7.5h-81.363c-3.163-4.721-8.543-7.836-14.639-7.836h-43.781c-4.357-25.104-26.285-44.26-52.615-44.26h-27.037c-2.27-2.382-4.611-4.703-6.988-6.927-13.637-12.756-24.389-27.818-31.958-44.769l-12.1-27.1c-3.095-6.93-9.142-11.948-16.262-13.87 3.637-7.56 5.583-15.899 5.583-24.383 0-30.985-25.209-56.194-56.195-56.194s-56.194 25.209-56.194 56.194c0 8.485 1.946 16.824 5.583 24.383-7.12 1.922-13.167 6.941-16.262 13.871l-12.1 27.099c-7.568 16.949-18.321 32.012-31.958 44.77-35.597 33.299-56.012 81.108-56.012 131.168 0 96.783 74.891 175.521 166.943 175.521 48.819 0 94.717-22.196 126.511-61.018h20.7c28.211 0 51.163-22.951 51.163-51.163v-5.454h42.979c6.097 0 11.477-3.115 14.639-7.836h81.363c4.143 0 7.5-3.357 7.5-7.5s-3.357-7.5-7.5-7.5zm-284.177-231.971 12.1 27.1c7.607 17.035 18.121 32.339 31.274 45.579h-41.069c-.69-1.585-1.392-3.137-2.101-4.644-6.067-12.889-10.865-28.177-14.268-45.479l-5.741-28.414h10.77c3.899-.001 7.445 2.299 9.035 5.858zm-13.656 293.188h10.19c-1.047 3.451-2.144 6.791-3.291 10h-6.899c-12.871 0-25.634-3.217-36.908-9.303-3.642-1.968-8.193-.608-10.162 3.037-1.968 3.645-.608 8.194 3.037 10.162 13.456 7.264 28.683 11.104 44.033 11.104h.771c-11.279 24.197-25.643 38.254-40.293 38.254-30.288 0-62.716-64.1-62.716-159.521 0-46.926 8.349-91.574 22.906-122.497 6.591-13.999 11.774-30.464 15.399-48.897l6.341-31.385h36.14l6.334 31.347c1.563 7.948 3.415 15.521 5.541 22.689-5.802.597-11.526 1.729-17.103 3.402-3.967 1.19-6.218 5.372-5.028 9.339.975 3.249 3.955 5.347 7.181 5.347.714 0 1.44-.103 2.159-.318 5.758-1.728 11.707-2.765 17.738-3.121 1.303 3.407 2.678 6.696 4.123 9.865-37.245.275-67.463 30.649-67.463 67.958v84.567c0 37.479 30.491 67.971 67.97 67.971zm-52.584-337.557c0-7.203 5.859-13.063 13.062-13.063s13.062 5.859 13.062 13.063-5.859 13.063-13.062 13.063-13.062-5.86-13.062-13.063zm13.062-41.195c22.715 0 41.195 18.479 41.195 41.194 0 8.417-2.599 16.644-7.37 23.511h-18.531c7.679-5.013 12.769-13.676 12.769-23.511 0-15.474-12.588-28.063-28.062-28.063s-28.062 12.589-28.062 28.063c0 9.835 5.089 18.498 12.769 23.511h-18.531c-4.771-6.866-7.37-15.092-7.37-23.511-.001-22.714 18.479-41.194 41.193-41.194zm-151.943 282.485c0-45.924 18.683-89.74 51.258-120.214 15.107-14.132 27.02-30.822 35.408-49.608l12.101-27.099c1.589-3.559 5.135-5.858 9.033-5.858h6.601.021 4.149l-5.749 28.452c-3.395 17.266-8.193 32.554-14.26 45.441-15.465 32.852-24.334 79.829-24.334 128.886 0 45.796 7.513 88.846 21.154 121.221 6.074 14.415 13.136 26.101 20.907 34.826-66.635-16.994-116.289-80.505-116.289-156.047zm187.837 155.991c1.6-1.794 3.17-3.71 4.703-5.754 6.686-8.916 12.718-20.225 17.865-33.388.127-.28.242-.566.333-.864 2.386-6.187 4.576-12.779 6.55-19.718h11.201c.584 0 1.151-.073 1.697-.2 6.89 9.177 17.131 15.691 28.886 17.74-19.797 20.824-44.416 35.321-71.235 42.184zm205.459-113.105h-42.979v-7.426c0-4.143-3.357-7.5-7.5-7.5s-7.5 3.357-7.5 7.5v27.88c0 19.94-16.223 36.163-36.163 36.163h-32.164c-17.094 0-31.001-13.907-31.001-31.001v-49.856c0-16.373 13.32-29.693 29.693-29.693 14.767 0 26.78 12.014 26.78 26.781v15.248c0 9.093-4.967 17.434-12.961 21.767l-5.114 2.771c-3.642 1.974-4.994 6.525-3.021 10.167 1.973 3.641 6.524 4.993 10.167 3.021l5.114-2.771c12.839-6.958 20.814-20.352 20.814-34.954v-15.248c0-15.011-7.96-28.193-19.878-35.561v-30.07c0-25.353-20.625-45.978-45.977-45.978h-10.241c-4.142 0-7.5 3.357-7.5 7.5s3.358 7.5 7.5 7.5h10.241c17.08 0 30.977 13.896 30.977 30.978v24.43c-2.247-.375-4.551-.581-6.902-.581-24.644 0-44.693 20.05-44.693 44.693v49.856c0 4.429.642 8.708 1.816 12.765h-31.339c-29.208 0-52.971-23.763-52.971-52.972v-84.567c0-29.208 23.763-52.971 52.971-52.971h10.951c.009 0 .018.002.026.002.014 0 .028-.002.041-.002h94.417c21.184 0 38.417 17.233 38.417 38.417v47.369c0 4.143 3.357 7.5 7.5 7.5s7.5-3.357 7.5-7.5v-41.526h42.979c1.44 0 2.612 1.172 2.612 2.612v27.104h-11.013c-13.354 0-24.218 10.864-24.218 24.218s10.864 24.219 24.218 24.219h11.013v27.104c.001 1.44-1.171 2.612-2.612 2.612z"/><path d="m375.283 195.837h85.015c4.143 0 7.5-3.357 7.5-7.5s-3.357-7.5-7.5-7.5h-85.015c-4.143 0-7.5 3.357-7.5 7.5s3.357 7.5 7.5 7.5z"/><path d="m436.854 219.802c0 4.143 3.357 7.5 7.5 7.5h32.051c4.143 0 7.5-3.357 7.5-7.5s-3.357-7.5-7.5-7.5h-32.051c-4.143 0-7.5 3.358-7.5 7.5z"/><path d="m502.804 425.829h-85.014c-4.143 0-7.5 3.357-7.5 7.5s3.357 7.5 7.5 7.5h85.014c4.143 0 7.5-3.357 7.5-7.5s-3.357-7.5-7.5-7.5z"/><path d="m421.872 401.863c0-4.143-3.357-7.5-7.5-7.5h-32.051c-4.143 0-7.5 3.357-7.5 7.5s3.357 7.5 7.5 7.5h32.051c4.142 0 7.5-3.357 7.5-7.5z"/><path d="m456.865 409.363c4.143 0 7.5-3.357 7.5-7.5s-3.357-7.5-7.5-7.5h-14.27c-4.143 0-7.5 3.357-7.5 7.5s3.357 7.5 7.5 7.5z"/><path d="m301.849 159.99c1.608 3.8 5.167 6.322 9.285 6.583l31.825 2.013h.001c.225.014.449.021.673.021 2.732 0 5.397-1.045 7.399-2.922 2.182-2.045 3.435-4.937 3.439-7.935.017-12.17-4.604-23.481-13.735-33.618-2.097-2.328-5.116-3.657-8.221-3.599-3.113.041-6.059 1.423-8.08 3.79l-20.852 24.417c-2.678 3.139-3.343 7.449-1.734 11.25zm30.757-22.136c3.646 4.945 5.817 10.058 6.568 15.462l-18.759-1.187z"/><path d="m271.96 138.42c1.387 3.888 4.794 6.611 8.892 7.108.445.054.888.081 1.328.081 3.609 0 6.976-1.788 9.005-4.855l17.592-26.598c0-.001 0-.001 0-.001 1.638-2.478 2.186-5.556 1.503-8.446-.688-2.909-2.57-5.436-5.168-6.932-10.546-6.074-22.654-7.699-35.995-4.828-3.063.66-5.691 2.605-7.213 5.338-1.514 2.721-1.782 5.962-.735 8.894zm21.689-28.583-10.368 15.677-6.31-17.681c6.104-.697 11.618-.036 16.678 2.004z"/></svg>