<svg id="Capa_1" enable-background="new 0 0 510.588 510.588" height="512" viewBox="0 0 510.588 510.588" width="512" xmlns="http://www.w3.org/2000/svg"><g fill="#fee903"><path d="m60.848 64.921 17.096 8.572 4.178-8.333c6.186-12.337 1.199-27.353-11.138-33.539l-13.238-6.637c-2.131-1.069-4.725-.207-5.793 1.924l-2.243 4.474c-6.186 12.337-1.199 27.353 11.138 33.539z"/><path d="m46.749 96.81 17.505 7.704 3.755-8.532c5.559-12.632-.174-27.378-12.805-32.938l-13.554-5.965c-2.182-.96-4.729.03-5.69 2.212l-2.016 4.581c-5.56 12.632.174 27.379 12.805 32.938z"/><path d="m37.698 131.006 18.612 4.398 2.144-9.072c3.173-13.431-5.142-26.892-18.573-30.065l-14.411-3.406c-2.32-.548-4.645.888-5.193 3.208l-1.151 4.871c-3.174 13.432 5.141 26.892 18.572 30.066z"/><path d="m31.363 166.617 18.859 3.177 1.549-9.192c2.293-13.609-6.881-26.5-20.49-28.793l-14.603-2.46c-2.351-.396-4.578 1.189-4.974 3.539l-.832 4.936c-2.292 13.609 6.882 26.5 20.491 28.793z"/><path d="m32.489 207.411h19.125v-9.322c0-13.801-11.188-24.989-24.989-24.989h-14.808c-2.384 0-4.317 1.933-4.317 4.317v5.005c0 13.801 11.188 24.989 24.989 24.989z"/><path d="m36.906 243.028h19.125v-9.322c0-13.801-11.188-24.989-24.989-24.989h-14.808c-2.384 0-4.317 1.933-4.317 4.317v5.005c0 13.801 11.188 24.989 24.989 24.989z"/><path d="m46.199 276.501 18.795-3.535-1.723-9.161c-2.551-13.563-15.614-22.491-29.177-19.94l-14.553 2.737c-2.343.441-3.885 2.697-3.444 5.04l.925 4.919c2.551 13.563 15.614 22.491 29.177 19.94z"/><path d="m62.582 309.914 18.358-5.363-2.614-8.948c-3.87-13.247-17.746-20.849-30.993-16.979l-14.214 4.152c-2.288.668-3.601 3.065-2.933 5.354l1.404 4.804c3.868 13.249 17.745 20.85 30.992 16.98z"/><path d="m88.713 344.461 16.563-9.562-4.661-8.073c-6.9-11.952-22.183-16.047-34.135-9.147l-12.824 7.404c-2.065 1.192-2.772 3.832-1.58 5.897l2.503 4.335c6.899 11.952 22.182 16.047 34.134 9.146z"/><path d="m449.74 64.921-17.096 8.572-4.178-8.333c-6.186-12.337-1.199-27.353 11.138-33.539l12.582-6.309c2.493-1.25 5.528-.242 6.778 2.251l1.915 3.819c6.185 12.337 1.198 27.353-11.139 33.539z"/><path d="m463.839 96.81-17.505 7.704-3.755-8.532c-5.56-12.632.174-27.378 12.805-32.938l12.882-5.67c2.553-1.124 5.533.035 6.657 2.588l1.721 3.91c5.559 12.632-.174 27.379-12.805 32.938z"/><path d="m472.89 131.006-18.612 4.398-2.143-9.072c-3.173-13.431 5.142-26.892 18.573-30.065l13.698-3.236c2.714-.641 5.435 1.039 6.076 3.754l.982 4.157c3.172 13.43-5.143 26.89-18.574 30.064z"/><path d="m479.225 166.617-18.859 3.177-1.549-9.192c-2.293-13.609 6.881-26.5 20.49-28.793l13.879-2.338c2.75-.463 5.356 1.391 5.819 4.141l.71 4.212c2.293 13.609-6.881 26.5-20.49 28.793z"/><path d="m478.099 207.411h-19.125v-9.322c0-13.801 11.188-24.989 24.989-24.989h14.075c2.789 0 5.05 2.261 5.05 5.05v4.272c0 13.801-11.188 24.989-24.989 24.989z"/><path d="m473.682 243.028h-19.125v-9.322c0-13.801 11.188-24.989 24.989-24.989h14.075c2.789 0 5.05 2.261 5.05 5.05v4.272c0 13.801-11.188 24.989-24.989 24.989z"/><path d="m464.389 276.501-18.795-3.535 1.723-9.161c2.551-13.563 15.614-22.491 29.177-19.94l13.832 2.601c2.741.516 4.545 3.155 4.03 5.897l-.789 4.198c-2.552 13.563-15.615 22.491-29.178 19.94z"/><path d="m448.006 309.914-18.358-5.363 2.614-8.948c3.87-13.247 17.746-20.849 30.993-16.979l13.51 3.947c2.677.782 4.214 3.586 3.431 6.264l-1.198 4.1c-3.869 13.248-17.745 20.849-30.992 16.979z"/><path d="m421.874 344.461-16.563-9.562 4.661-8.073c6.9-11.952 22.183-16.047 34.135-9.147l12.189 7.037c2.415 1.395 3.243 4.483 1.848 6.899l-2.136 3.699c-6.899 11.953-22.182 16.048-34.134 9.147z"/></g><path d="m302.323 170.428 67.709-132.927h-96.728l-22.382 43.941-8.631 19.618v114.032h59.698z" fill="#fe646f"/><path d="m264.604 54.581-13.682 26.861-8.631 19.618v105.233h39.239 20.525l.268-35.866 5.455-10.708z" fill="#fb2b3a"/><path d="m280.41 153.253 58.961-115.752h-35.406l-39.358 77.267v75.488h15.891z" fill="#fef1da"/><path d="m278.289 87.908-13.682 26.861v75.487h15.891l-.088-37.003 13.682-26.861z" fill="#fae2c0"/><path d="m284.485 163.176-51.607-125.675h-93.174l57.329 139.61 7.487 20.382h48.684 31.281z" fill="#fe646f"/><path d="m253.204 158.923-49.86-121.422h-34.105l52.202 127.125v32.867h31.763z" fill="#fef1da"/><path d="m326.37 333.858c18.99-18.519 30.786-44.378 30.786-72.998 0-56.312-45.65-101.962-101.962-101.962s-101.962 45.65-101.962 101.962c0 28.62 11.797 54.481 30.787 73v18.631h142.632z" fill="#f4d902"/><path d="m215.451 260.86c0-45.462 29.756-83.969 70.853-97.122-9.808-3.139-20.259-4.84-31.109-4.84-56.312 0-101.962 45.65-101.962 101.962 0 28.62 11.797 54.481 30.787 73v18.631h62.218v-18.631c-18.99-18.519-30.787-44.38-30.787-73z" fill="#e3ca00"/><path d="m283.432 327.214c25.783-10.987 43.86-36.557 43.86-66.354 0-39.819-32.279-72.098-72.098-72.098-39.818 0-72.098 32.279-72.098 72.098 0 29.8 18.081 55.373 43.869 66.357v13.594h57.009z" fill="#fee903"/><path d="m297.743 319.052h-19.721c-4.593 0-8.317-3.724-8.317-8.317 0-3.114-1.738-5.971-4.512-7.387-23.361-11.928-39.357-36.218-39.357-64.248 0-19.273 7.577-36.766 19.897-49.701-35.344 4.637-62.636 34.851-62.636 71.46 0 29.8 18.081 55.373 43.869 66.357v13.594h57.009l-.543-13.598c5.101-2.172 9.894-4.925 14.311-8.16z" fill="#fed402"/><path d="m447.464 423.351c4.36 2.45 3.55 8.96-1.28 10.27l-36.3 9.85 3.14 38.27c.34 4.07-3.82 6.99-7.53 5.3l-86.18-39.17 1-.38 41.9-16.08.37-.76c.1.05.2.1.3.15l30.34-38.09.33.26z" fill="#08a9f1"/><path d="m190.274 445.871-86.18 39.17c-3.71 1.69-7.87-1.23-7.53-5.3l3.14-38.27-36.3-9.85c-4.83-1.31-5.64-7.82-1.28-10.27l53.91-30.38 31.34 38.44z" fill="#08a9f1"/><path d="m362.584 430.651-.37.76-42.9 16.46v-3-30.84c14.83 4.12 29.33 9.66 43.27 16.62z" fill="#017bae"/><path d="m190.274 415.001v30.87l-42.9-16.46c13.71-6.68 27.95-11.98 42.5-15.9z" fill="#017bae"/><path d="m319.314 414.031c-42.26-11.75-87.18-11.93-129.44-.52-14.55 3.92-28.79 9.22-42.5 15.9l-31.34-38.44-14.91-18.28c-2.54-3.12-1.55-7.8 2.03-9.62 97.07-49.42 207.06-49.49 303.96.03 3.55 1.82 4.55 6.44 2.07 9.57l-15.96 20.04-30.34 38.09c-.1-.05-.2-.1-.3-.15-13.94-6.96-28.44-12.5-43.27-16.62z" fill="#01d0fb"/><path d="m229.346 223.507v21.788c0 1.494 1.211 2.706 2.706 2.706h17.359v50.206c0 1.955 1.585 3.541 3.541 3.541h19.815c1.955 0 3.541-1.585 3.541-3.541v-66.873c0-5.817-4.715-10.532-10.532-10.532h-33.723c-1.496 0-2.707 1.211-2.707 2.705z" fill="#e3ca00"/><path d="m257.541 346.238 6.511 10.189c.211.33.543.562.925.647l10.526 2.346c1.074.239 1.52 1.525.826 2.378l-8.384 10.301c-.268.329-.381.756-.312 1.175l1.522 9.23c.194 1.174-1.007 2.084-2.085 1.582l-11.1-5.175c-.425-.198-.918-.183-1.33.04l-9.005 4.88c-1.082.586-2.365-.327-2.165-1.542l1.486-9.015c.069-.418-.045-.846-.312-1.175l-8.384-10.301c-.694-.853-.248-2.139.826-2.378l10.526-2.346c.382-.085.714-.318.925-.647l6.511-10.189c.581-.91 1.911-.91 2.493 0z" fill="#fef056"/><path d="m341.929 358.646 6.511 10.189c.211.33.543.562.925.647l10.526 2.346c1.074.239 1.52 1.525.826 2.378l-8.384 10.301c-.268.329-.381.756-.312 1.175l1.522 9.23c.194 1.174-1.007 2.084-2.085 1.582l-11.1-5.175c-.425-.198-.918-.183-1.33.04l-9.005 4.88c-1.082.586-2.365-.327-2.165-1.542l1.486-9.015c.069-.418-.045-.846-.312-1.175l-8.384-10.301c-.694-.853-.248-2.139.826-2.378l10.526-2.346c.382-.085.714-.318.925-.647l6.511-10.189c.581-.91 1.911-.91 2.493 0z" fill="#fef056"/><path d="m169.659 358.646-6.511 10.189c-.211.33-.543.562-.925.647l-10.526 2.346c-1.074.239-1.52 1.525-.826 2.378l8.384 10.301c.268.329.381.756.312 1.175l-1.522 9.23c-.194 1.174 1.007 2.084 2.085 1.582l11.1-5.175c.425-.198.918-.183 1.33.04l9.005 4.88c1.082.586 2.365-.327 2.165-1.542l-1.486-9.015c-.069-.418.045-.846.312-1.175l8.384-10.301c.694-.853.248-2.139-.826-2.378l-10.526-2.346c-.382-.085-.714-.318-.925-.647l-6.511-10.189c-.582-.91-1.911-.91-2.493 0z" fill="#fef056"/><path d="m399.432 238.046c-3.312 5.244-7.497 9.534-12.66 12.754-1.43.892-1.437 2.977-.006 3.867 5.369 3.339 9.655 7.431 12.677 12.402.897 1.475 3.014 1.483 3.912.009 3.128-5.13 7.321-9.326 12.647-12.528 1.439-.865 1.468-2.942.062-3.86-5.116-3.338-9.485-7.444-12.785-12.649-.894-1.409-2.955-1.406-3.847.005z" fill="#fee903"/><path d="m121.985 147.022c-3.919 6.04-8.795 11.033-14.737 14.859-2.041 1.314-1.955 4.296.089 5.606 6.126 3.925 11.076 8.667 14.668 14.353 1.298 2.055 4.305 2.061 5.601.005 3.701-5.873 8.558-10.733 14.636-14.521 2.08-1.296 2.153-4.261.116-5.625-5.884-3.938-10.945-8.724-14.852-14.695-1.292-1.975-4.237-1.961-5.521.018z" fill="#fee903"/><path d="m362.879 438.305c-1.137 0-2.284-.258-3.355-.795-65.34-32.734-143.42-33.244-208.865-1.357-3.129 1.524-6.897.695-9.098-2.003l-46.247-56.717c-2.653-3.252-3.678-7.476-2.811-11.586.868-4.11 3.512-7.561 7.254-9.465 49.391-25.144 101.688-37.896 155.439-37.9h.031c53.787 0 106.034 12.766 155.295 37.942 3.708 1.896 6.339 5.317 7.22 9.39.88 4.07-.104 8.272-2.696 11.528l-46.296 58.135c-1.462 1.836-3.644 2.828-5.871 2.828zm-109.303-40.702c36.701 0 73.423 7.949 107.181 23.832l41.655-52.307c-46.746-23.652-96.265-35.646-147.185-35.646-.013 0-.018 0-.03 0-50.891.004-100.454 11.985-147.332 35.608l41.612 51.033c32.833-15.016 68.459-22.52 104.099-22.52z"/><path d="m101.857 493.041c-2.586 0-5.146-.796-7.364-2.356-3.764-2.647-5.785-6.967-5.408-11.553l2.634-32.057-30.281-8.217c-5.15-1.397-8.904-5.723-9.564-11.018s1.917-10.408 6.565-13.027l53.909-30.377c3.608-2.031 8.183-.756 10.216 2.853s.756 8.183-2.853 10.216l-49.858 28.095 31.815 8.633c3.49.947 5.807 4.249 5.511 7.853l-2.844 34.61 66.527-30.238-26.177-10.045c-3.866-1.483-5.799-5.822-4.314-9.689 1.483-3.865 5.816-5.803 9.689-4.314l42.9 16.463c2.822 1.083 4.718 3.755 4.81 6.776.091 3.021-1.642 5.803-4.394 7.054l-86.182 39.172c-1.719.779-3.534 1.166-5.337 1.166z"/><path d="m190.273 453.373c-4.143 0-7.5-3.357-7.5-7.5v-30.872c0-4.143 3.357-7.5 7.5-7.5s7.5 3.357 7.5 7.5v30.872c0 4.143-3.357 7.5-7.5 7.5z"/><path d="m407.729 495.041c-1.802 0-3.616-.386-5.337-1.168l-86.182-39.172c-2.752-1.251-4.484-4.032-4.394-7.054.092-3.021 1.987-5.693 4.81-6.776l42.9-16.463c3.869-1.483 8.206.448 9.689 4.314 1.484 3.867-.448 8.206-4.314 9.689l-26.177 10.045 66.527 30.239-2.844-34.611c-.296-3.604 2.021-6.905 5.511-7.853l31.815-8.633-49.858-28.095c-3.608-2.033-4.886-6.607-2.853-10.216s6.606-4.884 10.216-2.853l53.909 30.377c4.648 2.619 7.226 7.732 6.565 13.027s-4.414 9.62-9.564 11.018l-30.281 8.217 2.634 32.057c.377 4.586-1.645 8.905-5.408 11.553-2.216 1.562-4.777 2.358-7.364 2.358zm36.057-65.159h.01z"/><path d="m319.314 452.373c-4.143 0-7.5-3.357-7.5-7.5v-30.872c0-4.143 3.357-7.5 7.5-7.5s7.5 3.357 7.5 7.5v30.872c0 4.143-3.357 7.5-7.5 7.5z"/><path d="m120.286 353.192c-1.8 0-3.604-.644-5.04-1.95-1.333-1.212-32.889-30.27-53.629-80.773-12.199-29.708-18.074-60.68-17.46-92.057.766-39.11 11.67-78.872 32.409-118.181 1.935-3.662 6.47-5.065 10.134-3.134 3.663 1.934 5.066 6.47 3.134 10.134-19.566 37.084-29.886 74.454-30.671 111.074-.628 29.242 4.787 58.138 16.093 85.885 19.384 47.571 49.783 75.681 50.088 75.959 3.056 2.792 3.276 7.534.488 10.593-1.479 1.623-3.51 2.45-5.546 2.45z"/><path d="m77.944 80.993c-1.156 0-2.309-.268-3.361-.796l-17.097-8.572h-.001c-16.013-8.03-22.509-27.591-14.479-43.604l4.179-8.334c1.855-3.702 6.364-5.2 10.065-3.342l17.096 8.572c16.015 8.028 22.51 27.59 14.48 43.604l-4.177 8.334c-.892 1.778-2.453 3.129-4.341 3.756-.769.255-1.568.382-2.364.382zm-13.735-22.776 10.392 5.21.816-1.629c2.095-4.176 2.437-8.917.965-13.351-1.473-4.434-4.583-8.028-8.759-10.122l-10.392-5.21-.817 1.629c-4.321 8.619-.825 19.15 7.795 23.473z"/><path d="m64.254 112.015c-1.03 0-2.06-.212-3.021-.636l-17.505-7.704c-16.397-7.216-23.865-26.427-16.648-42.824l3.755-8.532c.801-1.82 2.293-3.248 4.146-3.969s3.917-.677 5.739.126l17.505 7.705c7.942 3.495 14.048 9.874 17.192 17.963s2.951 16.917-.545 24.86l-3.755 8.532c-.801 1.82-2.293 3.248-4.146 3.969-.874.34-1.796.51-2.717.51zm-14.483-22.069 10.64 4.683.734-1.668c1.882-4.275 1.985-9.028.293-13.382s-4.979-7.788-9.255-9.67l-10.64-4.684-.734 1.668c-3.885 8.827.135 19.169 8.962 23.053z"/><path d="m56.317 142.905c-.571 0-1.151-.065-1.731-.203l-18.612-4.397c-17.434-4.119-28.267-21.654-24.147-39.089l2.144-9.072c.952-4.031 4.992-6.535 9.023-5.574l18.612 4.397c8.446 1.995 15.608 7.16 20.17 14.544 4.561 7.383 5.974 16.1 3.978 24.545l-2.144 9.072c-.816 3.451-3.894 5.777-7.293 5.777zm-16.894-19.198 11.313 2.673.419-1.773c1.074-4.546.313-9.238-2.142-13.213s-6.311-6.755-10.857-7.829l-11.313-2.673-.419 1.773c-2.217 9.385 3.614 18.824 12.999 21.042z"/><path d="m50.222 177.295c-.415 0-.832-.034-1.246-.104l-18.858-3.178c-17.666-2.977-29.616-19.77-26.64-37.435l1.549-9.192c.33-1.962 1.427-3.711 3.047-4.864 1.621-1.154 3.636-1.618 5.595-1.285l18.859 3.178c17.665 2.977 29.615 19.77 26.639 37.435l-1.549 9.192c-.33 1.962-1.427 3.711-3.047 4.864-1.279.91-2.801 1.389-4.349 1.389zm-31.651-40.021-.303 1.797c-1.602 9.509 4.831 18.549 14.341 20.151l11.463 1.932.303-1.797c1.602-9.509-4.831-18.549-14.34-20.151z"/><path d="m51.614 214.911h-19.125c-17.915 0-32.489-14.574-32.489-32.489v-9.321c0-4.143 3.357-7.5 7.5-7.5h19.125c17.915 0 32.489 14.574 32.489 32.488v9.322c0 4.143-3.357 7.5-7.5 7.5zm-36.614-34.31v1.821c0 9.644 7.846 17.489 17.489 17.489h11.625v-1.822c0-9.644-7.846-17.488-17.489-17.488z"/><path d="m56.031 250.527h-19.125c-17.915 0-32.489-14.574-32.489-32.488v-9.322c0-4.143 3.357-7.5 7.5-7.5h19.125c17.915 0 32.489 14.574 32.489 32.489v9.321c0 4.143-3.357 7.5-7.5 7.5zm-36.614-34.31v1.822c0 9.644 7.846 17.488 17.489 17.488h11.625v-1.821c0-9.644-7.846-17.489-17.489-17.489z"/><path d="m41.513 284.441c-6.477 0-12.8-1.94-18.264-5.675-7.164-4.896-11.993-12.29-13.598-20.819l-1.723-9.161c-.367-1.954.057-3.976 1.179-5.617 1.123-1.643 2.852-2.771 4.807-3.14l18.795-3.534c8.526-1.604 17.171.21 24.336 5.105 7.164 4.896 11.993 12.29 13.598 20.819l1.724 9.16c.367 1.955-.057 3.976-1.179 5.618s-2.852 2.771-4.806 3.14l-18.796 3.535h-.001c-2.024.381-4.056.569-6.072.569zm4.686-7.94h.01zm-22.142-23.117.337 1.791c.863 4.591 3.463 8.571 7.319 11.207s8.507 3.61 13.101 2.748h-.001l11.425-2.148-.337-1.79c-.863-4.592-3.463-8.571-7.319-11.207s-8.507-3.611-13.101-2.748z"/><path d="m55.529 318.432c-5.384 0-10.711-1.352-15.563-4.01-7.611-4.17-13.144-11.054-15.576-19.384l-2.614-8.947c-1.161-3.977 1.12-8.141 5.096-9.303l18.357-5.363c17.195-5.023 35.273 4.88 40.297 22.075l2.613 8.949c1.161 3.976-1.12 8.141-5.097 9.302l-18.357 5.362h.001c-3.019.882-6.097 1.319-9.157 1.319zm-17.252-29.349.511 1.749c1.31 4.484 4.287 8.189 8.384 10.434 4.099 2.245 8.824 2.76 13.307 1.449h.001l11.158-3.26-.511-1.749c-2.704-9.257-12.441-14.589-21.692-11.883z"/><path d="m76.271 355.323c-2.821 0-5.662-.371-8.461-1.121-8.383-2.246-15.389-7.622-19.728-15.138l-4.661-8.073c-.995-1.723-1.265-3.77-.749-5.691.515-1.921 1.771-3.56 3.494-4.554l16.563-9.562c7.517-4.34 16.273-5.491 24.653-3.246 8.383 2.246 15.389 7.622 19.728 15.138l4.661 8.072c.994 1.723 1.265 3.77.749 5.691-.515 1.921-1.771 3.56-3.494 4.554l-16.563 9.563c-5.005 2.891-10.562 4.367-16.192 4.367zm12.443-10.862h.01zm-28.552-14.475.911 1.578c2.336 4.046 6.107 6.939 10.619 8.148s9.225.59 13.271-1.747l10.067-5.813-.911-1.577c-2.336-4.046-6.107-6.939-10.619-8.148-4.517-1.212-9.226-.589-13.271 1.747z"/><path d="m390.298 353.193c-2.039 0-4.071-.826-5.551-2.454-2.785-3.063-2.562-7.802.497-10.59.305-.278 30.704-28.388 50.088-75.959 11.306-27.747 16.721-56.643 16.093-85.885-.785-36.62-11.104-73.99-30.671-111.074-1.933-3.664-.529-8.2 3.134-10.134 3.665-1.929 8.2-.528 10.134 3.134 20.739 39.309 31.644 79.07 32.409 118.181.614 31.377-5.261 62.349-17.46 92.057-20.74 50.504-52.296 79.562-53.629 80.773-1.438 1.306-3.243 1.951-5.044 1.951z"/><path d="m432.644 80.993c-.796 0-1.595-.127-2.364-.383-1.888-.627-3.449-1.978-4.341-3.756l-4.178-8.334c-8.028-16.014-1.533-35.575 14.481-43.604l17.096-8.572c3.701-1.856 8.209-.361 10.065 3.342l4.179 8.333c8.029 16.015 1.533 35.575-14.479 43.605h-.001l-17.097 8.572c-1.053.53-2.205.797-3.361.797zm17.096-16.072h.01zm3.616-31.806-10.392 5.21c-4.176 2.094-7.286 5.688-8.759 10.122-1.472 4.434-1.13 9.175.964 13.351l.817 1.629 10.392-5.21h-.001c8.621-4.323 12.117-14.854 7.796-23.474z"/><path d="m446.334 112.015c-.921 0-1.843-.17-2.718-.51-1.854-.721-3.346-2.148-4.146-3.969l-3.755-8.532c-3.496-7.943-3.689-16.771-.545-24.86s9.25-14.468 17.192-17.963l17.505-7.705c1.822-.802 3.887-.846 5.739-.126 1.854.721 3.346 2.148 4.146 3.969l3.755 8.532c7.217 16.397-.251 35.608-16.647 42.824l-17.505 7.704c-.961.424-1.991.636-3.021.636zm17.505-15.204h.01zm5.206-31.585-10.64 4.684c-4.275 1.882-7.563 5.315-9.255 9.67-1.692 4.354-1.589 9.106.293 13.382l.734 1.668 10.64-4.683c8.826-3.885 12.847-14.227 8.962-23.053z"/><path d="m454.271 142.905c-3.398 0-6.477-2.326-7.292-5.777l-2.144-9.072c-1.996-8.445-.583-17.162 3.978-24.545 4.562-7.384 11.724-12.549 20.17-14.544l18.612-4.397c4.029-.954 8.07 1.543 9.023 5.574l2.144 9.072c4.119 17.435-6.714 34.97-24.147 39.089l-18.612 4.397c-.581.137-1.161.203-1.732.203zm18.619-11.899h.01zm10.855-30.114-11.313 2.673c-4.547 1.074-8.402 3.854-10.857 7.829s-3.216 8.667-2.142 13.213l.419 1.773 11.313-2.673c9.385-2.218 15.216-11.657 12.999-21.042z"/><path d="m460.366 177.295c-1.549 0-3.07-.479-4.349-1.39-1.62-1.153-2.717-2.902-3.047-4.864l-1.549-9.192c-2.977-17.665 8.974-34.458 26.639-37.435l18.859-3.178c1.96-.334 3.974.131 5.595 1.285 1.62 1.153 2.717 2.902 3.047 4.864l1.549 9.192c2.977 17.665-8.974 34.458-26.64 37.435l-18.858 3.178c-.414.071-.831.105-1.246.105zm31.651-40.021-11.464 1.932c-9.509 1.603-15.941 10.643-14.34 20.151l.303 1.797 11.463-1.932c9.51-1.603 15.942-10.643 14.341-20.151z"/><path d="m478.099 214.911h-19.125c-4.143 0-7.5-3.357-7.5-7.5v-9.322c0-17.914 14.574-32.488 32.489-32.488h19.125c4.143 0 7.5 3.357 7.5 7.5v9.321c0 17.915-14.574 32.489-32.489 32.489zm-11.625-15h11.625c9.644 0 17.489-7.846 17.489-17.489v-1.821h-11.625c-9.644 0-17.489 7.845-17.489 17.488z"/><path d="m473.682 250.527h-19.125c-4.143 0-7.5-3.357-7.5-7.5v-9.321c0-17.915 14.574-32.489 32.489-32.489h19.125c4.143 0 7.5 3.357 7.5 7.5v9.322c0 17.914-14.574 32.488-32.489 32.488zm-11.625-15h11.625c9.644 0 17.489-7.845 17.489-17.488v-1.822h-11.625c-9.644 0-17.489 7.846-17.489 17.489z"/><path d="m469.075 284.441c-2.017 0-4.047-.188-6.072-.568h-.001l-18.796-3.535c-1.954-.368-3.684-1.497-4.806-3.14s-1.546-3.663-1.179-5.618l1.724-9.161c1.604-8.528 6.434-15.922 13.598-20.818 7.166-4.896 15.811-6.708 24.336-5.105l18.795 3.534c1.955.368 3.684 1.497 4.807 3.14 1.122 1.642 1.546 3.663 1.179 5.617l-1.723 9.161c-1.604 8.529-6.434 15.923-13.598 20.819-5.463 3.732-11.787 5.674-18.264 5.674zm-3.301-15.311c4.592.862 9.243-.112 13.101-2.748 3.856-2.636 6.456-6.616 7.319-11.207l.337-1.791-11.424-2.147c-4.598-.864-9.245.113-13.101 2.748-3.856 2.636-6.456 6.615-7.319 11.206l-.337 1.791z"/><path d="m455.059 318.432c-3.06 0-6.137-.437-9.156-1.318l-18.356-5.362c-3.977-1.161-6.258-5.326-5.097-9.302l2.613-8.948c5.023-17.196 23.098-27.095 40.296-22.076l18.358 5.363c3.976 1.162 6.257 5.326 5.096 9.303l-2.614 8.948c-2.433 8.329-7.965 15.213-15.576 19.383-4.853 2.657-10.181 4.009-15.564 4.009zm-16.109-18.977 11.158 3.26h.001c4.481 1.308 9.209.795 13.307-1.449 4.097-2.244 7.074-5.949 8.384-10.433l.511-1.75-11.158-3.26c-9.253-2.71-18.987 2.626-21.691 11.884z"/><path d="m434.316 355.323c-5.631 0-11.186-1.477-16.192-4.367l-16.563-9.563c-1.723-.994-2.979-2.633-3.494-4.554-.516-1.922-.245-3.969.749-5.691l4.661-8.072c4.339-7.516 11.345-12.892 19.728-15.138 8.385-2.247 17.14-1.093 24.653 3.246l16.563 9.562c1.723.994 2.979 2.633 3.494 4.554.516 1.922.246 3.969-.749 5.691l-4.661 8.073c-4.339 7.516-11.345 12.892-19.728 15.138-2.798.75-5.639 1.121-8.461 1.121zm-8.692-17.357c4.045 2.336 8.759 2.954 13.271 1.747 4.512-1.209 8.283-4.103 10.619-8.148l.911-1.578-10.067-5.812c-4.045-2.335-8.758-2.957-13.271-1.747-4.512 1.209-8.283 4.103-10.619 8.148l-.911 1.577z"/><path d="m184.02 341.359c-1.888 0-3.777-.708-5.235-2.131-21.313-20.783-33.051-48.615-33.051-78.369 0-60.357 49.104-109.461 109.461-109.461s109.462 49.104 109.462 109.461c0 29.754-11.737 57.586-33.05 78.368-2.966 2.895-7.714 2.83-10.606-.134-2.892-2.966-2.831-7.714.134-10.606 18.394-17.935 28.522-41.952 28.522-67.628 0-52.086-42.375-94.461-94.462-94.461-52.086 0-94.461 42.375-94.461 94.461 0 25.676 10.13 49.693 28.523 67.631 2.966 2.892 3.025 7.64.133 10.605-1.47 1.508-3.419 2.264-5.37 2.264z"/><path d="m283.436 334.715c-2.916 0-5.688-1.71-6.903-4.563-1.624-3.811.148-8.216 3.96-9.839 23.873-10.173 39.3-33.51 39.3-59.454 0-17.081-6.611-33.189-18.617-45.358-2.909-2.949-2.877-7.697.071-10.606 2.95-2.909 7.696-2.877 10.606.071 14.793 14.994 22.939 34.844 22.939 55.894 0 31.967-19.006 60.72-48.421 73.253-.958.409-1.956.602-2.935.602z"/><path d="m226.962 334.719c-.98 0-1.977-.193-2.936-.602-29.42-12.531-48.43-41.287-48.43-73.258 0-43.891 35.707-79.598 79.598-79.598 9.913 0 19.617 1.821 28.845 5.412 3.86 1.502 5.771 5.85 4.27 9.709-1.502 3.86-5.85 5.771-9.709 4.27-7.486-2.913-15.361-4.391-23.405-4.391-35.619 0-64.598 28.979-64.598 64.598 0 25.948 15.43 49.286 39.309 59.457 3.811 1.623 5.584 6.028 3.961 9.84-1.216 2.852-3.989 4.563-6.905 4.563z"/><path d="m272.767 309.247h-19.815c-6.088 0-11.04-4.952-11.04-11.04v-42.706h-9.859c-5.628 0-10.206-4.578-10.206-10.206v-21.788c0-5.627 4.578-10.205 10.206-10.205h33.723c9.943 0 18.032 8.089 18.032 18.032v66.873c-.001 6.088-4.954 11.04-11.041 11.04zm-15.856-15h11.896v-62.913c0-1.672-1.36-3.032-3.032-3.032h-28.929v12.199h12.565c4.143 0 7.5 3.357 7.5 7.5z"/><path d="m197.036 184.613c-2.952 0-5.75-1.754-6.94-4.653l-57.329-139.61c-.95-2.313-.685-4.947.708-7.025 1.393-2.077 3.729-3.323 6.229-3.323h93.175c3.042 0 5.782 1.837 6.938 4.651l51.606 125.675c1.574 3.831-.257 8.213-4.089 9.786-3.83 1.574-8.213-.258-9.786-4.089l-49.697-121.024h-76.959l53.079 129.262c1.574 3.831-.257 8.213-4.089 9.786-.932.383-1.897.564-2.846.564z"/><path d="m185.947 85.687c-2.952 0-5.75-1.754-6.94-4.653l-16.706-40.685c-1.574-3.831.257-8.213 4.089-9.786 3.828-1.574 8.213.257 9.786 4.089l16.706 40.685c1.574 3.831-.257 8.213-4.089 9.786-.932.382-1.897.564-2.846.564z"/><path d="m253.207 166.426c-2.952 0-5.75-1.754-6.94-4.653l-49.86-121.424c-1.574-3.831.257-8.213 4.089-9.786 3.829-1.574 8.213.257 9.786 4.089l49.86 121.424c1.574 3.831-.257 8.213-4.089 9.786-.932.382-1.897.564-2.846.564z"/><path d="m221.443 172.128c-2.952 0-5.75-1.754-6.94-4.653l-24.1-58.69c-1.574-3.831.257-8.213 4.089-9.786 3.83-1.573 8.213.258 9.786 4.089l24.1 58.69c1.574 3.831-.257 8.213-4.089 9.786-.932.382-1.896.564-2.846.564z"/><path d="m302.317 177.93c-1.146 0-2.308-.264-3.398-.819-3.69-1.88-5.159-6.396-3.278-10.087l62.154-122.022h-79.895l-20.296 39.845c-1.879 3.692-6.395 5.16-10.087 3.278-3.69-1.88-5.159-6.396-3.278-10.087l22.382-43.94c1.28-2.513 3.862-4.096 6.683-4.096h96.729c2.609 0 5.031 1.356 6.395 3.581s1.473 4.998.288 7.323l-67.709 132.927c-1.325 2.6-3.959 4.097-6.69 4.097z"/><path d="m280.404 160.755c-1.146 0-2.308-.264-3.398-.819-3.69-1.88-5.159-6.396-3.278-10.087l53.406-104.848h-18.572l-37.271 73.172c-1.879 3.692-6.396 5.16-10.087 3.278-3.69-1.88-5.159-6.396-3.278-10.087l39.357-77.268c1.28-2.513 3.862-4.096 6.683-4.096h35.406c2.609 0 5.031 1.356 6.395 3.581s1.473 4.998.288 7.323l-58.961 115.752c-1.325 2.602-3.959 4.099-6.69 4.099z"/><path d="m243.857 45.001h-115.746c-4.143 0-7.5-3.357-7.5-7.5s3.357-7.5 7.5-7.5h115.746c4.143 0 7.5 3.357 7.5 7.5s-3.357 7.5-7.5 7.5z"/><path d="m381.055 45.001h-116.884c-4.143 0-7.5-3.357-7.5-7.5s3.357-7.5 7.5-7.5h116.884c4.143 0 7.5 3.357 7.5 7.5s-3.358 7.5-7.5 7.5z"/><path d="m267.699 391.728c-1.289 0-2.585-.279-3.801-.846l-8.352-3.894-6.34 3.436c-3.037 1.646-6.672 1.425-9.485-.578-2.814-2.004-4.214-5.367-3.652-8.777l1.046-6.339-6.672-8.197c-1.979-2.43-2.548-5.649-1.52-8.612 1.028-2.962 3.469-5.138 6.529-5.82l8.102-1.806 5.173-8.094c1.657-2.596 4.486-4.146 7.566-4.146s5.908 1.55 7.566 4.146l5.173 8.094 8.101 1.806c3.062.683 5.502 2.858 6.53 5.82 1.028 2.963.459 6.183-1.521 8.614l-6.67 8.195 1.081 6.554c.543 3.297-.773 6.599-3.435 8.616-1.591 1.208-3.497 1.827-5.419 1.828zm-12.354-20.452c1.297 0 2.596.278 3.796.839l.984.459c.098-1.891.789-3.717 2-5.206l2.235-2.746-1.015-.227c-2.334-.52-4.33-1.916-5.617-3.934l-1.435-2.246-1.438 2.25c-1.283 2.014-3.279 3.41-5.615 3.931l-1.013.226 2.232 2.743c1.042 1.28 1.699 2.809 1.926 4.409.955-.332 1.957-.498 2.96-.498zm18.526-4.536h.01z"/><path d="m352.087 404.136c-1.289 0-2.585-.279-3.801-.846l-8.351-3.894-6.34 3.436c-3.034 1.646-6.67 1.427-9.485-.579-2.815-2.004-4.215-5.366-3.653-8.776l1.045-6.339-6.671-8.196c-1.98-2.434-2.547-5.654-1.519-8.615 1.029-2.962 3.471-5.137 6.53-5.818l8.101-1.806 5.173-8.094c1.659-2.596 4.487-4.145 7.566-4.145h.003c3.08.001 5.908 1.552 7.564 4.146l5.171 8.092 8.102 1.806c3.061.682 5.501 2.857 6.529 5.818 1.028 2.962.462 6.182-1.517 8.614l-6.674 8.197 1.081 6.555c.545 3.291-.77 6.593-3.431 8.613-1.592 1.21-3.499 1.831-5.423 1.831zm-5.945-8.007c0 .003.001.006.001.008zm-6.409-12.445c1.297 0 2.596.278 3.796.839l.982.458c.098-1.885.789-3.713 2.002-5.205l2.235-2.746-1.016-.227c-2.33-.52-4.32-1.912-5.608-3.921l-1.442-2.258-1.438 2.249c-1.294 2.02-3.286 3.412-5.615 3.931l-1.014.226 2.232 2.743c1.042 1.281 1.699 2.81 1.927 4.409.955-.332 1.956-.498 2.959-.498zm-17.79.778c0 .003-.001.007-.002.011zm37.476-.008.002.012c0-.004-.001-.008-.002-.012zm-1.159-5.305h.01zm-22.653-16.466c.001.002.003.005.004.007l-.002-.005c-.001 0-.002-.001-.002-.002z"/><path d="m159.501 404.136c-1.924 0-3.83-.621-5.425-1.83-2.661-2.021-3.976-5.322-3.43-8.618l1.08-6.55-6.672-8.196c-1.98-2.434-2.547-5.653-1.519-8.615 1.028-2.961 3.469-5.137 6.528-5.818l8.103-1.806 5.171-8.092c1.656-2.595 4.484-4.146 7.564-4.146h.003c3.079 0 5.907 1.548 7.565 4.142l5.174 8.097 8.101 1.806c3.06.682 5.501 2.856 6.53 5.818 1.028 2.961.462 6.182-1.517 8.614l-6.673 8.197 1.045 6.34c.562 3.409-.838 6.771-3.653 8.775-2.813 2.003-6.449 2.225-9.488.578l-6.337-3.435-8.353 3.895c-1.212.566-2.508.844-3.797.844zm5.946-8.012-.001.008c0-.003.001-.005.001-.008zm-2.608-19.095 2.232 2.743c1.215 1.493 1.906 3.321 2.004 5.208l.986-.46c2.124-.991 4.562-1.099 6.751-.339.228-1.599.884-3.126 1.925-4.406l2.235-2.746-1.016-.227c-2.327-.518-4.319-1.91-5.608-3.921l-1.442-2.258-1.438 2.249c-1.293 2.018-3.283 3.41-5.611 3.93zm-10.672 7.433c0 .004-.001.007-.002.011zm37.476-.008.002.011c0-.003-.001-.007-.002-.011zm-13.663-21.771c0 .001-.001.002-.002.002l-.002.005c.002-.002.003-.005.004-.007zm-6.321-4.036h.01z"/><path d="m401.376 278.248c-.03 0-.059 0-.089-.001-2.925-.033-5.563-1.766-6.758-4.436-2.666-5.957-7.464-10.686-14.668-14.455-2.501-1.309-4.056-3.911-4.022-6.733.032-2.822 1.647-5.388 4.179-6.637 6.313-3.118 11.127-7.958 14.717-14.798 1.296-2.47 3.854-4.015 6.641-4.015h.069c2.813.026 5.374 1.624 6.635 4.139 3.035 6.052 7.938 10.91 14.992 14.852 2.442 1.365 3.922 3.976 3.838 6.772-.085 2.797-1.719 5.313-4.238 6.529-6.657 3.212-11.408 7.956-14.523 14.504-1.246 2.616-3.882 4.279-6.773 4.279zm-4.605-25.571c1.663 1.403 3.195 2.889 4.593 4.453 1.432-1.649 2.983-3.187 4.651-4.609-1.664-1.435-3.201-2.946-4.614-4.537-1.447 1.685-2.991 3.25-4.63 4.693z"/><path d="m124.772 194.503c-.03 0-.06 0-.089-.001-2.926-.034-5.563-1.766-6.758-4.437-3.479-7.774-9.695-13.922-19.008-18.794-2.501-1.309-4.056-3.911-4.022-6.733.032-2.822 1.647-5.388 4.179-6.637 8.187-4.042 14.42-10.302 19.056-19.138 1.297-2.47 3.855-4.015 6.642-4.015h.069c2.813.026 5.374 1.624 6.635 4.138 3.934 7.844 10.257 14.122 19.332 19.191 2.442 1.365 3.923 3.977 3.839 6.773-.085 2.797-1.719 5.314-4.239 6.529-8.644 4.17-14.813 10.333-18.863 18.845-1.245 2.616-3.883 4.279-6.773 4.279zm-8.542-29.892c3.233 2.532 6.085 5.301 8.546 8.295 2.525-3.154 5.393-5.993 8.588-8.506-3.227-2.593-6.082-5.403-8.584-8.446-2.574 3.229-5.426 6.117-8.55 8.657z"/></svg>