<svg id="Capa_1" enable-background="new 0 0 510.409 510.409" height="512" viewBox="0 0 510.409 510.409" width="512" xmlns="http://www.w3.org/2000/svg"><path d="m491.421 456.138h-485.156v-369.105c0-4.007 3.248-7.255 7.255-7.255h470.645c4.007 0 7.255 3.248 7.255 7.255v369.105z" fill="#fddeb0"/><path d="m486.11 489.64h-474.534c-2.933 0-5.311-2.378-5.311-5.311v-106.746h485.156v106.747c0 2.933-2.378 5.31-5.311 5.31z" fill="#e9b665"/><path d="m115.676 19.644c-21.572 0-39.062 17.482-39.072 39.054l-.01 21.111c0 6.632 2.714 12.976 7.51 17.556 5.193 4.959 8.131 11.826 8.131 19.007v29.859c0 1.919-.481 3.807-1.398 5.492l-25.814 47.415c-13.3 24.429-20.268 51.8-20.268 79.615 0 30 8.106 59.443 23.46 85.217l7.821 13.129h79.281l7.821-13.129c15.354-25.773 23.46-55.216 23.46-85.217 0-27.815-6.968-55.186-20.268-79.615l-25.814-47.415c-.917-1.685-1.398-3.573-1.398-5.492v-29.859c0-7.18 2.938-14.048 8.131-19.007 4.796-4.58 7.51-10.924 7.51-17.556l-.01-21.111c-.011-21.572-17.502-39.054-39.073-39.054z" fill="#ebebeb"/><path d="m74.822 278.752c0-27.815 6.968-55.187 20.268-79.615l25.814-47.415c.917-1.685 1.398-3.573 1.398-5.492v-29.859c0-7.18-2.938-14.048-8.131-19.006-4.796-4.581-7.51-10.924-7.51-17.556l.01-21.111c.008-16.244 9.928-30.165 24.038-36.053-4.628-1.931-9.706-3.001-15.034-3.001-21.572 0-39.062 17.482-39.072 39.054l-.01 21.111c0 6.632 2.714 12.976 7.51 17.556 5.193 4.958 8.13 11.826 8.13 19.006v29.859c0 1.918-.48 3.807-1.398 5.492l-25.814 47.415c-13.3 24.429-20.268 51.8-20.268 79.615 0 30 8.106 59.443 23.46 85.216l7.821 13.129h30.068l-7.821-13.129c-15.354-25.773-23.459-55.216-23.459-85.216z" fill="#e2e2e2"/><path d="m92.234 116.372v28.805h46.882v-28.805c0-1.354.105-2.698.31-4.02h-47.501c.204 1.322.309 2.665.309 4.02z" fill="#fe646f"/><path d="m91.925 112.353c.092.591.156 1.188.207 1.786.012.143.023.285.033.428.041.599.07 1.2.07 1.805v28.805h30.068v-28.805c0-1.354-.105-2.698-.31-4.02z" fill="#fb2b3a"/><path d="m145.743 161.326-5.229-9.604c-.917-1.685-1.398-3.573-1.398-5.492v-7.589h-46.882v7.589c0 1.918-.48 3.807-1.398 5.492l-5.229 9.604z" fill="#fb2b3a"/><path d="m122.302 146.23v-7.589h-30.068v7.589c0 1.918-.48 3.807-1.398 5.492l-5.229 9.604h30.068l5.229-9.604c.917-1.685 1.398-3.573 1.398-5.492z" fill="#c41926"/><path d="m257.159 19.644c-21.572 0-39.062 17.482-39.072 39.054l-.01 21.111c0 6.632 2.714 12.976 7.51 17.556 5.193 4.959 8.131 11.826 8.131 19.007v29.859c0 1.919-.481 3.807-1.398 5.492l-25.814 47.415c-13.3 24.429-20.268 51.8-20.268 79.615 0 30 8.106 59.443 23.46 85.217l7.821 13.129h79.281l7.821-13.129c15.354-25.773 23.46-55.216 23.46-85.217 0-27.815-6.968-55.186-20.268-79.615l-25.814-47.415c-.917-1.685-1.398-3.573-1.398-5.492v-29.859c0-7.18 2.938-14.048 8.131-19.007 4.796-4.58 7.51-10.924 7.51-17.556l-.01-21.111c-.011-21.572-17.501-39.054-39.073-39.054z" fill="#ebebeb"/><path d="m216.305 278.752c0-27.815 6.968-55.187 20.268-79.615l25.814-47.415c.917-1.685 1.398-3.573 1.398-5.492v-29.859c0-7.18-2.938-14.048-8.13-19.006-4.797-4.581-7.51-10.924-7.51-17.556l.01-21.111c.007-16.244 9.928-30.165 24.038-36.053-4.628-1.931-9.705-3.001-15.034-3.001-21.572 0-39.062 17.482-39.072 39.054l-.01 21.111c0 6.632 2.713 12.976 7.51 17.556 5.193 4.958 8.131 11.826 8.131 19.006v29.859c0 1.918-.481 3.807-1.398 5.492l-25.814 47.415c-13.3 24.429-20.268 51.8-20.268 79.615 0 30 8.105 59.443 23.46 85.216l7.821 13.129h30.067l-7.821-13.129c-15.355-25.773-23.46-55.216-23.46-85.216z" fill="#e2e2e2"/><path d="m233.718 116.372v28.805h46.882v-28.805c0-1.354.105-2.698.31-4.02h-47.502c.205 1.322.31 2.665.31 4.02z" fill="#fe646f"/><path d="m233.616 114.144c.012.139.022.278.032.417.042.601.07 1.204.07 1.811v28.805h30.067v-28.805c0-1.354-.105-2.698-.31-4.02h-30.067c.092.593.156 1.191.208 1.792z" fill="#fb2b3a"/><path d="m287.226 161.326-5.229-9.604c-.917-1.685-1.398-3.573-1.398-5.492v-7.589h-46.882v7.589c0 1.918-.48 3.807-1.398 5.492l-5.229 9.604z" fill="#fb2b3a"/><path d="m263.785 146.23v-7.589h-30.067v7.589c0 1.918-.481 3.807-1.398 5.492l-5.229 9.604h30.068l5.229-9.604c.917-1.685 1.397-3.573 1.397-5.492z" fill="#c41926"/><path d="m398.642 19.644c-21.572 0-39.062 17.482-39.072 39.054l-.01 21.111c0 6.632 2.714 12.976 7.51 17.556 5.193 4.959 8.131 11.826 8.131 19.007v29.859c0 1.919-.481 3.807-1.398 5.492l-25.814 47.415c-13.3 24.429-20.268 51.8-20.268 79.615 0 30 8.106 59.443 23.46 85.217l7.821 13.129h79.281l7.821-13.129c15.354-25.773 23.46-55.216 23.46-85.217 0-27.815-6.968-55.186-20.268-79.615l-25.814-47.415c-.917-1.685-1.398-3.573-1.398-5.492v-29.859c0-7.18 2.938-14.048 8.131-19.007 4.796-4.58 7.51-10.924 7.51-17.556l-.01-21.111c-.011-21.572-17.501-39.054-39.073-39.054z" fill="#ebebeb"/><path d="m357.788 278.752c0-27.815 6.968-55.187 20.268-79.615l25.814-47.415c.917-1.685 1.398-3.573 1.398-5.492v-29.859c0-7.18-2.938-14.048-8.131-19.006-4.796-4.581-7.51-10.924-7.51-17.556l.01-21.111c.008-16.244 9.928-30.165 24.038-36.053-4.628-1.931-9.706-3.001-15.034-3.001-21.572 0-39.062 17.482-39.072 39.054l-.01 21.111c0 6.632 2.713 12.976 7.51 17.556 5.193 4.958 8.13 11.826 8.13 19.006v29.859c0 1.918-.48 3.807-1.398 5.492l-25.814 47.415c-13.3 24.429-20.268 51.8-20.268 79.615 0 30 8.106 59.443 23.46 85.216l7.821 13.129h30.068l-7.821-13.129c-15.353-25.773-23.459-55.216-23.459-85.216z" fill="#e2e2e2"/><path d="m375.201 116.372v28.805h46.882v-28.805c0-1.354.105-2.698.31-4.02h-47.502c.205 1.322.31 2.665.31 4.02z" fill="#fe646f"/><path d="m374.891 112.354c.091.591.156 1.187.207 1.785.012.143.023.285.033.428.041.599.07 1.2.07 1.805v28.805h30.068v-28.805c0-1.354-.105-2.698-.31-4.02h-30.067c-.001.001-.001.002-.001.002z" fill="#fb2b3a"/><path d="m428.709 161.326-5.229-9.604c-.917-1.685-1.398-3.573-1.398-5.492v-7.589h-46.882v7.589c0 1.918-.48 3.807-1.398 5.492l-5.229 9.604z" fill="#fb2b3a"/><path d="m405.268 146.23v-7.589h-30.068v7.589c0 1.918-.48 3.807-1.398 5.492l-5.229 9.604h30.068l5.229-9.604c.918-1.685 1.398-3.573 1.398-5.492z" fill="#c41926"/><circle cx="360.209" cy="348.065" fill="#838383" r="142.7"/><path d="m437.606 458.167c-78.811 0-142.7-63.889-142.7-142.7 0-43.932 19.858-83.221 51.082-109.397-72.134 7.138-128.479 67.985-128.479 141.996 0 78.812 63.889 142.701 142.7 142.701 34.879 0 66.83-12.521 91.619-33.303-4.679.462-9.422.703-14.222.703z" fill="#766e6e"/><g fill="#5a5a5a"><circle cx="280.433" cy="405.422" r="13.014"/><circle cx="319.499" cy="443.124" r="13.014"/><circle cx="327.993" cy="393.502" r="13.014"/></g><path d="m510.409 348.065c0-36.838-13.339-70.614-35.429-96.772-3.13-19.601-9.501-38.345-18.974-55.742l-25.813-47.415c-.317-.583-.485-1.241-.485-1.905v-29.858c0-5.106 2.118-10.057 5.811-13.583 4.417-4.218 7.493-9.643 8.922-15.512h58.47c4.143 0 7.5-3.357 7.5-7.5s-3.357-7.5-7.5-7.5h-57.565l-.006-13.581c-.012-25.669-20.904-46.552-46.572-46.552s-46.561 20.883-46.572 46.551l-.006 13.582h-48.388l-.006-13.581c-.012-25.669-20.904-46.552-46.572-46.552s-46.561 20.883-46.572 46.551l-.006 13.582h-48.388l-.006-13.581c-.012-25.669-20.904-46.552-46.572-46.552s-46.565 20.882-46.576 46.55l-.006 13.582h-61.598c-4.143 0-7.5 3.357-7.5 7.5s3.357 7.5 7.5 7.5h62.501c1.429 5.869 4.505 11.293 8.922 15.512 3.692 3.526 5.811 8.477 5.811 13.583v29.858c0 .664-.168 1.322-.485 1.906l-25.813 47.414c-13.857 25.453-21.182 54.224-21.182 83.201 0 12.682 1.419 25.458 4.218 37.975.905 4.043 4.919 6.589 8.956 5.683 4.042-.904 6.586-4.914 5.683-8.956-2.559-11.443-3.856-23.118-3.856-34.701 0-26.479 6.693-52.77 19.355-76.029l18.471-33.926c.196.015.391.03.591.03h48.745c.605 0 1.191-.08 1.754-.215l18.572 34.111c11.607 21.319 18.18 45.189 19.198 69.416-.085 2.203-.142 4.407-.142 6.614 0 2.231.055 4.458.14 6.683-1.109 26.316-8.732 52.011-22.246 74.696l-5.64 9.467h-70.756l-5.64-9.468c-3.403-5.713-6.506-11.778-9.222-18.028-1.65-3.8-6.07-5.542-9.867-3.891-3.8 1.65-5.541 6.068-3.891 9.867 2.969 6.833 6.364 13.471 10.093 19.729l1.355 2.275h-55.625c-4.143 0-7.5 3.357-7.5 7.5s3.357 7.5 7.5 7.5h207.129c11.003 43.249 40.818 79.064 80.186 98.183h-144.591c-4.143 0-7.5 3.357-7.5 7.5s3.357 7.5 7.5 7.5h341.197c4.143 0 7.5-3.357 7.5-7.5s-3.357-7.5-7.5-7.5h-65.818c50.15-24.356 84.806-75.807 84.806-135.201zm-67.577-145.343c5.046 9.269 9.132 18.956 12.229 28.973-25.881-21.135-58.91-33.831-94.852-33.831-.963 0-1.923.016-2.884.034l15.845-29.103c.196.015.392.03.592.03h48.745c.605 0 1.19-.08 1.754-.215zm-124.218.988c-1.323-2.77-2.706-5.502-4.153-8.16l-25.813-47.412c-.317-.584-.485-1.244-.485-1.908v-29.858c0-5.106 2.118-10.057 5.811-13.583 4.417-4.218 7.493-9.643 8.922-15.512h50.197c1.428 5.869 4.506 11.294 8.923 15.512 3.692 3.526 5.81 8.478 5.81 13.583v29.858c0 .664-.168 1.324-.484 1.906l-25.814 47.414c-.64 1.174-1.291 2.416-1.961 3.733-7.109.98-14.109 2.459-20.953 4.427zm-45.452-83.858v10.037h-31.883v-10.037zm-31.883 26.378v-1.341h31.883v1.341c0 2.612.553 5.205 1.596 7.596h-35.074c1.042-2.39 1.595-4.984 1.595-7.596zm173.428-26.378v10.037h-31.883v-10.037zm-31.883 26.378v-1.341h31.883v1.341c0 2.613.554 5.207 1.596 7.596h-35.075c1.043-2.39 1.596-4.984 1.596-7.596zm-15.631-87.528c.008-17.4 14.171-31.558 31.572-31.558s31.564 14.157 31.572 31.559l.01 21.106c0 4.561-1.892 8.982-5.189 12.132-3.783 3.612-6.643 8.058-8.408 12.911h-35.969c-1.764-4.854-4.624-9.299-8.407-12.912-3.299-3.149-5.19-7.57-5.19-12.127zm-141.545 0c.008-17.4 14.171-31.558 31.572-31.558s31.564 14.157 31.572 31.559l.01 21.106c0 4.561-1.892 8.982-5.189 12.132-3.783 3.612-6.643 8.058-8.408 12.911h-35.969c-1.765-4.854-4.625-9.299-8.408-12.911-3.298-3.149-5.189-7.571-5.189-12.128zm-141.554 21.111.01-21.111c.008-17.4 14.171-31.558 31.572-31.558s31.564 14.157 31.572 31.559l.01 21.106c0 4.561-1.892 8.981-5.19 12.132-3.783 3.613-6.643 8.058-8.407 12.911h-35.97c-1.765-4.854-4.625-9.299-8.408-12.911-3.298-3.149-5.189-7.571-5.189-12.128zm47.523 40.039v10.037h-31.883v-10.037zm-31.883 26.378v-1.341h31.883v1.341c0 2.612.553 5.205 1.596 7.596h-35.075c1.042-2.39 1.596-4.983 1.596-7.596zm73.182 49.32-25.813-47.412c-.317-.584-.485-1.244-.485-1.908v-29.858c0-5.105 2.117-10.057 5.81-13.582 4.417-4.218 7.494-9.643 8.923-15.513h50.197c1.429 5.869 4.505 11.293 8.922 15.512 3.692 3.526 5.811 8.477 5.811 13.583v29.858c0 .664-.168 1.324-.484 1.906l-25.817 47.414c-5.603 10.292-10.118 21.131-13.532 32.302-3.414-11.17-7.929-22.01-13.532-32.302zm-3.336 172.257c7.161-12.02 12.803-24.815 16.868-38.083 4.065 13.268 9.708 26.063 16.868 38.082l1.356 2.276h-36.448zm190.629 115.458c-74.55 0-135.2-60.65-135.2-135.2 0-28.016 8.496-54.894 24.569-77.727 2.385-3.388 1.571-8.065-1.815-10.45-3.387-2.384-8.067-1.569-10.45 1.815-17.862 25.375-27.304 55.237-27.304 86.361 0 .198.007.395.008.592-9.651-19.716-15.134-41.249-16.06-63.223.086-2.225.14-4.452.14-6.683 0-2.207-.057-4.411-.142-6.614 1.018-24.226 7.592-48.094 19.199-69.416l18.471-33.926c.196.015.392.03.592.03h48.744c.605 0 1.191-.08 1.754-.215l18.572 34.111c1.05 1.929 2.063 3.902 3.044 5.899-16.91 6.779-32.589 16.647-46.243 29.314-3.037 2.816-3.215 7.563-.397 10.599 2.816 3.036 7.563 3.217 10.599.397 25.071-23.258 57.716-36.066 91.92-36.066 74.55 0 135.2 60.65 135.2 135.2s-60.651 135.202-135.201 135.202z"/><path d="m120.224 483.265h-18.394c-4.143 0-7.5 3.357-7.5 7.5s3.357 7.5 7.5 7.5h18.394c4.143 0 7.5-3.357 7.5-7.5s-3.358-7.5-7.5-7.5z"/><path d="m280.433 384.908c-11.312 0-20.514 9.203-20.514 20.515s9.202 20.514 20.514 20.514 20.515-9.202 20.515-20.514-9.204-20.515-20.515-20.515zm0 26.028c-3.04 0-5.514-2.474-5.514-5.514 0-3.041 2.474-5.515 5.514-5.515 3.041 0 5.515 2.474 5.515 5.515-.001 3.04-2.474 5.514-5.515 5.514z"/><path d="m319.499 422.61c-11.312 0-20.515 9.203-20.515 20.515s9.203 20.514 20.515 20.514 20.514-9.202 20.514-20.514-9.202-20.515-20.514-20.515zm0 26.028c-3.041 0-5.515-2.474-5.515-5.514 0-3.041 2.474-5.515 5.515-5.515 3.04 0 5.514 2.474 5.514 5.515s-2.474 5.514-5.514 5.514z"/><path d="m327.993 372.988c-11.312 0-20.514 9.202-20.514 20.514s9.202 20.515 20.514 20.515 20.515-9.203 20.515-20.515-9.203-20.514-20.515-20.514zm0 26.028c-3.04 0-5.514-2.474-5.514-5.515 0-3.04 2.474-5.514 5.514-5.514 3.041 0 5.515 2.474 5.515 5.514 0 3.041-2.474 5.515-5.515 5.515z"/></svg>