<svg id="Capa_1" enable-background="new 0 0 511.141 511.141" height="512" viewBox="0 0 511.141 511.141" width="512" xmlns="http://www.w3.org/2000/svg"><path d="m203.35 72.862-41.18-39.23c-10.29-10.29-26.97-10.29-37.26 0-5.15 5.15-7.72 11.89-7.72 18.63s2.57 13.48 7.72 18.63l39.68 37.75 4.996 4.01 38.005-34.954z" fill="#fed2a4"/><path d="m206.913 76.923-3.563-4.062-11.87-11.308c-2.807 1.76-5.543 3.621-8.204 5.578-8.648 6.361-20.573 5.729-28.351-1.67l-12.599-11.986c-5.15-5.15-7.72-11.89-7.72-18.63 0-2.619.393-5.236 1.17-7.761-3.975 1.222-7.719 3.401-10.865 6.547-5.15 5.15-7.72 11.89-7.72 18.63s2.57 13.48 7.72 18.63l39.68 37.75 4.996 4.01 38.005-34.954z" fill="#ffbd86"/><path d="m247.009 27.853h31.258v54.414h-31.258z" fill="#9c9c9c"/><path d="m152.54 238.234v65.238 13.46c0 24.85 16.21 45.91 38.64 53.18l-.26.79v130.141c0 1.435 1.164 2.599 2.599 2.599h147.392c1.435 0 2.599-1.164 2.599-2.599v-131.611-131.198z" fill="#fed2a4"/><path d="m226.965 501.042.207-104.167c.028-13.958-6.167-27.318-17.152-35.93-13.051-10.231-21.435-26.142-21.435-44.013v-13.46-65.238h-36.045v65.238 13.46c0 24.753 16.086 45.742 38.38 53.09v131.021c0 1.436 1.164 2.599 2.599 2.599h36.045c-1.435 0-2.599-1.164-2.599-2.6z" fill="#ffbd86"/><path d="m343.51 324.674v-86.44h-75.61c-1.199 6.05-1.831 12.22-1.831 18.418v53.417c0 8.066 6.539 14.605 14.605 14.605z" fill="#ffbd86"/><circle cx="262.638" cy="175.297" fill="#6bd9e7" r="118.99"/><path d="m381.629 175.297c0-41.071-20.808-77.282-52.458-98.666-1.199 2.613-2.208 5.34-2.995 8.171-1.345 4.805-2.026 9.804-2.026 14.859v69.21c-14.9 6.36-28.116 16.483-38.088 29.346-12.893 16.64-19.992 37.392-19.992 58.435v37.583c64.129-1.817 115.559-54.369 115.559-118.938z" fill="#01d0fb"/><circle cx="262.638" cy="175.297" fill="#fee903" r="90.364"/><path d="m353.002 175.297c0-26.143-11.106-49.688-28.852-66.188v59.763c-14.9 6.36-28.116 16.483-38.088 29.346-12.893 16.64-19.992 37.392-19.992 58.435v8.938c48.315-1.806 86.932-41.537 86.932-90.294z" fill="#fed402"/><path d="m284.075 191.612h-51.589c-1.919 0-3.476 1.556-3.476 3.476v28.506c0 1.919 1.556 3.476 3.476 3.476h28.447 34.955c1.919 0 3.476-1.556 3.476-3.476v-28.506c0-1.919-1.556-3.476-3.476-3.476z" fill="#00f2a6"/><path d="m295.888 227.069c1.919 0 3.476-1.556 3.476-3.476v-28.506c0-1.919-1.556-3.476-3.476-3.476h-4.189c-1.975 2.113-3.859 4.313-5.636 6.606-6.723 8.677-11.854 18.479-15.241 28.851h25.066z" fill="#05e39c"/><g fill="#fed2a4"><path d="m203.25 180.672v1.3c0 13.13-10.65 23.78-23.78 23.78h-35.53c-13.13 0-23.78-10.65-23.78-23.78v-1.3c0-13.14 10.65-23.78 23.78-23.78h1.4 34.13c13.13 0 23.78 10.64 23.78 23.78z"/><path d="m203.25 229.532v1.3c0 13.13-10.65 23.78-23.78 23.78h-35.53c-13.13 0-23.78-10.65-23.78-23.78v-1.3c0-13.13 10.65-23.78 23.78-23.78h35.53c13.13 0 23.78 10.65 23.78 23.78z"/><path d="m203.24 278.062c.01.11.01.22.01.33v1.3c0 13.14-10.65 23.78-23.78 23.78h-26.93-8.6c-13.13 0-23.78-10.64-23.78-23.78v-1.3c0-13.13 10.65-23.78 23.78-23.78h35.53c13.02 0 23.6 10.47 23.77 23.45z"/></g><path d="m179.47 184.91h-35.53c-9.647 0-17.949-5.753-21.678-14.011-1.346 2.981-2.102 6.288-2.102 9.773v1.3c0 13.13 10.65 23.78 23.78 23.78h35.53c13.13 0 23.78-10.65 23.78-23.78v-1.3c0-3.485-.756-6.792-2.102-9.773-3.728 8.258-12.03 14.011-21.678 14.011z" fill="#ffbd86"/><path d="m179.47 233.771h-35.53c-9.646 0-17.948-5.752-21.677-14.009-1.347 2.981-2.103 6.287-2.103 9.771v1.3c0 13.13 10.65 23.78 23.78 23.78h35.53c13.13 0 23.78-10.65 23.78-23.78v-1.3c0-3.483-.756-6.789-2.103-9.771-3.729 8.257-12.03 14.009-21.677 14.009z" fill="#ffbd86"/><path d="m201.148 268.625c-3.729 8.259-12.031 14.005-21.678 14.005h-26.93-8.6c-9.647 0-17.949-5.748-21.678-14.007-1.346 2.981-2.102 6.286-2.102 9.769v1.3c0 13.14 10.65 23.78 23.78 23.78h8.6 26.93c13.13 0 23.78-10.64 23.78-23.78v-1.3c0-.11 0-.22-.01-.33-.044-3.361-.791-6.551-2.092-9.437z" fill="#ffbd86"/><path d="m343.51 89.652c4.37-15.73 18.8-27.28 35.92-27.28h1.21c7.35 0 13.31 5.96 13.31 13.32v220.18c0 33.88-21.88 62.64-52.28 72.92-7.75 2.63-16.05 4.05-24.69 4.05h-32.91v-65-16.1-35.09c0-17.65 5.97-34.18 16.22-47.41 10.25-13.22 24.77-23.13 41.86-27.54v-82.04c0-3.47.47-6.83 1.36-10.01z" fill="#fed2a4"/><path d="m350.734 173.577c6.604-2.815 10.968-9.205 10.968-16.385v-69.385c0-3.47.47-6.83 1.36-10.01 1.499-5.396 4.183-10.301 7.752-14.416-13.2 3.126-23.691 13.266-27.304 26.271-.89 3.18-1.36 6.54-1.36 10.01v78.218c2.752-1.598 5.616-3.039 8.584-4.303z" fill="#ffbd86"/><path d="m280.045 33.264h-34.813c-3.804 0-6.887-3.084-6.887-6.887v-11.989c0-3.804 3.084-6.887 6.887-6.887h34.813c3.804 0 6.887 3.084 6.887 6.887v11.988c0 3.804-3.083 6.888-6.887 6.888z" fill="#838383"/><path d="m218.931 156.89v-20.808c0-5.282 4.282-9.563 9.563-9.563h67.773c5.282 0 9.563 4.282 9.563 9.563v20.808c0 5.282-4.282 9.563-9.563 9.563h-67.773c-5.281 0-9.563-4.282-9.563-9.563z" fill="#00f2a6"/><path d="m394.251 293.43c-4.139-.271-7.701 2.867-7.969 7-2.354 36.401-32.796 64.915-69.303 64.915-4.143 0-7.5 3.357-7.5 7.5s3.357 7.5 7.5 7.5c6.535 0 12.903-.77 19.032-2.193v125.489c0 4.143 3.357 7.5 7.5 7.5s7.5-3.357 7.5-7.5v-130.502c27.958-12.381 48.155-39.51 50.239-71.74.269-4.134-2.866-7.702-6.999-7.969z"/><path d="m380.637 54.876h-1.203c-16.536 0-30.996 9.016-38.753 22.383-16.061-12.867-34.861-21.506-54.914-25.311v-12.378c5.093-2.218 8.665-7.294 8.665-13.194v-11.988c0-7.934-6.454-14.388-14.388-14.388h-34.813c-7.934 0-14.388 6.454-14.388 14.388v11.988c0 5.9 3.572 10.976 8.665 13.194v12.22c-12.177 2.229-23.945 6.244-34.925 11.895l-37.173-35.424c-6.386-6.351-14.857-9.847-23.867-9.847-9.042 0-17.542 3.521-23.937 9.914-6.393 6.394-9.914 14.894-9.914 23.936s3.521 17.542 9.914 23.936c.045.044.09.088.135.131l35.176 33.458c-7.529 12.271-12.933 25.796-15.89 39.99-14.921 2.365-26.366 15.315-26.366 30.891v1.301c0 9.511 4.272 18.039 10.993 23.78-6.72 5.742-10.993 14.269-10.993 23.78v1.301c0 9.511 4.272 18.039 10.993 23.78-6.72 5.742-10.993 14.269-10.993 23.78v1.301c0 17.248 14.032 31.28 31.28 31.28h1.101v5.954c0 26.08 15.829 48.525 38.38 58.255v34.579c0 4.143 3.357 7.5 7.5 7.5s7.5-3.357 7.5-7.5v-30.219c3.271.522 6.622.802 10.037.802h13.38c4.143 0 7.5-3.357 7.5-7.5s-3.357-7.5-7.5-7.5h-13.38c-26.697 0-48.417-21.72-48.417-48.417v-5.954h19.426c13.804 0 25.539-8.991 29.679-21.421 16.529 7.688 34.647 11.728 53.007 11.728 4.81 0 9.634-.279 14.422-.828v7.386c0 4.143 3.357 7.5 7.5 7.5s7.5-3.357 7.5-7.5v-51.187c0-31.891 21.567-59.724 52.447-67.685 3.313-.854 5.628-3.842 5.628-7.263v-49.751c0-.02 0-.039 0-.058v-32.235c0-16.423 13.36-29.783 29.783-29.783h1.203c3.204 0 5.812 2.607 5.812 5.813v195.226c0 4.143 3.357 7.5 7.5 7.5s7.5-3.357 7.5-7.5v-195.227c0-11.475-9.336-20.812-20.812-20.812zm-134.793-39.876h33.588v10.764h-1.165-31.258-1.165zm8.665 34.731v-8.968h16.258v8.968zm-124.357 15.8c-3.521-3.553-5.46-8.262-5.46-13.268 0-5.035 1.961-9.769 5.521-13.328 3.561-3.562 8.294-5.521 13.329-5.521s9.769 1.96 13.328 5.521c.043.043.086.085.13.127l34.2 32.59c-3.848 2.63-7.562 5.482-11.121 8.55-6.054 5.219-11.556 10.974-16.463 17.16zm-2.491 116.44v-1.301c0-8.977 7.304-16.28 16.28-16.28h29.016c.012 0 .025.002.038.002.015 0 .03-.002.045-.002h6.428c8.977 0 16.28 7.304 16.28 16.28v1.301c0 8.977-7.304 16.28-16.28 16.28h-35.526c-8.978 0-16.281-7.304-16.281-16.28zm0 48.861v-1.301c0-8.977 7.304-16.28 16.28-16.28h35.526c8.977 0 16.28 7.304 16.28 16.28v1.301c0 2.304-.487 4.493-1.354 6.481-.673.794-1.153 1.689-1.443 2.631-2.93 4.322-7.881 7.167-13.483 7.167h-35.526c-8.977.001-16.28-7.302-16.28-16.279zm51.806 65.142h-35.526c-8.977 0-16.28-7.304-16.28-16.28v-1.301c0-8.977 7.304-16.28 16.28-16.28h35.526c8.832 0 16.028 7.074 16.259 15.851-.002.226.004.452.022.676v1.055c0 8.975-7.304 16.279-16.281 16.279zm82.687-9.694c-18.093 0-35.92-4.44-51.807-12.866-1.202-7.483-5.069-14.083-10.592-18.802.568-.485 1.12-.987 1.652-1.511 17.3 13.574 38.565 20.979 60.747 20.979 4.832 0 9.655-.36 14.422-1.061v12.317c-4.781.623-9.609.944-14.422.944zm14.422-29.629v1.176c-4.75.827-9.58 1.253-14.422 1.253-19.385 0-37.941-6.677-52.843-18.873.932-2.961 1.437-6.11 1.437-9.375v-1.301c0-9.511-4.272-18.039-10.993-23.78 6.72-5.742 10.993-14.269 10.993-23.78v-1.301c0-16.156-12.312-29.489-28.046-31.113 3.045-9.286 7.737-18.07 13.818-25.775 2.565-3.252 2.01-7.968-1.241-10.534-3.25-2.565-7.967-2.01-10.534 1.241-8.145 10.32-14.179 22.284-17.653 34.901h-12.592c5.415-22.354 17.76-42.644 35.374-57.827 20.072-17.302 45.742-26.831 72.28-26.831 27.092 0 52.88 9.759 73.113 27.563-.398 2.397-.616 4.856-.616 7.365v9.06c-18.433-20.002-44.588-31.788-72.497-31.788-18.949 0-37.365 5.405-53.258 15.63-3.483 2.241-4.491 6.882-2.25 10.365 2.242 3.484 6.884 4.49 10.365 2.25 13.468-8.665 29.078-13.245 45.143-13.245 29.987 0 57.589 16.046 72.497 41.992v42.176c-34.476 11.459-58.075 43.784-58.075 80.551z"/><path d="m190.921 432.262c-4.143 0-7.5 3.357-7.5 7.5v63.879c0 4.143 3.357 7.5 7.5 7.5s7.5-3.357 7.5-7.5v-63.879c0-4.143-3.357-7.5-7.5-7.5z"/><path d="m298.816 119.019h-69.961c-9.607 0-17.424 7.815-17.424 17.423v20.448c0 4.143 3.357 7.5 7.5 7.5s7.5-3.357 7.5-7.5v-20.448c0-1.336 1.087-2.423 2.424-2.423h69.476v32.435c0 4.143 3.357 7.5 7.5 7.5s7.5-3.357 7.5-7.5v-32.921c0-8.004-6.512-14.514-14.515-14.514z"/><path d="m284.075 184.112h-55.065c-4.143 0-7.5 3.357-7.5 7.5s3.357 7.5 7.5 7.5h55.064c4.143 0 7.5-3.357 7.5-7.5s-3.357-7.5-7.499-7.5z"/><path d="m260.933 219.568h-31.923c-4.143 0-7.5 3.357-7.5 7.5s3.357 7.5 7.5 7.5h31.923c4.143 0 7.5-3.357 7.5-7.5s-3.357-7.5-7.5-7.5z"/></svg>