<svg id="Capa_1" enable-background="new 0 0 511.792 511.792" height="512" viewBox="0 0 511.792 511.792" width="512" xmlns="http://www.w3.org/2000/svg"><path d="m60.643 275.933-18.755 21.873c-.93 1.68-1.42 3.57-1.42 5.5v34.88c0 10.38 6.065 19.326 14.836 23.537.883.424 1.434 1.326 1.434 2.305v88.029h135.3v-89.78-.01-86.333h-131.395z" fill="#fed2a4"/><path d="m144.895 361.897s-54.572-.128-54.668-.174c-8.771-4.211-14.836-13.157-14.836-23.537v-34.88c0-1.93.49-3.82 1.42-5.5l18.755-21.873h-34.923l-18.755 21.873c-.93 1.68-1.42 3.57-1.42 5.5v34.88c0 10.38 6.065 19.326 14.836 23.537.883.424 1.434 1.326 1.434 2.305v88.029h34.922v-46.333c0-13.502 10.946-24.448 24.448-24.448h29.118c5.565 0 10.034-4.691 9.668-10.334-.332-5.15-4.838-9.045-9.999-9.045z" fill="#ffbd86"/><path d="m497.059 275.933h-485.188c-2.967 0-5.373-2.406-5.373-5.373v-32.891c0-2.967 2.406-5.373 5.373-5.373h485.188c3.995 0 7.234 3.239 7.234 7.234v29.169c0 3.995-3.239 7.234-7.234 7.234z" fill="#acacac"/><path d="m497.059 255.404h-485.188c-2.967 0-5.373-2.406-5.373-5.373v20.529c0 2.967 2.406 5.373 5.373 5.373h485.188c3.995 0 7.234-3.239 7.234-7.234v-20.529c0 3.995-3.239 7.234-7.234 7.234z" fill="#9e9797"/><path d="m333.37 413.913h-24.29c-6.852 0-12.407-5.555-12.407-12.407v-294.355c0-6.852 5.555-12.407 12.407-12.407h24.29c6.852 0 12.407 5.555 12.407 12.407v294.356c0 6.851-5.555 12.406-12.407 12.406z" fill="#838383"/><path d="m382.473 391.039h-24.29c-6.852 0-12.407-5.555-12.407-12.407v-248.607c0-6.852 5.555-12.407 12.407-12.407h24.29c6.852 0 12.407 5.555 12.407 12.407v248.608c-.001 6.852-5.555 12.406-12.407 12.406z" fill="#838383"/><path d="m431.576 361.897h-24.29c-6.852 0-12.407-5.555-12.407-12.407v-190.323c0-6.852 5.555-12.407 12.407-12.407h24.29c6.852 0 12.407 5.555 12.407 12.407v190.324c-.001 6.852-5.555 12.406-12.407 12.406z" fill="#838383"/><path d="m345.777 391.881c-13.559 0-24.551-10.992-24.551-24.551v-272.586h-12.146c-6.852 0-12.407 5.555-12.407 12.407v294.356c0 6.852 5.555 12.407 12.407 12.407h24.29c6.852 0 12.407-5.555 12.407-12.407z" fill="#766e6e"/><path d="m382.735 369.007c-6.852 0-12.407-5.555-12.407-12.407v-238.982h-12.145c-6.852 0-12.407 5.555-12.407 12.407v248.608c0 6.852 5.555 12.407 12.407 12.407h24.29c6.852 0 12.407-5.555 12.407-12.407v-9.626z" fill="#766e6e"/><path d="m431.838 339.865c-6.852 0-12.407-5.555-12.407-12.407v-180.698h-12.145c-6.852 0-12.407 5.555-12.407 12.407v190.324c0 6.852 5.555 12.407 12.407 12.407h24.29c6.852 0 12.407-5.555 12.407-12.407v-9.626z" fill="#766e6e"/><path d="m465.887 300.306h-28.904v-92.38h28.904c5.716 0 10.35 4.634 10.35 10.35v71.681c-.001 5.716-4.634 10.349-10.35 10.349z" fill="#838383"/><path d="m457.317 259.567v-51.641h-13.335v92.38h21.904c5.716 0 10.35-4.634 10.35-10.35v-11.47c-10.448 0-18.919-8.47-18.919-18.919z" fill="#766e6e"/><path d="m215.138 210.216h-33.86v-28.43c0-15.45 12.52-27.96 27.96-27.96s27.96 12.51 27.96 27.96v28.43h-5.66z" fill="#ffbd86"/><path d="m219.132 155.633c-3.077-1.164-6.41-1.806-9.894-1.806-15.44 0-27.96 12.51-27.96 27.96v28.43h19.788v-28.43c0-11.964 7.51-22.16 18.066-26.154z" fill="#f6a96c"/><path d="m215.138 227.172c-4.142 0-7.5-3.358-7.5-7.5v-32.566c0-4.142 3.358-7.5 7.5-7.5s7.5 3.358 7.5 7.5v32.566c0 4.142-3.358 7.5-7.5 7.5z" fill="#f6a96c"/><path d="m179.518 239.656c-7.81-3.28-13.29-11-13.29-20v-11.68c0-2.78 1.98-5.11 4.59-5.64.37-.08.76-.12 1.16-.12h9.3 33.86 16.4c12.39 0 22.44 10.05 22.44 22.45v59.74c0 37.95-26.46 69.72-61.94 77.86-5.77 1.33-11.77 2.03-17.94 2.03h-7.87v-50.59-15.2c0-15.64 12.68-28.32 28.32-28.32h17.58c2.56 0 4.62-2.07 4.62-4.62v-19.61c0-2.56-2.06-4.62-4.62-4.62h-24.22c-2.98 0-5.81-.6-8.39-1.68z" fill="#fed2a4"/><path d="m261.395 74.369-29.21-36.568c-.884-1.106-2.565-1.106-3.449 0l-29.21 36.568c-1.155 1.445-.125 3.585 1.724 3.585h10.49c1.219 0 2.207.988 2.207 2.207v35.251c0 1.219.988 2.207 2.207 2.207h28.613c1.219 0 2.207-.988 2.207-2.207v-35.251c0-1.219.988-2.207 2.207-2.207h10.49c1.85 0 2.879-2.14 1.724-3.585z" fill="#05e39c"/><path d="m470.69 431.572-29.21-36.568c-.884-1.106-2.565-1.106-3.449 0l-29.21 36.568c-1.155 1.445-.125 3.585 1.724 3.585h10.49c1.219 0 2.207.988 2.207 2.207v35.251c0 1.219.988 2.207 2.207 2.207h28.613c1.219 0 2.207-.988 2.207-2.207v-35.251c0-1.219.988-2.207 2.207-2.207h10.49c1.849 0 2.879-2.139 1.724-3.585z" fill="#05e39c"/><path d="m179.518 260.634v.35c0 10.93-8.86 19.79-19.79 19.79s-19.79-8.86-19.79-19.79v-43.44c0-10.93 8.86-19.79 19.79-19.79 5.46 0 10.41 2.21 13.99 5.8 3.59 3.58 5.8 8.53 5.8 13.99v.35z" fill="#fed2a4"/><path d="m139.938 260.634v.35c0 10.93-8.86 19.79-19.79 19.79s-19.79-8.86-19.79-19.79v-43.44c0-10.93 8.86-19.79 19.79-19.79 5.46 0 10.41 2.21 13.99 5.8 3.59 3.58 5.8 8.53 5.8 13.99v.35z" fill="#fed2a4"/><path d="m100.358 217.544v43.44c0 10.93-8.86 19.79-19.79 19.79-5.46 0-10.41-2.21-13.99-5.8-3.59-3.58-5.8-8.53-5.8-13.99v-28.94-14.5c0-10.93 8.86-19.79 19.79-19.79 5.46 0 10.41 2.21 13.99 5.8 3.59 3.58 5.8 8.53 5.8 13.99z" fill="#fed2a4"/><g fill="#ffbd86"><path d="m86.368 275.226c-3.59-3.58-5.8-8.53-5.8-13.99v-28.94-14.5c0-7.321 3.985-13.697 9.894-17.12-2.914-1.689-6.287-2.669-9.894-2.669-10.93 0-19.79 8.86-19.79 19.79v14.5 28.94c0 5.46 2.21 10.41 5.8 13.99 3.58 3.59 8.53 5.8 13.99 5.8 3.609 0 6.982-.982 9.896-2.669-1.497-.869-2.88-1.913-4.096-3.132z"/><path d="m159.728 261.236v-43.44c0-7.321 3.985-13.697 9.894-17.12-2.914-1.689-6.287-2.669-9.894-2.669-10.93 0-19.79 8.86-19.79 19.79v43.44c0 10.93 8.86 19.79 19.79 19.79 3.609 0 6.982-.982 9.895-2.669-5.909-3.424-9.895-9.801-9.895-17.122z"/><path d="m120.148 261.236v-43.44c0-7.321 3.985-13.697 9.894-17.12-2.914-1.689-6.287-2.669-9.894-2.669-10.93 0-19.79 8.86-19.79 19.79v43.44c0 10.93 8.86 19.79 19.79 19.79 3.609 0 6.982-.982 9.895-2.669-5.909-3.424-9.895-9.801-9.895-17.122z"/><path d="m224.347 258.386h-7.599v7.18c0 2.55-2.06 4.62-4.62 4.62h-17.58c-15.641 0-28.32 12.679-28.32 28.32v15.2 8.198h3.564c8.611 0 15.592-6.981 15.592-15.592 0-10.536 8.541-19.077 19.077-19.077h26.823c2.56 0 4.62-2.07 4.62-4.62v-12.673c0-6.382-5.174-11.556-11.557-11.556z"/></g><path d="m498.393 224.799h-14.656v-6.523c0-9.842-8.007-17.85-17.85-17.85h-14.404v-41.259c0-10.977-8.93-19.907-19.907-19.907h-24.29c-1.696 0-3.334.236-4.907.637v-9.872c0-10.977-8.93-19.907-19.906-19.907h-24.29c-1.696 0-3.334.236-4.906.637v-3.604c0-10.977-8.93-19.906-19.907-19.906h-24.29c-10.977 0-19.907 8.93-19.907 19.906v117.648h-27.692v-.135c0-11.792-6.853-22.01-16.783-26.891v-15.99c0-19.553-15.907-35.46-35.46-35.46s-35.46 15.907-35.46 35.46v12.701c-4.24-2.595-9.067-3.978-14.051-3.978-7.758 0-14.764 3.301-19.737 8.583-4.979-5.278-12.029-8.583-19.841-8.583-7.785 0-14.813 3.282-19.789 8.528-4.976-5.246-12.005-8.528-19.789-8.528-15.047 0-27.289 12.242-27.289 27.289v7.003h-45.782c-4.142 0-7.5 3.358-7.5 7.5s3.358 7.5 7.5 7.5h45.781v21.437c0 2.491.342 4.902.97 7.197h-46.751c-4.142 0-7.5 3.358-7.5 7.5s3.358 7.5 7.5 7.5h33.796l-5.96 10.728c-1.55 2.79-2.37 5.952-2.37 9.144v34.882c0 12.194 6.528 22.89 16.272 28.782v85.083c0 4.142 3.358 7.5 7.5 7.5s7.5-3.358 7.5-7.5v-80.345c.773.053 1.551.09 2.338.09h28.519c4.142 0 7.5-3.358 7.5-7.5s-3.358-7.5-7.5-7.5h-28.518c-10.262 0-18.61-8.349-18.61-18.61v-34.882c0-.649.167-1.292.482-1.859l10.007-18.013h6.269c4.471 3.201 9.94 5.093 15.846 5.093 7.785 0 14.813-3.282 19.789-8.528 4.976 5.246 12.004 8.528 19.789 8.528 7.812 0 14.862-3.305 19.841-8.583 4.973 5.281 11.979 8.582 19.737 8.582.144 0 .286-.009.429-.011-.923 3.173-1.428 6.523-1.428 9.99v15.205c0 4.142 3.358 7.5 7.5 7.5s7.5-3.358 7.5-7.5v-15.205c0-11.479 9.339-20.817 20.817-20.817h17.587c6.683 0 12.121-5.438 12.121-12.121v-19.614c0-6.684-5.438-12.121-12.121-12.121h-24.227c-7.817 0-14.177-6.36-14.177-14.177v-9.938h7.551 50.257c8.241 0 14.946 6.705 14.946 14.947v59.746c0 39.914-32.472 72.387-72.386 72.387h-7.868c-4.142 0-7.5 3.358-7.5 7.5s3.358 7.5 7.5 7.5h7.868c3.534 0 7.017-.217 10.442-.626v80.881c0 4.142 3.358 7.5 7.5 7.5s7.5-3.358 7.5-7.5v-84.036c35.814-10.92 61.944-44.266 61.944-83.605v-.977h27.692v118.073c0 10.977 8.93 19.907 19.907 19.907h24.29c10.977 0 19.907-8.93 19.907-19.907v-3.604c1.573.401 3.211.637 4.906.637h24.29c10.977 0 19.906-8.93 19.906-19.906v-9.872c1.573.401 3.211.637 4.907.637h24.29c10.977 0 19.907-8.93 19.907-19.907v-41.685h14.404c9.842 0 17.85-8.007 17.85-17.85v-6.523h14.656c7.389 0 13.4-6.011 13.4-13.4v-31.832c-.002-7.389-6.013-13.401-13.401-13.401zm-417.822 48.727c-6.777 0-12.29-5.513-12.29-12.29v-43.44c0-6.776 5.513-12.289 12.29-12.289s12.289 5.513 12.289 12.289v43.44c0 6.777-5.513 12.29-12.289 12.29zm51.867-12.29c0 6.776-5.513 12.29-12.289 12.29s-12.289-5.513-12.289-12.29v-43.44c0-6.776 5.513-12.289 12.289-12.289s12.289 5.513 12.289 12.289v.351 42.738zm15-.351v-42.738c0-6.703 5.104-12.19 11.522-12.6-.146.788-.233 1.596-.233 2.425v11.683c0 10.231 5.297 19.242 13.289 24.453v16.778c0 6.97-5.513 12.64-12.289 12.64s-12.289-5.671-12.289-12.641zm61.814-12.053v13.856h-14.708c-2.628 0-5.188.293-7.656.832.081-.868.127-1.746.127-2.635v-12.075c.296.009.591.023.889.023h21.348zm13.389-54.115v-7.613c0-4.142-3.358-7.5-7.5-7.5s-7.5 3.358-7.5 7.5v7.613h-18.863v-12.934c0-11.282 9.179-20.46 20.46-20.46s20.46 9.178 20.46 20.46v12.934zm38.841 73.716v-28.634h27.692v28.634zm175 81.058c0 2.706-2.201 4.907-4.907 4.907h-24.29c-2.706 0-4.907-2.201-4.907-4.907v-115.484-21c0-4.142-3.358-7.5-7.5-7.5s-7.5 3.358-7.5 7.5v21 115.484 29.142c0 2.706-2.201 4.906-4.906 4.906h-24.29c-2.706 0-4.906-2.201-4.906-4.906v-27.728-14c0-4.142-3.358-7.5-7.5-7.5s-7.5 3.358-7.5 7.5v14 27.728 22.874c0 2.706-2.201 4.907-4.907 4.907h-24.29c-2.706 0-4.907-2.201-4.907-4.907v-294.356c0-2.705 2.201-4.906 4.907-4.906h24.29c2.706 0 4.907 2.201 4.907 4.906v22.874 158.88 18c0 4.142 3.358 7.5 7.5 7.5s7.5-3.358 7.5-7.5v-18-158.88c0-2.706 2.201-4.907 4.906-4.907h24.29c2.705 0 4.906 2.201 4.906 4.907v29.142 8.84 15c0 4.142 3.358 7.5 7.5 7.5s7.5-3.358 7.5-7.5v-15-8.84c0-2.706 2.201-4.907 4.907-4.907h24.29c2.706 0 4.907 2.201 4.907 4.907v48.759 92.38zm32.254-59.534c0 1.571-1.278 2.85-2.85 2.85h-14.404v-77.38h14.404c1.571 0 2.85 1.278 2.85 2.85zm28.056-21.524h-13.056v-28.634h13.056z"/><path d="m201.25 85.454h5.197v29.958c0 5.353 4.354 9.707 9.707 9.707h28.613c5.353 0 9.707-4.354 9.707-9.707v-29.958h5.197c3.764 0 7.116-2.107 8.748-5.5 1.631-3.392 1.186-7.326-1.164-10.267v.001l-29.209-36.567c-1.852-2.32-4.616-3.65-7.584-3.65-.001 0-.001 0-.001 0-2.968 0-5.732 1.33-7.584 3.649l-29.211 36.569c-2.349 2.941-2.794 6.875-1.163 10.266 1.631 3.392 4.983 5.499 8.747 5.499zm29.21-37.795 18.218 22.807c-5.12.263-9.205 4.51-9.205 9.694v29.958h-18.027v-29.957c0-5.184-4.084-9.432-9.205-9.694z"/><path d="m476.55 426.892-29.209-36.567c-1.852-2.32-4.617-3.65-7.585-3.65-2.969 0-5.734 1.331-7.584 3.649l-29.21 36.567c-2.35 2.941-2.795 6.875-1.164 10.267 1.632 3.392 4.984 5.5 8.748 5.5h5.197v29.958c0 5.353 4.354 9.707 9.707 9.707h28.613c5.353 0 9.708-4.354 9.708-9.707v-29.958h5.197c3.764 0 7.116-2.107 8.748-5.5 1.629-3.393 1.183-7.326-1.166-10.266zm-27.781 10.472v29.958h-18.027v-29.958c0-5.184-4.085-9.432-9.205-9.694l18.219-22.807 18.218 22.807c-5.12.262-9.205 4.51-9.205 9.694z"/></svg>