<svg id="Capa_1" enable-background="new 0 0 511.335 511.335" height="512" viewBox="0 0 511.335 511.335" width="512" xmlns="http://www.w3.org/2000/svg"><circle cx="149.67" cy="255.532" fill="#fe646f" r="142.406"/><path d="m110.324 255.532c0-60.475 37.699-112.138 90.876-132.789-15.981-6.206-33.356-9.617-51.53-9.617-78.648 0-142.406 63.757-142.406 142.406s63.757 142.405 142.406 142.405c18.174 0 35.549-3.411 51.53-9.617-53.177-20.65-90.876-72.314-90.876-132.788z" fill="#fb2b3a"/><circle cx="149.67" cy="255.532" fill="#ffd3d6" r="100.202"/><path d="m125.047 222.487c0-25.829 9.775-49.373 25.825-67.141-.401-.005-.8-.015-1.202-.015-55.34 0-100.202 44.862-100.202 100.202s44.862 100.2 100.202 100.2c29.511 0 56.04-12.76 74.377-33.06-54.786-.645-99-45.248-99-100.186z" fill="#fdb4ba"/><path d="m162.034 304.963-4.851 14.717c-.781 2.233-2.889 3.728-5.254 3.728h-18.901c-3.868 0-6.557-3.847-5.228-7.479l4.215-12.258 23.732-63.413 4.099-11.941h-45.678c-2.341 0-4.24-1.898-4.24-4.24v-17.744c0-2.343 1.9-4.241 4.242-4.24l67.695.045c8.043.005 13.675 7.949 11.018 15.54l-7.15 21.287z" fill="#f8f6f6"/><path d="m503.835 289.292c0 1.701-1.396 3.071-3.097 3.039l-381.074-7.243c-2.644-.055-4.758-2.214-4.758-4.859v-15.594c0-2.645 2.114-4.804 4.758-4.859l381.074-7.243c1.701-.032 3.097 1.338 3.097 3.039z" fill="#e9b665"/><path d="m137.976 269.191c-2.644-.055-4.758-2.214-4.758-4.859v-4.814l-13.553.258c-2.644.055-4.758 2.214-4.758 4.859v15.594c0 2.644 2.114 4.804 4.758 4.859l381.074 7.243c1.701.032 3.097-1.338 3.097-3.039v-13.147z" fill="#d8aa5e"/><path d="m151.739 259.166-32.074.61c-2.644.055-4.758 2.214-4.758 4.859v15.594c0 2.644 2.114 4.804 4.758 4.859l32.074.61z" fill="#d8aa5e"/><path d="m151.739 269.453-13.763-.262c-2.644-.055-4.758-2.214-4.758-4.859v-4.814l-13.553.258c-2.644.055-4.758 2.214-4.758 4.859v15.594c0 2.644 2.114 4.804 4.758 4.859l32.074.61z" fill="#c99c56"/><path d="m122.084 168.693c8.971-2.872 18.332-4.328 27.821-4.328 21.076 0 40.864 6.983 57.226 20.195 15.898 12.837 27.141 30.81 31.657 50.606.793 3.477 3.884 5.833 7.305 5.833.552 0 1.114-.061 1.675-.189 4.039-.921 6.565-4.941 5.644-8.98-5.261-23.065-18.351-43.997-36.857-58.94-18.787-15.17-42.457-23.524-66.649-23.524-11.044 0-21.943 1.696-32.395 5.042-3.945 1.263-6.119 5.485-4.856 9.43 1.262 3.943 5.483 6.116 9.429 4.855z"/><path d="m97.132 181.182c3.375-2.401 4.166-7.083 1.765-10.458-2.4-3.375-7.083-4.166-10.458-1.765-27.99 19.906-44.7 52.271-44.7 86.573 0 58.541 47.626 106.167 106.167 106.167 35.341 0 68.26-17.511 88.057-46.842 2.317-3.433 1.413-8.095-2.021-10.412-3.433-2.317-8.095-1.413-10.412 2.021-17.004 25.193-45.275 40.233-75.624 40.233-50.27 0-91.167-40.897-91.167-91.167 0-29.458 14.352-57.252 38.393-74.35z"/><path d="m107.406 264.634v15.595c0 6.674 5.429 12.218 12.116 12.357l33.156.63c.348.049.7.084 1.062.084.28 0 .555-.018.827-.048l164.168 3.12c.049.001.097.001.146.001 4.075 0 7.418-3.265 7.496-7.357.079-4.142-3.215-7.563-7.356-7.641l-157.78-2.999v-11.89l342.739-6.514c4.141-.079 7.435-3.5 7.356-7.641-.079-4.142-3.523-7.447-7.641-7.356l-384.187 7.301c-6.674.142-12.102 5.685-12.102 12.358zm15 2.591 23.833-.453v11.32l-23.833-.453z"/><path d="m503.978 284.891-154.959-2.945c-4.142-.097-7.563 3.214-7.641 7.356-.079 4.142 3.215 7.563 7.356 7.641l154.959 2.945c.049.001.097.001.146.001 4.075 0 7.418-3.265 7.496-7.357.078-4.142-3.216-7.563-7.357-7.641z"/><path d="m102.428 206.334v17.744c0 6.473 5.267 11.739 11.74 11.739h35.174l-.688 2.006c-1.345 3.917.741 8.184 4.659 9.529.807.277 1.628.408 2.436.408 3.115 0 6.025-1.956 7.093-5.067l4.099-11.941c.787-2.292.418-4.822-.99-6.793-1.408-1.972-3.681-3.142-6.104-3.142h-42.418v-11.22l64.433.043c1.879.001 2.942 1.105 3.408 1.763s1.156 2.026.505 3.89l-7.15 21.286c-1.319 3.926.794 8.179 4.721 9.498 3.927 1.318 8.179-.794 9.498-4.721l7.12-21.197c2.049-5.854 1.13-12.371-2.457-17.431s-9.432-8.083-15.635-8.087l-67.693-.045c-.003 0-.007 0-.01 0-3.134 0-6.08 1.22-8.297 3.436-2.222 2.215-3.444 5.164-3.444 8.302z"/><path d="m134.454 296.578c-3.917-1.347-8.185.736-9.531 4.653l-4.197 12.204c-1.426 3.982-.833 8.421 1.592 11.892 2.443 3.495 6.447 5.581 10.71 5.581h18.901c5.545 0 10.502-3.517 12.333-8.751.015-.043.03-.086.044-.129l4.852-14.717c1.297-3.934-.841-8.174-4.775-9.471-3.933-1.294-8.174.841-9.471 4.775l-4.382 13.293h-14.792l3.37-9.799c1.347-3.916-.737-8.184-4.654-9.531z"/><path d="m419.029 390.709h-204.402c31.652-15.167 57.692-41.261 72.444-74.634 1.674-3.789-.039-8.217-3.828-9.892-3.789-1.672-8.217.04-9.892 3.828-21.595 48.857-70.05 80.427-123.445 80.427-74.387-.001-134.906-60.519-134.906-134.906s60.519-134.906 134.906-134.906c32.02 0 63.059 11.415 87.4 32.142 24.072 20.497 40.25 48.847 45.555 79.826.7 4.083 4.575 6.826 8.659 6.126 4.083-.699 6.825-4.576 6.126-8.659-5.024-29.337-18.819-56.543-39.328-78.038h160.711c4.142 0 7.5-3.358 7.5-7.5s-3.358-7.5-7.5-7.5h-177.323c-26.181-20.293-58.514-31.397-91.801-31.397-82.657 0-149.905 67.248-149.905 149.906s67.248 149.905 149.906 149.905c1.738 0 269.124.272 269.124.272 4.142 0 7.5-3.358 7.5-7.5s-3.359-7.5-7.501-7.5z"/><path d="m355 205.771c0 4.142 3.358 7.5 7.5 7.5h73.513c4.142 0 7.5-3.358 7.5-7.5s-3.358-7.5-7.5-7.5h-73.513c-4.142 0-7.5 3.358-7.5 7.5z"/><path d="m300.325 347.711c0 4.142 3.358 7.5 7.5 7.5h73.513c4.142 0 7.5-3.358 7.5-7.5s-3.358-7.5-7.5-7.5h-73.513c-4.142 0-7.5 3.358-7.5 7.5z"/></svg>