<svg id="Capa_1" enable-background="new 0 0 511.274 511.274" height="512" viewBox="0 0 511.274 511.274" width="512" xmlns="http://www.w3.org/2000/svg"><path d="m447.872 503.772c3.049 0 5.223-2.995 4.241-5.882-25.442-74.787-96.259-128.593-179.652-128.593h-15.103c-83.393 0-154.21 53.806-179.652 128.593-.982 2.887 1.192 5.882 4.241 5.882z" fill="#01d0fb"/><path d="m207.54 497.89c19.341-56.854 64.909-101.575 122.287-119.757-18.098-5.735-37.369-8.836-57.365-8.836h-15.103c-83.393 0-154.21 53.806-179.652 128.593-.982 2.887 1.192 5.882 4.241 5.882h129.832c-3.049 0-5.223-2.995-4.24-5.882z" fill="#01c0fa"/><path d="m264.302 7.5c-98.478.05-177.781 81.097-177.781 179.576v122.836c0 8.096 6.563 14.66 14.66 14.66 8.096 0 14.66-6.563 14.66-14.66v-26.696c14.765 22.372 34.452 41.206 57.511 54.977 33.44 49.017 66.483 93.053 85.751 138.93 2.004 4.771 8.782 4.691 10.661-.13l2.489-6.388c19.316-45.752 50.43-84.262 82.035-130.728v66.961c0 8.096 6.563 14.66 14.66 14.66 8.096 0 14.66-6.563 14.66-14.66v-89.459c11.158-10.083 21.025-21.565 29.339-34.163v35.637c0 7.894 6.066 14.686 13.951 15.057 8.419.396 15.368-6.312 15.368-14.643v-72.163-61.73c.001-98.268-79.685-177.923-177.964-177.874z" fill="#fe7d43"/><path d="m232.68 330.522c12.679 55.689 25.49 93.94 31.714 147.25 0 0 20.597-98.422 31.714-147.25v-18.256h-63.428z" fill="#fee903"/><circle cx="264.394" cy="185.373" fill="#fef1da" r="148.554"/><path d="m254.838 185.373c0-56.934 32.033-106.377 79.055-131.315-20.739-10.999-44.388-17.238-69.499-17.238-82.044 0-148.554 66.51-148.554 148.554s66.51 148.554 148.554 148.554c25.11 0 48.76-6.239 69.499-17.238-47.022-24.939-79.055-74.383-79.055-131.317z" fill="#fddeb0"/><path d="m101.18 392.456c-8.096 0-14.66-6.563-14.66-14.66v-8.729c0-8.096 6.563-14.66 14.66-14.66 8.096 0 14.66 6.563 14.66 14.66v8.729c0 8.097-6.563 14.66-14.66 14.66z" fill="#fe7d43"/><path d="m86.528 476.891h63.967c8.473 0 15.341-6.869 15.341-15.341 0-8.473-6.869-15.341-15.341-15.341h25.893c8.473 0 15.341-6.869 15.341-15.341 0-8.473-6.869-15.341-15.341-15.341h-41.374-1.755c-19.56 16.934-35.625 37.796-46.961 61.365h.23z" fill="#0ed290"/><path d="m430.922 454.672h-.873-32.867c-7.858 0-14.228 6.37-14.228 14.228 0 7.858 6.37 14.228 14.228 14.228h49.155.043c-4.352-9.96-9.532-19.475-15.458-28.456z" fill="#00f2a6"/><path d="m330.261 483.128h7.217c7.858 0 14.228-6.37 14.228-14.228 0-7.858-6.37-14.228-14.228-14.228h-7.217c-7.858 0-14.228 6.37-14.228 14.228 0 7.858 6.37 14.228 14.228 14.228z" fill="#00f2a6"/><g fill="#fee903"><path d="m473.149 36.647 2.709 8.338c.637 1.961 2.465 3.289 4.527 3.289h8.767c4.611 0 6.529 5.901 2.798 8.611l-7.093 5.153c-1.668 1.212-2.367 3.361-1.729 5.322l2.709 8.338c1.425 4.386-3.595 8.033-7.325 5.322l-7.093-5.153c-1.668-1.212-3.928-1.212-5.596 0l-7.093 5.153c-3.731 2.711-8.75-.936-7.325-5.322l2.709-8.338c.637-1.961-.061-4.11-1.729-5.322l-7.093-5.153c-3.731-2.711-1.813-8.611 2.798-8.611h8.767c2.062 0 3.89-1.328 4.527-3.289l2.709-8.338c1.426-4.386 7.631-4.386 9.056 0z"/><path d="m47.18 78.116 2.709 8.338c.637 1.961 2.465 3.289 4.527 3.289h8.767c4.611 0 6.529 5.901 2.798 8.611l-7.093 5.153c-1.668 1.212-2.367 3.361-1.729 5.322l2.709 8.338c1.425 4.386-3.595 8.033-7.325 5.322l-7.093-5.153c-1.668-1.212-3.928-1.212-5.596 0l-7.093 5.153c-3.731 2.711-8.75-.936-7.325-5.322l2.709-8.338c.637-1.961-.061-4.11-1.729-5.322l-7.093-5.153c-3.731-2.711-1.813-8.611 2.798-8.611h8.767c2.062 0 3.89-1.328 4.527-3.289l2.709-8.338c1.426-4.385 7.631-4.385 9.056 0z"/><path d="m472.095 367.69 2.709 8.338c.637 1.961 2.465 3.289 4.527 3.289h8.767c4.611 0 6.529 5.901 2.798 8.611l-7.093 5.153c-1.668 1.212-2.367 3.361-1.729 5.322l2.709 8.338c1.425 4.386-3.595 8.033-7.325 5.322l-7.093-5.153c-1.668-1.212-3.928-1.212-5.596 0l-7.093 5.153c-3.731 2.711-8.75-.936-7.325-5.322l2.709-8.338c.637-1.961-.061-4.11-1.729-5.322l-7.093-5.153c-3.731-2.71-1.813-8.611 2.798-8.611h8.767c2.062 0 3.89-1.328 4.527-3.289l2.709-8.338c1.426-4.386 7.631-4.386 9.056 0z"/></g><path d="m101.18 399.956c12.219 0 22.16-9.941 22.16-22.16v-8.729c0-12.219-9.941-22.16-22.16-22.16s-22.16 9.941-22.16 22.16v8.729c.001 12.219 9.942 22.16 22.16 22.16zm-7.159-30.889c0-3.948 3.212-7.16 7.16-7.16s7.16 3.212 7.16 7.16v8.729c0 3.948-3.212 7.16-7.16 7.16s-7.16-3.212-7.16-7.16z"/><path d="m391.108 402.911v-82.242c5.056-4.737 9.844-9.756 14.339-15.026v13.21c0 12.087 9.268 21.992 21.098 22.549 6.129.289 11.932-1.878 16.357-6.1 4.362-4.162 6.865-10.007 6.865-16.035v-57.807c0-4.142-3.358-7.5-7.5-7.5s-7.5 3.358-7.5 7.5v57.807c0 1.977-.788 3.817-2.219 5.182-1.429 1.364-3.3 2.064-5.297 1.969-3.751-.177-6.804-3.57-6.804-7.565v-28.447-7.189-12.77c0-4.142-3.358-7.5-7.5-7.5s-7.5 3.358-7.5 7.5v10.455c-7.693 11.336-16.712 21.736-26.868 30.913-1.574 1.422-2.472 3.443-2.472 5.564v89.275.184c0 3.948-3.212 7.16-7.16 7.16s-7.16-3.212-7.16-7.16v-61.051-5.91-8.013c0-4.142-3.358-7.5-7.5-7.5s-7.5 3.358-7.5 7.5v5.687c-6.884 10.079-13.778 19.858-20.458 29.322-16.479 23.347-32.31 45.794-45.523 69.434 6.562-30.925 15.336-71.882 21.582-99.567 16.077-4.037 31.169-10.575 44.843-19.175.38-.178.751-.383 1.107-.631.176-.122.341-.255.503-.389 43.049-27.811 71.605-76.218 71.605-131.172s-28.556-103.361-71.605-131.172c-.162-.134-.327-.266-.503-.389-.353-.246-.722-.448-1.099-.626-24.024-15.111-52.43-23.867-82.847-23.867-30.418 0-58.825 8.757-82.849 23.869-.375.177-.744.379-1.096.624-.175.122-.339.253-.5.387-43.051 27.811-71.608 76.219-71.608 131.174s28.557 103.363 71.608 131.174c.161.133.325.265.5.387.356.247.727.452 1.106.63 13.678 8.603 28.776 15.142 44.859 19.179 1.209 5.219 2.502 10.655 3.925 16.495.835 3.428 3.902 5.727 7.281 5.727.587 0 1.185-.07 1.781-.215 4.024-.98 6.492-5.038 5.511-9.062-.827-3.393-1.607-6.642-2.354-9.796 7.138 1.004 14.426 1.535 21.836 1.535 7.439 0 14.754-.535 21.918-1.547-6.336 28.372-14.667 67.324-20.818 96.335-3.563-18.265-7.947-36.139-13.103-56.586-1.014-4.017-5.089-6.454-9.106-5.438-4.016 1.013-6.451 5.09-5.438 9.106 5.636 22.351 10.326 41.573 14.01 61.569-15.427-28.631-35.039-56.972-55.518-86.535-5.49-7.925-11.167-16.12-16.791-24.364-.614-.899-1.416-1.654-2.351-2.212-21.328-12.737-39.9-30.294-53.856-50.848v-14.024c0-4.142-3.358-7.5-7.5-7.5s-7.5 3.358-7.5 7.5v27.812.01 15.209c0 3.948-3.212 7.16-7.16 7.16s-7.16-3.212-7.16-7.16v-122.838c.002-94.836 76.391-172.029 170.287-172.076h.088c45.492 0 88.266 17.71 120.443 49.873 32.198 32.183 49.93 74.977 49.93 120.501v46.087c0 4.142 3.358 7.5 7.5 7.5s7.5-3.358 7.5-7.5v-46.087c0-49.532-19.293-96.094-54.326-131.11-35.012-34.996-81.546-54.264-131.047-54.264-.03 0-.065 0-.096 0-102.162.052-185.277 83.974-185.277 187.076v122.836c0 12.219 9.941 22.16 22.16 22.16s22.16-9.941 22.16-22.16v-4.299c12.789 14.96 27.963 27.931 44.737 38.157 5.351 7.83 10.724 15.587 15.93 23.102 1.751 2.528 3.496 5.046 5.232 7.557-21.27 8.34-40.893 20.14-58.136 34.706-.711.436-1.349.98-1.877 1.621-20.07 17.364-36.821 38.486-49.075 62.201-.201.325-.384.661-.534 1.016-4.486 8.801-8.355 17.954-11.546 27.398-1.326 3.924.781 8.18 4.705 9.506.796.269 1.605.396 2.402.396 3.128 0 6.047-1.973 7.104-5.101 2.524-7.471 5.518-14.738 8.922-21.782h59.291c12.595 0 22.841-10.247 22.841-22.841 0-2.753-.49-5.395-1.387-7.841h4.438c12.595 0 22.841-10.247 22.841-22.841s-10.247-22.841-22.841-22.841h-19.013c12.584-8.504 26.207-15.55 40.613-20.89 21.618 31.58 41.234 62.023 54.199 92.892 2.081 4.954 6.863 8.128 12.219 8.128.059 0 .118 0 .176-.001 5.422-.07 10.199-3.382 12.169-8.438l2.451-6.289c12.841-30.381 31.394-58.065 51.487-86.694 5.456 1.983 10.841 4.219 16.099 6.69v13.415c0 12.219 9.941 22.16 22.16 22.16 7.682 0 14.462-3.931 18.439-9.886 10.275 8.451 19.573 17.847 27.798 28.061h-18.004c-11.981 0-21.728 9.747-21.728 21.728 0 11.98 9.747 21.728 21.728 21.728h44.332c2.216 5.073 4.228 10.255 6.015 15.545 1.057 3.128 3.976 5.101 7.104 5.101.796 0 1.606-.127 2.402-.396 3.924-1.326 6.03-5.582 4.705-9.506-13.259-39.249-37.643-73.215-70.631-98.463zm14.339-217.537c0 47.351-23.454 89.327-59.354 114.922-5.144-8.084-9.704-16.659-13.662-25.617l2.187-1.114c3.691-1.879 5.161-6.395 3.281-10.086s-6.395-5.162-10.086-3.281l-.963.49c-3.13-8.763-5.709-17.821-7.715-27.093l2.157-.639c3.972-1.177 6.236-5.351 5.059-9.322-1.177-3.972-5.352-6.239-9.322-5.059l-.587.174c-1.25-8.509-2.022-17.154-2.305-25.875h1.896c4.142 0 7.5-3.358 7.5-7.5s-3.358-7.5-7.5-7.5h-1.896c.283-8.721 1.056-17.367 2.305-25.876l.586.174c.711.211 1.429.312 2.135.312 3.235 0 6.221-2.11 7.188-5.37 1.178-3.971-1.087-8.145-5.059-9.322l-2.156-.639c2.005-9.272 4.585-18.331 7.715-27.094l.963.49c1.09.555 2.251.818 3.396.818 2.731 0 5.365-1.498 6.689-4.099 1.879-3.691.41-8.207-3.281-10.086l-2.187-1.113c3.958-8.958 8.518-17.532 13.662-25.617 35.9 25.595 59.354 67.57 59.354 114.922zm-282.107 0c0-47.352 23.454-89.327 59.354-114.923 5.144 8.084 9.704 16.659 13.662 25.617l-2.187 1.113c-3.691 1.879-5.161 6.395-3.281 10.086 1.324 2.601 3.958 4.099 6.689 4.099 1.145 0 2.307-.263 3.396-.818l.963-.49c3.13 8.763 5.709 17.821 7.714 27.093l-2.156.639c-3.971 1.177-6.236 5.351-5.059 9.322.966 3.26 3.952 5.37 7.188 5.37.706 0 1.424-.101 2.135-.312l.586-.174c1.25 8.509 2.022 17.154 2.305 25.875h-1.895c-4.142 0-7.5 3.358-7.5 7.5s3.358 7.5 7.5 7.5h1.895c-.283 8.721-1.056 17.366-2.305 25.875l-.586-.174c-3.971-1.178-8.146 1.087-9.323 5.058-1.178 3.972 1.087 8.146 5.058 9.323l2.157.639c-2.005 9.272-4.585 18.33-7.714 27.093l-.963-.49c-3.69-1.879-8.207-.411-10.086 3.281s-.41 8.208 3.281 10.086l2.187 1.113c-3.958 8.958-8.519 17.533-13.662 25.617-35.899-25.592-59.353-67.567-59.353-114.918zm72.017 122.964c5.399-8.489 10.2-17.473 14.382-26.846l3.055 1.555c1.09.555 2.252.818 3.397.818 2.731 0 5.365-1.498 6.689-4.099 1.879-3.691.41-8.208-3.281-10.086l-4.199-2.138c3.518-9.591 6.421-19.511 8.67-29.672l2.634.781c.711.211 1.429.312 2.135.312 3.235 0 6.221-2.11 7.188-5.37 1.178-3.971-1.087-8.146-5.058-9.323l-4.115-1.22c1.548-9.913 2.491-19.999 2.801-30.177h2.632c4.142 0 7.5-3.358 7.5-7.5s-3.358-7.5-7.5-7.5h-2.632c-.311-10.178-1.254-20.264-2.801-30.177l4.115-1.22c3.971-1.177 6.236-5.351 5.059-9.322-1.177-3.972-5.352-6.237-9.322-5.059l-2.635.781c-2.249-10.161-5.152-20.081-8.67-29.672l4.199-2.138c3.691-1.879 5.16-6.395 3.281-10.086-1.879-3.69-6.396-5.162-10.086-3.281l-3.055 1.555c-4.183-9.373-8.983-18.357-14.382-26.846 20.42-11.51 43.973-18.089 69.037-18.089s48.617 6.579 69.037 18.089c-5.399 8.489-10.2 17.473-14.383 26.846l-3.055-1.555c-3.69-1.879-8.207-.411-10.086 3.281-1.879 3.691-.41 8.207 3.281 10.086l4.199 2.138c-3.518 9.591-6.421 19.512-8.67 29.672l-2.635-.781c-3.97-1.178-8.145 1.087-9.322 5.059-1.178 3.971 1.087 8.145 5.059 9.322l4.115 1.22c-1.548 9.913-2.491 19.999-2.802 30.177h-2.632c-4.142 0-7.5 3.358-7.5 7.5s3.358 7.5 7.5 7.5h2.632c.311 10.178 1.254 20.264 2.801 30.177l-4.115 1.22c-3.971 1.177-6.236 5.351-5.058 9.323.966 3.26 3.952 5.37 7.188 5.37.706 0 1.424-.101 2.135-.312l2.634-.781c2.249 10.161 5.152 20.081 8.67 29.672l-4.199 2.138c-3.691 1.879-5.161 6.395-3.281 10.086 1.324 2.602 3.958 4.099 6.689 4.099 1.145 0 2.307-.263 3.396-.818l3.055-1.555c4.183 9.373 8.984 18.357 14.383 26.846-20.42 11.51-43.973 18.089-69.037 18.089s-48.617-6.58-69.037-18.089zm-18.969 114.688c4.324 0 7.841 3.518 7.841 7.841s-3.518 7.841-7.841 7.841h-25.893c-4.142 0-7.5 3.358-7.5 7.5s3.358 7.5 7.5 7.5c4.324 0 7.841 3.518 7.841 7.841s-3.518 7.841-7.841 7.841h-51.197c10.402-17.39 23.488-33.044 38.664-46.365h38.426zm163.241-48.981c2.366-3.352 4.752-6.735 7.16-10.165v13.082c-2.369-1.017-4.757-1.99-7.16-2.917zm57.553 101.583c-3.71 0-6.728-3.018-6.728-6.728s3.018-6.728 6.728-6.728h28.927c2.868 4.369 5.56 8.856 8.066 13.456z"/><path d="m337.477 447.172h-7.217c-11.98 0-21.728 9.747-21.728 21.728 0 11.98 9.747 21.728 21.728 21.728h7.217c11.98 0 21.728-9.747 21.728-21.728s-9.747-21.728-21.728-21.728zm0 28.456h-7.217c-3.709 0-6.728-3.018-6.728-6.728s3.018-6.728 6.728-6.728h7.217c3.709 0 6.728 3.018 6.728 6.728s-3.018 6.728-6.728 6.728z"/><path d="m440.884 62.953 5.483 3.983-2.094 6.445c-1.646 5.067.144 10.576 4.454 13.707 4.312 3.133 10.103 3.132 14.414 0l5.482-3.983 5.482 3.983c2.155 1.566 4.681 2.349 7.207 2.349 2.525 0 5.052-.783 7.207-2.349 4.311-3.132 6.1-8.641 4.453-13.707l-2.094-6.445 5.483-3.984c4.31-3.131 6.1-8.64 4.453-13.707-1.646-5.067-6.332-8.472-11.66-8.472h-6.777l-2.094-6.444c-1.647-5.067-6.333-8.472-11.661-8.472s-10.013 3.405-11.659 8.472l-2.094 6.444h-6.777c-5.328 0-10.014 3.404-11.66 8.472-1.648 5.068.141 10.576 4.452 13.708zm15.974-7.179c5.328 0 10.014-3.405 11.66-8.472l.104-.318.104.318c1.646 5.067 6.332 8.472 11.66 8.472h.335l-.271.197c-4.31 3.132-6.1 8.64-4.454 13.707l.104.319-.272-.198c-4.309-3.13-10.1-3.131-14.412.001l-.271.197.104-.319c1.646-5.067-.144-10.575-4.454-13.707l-.271-.197z"/><path d="m64.907 108.406 5.483-3.983c4.31-3.131 6.1-8.64 4.454-13.707s-6.333-8.472-11.661-8.472h-6.776l-2.095-6.445c-1.646-5.067-6.332-8.472-11.659-8.472 0 0 0 0-.001 0-5.328 0-10.014 3.404-11.66 8.472l-2.094 6.445h-6.776c-5.328 0-10.014 3.405-11.66 8.472s.144 10.576 4.454 13.707l5.482 3.983-2.094 6.445c-1.646 5.067.143 10.575 4.453 13.707 2.156 1.566 4.681 2.349 7.207 2.349 2.525 0 5.051-.783 7.206-2.349l5.482-3.983 5.482 3.983c4.311 3.132 10.103 3.132 14.413 0 4.311-3.131 6.101-8.64 4.454-13.708zm-10.426-10.966c-4.311 3.132-6.102 8.641-4.455 13.708l.104.318-.271-.196c-4.31-3.132-10.103-3.132-14.413 0l-.271.197.104-.319c1.647-5.068-.143-10.577-4.453-13.707l-.271-.197h.335c5.328 0 10.014-3.405 11.66-8.472l.104-.319.104.319c1.646 5.067 6.332 8.472 11.66 8.472h.335z"/><path d="m488.098 371.817h-6.777l-2.094-6.445c-1.646-5.067-6.332-8.472-11.66-8.472s-10.014 3.405-11.66 8.472l-2.094 6.445h-6.777c-5.328 0-10.014 3.405-11.66 8.472s.144 10.576 4.454 13.707l5.482 3.983-2.094 6.445c-1.646 5.067.144 10.576 4.454 13.708 2.155 1.566 4.681 2.349 7.206 2.349s5.051-.783 7.207-2.349l5.482-3.983 5.482 3.983c4.31 3.132 10.103 3.132 14.413 0 4.311-3.132 6.101-8.64 4.454-13.708l-2.094-6.445 5.483-3.983c4.31-3.131 6.1-8.64 4.454-13.708-1.647-5.066-6.333-8.471-11.661-8.471zm-8.702 15.197c-4.311 3.131-6.101 8.64-4.455 13.708l.104.318-.271-.196c-4.309-3.132-10.102-3.132-14.414 0l-.271.197.103-.317c1.648-5.068-.142-10.577-4.453-13.708l-.271-.197h.335c5.328 0 10.014-3.404 11.66-8.471l.104-.319.104.319c1.646 5.067 6.333 8.471 11.66 8.471h.335z"/></svg>