<svg id="Capa_1" enable-background="new 0 0 509.635 509.635" height="512" viewBox="0 0 509.635 509.635" width="512" xmlns="http://www.w3.org/2000/svg"><path d="m10.331 219.683h87.575c1.563 0 2.831-1.267 2.831-2.831v-61.038c0-1.563-1.267-2.831-2.831-2.831h-87.575c-1.563 0-2.831 1.267-2.831 2.831v61.038c0 1.564 1.267 2.831 2.831 2.831z" fill="#cecece"/><path d="m97.906 152.983h-87.575c-1.563 0-2.831 1.267-2.831 2.831v24.825h93.236v-24.825c0-1.563-1.267-2.831-2.83-2.831z" fill="#bfbfbf"/><circle cx="283.692" cy="201.127" fill="#fef1da" r="159.894"/><path d="m443.586 201.127c0-11.026-1.116-21.791-3.242-32.189l-7.678 23.101c-.334 1.004-1.826.708-1.752-.347l3.176-44.953c-7.045-19.478-17.768-37.193-31.327-52.314-.56 1.503-.947 3.098-1.085 4.782l-7.419 91.017c-.075.921-1.421.93-1.508.009l-10.49-111.823c-.123-1.312-.397-2.574-.78-3.785-5.987-4.635-12.31-8.855-18.929-12.615-9.058.797-16.248 8.237-16.558 17.491l-3.876 115.882c-.041 1.23-1.819 1.357-2.034.145l-17.335-97.617c-1.64-9.234-9.667-15.961-19.045-15.961-11.602 0-20.594 10.143-19.203 21.661l17.132 141.925-7.482 32.939c-.82 3.608-5.256 4.952-7.94 2.404l-33.195-31.514c-8.145-7.733-21.008-8.231-29.325-.684-8.813 7.998-9.352 21.541-1.395 30.206l51.511 56.098c9.898 10.779 22.712 18.214 36.695 21.569 1.125.27 2.089.89 2.799 1.72 74.158-13.887 130.285-78.958 130.285-157.147z" fill="#fae2c0"/><path d="m492.138 100.746c-7.904-2.768-16.521 1.796-19.162 9.743l-22.486 67.655c-.334 1.004-1.826.708-1.752-.347l6.312-89.338c.644-9.111-5.468-17.53-14.443-19.227-10.438-1.974-20.245 5.533-21.105 16.079l-7.419 91.017c-.075.921-1.421.929-1.508.009l-10.49-111.822c-.876-9.341-8.717-16.48-18.099-16.48-9.803 0-17.84 7.773-18.168 17.571l-3.876 115.882c-.041 1.23-1.819 1.357-2.034.145l-17.335-97.617c-1.64-9.233-9.667-15.961-19.045-15.961-11.602 0-20.594 10.142-19.203 21.661l17.132 141.925-7.482 32.939c-.82 3.608-5.256 4.952-7.94 2.404l-33.195-31.514c-8.145-7.733-21.008-8.231-29.325-.684-8.813 7.998-9.352 21.54-1.395 30.206l51.511 56.098c9.898 10.779 22.712 18.214 36.695 21.569 2.372.569 4.062 2.66 4.062 5.099v119.336c0 1.773 1.437 3.21 3.21 3.21h104.526c1.773 0 3.21-1.437 3.21-3.21v-124.759c0-1.905 1.042-3.644 2.702-4.577 14.059-7.898 24.348-21.914 27.03-38.789l28.887-181.815c1.121-7.062-2.936-14-9.815-16.408z" fill="#fed2a4"/><g fill="#ffbd86"><path d="m453.065 184.068c5.179 1.671 10.736-1.145 12.452-6.309l21.642-65.116c1.518-4.566 5.012-8.005 9.206-9.588-1.924-1.493-4.242-2.572-6.918-2.976-7.251-1.096-14.173 3.495-16.486 10.454l-22.67 68.055c-.76 2.28.487 4.742 2.774 5.48z"/><path d="m429.234 461.088c-42.514 0-76.978-34.464-76.978-76.978v-45.568c0-2.44-1.69-4.53-4.062-5.099-13.982-3.354-26.797-10.789-36.695-21.569l-51.511-56.098c-6.762-7.364-7.365-18.238-1.993-26.25-5.838-.634-11.861 1.067-16.481 5.26-8.813 7.997-9.352 21.54-1.395 30.206l51.511 56.098c9.898 10.779 22.712 18.214 36.695 21.569 2.372.569 4.062 2.66 4.062 5.099v119.336c0 1.773 1.437 3.21 3.21 3.21h104.526c1.773 0 3.21-1.437 3.21-3.21v-6.006z"/><path d="m325.35 228.836c8.197-3.615 13.085-12.149 12.024-21.045l-15.18-127.291c-.534-4.425.469-8.645 2.559-12.167-1.052-.177-2.128-.278-3.225-.278-11.602 0-20.594 10.142-19.203 21.661l17.121 141.838c1.691-.826 3.72-1.754 5.904-2.718z"/><path d="m381.986 48.035c-9.803 0-17.84 7.773-18.168 17.571l-3.954 118.201c-.07 2.098 1.241 3.995 3.229 4.67 8.622 2.928 17.614-3.331 17.862-12.433l3.083-113.284c.171-5.112 2.453-9.659 5.977-12.852-2.43-1.197-5.156-1.873-8.029-1.873z"/><path d="m440.608 69.231c-10.438-1.974-20.245 5.533-21.105 16.079l-7.419 91.017-.001.006c-.161 1.805 1.362 3.309 3.165 3.126 5.532-.563 9.9-4.94 10.443-10.474 2.287-23.327 7.991-81.509 7.995-81.52.632-7.755 6.108-13.85 13.109-15.757-1.839-1.189-3.921-2.048-6.187-2.477z"/></g><path d="m496.582 94.459c-5.779-2.653-12.438-2.72-18.268-.187-5.832 2.533-10.326 7.446-12.331 13.479l-6.066 18.251 2.646-37.456c.92-13.023-8.086-24.525-20.949-26.755-6.999-1.214-14.229.585-19.844 4.933-5.614 4.347-9.165 10.9-9.742 17.977l-1.17 14.351-3.306-35.238c-1.246-13.271-12.236-23.279-25.566-23.279-8.471 0-15.955 4.039-20.627 10.332-23.89-12.466-50.654-19.036-77.785-19.036-42.401 0-81.183 15.776-110.8 41.757-.571.381-1.085.839-1.533 1.36-17.088 15.359-31.023 34.155-40.704 55.294-.288.484-.522 1.002-.696 1.546-9.306 20.874-14.489 43.975-14.489 68.266 0 61.719 33.417 115.772 83.101 145.043.522.406 1.086.736 1.678.986 24.606 14.115 53.098 22.194 83.443 22.194 14.003 0 27.865-1.734 41.313-5.129v107.157c0 4.142 3.358 7.5 7.5 7.5s7.5-3.358 7.5-7.5v-118.316c1.819.125 3.644.211 5.478.211h10.86c4.142 0 7.5-3.358 7.5-7.5s-3.358-7.5-7.5-7.5h-10.86c-18.277 0-35.849-7.721-48.21-21.184l-51.511-56.098c-5.018-5.464-4.839-13.854.407-19.1 5.334-5.334 13.796-5.444 19.268-.25l33.553 31.853c3.192 3.031 7.792 4.121 12.006 2.846 4.213-1.275 7.437-4.734 8.412-9.027l7.482-32.938c.191-.84.236-1.706.132-2.561l-4.297-35.594c-.496-4.112-4.234-7.047-8.345-6.547-4.112.496-7.043 4.232-6.547 8.345l4.141 34.302-6.132 26.996-30.078-28.554c-11.414-10.836-29.073-10.607-40.201.522-10.946 10.945-11.318 28.451-.849 39.852l51.511 56.098c9.671 10.533 21.943 18.191 35.375 22.378-12.331 3.137-25.052 4.735-37.907 4.735-3.22 0-6.413-.112-9.584-.309-.231-.449-.51-.882-.841-1.291-14.88-18.406-26.166-37.914-33.543-57.983-1.43-3.888-5.738-5.88-9.627-4.452-3.888 1.429-5.881 5.739-4.452 9.627 6.5 17.682 15.783 34.912 27.658 51.375-16.19-3.271-31.462-9.101-45.376-17.051-26.539-31.103-36.762-72.042-30.364-121.723 3.859-29.958 12.945-54.366 16.736-63.612 10.719 2.759 22.788 6.839 35.017 12.878-4.112 9.058-11.842 29.046-14.401 55.972-.392 4.124 2.633 7.784 6.757 8.176.241.023.48.034.718.034 3.822 0 7.089-2.909 7.458-6.791 2.247-23.649 8.938-41.611 12.654-50.089 10.73 6.628 21.246 14.943 30.727 25.391 1.48 1.631 3.515 2.46 5.557 2.46 1.797 0 3.601-.643 5.038-1.946 3.067-2.784 3.298-7.527.514-10.594-23.533-25.934-56.541-43.971-95.457-52.162-16.137-3.397-30.103-4.462-39.545-4.725 8.003-14.554 18.304-27.671 30.408-38.868 16.12 1.628 88.691 11.017 120.933 50.061l3.559 29.482c.497 4.112 4.23 7.048 8.345 6.547 4.112-.496 7.043-4.232 6.547-8.345l-9.298-77.025c-.728-6.028 3.188-11.595 9.107-12.948 3.188-.728 6.444-.135 9.169 1.67 2.726 1.806 4.542 4.573 5.114 7.793l17.424 98.115c.765 4.308 4.626 7.315 8.999 7.012 4.365-.311 7.768-3.843 7.915-8.219l3.876-115.882c.194-5.787 4.881-10.321 10.672-10.321 5.543 0 10.114 4.162 10.631 9.681l10.492 111.822c.402 4.276 3.93 7.485 8.218 7.485h.053c4.312-.026 7.828-3.287 8.179-7.586l7.419-91.017c.239-2.931 1.651-5.536 3.976-7.336 2.325-1.801 5.202-2.514 8.098-2.013 5.25.91 8.924 5.604 8.549 10.918l-6.343 89.782c-.296 4.213 2.605 8.009 6.749 8.829 4.142.817 8.271-1.584 9.602-5.59l22.61-68.026c.672-2.022 2.119-3.604 4.073-4.453 1.955-.848 4.099-.827 6.034.062 3.004 1.378 4.739 4.621 4.221 7.885l-28.888 181.814c-3.628 22.835-23.042 39.409-46.164 39.409-4.142 0-7.5 3.358-7.5 7.5s3.358 7.5 7.5 7.5c5.648 0 11.127-.753 16.339-2.164v45.091c0 4.142 3.358 7.5 7.5 7.5s7.5-3.358 7.5-7.5v-51.381c15.448-9.055 26.637-24.704 29.639-43.601l28.888-181.814c1.565-9.879-3.69-19.695-12.782-23.869zm-317.292 50.173c-4.497 11.324-12.836 35.159-16.666 64.488-4.777 36.588-.811 69.775 11.472 98.014-27.044-27.644-43.744-65.446-43.744-107.081 0-20.761 4.159-40.567 11.673-58.639 6.743-.082 20.468.234 37.265 3.218zm16.541-70.116c11.385-7.982 23.9-14.453 37.254-19.127.553.108 1.123.161 1.71.141.115-.006 11.796-.417 26.313 2.213 11.302 2.048 26.256 6.354 37.324 15.352-2.966 4.948-4.355 10.876-3.614 17.018l2.87 23.777c-31.232-25.393-76.685-35.532-101.857-39.374zm158.677 45.078-6.64-37.388c-1.296-7.302-5.416-13.579-11.598-17.675s-13.568-5.44-20.797-3.788c-2.092.478-4.073 1.189-5.922 2.099-8.728-7.608-19.344-12.642-29.827-15.963 1.28-.032 2.563-.049 3.85-.049 25.446 0 50.525 6.351 72.758 18.362-.002.054-.008.107-.009.161z"/><path d="m443.333 417.627c-4.142 0-7.5 3.358-7.5 7.5v45.177c0 4.142 3.358 7.5 7.5 7.5s7.5-3.358 7.5-7.5v-45.177c0-4.142-3.358-7.5-7.5-7.5z"/><path d="m7.5 160.483h93.236c4.142 0 7.5-3.358 7.5-7.5s-3.358-7.5-7.5-7.5h-93.236c-4.142 0-7.5 3.358-7.5 7.5s3.358 7.5 7.5 7.5z"/><path d="m7.5 188.139h85.428c4.142 0 7.5-3.358 7.5-7.5s-3.358-7.5-7.5-7.5h-85.428c-4.142 0-7.5 3.358-7.5 7.5s3.358 7.5 7.5 7.5z"/><path d="m302.462 393.748c4.142 0 7.5-3.358 7.5-7.5s-3.358-7.5-7.5-7.5h-8.925c-1.259-2.375-3.753-3.995-6.628-3.995s-5.37 1.62-6.628 3.995h-41.754v-.551c0-4.142-3.358-7.5-7.5-7.5s-7.5 3.358-7.5 7.5v.551h-40.882v-6.409c0-4.142-3.358-7.5-7.5-7.5s-7.5 3.358-7.5 7.5v6.409h-40.881v-26.641h30.791c4.142 0 7.5-3.358 7.5-7.5s-3.358-7.5-7.5-7.5h-30.791v-34.141c0-4.142-3.358-7.5-7.5-7.5h-48.382v-26.641h23.672c4.142 0 7.5-3.358 7.5-7.5s-3.358-7.5-7.5-7.5h-23.672v-26.641h23.672c4.142 0 7.5-3.358 7.5-7.5s-3.358-7.5-7.5-7.5h-87.054c-4.142 0-7.5 3.358-7.5 7.5s3.358 7.5 7.5 7.5h48.382v26.641h-48.382c-4.142 0-7.5 3.358-7.5 7.5s3.358 7.5 7.5 7.5h48.382v26.641h-48.382c-4.142 0-7.5 3.358-7.5 7.5s3.358 7.5 7.5 7.5h48.382v26.641h-48.382c-4.142 0-7.5 3.358-7.5 7.5s3.358 7.5 7.5 7.5h48.382v26.641h-48.382c-4.142 0-7.5 3.358-7.5 7.5s3.358 7.5 7.5 7.5h48.382v26.641h-48.382c-4.142 0-7.5 3.358-7.5 7.5s3.358 7.5 7.5 7.5h294.962c4.142 0 7.5-3.358 7.5-7.5s-3.358-7.5-7.5-7.5h-8.053v-26.641zm-78.935 0v26.641h-40.882v-26.641zm-55.882 0v26.641h-40.881v-26.641zm-96.763-83.283h40.882v26.641h-40.882zm0 41.641h40.882v26.641h-40.882zm0 41.642h40.882v26.641h-40.882zm208.527 26.641h-40.882v-26.641h40.882z"/></svg>