<svg id="Capa_1" enable-background="new 0 0 510.82 510.82" height="512" viewBox="0 0 510.82 510.82" width="512" xmlns="http://www.w3.org/2000/svg"><path d="m285.673 378.792c29.31 17.346 47.261 30.922 47.261 30.922l119.945-162.718c1.171-1.588 3.689-.76 3.689 1.213v70.969c0 2.871-.964 5.659-2.739 7.916l-116.519 148.256c-13.879 17.659-35.096 27.97-57.556 27.97h-34.247-71.732-28.71c-48.673 0-88.925-38.401-90.65-87.044-.649-18.317.608-36.899 3.789-55.75 2.646-15.677 11.35-28.737 23.262-37.314 4.915-3.539 10.821-5.441 16.878-5.441h57.894 29.506z" fill="#ebebeb"/><path d="m324.011 468.939h-34.247-71.732-28.71c-48.673 0-88.925-38.401-90.65-87.044-.65-18.317.607-36.899 3.789-55.75.487-2.885 1.182-5.679 2.061-8.374h-6.179c-6.057 0-11.963 1.902-16.878 5.441-11.913 8.577-20.617 21.636-23.262 37.314-3.181 18.85-4.438 37.433-3.789 55.75 1.725 48.643 41.977 87.044 90.65 87.044h28.71 71.732 34.247c22.46 0 43.677-10.311 57.556-27.97l7.384-9.395c-6.642 1.957-13.6 2.984-20.682 2.984z" fill="#e2e2e2"/><path d="m249.603 477.601h18.959c3.561 0 6.448-2.887 6.448-6.448v-13.506c0-3.561-2.887-6.448-6.448-6.448h-18.934-82.492-18.934c-3.561 0-6.448 2.887-6.448 6.448v13.506c0 3.561 2.887 6.448 6.448 6.448h18.959z" fill="#cecece"/><path d="m253.315 426.915h25.909c3.561 0 6.448-2.887 6.448-6.448v-13.505c0-3.561-2.887-6.448-6.448-6.448h-13.074-115.535-13.075c-3.561 0-6.448 2.887-6.448 6.448v13.505c0 3.561 2.887 6.448 6.448 6.448h25.91z" fill="#cecece"/><path d="m456.568 319.178v-70.969c0-1.973-2.519-2.801-3.689-1.213l-51.655 70.076 35.607 31.651 16.999-21.629c1.774-2.257 2.738-5.045 2.738-7.916z" fill="#bfbfbf"/><circle cx="207.882" cy="153.125" fill="#ebebeb" r="145.625"/><path d="m154.042 135.009c0-53.981 29.373-101.101 73.006-126.253-6.273-.824-12.669-1.256-19.166-1.256-80.426 0-145.625 65.198-145.625 145.625s65.199 145.625 145.625 145.625c26.445 0 51.243-7.051 72.619-19.372-71.368-9.384-126.459-70.44-126.459-144.369z" fill="#cecece"/><path d="m144.179 340.36v10.129l28.041 39.499c12.973 18.273 19.942 40.128 19.942 62.538v50.793h32.44v-50.793c0-22.41 6.969-44.265 19.942-62.538l28.041-39.499v-10.129z" fill="#acacac"/><path d="m190.018 389.989-28.041-39.499v-10.13h-17.798v10.129l28.041 39.499c12.973 18.273 19.942 40.128 19.942 62.538v50.793h17.798v-50.793c0-22.409-6.969-44.264-19.942-62.537z" fill="#9e9797"/><path d="m281.778 298.75h-147.792c-9.879 0-17.888 8.009-17.888 17.888v15.964c0 9.879 8.009 17.888 17.888 17.888h147.792c9.879 0 17.888-8.009 17.888-17.888v-15.964c0-9.88-8.008-17.888-17.888-17.888z" fill="#838383"/><path d="m176.157 324.619c-14.288 0-25.87-11.582-25.87-25.87h-16.301c-9.879 0-17.888 8.009-17.888 17.888v15.964c0 9.879 8.009 17.888 17.888 17.888h147.793c9.879 0 17.888-8.009 17.888-17.888v-7.982z" fill="#766e6e"/><path d="m117.98 168.951c-9.072 0-16.426-7.354-16.426-16.426v-3.518c0-2.49 2.019-4.509 4.509-4.509h23.834c2.49 0 4.509 2.019 4.509 4.509v3.518c0 9.072-7.354 16.426-16.426 16.426z" fill="#acacac"/><path d="m176.564 168.951c-9.072 0-16.426-7.354-16.426-16.426v-3.518c0-2.49 2.019-4.509 4.509-4.509h23.834c2.49 0 4.509 2.019 4.509 4.509v3.518c0 9.072-7.354 16.426-16.426 16.426z" fill="#bfbfbf"/><path d="m176.564 262.648c-9.072 0-16.426-7.354-16.426-16.426v-5.083c0-1.626 1.318-2.945 2.945-2.945h26.963c1.626 0 2.945 1.318 2.945 2.945v5.083c-.001 9.072-7.355 16.426-16.427 16.426z" fill="#acacac"/><g fill="#bfbfbf"><path d="m238.186 262.648c-9.072 0-16.426-7.354-16.426-16.426v-5.083c0-1.626 1.318-2.945 2.945-2.945h26.963c1.626 0 2.945 1.318 2.945 2.945v5.083c-.001 9.072-7.355 16.426-16.427 16.426z"/><path d="m296.77 168.951c9.072 0 16.426-7.354 16.426-16.426v-3.518c0-2.49-2.019-4.509-4.509-4.509h-23.834c-2.49 0-4.509 2.019-4.509 4.509v3.518c0 9.072 7.354 16.426 16.426 16.426z"/><path d="m238.186 168.951c9.072 0 16.426-7.354 16.426-16.426v-3.518c0-2.49-2.019-4.509-4.509-4.509h-23.834c-2.49 0-4.509 2.019-4.509 4.509v3.518c0 9.072 7.354 16.426 16.426 16.426z"/></g><path d="m148.197 215.451c9.072 0 16.426-7.354 16.426-16.426v-4.403c0-2.002-1.623-3.624-3.624-3.624h-25.604c-2.002 0-3.624 1.623-3.624 3.624v4.403c0 9.072 7.354 16.426 16.426 16.426z" fill="#acacac"/><path d="m268.567 215.451c-9.072 0-16.426-7.354-16.426-16.426v-4.403c0-2.002 1.623-3.624 3.624-3.624h25.604c2.002 0 3.624 1.623 3.624 3.624v4.403c.001 9.072-7.354 16.426-16.426 16.426z" fill="#bfbfbf"/><path d="m208.382 215.451c9.072 0 16.426-7.354 16.426-16.426v-4.403c0-2.002-1.623-3.624-3.624-3.624h-25.604c-2.002 0-3.624 1.623-3.624 3.624v4.403c0 9.072 7.354 16.426 16.426 16.426z" fill="#bfbfbf"/><path d="m245.507 495.82h-13.404v-43.293c0-20.972 6.417-41.096 18.557-58.196l25.799-36.341h5.321c13.999 0 25.388-11.389 25.388-25.388v-15.964c0-13.999-11.389-25.388-25.388-25.388h-7.832c51.452-24.709 87.061-77.335 87.061-138.125-.002-84.434-68.693-153.125-153.127-153.125-84.433 0-153.124 68.691-153.124 153.125 0 60.789 35.608 113.416 87.06 138.125h-7.832c-13.999 0-25.388 11.389-25.388 25.388v15.964c0 13.999 11.389 25.388 25.388 25.388h6.32l25.799 36.341c8.556 12.051 14.439 26.146 17.013 40.759.641 3.639 3.806 6.2 7.377 6.2.432 0 .87-.038 1.31-.115 4.079-.719 6.804-4.608 6.085-8.688-2.958-16.79-9.72-32.987-19.555-46.839l-19.635-27.658h58.968c4.143 0 7.5-3.358 7.5-7.5s-3.357-7.5-7.5-7.5h-83.684c-5.728 0-10.388-4.66-10.388-10.388v-15.964c0-5.728 4.66-10.388 10.388-10.388h147.793c5.728 0 10.388 4.66 10.388 10.388v15.964c0 5.728-4.66 10.388-10.388 10.388h-34.109c-4.143 0-7.5 3.358-7.5 7.5s3.357 7.5 7.5 7.5h10.394l-19.635 27.658c-13.952 19.652-21.326 42.778-21.326 66.88v43.293h-17.441v-32.032c0-4.142-3.358-7.5-7.5-7.5s-7.5 3.358-7.5 7.5v32.032h-10.887c-4.142 0-7.5 3.358-7.5 7.5s3.358 7.5 7.5 7.5h71.732c4.143 0 7.5-3.358 7.5-7.5s-3.355-7.501-7.498-7.501zm-175.749-342.695c0-76.163 61.962-138.125 138.124-138.125s138.125 61.962 138.125 138.125c0 76.162-61.963 138.125-138.125 138.125s-138.124-61.963-138.124-138.125z"/><path d="m457.505 239.143c-3.926-1.292-8.211.077-10.663 3.404l-115.529 156.726c-7.665-5.428-22.173-15.308-41.82-26.936-3.563-2.108-8.163-.93-10.273 2.635s-.931 8.165 2.635 10.274c18.413 10.897 32.36 20.344 39.995 25.718l-9.659 10.988c-2.735 3.111-2.43 7.85.681 10.584 1.425 1.252 3.19 1.867 4.949 1.867 2.082 0 4.153-.862 5.636-2.548l15.111-17.19c.065-.074.121-.154.183-.23.074-.091.152-.177.221-.271l63.899-86.686 23.95 21.845-95.406 121.392c-12.539 15.954-31.368 25.104-51.659 25.104-4.143 0-7.5 3.358-7.5 7.5s3.357 7.5 7.5 7.5c24.924 0 48.051-11.239 63.452-30.835l119.259-151.741c1.039-1.321 1.604-2.954 1.604-4.634v-75.401c-.002-4.131-2.64-7.775-6.566-9.065zm-8.436 81.872-12.955 16.483-24.295-22.159 37.249-50.533v56.209z"/><path d="m145.065 495.82c-21.634 0-42.145-8.245-57.753-23.216-15.623-14.984-24.644-35.105-25.403-56.655-.625-17.732.617-35.959 3.691-54.174 2.739-16.231 13.319-30.146 28.301-37.221 3.746-1.769 5.348-6.239 3.579-9.984-1.769-3.746-6.241-5.348-9.984-3.579-19.417 9.169-33.131 27.221-36.687 48.288-3.242 19.211-4.551 38.456-3.891 57.199.897 25.473 11.555 49.25 30.011 66.952 18.416 17.663 42.613 27.391 68.137 27.391 4.142 0 7.5-3.358 7.5-7.5s-3.359-7.501-7.501-7.501z"/><path d="m167.137 458.701c4.142 0 7.5-3.358 7.5-7.5s-3.358-7.5-7.5-7.5h-18.934c-7.69 0-13.947 6.257-13.947 13.947v13.506c0 7.691 6.257 13.948 13.947 13.948h18.959c4.142 0 7.5-3.358 7.5-7.5s-3.358-7.5-7.5-7.5h-17.907v-11.401z"/><path d="m282.509 471.154v-13.506c0-7.69-6.257-13.947-13.947-13.947h-18.934c-4.143 0-7.5 3.358-7.5 7.5s3.357 7.5 7.5 7.5h17.881v11.401h-17.906c-4.143 0-7.5 3.358-7.5 7.5s3.357 7.5 7.5 7.5h18.959c7.69 0 13.947-6.257 13.947-13.948z"/><path d="m150.615 408.014c4.142 0 7.5-3.358 7.5-7.5s-3.358-7.5-7.5-7.5h-13.075c-7.691 0-13.948 6.257-13.948 13.948v13.505c0 7.691 6.257 13.948 13.948 13.948h25.91c4.142 0 7.5-3.358 7.5-7.5s-3.358-7.5-7.5-7.5h-24.858v-11.401z"/><path d="m253.316 419.415c-4.143 0-7.5 3.358-7.5 7.5s3.357 7.5 7.5 7.5h25.908c7.691 0 13.948-6.257 13.948-13.948v-13.505c0-7.691-6.257-13.948-13.947-13.948h-13.075c-4.143 0-7.5 3.358-7.5 7.5s3.357 7.5 7.5 7.5h12.022v11.401z"/><path d="m141.906 152.525v-3.518c0-6.622-5.387-12.009-12.009-12.009h-23.834c-6.622 0-12.009 5.387-12.009 12.009v3.518c0 13.193 10.733 23.926 23.926 23.926s23.926-10.733 23.926-23.926zm-15 0c0 4.922-4.004 8.926-8.926 8.926s-8.926-4.004-8.926-8.926v-.527h17.853v.527z"/><path d="m176.564 176.451c13.193 0 23.926-10.733 23.926-23.926v-3.518c0-6.622-5.387-12.009-12.009-12.009h-23.834c-6.622 0-12.009 5.387-12.009 12.009v3.518c0 13.193 10.733 23.926 23.926 23.926zm-8.926-24.453h17.853v.527c0 4.922-4.004 8.926-8.926 8.926s-8.926-4.004-8.926-8.926v-.527z"/><path d="m190.046 230.695h-26.963c-5.759 0-10.445 4.686-10.445 10.445v5.083c0 13.193 10.733 23.926 23.926 23.926s23.926-10.733 23.926-23.926v-5.083c.001-5.76-4.685-10.445-10.444-10.445zm-4.555 15.527c0 4.922-4.004 8.926-8.926 8.926s-8.926-4.004-8.926-8.926v-.527h17.853v.527z"/><path d="m251.667 230.695h-26.963c-5.76 0-10.445 4.686-10.445 10.445v5.083c0 13.193 10.733 23.926 23.927 23.926 13.192 0 23.926-10.733 23.926-23.926v-5.083c0-5.76-4.686-10.445-10.445-10.445zm-4.555 15.527c0 4.922-4.004 8.926-8.926 8.926s-8.927-4.004-8.927-8.926v-.527h17.853z"/><path d="m320.697 152.525v-3.518c0-6.622-5.388-12.009-12.01-12.009h-23.834c-6.622 0-12.009 5.387-12.009 12.009v3.518c0 13.193 10.733 23.926 23.926 23.926s23.927-10.733 23.927-23.926zm-15 0c0 4.922-4.005 8.926-8.927 8.926s-8.926-4.004-8.926-8.926v-.527h17.853z"/><path d="m238.186 176.451c13.192 0 23.926-10.733 23.926-23.926v-3.518c0-6.622-5.387-12.009-12.009-12.009h-23.834c-6.622 0-12.01 5.387-12.01 12.009v3.518c0 13.193 10.734 23.926 23.927 23.926zm-8.927-24.453h17.853v.527c0 4.922-4.004 8.926-8.926 8.926s-8.927-4.004-8.927-8.926z"/><path d="m172.123 199.024v-4.403c0-6.134-4.99-11.125-11.125-11.125h-25.604c-6.134 0-11.124 4.99-11.124 11.125v4.403c0 13.193 10.733 23.926 23.926 23.926s23.927-10.733 23.927-23.926zm-15 0c0 4.922-4.004 8.926-8.926 8.926s-8.926-4.004-8.926-8.926v-.527h17.853v.527z"/><path d="m281.369 183.497h-25.604c-6.134 0-11.124 4.99-11.124 11.125v4.403c0 13.193 10.733 23.926 23.927 23.926 13.192 0 23.926-10.733 23.926-23.926v-4.403c-.001-6.135-4.991-11.125-11.125-11.125zm-3.876 15.527c0 4.922-4.004 8.926-8.926 8.926s-8.927-4.004-8.927-8.926v-.527h17.853z"/><path d="m232.308 199.024v-4.403c0-6.134-4.99-11.125-11.124-11.125h-25.604c-6.134 0-11.124 4.99-11.124 11.125v4.403c0 13.193 10.733 23.926 23.926 23.926 13.193.001 23.926-10.733 23.926-23.926zm-15 0c0 4.922-4.004 8.926-8.926 8.926s-8.926-4.004-8.926-8.926v-.527h17.852z"/></svg>