<svg id="Capa_1" enable-background="new 0 0 511.832 511.832" height="512" viewBox="0 0 511.832 511.832" width="512" xmlns="http://www.w3.org/2000/svg"><path d="m497.572 134.517h-179.64c-88.47 0-161.352 71.128-161.599 159.597-.246 88.459 71.646 160.503 160.049 160.503h181.19c3.733 0 6.76-3.026 6.76-6.76v-306.58c0-3.734-3.027-6.76-6.76-6.76z" fill="#08a9f1"/><path d="m119.427 406.698-20.425-126.861-2.58-4.74c-3.14-5.76-4.78-12.21-4.78-18.77v-15.46c0-5.58 2.28-10.91 6.31-14.76 1.86-1.78 3.32-3.9 4.31-6.22.99-2.33 1.52-4.85 1.52-7.42v-16.38c0-16.75-13.58-30.34-30.34-30.34-8.37 0-15.96 3.39-21.45 8.88s-8.88 13.07-8.89 21.45l-.01 16.39c0 5.15 2.11 10.08 5.84 13.64 2.02 1.93 3.59 4.22 4.67 6.73 1.07 2.51 1.64 5.24 1.64 8.03v15.46c0 6.56-1.64 13.01-4.78 18.77l-19.38 35.61c-8.34 15.31-12.71 32.47-12.71 49.91 0 9.4 1.27 18.72 3.74 27.71 2.48 8.98 6.16 17.63 10.97 25.71l5.83 9.8c2.33 3.9 6.53 6.29 11.07 6.29h46.92c4.54 0 8.74-2.39 11.06-6.29l5.84-9.8.23-.14-.054-.09z" fill="#ebebeb"/><path d="m62.456 423.837-5.83-9.8c-4.81-8.08-8.49-16.73-10.97-25.71-2.47-8.99-3.74-18.31-3.74-27.71 0-17.44 4.37-34.6 12.71-49.91l19.38-35.61c3.14-5.76 4.78-12.21 4.78-18.77v-15.46c0-2.79-.57-5.52-1.64-8.03-1.08-2.51-2.65-4.8-4.67-6.73-3.73-3.56-5.84-8.49-5.84-13.64l.01-16.39c.01-8.38 3.4-15.96 8.89-21.45 2.753-2.753 6.034-4.977 9.677-6.511-3.619-1.525-7.595-2.369-11.77-2.369-8.37 0-15.96 3.39-21.45 8.88s-8.88 13.07-8.89 21.45l-.01 16.39c0 5.15 2.11 10.08 5.84 13.64 2.02 1.93 3.59 4.22 4.67 6.73 1.07 2.51 1.64 5.24 1.64 8.03v15.46c0 6.56-1.64 13.01-4.78 18.77l-19.38 35.61c-8.34 15.31-12.71 32.47-12.71 49.91 0 9.4 1.27 18.72 3.74 27.71 2.48 8.98 6.16 17.63 10.97 25.71l5.83 9.8c2.33 3.9 6.53 6.29 11.07 6.29h23.543c-4.54 0-8.74-2.39-11.07-6.29z" fill="#cecece"/><path d="m95.089 291.656c1.139-3.99 2.439-7.934 3.913-11.819l-2.58-4.74c-2.508-4.6-4.041-9.643-4.564-14.828h-36.832c-.523 5.185-2.056 10.228-4.564 14.828l-9.012 16.559z" fill="#ffd3d6"/><path d="m78.569 260.269h-23.543c-.523 5.185-2.056 10.228-4.564 14.828l-9.012 16.559h23.543l9.012-16.559c2.508-4.6 4.041-9.643 4.564-14.828z" fill="#fdb4ba"/><path d="m54.441 264.155h38.002c-.522-2.567-.801-5.187-.801-7.828v-15.46c0-1.107.115-2.199.29-3.277h-36.98c.175 1.078.29 2.17.29 3.277v15.46c0 2.641-.278 5.261-.801 7.828z" fill="#fe646f"/><path d="m54.441 264.155h38.002c-.522-2.567-.801-5.187-.801-7.828v-15.46c0-1.107.115-2.199.29-3.277h-36.98c.175 1.078.29 2.17.29 3.277v15.46c0 2.641-.278 5.261-.801 7.828z" fill="#fe646f"/><path d="m78.786 240.867c0-1.107-.115-2.199-.29-3.277h-23.543c.175 1.078.29 2.17.29 3.277v15.46c0 2.641-.278 5.261-.801 7.828h23.543c.522-2.567.801-5.187.801-7.828z" fill="#fb2b3a"/><path d="m206.542 224.247-7-12.85c-4.42-8.13-6.74-17.23-6.74-26.48v-21.82c0-7.87 3.22-15.39 8.91-20.82 2.62-2.51 4.68-5.5 6.08-8.78 1.4-3.27 2.15-6.82 2.15-10.46v-23.11c0-23.64-19.17-42.81-42.81-42.81-11.82 0-22.52 4.79-30.27 12.53-7.74 7.75-12.53 18.45-12.54 30.26l-.01 23.13c0 7.27 2.97 14.22 8.23 19.24 2.85 2.72 5.07 5.95 6.59 9.5 1.52 3.54 2.32 7.38 2.32 11.32v21.82c0 9.25-2.32 18.35-6.75 26.48l-27.35 50.24c-3.2 5.89-5.99 11.97-8.35 18.2-6.31 16.63-9.57 34.32-9.57 52.22 0 13.26 1.79 26.41 5.28 39.09 3.49 12.67 8.68 24.89 15.47 36.28l3.85 6.47 6.96 11.68c1.68 2.82 4.72 4.55 8 4.55h76.26c3.29 0 6.33-1.73 8.01-4.55l10.81-18.15c2.43-4.07 4.65-8.25 6.66-12.51z" fill="#ebebeb"/><path d="m146.798 425.577-6.96-11.68-3.85-6.47c-6.79-11.39-11.98-23.61-15.47-36.28-3.49-12.68-5.28-25.83-5.28-39.09 0-17.9 3.26-35.59 9.57-52.22 2.36-6.23 5.15-12.31 8.35-18.2l27.35-50.24c4.43-8.13 6.75-17.23 6.75-26.48v-21.82c0-3.94-.8-7.78-2.32-11.32-1.52-3.55-3.74-6.78-6.59-9.5-5.26-5.02-8.23-11.97-8.23-19.24l.01-23.13c.01-11.81 4.8-22.51 12.54-30.26 4.801-4.795 10.736-8.454 17.366-10.547-4.072-1.286-8.405-1.983-12.901-1.983-11.82 0-22.52 4.79-30.27 12.53-7.74 7.75-12.53 18.45-12.54 30.26l-.01 23.13c0 7.27 2.97 14.22 8.23 19.24 2.85 2.72 5.07 5.95 6.59 9.5 1.52 3.54 2.32 7.38 2.32 11.32v21.82c0 9.25-2.32 18.35-6.75 26.48l-27.35 50.24c-3.2 5.89-5.99 11.97-8.35 18.2-6.31 16.63-9.57 34.32-9.57 52.22 0 13.26 1.79 26.41 5.28 39.09 3.49 12.67 8.68 24.89 15.47 36.28l3.85 6.47 6.96 11.68c1.68 2.82 4.72 4.55 8 4.55h25.805c-3.28 0-6.32-1.73-8-4.55z" fill="#cecece"/><path d="m199.542 211.397c-4.42-8.13-6.74-17.23-6.74-26.48v-4.799h-51.35v4.799c0 9.25-2.32 18.35-6.75 26.48l-.402.739h65.645z" fill="#ffd3d6"/><path d="m167.258 184.917v-4.799h-25.805v4.799c0 9.25-2.32 18.35-6.75 26.48l-.402.739h25.805l.402-.739c4.43-8.13 6.75-17.23 6.75-26.48z" fill="#fdb4ba"/><path d="m193.142 158.693h-52.027c.223 1.447.338 2.918.338 4.404v21.82c0 .403-.029.804-.038 1.207h51.426c-.009-.403-.038-.803-.038-1.207v-21.82c-.001-1.484.114-2.956.339-4.404z" fill="#fe646f"/><path d="m167.258 184.917v-21.82c0-1.486-.114-2.958-.338-4.404h-25.805c.1.648.17 1.302.226 1.959.013.155.025.31.036.466.045.657.076 1.316.076 1.98v21.82c0 .403-.029.804-.038 1.207h25.805c.009-.404.038-.805.038-1.208z" fill="#fb2b3a"/><path d="m316.382 424.617c-71.71 0-130.05-58.34-130.05-130.05s58.34-130.05 130.05-130.05h187.95v260.1z" fill="#01d0fb"/><path d="m316.382 394.617c-55.168 0-100.05-44.882-100.05-100.05s44.882-100.05 100.05-100.05h187.95v200.1z" fill="#08a9f1"/><path d="m316.382 361.617c-36.972 0-67.05-30.079-67.05-67.05 0-36.972 30.078-67.05 67.05-67.05h187.95v134.1z" fill="#01d0fb"/><path d="m316.382 331.617c-20.43 0-37.05-16.621-37.05-37.05 0-20.43 16.62-37.05 37.05-37.05h187.95v74.1z" fill="#08a9f1"/><path d="m415.432 294.567c0 12.74-2.41 24.92-6.79 36.11-14.43 36.84-50.3 62.94-92.26 62.94-54.7 0-99.05-44.35-99.05-99.05 0-54.71 44.35-99.05 99.05-99.05s99.05 44.34 99.05 99.05z" fill="#838383"/><path d="m355.416 363.205c-54.7 0-99.05-44.35-99.05-99.05 0-22.776 7.692-43.751 20.611-60.482-35.094 15.235-59.645 50.192-59.645 90.894 0 54.7 44.35 99.05 99.05 99.05 31.927 0 60.316-15.12 78.429-38.575-12.075 5.243-25.393 8.163-39.395 8.163z" fill="#766e6e"/><g fill="#5a5a5a"><circle cx="308.891" cy="294.564" r="14.705"/><circle cx="306.339" cy="347.785" r="14.705"/><circle cx="258.483" cy="306.644" r="14.705"/></g><path d="m435.255 417.469c-4.143 0-7.5 3.358-7.5 7.5s3.357 7.5 7.5 7.5h22.104c4.143 0 7.5-3.358 7.5-7.5s-3.357-7.5-7.5-7.5z"/><path d="m461.386 354.99c-4.143 0-7.5 3.358-7.5 7.5s3.357 7.5 7.5 7.5h16.43c4.143 0 7.5-3.358 7.5-7.5s-3.357-7.5-7.5-7.5z"/><path d="m502.245 258.455c0-4.142-3.357-7.5-7.5-7.5h-81.152c-2.662-5.912-5.853-11.535-9.503-16.818h65.56c4.143 0 7.5-3.358 7.5-7.5s-3.357-7.5-7.5-7.5h-78.083c-6.125-6.106-12.989-11.469-20.44-15.951 17.553-.016 41.447-.069 74.008-.173 4.142-.013 7.489-3.382 7.476-7.524-.014-4.134-3.368-7.476-7.5-7.476-.008 0-.016 0-.024 0-45.891.147-126.804 0-128.704 0-58.752 0-106.55 47.798-106.55 106.55s47.798 106.55 106.55 106.55h171.803c4.143 0 7.5-3.358 7.5-7.5s-3.357-7.5-7.5-7.5h-117.28c2.107-1.259 4.182-2.583 6.212-3.994 5.231-3.635 10.081-7.7 14.529-12.13h39.74c4.143 0 7.5-3.358 7.5-7.5s-3.357-7.5-7.5-7.5h-27.227c3.384-4.914 6.354-10.121 8.885-15.578h62.533c4.143 0 7.5-3.358 7.5-7.5s-3.357-7.5-7.5-7.5h-56.887c2.121-7.273 3.456-14.744 3.983-22.348h52.904c4.143 0 7.5-3.358 7.5-7.5s-3.357-7.5-7.5-7.5h-52.913c-.507-7.259-1.744-14.319-3.638-21.108h75.718c4.143 0 7.5-3.358 7.5-7.5zm-133.688 111.347c-15.357 10.671-33.398 16.312-52.175 16.312-50.48 0-91.55-41.069-91.55-91.55s41.069-91.55 91.55-91.55 91.551 41.069 91.551 91.55c0 11.521-2.11 22.75-6.272 33.375-4.271 10.902-10.539 20.772-18.456 29.209-.054.053-.105.11-.157.165-4.355 4.617-9.196 8.81-14.491 12.489z"/><path d="m504.332 447.212h-187.95c-32.739 0-63.668-10.086-89.861-29.235l3.996-6.708c1.204-2.022 2.366-4.086 3.484-6.175 23.002 17.188 51.524 27.376 82.381 27.376h88.873c4.143 0 7.5-3.358 7.5-7.5s-3.357-7.5-7.5-7.5h-88.873c-67.771 0-122.906-55.136-122.906-122.906s55.136-122.906 122.906-122.906h150.007c4.143 0 7.5-3.358 7.5-7.5s-3.357-7.5-7.5-7.5h-150.007c-44.268 0-83.725 20.971-108.976 53.494l-1.273-2.339c-2.299-4.222-3.931-8.778-4.875-13.477 29.052-33.354 70.81-52.42 115.124-52.42h187.95c4.143 0 7.5-3.358 7.5-7.5s-3.357-7.5-7.5-7.5h-187.95c-43.623 0-84.994 16.817-116.078 46.68v-10.499c0-5.79 2.4-11.403 6.587-15.4 6.704-6.402 10.549-15.39 10.549-24.659v-23.11c0-27.74-22.568-50.308-50.309-50.308-27.728 0-50.295 22.558-50.308 50.285l-.011 23.133c0 9.27 3.845 18.257 10.548 24.659 4.187 3.998 6.588 9.611 6.588 15.4v21.816c0 7.978-2.016 15.896-5.829 22.899l-.509.935c-.01.018-.02.037-.03.055l-26.812 49.247c-.457.839-.89 1.691-1.331 2.538-.192-1.411-.297-2.834-.297-4.261v-15.463c0-3.509 1.456-6.912 3.994-9.335 5.181-4.947 8.151-11.893 8.151-19.057v-16.38c0-20.866-16.976-37.841-37.841-37.841-20.856 0-37.832 16.968-37.842 37.825l-.007 16.396c0 7.164 2.972 14.11 8.152 19.057 2.537 2.424 3.993 5.827 3.993 9.336v15.463c0 5.29-1.337 10.541-3.866 15.187l-19.385 35.606c-8.91 16.366-13.62 34.865-13.62 53.498 0 20.15 5.451 39.951 15.765 57.262l2.829 4.749h-21.963c-4.143 0-7.5 3.358-7.5 7.5s3.357 7.5 7.5 7.5h42.481 46.92 32.095 54.754 21.506c5.314 0 10.331-2.563 13.48-6.778 28.547 20.542 62.126 31.362 97.646 31.362h187.95c4.143 0 7.5-3.358 7.5-7.5s-3.357-7.501-7.5-7.501zm-319.028-281.019v12.431h-36.355v-12.431zm-36.973 27.431h37.591c.536 3.814 1.419 7.574 2.638 11.226h-42.867c1.219-3.652 2.102-7.412 2.638-11.226zm-16.508-93.713c.009-19.46 15.848-35.292 35.308-35.292 19.469 0 35.309 15.839 35.309 35.308v23.11c0 5.191-2.153 10.225-5.908 13.811-4.186 3.997-7.315 8.946-9.194 14.344h-40.422c-1.88-5.397-5.009-10.346-9.195-14.344-3.754-3.585-5.907-8.62-5.907-13.808zm-47.682 145.179v11.237c0 .11.01.219.01.329h-21.419c.001-.11.01-.219.01-.329v-11.237zm-27.091 33.596c1.227-2.254 2.244-4.612 3.083-7.031h26.618c.838 2.418 1.855 4.776 3.082 7.03l.966 1.775c-.542 1.536-1.06 3.081-1.553 4.633h-35.684zm-6.446-82.605c.006-12.589 10.253-22.831 22.842-22.831 12.595 0 22.841 10.247 22.841 22.841v16.38c0 3.086-1.279 6.078-3.511 8.208-2.796 2.67-4.98 5.891-6.454 9.41h-25.76c-1.474-3.519-3.658-6.74-6.454-9.41-2.231-2.131-3.512-5.123-3.512-8.206zm154.652 226.547h-21.506-54.754c-.638 0-1.236-.34-1.563-.888l-10.812-18.148c-2.228-3.74-4.334-7.701-6.259-11.771-1.771-3.744-6.241-5.344-9.987-3.573-3.744 1.771-5.344 6.242-3.573 9.987 2.129 4.5 4.461 8.885 6.933 13.034l1.495 2.51-3.708 6.224c-.965 1.62-2.735 2.625-4.621 2.625h-46.92c-1.886 0-3.656-1.006-4.621-2.626l-5.838-9.8c-8.931-14.991-13.651-32.137-13.651-49.585 0-16.134 4.078-32.154 11.794-46.326l7.73-14.198h39.9c-2.217 10.489-3.367 21.208-3.367 31.962 0 11.598 1.328 23.257 3.946 34.652.798 3.472 3.886 5.822 7.303 5.822.557 0 1.121-.062 1.687-.192 4.037-.928 6.558-4.952 5.63-8.989-2.366-10.295-3.565-20.824-3.565-31.293 0-23.277 5.884-46.388 17.015-66.833l24.702-45.373h56.962l2.295 4.216c-12.329 20.643-19.427 44.756-19.427 70.498 0 39.673 16.846 75.48 43.752 100.663-1.441 2.842-2.977 5.646-4.598 8.366l-10.812 18.148c-.326.548-.924.888-1.562.888z"/><path d="m308.892 272.358c-12.244 0-22.205 9.961-22.205 22.206s9.961 22.205 22.205 22.205 22.205-9.961 22.205-22.205-9.961-22.206-22.205-22.206zm0 29.411c-3.973 0-7.205-3.232-7.205-7.205s3.232-7.206 7.205-7.206 7.205 3.232 7.205 7.206-3.233 7.205-7.205 7.205z"/><path d="m306.339 325.579c-12.244 0-22.205 9.961-22.205 22.205s9.961 22.206 22.205 22.206 22.205-9.961 22.205-22.206-9.961-22.205-22.205-22.205zm0 29.411c-3.973 0-7.205-3.232-7.205-7.206s3.232-7.205 7.205-7.205 7.205 3.232 7.205 7.205-3.232 7.206-7.205 7.206z"/><path d="m258.483 284.439c-12.244 0-22.205 9.961-22.205 22.205s9.961 22.205 22.205 22.205 22.205-9.961 22.205-22.205-9.96-22.205-22.205-22.205zm0 29.41c-3.973 0-7.205-3.232-7.205-7.205s3.232-7.205 7.205-7.205 7.205 3.232 7.205 7.205-3.232 7.205-7.205 7.205z"/></svg>