<svg id="Capa_1" enable-background="new 0 0 511.573 511.573" height="512" viewBox="0 0 511.573 511.573" width="512" xmlns="http://www.w3.org/2000/svg"><circle cx="255.786" cy="267.109" fill="#01d0fb" r="237.721"/><circle cx="255.786" cy="267.109" fill="#c8effe" r="178.099"/><path d="m310.564 162 78.697-154.5h-112.426l-26.014 51.072-8.884 18.463v115.114h69.238z" fill="#fe646f"/><path d="m263.311 34.051-12.49 24.521-8.884 18.463v115.114h69.238l-.611-30.149 2.927-5.747z" fill="#fd4755"/><path d="m285.094 142.039 68.53-134.539h-41.152l-45.745 89.808-4.195 7.708v68.234h22.472z" fill="#fef1da"/><path d="m266.727 97.308-4.195 7.708v68.234h22.472l.09-31.211 12.491-24.522-18.368-44.73z" fill="#fddeb0"/><path d="m289.83 153.572-59.982-146.072h-108.296l66.634 162.269 10.098 25.141h91.546z" fill="#fe646f"/><path d="m253.473 148.629-57.952-141.129h-39.641l60.674 147.757 5.944 15.264h30.536z" fill="#fef1da"/><circle cx="255.786" cy="267.109" fill="#f4d902" r="118.51"/><path d="m324.201 363.044c-65.451 0-118.51-53.059-118.51-118.51 0-39.442 19.274-74.378 48.911-95.92-64.905.636-117.326 53.439-117.326 118.495 0 65.451 53.059 118.51 118.51 118.51 26.009 0 50.055-8.385 69.599-22.59-.395.004-.788.015-1.184.015z" fill="#e3ca00"/><circle cx="255.786" cy="267.109" fill="#fee903" r="83.799"/><path d="m293.813 310.181c-46.281 0-83.799-37.518-83.799-83.799 0-11.939 2.513-23.286 7.013-33.564-26.763 13.992-45.04 41.999-45.04 74.292 0 46.281 37.518 83.799 83.799 83.799 34.342 0 63.843-20.667 76.786-50.234-11.593 6.06-24.77 9.506-38.759 9.506z" fill="#fed402"/><path d="m225.742 223.695v25.324c0 1.737 1.408 3.145 3.145 3.145h20.177v58.354c0 2.273 1.842 4.115 4.115 4.115h23.031c2.273 0 4.115-1.842 4.115-4.115v-77.726c0-6.761-5.481-12.242-12.242-12.242h-39.196c-1.737 0-3.145 1.408-3.145 3.145z" fill="#e3ca00"/><path d="m83.517 186.68c-5.246 8.804-12.102 15.846-20.793 20.88-1.42.822-1.379 2.875.035 3.708 9.078 5.342 16.144 12.083 20.808 20.493.807 1.456 2.912 1.466 3.731.016 4.886-8.658 11.757-15.576 20.754-20.629 1.449-.814 1.503-2.855.091-3.731-8.533-5.293-15.724-11.968-20.895-20.719-.845-1.43-2.881-1.445-3.731-.018z" fill="#fee903"/><path d="m384.147 366.424c-3.753 5.625-8.35 10.327-13.879 14.009-2.3 1.531-2.307 4.913.004 6.428 5.717 3.749 10.393 8.221 13.88 13.52 1.549 2.354 4.958 2.364 6.499.004 3.576-5.477 8.172-10.058 13.845-13.696 2.304-1.478 2.382-4.851.123-6.396-5.523-3.777-10.307-8.314-14.079-13.891-1.534-2.265-4.875-2.253-6.393.022z" fill="#fee903"/><path d="m255.786 452.947c38.51 0 75.453-11.675 106.838-33.762 3.388-2.384 4.201-7.063 1.817-10.45-2.385-3.388-7.062-4.201-10.45-1.817-28.844 20.299-62.803 31.029-98.205 31.029-94.2 0-170.838-76.637-170.838-170.837 0-4.142-3.357-7.5-7.5-7.5s-7.5 3.358-7.5 7.5c0 102.471 83.367 185.837 185.838 185.837z"/><path d="m429.708 332.72c1.463-3.875-.493-8.203-4.368-9.665-3.872-1.463-8.203.492-9.665 4.368-2.851 7.552-6.275 14.97-10.178 22.048-2 3.627-.682 8.189 2.946 10.189 1.148.633 2.39.934 3.614.934 2.644 0 5.208-1.401 6.574-3.88 4.249-7.702 7.975-15.775 11.077-23.994z"/><path d="m437.916 304.22c2.46-12.139 3.708-24.625 3.708-37.11 0-61.831-30.628-119.437-81.93-154.095-3.432-2.317-8.094-1.416-10.413 2.016-2.318 3.433-1.416 8.095 2.017 10.414 47.167 31.865 75.326 84.824 75.326 141.666 0 11.487-1.147 22.971-3.409 34.131-.823 4.06 1.801 8.018 5.86 8.84.503.102 1.004.151 1.498.151 3.495-.002 6.623-2.457 7.343-6.013z"/><path d="m117.811 161.605c2.169 0 4.32-.936 5.804-2.745 7.597-9.265 16.193-17.757 25.551-25.241 3.234-2.587 3.76-7.307 1.173-10.542-2.588-3.235-7.308-3.76-10.542-1.172-10.174 8.137-19.521 17.371-27.781 27.444-2.626 3.203-2.159 7.929 1.044 10.555 1.394 1.144 3.077 1.701 4.751 1.701z"/><path d="m391.105 63.483c-3.445-2.295-8.102-1.362-10.399 2.086-2.295 3.448-1.361 8.104 2.087 10.399 64.155 42.718 102.457 114.172 102.457 191.141 0 61.292-23.868 118.915-67.209 162.255-43.34 43.34-100.963 67.208-162.255 67.208s-118.915-23.868-162.255-67.208c-43.341-43.34-67.209-100.963-67.209-162.255 0-37.088 8.572-72.481 25.479-105.195 16.133-31.219 39.653-58.767 68.019-79.666 3.334-2.457 4.046-7.152 1.589-10.487s-7.15-4.046-10.487-1.589c-30.21 22.258-55.262 51.6-72.447 84.855-17.764 34.373-27.152 73.13-27.152 112.082 0 65.298 25.429 126.689 71.602 172.862 46.174 46.173 107.563 71.602 172.862 71.602s126.688-25.429 172.862-71.602c46.173-46.173 71.602-107.563 71.602-172.862-.001-81.999-40.803-158.121-109.146-203.626z"/><path d="m164.488 267.109c0 21.761 7.805 42.849 21.976 59.38 2.695 3.144 7.43 3.509 10.575.813s3.509-7.431.813-10.576c-11.843-13.814-18.364-31.435-18.364-49.618 0-42.071 34.228-76.299 76.299-76.299s76.299 34.228 76.299 76.299-34.228 76.299-76.299 76.299c-12.841 0-25.543-3.257-36.734-9.418-3.63-1.999-8.189-.675-10.188 2.953-1.997 3.628-.676 8.189 2.953 10.187 13.401 7.379 28.605 11.279 43.969 11.279 50.343 0 91.299-40.957 91.299-91.299s-40.956-91.299-91.299-91.299-91.299 40.957-91.299 91.299z"/><path d="m253.179 322.133h23.03c6.405 0 11.616-5.21 11.616-11.615v-77.727c0-10.885-8.856-19.741-19.742-19.741h-39.196c-5.869 0-10.645 4.775-10.645 10.645v25.324c0 5.87 4.775 10.645 10.645 10.645h12.677v50.854c0 6.404 5.211 11.615 11.615 11.615zm-19.937-77.469v-16.614h34.841c2.615 0 4.742 2.127 4.742 4.741v74.342h-16.262v-54.969c0-4.142-3.357-7.5-7.5-7.5z"/><path d="m108.077 15h8.447l62.516 152.24c-29.936 23.059-49.263 59.247-49.263 99.869 0 69.482 56.527 126.01 126.01 126.01s126.01-56.528 126.01-126.01c0-45.839-24.606-86.034-61.3-108.085l73.36-144.024h8.215c4.143 0 7.5-3.358 7.5-7.5s-3.357-7.5-7.5-7.5h-135.852c-4.143 0-7.5 3.358-7.5 7.5 0 3.614 2.556 6.63 5.96 7.34l-13.127 25.771-10.517-25.611h5.06c4.143 0 7.5-3.358 7.5-7.5s-3.357-7.5-7.5-7.5h-138.019c-4.143 0-7.5 3.358-7.5 7.5s3.358 7.5 7.5 7.5zm258.719 252.109c0 61.211-49.799 111.01-111.01 111.01s-111.01-49.799-111.01-111.01c0-60.41 48.505-109.699 108.613-110.979h.033c.786-.017 1.573-.03 2.364-.03 61.211 0 111.01 49.798 111.01 111.009zm-59.594-115.033c-3.823-1.715-7.746-3.243-11.758-4.577l-2.104-5.124 25.26-49.592c1.881-3.691.412-8.207-3.278-10.087-3.691-1.878-8.207-.413-10.087 3.279l-19.408 38.102-10.855-26.434 42.096-82.643h24.319l-22.536 44.242c-1.881 3.691-.412 8.207 3.278 10.087 1.091.555 2.253.818 3.398.818 2.73 0 5.364-1.497 6.688-4.097l26.006-51.05h18.803zm-25.77-137.076h18.803l-32.776 64.347-8.393-20.439zm-4.068 127.955c-6.147-1.065-12.446-1.685-18.861-1.821l-51.795-126.134h18.113zm-86.872-127.955 52.066 126.793c-7.44.78-14.688 2.21-21.688 4.232l-53.802-131.025zm-39.64 0 55.865 136.047c-5.185 2.2-10.189 4.746-14.994 7.594l-58.983-143.641z"/><path d="m92.106 179.949c-1.261-2.514-3.822-4.112-6.635-4.138-.023 0-.046 0-.069 0-2.786 0-5.345 1.545-6.642 4.015-5.524 10.528-12.963 17.993-22.739 22.821-2.531 1.25-4.146 3.814-4.179 6.637s1.521 5.425 4.022 6.733c11.1 5.808 18.522 13.161 22.691 22.479 1.194 2.67 3.833 4.402 6.758 4.437h.089c2.891 0 5.527-1.663 6.771-4.278 4.841-10.175 12.216-17.544 22.547-22.528 2.52-1.215 4.154-3.733 4.238-6.53.084-2.796-1.396-5.408-3.839-6.772-10.791-6.032-18.319-13.514-23.013-22.876zm-6.688 41.061c-3.32-4.273-7.318-8.158-11.975-11.638 4.45-3.439 8.44-7.476 11.955-12.092 3.391 4.338 7.387 8.272 12.025 11.842-4.571 3.41-8.579 7.379-12.005 11.888z"/><path d="m380.523 409.315c1.194 2.67 3.833 4.402 6.758 4.437h.089c2.891 0 5.527-1.663 6.771-4.278 4.104-8.626 10.358-14.874 19.12-19.1 2.52-1.216 4.153-3.733 4.238-6.53.084-2.797-1.396-5.408-3.839-6.773-9.195-5.138-15.603-11.5-19.588-19.448-1.261-2.515-3.822-4.112-6.635-4.138-2.792-.057-5.403 1.523-6.711 4.015-4.697 8.953-11.015 15.296-19.313 19.394-2.531 1.25-4.146 3.815-4.179 6.637-.033 2.823 1.521 5.425 4.022 6.733 9.439 4.938 15.74 11.17 19.267 19.051zm6.853-34.604c2.565 3.132 5.499 6.019 8.822 8.681-3.291 2.576-6.235 5.492-8.825 8.739-2.521-3.082-5.452-5.927-8.782-8.525 3.213-2.604 6.146-5.572 8.785-8.895z"/></svg>