<svg id="Capa_1" enable-background="new 0 0 510.984 510.984" height="512" viewBox="0 0 510.984 510.984" width="512" xmlns="http://www.w3.org/2000/svg"><path d="m7.5 32.927v441.13c0 5.59 4.663 10.07 10.247 9.819 122.493-5.492 220.116-106.536 220.116-230.384s-97.623-224.892-220.115-230.384c-5.585-.25-10.248 4.229-10.248 9.819z" fill="#fd4755"/><path d="m7.5 68.662v369.66c101.961-.14 184.574-82.836 184.574-184.83s-82.612-184.69-184.574-184.83z" fill="#fe646f"/><path d="m7.5 110.17v286.645c79.037-.14 143.067-64.252 143.067-143.322 0-79.071-64.03-143.183-143.067-143.323z" fill="#ffd3d6"/><path d="m7.5 198.765v109.455c30.109-.14 54.475-24.586 54.475-54.728s-24.366-54.587-54.475-54.727z" fill="#fd4755"/><path d="m503.484 191.285c0 1.417-1.148 2.565-2.565 2.565h-62.854-220.447-43.324l.293 11.407c.053 2.047-2.187 3.335-3.93 2.261l-54.572-33.628c-1.638-1.009-1.633-3.393.009-4.396l54.693-33.395c1.718-1.049 3.922.188 3.922 2.201v13.253h176.09 48.404 101.717c1.417 0 2.565 1.148 2.565 2.565v37.167z" fill="#ebebeb"/><path d="m500.919 171.91h-62.854-220.447-43.324l.293 11.407c.052 2.047-2.187 3.335-3.93 2.261l-40.267-24.813-14.296 8.729c-1.642 1.003-1.647 3.386-.009 4.396l54.572 33.628c1.743 1.074 3.983-.214 3.93-2.261l-.293-11.407h43.324 220.448 62.854c1.417 0 2.565-1.148 2.565-2.565v-21.94c-.001 1.416-1.149 2.565-2.566 2.565z" fill="#e2e2e2"/><path d="m294.951 189.712-1.03.03h-61.48c-9.73 0-17.61 7.89-17.61 17.62 0 4.87 1.97 9.27 5.16 12.45 3.18 3.19 7.59 5.16 12.45 5.16h67.52l1 .01h37.392v-35.27z" fill="#fed2a4"/><path d="m299.961 210.302h-67.52c-4.86 0-9.27-1.97-12.45-5.16-1.472-1.467-2.668-3.203-3.547-5.116-1.026 2.236-1.613 4.714-1.613 7.335 0 4.87 1.97 9.27 5.16 12.45 3.18 3.19 7.59 5.16 12.45 5.16h67.52l1 .01h37.392v-14.67h-37.392z" fill="#ffbd86"/><path d="m427.605 254.492h8.71" style="fill:none;stroke:#000;stroke-width:15;stroke-linecap:round;stroke-linejoin:round;stroke-miterlimit:10"/><path d="m420.287 7.772c2.799 0 4.641 2.92 3.436 5.446l-1.662 3.484c-17.5 36.72-26.58 76.87-26.58 117.54v38.01 80.85.01 97.2 26.43c0 40.67 9.08 80.82 26.58 117.54l2.363 4.954c.88 1.845-.465 3.977-2.509 3.977h-31.545c-1.017 0-1.952-.555-2.44-1.447l-4-7.323c-18.07-33.02-28.36-69.74-30.09-107.35l-3.04-66.51.76-147.9 2.28-48.79c1.73-37.61 12.02-74.33 30.09-107.35l3.707-6.788c.667-1.222 1.949-1.982 3.341-1.982h29.309z" fill="#fbc56d"/><path d="m410.112 501.765-4-7.323c-18.07-33.02-28.36-69.74-30.09-107.35l-3.04-66.51.76-147.9 2.28-48.79c1.73-37.61 12.02-74.33 30.09-107.35l3.708-6.788c.667-1.222 1.949-1.982 3.341-1.982h-22.181c-1.392 0-2.674.76-3.341 1.982l-3.708 6.788c-18.07 33.02-28.36 69.74-30.09 107.35l-2.28 48.79-.76 147.9 3.04 66.51c1.73 37.61 12.02 74.33 30.09 107.35l4 7.323c.487.892 1.423 1.447 2.44 1.447h22.182c-1.018 0-1.954-.555-2.441-1.447z" fill="#d8aa5e"/><path d="m395.481 189.712v-17.46-38.01c0-8.1.376-16.177 1.091-24.212h-41.7c-.472 4.604-.818 9.226-1.031 13.862l-2.28 48.79-.088 17.03z" fill="#d8aa5e"/><path d="m373.655 189.712.088-17.03 2.28-48.79c.213-4.636.559-9.258 1.031-13.862h-22.182c-.008.08-.013.16-.021.239-.226 2.222-.425 4.448-.591 6.678-.172 2.311-.312 4.626-.419 6.944l-2.28 48.79-.088 17.03h22.182z" fill="#c99c56"/><path d="m395.481 376.742v-26.43-13.012h-43.916l2.276 49.792c.188 4.096.497 8.179.888 12.25h41.691c-.623-7.503-.939-15.042-.939-22.6z" fill="#d8aa5e"/><path d="m354.729 399.337v.006h22.182c-.391-4.071-.699-8.154-.888-12.25l-2.276-49.792h-22.181l2.276 49.792c.095 2.071.227 4.138.374 6.202.148 2.017.32 4.031.513 6.042z" fill="#c99c56"/><g fill="#fed2a4"><path d="m352.631 283.822c10.15 0 18.38 8.23 18.38 18.38 0 5.07-2.06 9.67-5.38 13-3.33 3.32-7.93 5.38-13 5.38h-33.66c-10.15 0-18.38-8.23-18.38-18.38 0-5.07 2.06-9.67 5.38-13 3.33-3.32 7.93-5.38 13-5.38z"/><path d="m352.631 247.072c10.15 0 18.38 8.23 18.38 18.38 0 5.08-2.06 9.67-5.38 12.99-3.33 3.33-7.93 5.38-13 5.38h-33.66c-10.15 0-18.38-8.22-18.38-18.37 0-5.08 2.06-9.67 5.38-13 3.33-3.32 7.93-5.38 13-5.38z"/><path d="m377.711 242.432c-3.25 2.88-7.52 4.64-12.21 4.64h-12.87-33.66c-10.15 0-18.38-8.23-18.38-18.38 0-1.27.13-2.51.37-3.71.74-3.59 2.52-6.79 5.01-9.29 2.86-2.85 6.65-4.77 10.87-5.25h10.04c.69-.08 1.4-.13 2.11-.13h36.51c10.15 0 18.38 8.23 18.38 18.38 0 5.08-2.06 9.67-5.38 13-.25.25-.52.5-.79.74z"/></g><path d="m365.631 299.58c-3.33 3.32-7.93 5.38-13 5.38h-33.66c-7.353 0-13.679-4.329-16.618-10.568-1.117 2.375-1.762 5.016-1.762 7.81 0 10.15 8.23 18.38 18.38 18.38h33.66c5.07 0 9.67-2.06 13-5.38 3.32-3.33 5.38-7.93 5.38-13 0-2.797-.644-5.438-1.762-7.812-.91 1.934-2.128 3.695-3.618 5.19z" fill="#ffbd86"/><path d="m365.631 262.82c-3.33 3.33-7.93 5.38-13 5.38h-33.66c-7.353 0-13.68-4.324-16.619-10.561-1.117 2.373-1.761 5.013-1.761 7.813 0 10.15 8.23 18.37 18.38 18.37h33.66c5.07 0 9.67-2.05 13-5.38 3.32-3.32 5.38-7.91 5.38-12.99 0-2.797-.643-5.438-1.761-7.811-.91 1.932-2.128 3.689-3.619 5.179z" fill="#ffbd86"/><path d="m378.501 226.07c-.25.25-.52.5-.79.74-3.25 2.88-7.52 4.64-12.21 4.64h-12.87-33.66c-7.359 0-13.691-4.337-16.627-10.585-.613 1.297-1.086 2.674-1.383 4.118-.24 1.2-.37 2.44-.37 3.71 0 10.15 8.23 18.38 18.38 18.38h33.66 12.87c4.69 0 8.96-1.76 12.21-4.64.27-.24.54-.49.79-.74 3.32-3.33 5.38-7.92 5.38-13 0-2.797-.643-5.437-1.761-7.81-.91 1.932-2.128 3.692-3.619 5.187z" fill="#ffbd86"/><path d="m395.481 253.112c-6.88-1.9-12.99-5.65-17.77-10.68.27-.24.54-.49.79-.74 3.361-3.372 5.431-8.035 5.379-13.191-.103-10.155-8.696-18.189-18.851-18.189h-36.038-10.02c-.72 0-1.43.04-2.13.13h-.22c-11.67 0-21.17-9.19-21.67-20.73-.02-.32-.03-.65-.03-.97v-8.51c0-3.62 2.93-6.55 6.54-6.55h95.934c13.13 0 25.722 5.216 35.006 14.5l33.83 33.83h32.638c2.547 0 4.612 2.065 4.612 4.612v100.026c0 2.547-2.065 4.612-4.612 4.612h-27.908l-8.94 8.94c-6.473 6.473-15.253 10.11-24.408 10.11h-42.132z" fill="#fed2a4"/><path d="m470.111 332.112c0-.959-.99-1.591-1.862-1.191-4.471 2.05-9.372 3.141-14.385 3.141-23.269 0-42.132-18.863-42.132-42.132v-50.28c0-2.769-1.723-5.203-4.287-6.249-5.136-2.095-9.721-5.261-13.483-9.219.27-.24.54-.49.79-.74 3.361-3.371 5.431-8.034 5.379-13.19-.103-10.155-8.696-18.19-18.851-18.19h-36.038-10.02c-.72 0-1.43.04-2.13.13h-.22c-11.595 0-21.038-9.074-21.65-20.51h-9.761c-3.61 0-6.54 2.93-6.54 6.55v8.51c0 .32.01.65.03.97.5 11.54 10 20.73 21.67 20.73h.22c.7-.09 1.41-.13 2.13-.13h10.02 36.038c10.156 0 18.749 8.035 18.851 18.19.052 5.156-2.018 9.819-5.379 13.19-.25.25-.52.5-.79.74 4.78 5.03 10.89 8.78 17.77 10.68v97.2h42.132c9.155 0 17.935-3.637 24.408-10.11z" fill="#ffbd86"/><path d="m510.984 193.85c0-4.142-3.357-7.5-7.5-7.5h-62.313l-3.468-3.468c-9.439-9.439-21.606-15.159-34.723-16.427v-7.403h100.503c4.143 0 7.5-3.358 7.5-7.5s-3.357-7.5-7.5-7.5h-100.502v-9.81c0-39.304 8.938-78.831 25.849-114.31l4.259-8.934c1.782-3.739.195-8.215-3.543-9.997-3.742-1.784-8.216-.197-9.998 3.543l-4.259 8.934c-13.312 27.931-21.941 58.238-25.478 89.052h-26.458c3.991-28.794 13.218-56.924 27.154-82.393l4.797-8.766c1.988-3.634.655-8.191-2.979-10.18s-8.191-.655-10.18 2.979l-4.797 8.766c-15.941 29.134-26.086 61.543-29.728 94.579-.281.787-.441 1.631-.441 2.514 0 .349.032.691.078 1.027-.399 4.154-.715 8.315-.906 12.481l-.959 20.514h-66.606c-4.143 0-7.5 3.358-7.5 7.5s3.357 7.5 7.5 7.5h65.905l-.333 7.132h-41.052c-8.76 0-15.886 7.126-15.886 15.886v.174h-54.979c-5.115 0-9.875 1.54-13.848 4.176-.32-.042-.645-.071-.977-.071h-43.324c-2.022 0-3.959.817-5.371 2.265-1.411 1.448-2.179 3.406-2.126 5.427l.06 2.324-40.007-24.652 40.359-24.643v4.481c0 4.142 3.357 7.5 7.5 7.5h74.078c4.143 0 7.5-3.358 7.5-7.5s-3.357-7.5-7.5-7.5h-66.578v-10.348c0-2.712-1.465-5.213-3.83-6.541-2.367-1.328-5.264-1.275-7.578.14l-62.203 37.98c-2.227 1.359-3.587 3.777-3.592 6.386-.005 2.608 1.345 5.032 3.565 6.4l62.203 38.33c1.205.742 2.569 1.115 3.935 1.115 1.29 0 2.581-.333 3.74-.999 2.386-1.373 3.828-3.942 3.757-6.693l-.217-8.473h26.069c-.475 1.927-.732 3.939-.732 6.01 0 13.849 11.267 25.115 25.116 25.115h60.926c.834 5.667 3.511 10.741 7.401 14.594-4.739 4.693-7.681 11.198-7.681 18.379s2.942 13.686 7.681 18.379c-4.739 4.693-7.681 11.198-7.681 18.379 0 14.27 11.609 25.879 25.879 25.879h24.666l2.719 59.354c.179 3.912.475 7.818.837 11.72.008.308.037.61.081.907 3.304 34.214 13.59 67.85 30.078 97.982l4.797 8.766c1.363 2.491 3.934 3.901 6.586 3.901 1.217 0 2.451-.297 3.594-.922 3.634-1.988 4.967-6.546 2.979-10.18l-4.797-8.765c-14.258-26.059-23.595-54.902-27.43-84.393h26.521c3.388 31.501 12.091 62.517 25.691 91.052l4.259 8.934c1.286 2.698 3.974 4.275 6.775 4.275 1.082 0 2.181-.235 3.223-.732 3.738-1.782 5.325-6.258 3.543-9.997l-4.259-8.934c-16.91-35.479-25.849-75.006-25.849-114.31v-18.926h34.622c11.225 0 21.778-4.371 29.718-12.309l6.744-6.745h29.419c4.143 0 7.5-3.358 7.5-7.5s-3.357-7.5-7.5-7.5h-32.525c-1.989 0-3.896.79-5.304 2.197l-8.94 8.941c-5.105 5.104-11.893 7.916-19.111 7.916h-34.622v-80.913c.92.054 1.845.089 2.775.089 4.143 0 7.5-3.358 7.5-7.5s-3.357-7.5-7.5-7.5c-2.732 0-5.403-.349-7.968-1.021-.095-.031-.192-.055-.288-.082-3.394-.925-6.599-2.417-9.5-4.442 2.145-3.768 3.377-8.12 3.377-12.757 0-14.27-11.609-25.879-25.879-25.879h-46.53c-.846 0-1.681.044-2.506.124-7.755-.084-14.04-6.413-14.04-14.188v-6.677c0-.488.397-.886.886-.886h94.087c11.221 0 21.77 4.37 29.703 12.304l33.83 33.83c1.407 1.407 3.314 2.197 5.304 2.197h37.254c4.143 0 7.5-3.358 7.5-7.5s-3.357-7.5-7.5-7.5h-34.147l-13.165-13.165h47.313c4.141.002 7.498-3.356 7.498-7.498zm-288.658 13.51c0-5.578 4.538-10.115 10.116-10.115h56.243c1.828 5.996 5.535 11.181 10.435 14.861-1.367 1.633-2.539 3.434-3.474 5.37h-63.205c-5.577-.001-10.115-4.539-10.115-10.116zm85.763 58.088c0-5.999 4.88-10.879 10.879-10.879h33.666c5.999 0 10.879 4.88 10.879 10.879s-4.88 10.879-10.879 10.879h-33.666c-5.999 0-10.879-4.881-10.879-10.879zm0 36.758c0-5.999 4.88-10.879 10.879-10.879h33.666c5.999 0 10.879 4.88 10.879 10.879s-4.88 10.879-10.879 10.879h-33.666c-5.999 0-10.879-4.881-10.879-10.879zm53.532 89.248c-.103-1.567-.212-3.134-.284-4.702l-1.922-41.953h28.566v31.942c0 4.903.142 9.81.404 14.712h-26.764zm26.36-61.654h-29.254l-.111-2.421c11.393-2.708 19.896-12.963 19.896-25.173 0-7.181-2.942-13.686-7.681-18.379 4.739-4.693 7.681-11.198 7.681-18.379 0-4.634-1.23-8.983-3.372-12.75.614-.248 1.218-.516 1.807-.808 3.385 2.72 7.091 4.923 11.034 6.568zm-11.604-101.11c0 3.303-1.485 6.261-3.816 8.258-.009.009-.02.016-.029.025-.004.004-.007.008-.011.011-1.897 1.609-4.347 2.585-7.023 2.585h-12.864-33.666c-5.999 0-10.879-4.88-10.879-10.879 0-5.453 4.037-9.969 9.278-10.748h9.51c.284 0 .569-.016.852-.048.487-.056.902-.083 1.268-.083h36.503c5.997 0 10.877 4.881 10.877 10.879zm-15.04-104.458c.102-2.235.238-4.469.404-6.702h26.761c-.337 5.568-.521 11.142-.521 16.712v31.942h-28.606z"/><path d="m7.5 30.477c30.84 0 60.694 6.185 88.731 18.384 27.088 11.786 51.248 28.61 71.809 50.007 1.473 1.532 3.439 2.303 5.409 2.303 1.869 0 3.741-.694 5.195-2.092 2.987-2.87 3.082-7.618.212-10.604-21.941-22.833-47.727-40.789-76.641-53.368-29.937-13.026-61.803-19.63-94.715-19.63-4.143 0-7.5 3.358-7.5 7.5s3.357 7.5 7.5 7.5z"/><path d="m237.62 245.597c-4.143 0-7.5 3.358-7.5 7.5 0 59.464-23.156 115.369-65.204 157.416-42.047 42.047-97.952 65.204-157.416 65.204-4.143 0-7.5 3.358-7.5 7.5s3.357 7.5 7.5 7.5c63.471 0 123.143-24.717 168.022-69.597 44.881-44.881 69.598-104.552 69.598-168.023 0-4.142-3.357-7.5-7.5-7.5z"/><path d="m7.5 76.159c44.48 0 86.997 16.567 119.717 46.649 1.441 1.325 3.26 1.979 5.074 1.979 2.025 0 4.044-.815 5.523-2.424 2.803-3.049 2.604-7.794-.445-10.597-35.496-32.634-81.617-50.607-129.869-50.607-4.143 0-7.5 3.358-7.5 7.5s3.357 7.5 7.5 7.5z"/><path d="m7.5 445.035c105.835 0 191.938-86.103 191.938-191.938 0-5.951-.275-11.958-.819-17.853-.381-4.125-4.026-7.164-8.158-6.779-4.124.38-7.159 4.033-6.778 8.157.501 5.439.756 10.982.756 16.475 0 97.564-79.374 176.938-176.938 176.938-4.143 0-7.5 3.358-7.5 7.5s3.356 7.5 7.499 7.5z"/><path d="m7.5 117.53c31.42 0 62.043 10.993 86.23 30.954 1.397 1.153 3.088 1.715 4.77 1.715 2.16 0 4.306-.929 5.788-2.726 2.637-3.195 2.185-7.922-1.011-10.559-26.867-22.172-60.881-34.384-95.777-34.384-4.143 0-7.5 3.358-7.5 7.5s3.357 7.5 7.5 7.5z"/><path d="m149.772 269.925c.164.011.327.016.49.016 3.922 0 7.221-3.049 7.477-7.018.221-3.424.328-6.638.328-9.827 0-11.472-1.298-22.91-3.856-33.996-.932-4.037-4.959-6.552-8.994-5.622-4.036.932-6.553 4.959-5.621 8.995 2.304 9.981 3.472 20.285 3.472 30.623 0 2.863-.097 5.762-.297 8.862-.267 4.134 2.868 7.701 7.001 7.967z"/><path d="m7.5 403.663c33.47 0 65.157-10.75 91.636-31.088 25.636-19.69 44.561-47.577 53.289-78.522 1.124-3.987-1.196-8.13-5.183-9.254-3.985-1.127-8.13 1.196-9.255 5.182-7.856 27.856-24.899 52.964-47.988 70.699-23.835 18.307-52.363 27.983-82.499 27.983-4.143 0-7.5 3.358-7.5 7.5s3.357 7.5 7.5 7.5z"/><path d="m7.5 300.072c-4.143 0-7.5 3.358-7.5 7.5s3.357 7.5 7.5 7.5c34.174 0 61.976-27.802 61.976-61.975s-27.802-61.975-61.976-61.975c-4.143 0-7.5 3.358-7.5 7.5s3.357 7.5 7.5 7.5c25.902 0 46.976 21.073 46.976 46.975s-21.074 46.975-46.976 46.975z"/></svg>