<svg id="Capa_1" enable-background="new 0 0 511.938 511.938" height="512" viewBox="0 0 511.938 511.938" width="512" xmlns="http://www.w3.org/2000/svg"><path d="m137.131 329.073-47.68 32.07c-2.97 1.99-5.63 4.27-7.99 6.76l-1.49-1.73c-24.452-34.751-39.66-76.475-42.057-121.604-.318-5.993 5.564-10.369 11.182-8.257l54.715 20.571c6.73 26.63 18.19 51.08 33.32 72.19z" fill="#08a9f1"/><path d="m201.791 285.573-64.66 43.5c-15.13-21.11-26.59-45.56-33.32-72.19l46.427-23.954c5.556-2.867 12.406-.767 15.35 4.748 4.779 8.952 10.137 17.372 16.003 25.176 0 0 7.13 10.49 20.2 22.72z" fill="#01d0fb"/><path d="m462.261 139.903c5.51 19.43 8.48 40.1 8.48 61.54 0 113.78-83.67 206.02-186.89 206.02-30 0-58.35-7.8-83.48-21.65l68.6-64.41c5.87 1.07 12 1.69 18.36 1.74h5.47c76.83 0 140.45-71.31 151.55-164.33l-1.04-1.11z" fill="#01d0fb"/><path d="m486.091 141.123c11.82 27.93 18.35 58.63 18.35 90.86 0 128.92-104.51 233.44-233.43 233.44-43.9 0-84.97-12.12-120.05-33.21l49.41-46.4c25.13 13.85 53.48 21.65 83.48 21.65 103.22 0 186.89-92.24 186.89-206.02 0-21.44-2.97-42.11-8.48-61.54l5.2-4.88c4.81 5.18 11.95 6.96 18.35 5.17z" fill="#08a9f1"/><path d="m453.981 92.423.51.76c-4.03 3.62-6.07 8.61-6.07 13.62 0 3.71 1.12 7.43 3.38 10.61l-12.69 8.54c-10.778-15.777-24.034-30.68-39.565-44.071-.763-.658-1.157-1.648-1.042-2.65l3.187-27.75c.262-2.282 2.858-3.467 4.756-2.174 17.447 11.88 33.49 26.283 47.534 43.115z" fill="#08a9f1"/><circle cx="79.973" cy="142.439" fill="#fef1da" r="72.473"/><path d="m64.778 142.439c0-29.852 18.053-55.479 43.834-66.583-8.786-3.784-18.466-5.889-28.639-5.889-40.025 0-72.473 32.447-72.473 72.473s32.447 72.473 72.473 72.473c10.174 0 19.853-2.105 28.639-5.889-25.78-11.106-43.834-36.733-43.834-66.585z" fill="#fddeb0"/><path d="m143.767 380.193 130.494-104.969" style="fill:none;stroke:#000;stroke-width:15;stroke-linecap:round;stroke-linejoin:round;stroke-miterlimit:10"/><path d="m290.348 262.853 21.063-16.994" style="fill:none;stroke:#000;stroke-width:15;stroke-linecap:round;stroke-linejoin:round;stroke-miterlimit:10"/><path d="m95.431 357.123c41.1 2.32 60.93 26.12 59.47 71.38" fill="#e9b665"/><path d="m70.651 398.903c25.05 1.48 37.14 16.66 36.25 45.55" fill="#e9b665"/><path d="m429.341 170.823 38.12-35.8c6.79 7.3 18.2 7.85 25.65 1.15 4.03-3.62 6.08-8.62 6.08-13.64 0-4.36-1.55-8.74-4.69-12.24l-14.13-15.72c-6.76-7.53-18.35-8.15-25.88-1.39-4.03 3.62-6.07 8.61-6.07 13.62 0 3.71 1.12 7.43 3.38 10.61l-43.7 29.4-26.21 17.63-286.46 192.68h-.01l-5.97 4.02c-13.08 8.8-20.37 23.01-20.86 37.66-.32 9.43 2.17 19.05 7.75 27.53 7.28 11.07 18.28 17.97 30.12 20.35 3.1.63 6.26.95 9.42.95 11.49 0 23.08-4.17 32.27-12.79l6.75-6.33v-.01l251.6-236.24z" fill="#fccd7f"/><path d="m494.501 110.293-14.13-15.72c-1.719-1.915-3.753-3.378-5.951-4.392l.267.297c3.14 3.5 4.69 7.88 4.69 12.24 0 5.02-2.05 10.02-6.08 13.64-6.347 5.708-15.559 6.135-22.349 1.629l-22.07 14.848-19.351 18.174-22.84 21.44-251.6 236.24v.01l-6.75 6.33c-9.19 8.62-20.78 12.79-32.27 12.79-3.16 0-6.32-.32-9.42-.95-4.371-.879-8.626-2.378-12.624-4.471.705 1.334 1.472 2.649 2.318 3.936 7.28 11.07 18.28 17.97 30.12 20.35 3.1.63 6.26.95 9.42.95 11.49 0 23.08-4.17 32.27-12.79l6.75-6.33v-.01l251.6-236.24 22.84-21.44 38.12-35.8c6.79 7.3 18.2 7.85 25.65 1.15 4.03-3.62 6.08-8.62 6.08-13.64 0-4.361-1.55-8.741-4.69-12.241z" fill="#fbc56d"/><path d="m70.651 398.903c25.05 1.48 37.14 16.66 36.25 45.55l-.44 2.23c-11.84-2.38-22.84-9.28-30.12-20.35-5.58-8.48-8.07-18.1-7.75-27.53z" fill="#d8aa5e"/><path d="m95.431 357.123c41.1 2.32 60.93 26.12 59.47 71.38v.01l-6.75 6.33c-9.19 8.62-20.78 12.79-32.27 12.79-3.16 0-6.32-.32-9.42-.95l.44-2.23c.89-28.89-11.2-44.07-36.25-45.55l-2.06-.1c.49-14.65 7.78-28.86 20.86-37.66l5.97-4.02z" fill="#e9b665"/><path d="m76.341 426.333c7.28 11.07 18.28 17.97 30.12 20.35l.44-2.23c.203-6.577-.275-12.435-1.418-17.592-3.113.632-6.268.957-9.417.957-3.16 0-6.32-.32-9.42-.95-4.371-.879-8.626-2.378-12.624-4.471.706 1.335 1.472 2.65 2.319 3.936z" fill="#c99c56"/><path d="m135.086 408.698-6.75 6.33c-6.671 6.258-14.609 10.158-22.854 11.833 1.143 5.156 1.621 11.015 1.418 17.592l-.44 2.23c3.1.63 6.26.95 9.42.95 11.49 0 23.08-4.17 32.27-12.79l6.75-6.33v-.01c.43-13.339-1.004-24.798-4.271-34.408l-15.543 14.594z" fill="#d8aa5e"/><path d="m429.331 170.813-18.556-20.977-1.249 1.173-21.591 20.267 18.566 20.987 22.84-21.44z" fill="#d8aa5e"/><g fill="#e9b665"><path d="m429.341 170.823-22.84 21.44-24.61-27.82 26.21-17.63 21.23 24z"/><path d="m381.891 164.443 24.61 27.82"/><path d="m429.331 170.813-21.23-24"/></g><path d="m317.264 241.169c-2.59-3.232-7.309-3.753-10.542-1.163l-15.885 12.728c-3.232 2.59-3.754 7.311-1.163 10.543 1.481 1.849 3.659 2.811 5.857 2.811 1.645 0 3.301-.539 4.685-1.647l15.885-12.728c3.232-2.592 3.753-7.312 1.163-10.544z"/><path d="m79.973 222.411c10.986 0 21.46-2.229 30.998-6.255.371-.129.729-.295 1.078-.482 28.169-12.386 47.897-40.543 47.897-73.236 0-2.05-.103-4.075-.255-6.087-.001-.339-.031-.674-.077-1.008-3.604-40.784-37.936-72.878-79.641-72.878-19.344 0-37.104 6.906-50.949 18.379-.181.125-.359.256-.531.399-.243.203-.465.421-.676.647-17.015 14.678-27.817 36.369-27.817 60.549 0 12.456 2.866 24.255 7.968 34.776.169.415.37.811.606 1.182 13.189 26.08 40.231 44.014 71.399 44.014zm-52.42-41.645c2.568-.056 5.133.009 7.69.184.326 3.841 3.542 6.858 7.468 6.858 3.134 0 5.816-1.924 6.937-4.653 1.662.403 3.309.864 4.944 1.365-1.16 3.481.373 7.374 3.749 9.066 1.079.541 2.226.797 3.355.797 2.748 0 5.395-1.516 6.711-4.14l.051-.102c2.41 1.231 4.762 2.58 7.052 4.042-.674 2.706.185 5.68 2.473 7.583 1.401 1.166 3.102 1.735 4.793 1.735 1.42 0 2.83-.41 4.054-1.196l5.308 3.949c-3.943.75-8.006 1.159-12.164 1.159-21.503-.002-40.589-10.507-52.421-26.647zm114.209-58.385-6.429-3.397c-4.376-2.312-9.014-4.075-13.786-5.287v-.346c0-4.142-3.357-7.5-7.5-7.5-3.595 0-6.595 2.53-7.326 5.906-3.777-.044-7.563.24-11.302.885-2.023.349-4.052.558-6.076.642v-3.634c0-4.142-3.357-7.5-7.5-7.5s-7.5 3.358-7.5 7.5v1.85c-3.815-1.083-7.483-2.643-10.923-4.635l1.377-3.909c1.377-3.907-.674-8.189-4.581-9.566-3.474-1.224-7.242.268-9.002 3.362-.161-.188-.334-.362-.493-.552l-6.595-7.912c10.282-6.829 22.606-10.82 35.848-10.82 28.826-.002 53.315 18.876 61.788 44.913zm-109.094-24.413 6.53 7.834c1.973 2.367 4.108 4.558 6.373 6.579l-1.899 5.39c-1.377 3.907.674 8.189 4.581 9.566.824.291 1.665.428 2.492.428 3.092 0 5.987-1.927 7.073-5.009l.543-1.542c5.04 2.623 10.42 4.548 15.98 5.732v.324c0 4.142 3.357 7.5 7.5 7.5 3.794 0 6.921-2.819 7.422-6.475 2.898-.087 5.806-.372 8.705-.872 2.839-.49 5.712-.705 8.578-.673v3.75c0 4.142 3.357 7.5 7.5 7.5s7.5-3.358 7.5-7.5v-1.172c2.326.796 4.595 1.766 6.778 2.919l16.584 8.762c.01.477.036.95.036 1.43 0 25.257-14.496 47.178-35.596 57.923l-12.627-9.393 1.786-2.147c2.649-3.184 2.216-7.913-.969-10.563-3.184-2.649-7.913-2.217-10.563.968l-2.427 2.917c-3.027-1.981-6.154-3.791-9.365-5.425l1.172-2.337c1.855-3.703.359-8.209-3.344-10.066-3.704-1.858-8.209-.36-10.066 3.343l-1.634 3.26c-3.641-1.213-7.349-2.217-11.103-3.009v-4.176c0-4.142-3.357-7.5-7.5-7.5s-7.5 3.358-7.5 7.5v2.167c-5.213-.303-10.458-.202-15.683.318-2.908-7.37-4.525-15.387-4.525-23.78 0-17.194 6.726-32.838 17.668-44.471z"/><path d="m495.33 143.917c.967-.653 1.908-1.362 2.798-2.161 10.594-9.518 11.47-25.881 1.952-36.476l-14.127-15.723c-4.61-5.132-10.943-8.162-17.833-8.53-4.229-.228-8.344.566-12.079 2.272-14.535-16.594-31.226-31.068-49.697-43.066-3.475-2.256-8.119-1.27-10.375 2.204-2.257 3.474-1.271 8.119 2.203 10.375 17.326 11.254 32.983 24.834 46.615 40.404-4.012 6.469-4.967 14.41-2.602 21.628l-1.185.796c-10.781-14.714-23.474-28.322-37.815-40.522-3.154-2.685-7.889-2.301-10.572.853-2.684 3.155-2.302 7.888.854 10.572 13.292 11.308 25.061 23.892 35.074 37.478l-289.431 194.681c-12.783-19.266-22.209-40.639-28.029-63.653-1.017-4.016-5.092-6.45-9.11-5.432-4.016 1.016-6.448 5.094-5.433 9.11 6.247 24.697 16.377 47.646 30.126 68.347l-41.404 27.849c-.892.6-1.755 1.229-2.6 1.872-24.603-37.03-37.583-80.044-37.583-124.807 0-4.142-3.357-7.5-7.5-7.5s-7.5 3.358-7.5 7.5c0 48.784 14.459 95.625 41.834 135.701-13.29 17.961-14.761 43.121-1.841 62.766 8.899 13.531 23.228 22.385 39.311 24.291 2.167.257 4.331.383 6.484.383 13.248 0 26.054-4.809 36.098-13.637 36.143 20.571 77.189 31.426 119.044 31.426 64.354 0 124.857-25.061 170.363-70.567s70.567-106.008 70.567-170.363c.001-30.446-5.584-60.042-16.607-88.071zm-28.012-47.912c2.889.154 5.544 1.424 7.477 3.577l14.127 15.723c3.99 4.442 3.623 11.303-.818 15.293-4.36 3.917-11.158 3.609-15.155-.687-1.358-1.461-3.243-2.32-5.237-2.388-2.016-.077-3.934.663-5.388 2.028l-5.304 4.98-27.186 25.527-10.444-11.805 23.952-16.111h.001s0 0 .001-.001l12.639-8.501c1.679-1.129 2.83-2.888 3.193-4.878.362-1.99-.094-4.042-1.267-5.691-3.185-4.479-2.499-10.631 1.595-14.309 2.004-1.801 4.55-2.774 7.224-2.774.195.001.393.006.59.017zm-305.446 315.667c-1.148-11.423-3.955-21.328-8.36-29.678l123.276-98.781c3.232-2.59 3.754-7.311 1.163-10.543-2.589-3.232-7.311-3.753-10.542-1.163l-122.55 98.199c-7.479-8.062-17.292-13.777-29.375-17.036l265.138-178.34 15.435 17.445zm245.124-230.17-13.819-15.619 13.655-9.185 12.061 13.632zm-324.392 240.711c-3.081-4.685-5.026-9.802-5.92-15.023 14.33 2.784 21.522 12.115 22.615 29.334-6.725-3.07-12.532-7.98-16.695-14.311zm31.823 17.876c-.516-34.228-19.297-45.348-37.418-48.06 2.088-9.736 7.774-18.707 16.623-24.659l3.829-2.575c18.397 1.479 31.533 7.66 39.708 18.954.212.393.457.774.746 1.135.031.038.066.07.097.108 6.541 9.75 9.632 23.074 9.453 40.21l-4.443 4.172c-7.774 7.287-18.044 11.094-28.595 10.715zm316.338-48.344c-42.673 42.672-99.408 66.173-159.757 66.173-37.676 0-74.648-9.378-107.521-27.186l38.102-35.777c25.805 13.274 53.451 20.004 82.263 20.004 58.045 0 112.605-28.172 149.692-77.294 2.496-3.306 1.84-8.009-1.466-10.504-3.308-2.497-8.009-1.839-10.505 1.466-34.227 45.333-84.425 71.332-137.722 71.332-24.616 0-48.314-5.366-70.594-15.962l220.57-207.113c-7.462 36.292-23.505 69.131-46.141 93.92-26.406 28.917-60.104 44.841-94.889 44.841-4.143 0-7.5 3.358-7.5 7.5s3.357 7.5 7.5 7.5c39.05 0 76.683-17.66 105.965-49.727 28.542-31.257 47.354-74.172 52.995-120.87l6.338-5.952c3.411 15.425 5.143 31.298 5.143 47.347 0 36.38-8.978 71.963-25.961 102.901-1.993 3.631-.666 8.19 2.965 10.184 1.146.628 2.383.927 3.603.927 2.649 0 5.217-1.406 6.581-3.892 18.195-33.144 27.813-71.223 27.813-110.12 0-18.594-2.176-36.975-6.462-54.772 2.936 1.093 6.039 1.636 9.147 1.633 10.622 26.601 16.014 54.729 16.014 83.684 0 60.348-23.5 117.084-66.173 159.757z"/><path d="m153.761 230.773c6.129 13.159 13.478 25.469 21.841 36.589 1.474 1.959 3.723 2.992 6 2.992 1.569 0 3.151-.491 4.502-1.506 3.311-2.49 3.976-7.192 1.486-10.502-7.736-10.286-14.543-21.693-20.231-33.906-1.748-3.755-6.21-5.379-9.966-3.632-3.755 1.749-5.381 6.211-3.632 9.965z"/></svg>