<svg id="Capa_1" enable-background="new 0 0 511.979 511.979" height="512" viewBox="0 0 511.979 511.979" width="512" xmlns="http://www.w3.org/2000/svg"><path d="m7.502 279.956v216.752c0 4.138 3.355 7.493 7.493 7.493h248.54l-256.033-255.44z" fill="#6bd9e7"/><path d="m7.502 346.981 157.22 157.22h98.813l-256.033-255.44v31.195z" fill="#03bed7"/><path d="m7.502 406.431v90.276c0 4.138 3.354 7.493 7.493 7.493h90.503z" fill="#a6e7f0"/><path d="m149.223 12.472v43.95c0 31.508 25.542 57.05 57.05 57.05h138.737c2.075 0 3.054 2.56 1.51 3.945l-29.491 26.447-20.386 18.983 73.51 63.784 15.853-13.281 68.58-63.02c13.802-12.683 21.658-30.57 21.658-49.315v-89.864c0-1.861-1.512-3.369-3.373-3.364l-319.816.842c-2.118.006-3.832 1.725-3.832 3.843z" fill="#838383"/><path d="m149.223 12.472v14.95c0 31.508 25.542 57.05 57.05 57.05h110.737c2.075 0 3.054 2.56 1.51 3.945l-29.491 26.447-20.386 18.983 73.51 63.784 15.853-13.281 68.58-63.02c13.802-12.683 21.658-30.57 21.658-49.315v-60.864c0-1.861-1.512-3.369-3.373-3.364l-291.816.842c-2.118.006-3.832 1.725-3.832 3.843z" fill="#9c9c9c"/><path d="m351.468 256.777 36.694-36.712c1.362-1.475 1.345-3.786-.037-5.241l-74.567-75.117c-1.487-1.565-3.955-1.524-5.391.089l-34.116 35.397-8.948 9.766 76.634 82.617z" fill="#cecece"/><path d="m322.933 227.899 36.694-36.712c1.362-1.475 1.345-3.786-.037-5.241l-74.567-75.117c-1.487-1.565-3.955-1.524-5.391.089l-34.116 35.397-8.948 9.766 76.634 82.617z" fill="#ebebeb"/><path d="m334.807 282.528 17.519-18.548c1.637-1.733 1.618-4.449-.044-6.159l-81.237-83.574c-1.787-1.839-4.755-1.791-6.482.105l-18.675 20.498-13.073 14.354 91.624 85.561z" fill="#f4d902"/><path d="m305.459 252.606 17.519-18.548c1.637-1.733 1.618-4.449-.044-6.158l-81.237-83.574c-1.787-1.839-4.755-1.791-6.482.105l-18.675 20.498-13.073 14.354 91.624 85.56z" fill="#fee903"/><path d="m288.825 464.169 32.854 32.854c2.649 2.649.773 7.178-2.973 7.178h-86.96c-1.858 0-3.64-.738-4.954-2.052l-217.238-217.239c-1.314-1.314-2.052-3.096-2.052-4.954v-86.96c0-3.746 4.529-5.622 7.178-2.973l55.838 55.838z" fill="#fd4755"/><path d="m337.051 284.165-25.62-25.26-2.06.1c.02 1.62-.57 3.25-1.79 4.5l-58.26 59.78-10.166 67.725 9.885 9.885 13.38 13.38 4.55 4.55 11.63 11.63 20.63-26.17c7.41-9.42 6.79-22.86-1.47-31.55l-18.88-19.89 58.26-59.79c2.421-2.48 2.381-6.449-.089-8.89z" fill="#00c285"/><path d="m270.369 301.688 29.559 29.558 19.885-20.408-29.556-29.556z" fill="#f4d902"/><path d="m268.201 343.175c1.65 1.74 3 3.67 4.04 5.72 4.15 8.19 3.36 18.29-2.57 25.83l-24.63 30.17-144.83-144.82 105.73-97.19c2.48-2.27 6.3-2.2 8.69.16l92.86 91.57c1.23 1.21 1.85 2.79 1.88 4.39.02 1.62-.57 3.25-1.79 4.5l-58.26 59.78z" fill="#00f2a6"/><path d="m444.871 7.788-47.702.137v30.29c0 15.65 12.687 28.337 28.337 28.337h20.021 2.718v-55.4c-.001-1.862-1.513-3.37-3.374-3.364z" fill="#cecece"/><path d="m270.261 301.579-40.27-40.27c-3.286-3.286-3.286-8.614 0-11.9l8.247-8.247c3.286-3.286 8.614-3.286 11.9 0l40.27 40.27z" fill="#fee903"/><circle cx="219.292" cy="215.156" fill="#f4d902" r="13.524"/><path d="m187.131 237.375c.11 4.91-1.95 9.61-5.62 12.86l-43.25 38.15-.87.87-33.18-33.18 81.59-74.74z" fill="#fee903"/><path d="m249.321 323.285 6.98 7.35-.28.27-69.72 7.2-.03.03-24.89-24.89.03-.03 69.72-7.2.94-.9z" fill="#fee903"/><path d="m490.692 317.851h-11.078c0-13.626-11.046-24.672-24.672-24.672-1.385 0-2.74.12-4.063.339-5.931-11.272-17.75-18.962-31.372-18.962-19.57 0-35.435 15.865-35.435 35.435 0 2.703.313 5.331.886 7.86h-7.592c-7.615 0-13.787 6.173-13.787 13.787 0 7.615 6.173 13.787 13.787 13.787h113.327c7.615 0 13.787-6.173 13.787-13.787-.001-7.614-6.174-13.787-13.788-13.787z" fill="#c8effe"/><path d="m7.502 117.921h84.623c7.615 0 13.787-6.172 13.787-13.787s-6.173-13.787-13.787-13.787h-11.078c0-13.626-11.046-24.672-24.672-24.672-1.385 0-2.74.12-4.063.339-5.931-11.272-17.75-18.962-31.372-18.962-4.757 0-9.292.944-13.437 2.645v68.224z" fill="#c8effe"/><path d="m243.061 442.885 29.48 29.49c2.23 2.23 5.85 2.23 8.08 0l15.91-15.91c2.23-2.23 2.23-5.85 0-8.08l-17.93-17.93-11.63-11.63z" fill="#f4d902"/><path d="m266.971 418.825c2.23 2.24 2.23 5.85 0 8.08l-15.91 15.91c-2.2 2.2-5.77 2.23-8 .07-.03-.02-.05-.04-.08-.07l-181-181c-2.05-2.05-2.05-5.37 0-7.42l16.57-16.57c2.05-2.05 5.37-2.05 7.41 0l18.25 18.25 33.18 33.18 23.99 23.99 24.89 24.89 62.77 62.76 13.38 13.38z" fill="#fee903"/><path d="m284.088 460.828-29.48-29.49-11.548 11.548 29.48 29.49c2.23 2.23 5.85 2.23 8.08 0l11.547-11.547c-2.229 2.229-5.849 2.229-8.079-.001z" fill="#fac600"/><path d="m262.608 431.268c-2.2 2.2-5.77 2.23-8 .07-.03-.02-.05-.04-.08-.07l-181-181c-2.05-2.05-2.05-5.37 0-7.419l-11.547 11.547c-2.05 2.05-2.05 5.37 0 7.42l181 181c.03.03.05.05.08.07 2.23 2.16 5.8 2.13 8-.07l15.91-15.91z" fill="#fed402"/><path d="m448.936 306.264h-22.343c-6.191 0-10.182-6.516-7.422-12.058 3.444-6.917 9.081-12.549 16.008-15.98-4.727-2.339-10.04-3.67-15.672-3.67-19.57 0-35.435 15.865-35.435 35.435 0 2.703.313 5.331.886 7.86h-7.203c-7.424 0-13.812 5.705-14.161 13.121-.373 7.917 5.936 14.453 13.772 14.453h31.377c-7.836 0-14.144-6.536-13.772-14.453.349-7.416 6.737-13.121 14.161-13.121h7.203 32.845c3.259 0 5.889-2.691 5.791-5.972-.096-3.171-2.863-5.615-6.035-5.615z" fill="#99e6fc"/><path d="m357.988 268.765c2.48-2.627 3.548-6.076 3.21-9.41l33.292-33.308c.07-.07.139-.142.206-.214 2.727-2.954 3.582-7.017 2.592-10.673l63.93-58.748c15.306-14.064 24.084-34.052 24.084-54.838v-92.934c0-4.142-3.357-7.5-7.5-7.5s-7.5 3.358-7.5 7.5v92.933c0 16.6-7.01 32.562-19.233 43.793l-63.266 58.137-18.869-19.008 20.009-18.387c3.05-2.803 3.25-7.547.447-10.597-2.804-3.05-7.549-3.251-10.598-.448l-20.547 18.882-58.568-59 40.681-39.767c2.962-2.896 3.016-7.644.12-10.606-2.896-2.961-7.644-3.017-10.606-.121l-12.812 12.524c-.016 0-.032-.002-.049-.002h-110.737c-27.322 0-49.55-22.228-49.55-49.55v-4.999-13.784c0-4.142-3.357-7.5-7.5-7.5s-7.5 3.358-7.5 7.5v13.784 4.999 29.557c0 35.593 28.957 64.55 64.55 64.55h52.715l-14.821 15.378c-1.782-.957-3.799-1.459-5.856-1.43-3.282.053-6.432 1.475-8.641 3.901l-14.075 15.449c-4.839-2.055-10.615-1.232-14.718 2.527l-96.439 88.338-13.171-13.17c-2.406-2.407-5.606-3.733-9.01-3.733s-6.604 1.326-9.01 3.732l-2.731 2.731-57.712-57.711c-2.146-2.146-5.371-2.788-8.174-1.626-2.803 1.161-4.63 3.896-4.63 6.929v100.013c0 1.989.79 3.897 2.196 5.303l221.343 221.343c1.407 1.407 3.314 2.197 5.304 2.197h100.013c3.033 0 5.769-1.827 6.929-4.63 1.161-2.803.52-6.028-1.625-8.173l-34.729-34.729 2.398-2.398c2.495-2.496 3.87-5.814 3.87-9.343 0-3.53-1.375-6.848-3.87-9.343l-13.217-13.217 16.508-20.941c9.647-12.261 8.822-30.04-1.919-41.354l-13.918-14.659 34.664-35.572c.468-.294.913-.638 1.32-1.046.453-.453.827-.952 1.139-1.478l16.101-16.523c4.182-4.291 4.984-10.652 2.469-15.754zm-23.162 2.678-18.131-17.878c-.323-.318-.67-.595-1.031-.842l10.727-11.357 18.687 19.224zm-52.323-152.506 69.131 69.64-28.626 28.64-67.992-69.948 26.102-27.082c.513-.359.977-.779 1.385-1.25zm70.063 127.836-18.682-19.219 28.427-28.441 18.881 19.021zm-146.292-140.243c-22.423 0-41.404-14.976-47.494-35.448 11.806 12.832 28.724 20.891 47.494 20.891h95.444l-12.71 12.425c-1.963-1.452-4.361-2.246-6.82-2.214-3.046.05-5.962 1.362-8.03 3.609l-.711.738h-67.173zm32.303 45.346 76.941 79.156-10.251 10.854-78.328-77.235zm-28.404 17.308 91.206 89.934-11.193 11.487-34.745-34.745c-6.205-6.204-16.301-6.204-22.506 0l-8.247 8.247c-3.006 3.006-4.661 7.002-4.661 11.253s1.656 8.248 4.661 11.253l35.142 35.143-10.438 10.712-27.765-29.245c-2.853-3.004-7.6-3.126-10.604-.275-3.004 2.852-3.127 7.599-.275 10.603l6.078 6.402-52.688 5.439-15.85-15.85 38.182-33.684c5.352-4.722 8.324-11.521 8.155-18.656l-1.246-52.633zm89.685 151.385-18.95-18.95 9.416-9.663 18.95 18.95zm-23.374 20.905c-.854-1.207-1.799-2.365-2.84-3.461l-13.918-14.659 10.711-10.991 18.95 18.95-10.68 10.96c-.7-.389-1.452-.651-2.223-.799zm-35.914-16.512-51.542 5.321-11.222-11.222 52.058-5.374zm-37.873 18.989 50.911-5.256 9.158 9.646c5.65 5.951 6.084 15.302 1.014 21.746l-15.405 19.542zm67.603-52.94-35.006-35.005c-.178-.177-.268-.395-.268-.646s.091-.469.269-.646l8.246-8.247c.357-.355.938-.357 1.293 0l34.882 34.882zm-91.608-92.991.936 39.536c.064 2.697-1.06 5.268-3.083 7.053l-38.885 34.304-22.604-22.604zm132.059 298.681h-78.8l-216.949-216.949v-78.8l44.909 44.909-3.234 3.234c-2.407 2.406-3.732 5.606-3.732 9.009 0 3.404 1.325 6.604 3.731 9.009l106.946 106.947c2.929 2.929 7.677 2.93 10.607 0 2.929-2.929 2.929-7.678 0-10.606l-105.349-105.349 6.939-6.939c.001-.001.002-.001.002-.002s.001-.002.002-.002l6.435-6.435 16.645 16.645c.002.001.003.003.005.005l144.827 144.828c.003.003.007.006.01.009l13.362 13.362.005.005 3.29 3.29-13.378 13.378-1.413-1.413c-.003-.003-.007-.006-.01-.009l-50.131-50.132c-2.929-2.929-7.677-2.93-10.607 0-2.929 2.929-2.929 7.678 0 10.606l52.816 52.817c.001.001.003.003.005.004l29.553 29.553c2.577 2.576 5.96 3.864 9.344 3.864 3.383 0 6.768-1.289 9.343-3.864l2.901-2.901zm-27.227-37.838c-.001.001-.002.001-.003.002s-.001.002-.002.003l-6.938 6.938-18.951-18.952 13.379-13.378 18.951 18.951zm9.813-59.218-15.405 19.542-10.213-10.213-8.664-8.665 16.508-20.941c3.026-3.846 5.021-8.236 6.004-12.798l10.756 11.329c5.651 5.951 6.084 15.302 1.014 21.746zm26.407-99.483-18.95-18.951 11.063-11.352 19.082 18.816z"/><path d="m425.505 74.052h15.186c-.548 15.862-7.457 30.986-19.18 41.757l-20.583 18.915c-3.05 2.803-3.25 7.547-.447 10.597 1.479 1.609 3.498 2.425 5.524 2.425 1.813 0 3.633-.654 5.073-1.978l20.582-18.915c15.306-14.064 24.084-34.052 24.084-54.838v-64.237c0-4.142-3.357-7.5-7.5-7.5s-7.5 3.358-7.5 7.5v51.274h-15.239c-11.489 0-20.837-9.347-20.837-20.837v-30.437c0-4.142-3.357-7.5-7.5-7.5s-7.5 3.358-7.5 7.5v30.437c0 19.761 16.076 35.837 35.837 35.837z"/><path d="m219.292 236.18c11.593 0 21.023-9.431 21.023-21.024s-9.431-21.024-21.023-21.024-21.023 9.431-21.023 21.024 9.43 21.024 21.023 21.024zm0-27.048c3.321 0 6.023 2.702 6.023 6.024s-2.702 6.024-6.023 6.024-6.023-2.702-6.023-6.024 2.702-6.024 6.023-6.024z"/><path d="m126.29 455.047c-2.93-2.929-7.678-2.929-10.607 0s-2.929 7.678 0 10.606l22.465 22.465c1.465 1.464 3.385 2.197 5.304 2.197s3.839-.732 5.304-2.197c2.929-2.929 2.929-7.678 0-10.606z"/><path d="m34.555 363.312c-2.929-2.929-7.677-2.93-10.607 0-2.929 2.929-2.929 7.678 0 10.606l76.015 76.015c1.465 1.465 3.384 2.197 5.304 2.197 1.919 0 3.839-.732 5.304-2.197 2.929-2.929 2.929-7.678 0-10.606z"/><path d="m45.637 434.085c-2.93-2.929-7.678-2.929-10.607 0s-2.929 7.678 0 10.606l43.427 43.427c1.465 1.464 3.385 2.197 5.304 2.197s3.839-.732 5.304-2.197c2.929-2.929 2.929-7.678 0-10.606z"/><path d="m490.692 310.351h-4.461c-3.388-14.135-16.131-24.672-31.289-24.672-.016 0-.031 0-.048 0-7.956-11.599-21.104-18.623-35.388-18.623-23.674 0-42.935 19.261-42.935 42.935 0 .125.001.25.002.375-11.373.418-20.496 9.8-20.496 21.272 0 11.738 9.55 21.287 21.288 21.287h113.326c11.737 0 21.287-9.549 21.287-21.287s-9.549-21.287-21.286-21.287zm0 27.574h-113.327c-3.467 0-6.288-2.82-6.288-6.287s2.821-6.287 6.288-6.287h7.592c2.28 0 4.437-1.038 5.86-2.819 1.423-1.782 1.958-4.114 1.454-6.338-.465-2.051-.7-4.138-.7-6.203 0-15.403 12.531-27.935 27.935-27.935 10.403 0 19.882 5.73 24.734 14.954 1.506 2.86 4.67 4.438 7.864 3.907.952-.158 1.906-.238 2.837-.238 9.469 0 17.172 7.704 17.172 17.172 0 4.142 3.357 7.5 7.5 7.5h11.078c3.467 0 6.287 2.82 6.287 6.287s-2.82 6.287-6.286 6.287z"/><path d="m10.348 56.635c3.371-1.382 6.935-2.083 10.592-2.083 10.403 0 19.882 5.73 24.734 14.954 1.506 2.861 4.673 4.438 7.864 3.907.952-.158 1.906-.238 2.836-.238 9.469 0 17.173 7.704 17.173 17.172 0 4.142 3.357 7.5 7.5 7.5h11.078c3.467 0 6.287 2.82 6.287 6.287s-2.82 6.287-6.287 6.287h-84.623c-4.143 0-7.5 3.358-7.5 7.5s3.357 7.5 7.5 7.5h84.623c11.737 0 21.287-9.549 21.287-21.287s-9.55-21.287-21.287-21.287h-4.461c-3.388-14.135-16.131-24.672-31.29-24.672-.016 0-.031 0-.047 0-7.956-11.599-21.103-18.623-35.387-18.623-5.619 0-11.098 1.079-16.283 3.206-3.833 1.572-5.665 5.953-4.094 9.785 1.572 3.831 5.954 5.665 9.785 4.092z"/></svg>