<svg id="Capa_1" enable-background="new 0 0 512.534 512.534" height="512" viewBox="0 0 512.534 512.534" width="512" xmlns="http://www.w3.org/2000/svg"><path d="m224.468 225.796h280.566v-55.894c0-3.3-2.675-5.975-5.975-5.975h-274.591z" fill="#fe646f"/><path d="m320.692 163.927h-96.224v61.869h169.878c-16.267-17.282-41.675-41.295-73.654-61.869z" fill="#fd4755"/><path d="m270.567 211.293h234.467v65.737h-234.467z" fill="#fe7d43"/><path d="m270.567 277.03h138.143c4.336-16.846.266-35.474-12.237-48.959-4.663-5.03-10.175-10.717-16.456-16.778h-109.45z" fill="#fd6930"/><path d="m234.787 263.328h270.247v63.203h-270.247z" fill="#fee903"/><path d="m234.787 326.531h134.214c11.004-9.89 20.253-19.25 27.473-27.038 9.392-10.13 14.024-23.165 13.914-36.165h-175.6v63.203z" fill="#fed402"/><path d="m242.557 361.637h256.502c3.3 0 5.975-2.675 5.975-5.975v-41.391h-262.477z" fill="#00f2a6"/><path d="m382.076 314.271h-139.519v47.366h81.207c23.472-15.462 43.261-32.646 58.312-47.366z" fill="#05e39c"/><path d="m374.474 248.467c8.014 8.643 8.014 21.987 0 30.63-28.261 30.481-98.426 95.835-180.507 95.835s-152.246-65.354-180.507-95.835c-8.014-8.643-8.014-21.987 0-30.63 28.261-30.481 98.426-95.835 180.507-95.835s152.245 65.354 180.507 95.835z" fill="#d6694b"/><path d="m232.227 336.671c-82.081 0-152.245-65.353-180.507-95.834-6.536-7.049-7.737-17.222-3.613-25.424-14.611 12.326-26.412 24.171-34.648 33.054-8.014 8.643-8.014 21.986 0 30.63 28.261 30.481 98.426 95.835 180.507 95.835s152.246-65.353 180.507-95.835c1.479-1.594 2.68-3.351 3.613-5.206-35.526 29.969-87.698 62.78-145.859 62.78z" fill="#c4573a"/><path d="m115.812 171.245c-14.167 6.581-27.442 14.424-39.586 22.725v139.625c12.144 8.301 25.419 16.144 39.586 22.725z" fill="#fef1da"/><path d="m312.474 194.493c-12.133-8.345-25.409-16.249-39.586-22.895v184.368c14.177-6.646 27.453-14.55 39.586-22.895z" fill="#fef1da"/><path d="m312.474 317.069c-12.537 5.971-25.789 10.962-39.586 14.416v24.48c14.177-6.646 27.453-14.55 39.586-22.895z" fill="#fddeb0"/><path d="m76.226 265.023v6.259 10.955 51.358c12.144 8.301 25.419 16.144 39.586 22.725v-60.08c-15.055-10.18-28.393-21.086-39.586-31.217z" fill="#fddeb0"/><path d="m308.459 344.753c2.479-1.594 4.9-3.216 7.294-4.849.122-.078.24-.161.357-.246 8.523-5.831 16.505-11.87 23.875-17.886h165.049c4.143 0 7.5-3.358 7.5-7.5s-3.357-7.5-7.5-7.5h-147.753c8.955-8.235 16.596-16 22.692-22.575 10.613-11.447 10.613-29.381 0-40.828-6.589-7.107-14.963-15.597-24.875-24.575h45.552c4.143 0 7.5-3.358 7.5-7.5s-3.357-7.5-7.5-7.5h-63.144c-6.675-5.355-13.824-10.705-21.406-15.892-.113-.082-.226-.161-.343-.236-2.396-1.635-4.82-3.259-7.3-4.854-6.43-4.135-12.85-7.925-19.255-11.384h215.831c4.143 0 7.5-3.358 7.5-7.5s-3.357-7.5-7.5-7.5h-249.192c-20.935-7.504-41.618-11.294-61.875-11.294-.134 0-.268.004-.401.004v-12.473c0-19.501-15.865-35.366-35.366-35.366s-35.366 15.865-35.366 35.366v27.311c-14.365 5.881-28.837 13.498-43.358 22.836-2.48 1.595-4.903 3.218-7.299 4.853-.118.076-.233.156-.346.239-27.826 19.037-49.868 40.365-63.87 55.466-10.613 11.447-10.613 29.381 0 40.828 14 15.1 36.039 36.424 63.861 55.46.118.086.238.17.361.249 2.26 1.542 4.547 3.071 6.881 4.578v34.477c0 19.501 15.865 35.366 35.366 35.366s35.366-15.865 35.366-35.366v-2.349c14.9 3.867 29.646 5.821 44.171 5.821 3.515 0 7.042-.115 10.582-.342 1.174 32.26 27.768 58.147 60.31 58.147.07 0 .141-.001.211-.003l.556-.016c4.141-.116 7.402-3.567 7.286-7.708-.116-4.14-3.539-7.416-7.708-7.286l-.445.013c-24.773-.054-44.934-20.068-45.251-44.779 3.32-.507 6.648-1.107 9.985-1.809v1.222c0 19.501 15.865 35.366 35.366 35.366s35.366-15.865 35.366-35.366v-10.733h204.81c4.143 0 7.5-3.358 7.5-7.5s-3.357-7.5-7.5-7.5h-204.81v-4.277c2.743-1.646 5.488-3.344 8.235-5.11zm-15.734-30.715c-4.143 0-7.5 3.358-7.5 7.5v19.605c-1.849 1.031-3.716 2.044-5.603 3.037v-72.898h24.586v58.261c-1.314.874-2.644 1.739-3.983 2.599v-10.605c0-4.141-3.358-7.499-7.5-7.499zm-13.103-57.756v-72.898c8.602 4.525 16.822 9.475 24.586 14.636v58.261h-24.586zm89.352 17.716c-10.399 11.217-27.683 28.371-49.766 44.934v-47.649h51.746c-.55.958-1.201 1.874-1.98 2.715zm0-20.432c.779.84 1.43 1.756 1.98 2.716h-51.746v-47.649c22.083 16.563 39.366 33.716 49.766 44.933zm-175.007-93.433c24.914 0 48.797 6.375 70.655 15.997v80.153h-25.548v-8.634c0-4.142-3.357-7.5-7.5-7.5s-7.5 3.358-7.5 7.5v8.634h-9.458v-8.634c0-4.142-3.357-7.5-7.5-7.5s-7.5 3.358-7.5 7.5v8.634h-9.458v-8.634c0-4.142-3.357-7.5-7.5-7.5s-7.5 3.358-7.5 7.5v8.634h-9.459v-8.634c0-4.142-3.357-7.5-7.5-7.5s-7.5 3.358-7.5 7.5v8.634h-27.388v-80.153c17.313-7.622 35.896-13.2 55.254-15.193v10.308c0 4.142 3.357 7.5 7.5 7.5s7.5-3.358 7.5-7.5v-11.107c.134-.001.268-.005.402-.005zm-110.241 169.409v-58.26h24.586v72.897c-8.602-4.525-16.822-9.475-24.586-14.637zm0-73.26v-58.26c7.764-5.162 15.984-10.112 24.586-14.636v72.897h-24.586zm54.107-123.618c0-11.23 9.137-20.366 20.367-20.366 11.229 0 20.365 9.136 20.365 20.366v13.197c-13.429 1.249-27.023 4.116-40.732 8.594zm-118.873 120.902c10.4-11.217 27.683-28.37 49.766-44.933v47.648h-51.747c.551-.958 1.202-1.875 1.981-2.715zm0 20.432c-.779-.84-1.43-1.756-1.98-2.716h51.746v47.648c-22.083-16.562-39.366-33.716-49.766-44.932zm115.836 104.961c0 11.23-9.137 20.366-20.366 20.366s-20.366-9.136-20.366-20.366v-25.394c13.655 7.715 27.247 13.89 40.732 18.522zm15-17.927v-40.405c0-4.142-3.357-7.5-7.5-7.5s-7.5 3.358-7.5 7.5v35.471c-3.884-1.45-7.716-3.005-11.484-4.665v-80.152h27.388v7.727c0 4.142 3.357 7.5 7.5 7.5s7.5-3.358 7.5-7.5v-7.727h9.459v7.727c0 4.142 3.357 7.5 7.5 7.5s7.5-3.358 7.5-7.5v-7.727h9.458v7.727c0 4.142 3.357 7.5 7.5 7.5s7.5-3.358 7.5-7.5v-7.727h9.458v7.727c0 4.142 3.357 7.5 7.5 7.5s7.5-3.358 7.5-7.5v-7.727h25.548v80.153c-21.858 9.622-45.741 15.997-70.655 15.997-15.183 0-29.981-2.372-44.172-6.399zm135.429 18.838c0 11.23-9.137 20.366-20.366 20.366s-20.366-9.136-20.366-20.366v-5.021c5.557-1.641 11.134-3.541 16.728-5.712h24.005v10.733z"/><path d="m505.034 203.793h-74.376c-4.143 0-7.5 3.358-7.5 7.5s3.357 7.5 7.5 7.5h74.376c4.143 0 7.5-3.358 7.5-7.5s-3.357-7.5-7.5-7.5z"/><path d="m421.162 271.282h74.166c4.143 0 7.5-3.358 7.5-7.5s-3.357-7.5-7.5-7.5h-74.166c-4.143 0-7.5 3.358-7.5 7.5s3.358 7.5 7.5 7.5z"/><path d="m151.718 424.325h-10.938c-4.143 0-7.5 3.358-7.5 7.5s3.357 7.5 7.5 7.5h10.938c4.143 0 7.5-3.358 7.5-7.5s-3.358-7.5-7.5-7.5z"/><path d="m111.283 424.202c-23.675-1.628-42.22-21.501-42.22-45.243 0-4.142-3.357-7.5-7.5-7.5s-7.5 3.358-7.5 7.5c0 31.594 24.682 58.04 56.19 60.208.175.012.35.018.522.018 3.907 0 7.202-3.029 7.475-6.986.285-4.132-2.834-7.713-6.967-7.997z"/><path d="m303.726 424.325c-.012 0-.023 0-.035 0l-8.322.038c-4.142.019-7.484 3.392-7.466 7.534.019 4.131 3.373 7.466 7.499 7.466h.035l8.322-.038c4.142-.019 7.484-3.392 7.466-7.534-.019-4.13-3.373-7.466-7.499-7.466z"/><path d="m186.616 87.298h7.94c4.143 0 7.5-3.358 7.5-7.5s-3.357-7.5-7.5-7.5h-7.94c-4.143 0-7.5 3.358-7.5 7.5s3.358 7.5 7.5 7.5z"/><path d="m105.333 140.164c4.143 0 7.5-3.358 7.5-7.5 0-11.855 4.566-23.077 12.857-31.597 8.275-8.504 19.335-13.381 31.143-13.732 4.141-.123 7.397-3.579 7.274-7.72-.124-4.14-3.611-7.403-7.72-7.273-15.722.467-30.441 6.954-41.447 18.264-11.032 11.337-17.107 26.273-17.107 42.058 0 4.142 3.357 7.5 7.5 7.5z"/><path d="m186.065 191.167c-4.143 0-7.5 3.358-7.5 7.5v6.223c0 4.142 3.357 7.5 7.5 7.5s7.5-3.358 7.5-7.5v-6.223c0-4.142-3.357-7.5-7.5-7.5z"/></svg>