<svg id="Capa_1" enable-background="new 0 0 512.624 512.624" height="512" viewBox="0 0 512.624 512.624" width="512" xmlns="http://www.w3.org/2000/svg"><path d="m500.233 127.259h-488.782c-2.182 0-3.949 1.77-3.947 3.951l.198 186.403h496.173l.642-186.054c.008-2.372-1.912-4.3-4.284-4.3z" fill="#00f2a6"/><path d="m10.626 210.332 174.996-83.072h141.678l176.683 84.48c.157.075.256.233.256.407l-.181 135.044h-496.339l-.126-132.056c-.002-2.053 1.179-3.923 3.033-4.803z" fill="#9c9c9c"/><path d="m504.163 269.017-221.186-141.758h-53.355l-216.792 138.187c-3.226 2.056-5.178 5.618-5.175 9.444l.145 209.171c0 3.697 2.997 6.694 6.694 6.694h483.322c3.706 0 6.706-3.01 6.694-6.716z" fill="#bfbfbf"/><path d="m90.689 277.447v-22.562c0-9.15 7.418-16.568 16.568-16.568h23.938 16.217v57.516h-56.723z" fill="#838383"/><path d="m379.405 238.317h23.938c9.15 0 16.568 7.418 16.568 16.568v22.562 15.895h-60.933v-55.025z" fill="#838383"/><path d="m155.235 438.41h200.804 11.857v-40.167h-221.817v40.167z" fill="#444"/><path d="m138.599 460.27h-50.573c-9.188 0-16.637-7.448-16.637-16.637v-47.458h83.846v47.458c0 9.189-7.448 16.637-16.636 16.637z" fill="#5a5a5a"/><path d="m372.676 460.27h50.573c9.188 0 16.637-7.448 16.637-16.637v-47.458h-83.846v47.458c-.001 9.189 7.447 16.637 16.636 16.637z" fill="#5a5a5a"/><path d="m456.384 365.498v-59.316c0-15.869-12.865-28.734-28.734-28.734h-11.333c-8.336 0-16.06-4.374-20.348-11.521l-29.963-49.943c-5.076-8.461-14.219-13.638-24.086-13.638h-172.566c-9.867 0-19.01 5.177-24.086 13.638l-29.963 49.943c-4.288 7.148-12.013 11.521-20.348 11.521h-11.332c-15.87 0-28.734 12.865-28.734 28.734v59.316z" fill="#fee903"/><path d="m156.373 277.447h11.333c8.336 0 16.06-4.374 20.348-11.521l29.963-49.943c5.076-8.461 14.219-13.638 24.086-13.638h-72.748c-9.867 0-19.01 5.177-24.086 13.638l-29.963 49.943c-4.288 7.148-12.013 11.521-20.348 11.521h-11.333c-15.87 0-28.734 12.865-28.734 28.734v59.316h72.748v-59.316c-.001-15.869 12.864-28.734 28.734-28.734z" fill="#fed402"/><path d="m238.874 202.345v41.734 33.368 35.518h-58.252l9.272-35.518 8.712-33.368 10.895-41.734z" fill="#fef1da"/><path d="m302.099 202.345 10.895 41.734 8.711 33.368 9.273 35.518h-58.253v-35.518-33.368-41.734z" fill="#fef1da"/><path d="m455.384 345.092h-36.401c0-17.743-14.384-32.127-32.127-32.127h-260.953c-17.743 0-32.127 14.384-32.127 32.127h-37.886l-1 .006v36.344c0 15.87 12.865 28.734 28.734 28.734h344.026c15.87 0 28.734-12.865 28.734-28.734v-36.351h-1z" fill="#838383"/><path d="m364.872 272.407-13.669-22.785c-2.063-3.439-5.78-5.543-9.79-5.543h-171.55c-4.01 0-7.727 2.104-9.79 5.543l-13.67 22.785c-1.331 2.218.267 5.04 2.854 5.04h212.762c2.586 0 4.184-2.822 2.853-5.04z" fill="#6bd9e7"/><path d="m333.282 385.242h-155.29c-12.568 0-22.757-10.189-22.757-22.757 0-12.568 10.189-22.757 22.757-22.757h155.29c12.568 0 22.757 10.189 22.757 22.757 0 12.569-10.189 22.757-22.757 22.757z" fill="#5a5a5a"/><path d="m350.371 367.516h-155.291c-12.568 0-22.757-10.189-22.757-22.757 0-1.512.151-2.989.432-4.418-10.043 2.366-17.521 11.379-17.521 22.145 0 12.568 10.189 22.757 22.757 22.757h155.29c11.056 0 20.267-7.885 22.324-18.338-1.68.395-3.432.611-5.234.611z" fill="#444"/><circle cx="121.955" cy="362.485" fill="#fe646f" r="13.228"/><circle cx="389.319" cy="362.485" fill="#fe646f" r="13.228"/><path d="m348.95 84.107h-185.3c-3.915 0-7.089-3.174-7.089-7.089v-40.559c0-3.915 3.174-7.089 7.089-7.089h185.3c3.915 0 7.089 3.174 7.089 7.089v40.559c0 3.915-3.174 7.089-7.089 7.089z" fill="#6bd9e7"/><path d="m214.146 62.894c-18.515 0-33.525-15.009-33.525-33.525h-16.971c-3.915 0-7.089 3.174-7.089 7.089v40.559c0 3.915 3.174 7.089 7.089 7.089h185.3c3.915 0 7.089-3.174 7.089-7.089v-14.123z" fill="#03bed7"/><path d="m427.65 269.947h-.24v-15.063c0-13.271-10.796-24.067-24.067-24.067h-19.691l-11.214-18.692c-6.395-10.659-18.088-17.28-30.517-17.28h-172.567c-12.43 0-24.123 6.621-30.517 17.28l-11.214 18.692h-20.366c-13.271 0-24.067 10.797-24.067 24.067v15.074c-19.779.235-35.799 16.39-35.799 36.223v75.261c0 12.704 6.577 23.894 16.499 30.365v31.827c0 13.309 10.828 24.137 24.137 24.137h50.573c12.541 0 22.875-9.616 24.026-21.86h27.342c4.142 0 7.5-3.357 7.5-7.5s-3.358-7.5-7.5-7.5h-27.231v-13.233h185.804v13.233h-128.574c-4.142 0-7.5 3.357-7.5 7.5s3.358 7.5 7.5 7.5h128.683c1.151 12.245 11.485 21.86 24.026 21.86h50.573c13.309 0 24.136-10.828 24.136-24.137v-31.827c9.922-6.471 16.499-17.661 16.499-30.365v-75.261c0-19.979-16.255-36.234-36.234-36.234zm-24.307-24.13c5 0 9.067 4.067 9.067 9.067v14.573c-4.13-1.035-7.779-3.671-10.011-7.39l-9.749-16.25zm-123.117-35.973h16.08l6.979 26.734h-23.059zm-123.601 60.103 9.878-16.466c.705-1.174 1.992-1.902 3.359-1.902h28.718c.01 0 .021.002.031.002.008 0 .016-.002.023-.002h114.332c.008 0 .016.002.023.002.01 0 .021-.002.031-.002h28.393c1.368 0 2.655.729 3.358 1.901l9.879 16.467zm164.643 35.518h-41.043v-20.518h35.686zm-56.042-20.518v20.518h-18.852v-20.518zm-33.852 0v20.518h-41.043l5.357-20.518zm15-75.103h18.852v26.734h-18.852zm-31.08 0h16.08v26.734h-23.059zm-108.037 35.973h11.367l-9.749 16.25c-2.353 3.921-6.28 6.642-10.686 7.548v-14.73c0-5 4.068-9.068 9.068-9.068zm-44.867 60.364c0-11.709 9.526-21.234 21.234-21.234h11.333c10.906 0 21.167-5.81 26.779-15.163l29.963-49.942c3.699-6.166 10.464-9.997 17.654-9.997h30.437l-6.979 26.734h-22.95c-6.606 0-12.821 3.519-16.222 9.185l-16.693 27.825c-1.39 2.317-1.426 5.203-.095 7.554 1.332 2.352 3.824 3.805 6.526 3.805h36.806l-5.357 20.518h-48.926c-19.287 0-35.399 13.85-38.915 32.127h-24.595zm26.719 146.589h-1.083c-5.038 0-9.137-4.099-9.137-9.137v-25.957h4.735 5.485zm33.406 0h-18.406v-35.094h18.406zm25.22-9.136c0 5.038-4.099 9.137-9.137 9.137h-1.083v-35.094h10.22zm226.024 9.136h-1.083c-5.038 0-9.137-4.099-9.137-9.137v-25.957h10.22zm33.406 0h-18.406v-35.094h18.406zm25.22-9.136c0 5.038-4.099 9.137-9.136 9.137h-1.083v-35.094h5.485 4.735v25.957zm16.499-106.042h-23.112c-3.515-18.277-19.628-32.127-38.915-32.127h-10.987c-4.142 0-7.5 3.357-7.5 7.5s3.358 7.5 7.5 7.5h10.987c13.58 0 24.627 11.048 24.627 24.627 0 4.143 3.358 7.5 7.5 7.5h29.9v28.851c0 11.709-9.525 21.234-21.234 21.234h-71.611-200.804-71.61c-11.708 0-21.234-9.525-21.234-21.234v-28.851h31.386c4.142 0 7.5-3.357 7.5-7.5 0-13.579 11.047-24.627 24.626-24.627h54.693c.01 0 .021.002.031.002.008 0 .016-.002.023-.002h150.3c.008 0 .016.002.023.002.01 0 .021-.002.031-.002h14.865c4.142 0 7.5-3.357 7.5-7.5s-3.358-7.5-7.5-7.5h-9.098l-5.357-20.518h36.481c2.702 0 5.195-1.453 6.526-3.805 1.332-2.351 1.295-5.236-.095-7.554l-16.694-27.826c-3.399-5.665-9.615-9.184-16.221-9.184h-22.625l-6.979-26.734h30.112c7.19 0 13.955 3.831 17.655 9.997l29.962 49.942c5.611 9.353 15.873 15.163 26.779 15.163h11.333c11.708 0 21.234 9.525 21.234 21.234v31.412z"/><path d="m333.282 332.228h-155.29c-16.684 0-30.256 13.573-30.256 30.257s13.573 30.257 30.256 30.257h155.291c16.684 0 30.257-13.573 30.257-30.257s-13.574-30.257-30.258-30.257zm-161.151 44.34c-5.512-2.302-9.396-7.746-9.396-14.083s3.884-11.781 9.396-14.083zm25.336 1.174h-10.335v-30.514h10.335zm25.335 0h-10.335v-30.514h10.335zm25.335 0h-10.335v-30.514h10.335zm25.335 0h-10.335v-30.514h10.335zm25.336 0h-10.335v-30.514h10.335zm25.335 0h-10.335v-30.514h10.335zm15-1.174v-28.165c5.512 2.302 9.396 7.746 9.396 14.083s-3.885 11.78-9.396 14.082z"/><path d="m121.955 341.758c-11.43 0-20.728 9.299-20.728 20.728 0 11.43 9.298 20.729 20.728 20.729 11.429 0 20.728-9.299 20.728-20.729s-9.299-20.728-20.728-20.728zm0 26.456c-3.158 0-5.728-2.569-5.728-5.729 0-3.158 2.57-5.728 5.728-5.728s5.728 2.569 5.728 5.728-2.57 5.729-5.728 5.729z"/><path d="m389.319 383.214c11.429 0 20.728-9.299 20.728-20.729 0-11.429-9.298-20.728-20.728-20.728s-20.728 9.299-20.728 20.728c0 11.43 9.299 20.729 20.728 20.729zm0-26.456c3.158 0 5.728 2.569 5.728 5.728s-2.569 5.729-5.728 5.729-5.728-2.569-5.728-5.729c0-3.159 2.57-5.728 5.728-5.728z"/><path d="m86.052 218.857c-2.229-3.491-6.864-4.517-10.357-2.288l-71.93 45.893c-3.492 2.228-4.517 6.864-2.289 10.356 1.431 2.242 3.854 3.467 6.33 3.467 1.38 0 2.777-.381 4.027-1.179l71.93-45.893c3.492-2.227 4.517-6.864 2.289-10.356z"/><path d="m501.906 218.449c1.039.493 2.133.727 3.211.727 2.806 0 5.498-1.582 6.781-4.285 1.776-3.742.183-8.216-3.559-9.992l-147.75-70.139h143.944c4.142 0 7.5-3.357 7.5-7.5s-3.358-7.5-7.5-7.5h-153.93v-28.253c7.268-.825 12.936-7.004 12.936-14.488v-40.56c0-8.044-6.545-14.589-14.589-14.589h-185.3c-8.044 0-14.589 6.545-14.589 14.589v40.56c0 7.484 5.668 13.664 12.936 14.488v28.253h-154.497c-4.142 0-7.5 3.357-7.5 7.5s3.358 7.5 7.5 7.5h144.834l-147.751 70.138c-3.742 1.776-5.335 6.25-3.559 9.991 1.284 2.704 3.974 4.286 6.781 4.286 1.078 0 2.173-.233 3.211-.727l176.296-83.689h16.61l-102.87 65.632c-3.492 2.228-4.517 6.864-2.289 10.356 2.229 3.493 6.865 4.518 10.357 2.288l122.689-78.276h48.969l218.973 140.339c1.253.803 2.654 1.187 4.04 1.187 2.47 0 4.889-1.22 6.321-3.454 2.235-3.487 1.22-8.126-2.268-10.361l-199.265-127.71h17.032zm-337.845-181.579h184.479v39.737h-184.479zm12.936 82.89v-28.153h158.606v28.152h-158.606z"/><path d="m293.893 191.292c1.156 0 2.33-.269 3.428-.834 3.683-1.896 5.13-6.42 3.233-10.103l-15.897-30.866c-1.896-3.683-6.419-5.129-10.102-3.233s-5.13 6.42-3.233 10.103l15.897 30.866c1.331 2.583 3.954 4.067 6.674 4.067z"/><path d="m221.453 184.433c2.714 0 5.334-1.479 6.667-4.056l13.594-26.275c1.903-3.679.464-8.204-3.215-10.107s-8.204-.464-10.107 3.215l-13.594 26.275c-1.903 3.679-.464 8.204 3.215 10.107 1.102.571 2.279.841 3.44.841z"/></svg>