<svg id="Capa_1" enable-background="new 0 0 511.88 511.88" height="512" viewBox="0 0 511.88 511.88" width="512" xmlns="http://www.w3.org/2000/svg"><path d="m504.38 137.666h-496.88v-43.008c0-3.829 3.104-6.932 6.932-6.932h483.016c3.829 0 6.932 3.104 6.932 6.932z" fill="#9c9c9c"/><path d="m498.419 491.908h-484.958c-3.292 0-5.961-2.669-5.961-5.961v-371.008h496.88v371.009c0 3.292-2.669 5.96-5.961 5.96z" fill="#bfbfbf"/><path d="m504.38 342.837v30.183h-343.69c-15.194 0-30.018-4.686-42.451-13.42l-79.189-55.627c-6.546-4.599-10.443-12.097-10.443-20.097v-43.733l136.142 84.051h339.627z" fill="#fccd7f"/><path d="m487.756 259.151h16.62v83.69h-79.67-38.79-210.61c-15.19 0-30.02-4.69-42.45-13.42l-57.69-40.53-26.33-18.49-8.66-6.09c-12.03-8.45-15.17-24.93-7.09-37.21 5.16-7.83 13.8-12.25 22.73-12.25 3.35 0 6.74.63 10.01 1.92l26.25 10.39 32.1 12.72 23.4 9.26 22.12 10.01h261.95 17.32z" fill="#fee903"/><path d="m391.421 259.151-63.05 83.69h-38.79l22.64-30.05 25.58-33.95 14.83-19.69z" fill="#00f2a6"/><path d="m333.654 19.971c-2.73 0-4.943 2.213-4.943 4.943v112.752 32.75h81.613v-32.75-66.575c8.38-13.698 12.815-29.443 12.815-45.501v-.676c0-2.73-2.213-4.943-4.943-4.943z" fill="#fed2a4"/><path d="m389.692 114.939c-18.088 0-32.75-14.663-32.75-32.75v-62.218h-23.287c-2.73 0-4.943 2.213-4.943 4.943v112.752 32.75h81.613v-32.75-22.727z" fill="#ffbd86"/><path d="m318.987 195.505v-50.669c0-3.96 3.21-7.17 7.17-7.17h84.36c3.96 0 7.17 3.21 7.17 7.17v55.297c-.04.014-.08.022-.12.037v31.318h-98.58z" fill="#ebebeb"/><path d="m412.616 312.788h-246.01c-10.512 0-19.033-8.521-19.033-19.033v-20.542h284.075v20.542c.001 10.512-8.52 19.033-19.032 19.033z" fill="#fddeb0"/><path d="m337.406 203.301c-5.29-1.87-10.64-4.17-16.12-6.9-3.99-1.99-8.65-2.11-12.74-.33l-46.68 17.32-59.92 22.22-37.75.49c-9.22.12-16.62 7.63-16.62 16.84v23.27h241.43 42.64v-40.7-25.56c0-7.27-7.27-12.35-14.08-9.78-29.59 11.16-54.06 12.37-80.16 3.13z" fill="#fd6930"/><path d="m318.987 159.19h98.7v23.381h-98.7z" fill="#fd6930"/><path d="m431.559 235.511v40.7h-42.64v-15.45c0-13.94 11.3-25.25 25.25-25.25z" fill="#fef1da"/><path d="m337.319 203.301-26.43 17.87c-7.5 5.07-17.06 5.98-25.38 2.41l-23.73-10.19 46.68-17.32c4.09-1.78 8.75-1.66 12.74.33 5.48 2.73 10.83 5.03 16.12 6.9z" fill="#fef1da"/><path d="m256.577 373.02h-27.547v82.648h27.547c22.823 0 41.324-18.501 41.324-41.324s-18.501-41.324-41.324-41.324z" fill="#e9b665"/><circle cx="229.03" cy="414.344" fill="#fee903" r="41.324"/><circle cx="229.03" cy="414.344" fill="#e9b665" r="13.799"/><path d="m92.076 227.161 32.1 12.72-49.01 49.01-26.33-18.49z" fill="#00f2a6"/><path d="m487.756 259.151-63.05 83.69h-38.79l22.64-30.05 25.58-33.95 14.83-19.69z" fill="#00f2a6"/><path d="m504.38 365.52h-88.797c-4.142 0-7.5 3.357-7.5 7.5s3.358 7.5 7.5 7.5h88.797c4.142 0 7.5-3.357 7.5-7.5s-3.358-7.5-7.5-7.5z"/><path d="m229.03 393.045c-11.744 0-21.299 9.554-21.299 21.298s9.555 21.299 21.299 21.299 21.298-9.555 21.298-21.299-9.554-21.298-21.298-21.298zm0 27.597c-3.473 0-6.299-2.825-6.299-6.299 0-3.473 2.826-6.298 6.299-6.298s6.298 2.825 6.298 6.298c0 3.474-2.825 6.299-6.298 6.299z"/><path d="m455.368 484.409h-447.868c-4.142 0-7.5 3.357-7.5 7.5s3.358 7.5 7.5 7.5h447.868c4.142 0 7.5-3.357 7.5-7.5s-3.358-7.5-7.5-7.5z"/><path d="m504.38 484.409h-19.424c-4.142 0-7.5 3.357-7.5 7.5s3.358 7.5 7.5 7.5h19.424c4.142 0 7.5-3.357 7.5-7.5s-3.358-7.5-7.5-7.5z"/><path d="m504.38 122.439c4.142 0 7.5-3.357 7.5-7.5s-3.358-7.5-7.5-7.5h-86.555v-13.939h86.555c4.142 0 7.5-3.357 7.5-7.5s-3.358-7.5-7.5-7.5h-86.555v-5.344c8.39-14.441 12.814-30.839 12.814-47.566v-5.619c0-4.143-3.358-7.5-7.5-7.5s-7.5 3.357-7.5 7.5v5.619c0 14.682-4.05 29.063-11.712 41.587-.721 1.179-1.102 2.533-1.102 3.914v59.075h-66.613v-110.195c0-4.143-3.358-7.5-7.5-7.5s-7.5 3.357-7.5 7.5v58.529h-313.712c-4.142 0-7.5 3.358-7.5 7.5s3.358 7.5 7.5 7.5h313.711v13.938h-313.711c-4.142 0-7.5 3.357-7.5 7.5s3.358 7.5 7.5 7.5h313.711v8.604c-5.66 2.036-9.725 7.442-9.725 13.794v14.354 23.382 4.953c-1.949.269-3.874.793-5.726 1.579l-105.207 39.022-36.457.478c-8.368.11-15.748 4.511-20.05 11.075l-17.024-6.742c-.018-.008-.037-.014-.056-.022l-32.041-12.689c-.027-.011-.054-.021-.081-.032l-26.261-10.4c-15.205-6.024-32.767-.479-41.758 13.181-3.305 5.021-5.15 10.557-5.638 16.122-.048.343-.081.69-.081 1.046v.07c-.069 1.259-.068 2.517 0 3.769v39.893c0 10.432 5.096 20.238 13.632 26.234l79.189 55.627c13.768 9.672 29.938 14.783 46.762 14.783h33.18c-8.452 8.782-13.664 20.702-13.664 33.823 0 13.122 5.213 25.042 13.665 33.824h-33.612c-4.142 0-7.5 3.357-7.5 7.5s3.358 7.5 7.5 7.5h68.772 27.347 122.083c4.142 0 7.5-3.357 7.5-7.5s-3.358-7.5-7.5-7.5h-86.924c8.452-8.782 13.665-20.702 13.665-33.824 0-13.121-5.213-25.041-13.664-33.823h94.047c4.142 0 7.5-3.357 7.5-7.5s-3.358-7.5-7.5-7.5h-224.894c-13.722 0-26.911-4.169-38.14-12.057l-79.189-55.627c-4.542-3.191-7.254-8.41-7.254-13.961v-13.254l53.473 37.562c1.312.922 2.815 1.364 4.305 1.364 2.36-.001 4.684-1.112 6.144-3.189 2.381-3.39 1.563-8.067-1.826-10.448l-11.424-8.025 39.22-39.22 14.075 5.574v21.974 17.543c0 14.63 11.903 26.532 26.533 26.532h130.308l-11.339 15.049h-110.269c-13.723 0-26.912-4.169-38.14-12.058l-14.409-10.121c-3.389-2.379-8.067-1.563-10.448 1.827-2.381 3.389-1.563 8.067 1.826 10.448l14.409 10.12c13.766 9.671 29.936 14.783 46.762 14.783h329.073c4.142 0 7.5-3.357 7.5-7.5s-3.358-7.5-7.5-7.5h-64.63l51.748-68.683h12.882c4.142 0 7.5-3.357 7.5-7.5s-3.358-7.5-7.5-7.5h-65.23v-41.7c0-5.894-2.896-11.415-7.746-14.77-1.906-1.318-4.021-2.228-6.217-2.727v-9.885-23.38-14.354c0-5.427-2.97-10.164-7.362-12.701v-9.696zm-309.174 291.904c0-18.65 15.173-33.823 33.824-33.823 18.65 0 33.824 15.173 33.824 33.823s-15.173 33.824-33.824 33.824-33.824-15.173-33.824-33.824zm70.12-32.612c14.32 3.935 24.874 17.06 24.874 32.612s-10.554 28.679-24.874 32.613c7.782-8.652 12.527-20.088 12.527-32.613.001-12.525-4.745-23.96-12.527-32.612zm61.16-236.564h83.7v6.523h-83.7zm83.701 29.905h-83.7v-8.382h83.7zm-83.701 15.519v-.519h83.7v4.785c-30.782 10.638-55.497 9.339-83.7-4.266zm-15.329 12.51c.132-.05.263-.103.393-.159 1.58-.688 3.325-.803 4.965-.362.17.059.342.112.517.159.308.107.613.228.91.376 1.241.619 2.476 1.21 3.707 1.787l-14.873 10.059c-5.407 3.657-12.217 4.304-18.215 1.727l-6.503-2.792zm-146.863 40.501 37.751-.494c.857-.011 1.706-.169 2.51-.467l57.103-21.181 20.981 9.01c4.342 1.864 8.919 2.783 13.474 2.783 6.685 0 13.318-1.982 19.063-5.867l23.378-15.81c26.289 8.385 51.706 6.877 81.507-4.333.068-.023.14-.045.2-.067.006-.002.011-.006.018-.008 1.193-.42 2.132.037 2.591.354.477.33 1.278 1.085 1.278 2.432v18.061h-9.897c-18.056 0-32.745 14.689-32.745 32.745v7.953h-123.224l29.668-14.56h63.51c4.142 0 7.5-3.357 7.5-7.5s-3.358-7.5-7.5-7.5h-65.251c-1.146 0-2.276.263-3.304.768l-58.667 28.792h-69.163v-15.769c-.001-5.084 4.135-9.275 9.219-9.342zm181.873 91.734 11.338-15.049h36.013l-11.338 15.049zm66.45-30.048h-131.776v-21.575h143.309v10.043c-.001 6.359-5.174 11.532-11.533 11.532zm-208.311-21.576v21.575h-15.768v-21.575zm15 0h6.648c.009 0 .019.002.028.002.012 0 .023-.002.035-.002h9.056v21.575h-15.768v-21.575zm30.767 0h15.768v21.575h-15.768zm174.076-15h-27.643v-7.953c0-9.785 7.96-17.745 17.745-17.745h9.897v25.698zm-388.042-27.285c.118-3.51 1.163-7.037 3.248-10.204 5.105-7.754 15.078-10.897 23.707-7.483l15.634 6.191-30.706 30.706-3.504-2.461c-5.283-3.711-8.181-9.484-8.378-15.443v-1.306zm38.211 37.704-13.867-9.741 33.441-33.441 16.911 6.697zm80.756 14.624v-10.043h18.464v21.575h-6.931c-6.359.001-11.533-5.172-11.533-11.532zm160.623 26.533h23.028l-11.338 15.049h-23.028zm105.272 15.048h-20.009l11.338-15.049h.318c14.63 0 26.533-11.902 26.533-26.532v-9.349c.349-.316.681-.658.975-1.048l12.585-16.704h20.008z"/></svg>