<svg id="Capa_1" enable-background="new 0 0 511.04 511.04" height="512" viewBox="0 0 511.04 511.04" width="512" xmlns="http://www.w3.org/2000/svg"><g fill="#fed2a4"><path d="m339.173 194.177h35.42v80.971h-35.42z"/><path d="m146.653 217.917h-11.61c-12.71 0-23.01 10.3-23.01 23 0 6.35 2.58 12.11 6.74 16.27s9.92 6.74 16.27 6.74h28.5 32.325v-46.01z"/><path d="m237.463 263.927h-54.48c-12.71 0-23.01 10.3-23.01 23.01 0 6.35 2.58 12.1 6.74 16.26 4.16 4.17 9.92 6.74 16.27 6.74h13.72 59.363v-46.01z"/></g><path d="m135.043 240.922c-6.35 0-12.11-2.58-16.27-6.74-1.416-1.416-2.643-3.02-3.653-4.766-1.96 3.385-3.087 7.31-3.087 11.501 0 6.35 2.58 12.11 6.74 16.27s9.92 6.74 16.27 6.74h28.5 32.325v-23.005h-32.325z" fill="#ffbd86"/><path d="m182.983 286.932c-6.35 0-12.11-2.57-16.27-6.74-1.416-1.416-2.643-3.019-3.653-4.764-1.96 3.386-3.087 7.314-3.087 11.509 0 6.35 2.58 12.1 6.74 16.26 4.16 4.17 9.92 6.74 16.27 6.74h13.72 59.363v-23.005h-59.363z" fill="#ffbd86"/><path d="m148.16 7.503c-.831-.003-1.507.67-1.507 1.501v208.913 29.12c0 9.328 7.562 16.89 16.89 16.89h17.35 2.09 54.48l61.75 1.45h39.96 16.94c8.59 0 15.55-7.56 15.55-16.89v-54.31-184.403c0-.827-.669-1.499-1.496-1.501z" fill="#fef056"/><path d="m333.369 232.496c-7.284-.064-13.156-5.987-13.156-13.271v-55.848c0-28.434-22.492-52.275-50.921-52.791-29.039-.527-52.829 22.941-52.829 51.861 0 15.375-21.713 18.429-26.032 3.673-2.372-8.105-3.644-16.679-3.644-25.551v-132.882c0-.028-.023-.051-.051-.051l-38.525-.134c-.859-.003-1.558.693-1.558 1.552v208.862 29.069c0 9.356 7.585 16.941 16.941 16.941h17.299 2.09 29.006 25.474l61.75 1.45h39.96 3.017 13.923c8.59 0 15.55-7.56 15.55-16.89v-15.606c-.02-.02-.031-.031-.05-.051z" fill="#fee45a"/><path d="m307.563 432.897v67.117c0 1.946-1.577 3.523-3.523 3.523h-134.494c-1.946 0-3.523-1.577-3.523-3.523v-130.547c0-17.84 6.93-34.98 19.33-47.8l11.35-11.73 38.07-39.36c1.72-1.78 2.69-4.17 2.69-6.65v-101.48c0-17.049 13.821-30.87 30.87-30.87h.01c17.049 0 30.87 13.821 30.87 30.87v102.93 42.26c0 4.54 4.99 7.31 8.84 4.92l22.09-13.73c5.61-3.48 9.03-9.62 9.03-16.23v-17.22h16.94c8.59 0 15.55-7.56 15.55-16.89v-54.31h11.11c8.964 0 16.23 7.266 16.23 16.23v131.84c0 14.88-5.911 29.151-16.433 39.673l-39.547 39.547c-7.33 7.32-17.26 11.43-27.61 11.43z" fill="#fed2a4"/><path d="m194.747 500.014v-130.547c0-17.84 6.93-34.98 19.33-47.8l11.35-11.73 38.07-39.36c1.72-1.78 2.69-4.17 2.69-6.65v-101.48c0-11.864 6.697-22.159 16.513-27.327-4.29-2.259-9.172-3.543-14.357-3.543h-.01c-17.049 0-30.87 13.821-30.87 30.87v101.48c0 2.48-.97 4.87-2.69 6.65l-38.07 39.36-11.35 11.73c-12.4 12.82-19.33 29.96-19.33 47.8v130.547c0 1.946 1.577 3.523 3.523 3.523h28.724c-1.945 0-3.523-1.577-3.523-3.523z" fill="#ffbd86"/><path d="m371.66 72.689c4.143 0 7.5-3.357 7.5-7.5v-56.91c0-4.143-3.357-7.5-7.5-7.5s-7.5 3.357-7.5 7.5v56.91c0 4.143 3.358 7.5 7.5 7.5z"/><path d="m382.774 186.673h-3.614v-91.484c0-4.143-3.357-7.5-7.5-7.5s-7.5 3.357-7.5 7.5v153.299c0 5.176-3.609 9.387-8.046 9.387h-49.4v-95.418c0-21.16-17.216-38.376-38.376-38.376s-38.375 17.216-38.375 38.376v28.49c0 4.143 3.357 7.5 7.5 7.5s7.5-3.357 7.5-7.5v-28.49c0-12.89 10.486-23.376 23.375-23.376 12.89 0 23.376 10.486 23.376 23.376v145.182c0 4.82 2.617 9.271 6.83 11.612 2.01 1.117 4.233 1.673 6.456 1.673 2.437 0 4.871-.669 7.013-1.999l22.092-13.725c7.868-4.888 12.565-13.337 12.565-22.601v-9.725h9.444c12.708 0 23.046-10.939 23.046-24.387v-46.815h3.614c4.815 0 8.732 3.917 8.732 8.732v131.844c0 12.976-5.053 25.175-14.228 34.351l-39.564 39.563c-5.957 5.958-13.877 9.238-22.301 9.238h-34.469c-4.143 0-7.5 3.357-7.5 7.5s3.357 7.5 7.5 7.5h19.122v63.14c0 4.143 3.357 7.5 7.5 7.5s7.5-3.357 7.5-7.5v-63.14h.347c12.431 0 24.117-4.841 32.908-13.631l39.563-39.563c12.008-12.009 18.621-27.975 18.621-44.957v-131.844c.002-13.086-10.645-23.732-23.731-23.732zm-51.104 95.927c0 4.041-2.049 7.728-5.481 9.859l-19.475 12.099v-31.683h24.956z"/><path d="m202.012 315.235 38.147-39.44c3.098-3.199 4.804-7.413 4.804-11.867v-42.98c0-4.143-3.357-7.5-7.5-7.5s-7.5 3.357-7.5 7.5v35.479h-46.98-2.091-17.353c-5.177 0-9.388-4.211-9.388-9.387v-239.54c0-4.143-3.357-7.5-7.5-7.5s-7.5 3.357-7.5 7.5v202.915h-4.112c-16.821 0-30.506 13.685-30.506 30.506s13.685 30.506 30.506 30.506h21.688c-2.696 4.547-4.25 9.848-4.25 15.507 0 15.565 11.72 28.436 26.797 30.272-13.379 14.202-20.749 32.712-20.749 52.259v134.074c0 4.143 3.357 7.5 7.5 7.5s7.5-3.357 7.5-7.5v-134.074c0-15.976 6.117-31.099 17.224-42.583l11.254-11.636c.003-.003.006-.007.009-.011zm-82.479-74.314c0-8.55 6.956-15.506 15.506-15.506h4.112v21.625c0 3.325.671 6.496 1.881 9.387h-5.994c-8.549 0-15.505-6.956-15.505-15.506zm47.944 46.013c0-8.551 6.956-15.507 15.506-15.507h40.535l-29.995 31.013h-10.539c-8.551-.001-15.507-6.957-15.507-15.506z"/></svg>