<svg id="Capa_1" enable-background="new 0 0 510.345 510.345" height="512" viewBox="0 0 510.345 510.345" width="512" xmlns="http://www.w3.org/2000/svg"><path d="m78.416 225.355 67.109-88.014c5.341-7.004 13.645-11.115 22.453-11.115h90.572c9.803 0 17.75 7.947 17.75 17.75 0 9.803-7.947 17.75-17.75 17.75h-70.935c-7.839 0-14.194 6.355-14.194 14.194 0 7.839 6.355 14.194 14.194 14.194h96.621c15.573 0 29.656 9.257 35.831 23.554l5.048 11.688v19.342h-246.699z" fill="#fb2b3a"/><path d="m326.817 360.707h98.259c7.15 0 12.946-5.796 12.946-12.946v-2.455c0-7.15-5.796-12.946-12.946-12.946h-115.599c-7.38 0-13.363-5.983-13.363-13.363 0-7.38 5.983-13.363 13.363-13.363h127.511c7.15 0 12.946-5.796 12.946-12.946v-.478c0-7.15-5.796-12.946-12.946-12.946h-34.126c-7.15 0-12.946-5.796-12.946-12.946v-1.09c0-7.15 5.796-12.946 12.946-12.946h62.144c7.15 0 12.946-5.796 12.946-12.946 0-7.15-5.796-12.946-12.946-12.946h-194.905v134.005z" fill="#01d0fb"/><path d="m307.13 318.352c.338-7.187 6.53-12.717 13.725-12.717h19.719v-27.62h-295.34v41.382c0 35.745 28.977 64.722 64.722 64.722h165.896c30.224 0 55.609-20.716 62.73-48.724.391-1.539-.787-3.035-2.375-3.035h-15.729c-7.595 0-13.709-6.335-13.348-14.008z" fill="#62dbfb"/><path d="m315.605 358.687h-165.895c-35.745 0-64.722-28.977-64.722-64.722v-15.95h-39.754v41.382c0 35.745 28.977 64.722 64.722 64.722h165.896c21.522 0 40.584-10.51 52.351-26.672-4.077.804-8.285 1.24-12.598 1.24z" fill="#01c0fa"/><path d="" fill="#62dbfb"/><path d="m45.234 278.015v41.382c0 4.166.409 8.235 1.161 12.183h269.618c-5.252-1.864-9-6.906-8.896-12.822.129-7.351 6.394-13.123 13.746-13.123h17.553c1.192 0 2.158-.966 2.158-2.158v-25.462z" fill="#c8effe"/><path d="m84.988 278.015h-39.754v41.382c0 4.166.409 8.235 1.161 12.183h50.662c-7.589-10.603-12.069-23.582-12.069-37.615z" fill="#99e6fc"/><path d="m347.495 278.015h-309.181c-3.69 0-6.681-2.991-6.681-6.681v-12.38c0-18.556 15.043-33.599 33.599-33.599h255.346c18.556 0 33.599 15.043 33.599 33.599v12.38c-.001 3.69-2.992 6.681-6.682 6.681z" fill="#fe646f"/><path d="m124.876 257.789c-10.527 0-19.061-8.534-19.061-19.061 0-4.754.993-9.274 2.774-13.373h-43.358c-18.556 0-33.599 15.043-33.599 33.599v12.38c0 3.69 2.991 6.681 6.681 6.681h309.181c3.69 0 6.681-2.991 6.681-6.681v-12.38c0-.39-.016-.777-.029-1.164h-229.27z" fill="#fd4755"/><path d="m488.672 360.707h-5.215c-7.828 0-14.174-6.346-14.174-14.174 0-7.828 6.346-14.174 14.174-14.174h5.215c7.828 0 14.174 6.346 14.174 14.174-.001 7.829-6.347 14.174-14.174 14.174z" fill="#01d0fb"/><path d="m246.101 324.08h-20.851c-4.142 0-7.5 3.357-7.5 7.5s3.358 7.5 7.5 7.5h20.851c4.142 0 7.5-3.357 7.5-7.5s-3.358-7.5-7.5-7.5z"/><path d="m461.847 376.62h-142.035c3.299-2.534 6.377-5.349 9.201-8.412h94.836c11.951 0 21.674-9.723 21.674-21.674s-9.723-21.674-21.674-21.674h-84.574c-.011 0-.023 0-.034 0h-18.763c-3.233 0-5.863-2.63-5.863-5.863 0-3.232 2.63-5.862 5.863-5.862h38.26c4.142 0 7.5-3.357 7.5-7.5s-3.358-7.5-7.5-7.5h-10.664v-12.649c7.55-.308 13.602-6.528 13.602-14.151v-12.38c0-9.429-3.2-18.12-8.559-25.063h111.89c1.503 0 2.903.6 3.942 1.688 1.037 1.086 1.569 2.518 1.498 4.03-.134 2.853-2.738 5.173-5.805 5.173h-61.233c-11.574 0-20.991 9.417-20.991 20.991s9.417 20.99 20.991 20.99h33.342c3.135 0 5.685 2.551 5.685 5.686s-2.55 5.685-5.685 5.685h-48.012c-4.142 0-7.5 3.357-7.5 7.5s3.358 7.5 7.5 7.5h48.012c11.406 0 20.685-9.279 20.685-20.685s-9.279-20.686-20.685-20.686h-33.342c-3.303 0-5.991-2.688-5.991-5.99 0-3.304 2.688-5.991 5.991-5.991h61.233c11.144 0 20.275-8.552 20.789-19.468.266-5.648-1.732-11.007-5.627-15.09-3.84-4.025-9.233-6.334-14.795-6.334h-133.749c-.254 0-.504.013-.751.038l-3.557-8.236c-7.368-17.059-24.135-28.08-42.716-28.08h-96.621c-3.691 0-6.694-3.003-6.694-6.693 0-3.691 3.003-6.694 6.694-6.694h70.935c13.923 0 25.25-11.327 25.25-25.25s-11.327-25.25-25.25-25.25h-90.572c-11.077 0-21.7 5.259-28.416 14.067l-64.858 85.063h-9.471c-22.662 0-41.099 18.437-41.099 41.099v12.38c0 7.624 6.052 13.844 13.602 14.151v33.912c0 23.278 11.081 44.006 28.233 57.223h-58.469c-4.142 0-7.5 3.357-7.5 7.5s3.358 7.5 7.5 7.5h102.457 165.896 185.995c4.142 0 7.5-3.357 7.5-7.5s-3.359-7.501-7.501-7.501zm-31.325-30.086c0 3.68-2.994 6.674-6.674 6.674h-84.191c2.241-4.209 4.09-8.669 5.471-13.348h78.72c3.681 0 6.674 2.994 6.674 6.674zm-279.033-204.646c3.898-5.111 10.062-8.163 16.489-8.163h90.572c5.652 0 10.25 4.599 10.25 10.25s-4.598 10.25-10.25 10.25h-70.935c-11.962 0-21.694 9.732-21.694 21.694s9.732 21.693 21.694 21.693h96.621c12.591 0 23.953 7.469 28.945 19.027l.525 1.215h-220.14zm-112.357 117.066c0-14.391 11.708-26.099 26.099-26.099h255.346c14.391 0 26.099 11.708 26.099 26.099v11.561h-6.102-295.34-6.102zm70.825 117.666c-24.64 0-45.691-15.655-53.733-37.54h139.026c4.142 0 7.5-3.357 7.5-7.5s-3.358-7.5-7.5-7.5h-142.308c-.126-1.546-.208-3.104-.208-4.683v-33.883h280.34v12.62h-12.597c-11.504 0-20.863 9.359-20.863 20.863s9.359 20.862 20.863 20.862h8.82c-8.344 21.757-29.518 36.76-53.445 36.76h-165.895z"/><path d="m488.671 324.86h-5.215c-11.951 0-21.673 9.723-21.673 21.674s9.723 21.674 21.673 21.674h5.215c11.951 0 21.674-9.723 21.674-21.674s-9.722-21.674-21.674-21.674zm0 28.348h-5.215c-3.68 0-6.673-2.994-6.673-6.674s2.994-6.674 6.673-6.674h5.215c3.68 0 6.674 2.994 6.674 6.674s-2.993 6.674-6.674 6.674z"/></svg>