<svg id="Capa_1" enable-background="new 0 0 512.051 512.051" height="512" viewBox="0 0 512.051 512.051" width="512" xmlns="http://www.w3.org/2000/svg"><path d="m500.429 504.294h-489.225c-2.045 0-3.704-1.658-3.704-3.704v-170.737c0-2.045 1.658-3.704 3.704-3.704h489.225c2.045 0 3.704 1.658 3.704 3.704v170.737c0 2.046-1.659 3.704-3.704 3.704z" fill="#08a9f1"/><path d="m7.5 371.616h496.632v30.188h-496.632z" fill="#f2fbff"/><path d="m100.365 388.637h28.139v115.657h-28.139z" fill="#f2fbff"/><path d="m451.34 209.162 24.553-95.787-32.212-18.86-82.713 42.59-17.639 8.786 30.947 13.827 20.711-10.656 37.328-19.22 10.218 8.147-10.425 40.671-4.826 19.907 19.897 31.829z" fill="#fb2b3a"/><path d="m394.987 149.062 20.74-10.679c-9.157-5.975-18.846-10.848-28.945-14.57l-25.814 13.292-17.639 8.786 30.948 13.828z" fill="#c41926"/><path d="m458.544 181.057c-5.879-9.012-12.789-17.391-20.645-24.992l-5.792 22.595-4.826 19.908 19.897 31.829 4.161-21.234z" fill="#c41926"/><path d="m460.269 246.55c-3.729-33.063-20.109-62.696-46.125-83.438-22.297-17.778-49.122-27.175-77.577-27.175-38.176 0-73.704 17.1-97.476 46.914l-32.89 41.25-10.066 12.828c-20.141 25.673-29.324 57.678-25.859 90.118 3.465 32.444 19.198 61.787 44.301 82.62l1.792 1.488.243.192c22.248 17.651 48.99 26.981 77.338 26.981 38.176 0 73.704-17.099 97.475-46.912l42.459-53.251c20.742-26.013 30.113-58.549 26.385-91.615zm-48.278 74.16-42.459 53.251c-18.429 23.113-45.978 36.369-75.582 36.369-21.968 0-42.686-7.231-59.934-20.917l-1.553-1.289c-19.46-16.15-31.659-38.898-34.345-64.05s4.434-49.962 20.047-69.862l9.93-12.656 32.889-41.25c18.429-23.113 45.978-36.37 75.583-36.37 22.046 0 42.836 7.285 60.122 21.067 20.167 16.08 32.866 39.053 35.757 64.684 2.889 25.633-4.375 50.855-20.455 71.023z" fill="#fe646f"/><path d="m278.017 411.348-.243-.192-1.792-1.488c-.519-.431-1.027-.87-1.538-1.308-14.662-3-28.392-9.396-40.429-18.947l-1.553-1.289c-19.46-16.15-31.659-38.898-34.345-64.05s4.434-49.962 20.047-69.862l9.93-12.656 32.889-41.25c14.235-17.853 33.914-29.818 55.776-34.343 14.616-12.589 31.867-21.535 50.501-26.229-9.913-2.509-20.19-3.798-30.693-3.798-38.176 0-73.704 17.1-97.476 46.914l-32.89 41.25-10.066 12.828c-20.141 25.673-29.324 57.678-25.859 90.118 3.465 32.444 19.198 61.787 44.301 82.62l1.792 1.488.243.192c22.248 17.651 48.99 26.981 77.338 26.981 10.501 0 20.799-1.301 30.71-3.797-16.848-4.262-32.638-12.07-46.643-23.182z" fill="#fb2b3a"/><path d="m504.551 89.025c0 1.152-.394 2.269-1.116 3.167l-22.251 27.664c-4.156 5.212-11.75 6.068-16.962 1.913l-21.607-17.228c-5.212-4.156-6.068-11.75-1.913-16.962l60.935-76.18c.966-1.208 2.913-.525 2.913 1.022v76.604z" fill="#fe646f"/><path d="m459.283 110.314 45.268-56.594v-41.299c0-1.546-1.947-2.229-2.913-1.022l-60.935 76.18c-4.156 5.212-3.3 12.806 1.913 16.962l14.201 11.323c.324-1.967 1.135-3.881 2.466-5.55z" fill="#fb2b3a"/><circle cx="115.508" cy="350.931" fill="#00f2a6" r="62.529"/><path d="m115.508 350.931c0-23.141 12.58-43.33 31.265-54.143-9.199-5.324-19.871-8.386-31.265-8.386-34.534 0-62.53 27.995-62.53 62.529s27.995 62.529 62.53 62.529c11.393 0 22.065-3.062 31.265-8.386-18.685-10.813-31.265-31.002-31.265-54.143z" fill="#05e39c"/><path d="m234.122 221.965c-.002.002-.004.005-.006.008l-11.923 14.954-9.93 12.656c-16.827 21.447-24.499 48.185-21.604 75.287 2.895 27.104 16.039 51.618 37.012 69.024l1.553 1.289c.043.035.086.07.13.104 18.585 14.746 40.923 22.541 64.596 22.541 31.901 0 61.587-14.285 81.446-39.192l21.451-26.903c.004-.005.008-.009.012-.014.004-.006.008-.012.012-.017l20.984-26.318c17.329-21.732 25.158-48.914 22.044-76.538-3.115-27.622-16.801-52.378-38.535-69.707-18.628-14.853-41.034-22.703-64.797-22.703-31.9 0-61.587 14.286-81.447 39.194l-20.991 26.327c-.003.004-.005.006-.007.008zm68.986-44.068 18.122 14.449-6.229 7.813-11.624 14.65-26.13-20.834c7.677-6.858 16.423-12.272 25.861-16.078zm23.632 31.6 6.218-7.799 24.265 19.347-17.888 22.435-24.23-19.319zm58.467-23.548-18.631 23.367-24.266-19.347 13.175-16.524c10.557 2.28 20.574 6.492 29.722 12.504zm39.785 64.579c.215 1.91.347 3.815.441 5.718l-11.135-8.879 8.148-10.219c1.172 4.351 2.032 8.818 2.546 13.38zm-.554 24.109c-1.604 10.082-4.942 19.799-9.915 28.793l-27.466-21.9 17.888-22.435zm-49.109-2.458-24.265-19.347 17.888-22.435 24.265 19.347zm-44.61 122.78-20.848-16.623 16.377-20.54 27.574 21.986c-6.909 6.28-14.701 11.385-23.103 15.177zm-32.576-25.974-24.265-19.348 16.377-20.54 24.266 19.348zm-54.313 18.337 20.696-25.956 24.265 19.348-15.675 19.659c-10.423-2.498-20.294-6.885-29.286-13.051zm-38.255-64.044c-.333-3.114-.489-6.221-.499-9.313l12.024 9.587-9.38 11.822c-.978-3.949-1.706-7.986-2.145-12.096zm1.25-27.104c1.824-9.062 5.054-17.797 9.628-25.921l26.298 20.968-16.328 20.58zm47.654 4.398 24.047 19.173-16.377 20.54-23.998-19.134zm45.127 16.796 16.377-20.54 24.265 19.348-16.377 20.54zm25.729-32.268 16.377-20.54 24.265 19.347-16.377 20.54zm4.649-29.891-16.377 20.54-24.152-19.257 16.328-20.579zm-25.729 32.268-16.377 20.54-24.075-19.196 16.328-20.579zm-52.18-8.007-27.187-21.677 9.07-11.56 7.217-9.052 27.228 21.709zm-38.427 72.564 15.179-19.132 23.969 19.112-20.574 25.803c-7.758-7.487-14.032-16.202-18.574-25.783zm76.752 50.722 10.12-12.691 13.25 10.564c-6.425 1.449-13.064 2.2-19.821 2.2-1.187.001-2.37-.027-3.549-.073zm73.676-33.984-28.476-22.704 16.377-20.54 28.476 22.705zm25.729-32.268-28.476-22.705 16.377-20.54 28.474 22.703c-.019.023-.036.048-.054.071zm26.464-115.671-13.7 17.182-24.265-19.347 18.712-23.468c8.002 7.395 14.499 16.059 19.253 25.633zm-78.39-49.369-7.298 9.154-9.775-7.794c5.149-.912 10.417-1.387 15.76-1.387.44 0 .875.021 1.313.027zm-71.031 33.519c.019-.023.038-.046.057-.069l27.15 21.647-16.328 20.579-27.2-21.687z"/><path d="m504.373 394.303h-104.856l12.11-15.188h92.506c4.143 0 7.5-3.357 7.5-7.5s-3.357-7.5-7.5-7.5h-80.546l17.07-21.409c2.345-2.942 4.546-5.966 6.616-9.057h56.86c4.143 0 7.5-3.357 7.5-7.5s-3.357-7.5-7.5-7.5h-48.166c11.18-22.575 15.687-47.905 12.796-73.535-1.441-12.785-4.667-25.085-9.508-36.629l20.016-78.089c3.013-1.249 5.679-3.233 7.757-5.839l23.366-29.052c2.596-3.228 2.083-7.948-1.145-10.544-3.226-2.598-7.947-2.085-10.545 1.144l-23.386 29.076c-.761.954-1.848 1.556-3.061 1.692-1.217.135-2.407-.207-3.361-.969l-4.001-3.19-17.611-14.042c-.952-.76-1.552-1.846-1.688-3.058-.137-1.212.207-2.406.961-3.352l63.848-79.822c2.588-3.234 2.063-7.954-1.172-10.541-3.233-2.587-7.953-2.062-10.539 1.174l-63.855 79.831c-2.298 2.881-3.686 6.276-4.112 9.846l-70.976 36.546c-40.807-7.092-84.081 5.017-115.429 35.616-2.964 2.894-3.021 7.642-.128 10.606 2.893 2.961 7.641 3.021 10.606.128 42.321-41.313 109.164-44.616 155.479-7.687 5.854 4.667 11.185 9.816 15.968 15.367.135.17.278.335.428.494 7.172 8.418 13.073 17.76 17.577 27.783.135.391.306.766.502 1.128 4.669 10.692 7.76 22.141 9.104 34.064 3.522 31.239-5.331 61.979-24.93 86.56l-43.298 54.303c-40.444 50.723-114.598 59.101-165.34 18.694l-1.734-1.44c-14.714-12.211-26.277-27.911-33.553-45.486.339-2.787.534-5.618.534-8.495 0-12.786-3.461-24.771-9.47-35.1-.346-26.769 8.5-53.029 25.057-74.133l10.153-12.94 24.65-30.917c2.582-3.239 2.05-7.958-1.188-10.54-3.24-2.583-7.959-2.052-10.54 1.188l-24.687 30.963-10.189 12.986c-15.056 19.189-24.469 42.159-27.347 66.163-12.373-11-28.65-17.7-46.469-17.7-26.976 0-50.421 15.341-62.114 37.748h-45.893c-4.143 0-7.5 3.357-7.5 7.5s3.357 7.5 7.5 7.5h40.141c-1.409 5.53-2.162 11.319-2.162 17.281 0 4.508.444 8.912 1.262 13.185h-39.241c-4.143 0-7.5 3.357-7.5 7.5s3.357 7.5 7.5 7.5h43.922c2.413 5.464 5.504 10.561 9.167 15.188h-53.089c-4.143 0-7.5 3.357-7.5 7.5s3.357 7.5 7.5 7.5h69.379c4.928 3.272 10.293 5.927 15.986 7.878v87.112c0 4.143 3.357 7.5 7.5 7.5s7.5-3.357 7.5-7.5v-83.759c2.511.273 5.059.425 7.643.425 2.55 0 5.066-.146 7.546-.413v83.747c0 4.143 3.357 7.5 7.5 7.5s7.5-3.357 7.5-7.5v-87.079c5.728-1.954 11.127-4.621 16.083-7.911h46.924c2.542 2.481 5.175 4.875 7.915 7.149l1.794 1.489c.038.031.077.063.115.094 23.733 18.923 52.554 28.96 82.465 28.96 5.017 0 10.069-.283 15.128-.854 29.684-3.348 56.771-16.27 77.782-36.84h118.113c4.143 0 7.5-3.357 7.5-7.5s-3.357-7.498-7.5-7.498zm-69.86-286.631 3.413 2.722c.005.004.009.008.013.012l21.607 17.228c.001.001.002.001.003.002l4.106 3.274-14.798 57.73c-2.616-4.097-5.457-8.057-8.527-11.857l9.466-36.931c.732-2.86-.281-5.885-2.59-7.727l-10.217-8.147c-2.309-1.841-5.484-2.153-8.109-.804l-33.947 17.48c-4.414-2.145-8.918-4.031-13.49-5.656zm-14.883 48.559c-2.988-2.382-6.054-4.608-9.183-6.693l20.987-10.807 2.629 2.096-5.86 22.861c-2.739-2.589-5.593-5.081-8.573-7.457zm-231.787 238.073h-17.416c3.293-4.162 6.13-8.697 8.422-13.544 2.717 4.693 5.723 9.216 8.994 13.544zm-45.91-91.626c-8.898 10.727-13.745 24.091-13.745 38.202v10.052c0 6.992-5.688 12.681-12.68 12.681s-12.681-5.688-12.681-12.681v-14.244c0-12.831-4.011-25.039-11.425-35.212 7.284-3.565 15.464-5.573 24.105-5.573 9.572-.001 18.578 2.46 26.426 6.775zm-81.454 48.253c0-16.32 7.148-30.995 18.469-41.082 5.762 7.713 8.88 17.034 8.88 26.837v14.244c0 15.263 12.418 27.681 27.681 27.681s27.68-12.418 27.68-27.681v-10.052c0-10.84 3.822-21.087 10.81-29.227 10.197 9.994 16.54 23.906 16.54 39.279 0 30.344-24.686 55.029-55.029 55.029s-55.031-24.684-55.031-55.028z"/><path d="m17.036 204.884c1.563.709 38.441 17.971 51.93 70.851.865 3.393 3.915 5.648 7.262 5.648.614 0 1.238-.076 1.859-.234 4.014-1.024 6.438-5.107 5.414-9.121-15.364-60.229-58.517-80.025-60.346-80.839-3.777-1.678-8.184.019-9.876 3.787s-.005 8.202 3.757 9.908z"/><path d="m100.346 236.558c1.983 5.039 3.693 10.352 5.08 15.791.865 3.392 3.915 5.648 7.262 5.648.614 0 1.237-.076 1.859-.234 4.014-1.024 6.438-5.107 5.414-9.121-1.542-6.045-3.445-11.959-5.658-17.578-1.518-3.855-5.874-5.752-9.726-4.231-3.854 1.517-5.749 5.872-4.231 9.725z"/><path d="m53.497 181.499c.197.09 19.931 9.238 35.898 33.739 1.438 2.207 3.84 3.406 6.29 3.406 1.404 0 2.824-.394 4.088-1.218 3.471-2.262 4.45-6.908 2.188-10.378-18.522-28.423-41.383-38.816-42.347-39.245-3.777-1.679-8.184.019-9.876 3.787s-.004 8.203 3.759 9.909z"/></svg>