<svg id="Capa_1" enable-background="new 0 0 512.351 512.351" height="512" viewBox="0 0 512.351 512.351" width="512" xmlns="http://www.w3.org/2000/svg"><path d="m173.083 327.213-157.067 76.958c-3.929 1.925-8.516-.935-8.516-5.31v-225.558c0-2.257 1.285-4.317 3.312-5.31l67.947-33.293 56.943-27.9 26.143-12.809c53.161-26.047 117.372-4.067 143.419 49.094 26.047 53.161 4.067 117.372-49.094 143.418l-26.143 12.809z" fill="#fef056"/><path d="m291.384 191.291-26.143 12.809-56.944 27.9-157.067 76.958c-3.929 1.925-8.516-.935-8.516-5.31v-151.287l-31.902 15.631c-2.027.993-3.312 3.053-3.312 5.311v225.557c0 4.375 4.587 7.236 8.516 5.311l157.068-76.958 56.943-27.9 26.143-12.809c42.694-20.918 65.269-66.452 59.015-111.108-7.027 6.197-14.982 11.574-23.801 15.895z" fill="#fed402"/><path d="m7.5 194.971 164.905-79.428c11.524-5.646 23.812-8.509 36.523-8.509 32.042 0 60.697 17.86 74.784 46.61 20.182 41.192 3.09 91.125-38.102 111.308l-238.11 117.78z" fill="#00f2a6"/><path d="m280.626 197.045-180.189 89.13c-26.671 13.193-57.921-6.213-57.921-35.969v-72.101l-35.016 16.866v187.761l238.11-117.78c29.432-14.42 46.549-44.03 46.568-74.786-3.607 2.559-7.455 4.872-11.552 6.879z" fill="#05e39c"/><path d="m197.196 210.38-8.583-17.517c-2.571-5.247-8.909-7.417-14.157-4.846l-12.586 6.187-48.111 23.573-20.767 10.175c-5.247 2.571-7.417 8.909-4.846 14.156l8.583 17.517c2.571 5.248 8.909 7.417 14.157 4.846l24.03-11.773 44.848-21.974 12.587-6.187c5.247-2.571 7.416-8.909 4.845-14.157z" fill="#fef056"/><path d="m181.289 296.108-29.858-43.831-6.588.877c-11.813 1.573-23.346-4.417-28.853-14.985-5.842-11.212-3.544-24.938 5.63-33.636l3.765-3.57-17.202-54.128-6.311-13.26 24.034-12.826 6.257 12.826 75.091 153.259 5.172 12.372-23.036 12.818z" fill="#bfbfbf"/><path d="m132.164 133.576-30.078 14.737c-7.419 3.635-16.379.568-20.014-6.851l-6.626-13.524c-3.635-7.419-.568-16.379 6.851-20.014l30.078-14.737c7.419-3.635 16.379-.567 20.014 6.851l6.626 13.524c3.635 7.418.568 16.379-6.851 20.014z" fill="#e9b665"/><path d="m227.045 327.224-30.078 14.737c-7.419 3.635-16.379.568-20.014-6.851l-6.626-13.524c-3.635-7.419-.568-16.379 6.851-20.014l30.078-14.737c7.419-3.635 16.379-.567 20.014 6.851l6.626 13.524c3.635 7.418.567 16.379-6.851 20.014z" fill="#e9b665"/><path d="m115.234 126.231c-7.419 3.635-16.379.567-20.014-6.851l-6.626-13.524c-.136-.277-.243-.56-.361-.841l-5.936 2.909c-7.419 3.635-10.486 12.595-6.851 20.014l6.626 13.524c3.635 7.419 12.595 10.486 20.014 6.851l30.078-14.737c7.142-3.499 10.232-11.93 7.212-19.173z" fill="#d8aa5e"/><path d="m210.115 319.879c-7.419 3.635-16.379.568-20.014-6.851l-6.626-13.524c-.136-.277-.243-.56-.361-.841l-5.936 2.909c-7.419 3.635-10.486 12.595-6.851 20.014l6.626 13.524c3.635 7.418 12.595 10.486 20.014 6.851l30.078-14.737c7.142-3.499 10.232-11.93 7.212-19.173z" fill="#d8aa5e"/><circle cx="141.409" cy="224.382" fill="#838383" r="11.377"/><path d="m168.837 126.757 7.308-3.58c10.349-5.071 21.378-7.643 32.783-7.643 28.772 0 54.502 16.036 67.151 41.851 8.762 17.884 10.025 38.142 3.556 57.04s-19.881 34.132-37.765 42.894l-7.834 3.839c-3.719 1.823-5.257 6.315-3.435 10.035 1.302 2.658 3.968 4.202 6.74 4.202 1.108 0 2.233-.247 3.295-.767l7.834-3.839c21.482-10.525 37.59-28.817 45.356-51.507 7.767-22.688 6.248-47.015-4.278-68.497-15.187-30.996-46.079-50.251-80.621-50.251-13.712 0-26.962 3.086-39.383 9.172l-7.307 3.58c-3.72 1.822-5.258 6.315-3.435 10.035 1.823 3.721 6.316 5.255 10.035 3.436z"/><path d="m241.711 321.064c1.942-5.676 1.559-11.768-1.081-17.154l-.569-1.162 19.407-9.509c27.51-13.479 48.125-36.864 58.046-65.848s7.962-60.096-5.517-87.606c-.607-1.239-1.24-2.456-1.886-3.663h74.07c4.142 0 7.5-3.357 7.5-7.5s-3.358-7.5-7.5-7.5h-83.655c-8.254-10.937-18.255-20.094-29.414-27.258h187.453c4.142 0 7.5-3.357 7.5-7.5s-3.358-7.5-7.5-7.5h-222.449c-25.169-6.148-52.54-3.873-77.571 8.392l-19.408 9.509-.013-.027c-2.639-5.387-7.218-9.424-12.894-11.367-5.675-1.941-11.769-1.558-17.155 1.08l-30.08 14.738c-11.119 5.449-15.733 18.929-10.285 30.049l.013.027-53.723 26.322v-10.752c0-4.143-3.358-7.5-7.5-7.5s-7.5 3.357-7.5 7.5v282.444c0 4.143 3.358 7.5 7.5 7.5s7.5-3.357 7.5-7.5v-16.259l154.649-75.771.569 1.161c3.896 7.95 11.895 12.575 20.203 12.574 3.313 0 6.676-.735 9.845-2.288l30.079-14.737c5.387-2.64 9.424-7.219 11.366-12.895zm-76.566-220.337c49.361-24.187 109.198-3.704 133.384 45.658 24.185 49.362 3.702 109.198-45.66 133.384l-19.44 9.525c-4.506-8.056-13.381-12.339-22.17-11.333l-5.407-11.036c-1.822-3.721-6.316-5.256-10.035-3.436-3.72 1.823-5.258 6.315-3.435 10.035l4.839 9.875-11.631 5.699-27.96-41.045c-1.596-2.343-4.376-3.584-7.188-3.212l-6.589.877c-8.652 1.153-17.177-3.273-21.211-11.016-4.272-8.199-2.57-18.367 4.139-24.728l3.765-3.569c2.087-1.979 2.859-4.975 1.988-7.715l-15.658-49.272 11.855-5.809 26.408 53.898c.001.001.001.003.002.004s.001.002.002.003l17.889 36.51c.001.002.002.004.003.006.001.001.002.002.002.004l6.14 12.532c1.302 2.658 3.967 4.202 6.74 4.202 1.108 0 2.233-.247 3.294-.767 3.72-1.823 5.258-6.315 3.435-10.035l-2.851-5.818 5.856-2.878c8.952-4.387 12.667-15.239 8.281-24.192l-8.583-17.517c-2.125-4.337-5.811-7.587-10.38-9.15-4.57-1.564-9.474-1.257-13.819.874l-5.847 2.874-23.67-48.311c6.456-6.609 8.411-16.829 4.12-25.589l-.013-.026zm-59.48 129.369c.549 3.959 1.76 7.864 3.675 11.539 2.227 4.273 5.255 7.949 8.823 10.919l-10.577 5.182c-1.525.75-3.374.113-4.122-1.41l-8.583-17.518c-.488-.997-.302-1.902-.148-2.354.154-.45.562-1.279 1.559-1.768zm77.53-9.415-11.294-23.05 5.856-2.879c.997-.487 1.901-.302 2.353-.147.451.154 1.28.562 1.769 1.559l8.583 17.517c.748 1.525.115 3.375-1.419 4.127zm-97.598-106.022 30.079-14.737c1.037-.509 2.153-.765 3.275-.765.813 0 1.63.135 2.422.405 1.885.646 3.405 1.986 4.282 3.775l6.626 13.523c1.808 3.69.279 8.163-3.408 9.975-.003.001-.005.002-.008.003-.005.002-.01.006-.015.008l-30.063 14.73c-1.789.878-3.813 1.002-5.697.359-1.885-.646-3.405-1.986-4.282-3.775l-3.311-6.758c-.001-.001-.001-.002-.002-.004s-.001-.002-.002-.004l-3.311-6.758c-1.81-3.691-.278-8.167 3.415-9.977zm-70.597 270.521 132.127-64.736c3.72-1.823 5.258-6.315 3.435-10.035s-6.315-5.256-10.035-3.436l-125.527 61.504v-166.346l59.176-28.993c3.72-1.823 5.258-6.315 3.435-10.035s-6.315-5.255-10.035-3.436l-52.576 25.76v-11.136l60.324-29.556.013.026c2.64 5.387 7.219 9.424 12.894 11.367 2.385.816 4.844 1.222 7.293 1.222 2.609 0 5.207-.466 7.694-1.38l13.597 42.784-.354.336c-4.004 3.796-6.969 8.381-8.83 13.338l-17.937 8.789c-4.337 2.124-7.587 5.811-9.151 10.381-1.564 4.569-1.255 9.474.87 13.811l8.583 17.519c3.136 6.399 9.577 10.123 16.265 10.123 2.667 0 5.374-.593 7.926-1.843l21.843-10.702c3.204.464 6.496.523 9.805.083l2.003-.267 24.203 35.53c-4.465 2.721-7.815 6.871-9.529 11.88-1.808 5.284-1.575 10.92.592 16.021l-148.104 72.563zm212.52-68.974c-.645 1.886-1.986 3.406-3.774 4.282l-30.079 14.737c-3.695 1.812-8.169.276-9.979-3.415l-6.626-13.524c-.876-1.789-1.004-3.812-.358-5.696.645-1.886 1.986-3.406 3.774-4.282l30.079-14.737c1.053-.517 2.169-.761 3.27-.761 2.759 0 5.416 1.536 6.709 4.176l2.756 5.625c0 .001.001.001.001.002 0 0 .001.001.001.001l3.868 7.895c.876 1.79 1.003 3.812.358 5.697z"/><circle cx="141.409" cy="224.382" r="11.377"/><path d="m504.851 78.864h-16.283c-4.142 0-7.5 3.357-7.5 7.5s3.358 7.5 7.5 7.5h16.283c4.142 0 7.5-3.357 7.5-7.5s-3.358-7.5-7.5-7.5z"/><path d="m334.998 169.051c0 4.143 3.358 7.5 7.5 7.5h129.677c4.142 0 7.5-3.357 7.5-7.5s-3.358-7.5-7.5-7.5h-129.677c-4.143 0-7.5 3.357-7.5 7.5z"/><path d="m455.439 215.488c0-4.143-3.358-7.5-7.5-7.5h-17.431c-4.142 0-7.5 3.357-7.5 7.5s3.358 7.5 7.5 7.5h17.431c4.143 0 7.5-3.357 7.5-7.5z"/><path d="m400.509 222.988c4.142 0 7.5-3.357 7.5-7.5s-3.358-7.5-7.5-7.5h-52.989c-4.142 0-7.5 3.357-7.5 7.5s3.358 7.5 7.5 7.5z"/></svg>