<svg id="Capa_1" enable-background="new 0 0 511.487 511.487" height="512" viewBox="0 0 511.487 511.487" width="512" xmlns="http://www.w3.org/2000/svg"><path d="m169.805 453.459h298.88v-390.72h-425.414v390.724z" fill="#00f2a6"/><circle cx="307.308" cy="303.73" fill="#fe646f" r="86.127"/><path d="m356.875 340.291c-47.567 0-86.127-38.561-86.127-86.127 0-10.874 2.035-21.268 5.713-30.847-32.325 12.409-55.28 43.722-55.28 80.415 0 47.567 38.561 86.127 86.127 86.127 36.693 0 68.006-22.956 80.415-55.28-9.58 3.676-19.974 5.712-30.848 5.712z" fill="#fb2b3a"/><circle cx="307.308" cy="303.73" fill="#ebebeb" r="59.678"/><path d="m481.168 503.175-182.233-191.822c-3.823-4.024-3.741-10.361.183-14.286l5.634-5.634c3.909-3.909 10.215-4.007 14.244-.222l183.961 172.837c.525.494.824 1.183.824 1.904v35.423c0 1.443-1.169 2.612-2.612 2.612h-18.108c-.715.001-1.4-.293-1.893-.812z" fill="#e9b665"/><path d="m493.022 494.027c-.716 0-1.401-.293-1.894-.813l-182.232-191.822c-3.089-3.251-3.626-8.011-1.649-11.79-.898.47-1.741 1.078-2.495 1.831l-5.634 5.634c-3.924 3.925-4.006 10.262-.183 14.286l182.232 191.822c.493.519 1.178.813 1.894.813h18.107c1.443 0 2.612-1.169 2.612-2.612v-7.349z" fill="#d8aa5e"/><path d="m318.997 291.211c-4.029-3.785-10.335-3.687-14.244.222l-5.634 5.634c-3.924 3.925-4.006 10.262-.183 14.286l9.988 10.514 20.895-20.488z" fill="#d8aa5e"/><path d="m71.095 65.109c24.34-24.34 63.8-24.34 88.14 0l33.83 33.83c24.34 24.34 24.34 63.81 0 88.15-12.17 12.17-28.12 18.26-44.07 18.26-15.85 0-31.7-6.01-43.84-18.04l-.23-.22-33.83-33.84c-12.18-12.17-18.26-28.12-18.26-44.07s6.08-31.9 18.26-44.07z" fill="#00c285"/><path d="m468.685 17.937v145.882h-188.93c-13.97 0-27.36-5.55-37.23-15.42l-83.29-83.29c-24.34-24.34-63.8-24.34-88.14 0-12.18 12.17-18.26 28.12-18.26 44.07s6.08 31.9 18.26 44.07l83.28 83.29c9.88 9.88 15.43 23.27 15.43 37.24v179.68h-151.662c-5.765 0-10.438-4.673-10.438-10.438v-381.332c0-29.928 24.262-54.19 54.19-54.19h396.352c5.765 0 10.438 4.674 10.438 10.438z" fill="#fccd7f"/><path d="m116.709 198.869v254.591h53.096v-179.68c0-13.97-5.55-27.36-15.43-37.24z" fill="#e9b665"/><path d="m200.728 106.602 41.798 41.798c9.87 9.87 23.26 15.42 37.23 15.42h188.93v-57.218z" fill="#e9b665"/><path d="m71.095 153.249 82.06 82.07h-145.45v-173.63c0-29.93 24.26-54.19 54.19-54.19h165.38v125.65l-68.04-68.04c-24.34-24.34-63.8-24.34-88.14 0-12.18 12.17-18.26 28.12-18.26 44.07s6.08 31.9 18.26 44.07z" fill="#838383"/><path d="m198.371 192.391c13.188-13.188 20.452-30.724 20.452-49.375 0-2.764-.179-5.499-.493-8.204l18.889 18.889c11.362 11.361 26.468 17.619 42.536 17.619h173.935c4.142 0 7.5-3.357 7.5-7.5s-3.358-7.5-7.5-7.5h-173.935c-12.061 0-23.4-4.697-31.93-13.227l-13.053-13.053v-15.939h218.918c4.142 0 7.5-3.357 7.5-7.5s-3.358-7.5-7.5-7.5h-218.918v-84.101h218.918c4.142 0 7.5-3.357 7.5-7.5s-3.358-7.5-7.5-7.5h-391.797c-34.014 0-61.687 27.673-61.687 61.687v376.776c0 4.143 3.358 7.5 7.5 7.5s7.5-3.357 7.5-7.5v-195.646h94.018v195.646c0 4.143 3.358 7.5 7.5 7.5s7.5-3.357 7.5-7.5v-195.646h25.779c7.934 8.41 12.298 19.345 12.298 30.957v164.688c0 4.143 3.358 7.5 7.5 7.5s7.5-3.357 7.5-7.5v-164.688c0-16.067-6.257-31.174-17.619-42.537l-18.888-18.888c2.704.314 5.439.493 8.203.493 18.651.001 36.186-7.263 49.374-20.451zm-104.768-27.232c-2.929-2.928-7.678-2.928-10.606 0-2.929 2.93-2.929 7.678 0 10.607l52.052 52.051h-119.843v-166.13c0-25.744 20.944-46.687 46.687-46.687h157.879v100.041l-55.234-55.235c-27.226-27.225-71.525-27.225-98.75.001-12.405 12.405-19.644 28.885-20.383 46.401-.734 17.404 4.989 34.33 16.114 47.658 2.655 3.181 7.386 3.606 10.563.952 3.18-2.654 3.606-7.384.952-10.563-8.729-10.459-13.219-23.746-12.643-37.415.58-13.751 6.263-26.688 16.002-36.427 21.377-21.378 56.16-21.378 77.538 0l33.831 33.831c.001.001.002.002.003.003 10.355 10.355 16.059 24.124 16.059 38.769s-5.703 28.413-16.059 38.768c-10.355 10.356-24.124 16.06-38.769 16.06-14.643 0-28.409-5.702-38.763-16.054z"/><path d="m335.735 377.062c-29.037 11.237-62.02 4.277-84.027-17.73-30.658-30.658-30.658-80.543 0-111.201 14.852-14.853 34.598-23.031 55.601-23.031s40.75 8.179 55.601 23.031c19.069 19.068 26.988 46.201 21.183 72.578-.89 4.046 1.667 8.047 5.712 8.937 4.046.894 8.046-1.667 8.937-5.712 6.911-31.401-2.519-63.704-25.226-86.41-17.685-17.685-41.198-27.424-66.208-27.424s-48.523 9.739-66.208 27.424c-17.685 17.686-27.424 41.198-27.424 66.208s9.739 48.522 27.424 66.208c17.885 17.885 41.855 27.423 66.268 27.422 11.354 0 22.804-2.063 33.779-6.311 3.863-1.494 5.783-5.838 4.288-9.7-1.493-3.865-5.837-5.787-9.7-4.289z"/><path d="m307.309 251.553c13.937 0 27.04 5.428 36.895 15.283 9.854 9.854 15.282 22.957 15.281 36.895 0 4.142 3.357 7.5 7.5 7.5 4.142 0 7.5-3.357 7.5-7.5 0-17.944-6.987-34.814-19.675-47.502s-29.558-19.676-47.501-19.676c-17.944 0-34.813 6.988-47.501 19.676-26.192 26.193-26.192 68.811 0 95.004 12.731 12.73 29.834 19.68 47.488 19.679 4.273 0 8.583-.407 12.866-1.239 4.066-.789 6.723-4.725 5.934-8.791-.79-4.066-4.727-6.728-8.792-5.934-17.079 3.312-34.607-2.038-46.89-14.322-20.343-20.344-20.343-53.445 0-73.789 9.855-9.857 22.958-15.284 36.895-15.284z"/><path d="m508.916 459.356-82.211-77.24c-3.019-2.837-7.766-2.688-10.601.33-2.836 3.019-2.688 7.766.331 10.602l82.211 77.24c1.448 1.36 3.292 2.034 5.134 2.034 1.998 0 3.992-.794 5.467-2.364 2.836-3.019 2.688-7.766-.331-10.602z"/><path d="m319.73 322.352 10.395-10.395 64.444 60.548c3.02 2.836 7.766 2.688 10.602-.33 2.836-3.019 2.688-7.766-.331-10.602l-80.708-75.829c-7.026-6.6-17.869-6.432-24.683.386l-5.635 5.634c-6.852 6.855-6.991 17.729-.316 24.755l9.329 9.82c.289.455.628.887 1.025 1.284.298.298.618.557.95.794l171.701 180.736c1.475 1.552 3.455 2.334 5.438 2.334 1.855 0 3.714-.685 5.165-2.063 3.003-2.853 3.125-7.601.272-10.604zm-15.309-19.982 5.635-5.634c1.051-1.05 2.723-1.076 3.806-.06l5.326 5.003-9.792 9.792-5.022-5.286c-1.03-1.081-1.009-2.758.047-3.815z"/></svg>