<svg id="Capa_1" enable-background="new 0 0 511.495 511.495" height="512" viewBox="0 0 511.495 511.495" width="512" xmlns="http://www.w3.org/2000/svg"><path d="m332.271 252.001-78.348 6.79-39.666-.233-76.348-6.556v-9.372c0-6.213 3.85-11.775 9.664-13.964l87.517-32.944 91.453 38.072c3.469 1.444 5.729 4.833 5.729 8.59v9.617z" fill="#838383"/><path d="m253.923 312.172v166.57h1.11 34.69c21.82 0 40.65-12.79 49.4-31.28h100.257c3.133 0 5.673-2.54 5.673-5.673v-123.944c0-3.133-2.54-5.673-5.673-5.673z" fill="#fed2a4"/><path d="m439.38 418.668h-90.022c-5.9 0-11.377 2.943-14.743 7.788-9.863 14.197-26.291 23.492-44.892 23.492h-34.69-1.11v28.794h1.11 34.69c21.82 0 40.65-12.79 49.4-31.28h100.257c3.133 0 5.673-2.54 5.673-5.673v-28.794c0 3.133-2.54 5.673-5.673 5.673z" fill="#ffbd86"/><path d="m253.923 224.283v29.878 83.106 140.416 19.589c0 3.709-2.33 6.721-5.21 6.721h-29.25c-2.87 0-5.21-3.011-5.21-6.721v-42.533l.004-201.442v-28.836z" fill="#ebebeb"/><path d="m206.223 300.116c10.92 0 19.78 8.86 19.78 19.79 0 10.92-8.86 19.78-19.78 19.78h-37.43c-10.93 0-19.79-8.86-19.79-19.78 0-5.46 2.22-10.41 5.8-13.99 3.58-3.59 8.52-5.8 13.99-5.8z" fill="#ffbd86"/><path d="m206.223 321.608h-37.43c-7.667 0-14.301-4.368-17.587-10.74-1.398 2.712-2.203 5.78-2.203 9.038 0 10.92 8.86 19.78 19.79 19.78h37.43c10.92 0 19.78-8.86 19.78-19.78 0-3.261-.803-6.33-2.2-9.042-3.285 6.374-9.918 10.744-17.58 10.744z" fill="#f6a96c"/><path d="m246.78.521c1.549-.011 2.825 1.215 2.873 2.764l4.27 135.865v40.861h-39.666v-40.568l4.259-135.97c.048-1.532 1.298-2.753 2.831-2.764z" fill="#ebebeb"/><path d="m236.36 497.271v-42.533l.004-201.442v-28.836h-22.107v28.836l-.004 201.442v42.533c0 3.709 2.34 6.721 5.21 6.721h22.107c-2.87 0-5.21-3.011-5.21-6.721z" fill="#e2e2e2"/><path d="m206.223 339.697c10.92 0 19.78 8.86 19.78 19.79 0 10.92-8.86 19.78-19.78 19.78h-37.43c-10.93 0-19.79-8.86-19.79-19.78 0-5.46 2.22-10.41 5.8-13.99 3.58-3.59 8.52-5.8 13.99-5.8z" fill="#ffbd86"/><path d="m206.223 361.189h-37.43c-7.667 0-14.301-4.368-17.587-10.74-1.398 2.712-2.203 5.78-2.203 9.038 0 10.92 8.86 19.78 19.79 19.78h37.43c10.92 0 19.78-8.86 19.78-19.78 0-3.261-.803-6.33-2.2-9.042-3.285 6.374-9.918 10.744-17.58 10.744z" fill="#f6a96c"/><path d="m240.623 3.473c.048-1.532 1.298-2.753 2.831-2.764l4.244-.031c-.29-.097-.596-.159-.919-.157l-25.433.188c-1.533.011-2.783 1.232-2.831 2.764l-4.259 135.97v40.568h22.107v-40.568z" fill="#e2e2e2"/><path d="m235.09 139.443c-53.672 0-97.181 43.509-97.181 97.181v15.378c66.117-27.351 130.912-26.089 194.362 0v-15.378c0-53.672-43.509-97.181-97.181-97.181z" fill="#acacac"/><path d="m186.954 236.624c0-45.201 30.86-83.191 72.659-94.058-7.834-2.037-16.051-3.123-24.522-3.123-53.672 0-97.181 43.509-97.181 97.181v15.377c16.43-6.797 32.778-11.823 49.045-15.144v-.233z" fill="#9e9797"/><path d="m308.652 312.172h-54.73v48.875c6.47 3.837 13.915 5.935 21.58 5.935h21.688c6.33 0 11.461-5.131 11.461-11.461v-43.349z" fill="#ffbd86"/><path d="m343.293 345.112v7.87h-52.58-15.21c-8.38 0-15.91-3.64-21.09-9.43-4.5-5.01-7.23-11.63-7.23-18.89v-17.59c0-2.55-2.07-4.62-4.62-4.62h-27.01-.6c-2.55 0-4.62 2.07-4.62 4.62v24.23c0 2.91-.57 5.68-1.62 8.21-.04.11-.08.22-.14.33-3.31 7.73-10.98 13.14-19.92 13.14h-11.68c-3.18 0-5.76-2.58-5.76-5.76v-7.53-39.58-12.44c0-12.4 10.05-22.45 22.45-22.45h69.75c32.43 0 60.35 19.33 72.85 47.09 4.52 10.01 7.03 21.11 7.03 32.8z" fill="#fed2a4"/><path d="m206.223 379.272c10.92 0 19.78 8.86 19.78 19.79 0 10.92-8.86 19.78-19.78 19.78h-37.43c-10.93 0-19.79-8.86-19.79-19.78 0-5.46 2.22-10.41 5.8-13.99 3.58-3.59 8.52-5.8 13.99-5.8z" fill="#ffbd86"/><path d="m206.223 418.842c10.92 0 19.78 8.86 19.78 19.79 0 8.07-4.83 15.01-11.75 18.08-2.45 1.1-5.17 1.71-8.03 1.71h-37.43c-10.93 0-19.79-8.86-19.79-19.79 0-5.47 2.22-10.41 5.8-13.99s8.52-5.8 13.99-5.8z" fill="#ffbd86"/><path d="m206.223 400.764h-37.43c-7.667 0-14.301-4.368-17.588-10.739-1.398 2.712-2.203 5.78-2.203 9.038 0 10.92 8.86 19.78 19.79 19.78h37.43c10.92 0 19.78-8.86 19.78-19.78 0-3.261-.803-6.33-2.2-9.042-3.284 6.374-9.917 10.743-17.579 10.743z" fill="#f6a96c"/><path d="m214.253 438.634c-2.45 1.1-5.17 1.71-8.03 1.71h-37.43c-7.669 0-14.304-4.37-17.59-10.748-1.396 2.709-2.2 5.774-2.2 9.036 0 10.93 8.86 19.79 19.79 19.79h37.43c2.86 0 5.58-.61 8.03-1.71 6.92-3.07 11.75-10.01 11.75-18.08 0-3.258-.802-6.325-2.197-9.035-2.059 3.998-5.43 7.208-9.553 9.037z" fill="#f6a96c"/><path d="m87.796 301.559c-3.763 5.317-8.221 9.875-13.434 13.606-3.263 2.336-3.345 7.188-.049 9.478 5.417 3.764 9.967 8.132 13.543 13.175 2.279 3.215 7.123 3.213 9.379-.018 3.627-5.194 8.095-9.65 13.443-13.334 3.305-2.277 3.408-7.121.155-9.472-5.22-3.772-9.823-8.179-13.623-13.411-2.332-3.213-7.12-3.264-9.414-.024z" fill="#fee903"/><path d="m360.471 95.04c-3.763 5.317-8.221 9.875-13.434 13.606-3.263 2.336-3.345 7.188-.049 9.478 5.417 3.764 9.967 8.132 13.543 13.175 2.279 3.215 7.123 3.213 9.379-.018 3.627-5.194 8.095-9.65 13.443-13.334 3.305-2.277 3.408-7.121.155-9.472-5.22-3.772-9.823-8.179-13.623-13.411-2.332-3.213-7.121-3.265-9.414-.024z" fill="#fee903"/><path d="m445.05 439.967h-95.255c1.338-5.064 2.058-10.377 2.058-15.856 0-4.143-3.357-7.5-7.5-7.5s-7.5 3.357-7.5 7.5c0 25.987-21.142 47.129-47.129 47.129h-28.302v-53.17c0-4.143-3.357-7.5-7.5-7.5s-7.5 3.357-7.5 7.5l-.009 78.426h-24.657v-35.446c7.094-4.933 11.75-13.138 11.75-22.414 0-7.785-3.282-14.813-8.528-19.789 5.246-4.977 8.528-12.004 8.528-19.789s-3.282-14.813-8.528-19.789c5.246-4.977 8.528-12.004 8.528-19.789 0-7.741-3.249-14.801-8.519-19.798 5.268-5.002 8.519-12.062 8.519-19.78 0-3.468-.668-6.829-1.89-9.947h8.069v14.708c0 7.784 2.503 14.989 6.736 20.871v42.537c0 4.143 3.357 7.5 7.5 7.5s7.5-3.357 7.5-7.5v-30.478c4.325 1.856 9.084 2.888 14.08 2.888h15.205c4.143 0 7.5-3.357 7.5-7.5s-3.357-7.5-7.5-7.5h-15.205c-11.479 0-20.816-9.339-20.816-20.817v-17.587c0-6.684-5.438-12.121-12.121-12.121h-27.012-.603c-.259 0-.516.013-.768.039-6.325.399-11.353 5.658-11.353 12.082v24.227c0 7.817-6.359 14.178-14.177 14.178h-9.938v-57.809c0-8.241 6.705-14.946 14.946-14.946h69.746c39.914 0 72.387 32.472 72.387 72.386v7.869c0 4.143 3.357 7.5 7.5 7.5s7.5-3.357 7.5-7.5v-7.869c0-8.847-1.326-17.389-3.782-25.442h98.037c4.143 0 7.5-3.357 7.5-7.5s-3.357-7.5-7.5-7.5h-104.193c-10.084-19.231-27.119-34.268-47.75-41.745l39.813-3.45c3.877-.336 6.853-3.58 6.853-7.472v-15.377c0-48.674-33.393-89.695-78.472-101.359l-4.236-128.016c-.135-4.056-3.464-7.252-7.491-7.252-.084 0-.169.001-.253.004-4.14.138-7.385 3.604-7.248 7.744l4.13 124.784c-3.651-.387-7.357-.59-11.11-.59-4.413 0-8.789.286-13.109.828l4.116-124.794c.137-4.14-3.109-7.606-7.249-7.743-4.1-.167-7.607 3.108-7.743 7.249l-4.233 128.321c-20.076 5.61-38.21 17.161-51.953 33.515-2.665 3.171-2.255 7.902.916 10.566 3.172 2.665 7.901 2.255 10.566-.916 17.105-20.354 42.141-32.026 68.688-32.026 49.45 0 89.681 40.231 89.681 89.682v4.42c-59.708-21.989-119.964-21.992-179.362-.017v-4.403c0-11.747 2.241-23.175 6.661-33.966 1.57-3.833-.265-8.213-4.098-9.783-3.832-1.567-8.214.266-9.783 4.098-5.162 12.604-7.78 25.944-7.78 39.651v15.377c0 3.894 2.979 7.14 6.858 7.473l39.621 3.402c-7.943 5.391-13.172 14.493-13.172 24.795v5.423c-12.628 2.388-22.211 13.497-22.211 26.808 0 7.784 3.282 14.813 8.528 19.789-5.246 4.976-8.528 12.004-8.528 19.789s3.282 14.813 8.528 19.789c-5.246 4.977-8.528 12.004-8.528 19.789s3.282 14.813 8.528 19.789c-5.246 4.977-8.528 12.004-8.528 19.789 0 15.047 12.242 27.289 27.289 27.289h37.424c.181 0 .359-.01.539-.014v31.633c0 7.692 5.7 13.951 12.706 13.951h29.253c7.007 0 12.707-6.259 12.707-13.951v-11.305h28.302c23.031 0 43.16-12.607 53.89-31.272h101.436c4.143 0 7.5-3.357 7.5-7.5s-3.357-7.5-7.5-7.5zm-227.22-116.088v-7.941c.43 1.258.677 2.59.677 3.963 0 1.389-.245 2.725-.677 3.978zm-11.073-73.493-32.538-2.794c10.841-2.885 21.698-5.017 32.538-6.365zm54.666-9.359c11.476 1.338 22.989 3.54 34.495 6.597l-34.495 2.99zm-26.465-1.568c.239 0 .48 0 .721.001 3.574.012 7.157.116 10.744.298v17.966h-24.666v-17.863c4.407-.257 8.809-.402 13.201-.402zm-71.242 69.265v22.354c-4.246-1.938-7.211-6.213-7.211-11.177s2.965-9.239 7.211-11.177zm-7.211 50.755c0-4.985 2.989-9.278 7.264-11.203.539 6.817 6.248 12.203 13.202 12.203h11.683c9.581 0 18.096-4.643 23.419-11.796 3.858 2.09 6.435 6.171 6.435 10.796 0 6.776-5.513 12.289-12.289 12.289h-37.424c-6.777.001-12.29-5.512-12.29-12.289zm0 39.579c0-6.776 5.513-12.289 12.289-12.289h37.424c6.776 0 12.289 5.513 12.289 12.289s-5.513 12.289-12.289 12.289h-37.424c-6.776 0-12.289-5.513-12.289-12.289zm12.289 51.867c-6.776 0-12.289-5.513-12.289-12.289s5.513-12.289 12.289-12.289h37.424c6.776 0 12.289 5.513 12.289 12.289s-5.513 12.289-12.289 12.289z"/><path d="m122.225 313.354c-10.792-6.03-18.319-13.514-23.015-22.876-1.261-2.515-3.822-4.112-6.635-4.139-.023 0-.046 0-.069 0-2.786 0-5.345 1.545-6.642 4.015-5.524 10.529-12.963 17.994-22.74 22.822-2.531 1.249-4.146 3.814-4.179 6.637s1.521 5.425 4.022 6.733c11.101 5.808 18.523 13.16 22.692 22.478 1.194 2.671 3.833 4.402 6.758 4.437.029.001.059.001.089.001 2.891 0 5.527-1.663 6.771-4.278 4.841-10.175 12.216-17.544 22.547-22.527 2.52-1.216 4.154-3.733 4.238-6.529.086-2.798-1.395-5.409-3.837-6.774zm-29.702 18.185c-3.321-4.273-7.317-8.157-11.975-11.638 4.449-3.438 8.44-7.477 11.955-12.092 3.391 4.338 7.387 8.272 12.025 11.843-4.571 3.411-8.579 7.379-12.005 11.887z"/><path d="m335.643 120.027c11.101 5.809 18.523 13.161 22.692 22.478 1.194 2.671 3.833 4.402 6.758 4.437.029.001.059.001.089.001 2.891 0 5.527-1.663 6.771-4.278 4.842-10.175 12.217-17.544 22.547-22.527 2.52-1.216 4.153-3.732 4.238-6.529.084-2.797-1.396-5.408-3.839-6.772-10.792-6.03-18.32-13.513-23.015-22.875-1.261-2.515-3.822-4.112-6.635-4.139-2.801-.03-5.403 1.523-6.711 4.015-5.524 10.529-12.963 17.994-22.74 22.821-2.531 1.249-4.146 3.814-4.179 6.637-.032 2.82 1.522 5.423 4.024 6.731zm29.535-18.737c3.391 4.338 7.388 8.273 12.025 11.843-4.572 3.41-8.58 7.378-12.006 11.888-3.32-4.272-7.318-8.158-11.975-11.638 4.45-3.439 8.441-7.477 11.956-12.093z"/></svg>