<svg height="480pt" viewBox="0 -80 480 480" width="480pt" xmlns="http://www.w3.org/2000/svg"><g fill="#ffe184"><path d="m8 256h80c4.417969 0 8 3.582031 8 8v48c0 4.417969-3.582031 8-8 8h-80c-4.417969 0-8-3.582031-8-8v-48c0-4.417969 3.582031-8 8-8zm0 0"/><path d="m136 256h80c4.417969 0 8 3.582031 8 8v48c0 4.417969-3.582031 8-8 8h-80c-4.417969 0-8-3.582031-8-8v-48c0-4.417969 3.582031-8 8-8zm0 0"/><path d="m264 256h80c4.417969 0 8 3.582031 8 8v48c0 4.417969-3.582031 8-8 8h-80c-4.417969 0-8-3.582031-8-8v-48c0-4.417969 3.582031-8 8-8zm0 0"/><path d="m392 256h80c4.417969 0 8 3.582031 8 8v48c0 4.417969-3.582031 8-8 8h-80c-4.417969 0-8-3.582031-8-8v-48c0-4.417969 3.582031-8 8-8zm0 0"/></g><path d="m64 128h80c4.417969 0 8 3.582031 8 8v48c0 4.417969-3.582031 8-8 8h-80c-4.417969 0-8-3.582031-8-8v-48c0-4.417969 3.582031-8 8-8zm0 0" fill="#ffcc5c"/><path d="m328 128h80c4.417969 0 8 3.582031 8 8v48c0 4.417969-3.582031 8-8 8h-80c-4.417969 0-8-3.582031-8-8v-48c0-4.417969 3.582031-8 8-8zm0 0" fill="#ffcc5c"/><path d="m184 0h112c4.417969 0 8 3.582031 8 8v48c0 4.417969-3.582031 8-8 8h-112c-4.417969 0-8-3.582031-8-8v-48c0-4.417969 3.582031-8 8-8zm0 0" fill="#f7931e"/><path d="m472 256h-32v-32c0-4.417969-3.582031-8-8-8h-56v-24h32c4.417969 0 8-3.582031 8-8v-48c0-4.417969-3.582031-8-8-8h-32v-32c0-4.417969-3.582031-8-8-8h-120v-24h48c4.417969 0 8-3.582031 8-8v-48c0-4.417969-3.582031-8-8-8h-112c-4.417969 0-8 3.582031-8 8v48c0 4.417969 3.582031 8 8 8h48v24h-128c-4.417969 0-8 3.582031-8 8v32h-32c-4.417969 0-8 3.582031-8 8v48c0 4.417969 3.582031 8 8 8h32v24h-56c-4.417969 0-8 3.582031-8 8v32h-24c-4.417969 0-8 3.582031-8 8v48c0 4.417969 3.582031 8 8 8h80c4.417969 0 8-3.582031 8-8v-48c0-4.417969-3.582031-8-8-8h-40v-24h112v24h-24c-4.417969 0-8 3.582031-8 8v48c0 4.417969 3.582031 8 8 8h80c4.417969 0 8-3.582031 8-8v-48c0-4.417969-3.582031-8-8-8h-40v-32c0-4.417969-3.582031-8-8-8h-56v-24h32c4.417969 0 8-3.582031 8-8v-48c0-4.417969-3.582031-8-8-8h-32v-24h248v24h-32c-4.417969 0-8 3.582031-8 8v48c0 4.417969 3.582031 8 8 8h32v24h-56c-4.417969 0-8 3.582031-8 8v32h-32c-4.417969 0-8 3.582031-8 8v48c0 4.417969 3.582031 8 8 8h80c4.417969 0 8-3.582031 8-8v-48c0-4.417969-3.582031-8-8-8h-32v-24h112v24h-32c-4.417969 0-8 3.582031-8 8v48c0 4.417969 3.582031 8 8 8h80c4.417969 0 8-3.582031 8-8v-48c0-4.417969-3.582031-8-8-8zm-280-240h96v32h-96zm-112 288h-64v-32h64zm128 0h-64v-32h64zm-72-128h-64v-32h64zm200-32h64v32h-64zm0 160h-64v-32h64zm128 0h-64v-32h64zm0 0"/></svg>